<?xml version="1.0" encoding="UTF-8"?>
<svg xmlns="http://www.w3.org/2000/svg" xmlns:xlink="http://www.w3.org/1999/xlink" width="756pt" height="252pt" viewBox="0 0 756 252" version="1.1">
<defs>
<clipPath id="clip1">
  <path d="M 8.21875 48 L 750.519531 48 L 750.519531 225.472656 L 8.21875 225.472656 Z M 8.21875 48 "/>
</clipPath>
<clipPath id="clip2">
  <path d="M 561 5.480469 L 563 5.480469 L 563 225.472656 L 561 225.472656 Z M 561 5.480469 "/>
</clipPath>
<clipPath id="clip3">
  <path d="M 196 5.480469 L 198 5.480469 L 198 225.472656 L 196 225.472656 Z M 196 5.480469 "/>
</clipPath>
<clipPath id="clip4">
  <path d="M 197 5.480469 L 198 5.480469 L 198 225.472656 L 197 225.472656 Z M 197 5.480469 "/>
</clipPath>
<clipPath id="clip5">
  <path d="M 560 5.480469 L 562 5.480469 L 562 225.472656 L 560 225.472656 Z M 560 5.480469 "/>
</clipPath>
</defs>
<g id="surface49">
<rect x="0" y="0" width="756" height="252" style="fill:rgb(100%,100%,100%);fill-opacity:1;stroke:none;"/>
<g clip-path="url(#clip1)" clip-rule="nonzero">
<path style="fill:none;stroke-width:2.133957;stroke-linecap:butt;stroke-linejoin:round;stroke:rgb(57.647059%,43.921569%,85.882353%);stroke-opacity:1;stroke-miterlimit:10;" d="M 8.21875 225.402344 L 9.148438 225.402344 L 10.074219 225.398438 L 11.003906 225.394531 L 11.929688 225.394531 L 12.859375 225.390625 L 13.785156 225.386719 L 14.714844 225.382812 L 15.640625 225.378906 L 16.570312 225.378906 L 17.496094 225.375 L 19.355469 225.367188 L 20.28125 225.363281 L 21.210938 225.359375 L 22.136719 225.351562 L 23.066406 225.347656 L 23.992188 225.34375 L 24.921875 225.339844 L 25.847656 225.335938 L 26.777344 225.328125 L 27.703125 225.324219 L 28.632812 225.320312 L 29.558594 225.3125 L 30.488281 225.308594 L 31.417969 225.300781 L 32.34375 225.296875 L 33.273438 225.289062 L 34.199219 225.28125 L 35.128906 225.273438 L 36.054688 225.269531 L 36.984375 225.261719 L 37.910156 225.253906 L 38.839844 225.246094 L 39.765625 225.238281 L 40.695312 225.226562 L 41.621094 225.21875 L 42.550781 225.210938 L 43.476562 225.199219 L 44.40625 225.191406 L 45.335938 225.179688 L 46.261719 225.171875 L 47.191406 225.160156 L 48.117188 225.148438 L 49.046875 225.136719 L 49.972656 225.125 L 50.902344 225.113281 L 51.828125 225.101562 L 52.757812 225.089844 L 53.683594 225.074219 L 54.613281 225.0625 L 55.539062 225.046875 L 56.46875 225.03125 L 57.398438 225.019531 L 58.324219 225.003906 L 59.253906 224.984375 L 60.179688 224.96875 L 61.109375 224.953125 L 62.035156 224.933594 L 62.964844 224.917969 L 63.890625 224.898438 L 64.820312 224.878906 L 65.746094 224.859375 L 66.675781 224.839844 L 67.601562 224.816406 L 68.53125 224.792969 L 69.460938 224.773438 L 70.386719 224.75 L 71.316406 224.726562 L 72.242188 224.699219 L 73.171875 224.675781 L 74.097656 224.648438 L 75.027344 224.621094 L 75.953125 224.59375 L 76.882812 224.566406 L 77.808594 224.535156 L 78.738281 224.507812 L 79.664062 224.476562 L 80.59375 224.445312 L 81.519531 224.410156 L 82.449219 224.375 L 83.378906 224.34375 L 84.304688 224.304688 L 85.234375 224.269531 L 86.160156 224.230469 L 87.089844 224.191406 L 88.015625 224.152344 L 88.945312 224.109375 L 89.871094 224.070312 L 90.800781 224.023438 L 91.726562 223.980469 L 92.65625 223.933594 L 93.582031 223.886719 L 94.511719 223.839844 L 95.441406 223.789062 L 96.367188 223.738281 L 97.296875 223.683594 L 98.222656 223.628906 L 99.152344 223.574219 L 100.078125 223.519531 L 101.007812 223.460938 L 101.933594 223.398438 L 102.863281 223.335938 L 103.789062 223.273438 L 104.71875 223.210938 L 105.644531 223.140625 L 106.574219 223.074219 L 107.503906 223.003906 L 108.429688 222.929688 L 109.359375 222.855469 L 110.285156 222.78125 L 111.214844 222.703125 L 112.140625 222.625 L 113.070312 222.542969 L 113.996094 222.457031 L 114.925781 222.371094 L 115.851562 222.285156 L 116.78125 222.195312 L 117.707031 222.101562 L 118.636719 222.007812 L 119.5625 221.910156 L 121.421875 221.707031 L 122.347656 221.601562 L 123.277344 221.496094 L 124.203125 221.386719 L 125.132812 221.273438 L 126.058594 221.160156 L 126.988281 221.042969 L 127.914062 220.921875 L 128.84375 220.800781 L 129.769531 220.671875 L 130.699219 220.542969 L 131.625 220.410156 L 132.554688 220.277344 L 133.484375 220.140625 L 134.410156 219.996094 L 135.339844 219.855469 L 136.265625 219.707031 L 137.195312 219.554688 L 138.121094 219.402344 L 139.050781 219.242188 L 139.976562 219.082031 L 140.90625 218.917969 L 141.832031 218.75 L 142.761719 218.578125 L 143.6875 218.402344 L 144.617188 218.222656 L 145.546875 218.039062 L 146.472656 217.851562 L 147.402344 217.660156 L 148.328125 217.464844 L 149.257812 217.265625 L 150.183594 217.0625 L 151.113281 216.855469 L 152.039062 216.640625 L 152.96875 216.425781 L 153.894531 216.203125 L 154.824219 215.980469 L 155.75 215.75 L 156.679688 215.515625 L 157.605469 215.277344 L 159.464844 214.785156 L 160.390625 214.53125 L 161.320312 214.273438 L 162.246094 214.007812 L 163.175781 213.742188 L 164.101562 213.46875 L 165.03125 213.1875 L 165.957031 212.90625 L 166.886719 212.617188 L 167.8125 212.320312 L 168.742188 212.019531 L 169.667969 211.714844 L 170.597656 211.402344 L 171.527344 211.085938 L 172.453125 210.765625 L 173.382812 210.4375 L 174.308594 210.101562 L 175.238281 209.761719 L 176.164062 209.417969 L 177.09375 209.066406 L 178.019531 208.707031 L 178.949219 208.34375 L 179.875 207.972656 L 180.804688 207.597656 L 181.730469 207.210938 L 182.660156 206.824219 L 183.585938 206.425781 L 184.515625 206.023438 L 185.445312 205.617188 L 186.371094 205.199219 L 187.300781 204.777344 L 188.226562 204.351562 L 189.15625 203.914062 L 190.082031 203.472656 L 191.011719 203.023438 L 191.9375 202.566406 L 192.867188 202.101562 L 193.792969 201.632812 L 194.722656 201.15625 L 195.648438 200.671875 L 196.578125 200.179688 L 197.507812 199.679688 L 198.433594 199.171875 L 199.363281 198.660156 L 200.289062 198.136719 L 201.21875 197.609375 L 202.144531 197.074219 L 203.074219 196.53125 L 204 195.980469 L 204.929688 195.421875 L 205.855469 194.855469 L 206.785156 194.28125 L 207.710938 193.703125 L 208.640625 193.113281 L 209.570312 192.515625 L 210.496094 191.914062 L 211.425781 191.300781 L 212.351562 190.679688 L 213.28125 190.054688 L 214.207031 189.417969 L 215.136719 188.777344 L 216.0625 188.125 L 216.992188 187.46875 L 217.917969 186.800781 L 218.847656 186.125 L 219.773438 185.445312 L 220.703125 184.753906 L 221.628906 184.058594 L 222.558594 183.351562 L 223.488281 182.640625 L 224.414062 181.917969 L 225.34375 181.191406 L 226.269531 180.453125 L 227.199219 179.710938 L 228.125 178.957031 L 229.054688 178.199219 L 229.980469 177.429688 L 230.910156 176.65625 L 231.835938 175.875 L 232.765625 175.085938 L 233.691406 174.285156 L 234.621094 173.480469 L 235.550781 172.667969 L 236.476562 171.847656 L 237.40625 171.023438 L 238.332031 170.1875 L 239.261719 169.347656 L 240.1875 168.496094 L 241.117188 167.640625 L 242.042969 166.777344 L 242.972656 165.90625 L 243.898438 165.03125 L 244.828125 164.148438 L 245.753906 163.257812 L 246.683594 162.359375 L 247.613281 161.457031 L 248.539062 160.546875 L 249.46875 159.628906 L 250.394531 158.707031 L 251.324219 157.777344 L 252.25 156.839844 L 253.179688 155.898438 L 254.105469 154.949219 L 255.035156 153.996094 L 255.960938 153.039062 L 256.890625 152.074219 L 257.816406 151.105469 L 258.746094 150.128906 L 259.671875 149.148438 L 261.53125 147.171875 L 262.457031 146.175781 L 263.386719 145.175781 L 264.3125 144.171875 L 265.242188 143.160156 L 266.167969 142.148438 L 267.097656 141.128906 L 268.023438 140.109375 L 268.953125 139.082031 L 269.878906 138.054688 L 270.808594 137.023438 L 271.734375 135.988281 L 272.664062 134.949219 L 273.59375 133.90625 L 274.519531 132.863281 L 275.449219 131.8125 L 276.375 130.765625 L 277.304688 129.710938 L 278.230469 128.660156 L 279.160156 127.601562 L 280.085938 126.546875 L 281.015625 125.488281 L 281.941406 124.425781 L 282.871094 123.367188 L 283.796875 122.304688 L 284.726562 121.242188 L 285.65625 120.175781 L 286.582031 119.113281 L 287.511719 118.050781 L 288.4375 116.988281 L 289.367188 115.925781 L 290.292969 114.863281 L 291.222656 113.800781 L 292.148438 112.738281 L 293.078125 111.679688 L 294.003906 110.621094 L 294.933594 109.566406 L 295.859375 108.511719 L 296.789062 107.460938 L 297.714844 106.410156 L 298.644531 105.363281 L 299.574219 104.320312 L 300.5 103.28125 L 301.429688 102.242188 L 302.355469 101.207031 L 303.285156 100.179688 L 304.210938 99.152344 L 305.140625 98.128906 L 306.066406 97.113281 L 306.996094 96.101562 L 307.921875 95.09375 L 308.851562 94.089844 L 309.777344 93.09375 L 310.707031 92.105469 L 311.636719 91.121094 L 312.5625 90.140625 L 313.492188 89.167969 L 314.417969 88.203125 L 315.347656 87.246094 L 316.273438 86.292969 L 317.203125 85.351562 L 318.128906 84.414062 L 319.058594 83.488281 L 319.984375 82.566406 L 320.914062 81.65625 L 321.839844 80.753906 L 322.769531 79.859375 L 323.695312 78.972656 L 324.625 78.097656 L 325.554688 77.234375 L 326.480469 76.375 L 327.410156 75.53125 L 328.335938 74.695312 L 329.265625 73.871094 L 330.191406 73.054688 L 331.121094 72.253906 L 332.046875 71.460938 L 332.976562 70.679688 L 333.902344 69.910156 L 334.832031 69.152344 L 335.757812 68.40625 L 336.6875 67.671875 L 337.617188 66.953125 L 338.542969 66.246094 L 339.472656 65.550781 L 340.398438 64.867188 L 341.328125 64.199219 L 342.253906 63.542969 L 343.183594 62.902344 L 344.109375 62.273438 L 345.039062 61.660156 L 345.964844 61.058594 L 346.894531 60.472656 L 347.820312 59.902344 L 348.75 59.34375 L 349.679688 58.804688 L 350.605469 58.277344 L 351.535156 57.765625 L 352.460938 57.269531 L 353.390625 56.789062 L 354.316406 56.320312 L 355.246094 55.871094 L 356.171875 55.4375 L 357.101562 55.019531 L 358.027344 54.617188 L 358.957031 54.234375 L 359.882812 53.863281 L 360.8125 53.511719 L 361.738281 53.175781 L 362.667969 52.855469 L 363.597656 52.550781 L 364.523438 52.265625 L 365.453125 51.996094 L 366.378906 51.746094 L 367.308594 51.511719 L 368.234375 51.292969 L 369.164062 51.089844 L 370.089844 50.90625 L 371.019531 50.742188 L 371.945312 50.59375 L 372.875 50.460938 L 373.800781 50.347656 L 374.730469 50.25 L 375.660156 50.171875 L 376.585938 50.109375 L 377.515625 50.066406 L 378.441406 50.039062 L 379.371094 50.03125 L 380.296875 50.039062 L 381.226562 50.066406 L 382.152344 50.109375 L 383.082031 50.171875 L 384.007812 50.25 L 384.9375 50.347656 L 385.863281 50.460938 L 386.792969 50.59375 L 387.722656 50.742188 L 388.648438 50.90625 L 389.578125 51.089844 L 390.503906 51.292969 L 391.433594 51.511719 L 392.359375 51.746094 L 393.289062 51.996094 L 394.214844 52.265625 L 395.144531 52.550781 L 396.070312 52.855469 L 397 53.175781 L 397.925781 53.511719 L 398.855469 53.863281 L 399.78125 54.234375 L 400.710938 54.617188 L 401.640625 55.019531 L 402.566406 55.4375 L 403.496094 55.871094 L 404.421875 56.320312 L 405.351562 56.789062 L 406.277344 57.269531 L 407.207031 57.765625 L 408.132812 58.277344 L 409.0625 58.804688 L 409.988281 59.34375 L 410.917969 59.902344 L 411.84375 60.472656 L 412.773438 61.058594 L 413.703125 61.660156 L 414.628906 62.273438 L 415.558594 62.902344 L 416.484375 63.542969 L 417.414062 64.199219 L 418.339844 64.867188 L 419.269531 65.550781 L 420.195312 66.246094 L 421.125 66.953125 L 422.050781 67.671875 L 422.980469 68.40625 L 423.90625 69.152344 L 424.835938 69.910156 L 425.765625 70.679688 L 426.691406 71.460938 L 427.621094 72.253906 L 428.546875 73.054688 L 429.476562 73.871094 L 430.402344 74.695312 L 431.332031 75.53125 L 432.257812 76.375 L 433.1875 77.234375 L 434.113281 78.097656 L 435.042969 78.972656 L 435.96875 79.859375 L 436.898438 80.753906 L 437.824219 81.65625 L 438.753906 82.566406 L 439.683594 83.488281 L 440.609375 84.414062 L 441.539062 85.351562 L 442.464844 86.292969 L 443.394531 87.246094 L 444.320312 88.203125 L 445.25 89.167969 L 446.175781 90.140625 L 447.105469 91.121094 L 448.03125 92.105469 L 448.960938 93.09375 L 449.886719 94.089844 L 450.816406 95.09375 L 451.746094 96.101562 L 452.671875 97.113281 L 453.601562 98.128906 L 454.527344 99.152344 L 455.457031 100.179688 L 456.382812 101.207031 L 457.3125 102.242188 L 458.238281 103.28125 L 459.167969 104.320312 L 460.09375 105.363281 L 461.023438 106.410156 L 461.949219 107.460938 L 462.878906 108.511719 L 463.808594 109.566406 L 464.734375 110.621094 L 465.664062 111.679688 L 466.589844 112.738281 L 467.519531 113.800781 L 468.445312 114.863281 L 469.375 115.925781 L 470.300781 116.988281 L 471.230469 118.050781 L 472.15625 119.113281 L 473.085938 120.175781 L 474.011719 121.242188 L 474.941406 122.304688 L 475.867188 123.367188 L 476.796875 124.425781 L 477.726562 125.488281 L 478.652344 126.546875 L 479.582031 127.601562 L 480.507812 128.660156 L 481.4375 129.710938 L 482.363281 130.765625 L 483.292969 131.8125 L 484.21875 132.863281 L 485.148438 133.90625 L 486.074219 134.949219 L 487.003906 135.988281 L 487.929688 137.023438 L 488.859375 138.054688 L 489.789062 139.082031 L 490.714844 140.109375 L 491.644531 141.128906 L 492.570312 142.148438 L 493.5 143.160156 L 494.425781 144.171875 L 495.355469 145.175781 L 496.28125 146.175781 L 497.210938 147.171875 L 498.136719 148.160156 L 499.066406 149.148438 L 499.992188 150.128906 L 500.921875 151.105469 L 501.847656 152.074219 L 502.777344 153.039062 L 503.707031 153.996094 L 504.632812 154.949219 L 505.5625 155.898438 L 506.488281 156.839844 L 507.417969 157.777344 L 508.34375 158.707031 L 509.273438 159.628906 L 510.199219 160.546875 L 511.128906 161.457031 L 512.054688 162.359375 L 512.984375 163.257812 L 513.910156 164.148438 L 514.839844 165.03125 L 515.769531 165.90625 L 516.695312 166.777344 L 517.625 167.640625 L 518.550781 168.496094 L 519.480469 169.347656 L 520.40625 170.1875 L 521.335938 171.023438 L 522.261719 171.847656 L 523.191406 172.667969 L 524.117188 173.480469 L 525.046875 174.285156 L 525.972656 175.085938 L 526.902344 175.875 L 527.832031 176.65625 L 528.757812 177.429688 L 529.6875 178.199219 L 530.613281 178.957031 L 531.542969 179.710938 L 532.46875 180.453125 L 533.398438 181.191406 L 534.324219 181.917969 L 535.253906 182.640625 L 536.179688 183.351562 L 537.109375 184.058594 L 538.035156 184.753906 L 538.964844 185.445312 L 539.890625 186.125 L 540.820312 186.800781 L 541.75 187.46875 L 542.675781 188.125 L 543.605469 188.777344 L 544.53125 189.417969 L 545.460938 190.054688 L 546.386719 190.679688 L 547.316406 191.300781 L 548.242188 191.914062 L 549.171875 192.515625 L 550.097656 193.113281 L 551.027344 193.703125 L 551.953125 194.28125 L 552.882812 194.855469 L 553.8125 195.421875 L 554.738281 195.980469 L 555.667969 196.53125 L 556.59375 197.074219 L 557.523438 197.609375 L 558.449219 198.136719 L 559.378906 198.660156 L 560.304688 199.171875 L 561.234375 199.679688 L 562.160156 200.179688 L 563.089844 200.671875 L 564.015625 201.15625 L 564.945312 201.632812 L 565.875 202.101562 L 566.800781 202.566406 L 567.730469 203.023438 L 568.65625 203.472656 L 569.585938 203.914062 L 570.511719 204.351562 L 571.441406 204.777344 L 572.367188 205.199219 L 573.296875 205.617188 L 574.222656 206.023438 L 575.152344 206.425781 L 576.078125 206.824219 L 577.007812 207.210938 L 577.933594 207.597656 L 578.863281 207.972656 L 579.792969 208.34375 L 580.71875 208.707031 L 581.648438 209.066406 L 582.574219 209.417969 L 583.503906 209.761719 L 584.429688 210.101562 L 585.359375 210.4375 L 586.285156 210.765625 L 587.214844 211.085938 L 588.140625 211.402344 L 589.070312 211.714844 L 589.996094 212.019531 L 590.925781 212.320312 L 591.855469 212.617188 L 592.78125 212.90625 L 593.710938 213.1875 L 594.636719 213.46875 L 595.566406 213.742188 L 596.492188 214.007812 L 597.421875 214.273438 L 598.347656 214.53125 L 599.277344 214.785156 L 600.203125 215.03125 L 601.132812 215.277344 L 602.058594 215.515625 L 602.988281 215.75 L 603.917969 215.980469 L 604.84375 216.203125 L 605.773438 216.425781 L 606.699219 216.640625 L 607.628906 216.855469 L 608.554688 217.0625 L 609.484375 217.265625 L 610.410156 217.464844 L 611.339844 217.660156 L 612.265625 217.851562 L 613.195312 218.039062 L 614.121094 218.222656 L 615.050781 218.402344 L 615.976562 218.578125 L 616.90625 218.75 L 617.835938 218.917969 L 618.761719 219.082031 L 619.691406 219.242188 L 620.617188 219.402344 L 621.546875 219.554688 L 622.472656 219.707031 L 623.402344 219.855469 L 624.328125 219.996094 L 625.257812 220.140625 L 626.183594 220.277344 L 627.113281 220.410156 L 628.039062 220.542969 L 629.898438 220.800781 L 630.824219 220.921875 L 631.753906 221.042969 L 632.679688 221.160156 L 633.609375 221.273438 L 634.535156 221.386719 L 635.464844 221.496094 L 636.390625 221.601562 L 637.320312 221.707031 L 638.246094 221.808594 L 639.175781 221.910156 L 640.101562 222.007812 L 641.03125 222.101562 L 641.957031 222.195312 L 642.886719 222.285156 L 643.816406 222.371094 L 644.742188 222.457031 L 645.671875 222.542969 L 646.597656 222.625 L 647.527344 222.703125 L 648.453125 222.78125 L 649.382812 222.855469 L 650.308594 222.929688 L 651.238281 223.003906 L 652.164062 223.074219 L 653.09375 223.140625 L 654.019531 223.210938 L 655.878906 223.335938 L 656.804688 223.398438 L 657.734375 223.460938 L 658.660156 223.519531 L 659.589844 223.574219 L 660.515625 223.628906 L 661.445312 223.683594 L 662.371094 223.738281 L 663.300781 223.789062 L 664.226562 223.839844 L 665.15625 223.886719 L 666.082031 223.933594 L 667.011719 223.980469 L 667.941406 224.023438 L 668.867188 224.070312 L 669.796875 224.109375 L 670.722656 224.152344 L 671.652344 224.191406 L 672.578125 224.230469 L 673.507812 224.269531 L 674.433594 224.304688 L 675.363281 224.34375 L 676.289062 224.375 L 677.21875 224.410156 L 678.144531 224.445312 L 679.074219 224.476562 L 680 224.507812 L 680.929688 224.535156 L 681.859375 224.566406 L 682.785156 224.59375 L 683.714844 224.621094 L 684.640625 224.648438 L 685.570312 224.675781 L 686.496094 224.699219 L 687.425781 224.726562 L 688.351562 224.75 L 689.28125 224.773438 L 690.207031 224.792969 L 691.136719 224.816406 L 692.0625 224.839844 L 693.921875 224.878906 L 694.847656 224.898438 L 695.777344 224.917969 L 696.703125 224.933594 L 697.632812 224.953125 L 698.558594 224.96875 L 699.488281 224.984375 L 700.414062 225.003906 L 701.34375 225.019531 L 702.269531 225.03125 L 703.199219 225.046875 L 704.125 225.0625 L 705.054688 225.074219 L 705.984375 225.089844 L 706.910156 225.101562 L 707.839844 225.113281 L 708.765625 225.125 L 709.695312 225.136719 L 710.621094 225.148438 L 711.550781 225.160156 L 712.476562 225.171875 L 713.40625 225.179688 L 714.332031 225.191406 L 715.261719 225.199219 L 716.1875 225.210938 L 717.117188 225.21875 L 718.042969 225.226562 L 718.972656 225.238281 L 719.902344 225.246094 L 720.828125 225.253906 L 721.757812 225.261719 L 722.683594 225.269531 L 723.613281 225.273438 L 724.539062 225.28125 L 725.46875 225.289062 L 726.394531 225.296875 L 727.324219 225.300781 L 728.25 225.308594 L 729.179688 225.3125 L 730.105469 225.320312 L 731.964844 225.328125 L 732.890625 225.335938 L 733.820312 225.339844 L 734.746094 225.34375 L 735.675781 225.347656 L 736.601562 225.351562 L 737.53125 225.359375 L 738.457031 225.363281 L 739.386719 225.367188 L 740.3125 225.371094 L 741.242188 225.375 L 742.167969 225.378906 L 743.097656 225.378906 L 744.027344 225.382812 L 744.953125 225.386719 L 745.882812 225.390625 L 746.808594 225.394531 L 747.738281 225.394531 L 748.664062 225.398438 L 749.59375 225.402344 L 750.519531 225.402344 "/>
<path style="fill:none;stroke-width:2.133957;stroke-linecap:butt;stroke-linejoin:round;stroke:rgb(0%,47.45098%,20.784314%);stroke-opacity:1;stroke-miterlimit:10;" d="M 8.21875 225.410156 L 9.148438 225.410156 L 10.074219 225.40625 L 11.003906 225.402344 L 11.929688 225.402344 L 12.859375 225.398438 L 13.785156 225.394531 L 14.714844 225.390625 L 15.640625 225.390625 L 16.570312 225.386719 L 17.496094 225.382812 L 19.355469 225.375 L 20.28125 225.371094 L 21.210938 225.367188 L 22.136719 225.363281 L 23.066406 225.359375 L 23.992188 225.355469 L 24.921875 225.351562 L 25.847656 225.347656 L 26.777344 225.339844 L 27.703125 225.335938 L 28.632812 225.332031 L 29.558594 225.324219 L 31.417969 225.316406 L 32.34375 225.308594 L 33.273438 225.300781 L 34.199219 225.296875 L 35.128906 225.289062 L 36.054688 225.28125 L 36.984375 225.277344 L 37.910156 225.269531 L 38.839844 225.261719 L 39.765625 225.253906 L 40.695312 225.246094 L 41.621094 225.238281 L 42.550781 225.226562 L 43.476562 225.21875 L 44.40625 225.210938 L 45.335938 225.199219 L 46.261719 225.191406 L 47.191406 225.179688 L 48.117188 225.171875 L 49.046875 225.160156 L 49.972656 225.148438 L 50.902344 225.136719 L 51.828125 225.125 L 52.757812 225.113281 L 53.683594 225.097656 L 54.613281 225.085938 L 55.539062 225.074219 L 57.398438 225.042969 L 58.324219 225.027344 L 59.253906 225.011719 L 60.179688 224.996094 L 61.109375 224.980469 L 62.035156 224.964844 L 62.964844 224.945312 L 63.890625 224.929688 L 64.820312 224.910156 L 65.746094 224.890625 L 66.675781 224.871094 L 67.601562 224.847656 L 68.53125 224.828125 L 69.460938 224.804688 L 70.386719 224.785156 L 71.316406 224.761719 L 72.242188 224.738281 L 73.171875 224.710938 L 74.097656 224.6875 L 75.027344 224.660156 L 75.953125 224.632812 L 76.882812 224.605469 L 77.808594 224.578125 L 78.738281 224.546875 L 79.664062 224.515625 L 80.59375 224.484375 L 81.519531 224.453125 L 82.449219 224.421875 L 83.378906 224.386719 L 84.304688 224.351562 L 85.234375 224.316406 L 86.160156 224.277344 L 87.089844 224.242188 L 88.015625 224.203125 L 88.945312 224.160156 L 89.871094 224.121094 L 90.800781 224.078125 L 91.726562 224.03125 L 92.65625 223.988281 L 93.582031 223.941406 L 94.511719 223.894531 L 95.441406 223.84375 L 96.367188 223.792969 L 97.296875 223.742188 L 98.222656 223.6875 L 99.152344 223.632812 L 100.078125 223.578125 L 101.007812 223.519531 L 101.933594 223.460938 L 102.863281 223.398438 L 103.789062 223.335938 L 104.71875 223.273438 L 105.644531 223.207031 L 106.574219 223.140625 L 107.503906 223.070312 L 108.429688 223 L 109.359375 222.925781 L 110.285156 222.851562 L 111.214844 222.773438 L 112.140625 222.695312 L 113.070312 222.613281 L 113.996094 222.53125 L 114.925781 222.445312 L 115.851562 222.359375 L 116.78125 222.269531 L 117.707031 222.175781 L 118.636719 222.082031 L 119.5625 221.988281 L 120.492188 221.886719 L 121.421875 221.789062 L 122.347656 221.683594 L 123.277344 221.578125 L 124.203125 221.46875 L 125.132812 221.359375 L 126.058594 221.242188 L 126.988281 221.125 L 127.914062 221.007812 L 128.84375 220.886719 L 129.769531 220.757812 L 130.699219 220.632812 L 131.625 220.5 L 132.554688 220.367188 L 133.484375 220.230469 L 134.410156 220.089844 L 135.339844 219.945312 L 136.265625 219.796875 L 137.195312 219.648438 L 138.121094 219.492188 L 139.050781 219.335938 L 139.976562 219.175781 L 140.90625 219.011719 L 141.832031 218.84375 L 142.761719 218.671875 L 143.6875 218.496094 L 145.546875 218.136719 L 146.472656 217.949219 L 147.402344 217.757812 L 148.328125 217.5625 L 149.257812 217.363281 L 150.183594 217.160156 L 151.113281 216.953125 L 152.039062 216.742188 L 152.96875 216.527344 L 153.894531 216.304688 L 154.824219 216.082031 L 155.75 215.851562 L 156.679688 215.617188 L 157.605469 215.378906 L 159.464844 214.886719 L 160.390625 214.632812 L 161.320312 214.375 L 162.246094 214.109375 L 163.175781 213.84375 L 164.101562 213.570312 L 165.03125 213.289062 L 165.957031 213.007812 L 166.886719 212.71875 L 167.8125 212.421875 L 168.742188 212.121094 L 169.667969 211.816406 L 170.597656 211.503906 L 171.527344 211.1875 L 172.453125 210.863281 L 173.382812 210.535156 L 174.308594 210.203125 L 175.238281 209.863281 L 176.164062 209.515625 L 177.09375 209.164062 L 178.019531 208.804688 L 178.949219 208.441406 L 179.875 208.070312 L 180.804688 207.691406 L 181.730469 207.308594 L 182.660156 206.917969 L 183.585938 206.519531 L 184.515625 206.117188 L 185.445312 205.707031 L 186.371094 205.292969 L 187.300781 204.867188 L 188.226562 204.4375 L 189.15625 204.003906 L 190.082031 203.558594 L 191.011719 203.109375 L 191.9375 202.652344 L 192.867188 202.1875 L 193.792969 201.714844 L 194.722656 201.234375 L 195.648438 200.75 L 196.578125 200.257812 L 197.507812 199.757812 L 198.433594 199.25 L 199.363281 198.734375 L 200.289062 198.210938 L 201.21875 197.683594 L 202.144531 197.144531 L 203.074219 196.601562 L 204 196.046875 L 204.929688 195.488281 L 205.855469 194.921875 L 206.785156 194.34375 L 207.710938 193.761719 L 208.640625 193.171875 L 209.570312 192.574219 L 210.496094 191.96875 L 211.425781 191.355469 L 212.351562 190.734375 L 213.28125 190.105469 L 214.207031 189.46875 L 215.136719 188.824219 L 216.0625 188.167969 L 216.992188 187.507812 L 217.917969 186.839844 L 218.847656 186.164062 L 219.773438 185.480469 L 220.703125 184.789062 L 221.628906 184.089844 L 222.558594 183.382812 L 223.488281 182.667969 L 224.414062 181.945312 L 225.34375 181.214844 L 226.269531 180.476562 L 227.199219 179.730469 L 228.125 178.976562 L 229.054688 178.214844 L 229.980469 177.445312 L 230.910156 176.667969 L 231.835938 175.882812 L 232.765625 175.089844 L 233.691406 174.289062 L 234.621094 173.484375 L 235.550781 172.667969 L 236.476562 171.847656 L 237.40625 171.015625 L 238.332031 170.179688 L 239.261719 169.335938 L 240.1875 168.484375 L 241.117188 167.625 L 242.042969 166.761719 L 242.972656 165.886719 L 243.898438 165.007812 L 244.828125 164.125 L 245.753906 163.230469 L 246.683594 162.332031 L 247.613281 161.425781 L 248.539062 160.511719 L 249.46875 159.59375 L 250.394531 158.667969 L 251.324219 157.734375 L 252.25 156.796875 L 253.179688 155.855469 L 254.105469 154.90625 L 255.035156 153.949219 L 255.960938 152.988281 L 256.890625 152.019531 L 257.816406 151.046875 L 258.746094 150.070312 L 259.671875 149.089844 L 260.601562 148.101562 L 261.53125 147.109375 L 262.457031 146.109375 L 263.386719 145.109375 L 264.3125 144.101562 L 265.242188 143.089844 L 266.167969 142.074219 L 267.097656 141.054688 L 268.023438 140.03125 L 268.953125 139.003906 L 269.878906 137.972656 L 270.808594 136.941406 L 271.734375 135.902344 L 272.664062 134.863281 L 273.59375 133.820312 L 274.519531 132.773438 L 275.449219 131.722656 L 276.375 130.671875 L 277.304688 129.617188 L 278.230469 128.5625 L 279.160156 127.507812 L 280.085938 126.449219 L 281.015625 125.386719 L 281.941406 124.324219 L 282.871094 123.261719 L 283.796875 122.199219 L 284.726562 121.136719 L 285.65625 120.070312 L 286.582031 119.007812 L 287.511719 117.941406 L 288.4375 116.878906 L 289.367188 115.816406 L 290.292969 114.75 L 291.222656 113.6875 L 292.148438 112.628906 L 293.078125 111.566406 L 294.003906 110.507812 L 294.933594 109.453125 L 295.859375 108.398438 L 296.789062 107.34375 L 297.714844 106.296875 L 298.644531 105.246094 L 299.574219 104.203125 L 300.5 103.160156 L 301.429688 102.125 L 302.355469 101.089844 L 303.285156 100.058594 L 304.210938 99.03125 L 305.140625 98.011719 L 306.066406 96.992188 L 306.996094 95.980469 L 307.921875 94.972656 L 308.851562 93.972656 L 309.777344 92.976562 L 310.707031 91.984375 L 311.636719 91 L 312.5625 90.019531 L 313.492188 89.050781 L 314.417969 88.085938 L 315.347656 87.125 L 316.273438 86.175781 L 317.203125 85.230469 L 318.128906 84.296875 L 319.058594 83.367188 L 319.984375 82.449219 L 320.914062 81.539062 L 321.839844 80.636719 L 322.769531 79.742188 L 323.695312 78.859375 L 324.625 77.984375 L 325.554688 77.117188 L 326.480469 76.261719 L 327.410156 75.417969 L 328.335938 74.582031 L 329.265625 73.757812 L 330.191406 72.941406 L 331.121094 72.140625 L 332.046875 71.347656 L 332.976562 70.566406 L 333.902344 69.800781 L 334.832031 69.042969 L 335.757812 68.296875 L 336.6875 67.566406 L 337.617188 66.84375 L 338.542969 66.136719 L 339.472656 65.441406 L 340.398438 64.761719 L 341.328125 64.09375 L 342.253906 63.4375 L 343.183594 62.796875 L 344.109375 62.167969 L 345.039062 61.554688 L 345.964844 60.957031 L 346.894531 60.371094 L 347.820312 59.800781 L 348.75 59.246094 L 349.679688 58.703125 L 350.605469 58.175781 L 351.535156 57.667969 L 352.460938 57.171875 L 353.390625 56.691406 L 354.316406 56.226562 L 355.246094 55.777344 L 356.171875 55.34375 L 357.101562 54.925781 L 358.027344 54.523438 L 358.957031 54.140625 L 359.882812 53.769531 L 360.8125 53.417969 L 361.738281 53.082031 L 362.667969 52.761719 L 363.597656 52.460938 L 364.523438 52.175781 L 365.453125 51.90625 L 366.378906 51.65625 L 367.308594 51.417969 L 368.234375 51.203125 L 369.164062 51 L 370.089844 50.820312 L 371.019531 50.652344 L 371.945312 50.503906 L 372.875 50.371094 L 373.800781 50.257812 L 374.730469 50.164062 L 375.660156 50.082031 L 376.585938 50.023438 L 377.515625 49.976562 L 378.441406 49.953125 L 379.371094 49.941406 L 380.296875 49.953125 L 381.226562 49.976562 L 382.152344 50.023438 L 383.082031 50.082031 L 384.007812 50.164062 L 384.9375 50.257812 L 385.863281 50.371094 L 386.792969 50.503906 L 387.722656 50.652344 L 388.648438 50.820312 L 389.578125 51 L 390.503906 51.203125 L 391.433594 51.417969 L 392.359375 51.65625 L 393.289062 51.90625 L 394.214844 52.175781 L 395.144531 52.460938 L 396.070312 52.761719 L 397 53.082031 L 397.925781 53.417969 L 398.855469 53.769531 L 399.78125 54.140625 L 400.710938 54.523438 L 401.640625 54.925781 L 402.566406 55.34375 L 403.496094 55.777344 L 404.421875 56.226562 L 405.351562 56.691406 L 406.277344 57.171875 L 407.207031 57.667969 L 408.132812 58.175781 L 409.0625 58.703125 L 409.988281 59.246094 L 410.917969 59.800781 L 411.84375 60.371094 L 412.773438 60.957031 L 413.703125 61.554688 L 414.628906 62.167969 L 415.558594 62.796875 L 416.484375 63.4375 L 417.414062 64.09375 L 418.339844 64.761719 L 419.269531 65.441406 L 420.195312 66.136719 L 421.125 66.84375 L 422.050781 67.566406 L 422.980469 68.296875 L 423.90625 69.042969 L 424.835938 69.800781 L 425.765625 70.566406 L 426.691406 71.347656 L 427.621094 72.140625 L 428.546875 72.941406 L 429.476562 73.757812 L 430.402344 74.582031 L 431.332031 75.417969 L 432.257812 76.261719 L 433.1875 77.117188 L 434.113281 77.984375 L 435.042969 78.859375 L 435.96875 79.742188 L 436.898438 80.636719 L 437.824219 81.539062 L 438.753906 82.449219 L 439.683594 83.367188 L 440.609375 84.296875 L 441.539062 85.230469 L 442.464844 86.175781 L 443.394531 87.125 L 444.320312 88.085938 L 445.25 89.050781 L 446.175781 90.019531 L 447.105469 91 L 448.03125 91.984375 L 448.960938 92.976562 L 449.886719 93.972656 L 450.816406 94.972656 L 451.746094 95.980469 L 452.671875 96.992188 L 453.601562 98.011719 L 454.527344 99.03125 L 455.457031 100.058594 L 456.382812 101.089844 L 457.3125 102.125 L 458.238281 103.160156 L 459.167969 104.203125 L 460.09375 105.246094 L 461.023438 106.296875 L 461.949219 107.34375 L 463.808594 109.453125 L 464.734375 110.507812 L 465.664062 111.566406 L 466.589844 112.628906 L 467.519531 113.6875 L 468.445312 114.75 L 469.375 115.816406 L 470.300781 116.878906 L 471.230469 117.941406 L 472.15625 119.007812 L 473.085938 120.070312 L 474.011719 121.136719 L 474.941406 122.199219 L 475.867188 123.261719 L 477.726562 125.386719 L 478.652344 126.449219 L 479.582031 127.507812 L 480.507812 128.5625 L 481.4375 129.617188 L 482.363281 130.671875 L 483.292969 131.722656 L 484.21875 132.773438 L 485.148438 133.820312 L 486.074219 134.863281 L 487.003906 135.902344 L 487.929688 136.941406 L 489.789062 139.003906 L 490.714844 140.03125 L 491.644531 141.054688 L 492.570312 142.074219 L 493.5 143.089844 L 494.425781 144.101562 L 495.355469 145.109375 L 496.28125 146.109375 L 497.210938 147.109375 L 498.136719 148.101562 L 499.066406 149.089844 L 499.992188 150.070312 L 500.921875 151.046875 L 501.847656 152.019531 L 502.777344 152.988281 L 503.707031 153.949219 L 504.632812 154.90625 L 505.5625 155.855469 L 506.488281 156.796875 L 507.417969 157.734375 L 508.34375 158.667969 L 509.273438 159.59375 L 510.199219 160.511719 L 511.128906 161.425781 L 512.054688 162.332031 L 512.984375 163.230469 L 513.910156 164.125 L 514.839844 165.007812 L 515.769531 165.886719 L 516.695312 166.761719 L 517.625 167.625 L 518.550781 168.484375 L 519.480469 169.335938 L 520.40625 170.179688 L 521.335938 171.015625 L 522.261719 171.847656 L 523.191406 172.667969 L 524.117188 173.484375 L 525.046875 174.289062 L 525.972656 175.089844 L 526.902344 175.882812 L 527.832031 176.667969 L 528.757812 177.445312 L 529.6875 178.214844 L 530.613281 178.976562 L 531.542969 179.730469 L 532.46875 180.476562 L 533.398438 181.214844 L 534.324219 181.945312 L 535.253906 182.667969 L 536.179688 183.382812 L 537.109375 184.089844 L 538.035156 184.789062 L 538.964844 185.480469 L 539.890625 186.164062 L 540.820312 186.839844 L 541.75 187.507812 L 542.675781 188.167969 L 543.605469 188.824219 L 544.53125 189.46875 L 545.460938 190.105469 L 546.386719 190.734375 L 547.316406 191.355469 L 548.242188 191.96875 L 549.171875 192.574219 L 550.097656 193.171875 L 551.027344 193.761719 L 551.953125 194.34375 L 552.882812 194.921875 L 553.8125 195.488281 L 554.738281 196.046875 L 555.667969 196.601562 L 556.59375 197.144531 L 557.523438 197.683594 L 558.449219 198.210938 L 559.378906 198.734375 L 560.304688 199.25 L 561.234375 199.757812 L 562.160156 200.257812 L 563.089844 200.75 L 564.015625 201.234375 L 564.945312 201.714844 L 565.875 202.1875 L 566.800781 202.652344 L 567.730469 203.109375 L 568.65625 203.558594 L 569.585938 204.003906 L 570.511719 204.4375 L 571.441406 204.867188 L 572.367188 205.292969 L 573.296875 205.707031 L 574.222656 206.117188 L 575.152344 206.519531 L 576.078125 206.917969 L 577.007812 207.308594 L 577.933594 207.691406 L 578.863281 208.070312 L 579.792969 208.441406 L 580.71875 208.804688 L 581.648438 209.164062 L 582.574219 209.515625 L 583.503906 209.863281 L 584.429688 210.203125 L 585.359375 210.535156 L 586.285156 210.863281 L 587.214844 211.1875 L 588.140625 211.503906 L 589.070312 211.816406 L 589.996094 212.121094 L 590.925781 212.421875 L 591.855469 212.71875 L 592.78125 213.007812 L 593.710938 213.289062 L 594.636719 213.570312 L 595.566406 213.84375 L 596.492188 214.109375 L 597.421875 214.375 L 598.347656 214.632812 L 599.277344 214.886719 L 600.203125 215.132812 L 601.132812 215.378906 L 602.058594 215.617188 L 602.988281 215.851562 L 603.917969 216.082031 L 604.84375 216.304688 L 605.773438 216.527344 L 606.699219 216.742188 L 607.628906 216.953125 L 608.554688 217.160156 L 609.484375 217.363281 L 610.410156 217.5625 L 611.339844 217.757812 L 612.265625 217.949219 L 613.195312 218.136719 L 614.121094 218.316406 L 615.050781 218.496094 L 615.976562 218.671875 L 616.90625 218.84375 L 617.835938 219.011719 L 618.761719 219.175781 L 619.691406 219.335938 L 620.617188 219.492188 L 621.546875 219.648438 L 622.472656 219.796875 L 623.402344 219.945312 L 624.328125 220.089844 L 625.257812 220.230469 L 626.183594 220.367188 L 627.113281 220.5 L 628.039062 220.632812 L 628.96875 220.757812 L 629.898438 220.886719 L 630.824219 221.007812 L 631.753906 221.125 L 632.679688 221.242188 L 633.609375 221.359375 L 634.535156 221.46875 L 635.464844 221.578125 L 636.390625 221.683594 L 637.320312 221.789062 L 638.246094 221.886719 L 639.175781 221.988281 L 640.101562 222.082031 L 641.03125 222.175781 L 641.957031 222.269531 L 642.886719 222.359375 L 643.816406 222.445312 L 644.742188 222.53125 L 645.671875 222.613281 L 646.597656 222.695312 L 647.527344 222.773438 L 648.453125 222.851562 L 649.382812 222.925781 L 650.308594 223 L 651.238281 223.070312 L 652.164062 223.140625 L 653.09375 223.207031 L 654.019531 223.273438 L 655.878906 223.398438 L 656.804688 223.460938 L 657.734375 223.519531 L 658.660156 223.578125 L 659.589844 223.632812 L 660.515625 223.6875 L 661.445312 223.742188 L 662.371094 223.792969 L 663.300781 223.84375 L 664.226562 223.894531 L 665.15625 223.941406 L 666.082031 223.988281 L 667.011719 224.03125 L 667.941406 224.078125 L 668.867188 224.121094 L 669.796875 224.160156 L 670.722656 224.203125 L 671.652344 224.242188 L 672.578125 224.277344 L 673.507812 224.316406 L 674.433594 224.351562 L 675.363281 224.386719 L 676.289062 224.421875 L 677.21875 224.453125 L 678.144531 224.484375 L 679.074219 224.515625 L 680 224.546875 L 680.929688 224.578125 L 681.859375 224.605469 L 682.785156 224.632812 L 683.714844 224.660156 L 684.640625 224.6875 L 685.570312 224.710938 L 686.496094 224.738281 L 687.425781 224.761719 L 688.351562 224.785156 L 689.28125 224.804688 L 690.207031 224.828125 L 691.136719 224.847656 L 692.0625 224.871094 L 693.921875 224.910156 L 694.847656 224.929688 L 695.777344 224.945312 L 696.703125 224.964844 L 697.632812 224.980469 L 698.558594 224.996094 L 699.488281 225.011719 L 700.414062 225.027344 L 701.34375 225.042969 L 702.269531 225.058594 L 703.199219 225.074219 L 704.125 225.085938 L 705.054688 225.097656 L 705.984375 225.113281 L 706.910156 225.125 L 707.839844 225.136719 L 708.765625 225.148438 L 709.695312 225.160156 L 710.621094 225.171875 L 711.550781 225.179688 L 712.476562 225.191406 L 713.40625 225.199219 L 714.332031 225.210938 L 715.261719 225.21875 L 716.1875 225.226562 L 717.117188 225.238281 L 718.042969 225.246094 L 719.902344 225.261719 L 720.828125 225.269531 L 721.757812 225.277344 L 722.683594 225.28125 L 723.613281 225.289062 L 724.539062 225.296875 L 725.46875 225.300781 L 726.394531 225.308594 L 727.324219 225.316406 L 728.25 225.320312 L 729.179688 225.324219 L 730.105469 225.332031 L 731.964844 225.339844 L 732.890625 225.347656 L 733.820312 225.351562 L 734.746094 225.355469 L 735.675781 225.359375 L 736.601562 225.363281 L 737.53125 225.367188 L 738.457031 225.371094 L 739.386719 225.375 L 740.3125 225.378906 L 741.242188 225.382812 L 742.167969 225.386719 L 743.097656 225.390625 L 744.027344 225.390625 L 744.953125 225.394531 L 745.882812 225.398438 L 746.808594 225.402344 L 747.738281 225.402344 L 748.664062 225.40625 L 749.59375 225.410156 L 750.519531 225.410156 "/>
</g>
<g clip-path="url(#clip2)" clip-rule="nonzero">
<path style="fill:none;stroke-width:0.746885;stroke-linecap:butt;stroke-linejoin:round;stroke:rgb(57.647059%,43.921569%,85.882353%);stroke-opacity:1;stroke-dasharray:3,3;stroke-miterlimit:10;" d="M 561.671875 225.46875 L 561.671875 5.480469 "/>
</g>
<g clip-path="url(#clip3)" clip-rule="nonzero">
<path style="fill:none;stroke-width:0.746885;stroke-linecap:butt;stroke-linejoin:round;stroke:rgb(57.647059%,43.921569%,85.882353%);stroke-opacity:1;stroke-dasharray:3,3;stroke-miterlimit:10;" d="M 197.066406 225.46875 L 197.066406 5.480469 "/>
</g>
<g clip-path="url(#clip4)" clip-rule="nonzero">
<path style="fill:none;stroke-width:0.746885;stroke-linecap:butt;stroke-linejoin:round;stroke:rgb(0%,47.45098%,20.784314%);stroke-opacity:1;stroke-dasharray:3,3;stroke-miterlimit:10;" d="M 197.507812 225.46875 L 197.507812 5.480469 "/>
</g>
<g clip-path="url(#clip5)" clip-rule="nonzero">
<path style="fill:none;stroke-width:0.746885;stroke-linecap:butt;stroke-linejoin:round;stroke:rgb(0%,47.45098%,20.784314%);stroke-opacity:1;stroke-dasharray:3,3;stroke-miterlimit:10;" d="M 561.234375 225.46875 L 561.234375 5.480469 "/>
</g>
<path style=" stroke:none;fill-rule:nonzero;fill:rgb(30.196078%,30.196078%,30.196078%);fill-opacity:1;" d="M 1.015625 238.707031 L 1.015625 237.300781 L 5.410156 237.300781 L 5.410156 238.707031 Z M 1.015625 238.707031 "/>
<path style=" stroke:none;fill-rule:nonzero;fill:rgb(30.196078%,30.196078%,30.196078%);fill-opacity:1;" d="M 13.953125 239.980469 L 13.953125 242.785156 L 12.460938 242.785156 L 12.460938 239.980469 L 6.625 239.980469 L 6.625 238.75 L 12.292969 230.402344 L 13.953125 230.402344 L 13.953125 238.734375 L 15.695312 238.734375 L 15.695312 239.980469 Z M 12.460938 232.1875 L 12.457031 232.195312 L 12.449219 232.207031 L 12.445312 232.21875 L 12.429688 232.25 L 12.417969 232.269531 L 12.410156 232.289062 L 12.386719 232.335938 L 12.371094 232.363281 L 12.359375 232.386719 L 12.34375 232.410156 L 12.296875 232.492188 L 12.28125 232.523438 L 12.265625 232.550781 L 12.25 232.582031 L 12.230469 232.613281 L 12.214844 232.644531 L 12.195312 232.675781 L 12.179688 232.707031 L 12.140625 232.769531 L 12.125 232.804688 L 12.085938 232.867188 L 12.066406 232.902344 L 12.046875 232.933594 L 12.027344 232.96875 L 12.011719 233 L 11.996094 233.027344 L 11.976562 233.058594 L 11.929688 233.140625 L 11.898438 233.1875 L 11.886719 233.210938 L 11.871094 233.230469 L 8.699219 237.90625 L 8.6875 237.921875 L 8.679688 237.9375 L 8.65625 237.96875 L 8.644531 237.988281 L 8.613281 238.027344 L 8.601562 238.046875 L 8.582031 238.070312 L 8.566406 238.09375 L 8.550781 238.113281 L 8.519531 238.160156 L 8.5 238.183594 L 8.46875 238.230469 L 8.453125 238.257812 L 8.433594 238.28125 L 8.417969 238.304688 L 8.398438 238.328125 L 8.382812 238.351562 L 8.363281 238.375 L 8.347656 238.398438 L 8.328125 238.421875 L 8.3125 238.445312 L 8.292969 238.464844 L 8.277344 238.488281 L 8.257812 238.511719 L 8.242188 238.535156 L 8.222656 238.558594 L 8.207031 238.578125 L 8.191406 238.601562 L 8.144531 238.660156 L 8.128906 238.675781 L 8.105469 238.707031 L 8.09375 238.71875 L 8.082031 238.734375 L 12.460938 238.734375 Z M 12.460938 232.1875 "/>
<path style=" stroke:none;fill-rule:nonzero;fill:rgb(30.196078%,30.196078%,30.196078%);fill-opacity:1;" d="M 186.59375 238.707031 L 186.59375 237.300781 L 190.988281 237.300781 L 190.988281 238.707031 Z M 186.59375 238.707031 "/>
<path style=" stroke:none;fill-rule:nonzero;fill:rgb(30.196078%,30.196078%,30.196078%);fill-opacity:1;" d="M 192.691406 242.785156 L 192.691406 241.667969 L 192.78125 241.464844 L 192.878906 241.265625 L 192.976562 241.074219 L 193.082031 240.886719 L 193.1875 240.703125 L 193.300781 240.523438 L 193.414062 240.351562 L 193.53125 240.179688 L 193.65625 240.015625 L 193.78125 239.859375 L 193.910156 239.703125 L 194.042969 239.546875 L 194.175781 239.398438 L 194.3125 239.25 L 194.445312 239.105469 L 194.582031 238.964844 L 194.722656 238.828125 L 194.863281 238.695312 L 195 238.5625 L 195.144531 238.433594 L 195.425781 238.183594 L 195.570312 238.058594 L 195.851562 237.816406 L 196.132812 237.582031 L 196.269531 237.46875 L 196.550781 237.25 L 196.960938 236.921875 L 197.21875 236.703125 L 197.34375 236.59375 L 197.585938 236.375 L 197.703125 236.265625 L 197.816406 236.160156 L 197.925781 236.046875 L 198.03125 235.9375 L 198.132812 235.828125 L 198.230469 235.714844 L 198.324219 235.601562 L 198.410156 235.484375 L 198.496094 235.371094 L 198.574219 235.253906 L 198.648438 235.132812 L 198.722656 235.015625 L 198.789062 234.894531 L 198.847656 234.769531 L 198.898438 234.644531 L 198.945312 234.511719 L 198.984375 234.378906 L 199.015625 234.242188 L 199.039062 234.101562 L 199.058594 233.957031 L 199.070312 233.8125 L 199.074219 233.664062 L 199.070312 233.558594 L 199.066406 233.457031 L 199.058594 233.359375 L 199.046875 233.261719 L 199.03125 233.167969 L 199.015625 233.078125 L 198.996094 232.988281 L 198.972656 232.902344 L 198.945312 232.820312 L 198.914062 232.738281 L 198.882812 232.660156 L 198.84375 232.582031 L 198.804688 232.507812 L 198.765625 232.4375 L 198.722656 232.367188 L 198.671875 232.300781 L 198.625 232.238281 L 198.570312 232.175781 L 198.515625 232.117188 L 198.457031 232.0625 L 198.394531 232.007812 L 198.332031 231.960938 L 198.265625 231.910156 L 198.199219 231.867188 L 198.128906 231.824219 L 198.054688 231.785156 L 197.898438 231.714844 L 197.820312 231.6875 L 197.738281 231.660156 L 197.652344 231.632812 L 197.480469 231.585938 L 197.390625 231.566406 L 197.300781 231.554688 L 197.207031 231.539062 L 197.011719 231.523438 L 196.914062 231.519531 L 196.71875 231.519531 L 196.625 231.523438 L 196.535156 231.53125 L 196.441406 231.539062 L 196.351562 231.550781 L 196.261719 231.566406 L 196.175781 231.582031 L 196.089844 231.601562 L 195.917969 231.648438 L 195.835938 231.675781 L 195.753906 231.707031 L 195.675781 231.742188 L 195.527344 231.8125 L 195.453125 231.855469 L 195.382812 231.898438 L 195.3125 231.945312 L 195.246094 231.992188 L 195.179688 232.046875 L 195.113281 232.097656 L 195.054688 232.15625 L 194.992188 232.214844 L 194.882812 232.339844 L 194.828125 232.410156 L 194.78125 232.480469 L 194.730469 232.550781 L 194.6875 232.625 L 194.644531 232.703125 L 194.605469 232.78125 L 194.566406 232.863281 L 194.503906 233.035156 L 194.449219 233.214844 L 194.429688 233.308594 L 194.410156 233.40625 L 194.378906 233.609375 L 192.761719 233.460938 L 192.800781 233.195312 L 192.828125 233.066406 L 192.859375 232.9375 L 192.894531 232.8125 L 192.933594 232.6875 L 192.976562 232.5625 L 193.023438 232.441406 L 193.074219 232.320312 L 193.191406 232.085938 L 193.253906 231.972656 L 193.324219 231.863281 L 193.398438 231.757812 L 193.476562 231.652344 L 193.558594 231.550781 L 193.644531 231.453125 L 193.734375 231.355469 L 193.929688 231.175781 L 194.035156 231.085938 L 194.253906 230.921875 L 194.371094 230.847656 L 194.492188 230.773438 L 194.742188 230.640625 L 194.875 230.582031 L 195.011719 230.523438 L 195.152344 230.472656 L 195.296875 230.421875 L 195.449219 230.378906 L 195.605469 230.339844 L 195.765625 230.308594 L 195.929688 230.28125 L 196.097656 230.257812 L 196.269531 230.238281 L 196.445312 230.226562 L 196.628906 230.21875 L 196.996094 230.21875 L 197.175781 230.226562 L 197.347656 230.238281 L 197.519531 230.253906 L 197.6875 230.273438 L 197.847656 230.296875 L 198.007812 230.324219 L 198.3125 230.394531 L 198.457031 230.4375 L 198.597656 230.484375 L 198.734375 230.53125 L 198.867188 230.585938 L 198.996094 230.644531 L 199.121094 230.710938 L 199.238281 230.777344 L 199.355469 230.847656 L 199.464844 230.921875 L 199.570312 231.003906 L 199.671875 231.085938 L 199.769531 231.175781 L 199.859375 231.265625 L 199.949219 231.363281 L 200.113281 231.566406 L 200.1875 231.675781 L 200.253906 231.789062 L 200.320312 231.90625 L 200.378906 232.027344 L 200.433594 232.152344 L 200.484375 232.277344 L 200.53125 232.410156 L 200.570312 232.546875 L 200.601562 232.6875 L 200.632812 232.832031 L 200.65625 232.980469 L 200.675781 233.132812 L 200.6875 233.285156 L 200.695312 233.445312 L 200.699219 233.609375 L 200.695312 233.734375 L 200.679688 233.976562 L 200.640625 234.21875 L 200.617188 234.335938 L 200.585938 234.453125 L 200.550781 234.570312 L 200.511719 234.683594 L 200.46875 234.796875 L 200.425781 234.90625 L 200.375 235.019531 L 200.324219 235.128906 L 200.269531 235.238281 L 200.210938 235.34375 L 200.148438 235.453125 L 200.085938 235.558594 L 200.015625 235.664062 L 199.945312 235.765625 L 199.796875 235.96875 L 199.640625 236.171875 L 199.558594 236.269531 L 199.472656 236.371094 L 199.386719 236.46875 L 199.296875 236.566406 L 199.203125 236.660156 L 199.109375 236.757812 L 199.011719 236.851562 L 198.910156 236.949219 L 198.8125 237.042969 L 198.507812 237.324219 L 198.40625 237.414062 L 198.195312 237.601562 L 198.089844 237.691406 L 197.984375 237.785156 L 197.875 237.875 L 197.769531 237.964844 L 197.550781 238.144531 L 197.445312 238.234375 L 197.335938 238.320312 L 197.117188 238.5 L 197.011719 238.589844 L 196.792969 238.769531 L 196.6875 238.855469 L 196.578125 238.945312 L 196.476562 239.035156 L 196.371094 239.121094 L 196.167969 239.300781 L 196.070312 239.390625 L 195.96875 239.480469 L 195.875 239.570312 L 195.777344 239.660156 L 195.507812 239.929688 L 195.421875 240.019531 L 195.339844 240.113281 L 195.257812 240.203125 L 195.175781 240.296875 L 195.019531 240.484375 L 194.945312 240.574219 L 194.875 240.667969 L 194.808594 240.761719 L 194.683594 240.949219 L 194.574219 241.144531 L 194.523438 241.242188 L 194.476562 241.339844 L 194.433594 241.441406 L 200.890625 241.441406 L 200.890625 242.785156 Z M 192.691406 242.785156 "/>
<path style=" stroke:none;fill-rule:nonzero;fill:rgb(30.196078%,30.196078%,30.196078%);fill-opacity:1;" d="M 383.671875 236.589844 L 383.667969 236.941406 L 383.660156 237.28125 L 383.640625 237.609375 L 383.617188 237.925781 L 383.585938 238.234375 L 383.546875 238.527344 L 383.503906 238.8125 L 383.453125 239.082031 L 383.394531 239.34375 L 383.328125 239.59375 L 383.261719 239.832031 L 383.183594 240.0625 L 383.105469 240.28125 L 383.019531 240.492188 L 382.929688 240.695312 L 382.835938 240.886719 L 382.738281 241.070312 L 382.632812 241.242188 L 382.523438 241.40625 L 382.40625 241.5625 L 382.289062 241.707031 L 382.164062 241.84375 L 382.039062 241.972656 L 381.910156 242.09375 L 381.773438 242.207031 L 381.632812 242.308594 L 381.492188 242.402344 L 381.34375 242.488281 L 381.191406 242.566406 L 381.035156 242.636719 L 380.875 242.699219 L 380.714844 242.753906 L 380.550781 242.800781 L 380.386719 242.84375 L 380.21875 242.878906 L 380.046875 242.910156 L 379.875 242.933594 L 379.703125 242.949219 L 379.527344 242.957031 L 379.347656 242.960938 L 379.167969 242.957031 L 378.992188 242.949219 L 378.816406 242.933594 L 378.644531 242.910156 L 378.472656 242.878906 L 378.304688 242.84375 L 378.140625 242.800781 L 377.976562 242.753906 L 377.816406 242.699219 L 377.660156 242.636719 L 377.507812 242.566406 L 377.355469 242.488281 L 377.210938 242.402344 L 377.066406 242.308594 L 376.929688 242.207031 L 376.792969 242.09375 L 376.664062 241.972656 L 376.539062 241.84375 L 376.417969 241.707031 L 376.296875 241.5625 L 376.1875 241.410156 L 376.078125 241.246094 L 375.976562 241.074219 L 375.878906 240.890625 L 375.785156 240.699219 L 375.699219 240.5 L 375.613281 240.289062 L 375.535156 240.070312 L 375.460938 239.839844 L 375.394531 239.605469 L 375.332031 239.351562 L 375.277344 239.09375 L 375.226562 238.820312 L 375.183594 238.535156 L 375.148438 238.238281 L 375.121094 237.933594 L 375.097656 237.613281 L 375.082031 237.285156 L 375.070312 236.941406 L 375.066406 236.589844 L 375.070312 236.222656 L 375.082031 235.867188 L 375.097656 235.523438 L 375.121094 235.195312 L 375.148438 234.878906 L 375.183594 234.578125 L 375.226562 234.285156 L 375.277344 234.011719 L 375.332031 233.746094 L 375.394531 233.496094 L 375.460938 233.253906 L 375.535156 233.023438 L 375.617188 232.800781 L 375.699219 232.589844 L 375.789062 232.390625 L 375.882812 232.199219 L 375.980469 232.019531 L 376.085938 231.847656 L 376.191406 231.6875 L 376.308594 231.535156 L 376.425781 231.394531 L 376.546875 231.261719 L 376.675781 231.136719 L 376.804688 231.023438 L 376.941406 230.914062 L 377.078125 230.816406 L 377.222656 230.730469 L 377.371094 230.648438 L 377.523438 230.578125 L 377.679688 230.515625 L 377.835938 230.457031 L 378 230.40625 L 378.164062 230.363281 L 378.332031 230.324219 L 378.503906 230.292969 L 378.679688 230.265625 L 378.855469 230.242188 L 379.214844 230.21875 L 379.578125 230.21875 L 379.921875 230.242188 L 380.09375 230.265625 L 380.257812 230.292969 L 380.425781 230.324219 L 380.585938 230.363281 L 380.746094 230.40625 L 380.90625 230.457031 L 381.0625 230.515625 L 381.214844 230.578125 L 381.367188 230.648438 L 381.511719 230.730469 L 381.65625 230.816406 L 381.792969 230.914062 L 381.925781 231.023438 L 382.058594 231.136719 L 382.183594 231.261719 L 382.304688 231.394531 L 382.425781 231.535156 L 382.539062 231.6875 L 382.644531 231.847656 L 382.75 232.019531 L 382.847656 232.199219 L 382.941406 232.390625 L 383.03125 232.589844 L 383.117188 232.800781 L 383.195312 233.023438 L 383.269531 233.253906 L 383.339844 233.496094 L 383.402344 233.746094 L 383.457031 234.011719 L 383.507812 234.285156 L 383.550781 234.578125 L 383.589844 234.878906 L 383.617188 235.195312 L 383.640625 235.523438 L 383.660156 235.867188 L 383.667969 236.222656 Z M 382.0625 236.589844 L 382.0625 236.296875 L 382.058594 236.019531 L 382.046875 235.75 L 382.035156 235.488281 L 382.019531 235.238281 L 382 234.996094 L 381.976562 234.765625 L 381.953125 234.546875 L 381.921875 234.335938 L 381.886719 234.136719 L 381.851562 233.945312 L 381.8125 233.757812 L 381.765625 233.582031 L 381.71875 233.414062 L 381.671875 233.253906 L 381.617188 233.101562 L 381.558594 232.957031 L 381.5 232.820312 L 381.4375 232.691406 L 381.371094 232.574219 L 381.300781 232.457031 L 381.226562 232.351562 L 381.148438 232.25 L 381.070312 232.15625 L 380.988281 232.070312 L 380.902344 231.992188 L 380.8125 231.921875 L 380.71875 231.855469 L 380.625 231.796875 L 380.527344 231.746094 L 380.425781 231.699219 L 380.324219 231.65625 L 380.21875 231.621094 L 380.109375 231.589844 L 380 231.5625 L 379.882812 231.539062 L 379.769531 231.523438 L 379.648438 231.511719 L 379.527344 231.503906 L 379.402344 231.5 L 379.269531 231.503906 L 379.140625 231.511719 L 379.015625 231.523438 L 378.890625 231.539062 L 378.773438 231.5625 L 378.65625 231.589844 L 378.542969 231.621094 L 378.433594 231.65625 L 378.328125 231.699219 L 378.222656 231.746094 L 378.121094 231.796875 L 378.023438 231.859375 L 377.929688 231.925781 L 377.839844 231.996094 L 377.753906 232.078125 L 377.667969 232.164062 L 377.585938 232.257812 L 377.507812 232.359375 L 377.433594 232.464844 L 377.292969 232.699219 L 377.230469 232.828125 L 377.171875 232.964844 L 377.113281 233.109375 L 377.058594 233.261719 L 377.011719 233.421875 L 376.964844 233.589844 L 376.921875 233.769531 L 376.878906 233.953125 L 376.84375 234.144531 L 376.808594 234.34375 L 376.78125 234.554688 L 376.753906 234.773438 L 376.730469 235.003906 L 376.710938 235.246094 L 376.695312 235.492188 L 376.683594 235.753906 L 376.675781 236.023438 L 376.667969 236.300781 L 376.667969 236.871094 L 376.675781 237.140625 L 376.683594 237.402344 L 376.695312 237.65625 L 376.710938 237.902344 L 376.730469 238.136719 L 376.753906 238.363281 L 376.78125 238.582031 L 376.808594 238.789062 L 376.84375 238.988281 L 376.882812 239.179688 L 376.921875 239.363281 L 376.96875 239.539062 L 377.015625 239.707031 L 377.066406 239.871094 L 377.121094 240.023438 L 377.179688 240.167969 L 377.238281 240.308594 L 377.304688 240.4375 L 377.371094 240.5625 L 377.441406 240.675781 L 377.515625 240.785156 L 377.59375 240.886719 L 377.675781 240.980469 L 377.757812 241.070312 L 377.847656 241.152344 L 377.9375 241.226562 L 378.027344 241.296875 L 378.125 241.359375 L 378.222656 241.414062 L 378.324219 241.460938 L 378.429688 241.507812 L 378.535156 241.542969 L 378.644531 241.578125 L 378.757812 241.605469 L 378.875 241.628906 L 378.992188 241.644531 L 379.113281 241.660156 L 379.238281 241.667969 L 379.488281 241.667969 L 379.609375 241.660156 L 379.730469 241.644531 L 379.84375 241.628906 L 379.957031 241.605469 L 380.070312 241.578125 L 380.179688 241.542969 L 380.285156 241.507812 L 380.390625 241.460938 L 380.492188 241.414062 L 380.589844 241.359375 L 380.683594 241.296875 L 380.777344 241.226562 L 380.867188 241.152344 L 380.953125 241.070312 L 381.035156 240.980469 L 381.113281 240.886719 L 381.191406 240.785156 L 381.265625 240.675781 L 381.335938 240.5625 L 381.402344 240.4375 L 381.46875 240.308594 L 381.53125 240.167969 L 381.589844 240.023438 L 381.644531 239.871094 L 381.695312 239.707031 L 381.746094 239.539062 L 381.789062 239.363281 L 381.832031 239.179688 L 381.871094 238.988281 L 381.90625 238.789062 L 381.941406 238.582031 L 381.96875 238.363281 L 381.992188 238.136719 L 382.015625 237.902344 L 382.03125 237.65625 L 382.046875 237.402344 L 382.054688 237.140625 L 382.0625 236.871094 Z M 382.0625 236.589844 "/>
<path style=" stroke:none;fill-rule:nonzero;fill:rgb(30.196078%,30.196078%,30.196078%);fill-opacity:1;" d="M 560.84375 242.785156 L 560.84375 241.667969 L 560.9375 241.464844 L 561.03125 241.265625 L 561.132812 241.074219 L 561.234375 240.886719 L 561.339844 240.703125 L 561.453125 240.523438 L 561.566406 240.351562 L 561.6875 240.179688 L 561.808594 240.015625 L 561.933594 239.859375 L 562.199219 239.546875 L 562.464844 239.25 L 562.601562 239.105469 L 562.738281 238.964844 L 562.875 238.828125 L 563.15625 238.5625 L 563.296875 238.433594 L 563.441406 238.308594 L 563.722656 238.058594 L 564.003906 237.816406 L 564.285156 237.582031 L 564.425781 237.46875 L 564.566406 237.359375 L 564.703125 237.25 L 564.84375 237.140625 L 564.980469 237.03125 L 565.113281 236.921875 L 565.371094 236.703125 L 565.496094 236.59375 L 565.738281 236.375 L 565.855469 236.265625 L 565.96875 236.160156 L 566.078125 236.046875 L 566.183594 235.9375 L 566.285156 235.828125 L 566.382812 235.714844 L 566.476562 235.601562 L 566.566406 235.484375 L 566.648438 235.371094 L 566.726562 235.253906 L 566.804688 235.132812 L 566.875 235.015625 L 566.941406 234.894531 L 567 234.769531 L 567.054688 234.644531 L 567.097656 234.511719 L 567.136719 234.378906 L 567.167969 234.242188 L 567.195312 234.101562 L 567.210938 233.957031 L 567.222656 233.8125 L 567.226562 233.664062 L 567.222656 233.558594 L 567.21875 233.457031 L 567.210938 233.359375 L 567.199219 233.261719 L 567.1875 233.167969 L 567.148438 232.988281 L 567.125 232.902344 L 567.097656 232.820312 L 567.066406 232.738281 L 567.035156 232.660156 L 567 232.582031 L 566.960938 232.507812 L 566.875 232.367188 L 566.828125 232.300781 L 566.726562 232.175781 L 566.667969 232.117188 L 566.550781 232.007812 L 566.484375 231.960938 L 566.421875 231.910156 L 566.28125 231.824219 L 566.207031 231.785156 L 566.132812 231.75 L 566.054688 231.714844 L 565.890625 231.660156 L 565.804688 231.632812 L 565.722656 231.609375 L 565.632812 231.585938 L 565.542969 231.566406 L 565.453125 231.554688 L 565.359375 231.539062 L 565.265625 231.53125 L 565.167969 231.523438 L 565.066406 231.519531 L 564.871094 231.519531 L 564.78125 231.523438 L 564.6875 231.53125 L 564.597656 231.539062 L 564.503906 231.550781 L 564.417969 231.566406 L 564.328125 231.582031 L 564.242188 231.601562 L 564.070312 231.648438 L 563.988281 231.675781 L 563.910156 231.707031 L 563.753906 231.777344 L 563.679688 231.8125 L 563.605469 231.855469 L 563.535156 231.898438 L 563.464844 231.945312 L 563.398438 231.992188 L 563.332031 232.046875 L 563.269531 232.097656 L 563.207031 232.15625 L 563.148438 232.214844 L 563.089844 232.277344 L 563.035156 232.339844 L 562.933594 232.480469 L 562.886719 232.550781 L 562.839844 232.625 L 562.796875 232.703125 L 562.757812 232.78125 L 562.722656 232.863281 L 562.6875 232.949219 L 562.65625 233.035156 L 562.628906 233.125 L 562.605469 233.214844 L 562.582031 233.308594 L 562.5625 233.40625 L 562.53125 233.609375 L 560.914062 233.460938 L 560.933594 233.328125 L 560.957031 233.195312 L 560.980469 233.066406 L 561.011719 232.9375 L 561.046875 232.8125 L 561.085938 232.6875 L 561.128906 232.5625 L 561.175781 232.441406 L 561.230469 232.320312 L 561.285156 232.203125 L 561.34375 232.085938 L 561.410156 231.972656 L 561.476562 231.863281 L 561.550781 231.757812 L 561.628906 231.652344 L 561.710938 231.550781 L 561.796875 231.453125 L 561.890625 231.355469 L 561.984375 231.265625 L 562.1875 231.085938 L 562.296875 231.003906 L 562.410156 230.921875 L 562.523438 230.847656 L 562.644531 230.773438 L 562.769531 230.707031 L 562.898438 230.640625 L 563.164062 230.523438 L 563.304688 230.472656 L 563.453125 230.421875 L 563.601562 230.378906 L 563.757812 230.339844 L 563.917969 230.308594 L 564.082031 230.28125 L 564.25 230.257812 L 564.421875 230.238281 L 564.601562 230.226562 L 564.78125 230.21875 L 565.148438 230.21875 L 565.328125 230.226562 L 565.503906 230.238281 L 565.671875 230.253906 L 565.839844 230.273438 L 566 230.296875 L 566.160156 230.324219 L 566.464844 230.394531 L 566.609375 230.4375 L 566.753906 230.484375 L 566.890625 230.53125 L 567.023438 230.585938 L 567.152344 230.644531 L 567.394531 230.777344 L 567.507812 230.847656 L 567.617188 230.921875 L 567.722656 231.003906 L 567.824219 231.085938 L 567.921875 231.175781 L 568.015625 231.265625 L 568.101562 231.363281 L 568.1875 231.464844 L 568.265625 231.566406 L 568.339844 231.675781 L 568.410156 231.789062 L 568.472656 231.90625 L 568.53125 232.027344 L 568.589844 232.152344 L 568.636719 232.277344 L 568.683594 232.410156 L 568.722656 232.546875 L 568.757812 232.6875 L 568.785156 232.832031 L 568.808594 232.980469 L 568.828125 233.132812 L 568.839844 233.285156 L 568.847656 233.445312 L 568.851562 233.609375 L 568.851562 233.734375 L 568.84375 233.855469 L 568.832031 233.976562 L 568.816406 234.097656 L 568.792969 234.21875 L 568.769531 234.335938 L 568.707031 234.570312 L 568.667969 234.683594 L 568.625 234.796875 L 568.578125 234.90625 L 568.527344 235.019531 L 568.476562 235.128906 L 568.421875 235.238281 L 568.363281 235.34375 L 568.304688 235.453125 L 568.171875 235.664062 L 568.101562 235.765625 L 568.027344 235.867188 L 567.949219 235.96875 L 567.875 236.070312 L 567.792969 236.171875 L 567.710938 236.269531 L 567.625 236.371094 L 567.539062 236.46875 L 567.449219 236.566406 L 567.355469 236.660156 L 567.261719 236.757812 L 567.164062 236.851562 L 567.066406 236.949219 L 566.660156 237.324219 L 566.558594 237.414062 L 566.347656 237.601562 L 566.242188 237.691406 L 566.136719 237.785156 L 566.027344 237.875 L 565.921875 237.964844 L 565.8125 238.054688 L 565.707031 238.144531 L 565.597656 238.234375 L 565.488281 238.320312 L 565.382812 238.410156 L 564.945312 238.769531 L 564.839844 238.855469 L 564.628906 239.035156 L 564.527344 239.121094 L 564.421875 239.210938 L 564.324219 239.300781 L 564.222656 239.390625 L 564.027344 239.570312 L 563.839844 239.75 L 563.75 239.839844 L 563.578125 240.019531 L 563.492188 240.113281 L 563.410156 240.203125 L 563.328125 240.296875 L 563.25 240.390625 L 563.175781 240.484375 L 563.101562 240.574219 L 562.960938 240.761719 L 562.898438 240.855469 L 562.839844 240.949219 L 562.78125 241.046875 L 562.726562 241.144531 L 562.675781 241.242188 L 562.628906 241.339844 L 562.585938 241.441406 L 569.046875 241.441406 L 569.046875 242.785156 Z M 560.84375 242.785156 "/>
<path style=" stroke:none;fill-rule:nonzero;fill:rgb(30.196078%,30.196078%,30.196078%);fill-opacity:1;" d="M 753.257812 239.980469 L 753.257812 242.785156 L 751.765625 242.785156 L 751.765625 239.980469 L 745.929688 239.980469 L 745.929688 238.75 L 751.597656 230.402344 L 753.257812 230.402344 L 753.257812 238.734375 L 755 238.734375 L 755 239.980469 Z M 751.765625 232.1875 L 751.761719 232.195312 L 751.753906 232.207031 L 751.75 232.21875 L 751.734375 232.25 L 751.722656 232.269531 L 751.714844 232.289062 L 751.691406 232.335938 L 751.675781 232.363281 L 751.660156 232.386719 L 751.648438 232.410156 L 751.601562 232.492188 L 751.585938 232.523438 L 751.570312 232.550781 L 751.550781 232.582031 L 751.519531 232.644531 L 751.5 232.675781 L 751.484375 232.707031 L 751.445312 232.769531 L 751.429688 232.804688 L 751.390625 232.867188 L 751.371094 232.902344 L 751.351562 232.933594 L 751.332031 232.96875 L 751.316406 233 L 751.300781 233.027344 L 751.28125 233.058594 L 751.234375 233.140625 L 751.203125 233.1875 L 751.191406 233.210938 L 751.175781 233.230469 L 748.003906 237.90625 L 747.992188 237.921875 L 747.984375 237.9375 L 747.960938 237.96875 L 747.949219 237.988281 L 747.902344 238.046875 L 747.871094 238.09375 L 747.855469 238.113281 L 747.824219 238.160156 L 747.804688 238.183594 L 747.773438 238.230469 L 747.753906 238.257812 L 747.722656 238.304688 L 747.703125 238.328125 L 747.6875 238.351562 L 747.667969 238.375 L 747.652344 238.398438 L 747.632812 238.421875 L 747.617188 238.445312 L 747.597656 238.464844 L 747.582031 238.488281 L 747.5625 238.511719 L 747.546875 238.535156 L 747.527344 238.558594 L 747.511719 238.578125 L 747.492188 238.601562 L 747.476562 238.621094 L 747.464844 238.640625 L 747.449219 238.660156 L 747.433594 238.675781 L 747.410156 238.707031 L 747.398438 238.71875 L 747.386719 238.734375 L 751.765625 238.734375 Z M 751.765625 232.1875 "/>
</g>
</svg>
