<?xml version="1.0" encoding="UTF-8"?>
<svg xmlns="http://www.w3.org/2000/svg" xmlns:xlink="http://www.w3.org/1999/xlink" width="756pt" height="360pt" viewBox="0 0 756 360" version="1.1">
<g id="surface94">
<rect x="0" y="0" width="756" height="360" style="fill:rgb(100%,100%,100%);fill-opacity:1;stroke:none;"/>
<path style="fill-rule:nonzero;fill:rgb(41.568627%,35.294118%,80.392157%);fill-opacity:0.298039;stroke-width:1.600468;stroke-linecap:round;stroke-linejoin:round;stroke:rgb(41.568627%,35.294118%,80.392157%);stroke-opacity:1;stroke-miterlimit:10;" d="M 378 205.835938 L 379.128906 205.847656 L 380.253906 205.875 L 381.378906 205.925781 L 382.503906 205.996094 L 383.628906 206.082031 L 384.75 206.191406 L 385.871094 206.320312 L 386.988281 206.464844 L 388.105469 206.632812 L 389.214844 206.820312 L 390.324219 207.023438 L 391.429688 207.25 L 392.53125 207.492188 L 393.625 207.757812 L 394.71875 208.039062 L 395.804688 208.339844 L 396.886719 208.660156 L 397.960938 209 L 399.03125 209.355469 L 400.09375 209.734375 L 401.148438 210.128906 L 402.195312 210.539062 L 403.238281 210.972656 L 404.273438 211.421875 L 405.296875 211.890625 L 406.316406 212.375 L 407.324219 212.878906 L 408.324219 213.398438 L 409.316406 213.9375 L 410.296875 214.492188 L 411.269531 215.0625 L 412.230469 215.652344 L 413.179688 216.257812 L 414.121094 216.878906 L 415.050781 217.519531 L 415.96875 218.171875 L 416.875 218.84375 L 417.769531 219.53125 L 418.648438 220.230469 L 419.519531 220.949219 L 420.378906 221.679688 L 421.222656 222.429688 L 422.050781 223.191406 L 422.871094 223.964844 L 423.675781 224.757812 L 424.464844 225.558594 L 425.242188 226.378906 L 426.003906 227.210938 L 426.75 228.054688 L 427.480469 228.910156 L 428.199219 229.78125 L 428.898438 230.664062 L 429.585938 231.558594 L 430.257812 232.464844 L 430.910156 233.382812 L 431.550781 234.308594 L 432.171875 235.25 L 432.777344 236.203125 L 433.367188 237.164062 L 433.9375 238.132812 L 434.496094 239.113281 L 435.03125 240.105469 L 435.554688 241.105469 L 436.054688 242.113281 L 436.542969 243.132812 L 437.007812 244.15625 L 437.457031 245.191406 L 437.890625 246.234375 L 438.304688 247.28125 L 438.699219 248.339844 L 439.074219 249.402344 L 439.433594 250.46875 L 439.769531 251.546875 L 440.089844 252.625 L 440.390625 253.710938 L 440.675781 254.804688 L 440.9375 255.898438 L 441.183594 257 L 441.40625 258.105469 L 441.613281 259.214844 L 441.796875 260.324219 L 441.964844 261.441406 L 442.113281 262.558594 L 442.238281 263.679688 L 442.347656 264.800781 L 442.4375 265.925781 L 442.503906 267.050781 L 442.554688 268.175781 L 442.582031 269.304688 L 442.59375 270.429688 L 442.582031 271.558594 L 442.554688 272.683594 L 442.503906 273.8125 L 442.4375 274.9375 L 442.347656 276.058594 L 442.238281 277.183594 L 442.113281 278.300781 L 441.964844 279.421875 L 441.796875 280.535156 L 441.613281 281.648438 L 441.40625 282.753906 L 441.183594 283.859375 L 440.9375 284.960938 L 440.675781 286.058594 L 440.390625 287.148438 L 440.089844 288.234375 L 439.769531 289.316406 L 439.433594 290.390625 L 439.074219 291.460938 L 438.699219 292.523438 L 438.304688 293.578125 L 437.890625 294.628906 L 437.457031 295.667969 L 437.007812 296.703125 L 436.542969 297.730469 L 436.054688 298.746094 L 435.554688 299.753906 L 435.03125 300.753906 L 434.496094 301.746094 L 433.9375 302.726562 L 433.367188 303.699219 L 432.777344 304.660156 L 432.171875 305.609375 L 431.550781 306.550781 L 430.910156 307.480469 L 430.257812 308.398438 L 429.585938 309.304688 L 428.898438 310.199219 L 428.199219 311.082031 L 427.480469 311.949219 L 426.75 312.808594 L 426.003906 313.652344 L 425.242188 314.484375 L 424.464844 315.300781 L 423.675781 316.105469 L 422.871094 316.894531 L 422.050781 317.671875 L 421.222656 318.433594 L 420.378906 319.179688 L 419.519531 319.910156 L 418.648438 320.628906 L 417.769531 321.332031 L 416.875 322.015625 L 415.96875 322.6875 L 415.050781 323.34375 L 414.121094 323.980469 L 413.179688 324.601562 L 412.230469 325.207031 L 411.269531 325.796875 L 410.296875 326.371094 L 409.316406 326.925781 L 408.324219 327.464844 L 407.324219 327.984375 L 406.316406 328.488281 L 405.296875 328.972656 L 404.273438 329.441406 L 403.238281 329.890625 L 402.195312 330.320312 L 401.148438 330.734375 L 400.09375 331.128906 L 399.03125 331.503906 L 397.960938 331.863281 L 396.886719 332.203125 L 395.804688 332.523438 L 394.71875 332.824219 L 393.625 333.105469 L 392.53125 333.367188 L 391.429688 333.613281 L 390.324219 333.835938 L 389.214844 334.042969 L 388.105469 334.230469 L 386.988281 334.394531 L 385.871094 334.542969 L 384.75 334.671875 L 383.628906 334.777344 L 382.503906 334.867188 L 381.378906 334.933594 L 380.253906 334.984375 L 379.128906 335.015625 L 378 335.023438 L 376.871094 335.015625 L 375.746094 334.984375 L 374.621094 334.933594 L 373.496094 334.867188 L 372.371094 334.777344 L 371.25 334.671875 L 370.128906 334.542969 L 369.011719 334.394531 L 367.894531 334.230469 L 366.785156 334.042969 L 365.675781 333.835938 L 364.570312 333.613281 L 363.46875 333.367188 L 362.375 333.105469 L 361.28125 332.824219 L 360.195312 332.523438 L 359.113281 332.203125 L 358.039062 331.863281 L 356.96875 331.503906 L 355.90625 331.128906 L 354.851562 330.734375 L 353.804688 330.320312 L 352.761719 329.890625 L 351.726562 329.441406 L 350.703125 328.972656 L 349.683594 328.488281 L 348.675781 327.984375 L 347.675781 327.464844 L 346.683594 326.925781 L 345.703125 326.371094 L 344.730469 325.796875 L 343.769531 325.207031 L 342.820312 324.601562 L 341.878906 323.980469 L 340.949219 323.34375 L 340.03125 322.6875 L 339.125 322.015625 L 338.230469 321.332031 L 337.351562 320.628906 L 336.480469 319.910156 L 335.621094 319.179688 L 334.777344 318.433594 L 333.949219 317.671875 L 333.128906 316.894531 L 332.324219 316.105469 L 331.535156 315.300781 L 330.757812 314.484375 L 329.996094 313.652344 L 329.25 312.808594 L 328.519531 311.949219 L 327.800781 311.082031 L 327.101562 310.199219 L 326.414062 309.304688 L 325.742188 308.398438 L 325.089844 307.480469 L 324.449219 306.550781 L 323.828125 305.609375 L 323.222656 304.660156 L 322.632812 303.699219 L 322.0625 302.726562 L 321.503906 301.746094 L 320.96875 300.753906 L 320.445312 299.753906 L 319.945312 298.746094 L 319.457031 297.730469 L 318.992188 296.703125 L 318.542969 295.667969 L 318.109375 294.628906 L 317.695312 293.578125 L 317.300781 292.523438 L 316.925781 291.460938 L 316.566406 290.390625 L 316.230469 289.316406 L 315.910156 288.234375 L 315.609375 287.148438 L 315.324219 286.058594 L 315.0625 284.960938 L 314.816406 283.859375 L 314.59375 282.753906 L 314.386719 281.648438 L 314.203125 280.535156 L 314.035156 279.421875 L 313.886719 278.300781 L 313.761719 277.183594 L 313.652344 276.058594 L 313.5625 274.9375 L 313.496094 273.8125 L 313.445312 272.683594 L 313.417969 271.558594 L 313.40625 270.429688 L 313.417969 269.304688 L 313.445312 268.175781 L 313.496094 267.050781 L 313.5625 265.925781 L 313.652344 264.800781 L 313.761719 263.679688 L 313.886719 262.558594 L 314.035156 261.441406 L 314.203125 260.324219 L 314.386719 259.214844 L 314.59375 258.105469 L 314.816406 257 L 315.0625 255.898438 L 315.324219 254.804688 L 315.609375 253.710938 L 315.910156 252.625 L 316.230469 251.546875 L 316.566406 250.46875 L 316.925781 249.402344 L 317.300781 248.339844 L 317.695312 247.28125 L 318.109375 246.234375 L 318.542969 245.191406 L 318.992188 244.15625 L 319.457031 243.132812 L 319.945312 242.113281 L 320.445312 241.105469 L 320.96875 240.105469 L 321.503906 239.113281 L 322.0625 238.132812 L 322.632812 237.164062 L 323.222656 236.203125 L 323.828125 235.25 L 324.449219 234.308594 L 325.089844 233.382812 L 325.742188 232.464844 L 326.414062 231.558594 L 327.101562 230.664062 L 327.800781 229.78125 L 328.519531 228.910156 L 329.25 228.054688 L 329.996094 227.210938 L 330.757812 226.378906 L 331.535156 225.558594 L 332.324219 224.757812 L 333.128906 223.964844 L 333.949219 223.191406 L 334.777344 222.429688 L 335.621094 221.679688 L 336.480469 220.949219 L 337.351562 220.230469 L 338.230469 219.53125 L 339.125 218.84375 L 340.03125 218.171875 L 340.949219 217.519531 L 341.878906 216.878906 L 342.820312 216.257812 L 343.769531 215.652344 L 344.730469 215.0625 L 345.703125 214.492188 L 346.683594 213.9375 L 347.675781 213.398438 L 348.675781 212.878906 L 349.683594 212.375 L 350.703125 211.890625 L 351.726562 211.421875 L 352.761719 210.972656 L 353.804688 210.539062 L 354.851562 210.128906 L 355.90625 209.734375 L 356.96875 209.355469 L 358.039062 209 L 359.113281 208.660156 L 360.195312 208.339844 L 361.28125 208.039062 L 362.375 207.757812 L 363.46875 207.492188 L 364.570312 207.25 L 365.675781 207.023438 L 366.785156 206.820312 L 367.894531 206.632812 L 369.011719 206.464844 L 370.128906 206.320312 L 371.25 206.191406 L 372.371094 206.082031 L 373.496094 205.996094 L 374.621094 205.925781 L 375.746094 205.875 L 376.871094 205.847656 Z M 378 205.835938 "/>
<path style="fill-rule:nonzero;fill:rgb(98.431373%,38.039216%,2.745098%);fill-opacity:0.298039;stroke-width:1.600468;stroke-linecap:round;stroke-linejoin:round;stroke:rgb(98.431373%,38.039216%,2.745098%);stroke-opacity:1;stroke-dasharray:1.600468,4.801403;stroke-miterlimit:10;" d="M 464.125 175.695312 L 465.25 175.703125 L 466.378906 175.734375 L 467.503906 175.78125 L 468.628906 175.851562 L 469.753906 175.941406 L 470.875 176.046875 L 471.996094 176.175781 L 473.113281 176.324219 L 474.230469 176.488281 L 475.339844 176.675781 L 476.449219 176.878906 L 477.554688 177.105469 L 478.65625 177.347656 L 479.75 177.613281 L 480.84375 177.894531 L 481.929688 178.195312 L 483.007812 178.515625 L 484.085938 178.855469 L 485.152344 179.214844 L 486.214844 179.589844 L 487.273438 179.984375 L 488.320312 180.398438 L 489.363281 180.828125 L 490.398438 181.277344 L 491.421875 181.746094 L 492.441406 182.230469 L 493.449219 182.734375 L 494.449219 183.253906 L 495.441406 183.792969 L 496.421875 184.347656 L 497.390625 184.917969 L 498.355469 185.507812 L 499.304688 186.113281 L 500.246094 186.738281 L 501.171875 187.375 L 502.089844 188.03125 L 502.996094 188.699219 L 503.890625 189.386719 L 504.773438 190.089844 L 505.644531 190.804688 L 506.5 191.539062 L 507.347656 192.285156 L 508.175781 193.046875 L 508.996094 193.824219 L 509.796875 194.613281 L 510.589844 195.417969 L 511.363281 196.234375 L 512.125 197.066406 L 512.875 197.910156 L 513.605469 198.765625 L 514.324219 199.636719 L 515.023438 200.519531 L 515.710938 201.414062 L 516.382812 202.320312 L 517.035156 203.238281 L 517.675781 204.167969 L 518.296875 205.105469 L 518.902344 206.058594 L 519.492188 207.019531 L 520.0625 207.992188 L 520.617188 208.972656 L 521.15625 209.960938 L 521.675781 210.960938 L 522.179688 211.972656 L 522.664062 212.988281 L 523.132812 214.015625 L 523.582031 215.046875 L 524.015625 216.089844 L 524.425781 217.140625 L 524.820312 218.195312 L 525.199219 219.257812 L 525.554688 220.328125 L 525.894531 221.402344 L 526.214844 222.484375 L 526.515625 223.570312 L 526.800781 224.660156 L 527.0625 225.757812 L 527.304688 226.855469 L 527.53125 227.960938 L 527.738281 229.070312 L 527.921875 230.183594 L 528.089844 231.296875 L 528.234375 232.414062 L 528.363281 233.535156 L 528.472656 234.65625 L 528.558594 235.78125 L 528.628906 236.90625 L 528.679688 238.03125 L 528.707031 239.160156 L 528.71875 240.285156 L 528.707031 241.414062 L 528.679688 242.542969 L 528.628906 243.667969 L 528.558594 244.792969 L 528.472656 245.917969 L 528.363281 247.039062 L 528.234375 248.160156 L 528.089844 249.277344 L 527.921875 250.390625 L 527.738281 251.503906 L 527.53125 252.613281 L 527.304688 253.714844 L 527.0625 254.816406 L 526.800781 255.914062 L 526.515625 257.003906 L 526.214844 258.089844 L 525.894531 259.171875 L 525.554688 260.246094 L 525.199219 261.316406 L 524.820312 262.378906 L 524.425781 263.433594 L 524.015625 264.484375 L 523.582031 265.527344 L 523.132812 266.558594 L 522.664062 267.585938 L 522.179688 268.601562 L 521.675781 269.613281 L 521.15625 270.613281 L 520.617188 271.601562 L 520.0625 272.582031 L 519.492188 273.554688 L 518.902344 274.515625 L 518.296875 275.46875 L 517.675781 276.40625 L 517.035156 277.335938 L 516.382812 278.253906 L 515.710938 279.160156 L 515.023438 280.054688 L 514.324219 280.9375 L 513.605469 281.808594 L 512.875 282.664062 L 512.125 283.507812 L 511.363281 284.339844 L 510.589844 285.15625 L 509.796875 285.960938 L 508.996094 286.75 L 508.175781 287.527344 L 507.347656 288.289062 L 506.5 289.035156 L 505.644531 289.769531 L 504.773438 290.484375 L 503.890625 291.1875 L 502.996094 291.875 L 502.089844 292.542969 L 501.171875 293.199219 L 500.246094 293.835938 L 499.304688 294.460938 L 498.355469 295.066406 L 497.390625 295.65625 L 496.421875 296.226562 L 495.441406 296.78125 L 494.449219 297.320312 L 493.449219 297.839844 L 492.441406 298.34375 L 491.421875 298.828125 L 490.398438 299.296875 L 489.363281 299.746094 L 488.320312 300.175781 L 487.273438 300.589844 L 486.214844 300.984375 L 485.152344 301.359375 L 484.085938 301.71875 L 483.007812 302.058594 L 481.929688 302.378906 L 480.84375 302.679688 L 479.75 302.960938 L 478.65625 303.226562 L 477.554688 303.46875 L 476.449219 303.695312 L 475.339844 303.898438 L 474.230469 304.085938 L 473.113281 304.25 L 471.996094 304.398438 L 470.875 304.527344 L 469.753906 304.632812 L 468.628906 304.722656 L 467.503906 304.792969 L 466.378906 304.839844 L 465.25 304.871094 L 464.125 304.878906 L 462.996094 304.871094 L 461.871094 304.839844 L 460.742188 304.792969 L 459.617188 304.722656 L 458.496094 304.632812 L 457.371094 304.527344 L 456.253906 304.398438 L 455.132812 304.25 L 454.019531 304.085938 L 452.90625 303.898438 L 451.800781 303.695312 L 450.695312 303.46875 L 449.59375 303.226562 L 448.496094 302.960938 L 447.40625 302.679688 L 446.320312 302.378906 L 445.238281 302.058594 L 444.164062 301.71875 L 443.09375 301.359375 L 442.03125 300.984375 L 440.976562 300.589844 L 439.925781 300.175781 L 438.886719 299.746094 L 437.851562 299.296875 L 436.824219 298.828125 L 435.808594 298.34375 L 434.800781 297.839844 L 433.800781 297.320312 L 432.808594 296.78125 L 431.828125 296.226562 L 430.855469 295.65625 L 429.894531 295.066406 L 428.945312 294.460938 L 428.003906 293.835938 L 427.074219 293.199219 L 426.15625 292.542969 L 425.25 291.875 L 424.355469 291.1875 L 423.472656 290.484375 L 422.605469 289.769531 L 421.746094 289.035156 L 420.902344 288.289062 L 420.070312 287.527344 L 419.253906 286.75 L 418.449219 285.960938 L 417.660156 285.15625 L 416.882812 284.339844 L 416.121094 283.507812 L 415.375 282.664062 L 414.644531 281.808594 L 413.925781 280.9375 L 413.222656 280.054688 L 412.539062 279.160156 L 411.867188 278.253906 L 411.210938 277.335938 L 410.574219 276.40625 L 409.953125 275.46875 L 409.347656 274.515625 L 408.757812 273.554688 L 408.183594 272.582031 L 407.628906 271.601562 L 407.09375 270.613281 L 406.570312 269.613281 L 406.066406 268.601562 L 405.582031 267.585938 L 405.117188 266.558594 L 404.664062 265.527344 L 404.234375 264.484375 L 403.820312 263.433594 L 403.425781 262.378906 L 403.050781 261.316406 L 402.691406 260.246094 L 402.355469 259.171875 L 402.035156 258.089844 L 401.730469 257.003906 L 401.449219 255.914062 L 401.1875 254.816406 L 400.941406 253.714844 L 400.71875 252.613281 L 400.511719 251.503906 L 400.328125 250.390625 L 400.160156 249.277344 L 400.011719 248.160156 L 399.886719 247.039062 L 399.777344 245.917969 L 399.6875 244.792969 L 399.621094 243.667969 L 399.570312 242.542969 L 399.539062 241.414062 L 399.53125 240.285156 L 399.539062 239.160156 L 399.570312 238.03125 L 399.621094 236.90625 L 399.6875 235.78125 L 399.777344 234.65625 L 399.886719 233.535156 L 400.011719 232.414062 L 400.160156 231.296875 L 400.328125 230.183594 L 400.511719 229.070312 L 400.71875 227.960938 L 400.941406 226.855469 L 401.1875 225.757812 L 401.449219 224.660156 L 401.730469 223.570312 L 402.035156 222.484375 L 402.355469 221.402344 L 402.691406 220.328125 L 403.050781 219.257812 L 403.425781 218.195312 L 403.820312 217.140625 L 404.234375 216.089844 L 404.664062 215.046875 L 405.117188 214.015625 L 405.582031 212.988281 L 406.066406 211.972656 L 406.570312 210.960938 L 407.09375 209.960938 L 407.628906 208.972656 L 408.183594 207.992188 L 408.757812 207.019531 L 409.347656 206.058594 L 409.953125 205.105469 L 410.574219 204.167969 L 411.210938 203.238281 L 411.867188 202.320312 L 412.539062 201.414062 L 413.222656 200.519531 L 413.925781 199.636719 L 414.644531 198.765625 L 415.375 197.910156 L 416.121094 197.066406 L 416.882812 196.234375 L 417.660156 195.417969 L 418.449219 194.613281 L 419.253906 193.824219 L 420.070312 193.046875 L 420.902344 192.285156 L 421.746094 191.539062 L 422.605469 190.804688 L 423.472656 190.089844 L 424.355469 189.386719 L 425.25 188.699219 L 426.15625 188.03125 L 427.074219 187.375 L 428.003906 186.738281 L 428.945312 186.113281 L 429.894531 185.507812 L 430.855469 184.917969 L 431.828125 184.347656 L 432.808594 183.792969 L 433.800781 183.253906 L 434.800781 182.734375 L 435.808594 182.230469 L 436.824219 181.746094 L 437.851562 181.277344 L 438.886719 180.828125 L 439.925781 180.398438 L 440.976562 179.984375 L 442.03125 179.589844 L 443.09375 179.214844 L 444.164062 178.855469 L 445.238281 178.515625 L 446.320312 178.195312 L 447.40625 177.894531 L 448.496094 177.613281 L 449.59375 177.347656 L 450.695312 177.105469 L 451.800781 176.878906 L 452.90625 176.675781 L 454.019531 176.488281 L 455.132812 176.324219 L 456.253906 176.175781 L 457.371094 176.046875 L 458.496094 175.941406 L 459.617188 175.851562 L 460.742188 175.78125 L 461.871094 175.734375 L 462.996094 175.703125 Z M 464.125 175.695312 "/>
<path style="fill-rule:nonzero;fill:rgb(60%,60%,60%);fill-opacity:0.298039;stroke-width:1.600468;stroke-linecap:round;stroke-linejoin:round;stroke:rgb(60%,60%,60%);stroke-opacity:1;stroke-dasharray:1.600468,4.801403;stroke-miterlimit:10;" d="M 356.46875 20.667969 L 357.445312 20.679688 L 358.421875 20.703125 L 359.398438 20.746094 L 360.375 20.804688 L 361.347656 20.882812 L 362.320312 20.976562 L 363.292969 21.085938 L 364.261719 21.214844 L 365.226562 21.359375 L 366.191406 21.519531 L 367.152344 21.699219 L 368.109375 21.894531 L 369.0625 22.105469 L 370.011719 22.332031 L 370.957031 22.578125 L 371.898438 22.839844 L 372.835938 23.117188 L 373.769531 23.410156 L 374.695312 23.71875 L 375.617188 24.046875 L 376.53125 24.386719 L 377.441406 24.746094 L 378.34375 25.121094 L 379.238281 25.507812 L 380.128906 25.914062 L 381.007812 26.335938 L 381.882812 26.769531 L 382.75 27.222656 L 383.609375 27.6875 L 384.460938 28.167969 L 385.300781 28.664062 L 386.132812 29.175781 L 386.957031 29.703125 L 387.773438 30.242188 L 388.578125 30.792969 L 389.375 31.359375 L 390.160156 31.941406 L 390.933594 32.539062 L 391.699219 33.144531 L 392.453125 33.765625 L 393.195312 34.402344 L 393.925781 35.050781 L 394.648438 35.707031 L 395.355469 36.382812 L 396.054688 37.066406 L 396.738281 37.761719 L 397.410156 38.472656 L 398.070312 39.191406 L 398.71875 39.925781 L 399.351562 40.667969 L 399.972656 41.421875 L 400.582031 42.183594 L 401.175781 42.960938 L 401.757812 43.746094 L 402.324219 44.542969 L 402.878906 45.347656 L 403.417969 46.160156 L 403.945312 46.984375 L 404.453125 47.820312 L 404.949219 48.660156 L 405.429688 49.511719 L 405.898438 50.371094 L 406.347656 51.234375 L 406.785156 52.109375 L 407.203125 52.992188 L 407.609375 53.882812 L 408 54.777344 L 408.375 55.679688 L 408.730469 56.589844 L 409.074219 57.503906 L 409.398438 58.425781 L 409.710938 59.351562 L 410.003906 60.285156 L 410.28125 61.21875 L 410.542969 62.160156 L 410.785156 63.109375 L 411.015625 64.058594 L 411.226562 65.011719 L 411.421875 65.96875 L 411.597656 66.929688 L 411.761719 67.894531 L 411.90625 68.859375 L 412.03125 69.828125 L 412.144531 70.800781 L 412.238281 71.773438 L 412.3125 72.746094 L 412.371094 73.722656 L 412.414062 74.695312 L 412.441406 75.671875 L 412.449219 76.652344 L 412.441406 77.628906 L 412.414062 78.605469 L 412.371094 79.582031 L 412.3125 80.554688 L 412.238281 81.53125 L 412.144531 82.503906 L 412.03125 83.472656 L 411.90625 84.441406 L 411.761719 85.40625 L 411.597656 86.371094 L 411.421875 87.332031 L 411.226562 88.289062 L 411.015625 89.242188 L 410.785156 90.195312 L 410.542969 91.140625 L 410.28125 92.082031 L 410.003906 93.019531 L 409.710938 93.949219 L 409.398438 94.875 L 409.074219 95.796875 L 408.730469 96.710938 L 408.375 97.621094 L 408 98.523438 L 407.609375 99.421875 L 407.203125 100.308594 L 406.785156 101.191406 L 406.347656 102.066406 L 405.898438 102.933594 L 405.429688 103.789062 L 404.949219 104.640625 L 404.453125 105.484375 L 403.945312 106.316406 L 403.417969 107.140625 L 402.878906 107.953125 L 402.324219 108.761719 L 401.757812 109.554688 L 401.175781 110.339844 L 400.582031 111.117188 L 399.972656 111.878906 L 399.351562 112.632812 L 398.71875 113.378906 L 398.070312 114.109375 L 397.410156 114.828125 L 396.738281 115.539062 L 396.054688 116.234375 L 395.355469 116.921875 L 394.648438 117.59375 L 393.925781 118.253906 L 393.195312 118.898438 L 392.453125 119.535156 L 391.699219 120.15625 L 390.933594 120.765625 L 390.160156 121.359375 L 389.375 121.941406 L 388.578125 122.507812 L 387.773438 123.0625 L 386.957031 123.601562 L 386.132812 124.125 L 385.300781 124.636719 L 384.460938 125.132812 L 383.609375 125.613281 L 382.75 126.078125 L 381.882812 126.53125 L 381.007812 126.964844 L 380.128906 127.386719 L 379.238281 127.792969 L 378.34375 128.179688 L 377.441406 128.554688 L 376.53125 128.914062 L 375.617188 129.253906 L 374.695312 129.582031 L 373.769531 129.890625 L 372.835938 130.183594 L 371.898438 130.464844 L 370.957031 130.722656 L 370.011719 130.96875 L 369.0625 131.195312 L 368.109375 131.410156 L 367.152344 131.601562 L 366.191406 131.78125 L 365.226562 131.941406 L 364.261719 132.085938 L 363.292969 132.214844 L 362.320312 132.324219 L 361.347656 132.417969 L 360.375 132.496094 L 359.398438 132.554688 L 358.421875 132.597656 L 357.445312 132.625 L 356.46875 132.632812 L 355.492188 132.625 L 354.515625 132.597656 L 353.539062 132.554688 L 352.5625 132.496094 L 351.589844 132.417969 L 350.617188 132.324219 L 349.648438 132.214844 L 348.679688 132.085938 L 347.710938 131.941406 L 346.746094 131.78125 L 345.789062 131.601562 L 344.828125 131.410156 L 343.875 131.195312 L 342.925781 130.96875 L 341.980469 130.722656 L 341.039062 130.464844 L 340.101562 130.183594 L 339.167969 129.890625 L 338.242188 129.582031 L 337.324219 129.253906 L 336.40625 128.914062 L 335.5 128.554688 L 334.59375 128.179688 L 333.699219 127.792969 L 332.808594 127.386719 L 331.929688 126.964844 L 331.054688 126.53125 L 330.1875 126.078125 L 329.328125 125.613281 L 328.476562 125.132812 L 327.636719 124.636719 L 326.804688 124.125 L 325.980469 123.601562 L 325.164062 123.0625 L 324.359375 122.507812 L 323.5625 121.941406 L 322.777344 121.359375 L 322.003906 120.765625 L 321.238281 120.15625 L 320.484375 119.535156 L 319.742188 118.898438 L 319.011719 118.253906 L 318.289062 117.59375 L 317.582031 116.921875 L 316.882812 116.234375 L 316.199219 115.539062 L 315.527344 114.828125 L 314.867188 114.109375 L 314.21875 113.378906 L 313.585938 112.632812 L 312.964844 111.878906 L 312.355469 111.117188 L 311.761719 110.339844 L 311.179688 109.554688 L 310.613281 108.761719 L 310.058594 107.953125 L 309.519531 107.140625 L 308.996094 106.316406 L 308.484375 105.484375 L 307.988281 104.640625 L 307.507812 103.789062 L 307.039062 102.933594 L 306.589844 102.066406 L 306.152344 101.191406 L 305.734375 100.308594 L 305.328125 99.421875 L 304.9375 98.523438 L 304.5625 97.621094 L 304.207031 96.710938 L 303.863281 95.796875 L 303.539062 94.875 L 303.226562 93.949219 L 302.933594 93.019531 L 302.65625 92.082031 L 302.394531 91.140625 L 302.152344 90.195312 L 301.921875 89.242188 L 301.710938 88.289062 L 301.515625 87.332031 L 301.339844 86.371094 L 301.175781 85.40625 L 301.03125 84.441406 L 300.90625 83.472656 L 300.792969 82.503906 L 300.699219 81.53125 L 300.625 80.554688 L 300.566406 79.582031 L 300.523438 78.605469 L 300.496094 77.628906 L 300.488281 76.652344 L 300.496094 75.671875 L 300.523438 74.695312 L 300.566406 73.722656 L 300.625 72.746094 L 300.699219 71.773438 L 300.792969 70.800781 L 300.90625 69.828125 L 301.03125 68.859375 L 301.175781 67.894531 L 301.339844 66.929688 L 301.515625 65.96875 L 301.710938 65.011719 L 301.921875 64.058594 L 302.152344 63.109375 L 302.394531 62.160156 L 302.65625 61.21875 L 302.933594 60.285156 L 303.226562 59.351562 L 303.539062 58.425781 L 303.863281 57.503906 L 304.207031 56.589844 L 304.5625 55.679688 L 304.9375 54.777344 L 305.328125 53.882812 L 305.734375 52.992188 L 306.152344 52.109375 L 306.589844 51.234375 L 307.039062 50.371094 L 307.507812 49.511719 L 307.988281 48.660156 L 308.484375 47.820312 L 308.996094 46.984375 L 309.519531 46.160156 L 310.058594 45.347656 L 310.613281 44.542969 L 311.179688 43.746094 L 311.761719 42.960938 L 312.355469 42.183594 L 312.964844 41.421875 L 313.585938 40.667969 L 314.21875 39.925781 L 314.867188 39.191406 L 315.527344 38.472656 L 316.199219 37.761719 L 316.882812 37.066406 L 317.582031 36.382812 L 318.289062 35.707031 L 319.011719 35.050781 L 319.742188 34.402344 L 320.484375 33.765625 L 321.238281 33.144531 L 322.003906 32.539062 L 322.777344 31.941406 L 323.5625 31.359375 L 324.359375 30.792969 L 325.164062 30.242188 L 325.980469 29.703125 L 326.804688 29.175781 L 327.636719 28.664062 L 328.476562 28.167969 L 329.328125 27.6875 L 330.1875 27.222656 L 331.054688 26.769531 L 331.929688 26.335938 L 332.808594 25.914062 L 333.699219 25.507812 L 334.59375 25.121094 L 335.5 24.746094 L 336.40625 24.386719 L 337.324219 24.046875 L 338.242188 23.71875 L 339.167969 23.410156 L 340.101562 23.117188 L 341.039062 22.839844 L 341.980469 22.578125 L 342.925781 22.332031 L 343.875 22.105469 L 344.828125 21.894531 L 345.789062 21.699219 L 346.746094 21.519531 L 347.710938 21.359375 L 348.679688 21.214844 L 349.648438 21.085938 L 350.617188 20.976562 L 351.589844 20.882812 L 352.5625 20.804688 L 353.539062 20.746094 L 354.515625 20.703125 L 355.492188 20.679688 Z M 356.46875 20.667969 "/>
<path style="fill-rule:nonzero;fill:rgb(100%,64.705882%,0%);fill-opacity:0.298039;stroke-width:1.600468;stroke-linecap:round;stroke-linejoin:round;stroke:rgb(100%,64.705882%,0%);stroke-opacity:1;stroke-miterlimit:10;" d="M 399.53125 80.957031 L 400.960938 80.96875 L 402.386719 81.007812 L 403.8125 81.070312 L 405.238281 81.15625 L 406.660156 81.269531 L 408.082031 81.40625 L 409.503906 81.566406 L 410.917969 81.753906 L 412.332031 81.964844 L 413.738281 82.199219 L 415.144531 82.460938 L 416.542969 82.746094 L 417.9375 83.054688 L 419.324219 83.386719 L 420.707031 83.746094 L 422.082031 84.125 L 423.453125 84.53125 L 424.8125 84.960938 L 426.167969 85.414062 L 427.515625 85.890625 L 428.851562 86.390625 L 430.179688 86.914062 L 431.5 87.460938 L 432.808594 88.03125 L 434.109375 88.621094 L 435.398438 89.238281 L 436.675781 89.875 L 437.941406 90.535156 L 439.199219 91.214844 L 440.441406 91.917969 L 441.671875 92.644531 L 442.886719 93.390625 L 444.09375 94.15625 L 445.285156 94.945312 L 446.460938 95.753906 L 447.621094 96.582031 L 448.769531 97.433594 L 449.902344 98.300781 L 451.019531 99.191406 L 452.121094 100.097656 L 453.207031 101.027344 L 454.277344 101.972656 L 455.332031 102.9375 L 456.367188 103.921875 L 457.386719 104.921875 L 458.386719 105.9375 L 459.367188 106.976562 L 460.332031 108.027344 L 461.28125 109.097656 L 462.207031 110.183594 L 463.117188 111.285156 L 464.003906 112.402344 L 464.875 113.535156 L 465.722656 114.683594 L 466.550781 115.847656 L 467.363281 117.023438 L 468.148438 118.214844 L 468.917969 119.417969 L 469.664062 120.636719 L 470.386719 121.867188 L 471.089844 123.109375 L 471.773438 124.363281 L 472.429688 125.628906 L 473.070312 126.910156 L 473.683594 128.195312 L 474.277344 129.496094 L 474.84375 130.804688 L 475.390625 132.125 L 475.914062 133.453125 L 476.414062 134.792969 L 476.890625 136.136719 L 477.34375 137.492188 L 477.773438 138.855469 L 478.179688 140.222656 L 478.5625 141.597656 L 478.917969 142.980469 L 479.253906 144.371094 L 479.5625 145.765625 L 479.847656 147.164062 L 480.105469 148.566406 L 480.34375 149.976562 L 480.554688 151.386719 L 480.738281 152.804688 L 480.902344 154.222656 L 481.039062 155.644531 L 481.148438 157.066406 L 481.238281 158.492188 L 481.300781 159.917969 L 481.335938 161.347656 L 481.347656 162.773438 L 481.335938 164.203125 L 481.300781 165.628906 L 481.238281 167.058594 L 481.148438 168.484375 L 481.039062 169.90625 L 480.902344 171.328125 L 480.738281 172.746094 L 480.554688 174.160156 L 480.34375 175.574219 L 480.105469 176.984375 L 479.847656 178.386719 L 479.5625 179.785156 L 479.253906 181.179688 L 478.917969 182.570312 L 478.5625 183.953125 L 478.179688 185.328125 L 477.773438 186.695312 L 477.34375 188.058594 L 476.890625 189.414062 L 476.414062 190.757812 L 475.914062 192.097656 L 475.390625 193.425781 L 474.84375 194.742188 L 474.277344 196.054688 L 473.683594 197.351562 L 473.070312 198.640625 L 472.429688 199.917969 L 471.773438 201.1875 L 471.089844 202.441406 L 470.386719 203.683594 L 469.664062 204.914062 L 468.917969 206.132812 L 468.148438 207.335938 L 467.363281 208.527344 L 466.550781 209.703125 L 465.722656 210.867188 L 464.875 212.015625 L 464.003906 213.148438 L 463.117188 214.265625 L 462.207031 215.367188 L 461.28125 216.453125 L 460.332031 217.523438 L 459.367188 218.574219 L 458.386719 219.609375 L 457.386719 220.628906 L 456.367188 221.628906 L 455.332031 222.613281 L 454.277344 223.578125 L 453.207031 224.523438 L 452.121094 225.453125 L 451.019531 226.359375 L 449.902344 227.25 L 448.769531 228.117188 L 447.621094 228.96875 L 446.460938 229.796875 L 445.285156 230.605469 L 444.09375 231.394531 L 442.886719 232.160156 L 441.671875 232.90625 L 440.441406 233.632812 L 439.199219 234.335938 L 437.941406 235.015625 L 436.675781 235.675781 L 435.398438 236.3125 L 434.109375 236.925781 L 432.808594 237.519531 L 431.5 238.089844 L 430.179688 238.636719 L 428.851562 239.160156 L 427.515625 239.660156 L 426.167969 240.136719 L 424.8125 240.589844 L 423.453125 241.019531 L 422.082031 241.421875 L 420.707031 241.804688 L 419.324219 242.164062 L 417.9375 242.496094 L 416.542969 242.804688 L 415.144531 243.089844 L 413.738281 243.351562 L 412.332031 243.585938 L 410.917969 243.796875 L 409.503906 243.984375 L 408.082031 244.144531 L 406.660156 244.28125 L 405.238281 244.394531 L 403.8125 244.480469 L 402.386719 244.542969 L 400.960938 244.582031 L 399.53125 244.59375 L 398.101562 244.582031 L 396.675781 244.542969 L 395.25 244.480469 L 393.824219 244.394531 L 392.398438 244.28125 L 390.980469 244.144531 L 389.558594 243.984375 L 388.144531 243.796875 L 386.730469 243.585938 L 385.324219 243.351562 L 383.917969 243.089844 L 382.519531 242.804688 L 381.125 242.496094 L 379.738281 242.164062 L 378.355469 241.804688 L 376.980469 241.421875 L 375.609375 241.019531 L 374.246094 240.589844 L 372.894531 240.136719 L 371.546875 239.660156 L 370.210938 239.160156 L 368.882812 238.636719 L 367.5625 238.089844 L 366.253906 237.519531 L 364.953125 236.925781 L 363.664062 236.3125 L 362.386719 235.675781 L 361.121094 235.015625 L 359.863281 234.335938 L 358.621094 233.632812 L 357.390625 232.90625 L 356.175781 232.160156 L 354.96875 231.394531 L 353.777344 230.605469 L 352.601562 229.796875 L 351.441406 228.96875 L 350.292969 228.117188 L 349.160156 227.25 L 348.042969 226.359375 L 346.9375 225.453125 L 345.855469 224.523438 L 344.785156 223.578125 L 343.730469 222.613281 L 342.695312 221.628906 L 341.675781 220.628906 L 340.675781 219.609375 L 339.691406 218.574219 L 338.726562 217.523438 L 337.78125 216.453125 L 336.855469 215.367188 L 335.945312 214.265625 L 335.058594 213.148438 L 334.1875 212.015625 L 333.339844 210.867188 L 332.507812 209.703125 L 331.699219 208.527344 L 330.914062 207.335938 L 330.144531 206.132812 L 329.398438 204.914062 L 328.675781 203.683594 L 327.972656 202.441406 L 327.289062 201.1875 L 326.628906 199.917969 L 325.992188 198.640625 L 325.378906 197.351562 L 324.785156 196.054688 L 324.21875 194.742188 L 323.671875 193.425781 L 323.148438 192.097656 L 322.648438 190.757812 L 322.171875 189.414062 L 321.71875 188.058594 L 321.289062 186.695312 L 320.882812 185.328125 L 320.5 183.953125 L 320.144531 182.570312 L 319.808594 181.179688 L 319.5 179.785156 L 319.214844 178.386719 L 318.957031 176.984375 L 318.71875 175.574219 L 318.507812 174.160156 L 318.324219 172.746094 L 318.160156 171.328125 L 318.023438 169.90625 L 317.914062 168.484375 L 317.824219 167.058594 L 317.761719 165.628906 L 317.726562 164.203125 L 317.714844 162.773438 L 317.726562 161.347656 L 317.761719 159.917969 L 317.824219 158.492188 L 317.914062 157.066406 L 318.023438 155.644531 L 318.160156 154.222656 L 318.324219 152.804688 L 318.507812 151.386719 L 318.71875 149.976562 L 318.957031 148.566406 L 319.214844 147.164062 L 319.5 145.765625 L 319.808594 144.371094 L 320.144531 142.980469 L 320.5 141.597656 L 320.882812 140.222656 L 321.289062 138.855469 L 321.71875 137.492188 L 322.171875 136.136719 L 322.648438 134.792969 L 323.148438 133.453125 L 323.671875 132.125 L 324.21875 130.804688 L 324.785156 129.496094 L 325.378906 128.195312 L 325.992188 126.910156 L 326.628906 125.628906 L 327.289062 124.363281 L 327.972656 123.109375 L 328.675781 121.867188 L 329.398438 120.636719 L 330.144531 119.417969 L 330.914062 118.214844 L 331.699219 117.023438 L 332.507812 115.847656 L 333.339844 114.683594 L 334.1875 113.535156 L 335.058594 112.402344 L 335.945312 111.285156 L 336.855469 110.183594 L 337.78125 109.097656 L 338.726562 108.027344 L 339.691406 106.976562 L 340.675781 105.9375 L 341.675781 104.921875 L 342.695312 103.921875 L 343.730469 102.9375 L 344.785156 101.972656 L 345.855469 101.027344 L 346.9375 100.097656 L 348.042969 99.191406 L 349.160156 98.300781 L 350.292969 97.433594 L 351.441406 96.582031 L 352.601562 95.753906 L 353.777344 94.945312 L 354.96875 94.15625 L 356.175781 93.390625 L 357.390625 92.644531 L 358.621094 91.917969 L 359.863281 91.214844 L 361.121094 90.535156 L 362.386719 89.875 L 363.664062 89.238281 L 364.953125 88.621094 L 366.253906 88.03125 L 367.5625 87.460938 L 368.882812 86.914062 L 370.210938 86.390625 L 371.546875 85.890625 L 372.894531 85.414062 L 374.246094 84.960938 L 375.609375 84.53125 L 376.980469 84.125 L 378.355469 83.746094 L 379.738281 83.386719 L 381.125 83.054688 L 382.519531 82.746094 L 383.917969 82.460938 L 385.324219 82.199219 L 386.730469 81.964844 L 388.144531 81.753906 L 389.558594 81.566406 L 390.980469 81.40625 L 392.398438 81.269531 L 393.824219 81.15625 L 395.25 81.070312 L 396.675781 81.007812 L 398.101562 80.96875 Z M 399.53125 80.957031 "/>
<path style="fill-rule:nonzero;fill:rgb(90.196078%,25.490196%,45.098039%);fill-opacity:0.298039;stroke-width:1.600468;stroke-linecap:round;stroke-linejoin:round;stroke:rgb(90.196078%,25.490196%,45.098039%);stroke-opacity:1;stroke-miterlimit:10;" d="M 339.242188 218.757812 L 340.222656 218.765625 L 341.199219 218.789062 L 342.175781 218.832031 L 343.148438 218.890625 L 344.125 218.96875 L 345.09375 219.0625 L 346.066406 219.171875 L 347.035156 219.300781 L 348 219.445312 L 348.964844 219.605469 L 349.925781 219.785156 L 350.882812 219.980469 L 351.835938 220.191406 L 352.785156 220.417969 L 353.734375 220.664062 L 354.675781 220.925781 L 355.609375 221.203125 L 356.542969 221.496094 L 357.46875 221.804688 L 358.390625 222.132812 L 359.304688 222.472656 L 360.214844 222.832031 L 361.117188 223.207031 L 362.011719 223.597656 L 362.902344 224 L 363.785156 224.421875 L 364.660156 224.859375 L 365.527344 225.308594 L 366.382812 225.773438 L 367.234375 226.257812 L 368.078125 226.75 L 368.910156 227.261719 L 369.734375 227.789062 L 370.546875 228.328125 L 371.351562 228.878906 L 372.148438 229.449219 L 372.933594 230.027344 L 373.710938 230.625 L 374.472656 231.230469 L 375.226562 231.851562 L 375.972656 232.488281 L 376.703125 233.136719 L 377.421875 233.796875 L 378.132812 234.46875 L 378.828125 235.152344 L 379.511719 235.847656 L 380.1875 236.558594 L 380.847656 237.277344 L 381.492188 238.011719 L 382.128906 238.753906 L 382.75 239.507812 L 383.359375 240.273438 L 383.953125 241.046875 L 384.535156 241.832031 L 385.101562 242.628906 L 385.652344 243.433594 L 386.195312 244.246094 L 386.71875 245.070312 L 387.230469 245.90625 L 387.726562 246.746094 L 388.207031 247.597656 L 388.671875 248.457031 L 389.125 249.320312 L 389.558594 250.195312 L 389.980469 251.078125 L 390.386719 251.96875 L 390.773438 252.863281 L 391.148438 253.765625 L 391.507812 254.675781 L 391.847656 255.589844 L 392.175781 256.511719 L 392.484375 257.4375 L 392.777344 258.371094 L 393.054688 259.304688 L 393.316406 260.246094 L 393.5625 261.195312 L 393.789062 262.144531 L 394 263.097656 L 394.195312 264.054688 L 394.375 265.015625 L 394.535156 265.980469 L 394.679688 266.945312 L 394.808594 267.914062 L 394.917969 268.886719 L 395.011719 269.859375 L 395.089844 270.832031 L 395.148438 271.808594 L 395.191406 272.78125 L 395.214844 273.761719 L 395.226562 274.738281 L 395.214844 275.714844 L 395.191406 276.691406 L 395.148438 277.667969 L 395.089844 278.640625 L 395.011719 279.617188 L 394.917969 280.589844 L 394.808594 281.558594 L 394.679688 282.527344 L 394.535156 283.496094 L 394.375 284.457031 L 394.195312 285.417969 L 394 286.375 L 393.789062 287.328125 L 393.5625 288.28125 L 393.316406 289.226562 L 393.054688 290.167969 L 392.777344 291.105469 L 392.484375 292.035156 L 392.175781 292.960938 L 391.847656 293.882812 L 391.507812 294.796875 L 391.148438 295.707031 L 390.773438 296.609375 L 390.386719 297.507812 L 389.980469 298.394531 L 389.558594 299.277344 L 389.125 300.152344 L 388.671875 301.019531 L 388.207031 301.875 L 387.726562 302.726562 L 387.230469 303.570312 L 386.71875 304.402344 L 386.195312 305.226562 L 385.652344 306.039062 L 385.101562 306.847656 L 384.535156 307.640625 L 383.953125 308.425781 L 383.359375 309.203125 L 382.75 309.964844 L 382.128906 310.71875 L 381.492188 311.464844 L 380.847656 312.195312 L 380.1875 312.914062 L 379.511719 313.625 L 378.828125 314.320312 L 378.132812 315.007812 L 377.421875 315.679688 L 376.703125 316.339844 L 375.972656 316.984375 L 375.226562 317.621094 L 374.472656 318.242188 L 373.710938 318.851562 L 372.933594 319.445312 L 372.148438 320.027344 L 371.351562 320.59375 L 370.546875 321.148438 L 369.734375 321.6875 L 368.910156 322.210938 L 368.078125 322.722656 L 367.234375 323.21875 L 366.382812 323.699219 L 365.527344 324.164062 L 364.660156 324.617188 L 363.785156 325.050781 L 362.902344 325.472656 L 362.011719 325.878906 L 361.117188 326.265625 L 360.214844 326.640625 L 359.304688 327 L 358.390625 327.339844 L 357.46875 327.667969 L 356.542969 327.976562 L 355.609375 328.273438 L 354.675781 328.550781 L 353.734375 328.808594 L 352.785156 329.054688 L 351.835938 329.28125 L 350.882812 329.496094 L 349.925781 329.6875 L 348.964844 329.867188 L 348 330.027344 L 347.035156 330.171875 L 346.066406 330.300781 L 345.09375 330.410156 L 344.125 330.503906 L 343.148438 330.582031 L 342.175781 330.640625 L 341.199219 330.683594 L 340.222656 330.710938 L 339.242188 330.71875 L 338.265625 330.710938 L 337.289062 330.683594 L 336.3125 330.640625 L 335.339844 330.582031 L 334.363281 330.503906 L 333.390625 330.410156 L 332.421875 330.300781 L 331.453125 330.171875 L 330.488281 330.027344 L 329.523438 329.867188 L 328.5625 329.6875 L 327.605469 329.496094 L 326.652344 329.28125 L 325.699219 329.054688 L 324.753906 328.808594 L 323.8125 328.550781 L 322.875 328.273438 L 321.945312 327.976562 L 321.019531 327.667969 L 320.097656 327.339844 L 319.183594 327 L 318.273438 326.640625 L 317.371094 326.265625 L 316.472656 325.878906 L 315.585938 325.472656 L 314.703125 325.050781 L 313.828125 324.617188 L 312.960938 324.164062 L 312.105469 323.699219 L 311.253906 323.21875 L 310.410156 322.722656 L 309.578125 322.210938 L 308.753906 321.6875 L 307.941406 321.148438 L 307.132812 320.59375 L 306.339844 320.027344 L 305.554688 319.445312 L 304.777344 318.851562 L 304.015625 318.242188 L 303.261719 317.621094 L 302.515625 316.984375 L 301.785156 316.339844 L 301.066406 315.679688 L 300.355469 315.007812 L 299.660156 314.320312 L 298.976562 313.625 L 298.300781 312.914062 L 297.640625 312.195312 L 296.996094 311.464844 L 296.359375 310.71875 L 295.738281 309.964844 L 295.128906 309.203125 L 294.535156 308.425781 L 293.953125 307.640625 L 293.386719 306.847656 L 292.832031 306.039062 L 292.292969 305.226562 L 291.769531 304.402344 L 291.257812 303.570312 L 290.761719 302.726562 L 290.28125 301.875 L 289.816406 301.019531 L 289.363281 300.152344 L 288.929688 299.277344 L 288.507812 298.394531 L 288.101562 297.507812 L 287.714844 296.609375 L 287.339844 295.707031 L 286.980469 294.796875 L 286.640625 293.882812 L 286.3125 292.960938 L 286.003906 292.035156 L 285.710938 291.105469 L 285.433594 290.167969 L 285.171875 289.226562 L 284.925781 288.28125 L 284.699219 287.328125 L 284.488281 286.375 L 284.292969 285.417969 L 284.113281 284.457031 L 283.953125 283.496094 L 283.808594 282.527344 L 283.679688 281.558594 L 283.570312 280.589844 L 283.476562 279.617188 L 283.398438 278.640625 L 283.339844 277.667969 L 283.296875 276.691406 L 283.273438 275.714844 L 283.261719 274.738281 L 283.273438 273.761719 L 283.296875 272.78125 L 283.339844 271.808594 L 283.398438 270.832031 L 283.476562 269.859375 L 283.570312 268.886719 L 283.679688 267.914062 L 283.808594 266.945312 L 283.953125 265.980469 L 284.113281 265.015625 L 284.292969 264.054688 L 284.488281 263.097656 L 284.699219 262.144531 L 284.925781 261.195312 L 285.171875 260.246094 L 285.433594 259.304688 L 285.710938 258.371094 L 286.003906 257.4375 L 286.3125 256.511719 L 286.640625 255.589844 L 286.980469 254.675781 L 287.339844 253.765625 L 287.714844 252.863281 L 288.101562 251.96875 L 288.507812 251.078125 L 288.929688 250.195312 L 289.363281 249.320312 L 289.816406 248.457031 L 290.28125 247.597656 L 290.761719 246.746094 L 291.257812 245.90625 L 291.769531 245.070312 L 292.292969 244.246094 L 292.832031 243.433594 L 293.386719 242.628906 L 293.953125 241.832031 L 294.535156 241.046875 L 295.128906 240.273438 L 295.738281 239.507812 L 296.359375 238.753906 L 296.996094 238.011719 L 297.640625 237.277344 L 298.300781 236.558594 L 298.976562 235.847656 L 299.660156 235.152344 L 300.355469 234.46875 L 301.066406 233.796875 L 301.785156 233.136719 L 302.515625 232.488281 L 303.261719 231.851562 L 304.015625 231.230469 L 304.777344 230.625 L 305.554688 230.027344 L 306.339844 229.449219 L 307.132812 228.878906 L 307.941406 228.328125 L 308.753906 227.789062 L 309.578125 227.261719 L 310.410156 226.75 L 311.253906 226.257812 L 312.105469 225.773438 L 312.960938 225.308594 L 313.828125 224.859375 L 314.703125 224.421875 L 315.585938 224 L 316.472656 223.597656 L 317.371094 223.207031 L 318.273438 222.832031 L 319.183594 222.472656 L 320.097656 222.132812 L 321.019531 221.804688 L 321.945312 221.496094 L 322.875 221.203125 L 323.8125 220.925781 L 324.753906 220.664062 L 325.699219 220.417969 L 326.652344 220.191406 L 327.605469 219.980469 L 328.5625 219.785156 L 329.523438 219.605469 L 330.488281 219.445312 L 331.453125 219.300781 L 332.421875 219.171875 L 333.390625 219.0625 L 334.363281 218.96875 L 335.339844 218.890625 L 336.3125 218.832031 L 337.289062 218.789062 L 338.265625 218.765625 Z M 339.242188 218.757812 "/>
<path style=" stroke:none;fill-rule:nonzero;fill:rgb(100%,64.705882%,0%);fill-opacity:1;" d="M 400.707031 164.28125 L 400.707031 171.582031 L 398.332031 171.582031 L 398.332031 164.28125 L 391.554688 153.964844 L 394.179688 153.964844 L 399.542969 162.355469 L 404.882812 153.964844 L 407.507812 153.964844 Z M 400.707031 164.28125 "/>
<path style=" stroke:none;fill-rule:nonzero;fill:rgb(41.568627%,35.294118%,80.392157%);fill-opacity:1;" d="M 430.054688 332.851562 L 424.765625 325.152344 L 419.363281 332.851562 L 416.726562 332.851562 L 423.425781 323.699219 L 417.238281 315.234375 L 419.875 315.234375 L 424.777344 322.148438 L 429.542969 315.234375 L 432.179688 315.234375 L 426.152344 323.613281 L 432.691406 332.851562 Z M 430.054688 332.851562 "/>
<path style=" stroke:none;fill-rule:nonzero;fill:rgb(41.568627%,35.294118%,80.392157%);fill-opacity:1;" d="M 434.59375 337.585938 L 434.59375 336.25 L 437.738281 336.25 L 437.738281 326.761719 L 434.953125 328.746094 L 434.953125 327.261719 L 437.867188 325.253906 L 439.320312 325.253906 L 439.320312 336.25 L 442.324219 336.25 L 442.324219 337.585938 Z M 434.59375 337.585938 "/>
<path style=" stroke:none;fill-rule:nonzero;fill:rgb(98.431373%,38.039216%,2.745098%);fill-opacity:1;" d="M 468.808594 251.035156 L 463.519531 243.332031 L 458.121094 251.035156 L 455.480469 251.035156 L 462.183594 241.882812 L 455.992188 233.417969 L 458.632812 233.417969 L 463.535156 240.332031 L 468.296875 233.417969 L 470.9375 233.417969 L 464.910156 241.792969 L 471.449219 251.035156 Z M 468.808594 251.035156 "/>
<path style=" stroke:none;fill-rule:nonzero;fill:rgb(98.431373%,38.039216%,2.745098%);fill-opacity:1;" d="M 472.886719 255.769531 L 472.886719 254.65625 L 473.074219 254.257812 L 473.171875 254.066406 L 473.277344 253.878906 L 473.382812 253.695312 L 473.492188 253.515625 L 473.605469 253.34375 L 473.726562 253.175781 L 473.847656 253.011719 L 473.972656 252.855469 L 474.101562 252.699219 L 474.234375 252.546875 L 474.5 252.25 L 474.636719 252.105469 L 474.773438 251.964844 L 474.910156 251.828125 L 475.046875 251.695312 L 475.328125 251.4375 L 475.472656 251.308594 L 475.613281 251.183594 L 475.894531 250.941406 L 476.175781 250.707031 L 476.3125 250.589844 L 476.453125 250.476562 L 476.589844 250.363281 L 476.730469 250.253906 L 476.867188 250.148438 L 477.003906 250.039062 L 477.269531 249.820312 L 477.394531 249.714844 L 477.519531 249.605469 L 477.761719 249.386719 L 477.875 249.277344 L 477.992188 249.171875 L 478.101562 249.0625 L 478.207031 248.949219 L 478.308594 248.839844 L 478.496094 248.613281 L 478.667969 248.386719 L 478.746094 248.269531 L 478.820312 248.152344 L 478.890625 248.03125 L 478.957031 247.910156 L 479.019531 247.789062 L 479.070312 247.660156 L 479.117188 247.53125 L 479.15625 247.398438 L 479.1875 247.261719 L 479.210938 247.121094 L 479.226562 246.980469 L 479.238281 246.832031 L 479.242188 246.683594 L 479.242188 246.582031 L 479.234375 246.480469 L 479.226562 246.382812 L 479.214844 246.285156 L 479.203125 246.191406 L 479.164062 246.011719 L 479.140625 245.929688 L 479.113281 245.84375 L 479.085938 245.765625 L 479.015625 245.609375 L 478.976562 245.535156 L 478.9375 245.464844 L 478.890625 245.394531 L 478.84375 245.328125 L 478.796875 245.265625 L 478.6875 245.148438 L 478.628906 245.089844 L 478.570312 245.039062 L 478.503906 244.988281 L 478.441406 244.941406 L 478.300781 244.855469 L 478.226562 244.816406 L 478.152344 244.78125 L 478.074219 244.746094 L 477.996094 244.714844 L 477.910156 244.6875 L 477.828125 244.664062 L 477.742188 244.636719 L 477.65625 244.617188 L 477.566406 244.597656 L 477.476562 244.582031 L 477.382812 244.570312 L 477.289062 244.5625 L 477.191406 244.554688 L 477.09375 244.550781 L 476.898438 244.550781 L 476.804688 244.554688 L 476.714844 244.5625 L 476.621094 244.570312 L 476.53125 244.582031 L 476.445312 244.597656 L 476.355469 244.613281 L 476.269531 244.632812 L 476.183594 244.65625 L 476.101562 244.679688 L 476.019531 244.707031 L 475.9375 244.738281 L 475.859375 244.769531 L 475.785156 244.804688 L 475.710938 244.84375 L 475.636719 244.886719 L 475.496094 244.972656 L 475.363281 245.074219 L 475.238281 245.183594 L 475.179688 245.242188 L 475.125 245.304688 L 475.015625 245.4375 L 474.96875 245.507812 L 474.917969 245.578125 L 474.875 245.652344 L 474.832031 245.730469 L 474.792969 245.808594 L 474.753906 245.890625 L 474.722656 245.972656 L 474.691406 246.058594 L 474.664062 246.148438 L 474.640625 246.238281 L 474.617188 246.335938 L 474.597656 246.429688 L 474.566406 246.632812 L 472.957031 246.484375 L 472.996094 246.21875 L 473.023438 246.089844 L 473.054688 245.964844 L 473.089844 245.835938 L 473.128906 245.714844 L 473.171875 245.589844 L 473.21875 245.46875 L 473.269531 245.351562 L 473.324219 245.230469 L 473.449219 245.003906 L 473.589844 244.785156 L 473.667969 244.683594 L 473.75 244.582031 L 473.835938 244.484375 L 473.925781 244.386719 L 474.121094 244.207031 L 474.332031 244.035156 L 474.445312 243.957031 L 474.558594 243.882812 L 474.679688 243.808594 L 474.929688 243.675781 L 475.0625 243.617188 L 475.199219 243.558594 L 475.339844 243.507812 L 475.484375 243.460938 L 475.632812 243.414062 L 475.789062 243.378906 L 475.949219 243.34375 L 476.109375 243.316406 L 476.277344 243.292969 L 476.449219 243.277344 L 476.625 243.265625 L 476.808594 243.257812 L 476.992188 243.253906 L 477.175781 243.253906 L 477.351562 243.261719 L 477.527344 243.273438 L 477.695312 243.289062 L 477.859375 243.308594 L 478.023438 243.332031 L 478.179688 243.359375 L 478.335938 243.394531 L 478.484375 243.429688 L 478.628906 243.472656 L 478.769531 243.519531 L 478.90625 243.566406 L 479.039062 243.621094 L 479.167969 243.679688 L 479.289062 243.742188 L 479.410156 243.8125 L 479.523438 243.882812 L 479.632812 243.957031 L 479.738281 244.035156 L 479.933594 244.207031 L 480.027344 244.300781 L 480.113281 244.394531 L 480.199219 244.496094 L 480.277344 244.597656 L 480.351562 244.707031 L 480.484375 244.933594 L 480.542969 245.054688 L 480.597656 245.179688 L 480.648438 245.308594 L 480.691406 245.4375 L 480.734375 245.574219 L 480.796875 245.855469 L 480.820312 246.003906 L 480.835938 246.15625 L 480.851562 246.3125 L 480.859375 246.46875 L 480.859375 246.753906 L 480.851562 246.878906 L 480.839844 247 L 480.824219 247.121094 L 480.804688 247.238281 L 480.75 247.472656 L 480.714844 247.585938 L 480.675781 247.699219 L 480.589844 247.925781 L 480.488281 248.144531 L 480.433594 248.253906 L 480.375 248.359375 L 480.3125 248.46875 L 480.25 248.570312 L 480.183594 248.675781 L 480.113281 248.78125 L 479.964844 248.984375 L 479.886719 249.082031 L 479.808594 249.183594 L 479.726562 249.28125 L 479.554688 249.476562 L 479.464844 249.574219 L 479.371094 249.671875 L 479.179688 249.863281 L 478.984375 250.050781 L 478.78125 250.238281 L 478.679688 250.328125 L 478.578125 250.421875 L 478.472656 250.515625 L 478.367188 250.605469 L 478.261719 250.699219 L 478.050781 250.878906 L 477.941406 250.96875 L 477.835938 251.058594 L 477.726562 251.148438 L 477.621094 251.234375 L 477.511719 251.324219 L 477.40625 251.414062 L 477.078125 251.683594 L 476.972656 251.769531 L 476.867188 251.859375 L 476.761719 251.945312 L 476.65625 252.035156 L 476.550781 252.121094 L 476.449219 252.210938 L 476.351562 252.300781 L 476.25 252.386719 L 476.054688 252.566406 L 475.960938 252.65625 L 475.691406 252.925781 L 475.605469 253.015625 L 475.523438 253.109375 L 475.441406 253.199219 L 475.363281 253.292969 L 475.285156 253.382812 L 475.207031 253.476562 L 475.132812 253.566406 L 475.0625 253.660156 L 474.996094 253.753906 L 474.871094 253.941406 L 474.761719 254.136719 L 474.710938 254.234375 L 474.664062 254.332031 L 474.621094 254.429688 L 481.054688 254.429688 L 481.054688 255.769531 Z M 472.886719 255.769531 "/>
<path style=" stroke:none;fill-rule:nonzero;fill:rgb(60%,60%,60%);fill-opacity:1;" d="M 356.847656 74.390625 L 351.558594 66.691406 L 346.15625 74.390625 L 343.519531 74.390625 L 350.222656 65.238281 L 344.03125 56.773438 L 346.671875 56.773438 L 351.570312 63.6875 L 356.335938 56.773438 L 358.972656 56.773438 L 352.945312 65.152344 L 359.488281 74.390625 Z M 356.847656 74.390625 "/>
<path style=" stroke:none;fill-rule:nonzero;fill:rgb(60%,60%,60%);fill-opacity:1;" d="M 369.207031 75.722656 L 369.203125 75.890625 L 369.195312 76.054688 L 369.179688 76.214844 L 369.160156 76.371094 L 369.136719 76.527344 L 369.105469 76.675781 L 369.070312 76.820312 L 369.027344 76.964844 L 368.980469 77.101562 L 368.925781 77.238281 L 368.867188 77.367188 L 368.804688 77.496094 L 368.738281 77.617188 L 368.667969 77.738281 L 368.589844 77.851562 L 368.417969 78.070312 L 368.324219 78.171875 L 368.121094 78.367188 L 368.011719 78.453125 L 367.898438 78.539062 L 367.78125 78.621094 L 367.660156 78.695312 L 367.53125 78.769531 L 367.394531 78.835938 L 367.257812 78.898438 L 367.113281 78.960938 L 366.960938 79.015625 L 366.808594 79.066406 L 366.488281 79.152344 L 366.320312 79.1875 L 366.148438 79.21875 L 365.972656 79.242188 L 365.789062 79.265625 L 365.605469 79.28125 L 365.414062 79.292969 L 365.222656 79.300781 L 364.796875 79.300781 L 364.578125 79.289062 L 364.367188 79.277344 L 364.164062 79.257812 L 363.964844 79.230469 L 363.773438 79.203125 L 363.59375 79.164062 L 363.417969 79.121094 L 363.25 79.074219 L 363.085938 79.023438 L 362.933594 78.960938 L 362.785156 78.898438 L 362.644531 78.832031 L 362.507812 78.761719 L 362.375 78.691406 L 362.25 78.613281 L 362.128906 78.53125 L 362.015625 78.449219 L 361.90625 78.359375 L 361.800781 78.269531 L 361.703125 78.171875 L 361.609375 78.074219 L 361.519531 77.976562 L 361.355469 77.765625 L 361.214844 77.546875 L 361.152344 77.433594 L 361.09375 77.320312 L 361.039062 77.203125 L 360.992188 77.082031 L 360.945312 76.957031 L 360.902344 76.835938 L 360.863281 76.710938 L 360.828125 76.589844 L 360.796875 76.464844 L 360.769531 76.339844 L 360.746094 76.210938 L 360.722656 76.085938 L 360.707031 75.957031 L 362.335938 75.808594 L 362.367188 76.003906 L 362.386719 76.097656 L 362.433594 76.277344 L 362.460938 76.367188 L 362.488281 76.453125 L 362.519531 76.539062 L 362.589844 76.703125 L 362.628906 76.78125 L 362.671875 76.859375 L 362.714844 76.933594 L 362.765625 77.007812 L 362.8125 77.078125 L 362.921875 77.210938 L 362.980469 77.273438 L 363.042969 77.335938 L 363.105469 77.394531 L 363.171875 77.449219 L 363.242188 77.503906 L 363.3125 77.554688 L 363.386719 77.605469 L 363.464844 77.648438 L 363.546875 77.695312 L 363.71875 77.773438 L 363.808594 77.808594 L 363.996094 77.871094 L 364.097656 77.898438 L 364.199219 77.921875 L 364.308594 77.941406 L 364.417969 77.957031 L 364.53125 77.972656 L 364.648438 77.984375 L 364.769531 77.992188 L 364.894531 77.996094 L 365.023438 78 L 365.253906 77.992188 L 365.476562 77.972656 L 365.691406 77.945312 L 365.890625 77.902344 L 366.082031 77.851562 L 366.265625 77.785156 L 366.433594 77.710938 L 366.597656 77.621094 L 366.746094 77.523438 L 366.886719 77.410156 L 367.015625 77.289062 L 367.132812 77.15625 L 367.234375 77.007812 L 367.324219 76.851562 L 367.398438 76.683594 L 367.460938 76.503906 L 367.507812 76.3125 L 367.542969 76.109375 L 367.5625 75.894531 L 367.570312 75.667969 L 367.566406 75.535156 L 367.558594 75.40625 L 367.542969 75.285156 L 367.519531 75.167969 L 367.492188 75.054688 L 367.457031 74.949219 L 367.417969 74.847656 L 367.371094 74.75 L 367.320312 74.660156 L 367.261719 74.574219 L 367.203125 74.492188 L 367.136719 74.414062 L 367.070312 74.339844 L 367 74.269531 L 366.925781 74.203125 L 366.847656 74.140625 L 366.769531 74.082031 L 366.6875 74.027344 L 366.597656 73.976562 L 366.511719 73.929688 L 366.417969 73.882812 L 366.328125 73.839844 L 366.234375 73.800781 L 366.140625 73.765625 L 366.042969 73.730469 L 365.941406 73.703125 L 365.84375 73.675781 L 365.738281 73.652344 L 365.636719 73.628906 L 365.425781 73.597656 L 365.121094 73.5625 L 365.023438 73.554688 L 364.929688 73.546875 L 364.832031 73.542969 L 364.738281 73.539062 L 364.648438 73.535156 L 363.664062 73.535156 L 363.664062 72.167969 L 364.613281 72.167969 L 364.792969 72.160156 L 364.886719 72.15625 L 364.976562 72.148438 L 365.257812 72.113281 L 365.355469 72.097656 L 365.449219 72.082031 L 365.546875 72.0625 L 365.640625 72.039062 L 365.730469 72.011719 L 365.910156 71.949219 L 366.082031 71.878906 L 366.246094 71.792969 L 366.324219 71.75 L 366.40625 71.699219 L 366.480469 71.644531 L 366.554688 71.585938 L 366.625 71.527344 L 366.691406 71.460938 L 366.753906 71.394531 L 366.816406 71.324219 L 366.875 71.25 L 366.984375 71.09375 L 367.03125 71.007812 L 367.078125 70.917969 L 367.117188 70.824219 L 367.152344 70.726562 L 367.179688 70.625 L 367.203125 70.515625 L 367.222656 70.40625 L 367.234375 70.289062 L 367.242188 70.167969 L 367.246094 70.042969 L 367.238281 69.847656 L 367.222656 69.664062 L 367.191406 69.488281 L 367.152344 69.316406 L 367.097656 69.15625 L 367.035156 69.007812 L 366.957031 68.863281 L 366.871094 68.726562 L 366.769531 68.601562 L 366.660156 68.484375 L 366.539062 68.375 L 366.40625 68.277344 L 366.261719 68.1875 L 366.105469 68.113281 L 365.9375 68.050781 L 365.761719 68 L 365.570312 67.957031 L 365.371094 67.929688 L 365.15625 67.914062 L 364.933594 67.90625 L 364.730469 67.910156 L 364.535156 67.925781 L 364.34375 67.953125 L 364.164062 67.992188 L 363.992188 68.039062 L 363.828125 68.097656 L 363.667969 68.167969 L 363.519531 68.25 L 363.378906 68.339844 L 363.246094 68.441406 L 363.121094 68.550781 L 363.011719 68.671875 L 362.910156 68.800781 L 362.820312 68.9375 L 362.738281 69.082031 L 362.671875 69.238281 L 362.613281 69.402344 L 362.566406 69.574219 L 362.527344 69.753906 L 362.5 69.945312 L 360.917969 69.824219 L 360.9375 69.664062 L 360.964844 69.507812 L 360.996094 69.355469 L 361.035156 69.207031 L 361.078125 69.0625 L 361.125 68.921875 L 361.175781 68.785156 L 361.234375 68.65625 L 361.296875 68.527344 L 361.363281 68.40625 L 361.433594 68.285156 L 361.511719 68.171875 L 361.589844 68.0625 L 361.671875 67.957031 L 361.757812 67.855469 L 361.851562 67.757812 L 361.945312 67.664062 L 362.042969 67.574219 L 362.140625 67.488281 L 362.246094 67.40625 L 362.359375 67.328125 L 362.46875 67.253906 L 362.585938 67.183594 L 362.707031 67.117188 L 362.828125 67.058594 L 362.953125 67 L 363.082031 66.945312 L 363.210938 66.898438 L 363.34375 66.851562 L 363.480469 66.8125 L 363.621094 66.773438 L 363.761719 66.738281 L 363.90625 66.710938 L 364.046875 66.683594 L 364.195312 66.660156 L 364.492188 66.628906 L 364.644531 66.617188 L 364.796875 66.613281 L 364.953125 66.609375 L 365.15625 66.613281 L 365.355469 66.621094 L 365.546875 66.632812 L 365.730469 66.652344 L 365.914062 66.675781 L 366.257812 66.738281 L 366.417969 66.777344 L 366.578125 66.824219 L 366.730469 66.875 L 366.875 66.925781 L 367.015625 66.984375 L 367.152344 67.042969 L 367.28125 67.109375 L 367.40625 67.175781 L 367.523438 67.246094 L 367.636719 67.324219 L 367.746094 67.402344 L 367.847656 67.488281 L 367.945312 67.574219 L 368.039062 67.664062 L 368.125 67.753906 L 368.207031 67.851562 L 368.28125 67.949219 L 368.355469 68.050781 L 368.421875 68.15625 L 368.484375 68.261719 L 368.539062 68.375 L 368.589844 68.488281 L 368.636719 68.605469 L 368.679688 68.726562 L 368.71875 68.847656 L 368.753906 68.972656 L 368.78125 69.09375 L 368.808594 69.222656 L 368.828125 69.347656 L 368.84375 69.476562 L 368.855469 69.609375 L 368.863281 69.742188 L 368.863281 69.984375 L 368.859375 70.089844 L 368.851562 70.195312 L 368.839844 70.296875 L 368.828125 70.402344 L 368.8125 70.5 L 368.792969 70.601562 L 368.769531 70.699219 L 368.742188 70.796875 L 368.714844 70.890625 L 368.683594 70.984375 L 368.648438 71.078125 L 368.613281 71.164062 L 368.570312 71.253906 L 368.523438 71.339844 L 368.476562 71.421875 L 368.425781 71.503906 L 368.371094 71.585938 L 368.3125 71.664062 L 368.1875 71.8125 L 368.117188 71.886719 L 368.046875 71.957031 L 367.972656 72.023438 L 367.894531 72.089844 L 367.8125 72.152344 L 367.726562 72.214844 L 367.636719 72.273438 L 367.542969 72.332031 L 367.347656 72.441406 L 367.246094 72.492188 L 367.140625 72.539062 L 366.914062 72.625 L 366.796875 72.664062 L 366.675781 72.703125 L 366.546875 72.738281 L 366.417969 72.769531 L 366.28125 72.800781 L 366.28125 72.835938 L 366.429688 72.851562 L 366.574219 72.871094 L 366.847656 72.925781 L 366.976562 72.957031 L 367.105469 72.996094 L 367.230469 73.035156 L 367.347656 73.078125 L 367.464844 73.125 L 367.578125 73.175781 L 367.6875 73.226562 L 367.789062 73.28125 L 367.890625 73.339844 L 367.988281 73.398438 L 368.082031 73.460938 L 368.171875 73.527344 L 368.253906 73.59375 L 368.335938 73.664062 L 368.414062 73.738281 L 368.488281 73.8125 L 368.558594 73.890625 L 368.625 73.972656 L 368.6875 74.054688 L 368.746094 74.140625 L 368.800781 74.226562 L 368.851562 74.3125 L 368.898438 74.40625 L 368.945312 74.496094 L 369.023438 74.691406 L 369.058594 74.789062 L 369.089844 74.886719 L 369.117188 74.988281 L 369.140625 75.089844 L 369.160156 75.191406 L 369.175781 75.296875 L 369.199219 75.507812 L 369.203125 75.613281 Z M 369.207031 75.722656 "/>
<path style=" stroke:none;fill-rule:nonzero;fill:rgb(90.196078%,25.490196%,45.098039%);fill-opacity:1;" d="M 281.671875 283.546875 L 267.640625 283.546875 L 267.640625 281.757812 L 278.371094 267.878906 L 268.554688 267.878906 L 268.554688 265.929688 L 281.082031 265.929688 L 281.082031 267.667969 L 270.355469 281.59375 L 281.671875 281.59375 Z M 281.671875 283.546875 "/>
<path style=" stroke:none;fill-rule:nonzero;fill:rgb(0%,0%,0%);fill-opacity:1;" d="M 167.675781 13.050781 L 167.675781 20.328125 L 178.597656 20.328125 L 178.597656 22.523438 L 167.675781 22.523438 L 167.675781 30.457031 L 165.023438 30.457031 L 165.023438 10.882812 L 178.929688 10.882812 L 178.929688 13.050781 Z M 167.675781 13.050781 "/>
<path style=" stroke:none;fill-rule:nonzero;fill:rgb(0%,0%,0%);fill-opacity:1;" d="M 181.972656 12.230469 L 181.972656 9.839844 L 184.472656 9.839844 L 184.472656 12.230469 Z M 181.972656 30.457031 L 181.972656 15.425781 L 184.472656 15.425781 L 184.472656 30.457031 Z M 181.972656 30.457031 "/>
<path style=" stroke:none;fill-rule:nonzero;fill:rgb(0%,0%,0%);fill-opacity:1;" d="M 194.003906 36.363281 L 193.75 36.359375 L 193.5 36.351562 L 193.253906 36.339844 L 193.015625 36.320312 L 192.785156 36.296875 L 192.558594 36.265625 L 192.335938 36.234375 L 191.914062 36.148438 L 191.710938 36.097656 L 191.515625 36.042969 L 191.324219 35.984375 L 191.136719 35.917969 L 190.957031 35.847656 L 190.785156 35.773438 L 190.617188 35.695312 L 190.453125 35.613281 L 190.296875 35.523438 L 190.148438 35.429688 L 190.003906 35.332031 L 189.863281 35.234375 L 189.730469 35.132812 L 189.601562 35.023438 L 189.476562 34.914062 L 189.359375 34.800781 L 189.246094 34.679688 L 189.140625 34.558594 L 189.039062 34.429688 L 188.941406 34.300781 L 188.847656 34.167969 L 188.761719 34.027344 L 188.679688 33.886719 L 188.605469 33.746094 L 188.535156 33.597656 L 188.46875 33.449219 L 188.40625 33.296875 L 188.347656 33.140625 L 188.296875 32.980469 L 188.25 32.816406 L 188.210938 32.652344 L 190.726562 32.292969 L 190.78125 32.496094 L 190.847656 32.6875 L 190.929688 32.871094 L 191.019531 33.046875 L 191.125 33.210938 L 191.238281 33.367188 L 191.367188 33.511719 L 191.507812 33.648438 L 191.660156 33.773438 L 191.824219 33.890625 L 192 33.996094 L 192.1875 34.09375 L 192.386719 34.179688 L 192.597656 34.253906 L 192.816406 34.316406 L 193.046875 34.367188 L 193.285156 34.40625 L 193.539062 34.4375 L 193.800781 34.453125 L 194.074219 34.457031 L 194.242188 34.457031 L 194.40625 34.449219 L 194.566406 34.4375 L 194.726562 34.421875 L 194.882812 34.398438 L 195.035156 34.375 L 195.183594 34.34375 L 195.332031 34.308594 L 195.476562 34.265625 L 195.617188 34.222656 L 195.753906 34.171875 L 195.886719 34.117188 L 196.011719 34.054688 L 196.136719 33.988281 L 196.257812 33.914062 L 196.375 33.832031 L 196.484375 33.75 L 196.59375 33.65625 L 196.695312 33.5625 L 196.796875 33.457031 L 196.890625 33.351562 L 196.980469 33.238281 L 197.066406 33.121094 L 197.148438 32.996094 L 197.226562 32.863281 L 197.300781 32.726562 L 197.367188 32.582031 L 197.433594 32.429688 L 197.492188 32.273438 L 197.546875 32.109375 L 197.597656 31.941406 L 197.640625 31.761719 L 197.679688 31.578125 L 197.714844 31.386719 L 197.746094 31.1875 L 197.769531 30.980469 L 197.785156 30.765625 L 197.800781 30.546875 L 197.808594 30.316406 L 197.808594 27.664062 L 197.78125 27.664062 L 197.726562 27.777344 L 197.601562 28.003906 L 197.539062 28.113281 L 197.398438 28.332031 L 197.25 28.550781 L 197.167969 28.65625 L 197.089844 28.761719 L 196.917969 28.964844 L 196.828125 29.0625 L 196.734375 29.15625 L 196.636719 29.25 L 196.535156 29.339844 L 196.429688 29.425781 L 196.320312 29.515625 L 196.207031 29.597656 L 196.085938 29.679688 L 195.96875 29.757812 L 195.847656 29.835938 L 195.589844 29.976562 L 195.457031 30.042969 L 195.316406 30.109375 L 195.175781 30.167969 L 195.03125 30.226562 L 194.878906 30.28125 L 194.726562 30.332031 L 194.566406 30.378906 L 194.40625 30.417969 L 194.238281 30.453125 L 194.066406 30.484375 L 193.890625 30.507812 L 193.710938 30.53125 L 193.527344 30.546875 L 193.339844 30.558594 L 193.144531 30.566406 L 192.949219 30.570312 L 192.664062 30.5625 L 192.390625 30.550781 L 192.125 30.527344 L 191.867188 30.492188 L 191.617188 30.449219 L 191.375 30.398438 L 191.140625 30.335938 L 190.917969 30.265625 L 190.699219 30.1875 L 190.488281 30.097656 L 190.289062 29.996094 L 190.097656 29.882812 L 189.914062 29.761719 L 189.734375 29.632812 L 189.566406 29.492188 L 189.402344 29.34375 L 189.246094 29.183594 L 189.097656 29.015625 L 188.957031 28.839844 L 188.820312 28.652344 L 188.695312 28.453125 L 188.578125 28.25 L 188.46875 28.035156 L 188.363281 27.8125 L 188.265625 27.578125 L 188.175781 27.335938 L 188.089844 27.085938 L 188.011719 26.824219 L 187.941406 26.554688 L 187.875 26.277344 L 187.820312 25.984375 L 187.773438 25.683594 L 187.726562 25.378906 L 187.691406 25.058594 L 187.65625 24.734375 L 187.632812 24.398438 L 187.613281 24.054688 L 187.597656 23.703125 L 187.589844 23.339844 L 187.585938 22.96875 L 187.589844 22.613281 L 187.597656 22.261719 L 187.613281 21.917969 L 187.632812 21.582031 L 187.65625 21.253906 L 187.691406 20.933594 L 187.726562 20.617188 L 187.773438 20.3125 L 187.820312 20.011719 L 187.875 19.71875 L 187.941406 19.433594 L 188.011719 19.15625 L 188.09375 18.890625 L 188.179688 18.632812 L 188.273438 18.382812 L 188.375 18.144531 L 188.480469 17.914062 L 188.597656 17.691406 L 188.71875 17.476562 L 188.847656 17.273438 L 188.988281 17.074219 L 189.136719 16.886719 L 189.292969 16.707031 L 189.457031 16.539062 L 189.628906 16.378906 L 189.804688 16.230469 L 189.992188 16.089844 L 190.1875 15.960938 L 190.390625 15.839844 L 190.601562 15.730469 L 190.820312 15.628906 L 191.050781 15.535156 L 191.292969 15.453125 L 191.539062 15.382812 L 191.796875 15.324219 L 192.066406 15.277344 L 192.339844 15.238281 L 192.628906 15.210938 L 192.921875 15.195312 L 193.226562 15.1875 L 193.539062 15.195312 L 193.847656 15.21875 L 194.144531 15.253906 L 194.433594 15.308594 L 194.714844 15.375 L 194.988281 15.453125 L 195.25 15.550781 L 195.507812 15.660156 L 195.753906 15.785156 L 195.992188 15.925781 L 196.222656 16.074219 L 196.441406 16.238281 L 196.648438 16.414062 L 196.847656 16.601562 L 197.035156 16.804688 L 197.210938 17.015625 L 197.378906 17.242188 L 197.53125 17.480469 L 197.675781 17.730469 L 197.808594 17.996094 L 197.839844 17.996094 L 197.839844 17.628906 L 197.84375 17.546875 L 197.84375 17.46875 L 197.847656 17.386719 L 197.847656 17.304688 L 197.851562 17.21875 L 197.859375 17.132812 L 197.863281 17.046875 L 197.878906 16.71875 L 197.886719 16.5625 L 197.890625 16.488281 L 197.894531 16.410156 L 197.898438 16.335938 L 197.90625 16.261719 L 197.910156 16.1875 L 197.914062 16.117188 L 197.921875 16.050781 L 197.925781 15.984375 L 197.933594 15.921875 L 197.9375 15.859375 L 197.945312 15.800781 L 197.953125 15.691406 L 197.960938 15.644531 L 197.964844 15.597656 L 197.972656 15.558594 L 197.976562 15.527344 L 197.984375 15.496094 L 197.988281 15.472656 L 197.992188 15.453125 L 198 15.4375 L 198.003906 15.425781 L 200.378906 15.425781 L 200.378906 15.453125 L 200.371094 15.515625 L 200.371094 15.554688 L 200.367188 15.59375 L 200.359375 15.6875 L 200.359375 15.742188 L 200.355469 15.796875 L 200.351562 15.855469 L 200.351562 15.914062 L 200.347656 15.976562 L 200.339844 16.109375 L 200.339844 16.179688 L 200.335938 16.25 L 200.332031 16.324219 L 200.332031 16.402344 L 200.328125 16.480469 L 200.324219 16.566406 L 200.320312 16.648438 L 200.320312 16.734375 L 200.3125 16.914062 L 200.3125 17.003906 L 200.308594 17.101562 L 200.304688 17.195312 L 200.304688 17.292969 L 200.296875 17.496094 L 200.296875 30.027344 L 200.28125 30.640625 L 200.234375 31.226562 L 200.15625 31.777344 L 200.046875 32.296875 L 199.90625 32.789062 L 199.738281 33.246094 L 199.535156 33.671875 L 199.300781 34.066406 L 199.035156 34.433594 L 198.742188 34.765625 L 198.417969 35.066406 L 198.058594 35.339844 L 197.667969 35.578125 L 197.242188 35.785156 L 196.785156 35.960938 L 196.296875 36.105469 L 195.773438 36.21875 L 195.214844 36.296875 L 194.625 36.347656 Z M 197.808594 22.941406 L 197.808594 22.632812 L 197.796875 22.332031 L 197.777344 22.039062 L 197.753906 21.757812 L 197.722656 21.484375 L 197.683594 21.222656 L 197.640625 20.96875 L 197.589844 20.722656 L 197.527344 20.488281 L 197.464844 20.261719 L 197.394531 20.039062 L 197.320312 19.828125 L 197.242188 19.621094 L 197.160156 19.425781 L 197.074219 19.238281 L 196.984375 19.058594 L 196.886719 18.890625 L 196.789062 18.726562 L 196.683594 18.570312 L 196.574219 18.425781 L 196.460938 18.289062 L 196.34375 18.15625 L 196.226562 18.035156 L 196.101562 17.917969 L 195.976562 17.8125 L 195.847656 17.710938 L 195.714844 17.617188 L 195.578125 17.53125 L 195.4375 17.453125 L 195.296875 17.382812 L 195.152344 17.320312 L 195.011719 17.265625 L 194.867188 17.214844 L 194.722656 17.171875 L 194.578125 17.132812 L 194.429688 17.105469 L 194.285156 17.082031 L 194.136719 17.0625 L 193.988281 17.054688 L 193.835938 17.050781 L 193.648438 17.054688 L 193.464844 17.0625 L 193.285156 17.082031 L 193.113281 17.105469 L 192.945312 17.132812 L 192.78125 17.171875 L 192.625 17.214844 L 192.472656 17.265625 L 192.324219 17.320312 L 192.183594 17.382812 L 192.050781 17.453125 L 191.921875 17.53125 L 191.796875 17.621094 L 191.675781 17.714844 L 191.558594 17.816406 L 191.445312 17.925781 L 191.339844 18.042969 L 191.238281 18.167969 L 191.136719 18.300781 L 191.042969 18.441406 L 190.957031 18.585938 L 190.875 18.738281 L 190.796875 18.902344 L 190.722656 19.074219 L 190.65625 19.253906 L 190.589844 19.441406 L 190.53125 19.636719 L 190.476562 19.839844 L 190.425781 20.054688 L 190.378906 20.273438 L 190.339844 20.5 L 190.300781 20.734375 L 190.269531 20.980469 L 190.246094 21.234375 L 190.222656 21.496094 L 190.203125 21.769531 L 190.1875 22.046875 L 190.175781 22.335938 L 190.171875 22.632812 L 190.167969 22.941406 L 190.171875 23.261719 L 190.175781 23.570312 L 190.1875 23.871094 L 190.203125 24.160156 L 190.222656 24.4375 L 190.246094 24.707031 L 190.269531 24.964844 L 190.300781 25.214844 L 190.339844 25.449219 L 190.378906 25.679688 L 190.425781 25.894531 L 190.476562 26.101562 L 190.53125 26.300781 L 190.589844 26.488281 L 190.65625 26.671875 L 190.722656 26.84375 L 190.796875 27.011719 L 190.875 27.167969 L 190.957031 27.316406 L 191.042969 27.457031 L 191.136719 27.589844 L 191.230469 27.714844 L 191.332031 27.828125 L 191.4375 27.9375 L 191.546875 28.039062 L 191.664062 28.132812 L 191.78125 28.21875 L 191.90625 28.296875 L 192.035156 28.367188 L 192.167969 28.429688 L 192.308594 28.484375 L 192.453125 28.535156 L 192.601562 28.578125 L 192.757812 28.617188 L 192.917969 28.648438 L 193.082031 28.675781 L 193.253906 28.695312 L 193.429688 28.710938 L 193.609375 28.71875 L 193.796875 28.722656 L 193.945312 28.71875 L 194.09375 28.707031 L 194.242188 28.691406 L 194.390625 28.667969 L 194.535156 28.640625 L 194.679688 28.605469 L 194.824219 28.5625 L 194.96875 28.515625 L 195.113281 28.460938 L 195.253906 28.402344 L 195.398438 28.332031 L 195.535156 28.257812 L 195.671875 28.175781 L 195.808594 28.085938 L 195.9375 27.988281 L 196.066406 27.882812 L 196.191406 27.769531 L 196.3125 27.648438 L 196.429688 27.523438 L 196.546875 27.386719 L 196.65625 27.242188 L 196.765625 27.09375 L 196.867188 26.933594 L 196.964844 26.765625 L 197.058594 26.589844 L 197.148438 26.410156 L 197.234375 26.21875 L 197.316406 26.019531 L 197.390625 25.808594 L 197.464844 25.59375 L 197.527344 25.371094 L 197.589844 25.136719 L 197.640625 24.894531 L 197.683594 24.644531 L 197.722656 24.382812 L 197.753906 24.113281 L 197.777344 23.832031 L 197.796875 23.546875 L 197.808594 23.246094 Z M 197.808594 22.941406 "/>
<path style=" stroke:none;fill-rule:nonzero;fill:rgb(0%,0%,0%);fill-opacity:1;" d="M 206.578125 15.425781 L 206.578125 25.171875 L 206.582031 25.378906 L 206.589844 25.582031 L 206.601562 25.777344 L 206.613281 25.964844 L 206.632812 26.144531 L 206.652344 26.316406 L 206.675781 26.480469 L 206.699219 26.640625 L 206.730469 26.789062 L 206.765625 26.933594 L 206.804688 27.074219 L 206.847656 27.207031 L 206.894531 27.335938 L 206.945312 27.457031 L 207 27.574219 L 207.058594 27.683594 L 207.121094 27.789062 L 207.1875 27.890625 L 207.257812 27.984375 L 207.332031 28.070312 L 207.410156 28.152344 L 207.496094 28.230469 L 207.582031 28.300781 L 207.675781 28.367188 L 207.769531 28.429688 L 207.871094 28.484375 L 207.976562 28.535156 L 208.085938 28.582031 L 208.203125 28.625 L 208.324219 28.65625 L 208.453125 28.6875 L 208.585938 28.714844 L 208.726562 28.738281 L 208.871094 28.757812 L 209.019531 28.773438 L 209.175781 28.789062 L 209.335938 28.796875 L 209.503906 28.800781 L 209.675781 28.804688 L 209.851562 28.800781 L 210.023438 28.792969 L 210.191406 28.777344 L 210.355469 28.753906 L 210.519531 28.726562 L 210.675781 28.695312 L 210.832031 28.65625 L 210.980469 28.609375 L 211.128906 28.554688 L 211.273438 28.5 L 211.414062 28.433594 L 211.550781 28.359375 L 211.6875 28.28125 L 211.816406 28.199219 L 211.941406 28.113281 L 212.058594 28.019531 L 212.175781 27.921875 L 212.394531 27.710938 L 212.496094 27.59375 L 212.59375 27.472656 L 212.691406 27.347656 L 212.78125 27.214844 L 212.867188 27.074219 L 212.949219 26.933594 L 213.027344 26.785156 L 213.167969 26.472656 L 213.230469 26.304688 L 213.285156 26.136719 L 213.339844 25.960938 L 213.386719 25.777344 L 213.429688 25.589844 L 213.464844 25.398438 L 213.496094 25.199219 L 213.519531 24.996094 L 213.539062 24.789062 L 213.554688 24.578125 L 213.5625 24.359375 L 213.566406 24.136719 L 213.566406 15.425781 L 216.066406 15.425781 L 216.066406 28.25 L 216.070312 28.351562 L 216.070312 28.453125 L 216.074219 28.554688 L 216.078125 28.652344 L 216.078125 28.753906 L 216.085938 28.949219 L 216.089844 29.042969 L 216.089844 29.140625 L 216.09375 29.234375 L 216.097656 29.324219 L 216.097656 29.414062 L 216.101562 29.5 L 216.105469 29.582031 L 216.105469 29.660156 L 216.113281 29.816406 L 216.117188 29.886719 L 216.117188 29.957031 L 216.121094 30.027344 L 216.125 30.089844 L 216.125 30.152344 L 216.128906 30.207031 L 216.136719 30.300781 L 216.136719 30.34375 L 216.140625 30.378906 L 216.144531 30.410156 L 216.144531 30.4375 L 216.148438 30.457031 L 213.789062 30.457031 L 213.785156 30.441406 L 213.78125 30.421875 L 213.777344 30.394531 L 213.777344 30.363281 L 213.773438 30.328125 L 213.769531 30.289062 L 213.769531 30.246094 L 213.765625 30.195312 L 213.761719 30.140625 L 213.757812 30.082031 L 213.757812 30.019531 L 213.753906 29.957031 L 213.746094 29.824219 L 213.734375 29.613281 L 213.726562 29.539062 L 213.722656 29.464844 L 213.714844 29.308594 L 213.710938 29.226562 L 213.710938 29.144531 L 213.707031 29.066406 L 213.699219 28.902344 L 213.699219 28.824219 L 213.695312 28.742188 L 213.691406 28.664062 L 213.691406 28.582031 L 213.6875 28.5 L 213.683594 28.421875 L 213.683594 28.34375 L 213.679688 28.269531 L 213.679688 28.132812 L 213.675781 28.066406 L 213.675781 27.886719 L 213.632812 27.886719 L 213.5625 28.015625 L 213.488281 28.144531 L 213.410156 28.269531 L 213.335938 28.390625 L 213.253906 28.507812 L 213.175781 28.625 L 213.011719 28.851562 L 212.929688 28.960938 L 212.84375 29.066406 L 212.753906 29.171875 L 212.664062 29.273438 L 212.570312 29.371094 L 212.476562 29.464844 L 212.378906 29.558594 L 212.277344 29.648438 L 212.171875 29.730469 L 212.066406 29.816406 L 211.953125 29.894531 L 211.84375 29.972656 L 211.726562 30.042969 L 211.609375 30.109375 L 211.359375 30.234375 L 211.230469 30.289062 L 211.097656 30.34375 L 210.964844 30.394531 L 210.683594 30.488281 L 210.386719 30.566406 L 210.230469 30.601562 L 210.074219 30.632812 L 209.910156 30.660156 L 209.742188 30.683594 L 209.566406 30.703125 L 209.390625 30.714844 L 209.207031 30.726562 L 209.019531 30.734375 L 208.828125 30.734375 L 208.582031 30.730469 L 208.339844 30.722656 L 208.109375 30.707031 L 207.882812 30.6875 L 207.664062 30.660156 L 207.453125 30.625 L 207.246094 30.585938 L 207.050781 30.539062 L 206.859375 30.488281 L 206.675781 30.429688 L 206.496094 30.363281 L 206.324219 30.292969 L 206.160156 30.214844 L 206.003906 30.132812 L 205.851562 30.039062 L 205.707031 29.941406 L 205.566406 29.839844 L 205.433594 29.726562 L 205.308594 29.609375 L 205.1875 29.484375 L 205.074219 29.351562 L 204.964844 29.214844 L 204.863281 29.070312 L 204.769531 28.914062 L 204.679688 28.753906 L 204.597656 28.589844 L 204.519531 28.414062 L 204.449219 28.230469 L 204.386719 28.042969 L 204.324219 27.84375 L 204.277344 27.640625 L 204.230469 27.429688 L 204.191406 27.210938 L 204.15625 26.980469 L 204.128906 26.746094 L 204.105469 26.5 L 204.085938 26.246094 L 204.074219 25.988281 L 204.066406 25.71875 L 204.0625 25.441406 L 204.0625 15.425781 Z M 206.578125 15.425781 "/>
<path style=" stroke:none;fill-rule:nonzero;fill:rgb(0%,0%,0%);fill-opacity:1;" d="M 220.011719 30.457031 L 220.011719 18.640625 L 220.007812 18.546875 L 220.007812 18.355469 L 220.003906 18.257812 L 220.003906 18.160156 L 220 18.066406 L 219.996094 17.96875 L 219.996094 17.574219 L 219.992188 17.476562 L 219.992188 17.289062 L 219.984375 17.101562 L 219.984375 17.007812 L 219.976562 16.828125 L 219.976562 16.738281 L 219.96875 16.566406 L 219.96875 16.480469 L 219.964844 16.394531 L 219.957031 16.230469 L 219.957031 16.148438 L 219.953125 16.066406 L 219.949219 15.988281 L 219.949219 15.914062 L 219.941406 15.765625 L 219.9375 15.695312 L 219.9375 15.625 L 219.933594 15.554688 L 219.929688 15.488281 L 219.929688 15.425781 L 222.289062 15.425781 L 222.292969 15.488281 L 222.296875 15.558594 L 222.296875 15.625 L 222.300781 15.695312 L 222.304688 15.769531 L 222.304688 15.84375 L 222.316406 16.078125 L 222.316406 16.160156 L 222.324219 16.242188 L 222.335938 16.488281 L 222.34375 16.570312 L 222.347656 16.65625 L 222.351562 16.738281 L 222.351562 16.824219 L 222.363281 17.082031 L 222.371094 17.167969 L 222.375 17.25 L 222.378906 17.335938 L 222.378906 17.417969 L 222.382812 17.503906 L 222.382812 17.585938 L 222.386719 17.667969 L 222.386719 17.828125 L 222.390625 17.90625 L 222.390625 17.980469 L 222.394531 18.050781 L 222.394531 18.121094 L 222.398438 18.191406 L 222.398438 18.378906 L 222.402344 18.4375 L 222.402344 18.496094 L 222.457031 18.496094 L 222.507812 18.324219 L 222.5625 18.160156 L 222.617188 18 L 222.671875 17.84375 L 222.726562 17.691406 L 222.785156 17.546875 L 222.839844 17.40625 L 222.898438 17.269531 L 222.953125 17.136719 L 223.011719 17.007812 L 223.074219 16.882812 L 223.136719 16.761719 L 223.203125 16.648438 L 223.273438 16.535156 L 223.34375 16.429688 L 223.414062 16.328125 L 223.488281 16.230469 L 223.5625 16.136719 L 223.640625 16.050781 L 223.804688 15.886719 L 223.886719 15.808594 L 224.066406 15.667969 L 224.160156 15.605469 L 224.257812 15.546875 L 224.359375 15.492188 L 224.464844 15.441406 L 224.570312 15.398438 L 224.679688 15.355469 L 224.792969 15.316406 L 224.910156 15.28125 L 225.035156 15.25 L 225.160156 15.222656 L 225.292969 15.199219 L 225.429688 15.179688 L 225.71875 15.15625 L 225.871094 15.148438 L 226.148438 15.148438 L 226.324219 15.160156 L 226.5 15.183594 L 226.554688 15.191406 L 226.609375 15.203125 L 226.664062 15.210938 L 226.765625 15.226562 L 226.8125 15.234375 L 226.855469 15.246094 L 226.898438 15.253906 L 226.976562 15.269531 L 227.007812 15.277344 L 227.042969 15.285156 L 227.042969 17.578125 L 226.992188 17.566406 L 226.9375 17.550781 L 226.882812 17.539062 L 226.828125 17.53125 L 226.769531 17.519531 L 226.710938 17.511719 L 226.648438 17.5 L 226.585938 17.496094 L 226.523438 17.488281 L 226.390625 17.472656 L 226.320312 17.464844 L 226.25 17.460938 L 226.175781 17.453125 L 226.027344 17.445312 L 225.949219 17.445312 L 225.871094 17.441406 L 225.707031 17.441406 L 225.539062 17.445312 L 225.371094 17.457031 L 225.214844 17.476562 L 225.058594 17.503906 L 224.910156 17.535156 L 224.765625 17.578125 L 224.625 17.628906 L 224.488281 17.6875 L 224.359375 17.753906 L 224.234375 17.828125 L 224.117188 17.910156 L 224.003906 17.996094 L 223.894531 18.089844 L 223.789062 18.1875 L 223.691406 18.292969 L 223.59375 18.40625 L 223.5 18.523438 L 223.414062 18.648438 L 223.328125 18.777344 L 223.25 18.914062 L 223.175781 19.050781 L 223.105469 19.195312 L 223.039062 19.347656 L 222.980469 19.5 L 222.921875 19.664062 L 222.867188 19.828125 L 222.820312 20 L 222.773438 20.179688 L 222.730469 20.363281 L 222.691406 20.550781 L 222.660156 20.742188 L 222.628906 20.9375 L 222.601562 21.136719 L 222.578125 21.335938 L 222.539062 21.75 L 222.527344 21.960938 L 222.519531 22.179688 L 222.515625 22.398438 L 222.511719 22.621094 L 222.511719 30.457031 Z M 220.011719 30.457031 "/>
<path style=" stroke:none;fill-rule:nonzero;fill:rgb(0%,0%,0%);fill-opacity:1;" d="M 233.265625 30.734375 L 232.824219 30.722656 L 232.40625 30.6875 L 232.007812 30.628906 L 231.632812 30.542969 L 231.28125 30.4375 L 230.953125 30.304688 L 230.644531 30.148438 L 230.363281 29.96875 L 230.101562 29.765625 L 229.863281 29.539062 L 229.644531 29.292969 L 229.453125 29.027344 L 229.28125 28.742188 L 229.132812 28.441406 L 229.007812 28.125 L 228.90625 27.785156 L 228.824219 27.433594 L 228.769531 27.058594 L 228.734375 26.667969 L 228.722656 26.261719 L 228.726562 25.96875 L 228.746094 25.6875 L 228.773438 25.417969 L 228.8125 25.160156 L 228.859375 24.910156 L 228.921875 24.671875 L 228.996094 24.445312 L 229.078125 24.230469 L 229.171875 24.023438 L 229.277344 23.832031 L 229.394531 23.644531 L 229.519531 23.464844 L 229.648438 23.292969 L 229.785156 23.128906 L 229.929688 22.976562 L 230.082031 22.832031 L 230.238281 22.691406 L 230.402344 22.5625 L 230.574219 22.441406 L 230.75 22.328125 L 230.9375 22.226562 L 231.128906 22.125 L 231.324219 22.035156 L 231.523438 21.949219 L 231.730469 21.871094 L 231.941406 21.800781 L 232.15625 21.734375 L 232.378906 21.675781 L 232.605469 21.625 L 232.835938 21.578125 L 233.066406 21.539062 L 233.304688 21.503906 L 233.773438 21.441406 L 234.25 21.394531 L 234.488281 21.375 L 234.726562 21.363281 L 234.96875 21.351562 L 235.210938 21.34375 L 238.585938 21.289062 L 238.585938 20.285156 L 238.578125 20.105469 L 238.570312 19.933594 L 238.539062 19.605469 L 238.492188 19.300781 L 238.460938 19.15625 L 238.429688 19.019531 L 238.390625 18.882812 L 238.351562 18.757812 L 238.304688 18.632812 L 238.257812 18.515625 L 238.203125 18.402344 L 238.144531 18.292969 L 238.082031 18.191406 L 238.015625 18.09375 L 237.945312 18 L 237.871094 17.910156 L 237.792969 17.828125 L 237.710938 17.75 L 237.625 17.675781 L 237.535156 17.605469 L 237.339844 17.480469 L 237.234375 17.425781 L 237.128906 17.375 L 237.015625 17.328125 L 236.898438 17.285156 L 236.78125 17.246094 L 236.660156 17.207031 L 236.402344 17.144531 L 236.128906 17.097656 L 235.984375 17.082031 L 235.835938 17.066406 L 235.683594 17.058594 L 235.523438 17.050781 L 235.21875 17.050781 L 235.078125 17.054688 L 234.941406 17.0625 L 234.675781 17.078125 L 234.546875 17.089844 L 234.417969 17.105469 L 234.296875 17.121094 L 234.175781 17.140625 L 234.058594 17.160156 L 233.941406 17.183594 L 233.828125 17.207031 L 233.722656 17.238281 L 233.613281 17.269531 L 233.511719 17.304688 L 233.410156 17.34375 L 233.316406 17.386719 L 233.222656 17.433594 L 233.128906 17.484375 L 233.042969 17.535156 L 232.957031 17.59375 L 232.878906 17.652344 L 232.800781 17.714844 L 232.726562 17.78125 L 232.652344 17.851562 L 232.585938 17.929688 L 232.523438 18.007812 L 232.460938 18.09375 L 232.402344 18.179688 L 232.347656 18.273438 L 232.296875 18.367188 L 232.25 18.464844 L 232.207031 18.570312 L 232.164062 18.679688 L 232.128906 18.792969 L 232.097656 18.914062 L 232.066406 19.039062 L 232.042969 19.167969 L 232.019531 19.300781 L 232 19.441406 L 229.390625 19.203125 L 229.417969 19.027344 L 229.453125 18.855469 L 229.496094 18.683594 L 229.539062 18.515625 L 229.589844 18.351562 L 229.644531 18.191406 L 229.769531 17.878906 L 229.839844 17.726562 L 229.996094 17.429688 L 230.085938 17.285156 L 230.179688 17.148438 L 230.277344 17.011719 L 230.386719 16.878906 L 230.5 16.753906 L 230.617188 16.628906 L 230.742188 16.511719 L 230.875 16.398438 L 231.015625 16.285156 L 231.164062 16.179688 L 231.316406 16.078125 L 231.480469 15.984375 L 231.648438 15.894531 L 231.824219 15.808594 L 232.007812 15.726562 L 232.195312 15.652344 L 232.394531 15.578125 L 232.597656 15.515625 L 232.808594 15.453125 L 233.027344 15.394531 L 233.257812 15.34375 L 233.496094 15.296875 L 233.746094 15.257812 L 234 15.222656 L 234.265625 15.195312 L 234.542969 15.175781 L 234.824219 15.160156 L 235.117188 15.152344 L 235.417969 15.148438 L 235.972656 15.160156 L 236.496094 15.199219 L 236.992188 15.265625 L 237.460938 15.355469 L 237.902344 15.472656 L 238.3125 15.617188 L 238.699219 15.789062 L 239.054688 15.984375 L 239.382812 16.207031 L 239.683594 16.453125 L 239.957031 16.722656 L 240.199219 17.015625 L 240.414062 17.332031 L 240.597656 17.671875 L 240.757812 18.039062 L 240.886719 18.425781 L 240.984375 18.835938 L 241.058594 19.265625 L 241.101562 19.722656 L 241.113281 20.203125 L 241.113281 26.679688 L 241.117188 26.894531 L 241.125 27.101562 L 241.140625 27.296875 L 241.160156 27.480469 L 241.1875 27.65625 L 241.21875 27.816406 L 241.257812 27.96875 L 241.300781 28.109375 L 241.351562 28.242188 L 241.40625 28.359375 L 241.46875 28.464844 L 241.542969 28.558594 L 241.628906 28.644531 L 241.722656 28.714844 L 241.832031 28.777344 L 241.945312 28.828125 L 242.074219 28.867188 L 242.210938 28.894531 L 242.359375 28.910156 L 242.519531 28.914062 L 242.644531 28.914062 L 242.683594 28.910156 L 242.726562 28.910156 L 242.769531 28.90625 L 242.808594 28.902344 L 242.894531 28.894531 L 242.933594 28.886719 L 242.976562 28.882812 L 243.015625 28.875 L 243.058594 28.871094 L 243.097656 28.863281 L 243.140625 28.855469 L 243.179688 28.847656 L 243.21875 28.84375 L 243.296875 28.828125 L 243.335938 28.816406 L 243.335938 30.375 L 243.242188 30.394531 L 243.148438 30.417969 L 243.054688 30.4375 L 242.960938 30.453125 L 242.863281 30.472656 L 242.675781 30.503906 L 242.207031 30.5625 L 242.113281 30.570312 L 242.015625 30.578125 L 241.917969 30.582031 L 241.816406 30.585938 L 241.71875 30.589844 L 241.613281 30.59375 L 241.511719 30.597656 L 241.40625 30.597656 L 241.265625 30.59375 L 241.128906 30.589844 L 241 30.582031 L 240.871094 30.566406 L 240.746094 30.550781 L 240.625 30.53125 L 240.511719 30.507812 L 240.398438 30.480469 L 240.289062 30.449219 L 240.183594 30.414062 L 240.085938 30.375 L 239.992188 30.332031 L 239.898438 30.28125 L 239.8125 30.230469 L 239.730469 30.175781 L 239.648438 30.117188 L 239.570312 30.054688 L 239.5 29.988281 L 239.429688 29.917969 L 239.363281 29.847656 L 239.300781 29.765625 L 239.242188 29.683594 L 239.1875 29.597656 L 239.132812 29.507812 L 239.082031 29.414062 L 239.035156 29.320312 L 238.949219 29.117188 L 238.914062 29.011719 L 238.878906 28.902344 L 238.816406 28.667969 L 238.789062 28.542969 L 238.765625 28.417969 L 238.742188 28.285156 L 238.722656 28.152344 L 238.707031 28.015625 L 238.691406 27.875 L 238.679688 27.730469 L 238.667969 27.582031 L 238.585938 27.582031 L 238.503906 27.726562 L 238.421875 27.863281 L 238.335938 28.003906 L 238.164062 28.269531 L 238.074219 28.398438 L 237.886719 28.648438 L 237.792969 28.769531 L 237.695312 28.886719 L 237.601562 29.003906 L 237.398438 29.222656 L 237.292969 29.328125 L 237.183594 29.429688 L 237.070312 29.527344 L 236.835938 29.714844 L 236.710938 29.804688 L 236.585938 29.886719 L 236.457031 29.964844 L 236.324219 30.042969 L 236.1875 30.113281 L 236.046875 30.179688 L 235.902344 30.246094 L 235.753906 30.304688 L 235.601562 30.363281 L 235.449219 30.417969 L 235.289062 30.464844 L 235.125 30.511719 L 234.964844 30.554688 L 234.792969 30.59375 L 234.621094 30.625 L 234.441406 30.65625 L 234.257812 30.679688 L 234.070312 30.699219 L 233.875 30.714844 L 233.675781 30.726562 L 233.472656 30.734375 Z M 233.835938 28.859375 L 234.070312 28.855469 L 234.300781 28.84375 L 234.523438 28.820312 L 234.742188 28.789062 L 234.953125 28.753906 L 235.160156 28.703125 L 235.359375 28.648438 L 235.550781 28.585938 L 235.738281 28.511719 L 235.917969 28.429688 L 236.097656 28.335938 L 236.265625 28.242188 L 236.433594 28.140625 L 236.589844 28.035156 L 236.742188 27.925781 L 236.886719 27.8125 L 237.027344 27.691406 L 237.160156 27.566406 L 237.285156 27.4375 L 237.40625 27.304688 L 237.523438 27.167969 L 237.632812 27.027344 L 237.835938 26.738281 L 237.925781 26.589844 L 238.011719 26.441406 L 238.09375 26.289062 L 238.234375 25.976562 L 238.351562 25.65625 L 238.398438 25.496094 L 238.441406 25.339844 L 238.480469 25.183594 L 238.511719 25.027344 L 238.539062 24.875 L 238.558594 24.722656 L 238.574219 24.574219 L 238.582031 24.421875 L 238.585938 24.273438 L 238.585938 23.039062 L 235.847656 23.09375 L 235.667969 23.097656 L 235.484375 23.105469 L 235.304688 23.113281 L 234.953125 23.136719 L 234.777344 23.152344 L 234.605469 23.167969 L 234.433594 23.1875 L 234.097656 23.234375 L 233.9375 23.257812 L 233.777344 23.285156 L 233.625 23.320312 L 233.472656 23.359375 L 233.328125 23.402344 L 233.183594 23.453125 L 233.046875 23.503906 L 232.910156 23.5625 L 232.78125 23.625 L 232.652344 23.691406 L 232.53125 23.765625 L 232.414062 23.839844 L 232.300781 23.925781 L 232.195312 24.015625 L 232.089844 24.109375 L 231.992188 24.207031 L 231.902344 24.3125 L 231.8125 24.425781 L 231.730469 24.542969 L 231.652344 24.664062 L 231.585938 24.792969 L 231.523438 24.929688 L 231.46875 25.074219 L 231.421875 25.226562 L 231.382812 25.386719 L 231.351562 25.554688 L 231.324219 25.730469 L 231.308594 25.914062 L 231.296875 26.105469 L 231.292969 26.304688 L 231.300781 26.542969 L 231.320312 26.769531 L 231.351562 26.988281 L 231.398438 27.191406 L 231.457031 27.386719 L 231.527344 27.570312 L 231.613281 27.742188 L 231.710938 27.902344 L 231.820312 28.054688 L 231.945312 28.191406 L 232.085938 28.320312 L 232.234375 28.433594 L 232.394531 28.53125 L 232.566406 28.621094 L 232.75 28.691406 L 232.945312 28.753906 L 233.152344 28.800781 L 233.367188 28.832031 L 233.597656 28.851562 Z M 233.835938 28.859375 "/>
<path style=" stroke:none;fill-rule:nonzero;fill:rgb(0%,0%,0%);fill-opacity:1;" d="M 253.410156 30.457031 L 253.410156 28.332031 L 258.398438 28.332031 L 258.398438 13.273438 L 253.980469 16.425781 L 253.980469 14.0625 L 258.605469 10.882812 L 260.914062 10.882812 L 260.914062 28.332031 L 265.675781 28.332031 L 265.675781 30.457031 Z M 253.410156 30.457031 "/>
</g>
</svg>
