<?xml version="1.0" encoding="UTF-8"?>
<svg xmlns="http://www.w3.org/2000/svg" xmlns:xlink="http://www.w3.org/1999/xlink" width="756pt" height="324pt" viewBox="0 0 756 324" version="1.1">
<defs>
<clipPath id="clip1">
  <path d="M 8.21875 277 L 750.519531 277 L 750.519531 279 L 8.21875 279 Z M 8.21875 277 "/>
</clipPath>
<clipPath id="clip2">
  <path d="M 378 5.480469 L 381 5.480469 L 381 291.101562 L 378 291.101562 Z M 378 5.480469 "/>
</clipPath>
</defs>
<g id="surface34">
<rect x="0" y="0" width="756" height="324" style="fill:rgb(100%,100%,100%);fill-opacity:1;stroke:none;"/>
<path style=" stroke:none;fill-rule:nonzero;fill:rgb(100%,64.705882%,0%);fill-opacity:0.8;" d="M 41.960938 278.117188 L 198.070312 278.117188 L 198.519531 278.113281 L 214.265625 278.113281 L 214.714844 278.109375 L 220.113281 278.109375 L 220.5625 278.105469 L 223.710938 278.105469 L 224.160156 278.101562 L 226.410156 278.101562 L 226.859375 278.097656 L 228.660156 278.097656 L 229.109375 278.09375 L 230.460938 278.09375 L 230.910156 278.089844 L 231.808594 278.089844 L 232.257812 278.085938 L 233.160156 278.085938 L 233.609375 278.082031 L 234.507812 278.082031 L 234.957031 278.078125 L 235.410156 278.078125 L 235.859375 278.074219 L 236.757812 278.074219 L 237.207031 278.070312 L 237.65625 278.070312 L 238.109375 278.066406 L 238.558594 278.066406 L 239.457031 278.058594 L 239.90625 278.058594 L 240.355469 278.054688 L 240.808594 278.054688 L 242.15625 278.042969 L 242.605469 278.042969 L 243.054688 278.039062 L 243.507812 278.035156 L 244.40625 278.027344 L 244.855469 278.027344 L 245.753906 278.019531 L 246.207031 278.015625 L 246.65625 278.011719 L 247.105469 278.003906 L 248.453125 277.992188 L 248.90625 277.988281 L 249.355469 277.980469 L 250.253906 277.972656 L 250.703125 277.964844 L 251.152344 277.960938 L 251.605469 277.953125 L 252.054688 277.945312 L 252.503906 277.941406 L 253.851562 277.917969 L 254.304688 277.910156 L 256.101562 277.878906 L 256.550781 277.867188 L 257.003906 277.859375 L 257.453125 277.851562 L 258.351562 277.828125 L 258.800781 277.820312 L 259.253906 277.808594 L 260.601562 277.773438 L 261.050781 277.757812 L 261.5 277.746094 L 261.953125 277.730469 L 262.402344 277.71875 L 264.199219 277.65625 L 264.652344 277.640625 L 265.101562 277.621094 L 265.550781 277.605469 L 266.898438 277.546875 L 267.351562 277.527344 L 267.800781 277.507812 L 268.25 277.484375 L 268.699219 277.464844 L 269.597656 277.417969 L 270.050781 277.390625 L 270.5 277.367188 L 272.296875 277.257812 L 272.75 277.226562 L 273.199219 277.199219 L 273.648438 277.167969 L 274.097656 277.132812 L 274.546875 277.101562 L 274.996094 277.066406 L 275.449219 277.03125 L 275.898438 276.996094 L 277.246094 276.878906 L 277.695312 276.835938 L 278.148438 276.796875 L 278.597656 276.75 L 279.046875 276.707031 L 279.945312 276.613281 L 280.394531 276.5625 L 280.847656 276.515625 L 281.296875 276.460938 L 281.746094 276.410156 L 282.195312 276.355469 L 283.09375 276.238281 L 283.546875 276.179688 L 284.445312 276.054688 L 285.792969 275.855469 L 286.246094 275.785156 L 287.144531 275.636719 L 288.042969 275.480469 L 288.496094 275.398438 L 288.945312 275.316406 L 289.84375 275.144531 L 290.292969 275.054688 L 290.742188 274.960938 L 291.195312 274.867188 L 291.644531 274.769531 L 292.542969 274.566406 L 292.992188 274.460938 L 293.441406 274.351562 L 293.894531 274.242188 L 294.34375 274.128906 L 294.792969 274.011719 L 295.691406 273.769531 L 296.140625 273.644531 L 296.59375 273.515625 L 297.042969 273.382812 L 297.492188 273.246094 L 298.390625 272.964844 L 298.839844 272.816406 L 299.292969 272.667969 L 299.742188 272.515625 L 300.191406 272.359375 L 300.640625 272.199219 L 301.539062 271.863281 L 301.992188 271.691406 L 302.441406 271.515625 L 303.339844 271.148438 L 304.238281 270.765625 L 304.691406 270.566406 L 305.140625 270.363281 L 305.589844 270.15625 L 306.488281 269.726562 L 306.9375 269.503906 L 307.390625 269.277344 L 307.839844 269.042969 L 308.289062 268.804688 L 308.738281 268.5625 L 309.1875 268.316406 L 309.636719 268.0625 L 310.089844 267.800781 L 310.539062 267.535156 L 310.988281 267.265625 L 311.4375 266.988281 L 311.886719 266.707031 L 312.335938 266.417969 L 312.789062 266.125 L 313.238281 265.824219 L 313.6875 265.519531 L 314.585938 264.886719 L 315.035156 264.558594 L 315.488281 264.226562 L 315.9375 263.886719 L 316.386719 263.539062 L 316.835938 263.1875 L 317.285156 262.828125 L 317.738281 262.460938 L 318.1875 262.085938 L 318.636719 261.703125 L 319.085938 261.3125 L 319.535156 260.917969 L 319.984375 260.511719 L 320.4375 260.097656 L 320.886719 259.679688 L 321.335938 259.25 L 321.785156 258.816406 L 322.234375 258.371094 L 322.683594 257.917969 L 323.136719 257.457031 L 323.585938 256.988281 L 324.035156 256.511719 L 324.484375 256.027344 L 324.933594 255.53125 L 325.382812 255.027344 L 325.835938 254.515625 L 326.285156 253.992188 L 326.734375 253.464844 L 327.183594 252.921875 L 327.632812 252.375 L 328.082031 251.816406 L 328.535156 251.25 L 328.984375 250.671875 L 329.433594 250.085938 L 329.882812 249.488281 L 330.332031 248.882812 L 330.78125 248.265625 L 331.234375 247.640625 L 331.683594 247.003906 L 332.132812 246.359375 L 332.582031 245.703125 L 333.03125 245.035156 L 333.480469 244.359375 L 333.933594 243.671875 L 334.382812 242.976562 L 334.832031 242.269531 L 335.28125 241.550781 L 335.730469 240.820312 L 336.179688 240.078125 L 336.632812 239.328125 L 337.082031 238.566406 L 337.53125 237.792969 L 337.980469 237.011719 L 338.429688 236.214844 L 338.878906 235.410156 L 339.332031 234.59375 L 339.78125 233.765625 L 340.230469 232.925781 L 340.679688 232.074219 L 341.128906 231.210938 L 341.578125 230.339844 L 342.03125 229.453125 L 342.480469 228.558594 L 342.929688 227.648438 L 343.378906 226.730469 L 343.828125 225.800781 L 344.277344 224.859375 L 344.730469 223.902344 L 345.179688 222.9375 L 345.628906 221.960938 L 346.078125 220.972656 L 346.527344 219.972656 L 346.980469 218.960938 L 347.429688 217.9375 L 347.878906 216.902344 L 348.328125 215.855469 L 348.777344 214.800781 L 349.226562 213.730469 L 349.679688 212.648438 L 350.128906 211.554688 L 350.578125 210.453125 L 351.027344 209.335938 L 351.476562 208.210938 L 351.925781 207.070312 L 352.378906 205.921875 L 352.828125 204.761719 L 353.277344 203.589844 L 353.726562 202.40625 L 354.175781 201.210938 L 354.625 200.007812 L 355.078125 198.792969 L 355.527344 197.5625 L 355.976562 196.328125 L 356.425781 195.078125 L 356.875 193.820312 L 357.324219 192.550781 L 357.777344 191.269531 L 358.226562 189.976562 L 358.675781 188.679688 L 359.125 187.367188 L 359.574219 186.046875 L 360.023438 184.714844 L 360.476562 183.375 L 360.925781 182.023438 L 361.375 180.664062 L 361.824219 179.296875 L 362.273438 177.917969 L 362.722656 176.53125 L 363.175781 175.132812 L 363.625 173.730469 L 364.074219 172.316406 L 364.523438 170.894531 L 364.972656 169.464844 L 365.421875 168.027344 L 365.875 166.578125 L 366.324219 165.125 L 366.773438 163.664062 L 367.222656 162.195312 L 367.671875 160.71875 L 368.121094 159.238281 L 368.574219 157.75 L 369.023438 156.253906 L 369.472656 154.75 L 369.921875 153.242188 L 370.371094 151.730469 L 370.820312 150.210938 L 371.273438 148.683594 L 371.722656 147.15625 L 372.171875 145.621094 L 372.621094 144.082031 L 373.070312 142.539062 L 373.519531 140.988281 L 373.972656 139.4375 L 374.421875 137.882812 L 375.320312 134.765625 L 375.769531 133.199219 L 376.222656 131.632812 L 376.671875 130.066406 L 377.570312 126.925781 L 378.46875 123.777344 L 378.921875 122.203125 L 381.167969 114.332031 L 381.621094 112.761719 L 382.519531 109.621094 L 382.96875 108.054688 L 383.417969 106.492188 L 383.867188 104.933594 L 384.320312 103.375 L 385.21875 100.273438 L 385.667969 98.726562 L 386.117188 97.1875 L 386.566406 95.652344 L 387.019531 94.121094 L 387.46875 92.597656 L 387.917969 91.082031 L 388.367188 89.570312 L 388.816406 88.0625 L 389.265625 86.566406 L 389.71875 85.074219 L 390.167969 83.59375 L 390.617188 82.117188 L 391.066406 80.652344 L 391.515625 79.195312 L 391.964844 77.75 L 392.417969 76.3125 L 392.867188 74.882812 L 393.316406 73.464844 L 393.765625 72.058594 L 394.214844 70.664062 L 394.664062 69.28125 L 395.117188 67.90625 L 395.566406 66.546875 L 396.015625 65.199219 L 396.464844 63.863281 L 396.914062 62.542969 L 397.363281 61.234375 L 397.816406 59.941406 L 398.265625 58.660156 L 398.714844 57.394531 L 399.164062 56.144531 L 399.613281 54.910156 L 400.0625 53.6875 L 400.515625 52.484375 L 400.964844 51.296875 L 401.414062 50.125 L 401.863281 48.972656 L 402.3125 47.835938 L 402.761719 46.714844 L 403.214844 45.613281 L 403.664062 44.53125 L 404.113281 43.464844 L 404.5625 42.417969 L 405.011719 41.390625 L 405.460938 40.382812 L 405.914062 39.394531 L 406.363281 38.425781 L 406.8125 37.476562 L 407.261719 36.546875 L 407.710938 35.640625 L 408.164062 34.753906 L 408.613281 33.890625 L 409.0625 33.042969 L 409.511719 32.222656 L 409.960938 31.421875 L 410.410156 30.644531 L 410.863281 29.886719 L 411.3125 29.152344 L 411.761719 28.445312 L 412.210938 27.757812 L 412.660156 27.089844 L 413.109375 26.449219 L 413.5625 25.832031 L 414.011719 25.238281 L 414.460938 24.671875 L 414.910156 24.125 L 415.359375 23.605469 L 415.808594 23.105469 L 416.261719 22.632812 L 416.710938 22.1875 L 417.160156 21.765625 L 417.609375 21.367188 L 418.058594 20.996094 L 418.507812 20.648438 L 418.960938 20.324219 L 419.410156 20.027344 L 419.859375 19.757812 L 420.308594 19.511719 L 420.757812 19.292969 L 421.207031 19.097656 L 421.660156 18.929688 L 422.109375 18.785156 L 422.558594 18.667969 L 423.007812 18.578125 L 423.457031 18.515625 L 423.90625 18.476562 L 424.359375 18.460938 L 424.808594 18.476562 L 425.257812 18.515625 L 425.707031 18.578125 L 426.15625 18.667969 L 426.605469 18.785156 L 427.058594 18.929688 L 427.507812 19.097656 L 427.957031 19.292969 L 428.40625 19.511719 L 428.855469 19.757812 L 429.304688 20.027344 L 429.757812 20.324219 L 430.207031 20.648438 L 430.65625 20.996094 L 431.105469 21.367188 L 431.554688 21.765625 L 432.003906 22.1875 L 432.457031 22.632812 L 432.90625 23.105469 L 433.355469 23.605469 L 433.804688 24.125 L 434.253906 24.671875 L 434.703125 25.238281 L 435.15625 25.832031 L 435.605469 26.449219 L 436.054688 27.089844 L 436.503906 27.757812 L 436.953125 28.445312 L 437.40625 29.152344 L 437.855469 29.886719 L 438.304688 30.644531 L 438.753906 31.421875 L 439.203125 32.222656 L 439.652344 33.042969 L 440.105469 33.890625 L 440.554688 34.753906 L 441.003906 35.640625 L 441.453125 36.546875 L 441.902344 37.476562 L 442.351562 38.425781 L 442.804688 39.394531 L 443.253906 40.382812 L 443.703125 41.390625 L 444.152344 42.417969 L 444.601562 43.464844 L 445.050781 44.53125 L 445.503906 45.613281 L 445.953125 46.714844 L 446.402344 47.835938 L 446.851562 48.972656 L 447.300781 50.125 L 447.75 51.296875 L 448.203125 52.484375 L 448.652344 53.6875 L 449.101562 54.910156 L 449.550781 56.144531 L 450 57.394531 L 450.449219 58.660156 L 450.902344 59.941406 L 451.351562 61.234375 L 451.800781 62.542969 L 452.25 63.863281 L 452.699219 65.199219 L 453.601562 67.90625 L 454.050781 69.28125 L 454.5 70.664062 L 454.949219 72.058594 L 455.398438 73.464844 L 455.847656 74.882812 L 456.300781 76.3125 L 456.75 77.75 L 457.199219 79.195312 L 457.648438 80.652344 L 458.097656 82.117188 L 458.546875 83.59375 L 459 85.074219 L 459.449219 86.566406 L 459.898438 88.0625 L 460.347656 89.570312 L 460.796875 91.082031 L 461.246094 92.597656 L 461.699219 94.121094 L 462.148438 95.652344 L 462.597656 97.1875 L 463.046875 98.726562 L 463.496094 100.273438 L 463.945312 101.824219 L 464.398438 103.375 L 465.296875 106.492188 L 465.746094 108.054688 L 466.195312 109.621094 L 466.648438 111.191406 L 467.546875 114.332031 L 468.894531 119.054688 L 469.347656 120.628906 L 471.144531 126.925781 L 471.59375 128.496094 L 472.046875 130.066406 L 473.394531 134.765625 L 474.292969 137.882812 L 474.746094 139.4375 L 475.644531 142.539062 L 476.09375 144.082031 L 476.542969 145.621094 L 476.992188 147.15625 L 477.445312 148.683594 L 477.894531 150.210938 L 478.34375 151.730469 L 478.792969 153.242188 L 479.242188 154.75 L 479.691406 156.253906 L 480.144531 157.75 L 480.59375 159.238281 L 481.042969 160.71875 L 481.492188 162.195312 L 481.941406 163.664062 L 482.390625 165.125 L 482.84375 166.578125 L 483.292969 168.027344 L 483.742188 169.464844 L 484.191406 170.894531 L 484.640625 172.316406 L 485.089844 173.730469 L 485.542969 175.132812 L 485.992188 176.53125 L 486.441406 177.917969 L 486.890625 179.296875 L 487.339844 180.664062 L 487.789062 182.023438 L 488.242188 183.375 L 488.691406 184.714844 L 489.140625 186.046875 L 489.589844 187.367188 L 490.039062 188.679688 L 490.488281 189.976562 L 490.941406 191.269531 L 491.390625 192.550781 L 491.839844 193.820312 L 492.289062 195.078125 L 492.738281 196.328125 L 493.1875 197.5625 L 493.640625 198.792969 L 494.089844 200.007812 L 494.539062 201.210938 L 494.988281 202.40625 L 495.4375 203.589844 L 495.890625 204.761719 L 496.339844 205.921875 L 496.789062 207.070312 L 497.238281 208.210938 L 497.6875 209.335938 L 498.136719 210.453125 L 498.589844 211.554688 L 499.039062 212.648438 L 499.488281 213.730469 L 499.9375 214.800781 L 500.386719 215.855469 L 500.835938 216.902344 L 501.289062 217.9375 L 501.738281 218.960938 L 502.1875 219.972656 L 502.636719 220.972656 L 503.085938 221.960938 L 503.535156 222.9375 L 503.988281 223.902344 L 504.4375 224.859375 L 504.886719 225.800781 L 505.335938 226.730469 L 505.785156 227.648438 L 506.234375 228.558594 L 506.6875 229.453125 L 507.136719 230.339844 L 507.585938 231.210938 L 508.035156 232.074219 L 508.484375 232.925781 L 508.933594 233.765625 L 509.386719 234.59375 L 509.835938 235.410156 L 510.285156 236.214844 L 510.734375 237.011719 L 511.183594 237.792969 L 511.632812 238.566406 L 512.085938 239.328125 L 512.535156 240.078125 L 512.984375 240.820312 L 513.433594 241.550781 L 513.882812 242.269531 L 514.332031 242.976562 L 514.785156 243.671875 L 515.234375 244.359375 L 515.683594 245.035156 L 516.132812 245.703125 L 516.582031 246.359375 L 517.03125 247.003906 L 517.484375 247.640625 L 517.933594 248.265625 L 518.382812 248.882812 L 518.832031 249.488281 L 519.28125 250.085938 L 519.730469 250.671875 L 520.183594 251.25 L 520.632812 251.816406 L 521.082031 252.375 L 521.53125 252.921875 L 521.980469 253.464844 L 522.429688 253.992188 L 522.882812 254.515625 L 523.332031 255.027344 L 523.78125 255.53125 L 524.230469 256.027344 L 524.679688 256.511719 L 525.128906 256.988281 L 525.582031 257.457031 L 526.03125 257.917969 L 526.480469 258.371094 L 526.929688 258.816406 L 527.378906 259.25 L 527.832031 259.679688 L 528.28125 260.097656 L 528.730469 260.511719 L 529.179688 260.917969 L 529.628906 261.3125 L 530.078125 261.703125 L 530.53125 262.085938 L 530.980469 262.460938 L 531.429688 262.828125 L 531.878906 263.1875 L 532.328125 263.539062 L 532.777344 263.886719 L 533.230469 264.226562 L 533.679688 264.558594 L 534.128906 264.886719 L 535.027344 265.519531 L 535.476562 265.824219 L 535.929688 266.125 L 536.378906 266.417969 L 536.828125 266.707031 L 537.277344 266.988281 L 537.726562 267.265625 L 538.175781 267.535156 L 538.628906 267.800781 L 539.078125 268.0625 L 539.527344 268.316406 L 539.976562 268.5625 L 540.425781 268.804688 L 540.875 269.042969 L 541.328125 269.277344 L 541.777344 269.503906 L 542.226562 269.726562 L 543.125 270.15625 L 543.574219 270.363281 L 544.027344 270.566406 L 544.476562 270.765625 L 545.375 271.148438 L 546.273438 271.515625 L 546.726562 271.691406 L 547.175781 271.863281 L 548.074219 272.199219 L 548.523438 272.359375 L 548.972656 272.515625 L 549.425781 272.667969 L 550.324219 272.964844 L 551.222656 273.246094 L 551.671875 273.382812 L 552.125 273.515625 L 552.574219 273.644531 L 553.023438 273.769531 L 553.921875 274.011719 L 554.371094 274.128906 L 554.824219 274.242188 L 555.722656 274.460938 L 556.171875 274.566406 L 556.621094 274.667969 L 557.074219 274.769531 L 557.523438 274.867188 L 558.421875 275.054688 L 558.871094 275.144531 L 559.320312 275.230469 L 559.773438 275.316406 L 560.671875 275.480469 L 561.570312 275.636719 L 562.019531 275.710938 L 562.472656 275.785156 L 562.921875 275.855469 L 564.269531 276.054688 L 564.71875 276.117188 L 565.171875 276.179688 L 566.519531 276.355469 L 566.96875 276.410156 L 567.417969 276.460938 L 567.871094 276.515625 L 568.320312 276.5625 L 568.769531 276.613281 L 569.667969 276.707031 L 570.117188 276.75 L 570.570312 276.796875 L 571.019531 276.835938 L 571.46875 276.878906 L 572.816406 276.996094 L 573.269531 277.03125 L 574.167969 277.101562 L 574.617188 277.132812 L 575.066406 277.167969 L 575.515625 277.199219 L 575.96875 277.226562 L 576.417969 277.257812 L 578.214844 277.367188 L 578.667969 277.390625 L 579.117188 277.417969 L 580.015625 277.464844 L 580.464844 277.484375 L 580.914062 277.507812 L 581.367188 277.527344 L 583.164062 277.605469 L 583.613281 277.621094 L 584.066406 277.640625 L 585.863281 277.703125 L 586.316406 277.71875 L 586.765625 277.730469 L 587.214844 277.746094 L 587.664062 277.757812 L 588.113281 277.773438 L 588.5625 277.785156 L 589.015625 277.796875 L 589.914062 277.820312 L 590.363281 277.828125 L 591.261719 277.851562 L 591.714844 277.859375 L 592.164062 277.867188 L 592.613281 277.878906 L 593.960938 277.902344 L 594.414062 277.910156 L 596.210938 277.941406 L 596.660156 277.945312 L 597.113281 277.953125 L 597.5625 277.960938 L 598.011719 277.964844 L 598.460938 277.972656 L 599.359375 277.980469 L 599.8125 277.988281 L 601.609375 278.003906 L 602.058594 278.011719 L 602.511719 278.015625 L 603.859375 278.027344 L 604.308594 278.027344 L 604.757812 278.03125 L 605.210938 278.035156 L 606.109375 278.042969 L 606.558594 278.042969 L 607.457031 278.050781 L 607.910156 278.054688 L 608.359375 278.054688 L 608.808594 278.058594 L 609.257812 278.058594 L 610.15625 278.066406 L 610.609375 278.066406 L 611.058594 278.070312 L 611.507812 278.070312 L 611.957031 278.074219 L 612.855469 278.074219 L 613.308594 278.078125 L 613.757812 278.078125 L 614.207031 278.082031 L 615.105469 278.082031 L 615.558594 278.085938 L 616.457031 278.085938 L 616.90625 278.089844 L 617.804688 278.089844 L 618.257812 278.09375 L 619.605469 278.09375 L 620.054688 278.097656 L 621.855469 278.097656 L 622.304688 278.101562 L 624.554688 278.101562 L 625.003906 278.105469 L 628.152344 278.105469 L 628.601562 278.109375 L 634 278.109375 L 634.453125 278.113281 L 650.199219 278.113281 L 650.648438 278.117188 L 716.78125 278.117188 Z M 41.960938 278.117188 "/>
<path style=" stroke:none;fill-rule:nonzero;fill:rgb(90.196078%,25.490196%,45.098039%);fill-opacity:0.65098;" d="M 41.960938 278.117188 L 266.449219 278.117188 L 266.898438 115.402344 L 446.851562 115.402344 L 447.300781 278.117188 L 716.78125 278.117188 Z M 41.960938 278.117188 "/>
<path style=" stroke:none;fill-rule:nonzero;fill:rgb(18.431373%,30.980392%,30.980392%);fill-opacity:0.6;" d="M 41.960938 276.960938 L 42.410156 276.949219 L 42.859375 276.933594 L 43.308594 276.921875 L 43.757812 276.90625 L 44.210938 276.890625 L 44.660156 276.875 L 45.109375 276.863281 L 46.457031 276.816406 L 46.910156 276.800781 L 48.707031 276.738281 L 49.160156 276.722656 L 49.609375 276.703125 L 50.507812 276.671875 L 50.957031 276.652344 L 51.40625 276.636719 L 51.859375 276.621094 L 52.308594 276.601562 L 52.757812 276.585938 L 53.65625 276.546875 L 54.105469 276.53125 L 54.558594 276.511719 L 55.457031 276.472656 L 55.90625 276.457031 L 56.804688 276.417969 L 57.257812 276.398438 L 57.707031 276.378906 L 58.15625 276.355469 L 59.503906 276.296875 L 59.957031 276.273438 L 60.855469 276.234375 L 61.304688 276.210938 L 61.753906 276.191406 L 62.203125 276.167969 L 62.65625 276.144531 L 63.105469 276.125 L 64.902344 276.03125 L 65.355469 276.007812 L 67.152344 275.914062 L 67.601562 275.886719 L 68.054688 275.863281 L 68.503906 275.839844 L 68.953125 275.8125 L 69.402344 275.789062 L 70.300781 275.734375 L 70.753906 275.710938 L 73 275.574219 L 73.453125 275.546875 L 73.902344 275.519531 L 74.351562 275.488281 L 75.25 275.433594 L 75.699219 275.402344 L 76.152344 275.375 L 77.050781 275.3125 L 77.5 275.285156 L 77.949219 275.253906 L 78.402344 275.222656 L 80.199219 275.097656 L 80.648438 275.0625 L 81.101562 275.03125 L 81.550781 275 L 82 274.964844 L 82.449219 274.933594 L 83.347656 274.863281 L 83.800781 274.828125 L 86.046875 274.652344 L 86.5 274.617188 L 86.949219 274.578125 L 87.398438 274.542969 L 87.847656 274.503906 L 88.296875 274.46875 L 88.746094 274.429688 L 89.199219 274.390625 L 91.445312 274.195312 L 91.898438 274.15625 L 92.347656 274.113281 L 92.796875 274.074219 L 93.246094 274.03125 L 93.695312 273.992188 L 94.144531 273.949219 L 94.597656 273.90625 L 95.945312 273.777344 L 96.394531 273.730469 L 96.84375 273.6875 L 97.296875 273.644531 L 97.746094 273.597656 L 98.195312 273.554688 L 99.542969 273.414062 L 99.996094 273.367188 L 100.894531 273.273438 L 101.34375 273.222656 L 101.792969 273.175781 L 102.242188 273.125 L 102.695312 273.078125 L 104.941406 272.824219 L 105.394531 272.773438 L 105.84375 272.71875 L 106.292969 272.667969 L 107.191406 272.558594 L 107.640625 272.507812 L 108.09375 272.453125 L 108.542969 272.398438 L 108.992188 272.339844 L 109.890625 272.230469 L 110.34375 272.171875 L 110.792969 272.117188 L 112.589844 271.882812 L 113.042969 271.824219 L 113.492188 271.765625 L 113.941406 271.703125 L 114.390625 271.644531 L 115.289062 271.519531 L 115.742188 271.457031 L 117.089844 271.269531 L 117.539062 271.203125 L 117.988281 271.140625 L 118.441406 271.074219 L 120.6875 270.742188 L 121.140625 270.671875 L 121.589844 270.605469 L 123.386719 270.324219 L 123.839844 270.253906 L 124.289062 270.183594 L 124.738281 270.109375 L 125.1875 270.039062 L 126.085938 269.890625 L 126.539062 269.816406 L 126.988281 269.742188 L 127.4375 269.664062 L 127.886719 269.589844 L 128.335938 269.511719 L 128.785156 269.4375 L 129.238281 269.359375 L 129.6875 269.28125 L 130.136719 269.199219 L 131.035156 269.042969 L 131.484375 268.960938 L 131.9375 268.878906 L 132.386719 268.800781 L 132.835938 268.71875 L 133.285156 268.632812 L 134.183594 268.46875 L 134.636719 268.382812 L 136.882812 267.953125 L 137.335938 267.863281 L 137.785156 267.773438 L 138.234375 267.6875 L 139.132812 267.507812 L 139.585938 267.414062 L 140.035156 267.324219 L 140.933594 267.136719 L 141.382812 267.046875 L 141.832031 266.949219 L 142.285156 266.855469 L 142.734375 266.761719 L 143.183594 266.664062 L 143.632812 266.570312 L 144.53125 266.375 L 144.984375 266.277344 L 145.433594 266.175781 L 145.882812 266.078125 L 147.230469 265.773438 L 147.683594 265.671875 L 148.132812 265.570312 L 149.03125 265.359375 L 149.480469 265.257812 L 149.929688 265.152344 L 150.382812 265.042969 L 151.28125 264.832031 L 152.628906 264.503906 L 153.082031 264.394531 L 153.53125 264.285156 L 155.328125 263.832031 L 155.78125 263.71875 L 156.230469 263.605469 L 156.679688 263.488281 L 157.128906 263.375 L 157.578125 263.257812 L 158.027344 263.136719 L 158.480469 263.019531 L 158.929688 262.902344 L 160.726562 262.417969 L 161.179688 262.296875 L 161.628906 262.171875 L 162.078125 262.050781 L 162.976562 261.800781 L 163.425781 261.671875 L 163.878906 261.546875 L 164.328125 261.417969 L 164.777344 261.292969 L 165.675781 261.035156 L 166.125 260.902344 L 166.578125 260.773438 L 168.375 260.242188 L 168.828125 260.105469 L 169.277344 259.972656 L 171.074219 259.425781 L 171.527344 259.285156 L 173.324219 258.722656 L 173.773438 258.578125 L 174.226562 258.4375 L 175.574219 258.003906 L 176.023438 257.855469 L 176.472656 257.710938 L 176.925781 257.5625 L 177.824219 257.265625 L 178.273438 257.113281 L 178.722656 256.964844 L 179.171875 256.8125 L 179.625 256.660156 L 180.523438 256.355469 L 180.972656 256.199219 L 181.421875 256.046875 L 181.871094 255.890625 L 182.324219 255.734375 L 182.773438 255.574219 L 183.222656 255.417969 L 183.671875 255.257812 L 184.121094 255.101562 L 184.570312 254.9375 L 185.023438 254.777344 L 185.472656 254.617188 L 185.921875 254.453125 L 186.371094 254.292969 L 186.820312 254.128906 L 187.269531 253.960938 L 187.722656 253.796875 L 188.171875 253.632812 L 189.96875 252.960938 L 190.421875 252.789062 L 190.871094 252.617188 L 191.320312 252.449219 L 191.769531 252.277344 L 192.21875 252.101562 L 192.667969 251.929688 L 193.121094 251.753906 L 194.917969 251.050781 L 195.367188 250.871094 L 195.820312 250.695312 L 196.71875 250.335938 L 197.167969 250.152344 L 197.617188 249.972656 L 198.070312 249.789062 L 199.867188 249.054688 L 200.316406 248.867188 L 200.769531 248.679688 L 202.117188 248.117188 L 202.566406 247.925781 L 203.015625 247.738281 L 203.46875 247.546875 L 204.367188 247.164062 L 204.816406 246.96875 L 205.265625 246.777344 L 205.714844 246.582031 L 206.167969 246.386719 L 206.617188 246.191406 L 207.066406 245.992188 L 207.515625 245.796875 L 208.414062 245.398438 L 208.867188 245.199219 L 209.765625 244.800781 L 210.214844 244.597656 L 210.664062 244.398438 L 211.113281 244.195312 L 211.566406 243.992188 L 212.015625 243.789062 L 212.464844 243.582031 L 212.914062 243.378906 L 213.8125 242.964844 L 214.265625 242.757812 L 214.714844 242.550781 L 215.164062 242.339844 L 215.613281 242.132812 L 216.511719 241.710938 L 216.964844 241.5 L 217.414062 241.289062 L 217.863281 241.074219 L 218.3125 240.863281 L 219.210938 240.433594 L 219.664062 240.21875 L 220.5625 239.789062 L 221.011719 239.570312 L 221.460938 239.355469 L 221.910156 239.136719 L 222.363281 238.917969 L 222.8125 238.699219 L 223.261719 238.476562 L 223.710938 238.257812 L 224.160156 238.035156 L 224.609375 237.816406 L 225.0625 237.59375 L 225.960938 237.148438 L 226.410156 236.921875 L 226.859375 236.699219 L 227.3125 236.472656 L 227.761719 236.25 L 229.109375 235.570312 L 229.558594 235.339844 L 230.011719 235.113281 L 230.460938 234.882812 L 230.910156 234.65625 L 232.257812 233.964844 L 232.710938 233.734375 L 233.160156 233.5 L 233.609375 233.269531 L 234.058594 233.035156 L 234.507812 232.804688 L 234.957031 232.570312 L 235.410156 232.335938 L 236.308594 231.867188 L 236.757812 231.628906 L 237.207031 231.394531 L 237.65625 231.15625 L 238.109375 230.921875 L 240.355469 229.730469 L 240.808594 229.492188 L 241.257812 229.25 L 241.707031 229.011719 L 242.605469 228.527344 L 243.054688 228.289062 L 243.507812 228.046875 L 244.855469 227.320312 L 245.304688 227.074219 L 245.753906 226.832031 L 246.207031 226.585938 L 246.65625 226.34375 L 247.105469 226.097656 L 247.554688 225.855469 L 248.453125 225.363281 L 248.90625 225.117188 L 250.703125 224.132812 L 251.152344 223.882812 L 251.605469 223.636719 L 252.054688 223.390625 L 252.503906 223.140625 L 252.953125 222.894531 L 253.402344 222.644531 L 253.851562 222.398438 L 254.304688 222.148438 L 256.101562 221.148438 L 256.550781 220.902344 L 257.003906 220.652344 L 257.453125 220.398438 L 258.800781 219.648438 L 259.253906 219.398438 L 259.703125 219.148438 L 260.152344 218.894531 L 261.050781 218.394531 L 261.5 218.140625 L 261.953125 217.890625 L 262.402344 217.640625 L 262.851562 217.386719 L 263.300781 217.136719 L 263.75 216.882812 L 264.199219 216.632812 L 264.652344 216.378906 L 265.101562 216.128906 L 265.550781 215.875 L 266 215.625 L 266.449219 215.371094 L 266.898438 215.121094 L 267.351562 214.867188 L 267.800781 214.617188 L 268.25 214.363281 L 268.699219 214.113281 L 269.148438 213.859375 L 269.597656 213.609375 L 270.050781 213.359375 L 270.5 213.105469 L 270.949219 212.855469 L 271.398438 212.601562 L 271.847656 212.351562 L 272.296875 212.097656 L 272.75 211.847656 L 273.648438 211.347656 L 274.097656 211.09375 L 274.996094 210.59375 L 275.449219 210.34375 L 277.695312 209.09375 L 278.148438 208.84375 L 279.496094 208.09375 L 279.945312 207.847656 L 280.394531 207.597656 L 280.847656 207.351562 L 281.296875 207.101562 L 282.195312 206.609375 L 282.644531 206.359375 L 283.09375 206.113281 L 283.546875 205.867188 L 284.894531 205.128906 L 285.34375 204.886719 L 285.792969 204.640625 L 286.246094 204.398438 L 286.695312 204.152344 L 287.144531 203.910156 L 287.59375 203.664062 L 288.042969 203.421875 L 288.496094 203.179688 L 289.394531 202.695312 L 289.84375 202.457031 L 290.292969 202.214844 L 290.742188 201.976562 L 291.195312 201.734375 L 293.441406 200.542969 L 293.894531 200.308594 L 294.34375 200.070312 L 295.242188 199.601562 L 295.691406 199.363281 L 296.140625 199.132812 L 296.59375 198.898438 L 297.042969 198.664062 L 297.492188 198.433594 L 297.941406 198.199219 L 298.839844 197.738281 L 299.292969 197.507812 L 299.742188 197.28125 L 300.191406 197.050781 L 301.539062 196.371094 L 301.992188 196.144531 L 302.441406 195.917969 L 302.890625 195.695312 L 303.339844 195.46875 L 304.238281 195.023438 L 304.691406 194.800781 L 305.589844 194.363281 L 306.039062 194.140625 L 306.488281 193.921875 L 306.9375 193.707031 L 307.390625 193.488281 L 309.636719 192.414062 L 310.089844 192.203125 L 310.988281 191.78125 L 311.4375 191.574219 L 311.886719 191.363281 L 312.335938 191.15625 L 312.789062 190.949219 L 313.238281 190.742188 L 313.6875 190.539062 L 314.136719 190.332031 L 314.585938 190.128906 L 315.035156 189.929688 L 315.488281 189.726562 L 317.285156 188.929688 L 317.738281 188.734375 L 318.636719 188.34375 L 319.984375 187.769531 L 320.4375 187.578125 L 320.886719 187.390625 L 321.335938 187.199219 L 321.785156 187.011719 L 322.234375 186.828125 L 322.683594 186.640625 L 323.136719 186.457031 L 323.585938 186.277344 L 324.035156 186.09375 L 325.382812 185.554688 L 325.835938 185.378906 L 326.734375 185.027344 L 328.082031 184.511719 L 328.535156 184.339844 L 329.882812 183.835938 L 330.78125 183.507812 L 331.234375 183.34375 L 332.582031 182.863281 L 333.480469 182.550781 L 333.933594 182.394531 L 334.382812 182.238281 L 334.832031 182.085938 L 335.28125 181.9375 L 335.730469 181.785156 L 336.179688 181.636719 L 336.632812 181.488281 L 337.980469 181.054688 L 338.429688 180.914062 L 338.878906 180.769531 L 339.332031 180.632812 L 339.78125 180.492188 L 340.230469 180.355469 L 340.679688 180.222656 L 341.128906 180.085938 L 341.578125 179.953125 L 342.03125 179.824219 L 343.378906 179.4375 L 344.277344 179.1875 L 344.730469 179.066406 L 345.628906 178.824219 L 346.527344 178.589844 L 346.980469 178.472656 L 347.878906 178.246094 L 349.226562 177.917969 L 349.679688 177.8125 L 350.578125 177.601562 L 351.476562 177.398438 L 351.925781 177.300781 L 352.378906 177.203125 L 352.828125 177.105469 L 353.726562 176.917969 L 354.625 176.738281 L 355.078125 176.648438 L 355.976562 176.476562 L 357.324219 176.230469 L 357.777344 176.152344 L 358.675781 175.996094 L 359.125 175.921875 L 360.023438 175.78125 L 360.476562 175.710938 L 360.925781 175.640625 L 361.375 175.574219 L 362.722656 175.386719 L 363.175781 175.324219 L 363.625 175.265625 L 364.972656 175.101562 L 365.421875 175.050781 L 365.875 175 L 366.324219 174.949219 L 366.773438 174.902344 L 368.121094 174.773438 L 368.574219 174.730469 L 369.023438 174.691406 L 370.371094 174.585938 L 370.820312 174.554688 L 371.273438 174.523438 L 372.621094 174.441406 L 373.519531 174.394531 L 373.972656 174.375 L 374.871094 174.335938 L 375.320312 174.320312 L 375.769531 174.308594 L 376.222656 174.296875 L 377.121094 174.273438 L 377.570312 174.269531 L 378.019531 174.261719 L 378.46875 174.257812 L 378.921875 174.253906 L 379.820312 174.253906 L 380.71875 174.261719 L 381.167969 174.269531 L 381.621094 174.273438 L 383.417969 174.320312 L 383.867188 174.335938 L 384.320312 174.355469 L 385.21875 174.394531 L 386.117188 174.441406 L 386.566406 174.46875 L 387.019531 174.496094 L 387.46875 174.523438 L 388.367188 174.585938 L 389.265625 174.65625 L 389.71875 174.691406 L 390.167969 174.730469 L 391.964844 174.902344 L 392.417969 174.949219 L 393.765625 175.101562 L 394.664062 175.210938 L 395.117188 175.265625 L 395.566406 175.324219 L 397.363281 175.574219 L 397.816406 175.640625 L 399.613281 175.921875 L 400.0625 175.996094 L 400.515625 176.074219 L 401.414062 176.230469 L 402.761719 176.476562 L 403.214844 176.5625 L 403.664062 176.648438 L 405.011719 176.917969 L 405.460938 177.011719 L 405.914062 177.105469 L 407.261719 177.398438 L 407.710938 177.5 L 408.164062 177.601562 L 409.511719 177.917969 L 410.410156 178.136719 L 410.863281 178.246094 L 411.761719 178.472656 L 413.109375 178.824219 L 413.5625 178.945312 L 414.460938 179.1875 L 415.359375 179.4375 L 415.808594 179.566406 L 416.261719 179.695312 L 417.160156 179.953125 L 417.609375 180.085938 L 418.058594 180.222656 L 418.507812 180.355469 L 418.960938 180.492188 L 419.410156 180.632812 L 419.859375 180.769531 L 420.308594 180.914062 L 420.757812 181.054688 L 421.207031 181.199219 L 421.660156 181.34375 L 422.109375 181.488281 L 423.007812 181.785156 L 423.457031 181.9375 L 423.90625 182.085938 L 424.359375 182.238281 L 426.15625 182.863281 L 426.605469 183.023438 L 427.058594 183.183594 L 427.507812 183.34375 L 428.855469 183.835938 L 429.304688 184.003906 L 429.757812 184.171875 L 430.207031 184.339844 L 432.003906 185.027344 L 432.457031 185.203125 L 433.355469 185.554688 L 434.703125 186.09375 L 435.15625 186.277344 L 435.605469 186.457031 L 436.054688 186.640625 L 436.503906 186.828125 L 436.953125 187.011719 L 437.40625 187.199219 L 437.855469 187.390625 L 438.304688 187.578125 L 439.652344 188.152344 L 440.105469 188.34375 L 441.453125 188.929688 L 442.351562 189.328125 L 442.804688 189.527344 L 443.253906 189.726562 L 443.703125 189.929688 L 444.152344 190.128906 L 444.601562 190.332031 L 445.050781 190.539062 L 445.503906 190.742188 L 446.851562 191.363281 L 447.300781 191.574219 L 447.75 191.78125 L 448.203125 191.992188 L 449.101562 192.414062 L 450.449219 193.058594 L 450.902344 193.273438 L 451.351562 193.488281 L 451.800781 193.707031 L 452.25 193.921875 L 452.699219 194.140625 L 453.148438 194.363281 L 453.601562 194.582031 L 454.050781 194.800781 L 455.398438 195.46875 L 455.847656 195.695312 L 456.300781 195.917969 L 458.546875 197.050781 L 459 197.28125 L 459.449219 197.507812 L 460.796875 198.199219 L 461.246094 198.433594 L 461.699219 198.664062 L 462.597656 199.132812 L 463.046875 199.363281 L 463.496094 199.601562 L 463.945312 199.835938 L 464.398438 200.070312 L 464.847656 200.308594 L 465.296875 200.542969 L 466.195312 201.019531 L 466.648438 201.257812 L 467.546875 201.734375 L 467.996094 201.976562 L 468.445312 202.214844 L 468.894531 202.457031 L 469.347656 202.695312 L 471.144531 203.664062 L 471.59375 203.910156 L 472.046875 204.152344 L 472.496094 204.398438 L 472.945312 204.640625 L 473.394531 204.886719 L 473.84375 205.128906 L 474.292969 205.375 L 474.746094 205.621094 L 476.09375 206.359375 L 476.542969 206.609375 L 476.992188 206.855469 L 477.445312 207.101562 L 477.894531 207.351562 L 478.34375 207.597656 L 478.792969 207.847656 L 479.242188 208.09375 L 479.691406 208.34375 L 480.144531 208.59375 L 482.390625 209.84375 L 482.84375 210.09375 L 484.640625 211.09375 L 485.089844 211.347656 L 485.542969 211.597656 L 486.441406 212.097656 L 486.890625 212.351562 L 487.339844 212.601562 L 487.789062 212.855469 L 488.242188 213.105469 L 488.691406 213.359375 L 489.589844 213.859375 L 490.039062 214.113281 L 490.488281 214.363281 L 490.941406 214.617188 L 491.390625 214.867188 L 491.839844 215.121094 L 492.289062 215.371094 L 492.738281 215.625 L 493.1875 215.875 L 493.640625 216.128906 L 494.089844 216.378906 L 494.539062 216.632812 L 494.988281 216.882812 L 495.4375 217.136719 L 495.890625 217.386719 L 496.339844 217.640625 L 497.238281 218.140625 L 497.6875 218.394531 L 498.136719 218.644531 L 498.589844 218.894531 L 499.039062 219.148438 L 500.835938 220.148438 L 501.289062 220.398438 L 501.738281 220.652344 L 502.1875 220.902344 L 502.636719 221.148438 L 503.535156 221.648438 L 503.988281 221.898438 L 504.886719 222.398438 L 505.335938 222.644531 L 505.785156 222.894531 L 506.234375 223.140625 L 506.6875 223.390625 L 507.585938 223.882812 L 508.035156 224.132812 L 508.933594 224.625 L 509.386719 224.871094 L 511.183594 225.855469 L 511.632812 226.097656 L 512.085938 226.34375 L 512.535156 226.585938 L 512.984375 226.832031 L 513.433594 227.074219 L 513.882812 227.320312 L 514.332031 227.5625 L 514.785156 227.804688 L 515.683594 228.289062 L 516.132812 228.527344 L 517.03125 229.011719 L 517.484375 229.25 L 517.933594 229.492188 L 519.730469 230.445312 L 520.183594 230.683594 L 520.632812 230.921875 L 521.082031 231.15625 L 521.53125 231.394531 L 521.980469 231.628906 L 522.429688 231.867188 L 522.882812 232.101562 L 524.230469 232.804688 L 524.679688 233.035156 L 525.128906 233.269531 L 525.582031 233.5 L 526.03125 233.734375 L 527.378906 234.425781 L 527.832031 234.65625 L 528.28125 234.882812 L 528.730469 235.113281 L 529.179688 235.339844 L 529.628906 235.570312 L 530.078125 235.796875 L 530.53125 236.023438 L 530.980469 236.25 L 531.429688 236.472656 L 531.878906 236.699219 L 532.328125 236.921875 L 532.777344 237.148438 L 533.230469 237.371094 L 534.128906 237.816406 L 534.578125 238.035156 L 535.027344 238.257812 L 535.476562 238.476562 L 535.929688 238.699219 L 537.277344 239.355469 L 537.726562 239.570312 L 538.175781 239.789062 L 538.628906 240.003906 L 540.425781 240.863281 L 540.875 241.074219 L 541.328125 241.289062 L 543.125 242.132812 L 543.574219 242.339844 L 544.027344 242.550781 L 545.824219 243.378906 L 546.273438 243.582031 L 546.726562 243.789062 L 548.074219 244.398438 L 548.523438 244.597656 L 548.972656 244.800781 L 549.425781 245 L 551.222656 245.796875 L 551.671875 245.992188 L 552.125 246.191406 L 553.472656 246.777344 L 553.921875 246.96875 L 554.371094 247.164062 L 554.824219 247.355469 L 555.722656 247.738281 L 556.171875 247.925781 L 556.621094 248.117188 L 557.074219 248.304688 L 558.871094 249.054688 L 559.320312 249.238281 L 559.773438 249.421875 L 561.121094 249.972656 L 561.570312 250.152344 L 562.019531 250.335938 L 562.472656 250.515625 L 562.921875 250.695312 L 563.371094 250.871094 L 563.820312 251.050781 L 564.71875 251.402344 L 565.171875 251.578125 L 566.070312 251.929688 L 566.519531 252.101562 L 566.96875 252.277344 L 567.417969 252.449219 L 567.871094 252.617188 L 568.769531 252.960938 L 570.117188 253.464844 L 570.570312 253.632812 L 571.46875 253.960938 L 571.917969 254.128906 L 572.367188 254.292969 L 572.816406 254.453125 L 573.269531 254.617188 L 574.167969 254.9375 L 574.617188 255.101562 L 575.066406 255.257812 L 575.515625 255.417969 L 575.96875 255.574219 L 576.417969 255.734375 L 577.316406 256.046875 L 577.765625 256.199219 L 578.214844 256.355469 L 578.667969 256.507812 L 580.015625 256.964844 L 580.464844 257.113281 L 580.914062 257.265625 L 581.367188 257.414062 L 582.265625 257.710938 L 582.714844 257.855469 L 583.164062 258.003906 L 583.613281 258.148438 L 584.066406 258.292969 L 584.515625 258.4375 L 584.964844 258.578125 L 585.414062 258.722656 L 585.863281 258.863281 L 586.316406 259.003906 L 587.664062 259.425781 L 588.5625 259.699219 L 589.015625 259.835938 L 589.464844 259.972656 L 589.914062 260.105469 L 590.363281 260.242188 L 591.261719 260.507812 L 591.714844 260.640625 L 592.164062 260.773438 L 592.613281 260.902344 L 593.0625 261.035156 L 593.960938 261.292969 L 594.414062 261.417969 L 594.863281 261.546875 L 595.3125 261.671875 L 595.761719 261.800781 L 596.660156 262.050781 L 597.113281 262.171875 L 597.5625 262.296875 L 599.359375 262.78125 L 599.8125 262.902344 L 600.710938 263.136719 L 601.160156 263.257812 L 601.609375 263.375 L 602.058594 263.488281 L 602.511719 263.605469 L 604.757812 264.171875 L 605.210938 264.285156 L 607.457031 264.832031 L 607.910156 264.9375 L 608.359375 265.042969 L 608.808594 265.152344 L 609.257812 265.257812 L 609.707031 265.359375 L 610.15625 265.464844 L 610.609375 265.570312 L 612.855469 266.078125 L 613.308594 266.175781 L 613.757812 266.277344 L 615.105469 266.570312 L 615.558594 266.664062 L 616.007812 266.761719 L 616.90625 266.949219 L 617.355469 267.046875 L 617.804688 267.136719 L 618.257812 267.230469 L 618.707031 267.324219 L 619.15625 267.414062 L 619.605469 267.507812 L 620.503906 267.6875 L 620.957031 267.773438 L 621.855469 267.953125 L 623.203125 268.210938 L 623.65625 268.296875 L 624.554688 268.46875 L 625.453125 268.632812 L 625.902344 268.71875 L 626.355469 268.800781 L 626.804688 268.878906 L 627.703125 269.042969 L 628.601562 269.199219 L 629.054688 269.28125 L 629.953125 269.4375 L 630.402344 269.511719 L 630.851562 269.589844 L 631.300781 269.664062 L 631.753906 269.742188 L 633.550781 270.039062 L 634 270.109375 L 634.453125 270.183594 L 636.699219 270.535156 L 637.152344 270.605469 L 637.601562 270.671875 L 638.050781 270.742188 L 639.398438 270.941406 L 639.851562 271.007812 L 640.75 271.140625 L 641.199219 271.203125 L 641.648438 271.269531 L 642.097656 271.332031 L 642.550781 271.394531 L 644.347656 271.644531 L 644.800781 271.703125 L 645.25 271.765625 L 647.046875 272 L 647.5 272.058594 L 647.949219 272.117188 L 648.398438 272.171875 L 648.847656 272.230469 L 649.746094 272.339844 L 650.199219 272.398438 L 651.097656 272.507812 L 651.546875 272.558594 L 652.445312 272.667969 L 652.898438 272.71875 L 653.347656 272.773438 L 655.144531 272.976562 L 655.597656 273.027344 L 656.046875 273.078125 L 656.496094 273.125 L 656.945312 273.175781 L 657.394531 273.222656 L 657.84375 273.273438 L 658.296875 273.320312 L 660.542969 273.554688 L 660.996094 273.597656 L 661.445312 273.644531 L 662.34375 273.730469 L 662.792969 273.777344 L 663.242188 273.820312 L 663.695312 273.863281 L 665.042969 273.992188 L 665.492188 274.03125 L 665.941406 274.074219 L 666.394531 274.113281 L 666.84375 274.15625 L 668.640625 274.3125 L 669.09375 274.351562 L 670.441406 274.46875 L 670.890625 274.503906 L 671.339844 274.542969 L 671.792969 274.578125 L 672.242188 274.617188 L 674.039062 274.757812 L 674.492188 274.792969 L 676.289062 274.933594 L 676.742188 274.964844 L 677.191406 275 L 678.089844 275.0625 L 678.539062 275.097656 L 678.988281 275.128906 L 679.441406 275.160156 L 681.238281 275.285156 L 681.6875 275.3125 L 682.140625 275.34375 L 682.589844 275.375 L 683.039062 275.402344 L 683.488281 275.433594 L 684.386719 275.488281 L 684.839844 275.519531 L 687.085938 275.65625 L 687.539062 275.683594 L 687.988281 275.710938 L 688.4375 275.734375 L 689.335938 275.789062 L 689.785156 275.8125 L 690.238281 275.839844 L 691.136719 275.886719 L 691.585938 275.914062 L 692.484375 275.960938 L 692.9375 275.984375 L 695.183594 276.101562 L 695.636719 276.125 L 696.085938 276.144531 L 696.984375 276.191406 L 697.433594 276.210938 L 697.882812 276.234375 L 698.335938 276.253906 L 698.785156 276.273438 L 699.234375 276.296875 L 700.582031 276.355469 L 701.035156 276.378906 L 702.832031 276.457031 L 703.28125 276.472656 L 703.734375 276.492188 L 704.632812 276.53125 L 705.082031 276.546875 L 705.53125 276.566406 L 705.984375 276.585938 L 706.433594 276.601562 L 706.882812 276.621094 L 707.78125 276.652344 L 708.230469 276.671875 L 708.683594 276.6875 L 709.132812 276.703125 L 709.582031 276.722656 L 710.929688 276.769531 L 711.382812 276.785156 L 713.628906 276.863281 L 714.082031 276.875 L 715.429688 276.921875 L 715.878906 276.933594 L 716.328125 276.949219 L 716.78125 276.960938 L 716.78125 278.117188 L 41.960938 278.117188 Z M 41.960938 276.960938 "/>
<g clip-path="url(#clip1)" clip-rule="nonzero">
<path style="fill:none;stroke-width:1.066978;stroke-linecap:butt;stroke-linejoin:round;stroke:rgb(0%,0%,0%);stroke-opacity:1;stroke-miterlimit:10;" d="M 8.21875 278.117188 L 750.519531 278.117188 "/>
</g>
<g clip-path="url(#clip2)" clip-rule="nonzero">
<path style="fill:none;stroke-width:2.133957;stroke-linecap:butt;stroke-linejoin:round;stroke:rgb(0%,0%,0%);stroke-opacity:1;stroke-dasharray:8.535827,8.535827;stroke-miterlimit:10;" d="M 379.371094 291.097656 L 379.371094 5.480469 "/>
</g>
<path style=" stroke:none;fill-rule:nonzero;fill:rgb(30.196078%,30.196078%,30.196078%);fill-opacity:1;" d="M 381.195312 296.03125 L 381.335938 296.03125 L 381.472656 296.039062 L 381.605469 296.046875 L 381.738281 296.0625 L 381.867188 296.078125 L 382.117188 296.125 L 382.359375 296.1875 L 382.476562 296.226562 L 382.589844 296.265625 L 382.699219 296.308594 L 382.804688 296.351562 L 382.910156 296.402344 L 383.011719 296.457031 L 383.105469 296.511719 L 383.199219 296.570312 L 383.378906 296.703125 L 383.460938 296.773438 L 383.542969 296.847656 L 383.617188 296.921875 L 383.691406 297.003906 L 383.761719 297.089844 L 383.824219 297.175781 L 383.886719 297.265625 L 383.945312 297.359375 L 384 297.457031 L 384.050781 297.558594 L 384.097656 297.660156 L 384.140625 297.769531 L 384.210938 297.988281 L 384.265625 298.222656 L 384.285156 298.34375 L 384.300781 298.464844 L 384.3125 298.59375 L 384.320312 298.722656 L 384.320312 298.851562 L 384.316406 299.035156 L 384.308594 299.214844 L 384.296875 299.386719 L 384.277344 299.554688 L 384.25 299.71875 L 384.21875 299.875 L 384.183594 300.027344 L 384.140625 300.175781 L 384.089844 300.316406 L 384.039062 300.453125 L 383.980469 300.585938 L 383.921875 300.710938 L 383.859375 300.835938 L 383.792969 300.953125 L 383.722656 301.066406 L 383.574219 301.285156 L 383.492188 301.386719 L 383.410156 301.484375 L 383.324219 301.578125 L 383.144531 301.75 L 382.957031 301.90625 L 382.859375 301.980469 L 382.761719 302.050781 L 382.558594 302.175781 L 382.453125 302.234375 L 382.347656 302.289062 L 382.136719 302.390625 L 382.035156 302.433594 L 381.929688 302.476562 L 381.824219 302.515625 L 381.722656 302.550781 L 381.621094 302.582031 L 381.515625 302.613281 L 381.3125 302.660156 L 381.304688 302.757812 L 381.402344 302.78125 L 381.589844 302.835938 L 381.683594 302.867188 L 381.863281 302.9375 L 381.953125 302.976562 L 382.039062 303.019531 L 382.128906 303.0625 L 382.210938 303.109375 L 382.292969 303.160156 L 382.375 303.214844 L 382.453125 303.269531 L 382.527344 303.328125 L 382.601562 303.390625 L 382.671875 303.453125 L 382.742188 303.519531 L 382.808594 303.589844 L 382.871094 303.660156 L 382.933594 303.734375 L 382.996094 303.8125 L 383.054688 303.890625 L 383.109375 303.96875 L 383.164062 304.054688 L 383.210938 304.140625 L 383.261719 304.230469 L 383.304688 304.320312 L 383.347656 304.417969 L 383.386719 304.515625 L 383.421875 304.613281 L 383.457031 304.714844 L 383.511719 304.925781 L 383.535156 305.03125 L 383.554688 305.144531 L 383.570312 305.257812 L 383.582031 305.375 L 383.589844 305.492188 L 383.597656 305.613281 L 383.597656 305.738281 L 383.59375 305.957031 L 383.585938 306.171875 L 383.566406 306.382812 L 383.542969 306.585938 L 383.511719 306.789062 L 383.472656 306.980469 L 383.425781 307.171875 L 383.375 307.355469 L 383.3125 307.535156 L 383.246094 307.710938 L 383.171875 307.878906 L 383.09375 308.039062 L 383.011719 308.195312 L 382.921875 308.347656 L 382.828125 308.492188 L 382.726562 308.632812 L 382.621094 308.769531 L 382.507812 308.902344 L 382.390625 309.027344 L 382.269531 309.144531 L 382.144531 309.257812 L 382.015625 309.363281 L 381.878906 309.464844 L 381.742188 309.5625 L 381.597656 309.652344 L 381.449219 309.734375 L 381.292969 309.8125 L 381.136719 309.886719 L 380.972656 309.953125 L 380.804688 310.015625 L 380.636719 310.070312 L 380.464844 310.121094 L 380.289062 310.164062 L 380.109375 310.203125 L 379.929688 310.234375 L 379.746094 310.261719 L 379.558594 310.28125 L 379.367188 310.296875 L 379.175781 310.304688 L 378.980469 310.308594 L 378.828125 310.304688 L 378.679688 310.300781 L 378.53125 310.292969 L 378.386719 310.285156 L 378.242188 310.269531 L 378.101562 310.253906 L 377.960938 310.234375 L 377.824219 310.214844 L 377.6875 310.1875 L 377.554688 310.160156 L 377.425781 310.132812 L 377.300781 310.097656 L 377.183594 310.066406 L 377.070312 310.03125 L 376.960938 309.996094 L 376.855469 309.957031 L 376.757812 309.917969 L 376.664062 309.875 L 376.574219 309.835938 L 376.488281 309.789062 L 375.679688 314.371094 L 374.066406 314.371094 L 376.429688 300.921875 L 376.480469 300.644531 L 376.535156 300.378906 L 376.59375 300.121094 L 376.65625 299.871094 L 376.722656 299.632812 L 376.789062 299.402344 L 376.863281 299.183594 L 376.941406 298.972656 L 377.019531 298.769531 L 377.105469 298.578125 L 377.191406 298.394531 L 377.28125 298.21875 L 377.378906 298.050781 L 377.472656 297.886719 L 377.574219 297.734375 L 377.679688 297.585938 L 377.789062 297.449219 L 377.898438 297.316406 L 378.011719 297.191406 L 378.128906 297.074219 L 378.253906 296.964844 L 378.378906 296.863281 L 378.507812 296.765625 L 378.640625 296.675781 L 378.773438 296.59375 L 378.914062 296.515625 L 379.054688 296.445312 L 379.199219 296.382812 L 379.347656 296.324219 L 379.496094 296.273438 L 379.652344 296.226562 L 379.972656 296.148438 L 380.140625 296.117188 L 380.308594 296.089844 L 380.652344 296.050781 L 380.832031 296.039062 L 381.011719 296.03125 Z M 381.089844 296.8125 L 380.972656 296.8125 L 380.855469 296.820312 L 380.742188 296.828125 L 380.632812 296.839844 L 380.523438 296.855469 L 380.417969 296.875 L 380.316406 296.898438 L 380.214844 296.925781 L 380.121094 296.953125 L 380.023438 296.988281 L 379.933594 297.023438 L 379.84375 297.066406 L 379.757812 297.113281 L 379.671875 297.167969 L 379.585938 297.230469 L 379.503906 297.296875 L 379.425781 297.367188 L 379.347656 297.445312 L 379.269531 297.53125 L 379.195312 297.621094 L 379.121094 297.71875 L 379.050781 297.820312 L 378.984375 297.929688 L 378.917969 298.046875 L 378.851562 298.167969 L 378.789062 298.300781 L 378.726562 298.4375 L 378.664062 298.582031 L 378.605469 298.734375 L 378.550781 298.890625 L 378.492188 299.054688 L 378.4375 299.230469 L 378.386719 299.414062 L 378.332031 299.605469 L 378.28125 299.808594 L 378.230469 300.019531 L 378.183594 300.242188 L 378.132812 300.472656 L 378.085938 300.710938 L 378.042969 300.960938 L 376.625 308.988281 L 376.660156 309.007812 L 376.699219 309.023438 L 376.738281 309.042969 L 376.816406 309.074219 L 376.859375 309.089844 L 376.902344 309.109375 L 376.988281 309.140625 L 377.082031 309.171875 L 377.132812 309.1875 L 377.179688 309.203125 L 377.230469 309.214844 L 377.382812 309.261719 L 377.4375 309.273438 L 377.488281 309.289062 L 377.542969 309.300781 L 377.601562 309.316406 L 377.65625 309.328125 L 377.773438 309.351562 L 377.835938 309.363281 L 377.894531 309.375 L 377.953125 309.382812 L 378.015625 309.390625 L 378.078125 309.402344 L 378.203125 309.417969 L 378.265625 309.421875 L 378.328125 309.429688 L 378.453125 309.4375 L 378.519531 309.441406 L 378.582031 309.445312 L 378.644531 309.445312 L 378.710938 309.449219 L 378.773438 309.449219 L 378.910156 309.445312 L 379.042969 309.4375 L 379.171875 309.425781 L 379.300781 309.410156 L 379.429688 309.386719 L 379.550781 309.359375 L 379.671875 309.328125 L 379.792969 309.292969 L 379.910156 309.25 L 380.023438 309.203125 L 380.136719 309.152344 L 380.246094 309.097656 L 380.355469 309.035156 L 380.457031 308.972656 L 380.558594 308.902344 L 380.65625 308.828125 L 380.75 308.746094 L 380.839844 308.664062 L 380.925781 308.574219 L 381.011719 308.480469 L 381.09375 308.382812 L 381.171875 308.28125 L 381.246094 308.171875 L 381.316406 308.0625 L 381.382812 307.945312 L 381.445312 307.824219 L 381.503906 307.695312 L 381.558594 307.566406 L 381.609375 307.429688 L 381.65625 307.289062 L 381.699219 307.144531 L 381.738281 306.996094 L 381.773438 306.84375 L 381.804688 306.683594 L 381.832031 306.523438 L 381.851562 306.355469 L 381.867188 306.1875 L 381.878906 306.011719 L 381.886719 305.832031 L 381.890625 305.648438 L 381.882812 305.410156 L 381.863281 305.1875 L 381.828125 304.972656 L 381.78125 304.769531 L 381.722656 304.582031 L 381.648438 304.40625 L 381.558594 304.242188 L 381.457031 304.089844 L 381.34375 303.949219 L 381.214844 303.824219 L 381.078125 303.707031 L 380.929688 303.601562 L 380.769531 303.507812 L 380.601562 303.425781 L 380.425781 303.355469 L 380.234375 303.292969 L 380.035156 303.242188 L 379.828125 303.203125 L 379.609375 303.175781 L 379.378906 303.160156 L 379.515625 302.398438 L 379.6875 302.394531 L 379.855469 302.382812 L 380.019531 302.367188 L 380.175781 302.34375 L 380.328125 302.316406 L 380.472656 302.28125 L 380.613281 302.242188 L 380.746094 302.195312 L 380.875 302.144531 L 381 302.085938 L 381.121094 302.023438 L 381.238281 301.957031 L 381.347656 301.886719 L 381.457031 301.808594 L 381.558594 301.730469 L 381.65625 301.648438 L 381.746094 301.5625 L 381.835938 301.46875 L 381.917969 301.375 L 381.996094 301.273438 L 382.070312 301.171875 L 382.140625 301.066406 L 382.207031 300.957031 L 382.324219 300.730469 L 382.375 300.613281 L 382.425781 300.492188 L 382.46875 300.367188 L 382.507812 300.242188 L 382.542969 300.113281 L 382.578125 299.980469 L 382.632812 299.714844 L 382.65625 299.578125 L 382.675781 299.445312 L 382.691406 299.304688 L 382.703125 299.167969 L 382.71875 298.886719 L 382.71875 298.640625 L 382.714844 298.535156 L 382.707031 298.4375 L 382.699219 298.34375 L 382.683594 298.25 L 382.671875 298.160156 L 382.652344 298.074219 L 382.632812 297.992188 L 382.609375 297.914062 L 382.582031 297.835938 L 382.554688 297.765625 L 382.523438 297.695312 L 382.460938 297.5625 L 382.425781 297.503906 L 382.386719 297.445312 L 382.308594 297.335938 L 382.222656 297.242188 L 382.175781 297.195312 L 382.128906 297.152344 L 382.082031 297.113281 L 382.03125 297.074219 L 381.980469 297.042969 L 381.925781 297.007812 L 381.875 296.980469 L 381.816406 296.953125 L 381.761719 296.929688 L 381.644531 296.890625 L 381.527344 296.859375 L 381.402344 296.835938 L 381.339844 296.828125 L 381.28125 296.820312 L 381.214844 296.816406 L 381.152344 296.8125 Z M 381.089844 296.8125 "/>
</g>
</svg>
