<?xml version="1.0" encoding="UTF-8"?>
<svg xmlns="http://www.w3.org/2000/svg" xmlns:xlink="http://www.w3.org/1999/xlink" width="756pt" height="504pt" viewBox="0 0 756 504" version="1.1">
<defs>
<clipPath id="clip1">
  <path d="M 8.21875 427 L 750.519531 427 L 750.519531 429 L 8.21875 429 Z M 8.21875 427 "/>
</clipPath>
<clipPath id="clip2">
  <path d="M 378 5.480469 L 381 5.480469 L 381 448.609375 L 378 448.609375 Z M 378 5.480469 "/>
</clipPath>
</defs>
<g id="surface44">
<rect x="0" y="0" width="756" height="504" style="fill:rgb(100%,100%,100%);fill-opacity:1;stroke:none;"/>
<path style=" stroke:none;fill-rule:nonzero;fill:rgb(90.196078%,25.490196%,45.098039%);fill-opacity:0.901961;" d="M 41.960938 428.332031 L 42.804688 428.324219 L 43.648438 428.320312 L 44.492188 428.3125 L 45.335938 428.308594 L 46.179688 428.300781 L 47.019531 428.292969 L 47.863281 428.289062 L 52.925781 428.242188 L 53.769531 428.230469 L 55.457031 428.214844 L 57.144531 428.191406 L 57.988281 428.183594 L 60.519531 428.148438 L 61.359375 428.136719 L 62.203125 428.125 L 63.046875 428.109375 L 63.890625 428.097656 L 65.578125 428.066406 L 66.421875 428.054688 L 67.265625 428.039062 L 68.109375 428.019531 L 69.796875 427.988281 L 71.484375 427.949219 L 72.328125 427.933594 L 73.171875 427.910156 L 74.859375 427.871094 L 75.699219 427.847656 L 79.074219 427.753906 L 83.292969 427.617188 L 84.980469 427.554688 L 85.824219 427.519531 L 86.667969 427.488281 L 89.199219 427.382812 L 90.042969 427.34375 L 90.882812 427.304688 L 91.726562 427.265625 L 94.257812 427.136719 L 95.945312 427.042969 L 99.320312 426.839844 L 100.164062 426.785156 L 102.695312 426.609375 L 104.382812 426.484375 L 105.222656 426.417969 L 106.066406 426.351562 L 106.910156 426.28125 L 107.753906 426.207031 L 108.597656 426.136719 L 110.285156 425.980469 L 111.972656 425.816406 L 113.660156 425.644531 L 114.503906 425.554688 L 116.191406 425.367188 L 117.035156 425.269531 L 117.878906 425.167969 L 118.722656 425.0625 L 119.5625 424.957031 L 120.40625 424.847656 L 122.09375 424.621094 L 123.78125 424.378906 L 124.625 424.253906 L 125.46875 424.125 L 126.3125 423.992188 L 127.15625 423.855469 L 128 423.714844 L 129.6875 423.425781 L 130.53125 423.273438 L 131.375 423.117188 L 133.0625 422.796875 L 133.902344 422.628906 L 134.746094 422.457031 L 136.433594 422.097656 L 137.277344 421.914062 L 138.121094 421.722656 L 138.964844 421.527344 L 140.652344 421.121094 L 141.496094 420.910156 L 142.339844 420.695312 L 143.183594 420.472656 L 144.027344 420.246094 L 144.871094 420.015625 L 145.714844 419.777344 L 146.558594 419.535156 L 147.402344 419.285156 L 148.246094 419.027344 L 149.085938 418.765625 L 149.929688 418.5 L 151.617188 417.945312 L 152.460938 417.65625 L 153.304688 417.363281 L 154.148438 417.0625 L 154.992188 416.753906 L 155.835938 416.4375 L 156.679688 416.113281 L 157.523438 415.785156 L 158.367188 415.449219 L 159.210938 415.101562 L 160.054688 414.75 L 160.898438 414.390625 L 161.742188 414.019531 L 162.585938 413.644531 L 163.425781 413.257812 L 164.269531 412.867188 L 165.113281 412.464844 L 165.957031 412.054688 L 166.800781 411.632812 L 167.644531 411.203125 L 168.488281 410.765625 L 169.332031 410.320312 L 170.175781 409.863281 L 171.019531 409.398438 L 171.863281 408.921875 L 172.707031 408.433594 L 173.550781 407.9375 L 174.394531 407.433594 L 175.238281 406.917969 L 176.082031 406.390625 L 176.925781 405.851562 L 177.765625 405.304688 L 178.609375 404.746094 L 179.453125 404.175781 L 180.296875 403.59375 L 181.140625 403 L 181.984375 402.398438 L 182.828125 401.78125 L 183.671875 401.152344 L 184.515625 400.515625 L 185.359375 399.863281 L 186.203125 399.199219 L 187.046875 398.523438 L 187.890625 397.832031 L 188.734375 397.128906 L 189.578125 396.417969 L 190.421875 395.6875 L 191.265625 394.949219 L 192.109375 394.195312 L 192.949219 393.425781 L 193.792969 392.644531 L 194.636719 391.851562 L 195.480469 391.039062 L 196.324219 390.21875 L 197.167969 389.382812 L 198.011719 388.53125 L 198.855469 387.664062 L 199.699219 386.78125 L 200.542969 385.886719 L 201.386719 384.976562 L 202.230469 384.050781 L 203.074219 383.113281 L 203.917969 382.15625 L 204.761719 381.1875 L 205.605469 380.199219 L 206.449219 379.195312 L 207.289062 378.179688 L 208.132812 377.144531 L 208.976562 376.09375 L 209.820312 375.03125 L 210.664062 373.945312 L 211.507812 372.847656 L 212.351562 371.734375 L 213.195312 370.601562 L 214.039062 369.453125 L 214.882812 368.289062 L 215.726562 367.105469 L 216.570312 365.90625 L 217.414062 364.691406 L 218.257812 363.457031 L 219.101562 362.207031 L 219.945312 360.941406 L 220.789062 359.65625 L 221.628906 358.355469 L 222.472656 357.035156 L 223.316406 355.695312 L 224.160156 354.339844 L 225.003906 352.96875 L 225.847656 351.578125 L 226.691406 350.171875 L 227.535156 348.742188 L 228.378906 347.300781 L 229.222656 345.839844 L 230.066406 344.359375 L 230.910156 342.859375 L 231.753906 341.34375 L 232.597656 339.8125 L 233.441406 338.261719 L 234.285156 336.691406 L 235.128906 335.101562 L 235.972656 333.496094 L 236.8125 331.875 L 237.65625 330.234375 L 238.5 328.574219 L 239.34375 326.894531 L 240.1875 325.199219 L 241.03125 323.488281 L 241.875 321.757812 L 242.71875 320.007812 L 243.5625 318.242188 L 244.40625 316.460938 L 245.25 314.660156 L 246.09375 312.839844 L 246.9375 311.007812 L 247.78125 309.152344 L 248.625 307.285156 L 249.46875 305.398438 L 250.3125 303.492188 L 251.152344 301.574219 L 251.996094 299.636719 L 252.839844 297.683594 L 253.683594 295.710938 L 254.527344 293.726562 L 255.371094 291.722656 L 256.214844 289.707031 L 257.058594 287.671875 L 257.902344 285.621094 L 258.746094 283.558594 L 259.589844 281.476562 L 260.433594 279.382812 L 261.277344 277.273438 L 262.121094 275.148438 L 262.964844 273.011719 L 263.808594 270.859375 L 264.652344 268.695312 L 265.492188 266.515625 L 266.335938 264.320312 L 267.179688 262.113281 L 268.023438 259.894531 L 268.867188 257.664062 L 269.710938 255.421875 L 270.554688 253.164062 L 271.398438 250.898438 L 272.242188 248.621094 L 273.085938 246.332031 L 273.929688 244.03125 L 274.773438 241.71875 L 275.617188 239.398438 L 276.460938 237.070312 L 277.304688 234.730469 L 278.148438 232.378906 L 278.992188 230.023438 L 279.835938 227.65625 L 280.675781 225.285156 L 281.519531 222.902344 L 282.363281 220.515625 L 283.207031 218.121094 L 284.050781 215.71875 L 284.894531 213.3125 L 285.738281 210.902344 L 286.582031 208.484375 L 287.425781 206.0625 L 288.269531 203.636719 L 289.113281 201.203125 L 289.957031 198.773438 L 291.644531 193.898438 L 293.332031 189.015625 L 294.175781 186.570312 L 295.015625 184.128906 L 295.859375 181.683594 L 298.390625 174.359375 L 300.078125 169.484375 L 301.765625 164.625 L 302.609375 162.199219 L 303.453125 159.777344 L 304.296875 157.363281 L 305.140625 154.953125 L 305.984375 152.550781 L 306.828125 150.152344 L 307.671875 147.761719 L 308.515625 145.378906 L 309.355469 143.007812 L 310.199219 140.640625 L 311.042969 138.285156 L 311.886719 135.941406 L 312.730469 133.605469 L 313.574219 131.28125 L 314.417969 128.96875 L 315.261719 126.671875 L 316.105469 124.382812 L 316.949219 122.109375 L 317.792969 119.847656 L 318.636719 117.605469 L 319.480469 115.375 L 320.324219 113.15625 L 321.167969 110.957031 L 322.011719 108.777344 L 322.855469 106.613281 L 323.695312 104.464844 L 324.539062 102.335938 L 325.382812 100.222656 L 326.226562 98.132812 L 327.070312 96.0625 L 327.914062 94.011719 L 328.757812 91.980469 L 329.601562 89.972656 L 330.445312 87.988281 L 331.289062 86.023438 L 332.132812 84.085938 L 332.976562 82.167969 L 333.820312 80.277344 L 334.664062 78.40625 L 335.507812 76.566406 L 336.351562 74.746094 L 337.195312 72.957031 L 338.039062 71.191406 L 338.878906 69.457031 L 339.722656 67.746094 L 340.566406 66.066406 L 341.410156 64.414062 L 342.253906 62.789062 L 343.097656 61.195312 L 343.941406 59.628906 L 344.785156 58.097656 L 345.628906 56.59375 L 346.472656 55.121094 L 347.316406 53.683594 L 348.160156 52.273438 L 349.003906 50.898438 L 349.847656 49.554688 L 350.691406 48.246094 L 351.535156 46.96875 L 352.378906 45.726562 L 353.21875 44.519531 L 354.0625 43.347656 L 354.90625 42.210938 L 355.75 41.109375 L 356.59375 40.039062 L 357.4375 39.011719 L 358.28125 38.015625 L 359.125 37.058594 L 359.96875 36.136719 L 360.8125 35.253906 L 361.65625 34.40625 L 362.5 33.597656 L 363.34375 32.828125 L 364.1875 32.09375 L 365.03125 31.402344 L 365.875 30.746094 L 366.71875 30.128906 L 367.558594 29.550781 L 368.402344 29.011719 L 369.246094 28.511719 L 370.089844 28.050781 L 370.933594 27.632812 L 371.777344 27.25 L 372.621094 26.910156 L 373.464844 26.609375 L 374.308594 26.347656 L 375.152344 26.125 L 375.996094 25.945312 L 376.839844 25.804688 L 377.683594 25.703125 L 378.527344 25.640625 L 379.371094 25.621094 L 380.214844 25.640625 L 381.058594 25.703125 L 381.902344 25.804688 L 382.742188 25.945312 L 383.585938 26.125 L 384.429688 26.347656 L 385.273438 26.609375 L 386.117188 26.910156 L 386.960938 27.25 L 387.804688 27.632812 L 388.648438 28.050781 L 389.492188 28.511719 L 390.335938 29.011719 L 391.179688 29.550781 L 392.023438 30.128906 L 392.867188 30.746094 L 393.710938 31.402344 L 394.554688 32.09375 L 395.398438 32.828125 L 396.242188 33.597656 L 397.082031 34.40625 L 397.925781 35.253906 L 398.769531 36.136719 L 399.613281 37.058594 L 400.457031 38.015625 L 401.300781 39.011719 L 402.144531 40.039062 L 402.988281 41.109375 L 403.832031 42.210938 L 404.675781 43.347656 L 405.519531 44.519531 L 406.363281 45.726562 L 407.207031 46.96875 L 408.050781 48.246094 L 408.894531 49.554688 L 409.738281 50.898438 L 410.582031 52.273438 L 411.421875 53.683594 L 412.265625 55.121094 L 413.109375 56.59375 L 413.953125 58.097656 L 414.796875 59.628906 L 415.640625 61.195312 L 416.484375 62.789062 L 417.328125 64.414062 L 418.171875 66.066406 L 419.015625 67.746094 L 419.859375 69.457031 L 420.703125 71.191406 L 421.546875 72.957031 L 422.390625 74.746094 L 423.234375 76.566406 L 424.078125 78.40625 L 424.921875 80.277344 L 425.765625 82.167969 L 426.605469 84.085938 L 427.449219 86.023438 L 428.292969 87.988281 L 429.136719 89.972656 L 429.980469 91.980469 L 430.824219 94.011719 L 431.667969 96.0625 L 432.511719 98.132812 L 433.355469 100.222656 L 434.199219 102.335938 L 435.042969 104.464844 L 435.886719 106.613281 L 436.730469 108.777344 L 437.574219 110.957031 L 438.417969 113.15625 L 439.261719 115.375 L 440.105469 117.605469 L 440.945312 119.847656 L 441.789062 122.109375 L 442.632812 124.382812 L 443.476562 126.671875 L 444.320312 128.96875 L 445.164062 131.28125 L 446.007812 133.605469 L 446.851562 135.941406 L 447.695312 138.285156 L 448.539062 140.640625 L 449.382812 143.007812 L 450.226562 145.378906 L 451.070312 147.761719 L 451.914062 150.152344 L 452.757812 152.550781 L 453.601562 154.953125 L 454.445312 157.363281 L 455.285156 159.777344 L 456.128906 162.199219 L 456.972656 164.625 L 458.660156 169.484375 L 460.347656 174.359375 L 462.878906 181.683594 L 463.722656 184.128906 L 464.566406 186.570312 L 465.410156 189.015625 L 467.097656 193.898438 L 468.785156 198.773438 L 469.628906 201.203125 L 470.46875 203.636719 L 471.3125 206.0625 L 472.15625 208.484375 L 473 210.902344 L 473.84375 213.3125 L 474.6875 215.71875 L 475.53125 218.121094 L 476.375 220.515625 L 477.21875 222.902344 L 478.0625 225.285156 L 478.90625 227.65625 L 479.75 230.023438 L 480.59375 232.378906 L 481.4375 234.730469 L 482.28125 237.070312 L 483.125 239.398438 L 483.96875 241.71875 L 484.808594 244.03125 L 485.652344 246.332031 L 486.496094 248.621094 L 487.339844 250.898438 L 488.183594 253.164062 L 489.027344 255.421875 L 489.871094 257.664062 L 490.714844 259.894531 L 491.558594 262.113281 L 492.402344 264.320312 L 493.246094 266.515625 L 494.089844 268.695312 L 494.933594 270.859375 L 495.777344 273.011719 L 496.621094 275.148438 L 497.464844 277.273438 L 498.308594 279.382812 L 499.148438 281.476562 L 499.992188 283.558594 L 500.835938 285.621094 L 501.679688 287.671875 L 502.523438 289.707031 L 503.367188 291.722656 L 504.210938 293.726562 L 505.054688 295.710938 L 505.898438 297.683594 L 506.742188 299.636719 L 507.585938 301.574219 L 508.429688 303.492188 L 509.273438 305.398438 L 510.117188 307.285156 L 510.960938 309.152344 L 511.804688 311.007812 L 512.648438 312.839844 L 513.488281 314.660156 L 514.332031 316.460938 L 515.175781 318.242188 L 516.019531 320.007812 L 516.863281 321.757812 L 517.707031 323.488281 L 518.550781 325.199219 L 519.394531 326.894531 L 520.238281 328.574219 L 521.082031 330.234375 L 521.925781 331.875 L 522.769531 333.496094 L 523.613281 335.101562 L 524.457031 336.691406 L 525.300781 338.261719 L 526.144531 339.8125 L 526.988281 341.34375 L 527.832031 342.859375 L 528.671875 344.359375 L 529.515625 345.839844 L 530.359375 347.300781 L 531.203125 348.742188 L 532.046875 350.171875 L 532.890625 351.578125 L 533.734375 352.96875 L 534.578125 354.339844 L 535.421875 355.695312 L 536.265625 357.035156 L 537.109375 358.355469 L 537.953125 359.65625 L 538.796875 360.941406 L 539.640625 362.207031 L 540.484375 363.457031 L 541.328125 364.691406 L 542.171875 365.90625 L 543.011719 367.105469 L 543.855469 368.289062 L 544.699219 369.453125 L 545.542969 370.601562 L 546.386719 371.734375 L 547.230469 372.847656 L 548.074219 373.945312 L 548.917969 375.03125 L 549.761719 376.09375 L 550.605469 377.144531 L 551.449219 378.179688 L 552.292969 379.195312 L 553.136719 380.199219 L 553.980469 381.1875 L 554.824219 382.15625 L 555.667969 383.113281 L 556.511719 384.050781 L 557.351562 384.976562 L 558.195312 385.886719 L 559.039062 386.78125 L 559.882812 387.664062 L 560.726562 388.53125 L 561.570312 389.382812 L 562.414062 390.21875 L 563.257812 391.039062 L 564.101562 391.851562 L 564.945312 392.644531 L 565.789062 393.425781 L 566.632812 394.195312 L 567.476562 394.949219 L 568.320312 395.6875 L 569.164062 396.417969 L 570.007812 397.128906 L 570.851562 397.832031 L 571.695312 398.523438 L 572.535156 399.199219 L 573.378906 399.863281 L 574.222656 400.515625 L 575.066406 401.152344 L 575.910156 401.78125 L 576.753906 402.398438 L 577.597656 403 L 578.441406 403.59375 L 579.285156 404.175781 L 580.128906 404.746094 L 580.972656 405.304688 L 581.816406 405.851562 L 582.660156 406.390625 L 583.503906 406.917969 L 584.347656 407.433594 L 585.191406 407.9375 L 586.035156 408.433594 L 586.875 408.921875 L 587.71875 409.398438 L 588.5625 409.863281 L 589.40625 410.320312 L 590.25 410.765625 L 591.09375 411.203125 L 591.9375 411.632812 L 592.78125 412.054688 L 593.625 412.464844 L 594.46875 412.867188 L 595.3125 413.257812 L 596.15625 413.644531 L 597 414.019531 L 597.84375 414.390625 L 598.6875 414.75 L 599.53125 415.101562 L 600.375 415.449219 L 601.214844 415.785156 L 602.058594 416.113281 L 602.902344 416.4375 L 603.746094 416.753906 L 604.589844 417.0625 L 605.433594 417.363281 L 606.277344 417.65625 L 607.121094 417.945312 L 608.808594 418.5 L 609.652344 418.765625 L 610.496094 419.027344 L 611.339844 419.285156 L 612.183594 419.535156 L 613.027344 419.777344 L 613.871094 420.015625 L 614.714844 420.246094 L 615.558594 420.472656 L 616.398438 420.695312 L 617.242188 420.910156 L 618.085938 421.121094 L 619.773438 421.527344 L 620.617188 421.722656 L 621.460938 421.914062 L 622.304688 422.097656 L 623.992188 422.457031 L 624.835938 422.628906 L 625.679688 422.796875 L 627.367188 423.117188 L 628.210938 423.273438 L 629.054688 423.425781 L 629.898438 423.570312 L 630.738281 423.714844 L 631.582031 423.855469 L 632.425781 423.992188 L 633.269531 424.125 L 634.113281 424.253906 L 634.957031 424.378906 L 636.644531 424.621094 L 638.332031 424.847656 L 639.175781 424.957031 L 640.863281 425.167969 L 641.707031 425.269531 L 642.550781 425.367188 L 644.238281 425.554688 L 645.078125 425.644531 L 646.765625 425.816406 L 648.453125 425.980469 L 650.140625 426.136719 L 650.984375 426.207031 L 651.828125 426.28125 L 652.671875 426.351562 L 654.359375 426.484375 L 656.046875 426.609375 L 658.578125 426.785156 L 659.421875 426.839844 L 660.261719 426.890625 L 662.792969 427.042969 L 664.480469 427.136719 L 667.011719 427.265625 L 669.542969 427.382812 L 672.074219 427.488281 L 672.917969 427.519531 L 673.761719 427.554688 L 674.601562 427.585938 L 675.445312 427.617188 L 679.664062 427.753906 L 683.882812 427.871094 L 685.570312 427.910156 L 686.414062 427.933594 L 687.257812 427.949219 L 688.101562 427.96875 L 688.941406 427.988281 L 690.628906 428.019531 L 691.472656 428.039062 L 692.316406 428.054688 L 693.160156 428.066406 L 694.847656 428.097656 L 695.691406 428.109375 L 696.535156 428.125 L 700.753906 428.183594 L 701.597656 428.191406 L 702.441406 428.203125 L 703.28125 428.214844 L 704.96875 428.230469 L 705.8125 428.242188 L 710.875 428.289062 L 711.71875 428.292969 L 713.40625 428.308594 L 714.25 428.3125 L 715.09375 428.320312 L 715.9375 428.324219 L 716.78125 428.332031 L 716.78125 428.464844 L 41.960938 428.464844 Z M 41.960938 428.332031 "/>
<g clip-path="url(#clip1)" clip-rule="nonzero">
<path style="fill:none;stroke-width:1.066978;stroke-linecap:butt;stroke-linejoin:round;stroke:rgb(0%,0%,0%);stroke-opacity:1;stroke-miterlimit:10;" d="M 8.21875 428.464844 L 750.519531 428.464844 "/>
</g>
<g clip-path="url(#clip2)" clip-rule="nonzero">
<path style="fill:none;stroke-width:2.133957;stroke-linecap:butt;stroke-linejoin:round;stroke:rgb(0%,0%,0%);stroke-opacity:1;stroke-dasharray:8.535827,8.535827;stroke-miterlimit:10;" d="M 379.371094 448.609375 L 379.371094 5.480469 "/>
</g>
<path style=" stroke:none;fill-rule:nonzero;fill:rgb(30.196078%,30.196078%,30.196078%);fill-opacity:1;" d="M 383.023438 453.539062 L 383.300781 453.542969 L 383.574219 453.554688 L 383.84375 453.574219 L 384.105469 453.601562 L 384.363281 453.636719 L 384.617188 453.679688 L 384.867188 453.730469 L 385.109375 453.789062 L 385.347656 453.855469 L 385.582031 453.929688 L 385.808594 454.007812 L 386.027344 454.09375 L 386.242188 454.183594 L 386.449219 454.285156 L 386.648438 454.390625 L 386.84375 454.503906 L 387.03125 454.621094 L 387.210938 454.75 L 387.386719 454.882812 L 387.554688 455.023438 L 387.714844 455.171875 L 387.867188 455.328125 L 388.011719 455.488281 L 388.148438 455.65625 L 388.28125 455.832031 L 388.402344 456.011719 L 388.519531 456.199219 L 388.628906 456.394531 L 388.730469 456.59375 L 388.824219 456.800781 L 388.910156 457.015625 L 388.984375 457.234375 L 389.050781 457.460938 L 389.109375 457.6875 L 389.160156 457.925781 L 389.199219 458.164062 L 389.230469 458.414062 L 389.253906 458.664062 L 389.269531 458.921875 L 389.273438 459.183594 L 389.265625 459.550781 L 389.25 459.90625 L 389.222656 460.253906 L 389.179688 460.585938 L 389.128906 460.914062 L 389.066406 461.226562 L 388.996094 461.535156 L 388.910156 461.828125 L 388.8125 462.113281 L 388.707031 462.386719 L 388.59375 462.648438 L 388.472656 462.902344 L 388.347656 463.148438 L 388.214844 463.382812 L 388.074219 463.613281 L 387.929688 463.832031 L 387.777344 464.046875 L 387.617188 464.25 L 387.453125 464.445312 L 387.28125 464.632812 L 387.101562 464.808594 L 386.921875 464.976562 L 386.734375 465.140625 L 386.546875 465.292969 L 386.351562 465.441406 L 386.15625 465.578125 L 385.953125 465.710938 L 385.75 465.832031 L 385.539062 465.949219 L 385.328125 466.058594 L 385.117188 466.160156 L 384.90625 466.257812 L 384.699219 466.347656 L 384.488281 466.429688 L 384.28125 466.507812 L 384.074219 466.578125 L 383.871094 466.644531 L 383.664062 466.703125 L 383.460938 466.753906 L 383.257812 466.800781 L 383.238281 466.996094 L 383.429688 467.042969 L 383.621094 467.09375 L 383.8125 467.152344 L 383.996094 467.210938 L 384.179688 467.28125 L 384.359375 467.351562 L 384.539062 467.433594 L 384.710938 467.515625 L 384.882812 467.605469 L 385.054688 467.699219 L 385.21875 467.800781 L 385.378906 467.90625 L 385.535156 468.019531 L 385.6875 468.132812 L 385.835938 468.257812 L 385.976562 468.382812 L 386.113281 468.519531 L 386.246094 468.65625 L 386.375 468.800781 L 386.5 468.949219 L 386.621094 469.101562 L 386.738281 469.257812 L 386.847656 469.421875 L 386.953125 469.585938 L 387.054688 469.761719 L 387.148438 469.9375 L 387.238281 470.125 L 387.324219 470.3125 L 387.402344 470.507812 L 387.476562 470.707031 L 387.542969 470.910156 L 387.601562 471.117188 L 387.65625 471.328125 L 387.699219 471.546875 L 387.738281 471.769531 L 387.769531 471.996094 L 387.796875 472.226562 L 387.8125 472.464844 L 387.824219 472.707031 L 387.828125 472.953125 L 387.820312 473.394531 L 387.796875 473.824219 L 387.761719 474.246094 L 387.714844 474.652344 L 387.652344 475.054688 L 387.574219 475.441406 L 387.480469 475.824219 L 387.375 476.191406 L 387.257812 476.550781 L 387.125 476.898438 L 386.976562 477.234375 L 386.820312 477.558594 L 386.652344 477.871094 L 386.472656 478.175781 L 386.285156 478.46875 L 386.082031 478.75 L 385.871094 479.019531 L 385.648438 479.28125 L 385.414062 479.53125 L 385.171875 479.769531 L 384.917969 479.996094 L 384.660156 480.207031 L 384.390625 480.410156 L 384.109375 480.601562 L 383.824219 480.78125 L 383.523438 480.949219 L 383.21875 481.105469 L 382.902344 481.25 L 382.574219 481.386719 L 382.242188 481.507812 L 381.902344 481.621094 L 381.558594 481.71875 L 381.207031 481.808594 L 380.851562 481.882812 L 380.488281 481.949219 L 380.121094 482 L 379.746094 482.042969 L 379.367188 482.070312 L 378.980469 482.089844 L 378.589844 482.09375 L 378.285156 482.09375 L 377.691406 482.070312 L 377.113281 482.023438 L 376.550781 481.953125 L 376.003906 481.859375 L 375.738281 481.800781 L 375.480469 481.742188 L 375.234375 481.679688 L 374.996094 481.613281 L 374.769531 481.542969 L 374.550781 481.46875 L 374.34375 481.394531 L 374.144531 481.316406 L 373.957031 481.234375 L 373.777344 481.148438 L 373.609375 481.058594 L 371.988281 490.21875 L 368.765625 490.21875 L 373.492188 463.324219 L 373.59375 462.773438 L 373.699219 462.238281 L 373.816406 461.722656 L 373.941406 461.226562 L 374.070312 460.746094 L 374.210938 460.289062 L 374.355469 459.847656 L 374.507812 459.425781 L 374.671875 459.023438 L 374.839844 458.636719 L 375.015625 458.269531 L 375.195312 457.917969 L 375.382812 457.578125 L 375.578125 457.257812 L 375.78125 456.949219 L 375.988281 456.65625 L 376.203125 456.375 L 376.425781 456.113281 L 376.65625 455.863281 L 376.890625 455.628906 L 377.132812 455.410156 L 377.386719 455.203125 L 377.644531 455.011719 L 377.90625 454.828125 L 378.179688 454.664062 L 378.453125 454.507812 L 378.738281 454.371094 L 379.027344 454.242188 L 379.320312 454.128906 L 379.625 454.027344 L 379.933594 453.9375 L 380.253906 453.851562 L 380.578125 453.78125 L 380.90625 453.714844 L 381.246094 453.664062 L 381.585938 453.617188 L 381.9375 453.585938 L 382.292969 453.558594 L 382.652344 453.546875 Z M 382.808594 455.101562 L 382.570312 455.105469 L 382.339844 455.117188 L 382.117188 455.132812 L 381.894531 455.160156 L 381.679688 455.191406 L 381.46875 455.230469 L 381.265625 455.273438 L 381.0625 455.328125 L 380.867188 455.386719 L 380.679688 455.453125 L 380.496094 455.527344 L 380.316406 455.609375 L 380.144531 455.707031 L 379.972656 455.816406 L 379.804688 455.9375 L 379.640625 456.070312 L 379.480469 456.214844 L 379.320312 456.371094 L 379.167969 456.542969 L 379.019531 456.722656 L 378.875 456.914062 L 378.734375 457.117188 L 378.597656 457.335938 L 378.464844 457.570312 L 378.335938 457.816406 L 378.207031 458.078125 L 378.082031 458.351562 L 377.960938 458.640625 L 377.84375 458.945312 L 377.730469 459.261719 L 377.617188 459.59375 L 377.507812 459.941406 L 377.398438 460.308594 L 377.292969 460.695312 L 377.191406 461.097656 L 377.089844 461.523438 L 376.992188 461.964844 L 376.898438 462.425781 L 376.804688 462.90625 L 376.714844 463.402344 L 373.882812 479.457031 L 373.953125 479.492188 L 374.101562 479.5625 L 374.179688 479.59375 L 374.261719 479.628906 L 374.34375 479.660156 L 374.429688 479.695312 L 374.609375 479.757812 L 374.890625 479.851562 L 374.988281 479.882812 L 375.089844 479.910156 L 375.191406 479.941406 L 375.292969 479.96875 L 375.394531 480 L 375.5 480.027344 L 375.71875 480.082031 L 375.945312 480.136719 L 376.296875 480.207031 L 376.660156 480.265625 L 377.035156 480.3125 L 377.410156 480.347656 L 377.539062 480.355469 L 377.664062 480.363281 L 378.050781 480.375 L 378.179688 480.375 L 378.449219 480.371094 L 378.714844 480.355469 L 378.976562 480.332031 L 379.234375 480.296875 L 379.488281 480.253906 L 379.734375 480.199219 L 379.976562 480.136719 L 380.214844 480.0625 L 380.449219 479.980469 L 380.679688 479.886719 L 380.90625 479.785156 L 381.125 479.671875 L 381.339844 479.550781 L 381.546875 479.421875 L 381.746094 479.28125 L 381.941406 479.132812 L 382.128906 478.972656 L 382.308594 478.804688 L 382.484375 478.628906 L 382.652344 478.441406 L 382.816406 478.246094 L 382.972656 478.039062 L 383.121094 477.824219 L 383.261719 477.601562 L 383.394531 477.367188 L 383.519531 477.125 L 383.636719 476.871094 L 383.746094 476.609375 L 383.847656 476.339844 L 383.941406 476.058594 L 384.027344 475.769531 L 384.109375 475.472656 L 384.179688 475.164062 L 384.238281 474.851562 L 384.292969 474.527344 L 384.332031 474.195312 L 384.367188 473.851562 L 384.390625 473.503906 L 384.402344 473.144531 L 384.410156 472.777344 L 384.394531 472.300781 L 384.355469 471.851562 L 384.289062 471.425781 L 384.191406 471.023438 L 384.070312 470.644531 L 383.921875 470.292969 L 383.75 469.964844 L 383.546875 469.660156 L 383.316406 469.378906 L 383.0625 469.125 L 382.785156 468.894531 L 382.488281 468.683594 L 382.171875 468.496094 L 381.835938 468.332031 L 381.480469 468.1875 L 381.101562 468.066406 L 380.703125 467.964844 L 380.285156 467.886719 L 379.847656 467.832031 L 379.390625 467.796875 L 379.664062 466.273438 L 380.007812 466.265625 L 380.34375 466.242188 L 380.667969 466.210938 L 380.980469 466.164062 L 381.285156 466.109375 L 381.574219 466.039062 L 381.855469 465.960938 L 382.125 465.867188 L 382.382812 465.765625 L 382.632812 465.648438 L 382.871094 465.523438 L 383.105469 465.390625 L 383.328125 465.25 L 383.539062 465.097656 L 383.746094 464.941406 L 383.9375 464.773438 L 384.125 464.601562 L 384.300781 464.417969 L 384.464844 464.226562 L 384.625 464.027344 L 384.773438 463.824219 L 384.910156 463.609375 L 385.042969 463.394531 L 385.164062 463.167969 L 385.277344 462.941406 L 385.382812 462.703125 L 385.480469 462.464844 L 385.566406 462.214844 L 385.648438 461.964844 L 385.71875 461.703125 L 385.785156 461.441406 L 385.84375 461.175781 L 385.898438 460.910156 L 385.941406 460.636719 L 385.980469 460.367188 L 386.011719 460.089844 L 386.039062 459.816406 L 386.054688 459.535156 L 386.066406 459.253906 L 386.070312 458.96875 L 386.066406 458.757812 L 386.058594 458.554688 L 386.042969 458.355469 L 386.023438 458.164062 L 386 457.980469 L 385.96875 457.800781 L 385.933594 457.628906 L 385.894531 457.464844 L 385.847656 457.304688 L 385.796875 457.152344 L 385.738281 457.007812 L 385.679688 456.867188 L 385.617188 456.734375 L 385.546875 456.605469 L 385.476562 456.484375 L 385.402344 456.367188 L 385.328125 456.257812 L 385.246094 456.152344 L 385.160156 456.054688 L 385.074219 455.960938 L 384.980469 455.871094 L 384.886719 455.785156 L 384.792969 455.707031 L 384.691406 455.628906 L 384.589844 455.5625 L 384.484375 455.496094 L 384.378906 455.441406 L 384.265625 455.386719 L 384.152344 455.339844 L 384.039062 455.296875 L 383.921875 455.261719 L 383.800781 455.226562 L 383.558594 455.171875 L 383.4375 455.152344 L 383.3125 455.132812 L 383.0625 455.109375 L 382.9375 455.105469 Z M 382.808594 455.101562 "/>
</g>
</svg>
