<?xml version="1.0" encoding="UTF-8"?>
<svg xmlns="http://www.w3.org/2000/svg" xmlns:xlink="http://www.w3.org/1999/xlink" width="756pt" height="504pt" viewBox="0 0 756 504" version="1.1">
<defs>
<clipPath id="clip1">
  <path d="M 8.21875 427 L 750.519531 427 L 750.519531 429 L 8.21875 429 Z M 8.21875 427 "/>
</clipPath>
<clipPath id="clip2">
  <path d="M 209 5.480469 L 212 5.480469 L 212 448.609375 L 209 448.609375 Z M 209 5.480469 "/>
</clipPath>
</defs>
<g id="surface54">
<rect x="0" y="0" width="756" height="504" style="fill:rgb(100%,100%,100%);fill-opacity:1;stroke:none;"/>
<path style=" stroke:none;fill-rule:nonzero;fill:rgb(18.431373%,30.980392%,30.980392%);fill-opacity:0.901961;" d="M 41.960938 428.332031 L 42.804688 428.324219 L 43.648438 428.320312 L 44.492188 428.3125 L 45.335938 428.308594 L 46.179688 428.300781 L 47.019531 428.292969 L 47.863281 428.289062 L 52.925781 428.242188 L 53.769531 428.230469 L 55.457031 428.214844 L 57.144531 428.191406 L 57.988281 428.183594 L 60.519531 428.148438 L 61.359375 428.136719 L 62.203125 428.125 L 63.046875 428.109375 L 63.890625 428.097656 L 65.578125 428.066406 L 66.421875 428.054688 L 67.265625 428.039062 L 68.109375 428.019531 L 69.796875 427.988281 L 71.484375 427.949219 L 72.328125 427.933594 L 73.171875 427.910156 L 74.859375 427.871094 L 75.699219 427.847656 L 79.074219 427.753906 L 83.292969 427.617188 L 84.980469 427.554688 L 85.824219 427.519531 L 86.667969 427.488281 L 89.199219 427.382812 L 90.042969 427.34375 L 90.882812 427.304688 L 91.726562 427.265625 L 94.257812 427.136719 L 95.945312 427.042969 L 99.320312 426.839844 L 100.164062 426.785156 L 102.695312 426.609375 L 104.382812 426.484375 L 105.222656 426.417969 L 106.066406 426.351562 L 106.910156 426.28125 L 107.753906 426.207031 L 108.597656 426.136719 L 110.285156 425.980469 L 111.972656 425.816406 L 113.660156 425.644531 L 114.503906 425.554688 L 116.191406 425.367188 L 117.035156 425.269531 L 117.878906 425.167969 L 118.722656 425.0625 L 119.5625 424.957031 L 120.40625 424.847656 L 122.09375 424.621094 L 123.78125 424.378906 L 124.625 424.253906 L 125.46875 424.125 L 126.3125 423.992188 L 127.15625 423.855469 L 128 423.714844 L 129.6875 423.425781 L 130.53125 423.273438 L 131.375 423.117188 L 133.0625 422.796875 L 133.902344 422.628906 L 134.746094 422.457031 L 136.433594 422.097656 L 137.277344 421.914062 L 138.121094 421.722656 L 138.964844 421.527344 L 140.652344 421.121094 L 141.496094 420.910156 L 142.339844 420.695312 L 143.183594 420.472656 L 144.027344 420.246094 L 144.871094 420.015625 L 145.714844 419.777344 L 146.558594 419.535156 L 147.402344 419.285156 L 148.246094 419.027344 L 149.085938 418.765625 L 149.929688 418.5 L 151.617188 417.945312 L 152.460938 417.65625 L 153.304688 417.363281 L 154.148438 417.0625 L 154.992188 416.753906 L 155.835938 416.4375 L 156.679688 416.113281 L 157.523438 415.785156 L 158.367188 415.449219 L 159.210938 415.101562 L 160.054688 414.75 L 160.898438 414.390625 L 161.742188 414.019531 L 162.585938 413.644531 L 163.425781 413.257812 L 164.269531 412.867188 L 165.113281 412.464844 L 165.957031 412.054688 L 166.800781 411.632812 L 167.644531 411.203125 L 168.488281 410.765625 L 169.332031 410.320312 L 170.175781 409.863281 L 171.019531 409.398438 L 171.863281 408.921875 L 172.707031 408.433594 L 173.550781 407.9375 L 174.394531 407.433594 L 175.238281 406.917969 L 176.082031 406.390625 L 176.925781 405.851562 L 177.765625 405.304688 L 178.609375 404.746094 L 179.453125 404.175781 L 180.296875 403.59375 L 181.140625 403 L 181.984375 402.398438 L 182.828125 401.78125 L 183.671875 401.152344 L 184.515625 400.515625 L 185.359375 399.863281 L 186.203125 399.199219 L 187.046875 398.523438 L 187.890625 397.832031 L 188.734375 397.128906 L 189.578125 396.417969 L 190.421875 395.6875 L 191.265625 394.949219 L 192.109375 394.195312 L 192.949219 393.425781 L 193.792969 392.644531 L 194.636719 391.851562 L 195.480469 391.039062 L 196.324219 390.21875 L 197.167969 389.382812 L 198.011719 388.53125 L 198.855469 387.664062 L 199.699219 386.78125 L 200.542969 385.886719 L 201.386719 384.976562 L 202.230469 384.050781 L 203.074219 383.113281 L 203.917969 382.15625 L 204.761719 381.1875 L 205.605469 380.199219 L 206.449219 379.195312 L 207.289062 378.179688 L 208.132812 377.144531 L 208.976562 376.09375 L 209.820312 375.03125 L 210.664062 373.945312 L 211.507812 372.847656 L 212.351562 371.734375 L 213.195312 370.601562 L 214.039062 369.453125 L 214.882812 368.289062 L 215.726562 367.105469 L 216.570312 365.90625 L 217.414062 364.691406 L 218.257812 363.457031 L 219.101562 362.207031 L 219.945312 360.941406 L 220.789062 359.65625 L 221.628906 358.355469 L 222.472656 357.035156 L 223.316406 355.695312 L 224.160156 354.339844 L 225.003906 352.96875 L 225.847656 351.578125 L 226.691406 350.171875 L 227.535156 348.742188 L 228.378906 347.300781 L 229.222656 345.839844 L 230.066406 344.359375 L 230.910156 342.859375 L 231.753906 341.34375 L 232.597656 339.8125 L 233.441406 338.261719 L 234.285156 336.691406 L 235.128906 335.101562 L 235.972656 333.496094 L 236.8125 331.875 L 237.65625 330.234375 L 238.5 328.574219 L 239.34375 326.894531 L 240.1875 325.199219 L 241.03125 323.488281 L 241.875 321.757812 L 242.71875 320.007812 L 243.5625 318.242188 L 244.40625 316.460938 L 245.25 314.660156 L 246.09375 312.839844 L 246.9375 311.007812 L 247.78125 309.152344 L 248.625 307.285156 L 249.46875 305.398438 L 250.3125 303.492188 L 251.152344 301.574219 L 251.996094 299.636719 L 252.839844 297.683594 L 253.683594 295.710938 L 254.527344 293.726562 L 255.371094 291.722656 L 256.214844 289.707031 L 257.058594 287.671875 L 257.902344 285.621094 L 258.746094 283.558594 L 259.589844 281.476562 L 260.433594 279.382812 L 261.277344 277.273438 L 262.121094 275.148438 L 262.964844 273.011719 L 263.808594 270.859375 L 264.652344 268.695312 L 265.492188 266.515625 L 266.335938 264.320312 L 267.179688 262.113281 L 268.023438 259.894531 L 268.867188 257.664062 L 269.710938 255.421875 L 270.554688 253.164062 L 271.398438 250.898438 L 272.242188 248.621094 L 273.085938 246.332031 L 273.929688 244.03125 L 274.773438 241.71875 L 275.617188 239.398438 L 276.460938 237.070312 L 277.304688 234.730469 L 278.148438 232.378906 L 278.992188 230.023438 L 279.835938 227.65625 L 280.675781 225.285156 L 281.519531 222.902344 L 282.363281 220.515625 L 283.207031 218.121094 L 284.050781 215.71875 L 284.894531 213.3125 L 285.738281 210.902344 L 286.582031 208.484375 L 287.425781 206.0625 L 288.269531 203.636719 L 289.113281 201.203125 L 289.957031 198.773438 L 291.644531 193.898438 L 293.332031 189.015625 L 294.175781 186.570312 L 295.015625 184.128906 L 295.859375 181.683594 L 298.390625 174.359375 L 300.078125 169.484375 L 301.765625 164.625 L 302.609375 162.199219 L 303.453125 159.777344 L 304.296875 157.363281 L 305.140625 154.953125 L 305.984375 152.550781 L 306.828125 150.152344 L 307.671875 147.761719 L 308.515625 145.378906 L 309.355469 143.007812 L 310.199219 140.640625 L 311.042969 138.285156 L 311.886719 135.941406 L 312.730469 133.605469 L 313.574219 131.28125 L 314.417969 128.96875 L 315.261719 126.671875 L 316.105469 124.382812 L 316.949219 122.109375 L 317.792969 119.847656 L 318.636719 117.605469 L 319.480469 115.375 L 320.324219 113.15625 L 321.167969 110.957031 L 322.011719 108.777344 L 322.855469 106.613281 L 323.695312 104.464844 L 324.539062 102.335938 L 325.382812 100.222656 L 326.226562 98.132812 L 327.070312 96.0625 L 327.914062 94.011719 L 328.757812 91.980469 L 329.601562 89.972656 L 330.445312 87.988281 L 331.289062 86.023438 L 332.132812 84.085938 L 332.976562 82.167969 L 333.820312 80.277344 L 334.664062 78.40625 L 335.507812 76.566406 L 336.351562 74.746094 L 337.195312 72.957031 L 338.039062 71.191406 L 338.878906 69.457031 L 339.722656 67.746094 L 340.566406 66.066406 L 341.410156 64.414062 L 342.253906 62.789062 L 343.097656 61.195312 L 343.941406 59.628906 L 344.785156 58.097656 L 345.628906 56.59375 L 346.472656 55.121094 L 347.316406 53.683594 L 348.160156 52.273438 L 349.003906 50.898438 L 349.847656 49.554688 L 350.691406 48.246094 L 351.535156 46.96875 L 352.378906 45.726562 L 353.21875 44.519531 L 354.0625 43.347656 L 354.90625 42.210938 L 355.75 41.109375 L 356.59375 40.039062 L 357.4375 39.011719 L 358.28125 38.015625 L 359.125 37.058594 L 359.96875 36.136719 L 360.8125 35.253906 L 361.65625 34.40625 L 362.5 33.597656 L 363.34375 32.828125 L 364.1875 32.09375 L 365.03125 31.402344 L 365.875 30.746094 L 366.71875 30.128906 L 367.558594 29.550781 L 368.402344 29.011719 L 369.246094 28.511719 L 370.089844 28.050781 L 370.933594 27.632812 L 371.777344 27.25 L 372.621094 26.910156 L 373.464844 26.609375 L 374.308594 26.347656 L 375.152344 26.125 L 375.996094 25.945312 L 376.839844 25.804688 L 377.683594 25.703125 L 378.527344 25.640625 L 379.371094 25.621094 L 380.214844 25.640625 L 381.058594 25.703125 L 381.902344 25.804688 L 382.742188 25.945312 L 383.585938 26.125 L 384.429688 26.347656 L 385.273438 26.609375 L 386.117188 26.910156 L 386.960938 27.25 L 387.804688 27.632812 L 388.648438 28.050781 L 389.492188 28.511719 L 390.335938 29.011719 L 391.179688 29.550781 L 392.023438 30.128906 L 392.867188 30.746094 L 393.710938 31.402344 L 394.554688 32.09375 L 395.398438 32.828125 L 396.242188 33.597656 L 397.082031 34.40625 L 397.925781 35.253906 L 398.769531 36.136719 L 399.613281 37.058594 L 400.457031 38.015625 L 401.300781 39.011719 L 402.144531 40.039062 L 402.988281 41.109375 L 403.832031 42.210938 L 404.675781 43.347656 L 405.519531 44.519531 L 406.363281 45.726562 L 407.207031 46.96875 L 408.050781 48.246094 L 408.894531 49.554688 L 409.738281 50.898438 L 410.582031 52.273438 L 411.421875 53.683594 L 412.265625 55.121094 L 413.109375 56.59375 L 413.953125 58.097656 L 414.796875 59.628906 L 415.640625 61.195312 L 416.484375 62.789062 L 417.328125 64.414062 L 418.171875 66.066406 L 419.015625 67.746094 L 419.859375 69.457031 L 420.703125 71.191406 L 421.546875 72.957031 L 422.390625 74.746094 L 423.234375 76.566406 L 424.078125 78.40625 L 424.921875 80.277344 L 425.765625 82.167969 L 426.605469 84.085938 L 427.449219 86.023438 L 428.292969 87.988281 L 429.136719 89.972656 L 429.980469 91.980469 L 430.824219 94.011719 L 431.667969 96.0625 L 432.511719 98.132812 L 433.355469 100.222656 L 434.199219 102.335938 L 435.042969 104.464844 L 435.886719 106.613281 L 436.730469 108.777344 L 437.574219 110.957031 L 438.417969 113.15625 L 439.261719 115.375 L 440.105469 117.605469 L 440.945312 119.847656 L 441.789062 122.109375 L 442.632812 124.382812 L 443.476562 126.671875 L 444.320312 128.96875 L 445.164062 131.28125 L 446.007812 133.605469 L 446.851562 135.941406 L 447.695312 138.285156 L 448.539062 140.640625 L 449.382812 143.007812 L 450.226562 145.378906 L 451.070312 147.761719 L 451.914062 150.152344 L 452.757812 152.550781 L 453.601562 154.953125 L 454.445312 157.363281 L 455.285156 159.777344 L 456.128906 162.199219 L 456.972656 164.625 L 458.660156 169.484375 L 460.347656 174.359375 L 462.878906 181.683594 L 463.722656 184.128906 L 464.566406 186.570312 L 465.410156 189.015625 L 467.097656 193.898438 L 468.785156 198.773438 L 469.628906 201.203125 L 470.46875 203.636719 L 471.3125 206.0625 L 472.15625 208.484375 L 473 210.902344 L 473.84375 213.3125 L 474.6875 215.71875 L 475.53125 218.121094 L 476.375 220.515625 L 477.21875 222.902344 L 478.0625 225.285156 L 478.90625 227.65625 L 479.75 230.023438 L 480.59375 232.378906 L 481.4375 234.730469 L 482.28125 237.070312 L 483.125 239.398438 L 483.96875 241.71875 L 484.808594 244.03125 L 485.652344 246.332031 L 486.496094 248.621094 L 487.339844 250.898438 L 488.183594 253.164062 L 489.027344 255.421875 L 489.871094 257.664062 L 490.714844 259.894531 L 491.558594 262.113281 L 492.402344 264.320312 L 493.246094 266.515625 L 494.089844 268.695312 L 494.933594 270.859375 L 495.777344 273.011719 L 496.621094 275.148438 L 497.464844 277.273438 L 498.308594 279.382812 L 499.148438 281.476562 L 499.992188 283.558594 L 500.835938 285.621094 L 501.679688 287.671875 L 502.523438 289.707031 L 503.367188 291.722656 L 504.210938 293.726562 L 505.054688 295.710938 L 505.898438 297.683594 L 506.742188 299.636719 L 507.585938 301.574219 L 508.429688 303.492188 L 509.273438 305.398438 L 510.117188 307.285156 L 510.960938 309.152344 L 511.804688 311.007812 L 512.648438 312.839844 L 513.488281 314.660156 L 514.332031 316.460938 L 515.175781 318.242188 L 516.019531 320.007812 L 516.863281 321.757812 L 517.707031 323.488281 L 518.550781 325.199219 L 519.394531 326.894531 L 520.238281 328.574219 L 521.082031 330.234375 L 521.925781 331.875 L 522.769531 333.496094 L 523.613281 335.101562 L 524.457031 336.691406 L 525.300781 338.261719 L 526.144531 339.8125 L 526.988281 341.34375 L 527.832031 342.859375 L 528.671875 344.359375 L 529.515625 345.839844 L 530.359375 347.300781 L 531.203125 348.742188 L 532.046875 350.171875 L 532.890625 351.578125 L 533.734375 352.96875 L 534.578125 354.339844 L 535.421875 355.695312 L 536.265625 357.035156 L 537.109375 358.355469 L 537.953125 359.65625 L 538.796875 360.941406 L 539.640625 362.207031 L 540.484375 363.457031 L 541.328125 364.691406 L 542.171875 365.90625 L 543.011719 367.105469 L 543.855469 368.289062 L 544.699219 369.453125 L 545.542969 370.601562 L 546.386719 371.734375 L 547.230469 372.847656 L 548.074219 373.945312 L 548.917969 375.03125 L 549.761719 376.09375 L 550.605469 377.144531 L 551.449219 378.179688 L 552.292969 379.195312 L 553.136719 380.199219 L 553.980469 381.1875 L 554.824219 382.15625 L 555.667969 383.113281 L 556.511719 384.050781 L 557.351562 384.976562 L 558.195312 385.886719 L 559.039062 386.78125 L 559.882812 387.664062 L 560.726562 388.53125 L 561.570312 389.382812 L 562.414062 390.21875 L 563.257812 391.039062 L 564.101562 391.851562 L 564.945312 392.644531 L 565.789062 393.425781 L 566.632812 394.195312 L 567.476562 394.949219 L 568.320312 395.6875 L 569.164062 396.417969 L 570.007812 397.128906 L 570.851562 397.832031 L 571.695312 398.523438 L 572.535156 399.199219 L 573.378906 399.863281 L 574.222656 400.515625 L 575.066406 401.152344 L 575.910156 401.78125 L 576.753906 402.398438 L 577.597656 403 L 578.441406 403.59375 L 579.285156 404.175781 L 580.128906 404.746094 L 580.972656 405.304688 L 581.816406 405.851562 L 582.660156 406.390625 L 583.503906 406.917969 L 584.347656 407.433594 L 585.191406 407.9375 L 586.035156 408.433594 L 586.875 408.921875 L 587.71875 409.398438 L 588.5625 409.863281 L 589.40625 410.320312 L 590.25 410.765625 L 591.09375 411.203125 L 591.9375 411.632812 L 592.78125 412.054688 L 593.625 412.464844 L 594.46875 412.867188 L 595.3125 413.257812 L 596.15625 413.644531 L 597 414.019531 L 597.84375 414.390625 L 598.6875 414.75 L 599.53125 415.101562 L 600.375 415.449219 L 601.214844 415.785156 L 602.058594 416.113281 L 602.902344 416.4375 L 603.746094 416.753906 L 604.589844 417.0625 L 605.433594 417.363281 L 606.277344 417.65625 L 607.121094 417.945312 L 608.808594 418.5 L 609.652344 418.765625 L 610.496094 419.027344 L 611.339844 419.285156 L 612.183594 419.535156 L 613.027344 419.777344 L 613.871094 420.015625 L 614.714844 420.246094 L 615.558594 420.472656 L 616.398438 420.695312 L 617.242188 420.910156 L 618.085938 421.121094 L 619.773438 421.527344 L 620.617188 421.722656 L 621.460938 421.914062 L 622.304688 422.097656 L 623.992188 422.457031 L 624.835938 422.628906 L 625.679688 422.796875 L 627.367188 423.117188 L 628.210938 423.273438 L 629.054688 423.425781 L 629.898438 423.570312 L 630.738281 423.714844 L 631.582031 423.855469 L 632.425781 423.992188 L 633.269531 424.125 L 634.113281 424.253906 L 634.957031 424.378906 L 636.644531 424.621094 L 638.332031 424.847656 L 639.175781 424.957031 L 640.863281 425.167969 L 641.707031 425.269531 L 642.550781 425.367188 L 644.238281 425.554688 L 645.078125 425.644531 L 646.765625 425.816406 L 648.453125 425.980469 L 650.140625 426.136719 L 650.984375 426.207031 L 651.828125 426.28125 L 652.671875 426.351562 L 654.359375 426.484375 L 656.046875 426.609375 L 658.578125 426.785156 L 659.421875 426.839844 L 660.261719 426.890625 L 662.792969 427.042969 L 664.480469 427.136719 L 667.011719 427.265625 L 669.542969 427.382812 L 672.074219 427.488281 L 672.917969 427.519531 L 673.761719 427.554688 L 674.601562 427.585938 L 675.445312 427.617188 L 679.664062 427.753906 L 683.882812 427.871094 L 685.570312 427.910156 L 686.414062 427.933594 L 687.257812 427.949219 L 688.101562 427.96875 L 688.941406 427.988281 L 690.628906 428.019531 L 691.472656 428.039062 L 692.316406 428.054688 L 693.160156 428.066406 L 694.847656 428.097656 L 695.691406 428.109375 L 696.535156 428.125 L 700.753906 428.183594 L 701.597656 428.191406 L 702.441406 428.203125 L 703.28125 428.214844 L 704.96875 428.230469 L 705.8125 428.242188 L 710.875 428.289062 L 711.71875 428.292969 L 713.40625 428.308594 L 714.25 428.3125 L 715.09375 428.320312 L 715.9375 428.324219 L 716.78125 428.332031 L 716.78125 428.464844 L 41.960938 428.464844 Z M 41.960938 428.332031 "/>
<g clip-path="url(#clip1)" clip-rule="nonzero">
<path style="fill:none;stroke-width:1.066978;stroke-linecap:butt;stroke-linejoin:round;stroke:rgb(0%,0%,0%);stroke-opacity:1;stroke-miterlimit:10;" d="M 8.21875 428.464844 L 750.519531 428.464844 "/>
</g>
<g clip-path="url(#clip2)" clip-rule="nonzero">
<path style="fill:none;stroke-width:2.133957;stroke-linecap:butt;stroke-linejoin:round;stroke:rgb(0%,0%,0%);stroke-opacity:1;stroke-dasharray:8.535827,8.535827;stroke-miterlimit:10;" d="M 210.664062 448.609375 L 210.664062 5.480469 "/>
</g>
<path style=" stroke:none;fill-rule:nonzero;fill:rgb(30.196078%,30.196078%,30.196078%);fill-opacity:1;" d="M 214.316406 453.539062 L 214.597656 453.542969 L 214.871094 453.554688 L 215.136719 453.574219 L 215.402344 453.601562 L 215.660156 453.636719 L 215.914062 453.679688 L 216.160156 453.730469 L 216.40625 453.789062 L 216.644531 453.855469 L 216.875 453.929688 L 217.101562 454.007812 L 217.324219 454.09375 L 217.539062 454.183594 L 217.746094 454.285156 L 217.945312 454.390625 L 218.140625 454.503906 L 218.328125 454.621094 L 218.507812 454.75 L 218.679688 454.882812 L 218.847656 455.023438 L 219.007812 455.171875 L 219.160156 455.328125 L 219.308594 455.488281 L 219.445312 455.65625 L 219.574219 455.832031 L 219.699219 456.011719 L 219.816406 456.199219 L 219.921875 456.394531 L 220.023438 456.59375 L 220.117188 456.800781 L 220.203125 457.015625 L 220.28125 457.234375 L 220.347656 457.460938 L 220.40625 457.6875 L 220.453125 457.925781 L 220.496094 458.164062 L 220.527344 458.414062 L 220.550781 458.664062 L 220.5625 458.921875 L 220.566406 459.183594 L 220.5625 459.550781 L 220.542969 459.90625 L 220.515625 460.253906 L 220.476562 460.585938 L 220.425781 460.914062 L 220.363281 461.226562 L 220.289062 461.535156 L 220.203125 461.828125 L 220.109375 462.113281 L 220 462.386719 L 219.886719 462.648438 L 219.769531 462.902344 L 219.644531 463.148438 L 219.511719 463.382812 L 219.371094 463.613281 L 219.226562 463.832031 L 219.074219 464.046875 L 218.914062 464.25 L 218.746094 464.445312 L 218.574219 464.632812 L 218.398438 464.808594 L 218.214844 464.976562 L 218.03125 465.140625 L 217.839844 465.292969 L 217.648438 465.441406 L 217.449219 465.578125 L 217.25 465.710938 L 217.042969 465.832031 L 216.835938 465.949219 L 216.621094 466.058594 L 216.410156 466.160156 L 216.203125 466.257812 L 215.992188 466.347656 L 215.785156 466.429688 L 215.578125 466.507812 L 215.371094 466.578125 L 215.164062 466.644531 L 214.960938 466.703125 L 214.753906 466.753906 L 214.550781 466.800781 L 214.53125 466.996094 L 214.726562 467.042969 L 214.917969 467.09375 L 215.292969 467.210938 L 215.472656 467.28125 L 215.65625 467.351562 L 216.007812 467.515625 L 216.179688 467.605469 L 216.347656 467.699219 L 216.515625 467.800781 L 216.675781 467.90625 L 216.832031 468.019531 L 216.984375 468.132812 L 217.273438 468.382812 L 217.410156 468.519531 L 217.542969 468.65625 L 217.671875 468.800781 L 217.792969 468.949219 L 217.917969 469.101562 L 218.03125 469.257812 L 218.144531 469.421875 L 218.25 469.585938 L 218.351562 469.761719 L 218.445312 469.9375 L 218.535156 470.125 L 218.617188 470.3125 L 218.699219 470.507812 L 218.769531 470.707031 L 218.835938 470.910156 L 218.898438 471.117188 L 218.949219 471.328125 L 218.996094 471.546875 L 219.035156 471.769531 L 219.066406 471.996094 L 219.089844 472.226562 L 219.109375 472.464844 L 219.117188 472.707031 L 219.121094 472.953125 L 219.113281 473.394531 L 219.09375 473.824219 L 219.058594 474.246094 L 219.007812 474.652344 L 218.945312 475.054688 L 218.867188 475.441406 L 218.777344 475.824219 L 218.671875 476.191406 L 218.550781 476.550781 L 218.417969 476.898438 L 218.273438 477.234375 L 218.117188 477.558594 L 217.949219 477.871094 L 217.769531 478.175781 L 217.578125 478.46875 L 217.378906 478.75 L 217.167969 479.019531 L 216.945312 479.28125 L 216.710938 479.53125 L 216.464844 479.769531 L 216.214844 479.996094 L 215.953125 480.207031 L 215.683594 480.410156 L 215.40625 480.601562 L 215.117188 480.78125 L 214.820312 480.949219 L 214.511719 481.105469 L 214.195312 481.25 L 213.871094 481.386719 L 213.535156 481.507812 L 213.195312 481.621094 L 212.851562 481.71875 L 212.5 481.808594 L 212.144531 481.882812 L 211.78125 481.949219 L 211.414062 482 L 211.039062 482.042969 L 210.660156 482.070312 L 210.273438 482.089844 L 209.882812 482.09375 L 209.582031 482.09375 L 209.28125 482.082031 L 208.988281 482.070312 L 208.695312 482.046875 L 208.410156 482.023438 L 208.125 481.988281 L 207.847656 481.953125 L 207.570312 481.90625 L 207.300781 481.859375 L 207.03125 481.800781 L 206.773438 481.742188 L 206.527344 481.679688 L 206.289062 481.613281 L 206.0625 481.542969 L 205.84375 481.46875 L 205.636719 481.394531 L 205.4375 481.316406 L 205.25 481.234375 L 205.070312 481.148438 L 204.902344 481.058594 L 203.28125 490.21875 L 200.058594 490.21875 L 204.785156 463.324219 L 204.886719 462.773438 L 204.996094 462.238281 L 205.113281 461.722656 L 205.234375 461.226562 L 205.367188 460.746094 L 205.503906 460.289062 L 205.652344 459.847656 L 205.804688 459.425781 L 205.964844 459.023438 L 206.132812 458.636719 L 206.308594 458.269531 L 206.492188 457.917969 L 206.679688 457.578125 L 206.875 457.257812 L 207.074219 456.949219 L 207.285156 456.65625 L 207.5 456.375 L 207.722656 456.113281 L 207.949219 455.863281 L 208.183594 455.628906 L 208.429688 455.410156 L 208.679688 455.203125 L 208.9375 455.011719 L 209.203125 454.828125 L 209.472656 454.664062 L 209.75 454.507812 L 210.03125 454.371094 L 210.320312 454.242188 L 210.617188 454.128906 L 210.917969 454.027344 L 211.230469 453.9375 L 211.546875 453.851562 L 211.871094 453.78125 L 212.203125 453.714844 L 212.539062 453.664062 L 212.882812 453.617188 L 213.230469 453.585938 L 213.585938 453.558594 L 213.949219 453.546875 Z M 214.101562 455.101562 L 213.867188 455.105469 L 213.636719 455.117188 L 213.410156 455.132812 L 213.191406 455.160156 L 212.972656 455.191406 L 212.765625 455.230469 L 212.558594 455.273438 L 212.359375 455.328125 L 212.164062 455.386719 L 211.972656 455.453125 L 211.792969 455.527344 L 211.613281 455.609375 L 211.4375 455.707031 L 211.265625 455.816406 L 211.097656 455.9375 L 210.933594 456.070312 L 210.773438 456.214844 L 210.617188 456.371094 L 210.464844 456.542969 L 210.3125 456.722656 L 210.171875 456.914062 L 210.03125 457.117188 L 209.894531 457.335938 L 209.761719 457.570312 L 209.628906 457.816406 L 209.503906 458.078125 L 209.378906 458.351562 L 209.257812 458.640625 L 209.140625 458.945312 L 209.023438 459.261719 L 208.914062 459.59375 L 208.800781 459.941406 L 208.695312 460.308594 L 208.589844 460.695312 L 208.488281 461.097656 L 208.386719 461.523438 L 208.289062 461.964844 L 208.191406 462.425781 L 208.101562 462.90625 L 208.007812 463.402344 L 205.175781 479.457031 L 205.25 479.492188 L 205.320312 479.527344 L 205.398438 479.5625 L 205.476562 479.59375 L 205.558594 479.628906 L 205.640625 479.660156 L 205.726562 479.695312 L 205.8125 479.726562 L 205.90625 479.757812 L 205.996094 479.789062 L 206.089844 479.820312 L 206.285156 479.882812 L 206.382812 479.910156 L 206.484375 479.941406 L 206.585938 479.96875 L 206.691406 480 L 206.902344 480.054688 L 207.011719 480.082031 L 207.125 480.109375 L 207.242188 480.136719 L 207.59375 480.207031 L 207.957031 480.265625 L 208.078125 480.28125 L 208.328125 480.3125 L 208.453125 480.324219 L 208.582031 480.335938 L 208.707031 480.347656 L 208.832031 480.355469 L 208.960938 480.363281 L 209.089844 480.367188 L 209.214844 480.371094 L 209.34375 480.375 L 209.472656 480.375 L 209.746094 480.371094 L 210.011719 480.355469 L 210.273438 480.332031 L 210.53125 480.296875 L 210.78125 480.253906 L 211.03125 480.199219 L 211.273438 480.136719 L 211.511719 480.0625 L 211.746094 479.980469 L 211.972656 479.886719 L 212.199219 479.785156 L 212.421875 479.671875 L 212.636719 479.550781 L 212.84375 479.421875 L 213.042969 479.28125 L 213.238281 479.132812 L 213.425781 478.972656 L 213.605469 478.804688 L 213.777344 478.628906 L 213.945312 478.441406 L 214.109375 478.246094 L 214.265625 478.039062 L 214.414062 477.824219 L 214.554688 477.601562 L 214.6875 477.367188 L 214.8125 477.125 L 214.929688 476.871094 L 215.039062 476.609375 L 215.140625 476.339844 L 215.234375 476.058594 L 215.324219 475.769531 L 215.402344 475.472656 L 215.472656 475.164062 L 215.535156 474.851562 L 215.585938 474.527344 L 215.628906 474.195312 L 215.660156 473.851562 L 215.683594 473.503906 L 215.699219 473.144531 L 215.703125 472.777344 L 215.691406 472.300781 L 215.648438 471.851562 L 215.582031 471.425781 L 215.488281 471.023438 L 215.367188 470.644531 L 215.21875 470.292969 L 215.042969 469.964844 L 214.839844 469.660156 L 214.613281 469.378906 L 214.355469 469.125 L 214.082031 468.894531 L 213.785156 468.683594 L 213.46875 468.496094 L 213.132812 468.332031 L 212.773438 468.1875 L 212.398438 468.066406 L 212 467.964844 L 211.582031 467.886719 L 211.144531 467.832031 L 210.683594 467.796875 L 210.957031 466.273438 L 211.304688 466.265625 L 211.640625 466.242188 L 211.964844 466.210938 L 212.277344 466.164062 L 212.578125 466.109375 L 212.871094 466.039062 L 213.152344 465.960938 L 213.421875 465.867188 L 213.679688 465.765625 L 213.925781 465.648438 L 214.167969 465.523438 L 214.398438 465.390625 L 214.621094 465.25 L 214.835938 465.097656 L 215.039062 464.941406 L 215.234375 464.773438 L 215.417969 464.601562 L 215.59375 464.417969 L 215.761719 464.226562 L 215.917969 464.027344 L 216.066406 463.824219 L 216.207031 463.609375 L 216.335938 463.394531 L 216.460938 463.167969 L 216.574219 462.941406 L 216.679688 462.703125 L 216.773438 462.464844 L 216.863281 462.214844 L 216.941406 461.964844 L 217.011719 461.703125 L 217.078125 461.441406 L 217.140625 461.175781 L 217.191406 460.910156 L 217.238281 460.636719 L 217.277344 460.367188 L 217.308594 460.089844 L 217.332031 459.816406 L 217.351562 459.535156 L 217.359375 459.253906 L 217.363281 458.96875 L 217.363281 458.757812 L 217.351562 458.554688 L 217.339844 458.355469 L 217.320312 458.164062 L 217.296875 457.980469 L 217.265625 457.800781 L 217.230469 457.628906 L 217.1875 457.464844 L 217.144531 457.304688 L 217.089844 457.152344 L 217.035156 457.007812 L 216.972656 456.867188 L 216.910156 456.734375 L 216.84375 456.605469 L 216.773438 456.484375 L 216.699219 456.367188 L 216.621094 456.257812 L 216.539062 456.152344 L 216.457031 456.054688 L 216.367188 455.960938 L 216.277344 455.871094 L 216.183594 455.785156 L 215.988281 455.628906 L 215.882812 455.5625 L 215.78125 455.496094 L 215.5625 455.386719 L 215.449219 455.339844 L 215.332031 455.296875 L 215.097656 455.226562 L 214.855469 455.171875 L 214.730469 455.152344 L 214.609375 455.132812 L 214.359375 455.109375 Z M 214.101562 455.101562 "/>
</g>
</svg>
