<?xml version="1.0" encoding="UTF-8"?>
<svg xmlns="http://www.w3.org/2000/svg" xmlns:xlink="http://www.w3.org/1999/xlink" width="756pt" height="270pt" viewBox="0 0 756 270" version="1.1">
<defs>
<clipPath id="clip1">
  <path d="M 416 5.480469 L 418 5.480469 L 418 243.472656 L 416 243.472656 Z M 416 5.480469 "/>
</clipPath>
<clipPath id="clip2">
  <path d="M 420 5.480469 L 422 5.480469 L 422 243.472656 L 420 243.472656 Z M 420 5.480469 "/>
</clipPath>
<clipPath id="clip3">
  <path d="M 8.21875 232 L 750.519531 232 L 750.519531 234 L 8.21875 234 Z M 8.21875 232 "/>
</clipPath>
</defs>
<g id="surface154">
<rect x="0" y="0" width="756" height="270" style="fill:rgb(100%,100%,100%);fill-opacity:1;stroke:none;"/>
<g clip-path="url(#clip1)" clip-rule="nonzero">
<path style="fill:none;stroke-width:1.066978;stroke-linecap:butt;stroke-linejoin:round;stroke:rgb(0%,0%,0%);stroke-opacity:1;stroke-miterlimit:10;" d="M 416.859375 243.46875 L 416.859375 5.480469 "/>
</g>
<g clip-path="url(#clip2)" clip-rule="nonzero">
<path style="fill:none;stroke-width:1.066978;stroke-linecap:butt;stroke-linejoin:round;stroke:rgb(100%,0%,0%);stroke-opacity:1;stroke-dasharray:4.267913,4.267913;stroke-miterlimit:10;" d="M 421.359375 243.46875 L 421.359375 5.480469 "/>
</g>
<path style=" stroke:none;fill-rule:nonzero;fill:rgb(85.098039%,85.098039%,85.098039%);fill-opacity:0.8;" d="M 41.960938 232.652344 L 69.691406 232.652344 L 71.011719 232.648438 L 73.652344 232.648438 L 74.976562 232.644531 L 80.257812 232.628906 L 81.578125 232.621094 L 82.898438 232.609375 L 84.21875 232.601562 L 85.539062 232.589844 L 92.140625 232.511719 L 93.464844 232.496094 L 94.785156 232.484375 L 96.105469 232.46875 L 98.746094 232.445312 L 100.066406 232.4375 L 101.386719 232.433594 L 102.707031 232.425781 L 106.667969 232.425781 L 109.308594 232.433594 L 110.628906 232.441406 L 111.953125 232.449219 L 117.234375 232.496094 L 118.554688 232.511719 L 119.875 232.523438 L 121.195312 232.53125 L 122.515625 232.542969 L 125.15625 232.550781 L 127.796875 232.542969 L 130.4375 232.519531 L 131.761719 232.5 L 133.082031 232.480469 L 134.402344 232.457031 L 139.683594 232.347656 L 141.003906 232.324219 L 142.324219 232.296875 L 143.644531 232.273438 L 146.285156 232.234375 L 148.925781 232.203125 L 150.25 232.195312 L 151.570312 232.183594 L 152.890625 232.179688 L 156.851562 232.179688 L 158.171875 232.1875 L 159.492188 232.191406 L 160.8125 232.203125 L 162.132812 232.210938 L 163.453125 232.222656 L 167.414062 232.246094 L 168.738281 232.246094 L 170.058594 232.242188 L 171.378906 232.234375 L 172.699219 232.21875 L 174.019531 232.191406 L 175.339844 232.15625 L 176.660156 232.105469 L 177.980469 232.042969 L 179.300781 231.96875 L 180.621094 231.878906 L 181.941406 231.777344 L 183.261719 231.660156 L 184.582031 231.535156 L 185.902344 231.402344 L 187.222656 231.261719 L 188.546875 231.121094 L 191.1875 230.839844 L 192.507812 230.707031 L 193.828125 230.582031 L 195.148438 230.464844 L 196.46875 230.355469 L 197.789062 230.25 L 199.109375 230.152344 L 203.070312 229.871094 L 204.390625 229.773438 L 205.710938 229.671875 L 207.035156 229.566406 L 209.675781 229.339844 L 214.957031 228.855469 L 216.277344 228.738281 L 218.917969 228.511719 L 224.199219 228.089844 L 225.523438 227.976562 L 226.84375 227.859375 L 228.164062 227.734375 L 229.484375 227.597656 L 230.804688 227.449219 L 232.125 227.285156 L 233.445312 227.101562 L 234.765625 226.894531 L 236.085938 226.667969 L 237.40625 226.414062 L 238.726562 226.132812 L 240.046875 225.820312 L 241.367188 225.484375 L 242.6875 225.113281 L 244.011719 224.71875 L 245.332031 224.292969 L 246.652344 223.847656 L 247.972656 223.378906 L 249.292969 222.898438 L 250.613281 222.402344 L 251.933594 221.902344 L 253.253906 221.394531 L 254.574219 220.878906 L 255.894531 220.359375 L 257.214844 219.835938 L 258.535156 219.300781 L 259.855469 218.753906 L 261.175781 218.191406 L 262.496094 217.609375 L 263.820312 217.007812 L 265.140625 216.382812 L 266.460938 215.738281 L 267.78125 215.070312 L 269.101562 214.386719 L 270.421875 213.6875 L 271.742188 212.972656 L 273.0625 212.246094 L 274.382812 211.515625 L 275.703125 210.777344 L 277.023438 210.03125 L 278.34375 209.28125 L 279.664062 208.519531 L 280.984375 207.75 L 282.308594 206.957031 L 283.628906 206.144531 L 284.949219 205.304688 L 286.269531 204.429688 L 287.589844 203.511719 L 288.910156 202.550781 L 290.230469 201.542969 L 291.550781 200.488281 L 292.871094 199.382812 L 294.191406 198.234375 L 295.511719 197.035156 L 296.832031 195.789062 L 298.152344 194.492188 L 299.472656 193.144531 L 300.796875 191.738281 L 302.117188 190.277344 L 303.4375 188.753906 L 304.757812 187.171875 L 306.078125 185.527344 L 307.398438 183.816406 L 308.71875 182.039062 L 310.039062 180.191406 L 311.359375 178.285156 L 312.679688 176.308594 L 314 174.265625 L 315.320312 172.160156 L 316.640625 169.996094 L 317.960938 167.777344 L 319.28125 165.496094 L 320.605469 163.160156 L 321.925781 160.765625 L 323.246094 158.316406 L 324.566406 155.808594 L 325.886719 153.25 L 327.207031 150.636719 L 328.527344 147.980469 L 329.847656 145.285156 L 331.167969 142.558594 L 332.488281 139.8125 L 333.808594 137.046875 L 335.128906 134.265625 L 336.449219 131.476562 L 337.769531 128.675781 L 339.09375 125.867188 L 340.414062 123.042969 L 341.734375 120.199219 L 343.054688 117.335938 L 344.375 114.449219 L 345.695312 111.535156 L 347.015625 108.589844 L 348.335938 105.625 L 349.65625 102.640625 L 350.976562 99.648438 L 352.296875 96.660156 L 353.617188 93.691406 L 354.9375 90.757812 L 356.257812 87.875 L 357.582031 85.054688 L 358.902344 82.308594 L 360.222656 79.640625 L 361.542969 77.0625 L 362.863281 74.574219 L 364.183594 72.171875 L 365.503906 69.859375 L 366.824219 67.640625 L 368.144531 65.507812 L 369.464844 63.460938 L 370.785156 61.492188 L 372.105469 59.605469 L 373.425781 57.800781 L 374.746094 56.074219 L 376.070312 54.421875 L 377.390625 52.84375 L 378.710938 51.324219 L 380.03125 49.851562 L 381.351562 48.414062 L 382.671875 46.980469 L 383.992188 45.542969 L 385.3125 44.078125 L 386.632812 42.574219 L 387.953125 41.023438 L 389.273438 39.414062 L 390.59375 37.753906 L 391.914062 36.046875 L 393.234375 34.304688 L 394.554688 32.546875 L 395.878906 30.796875 L 397.199219 29.074219 L 398.519531 27.40625 L 399.839844 25.8125 L 401.160156 24.308594 L 402.480469 22.910156 L 403.800781 21.632812 L 405.121094 20.488281 L 406.441406 19.480469 L 407.761719 18.628906 L 409.082031 17.914062 L 410.402344 17.335938 L 411.722656 16.890625 L 413.042969 16.570312 L 414.367188 16.375 L 415.6875 16.296875 L 417.007812 16.332031 L 418.328125 16.472656 L 419.648438 16.722656 L 420.96875 17.082031 L 422.289062 17.539062 L 423.609375 18.085938 L 424.929688 18.714844 L 426.25 19.425781 L 427.570312 20.195312 L 428.890625 21.023438 L 430.210938 21.886719 L 431.53125 22.773438 L 432.855469 23.675781 L 434.175781 24.570312 L 435.496094 25.457031 L 436.816406 26.332031 L 438.136719 27.203125 L 439.457031 28.078125 L 440.777344 28.976562 L 442.097656 29.914062 L 443.417969 30.921875 L 444.738281 32.023438 L 446.058594 33.238281 L 447.378906 34.613281 L 448.699219 36.148438 L 450.019531 37.855469 L 451.34375 39.738281 L 452.664062 41.785156 L 453.984375 43.992188 L 455.304688 46.339844 L 456.625 48.808594 L 457.945312 51.378906 L 459.265625 54.023438 L 460.585938 56.726562 L 461.90625 59.460938 L 463.226562 62.214844 L 464.546875 64.980469 L 465.867188 67.75 L 467.1875 70.527344 L 468.507812 73.316406 L 469.828125 76.121094 L 471.152344 78.941406 L 472.472656 81.792969 L 473.792969 84.671875 L 475.113281 87.585938 L 476.433594 90.523438 L 477.753906 93.484375 L 480.394531 99.429688 L 481.714844 102.394531 L 483.035156 105.332031 L 484.355469 108.234375 L 485.675781 111.09375 L 486.996094 113.886719 L 488.316406 116.613281 L 489.640625 119.273438 L 490.960938 121.867188 L 492.28125 124.402344 L 493.601562 126.890625 L 494.921875 129.339844 L 496.242188 131.765625 L 497.5625 134.183594 L 498.882812 136.609375 L 500.203125 139.058594 L 501.523438 141.539062 L 502.84375 144.054688 L 504.164062 146.605469 L 505.484375 149.183594 L 506.804688 151.777344 L 508.128906 154.375 L 509.449219 156.957031 L 510.769531 159.507812 L 512.089844 162.011719 L 513.410156 164.449219 L 514.730469 166.800781 L 516.050781 169.070312 L 517.371094 171.246094 L 518.691406 173.335938 L 520.011719 175.339844 L 521.332031 177.265625 L 522.652344 179.121094 L 523.972656 180.917969 L 525.292969 182.664062 L 526.613281 184.371094 L 527.9375 186.042969 L 529.257812 187.6875 L 530.578125 189.304688 L 531.898438 190.894531 L 533.21875 192.453125 L 534.539062 193.976562 L 535.859375 195.453125 L 537.179688 196.875 L 538.5 198.242188 L 539.820312 199.539062 L 541.140625 200.757812 L 542.460938 201.90625 L 543.78125 202.988281 L 545.101562 204.003906 L 546.425781 204.964844 L 547.746094 205.878906 L 549.066406 206.757812 L 550.386719 207.609375 L 551.707031 208.449219 L 553.027344 209.277344 L 556.988281 211.773438 L 558.308594 212.609375 L 559.628906 213.433594 L 560.949219 214.25 L 562.269531 215.046875 L 563.589844 215.816406 L 564.914062 216.554688 L 566.234375 217.253906 L 567.554688 217.914062 L 568.875 218.527344 L 570.195312 219.105469 L 571.515625 219.648438 L 572.835938 220.160156 L 574.15625 220.644531 L 575.476562 221.113281 L 576.796875 221.5625 L 578.117188 222.003906 L 579.4375 222.441406 L 582.078125 223.308594 L 583.402344 223.746094 L 584.722656 224.179688 L 586.042969 224.621094 L 588.683594 225.488281 L 590.003906 225.914062 L 591.324219 226.335938 L 592.644531 226.742188 L 593.964844 227.136719 L 595.285156 227.511719 L 596.605469 227.871094 L 597.925781 228.210938 L 599.246094 228.53125 L 600.566406 228.832031 L 601.886719 229.113281 L 603.210938 229.375 L 604.53125 229.617188 L 605.851562 229.835938 L 607.171875 230.042969 L 608.492188 230.226562 L 609.8125 230.394531 L 611.132812 230.546875 L 612.453125 230.679688 L 613.773438 230.800781 L 615.09375 230.910156 L 616.414062 231.003906 L 617.734375 231.085938 L 619.054688 231.15625 L 620.375 231.214844 L 621.699219 231.265625 L 623.019531 231.308594 L 624.339844 231.347656 L 628.300781 231.453125 L 629.621094 231.492188 L 632.261719 231.585938 L 634.902344 231.703125 L 636.222656 231.769531 L 637.542969 231.839844 L 638.863281 231.914062 L 640.1875 231.984375 L 642.828125 232.117188 L 644.148438 232.171875 L 645.46875 232.222656 L 646.789062 232.261719 L 648.109375 232.292969 L 649.429688 232.316406 L 650.75 232.332031 L 652.070312 232.339844 L 653.390625 232.34375 L 654.710938 232.339844 L 658.671875 232.339844 L 659.996094 232.34375 L 661.316406 232.347656 L 662.636719 232.359375 L 663.957031 232.375 L 665.277344 232.394531 L 670.558594 232.488281 L 671.878906 232.515625 L 673.199219 232.539062 L 675.839844 232.578125 L 677.160156 232.59375 L 678.484375 232.605469 L 679.804688 232.617188 L 682.445312 232.632812 L 683.765625 232.636719 L 685.085938 232.644531 L 686.40625 232.644531 L 687.726562 232.648438 L 690.367188 232.648438 L 691.6875 232.652344 L 716.78125 232.652344 Z M 41.960938 232.652344 "/>
<path style=" stroke:none;fill-rule:nonzero;fill:rgb(90.196078%,25.490196%,45.098039%);fill-opacity:1;" d="M 41.960938 232.652344 L 69.691406 232.652344 L 71.011719 232.648438 L 73.652344 232.648438 L 74.976562 232.644531 L 80.257812 232.628906 L 81.578125 232.621094 L 82.898438 232.609375 L 84.21875 232.601562 L 85.539062 232.589844 L 92.140625 232.511719 L 93.464844 232.496094 L 94.785156 232.484375 L 96.105469 232.46875 L 98.746094 232.445312 L 100.066406 232.4375 L 101.386719 232.433594 L 102.707031 232.425781 L 106.667969 232.425781 L 109.308594 232.433594 L 110.628906 232.441406 L 111.953125 232.449219 L 117.234375 232.496094 L 118.554688 232.511719 L 119.875 232.523438 L 121.195312 232.53125 L 122.515625 232.542969 L 125.15625 232.550781 L 127.796875 232.542969 L 130.4375 232.519531 L 131.761719 232.5 L 133.082031 232.480469 L 134.402344 232.457031 L 139.683594 232.347656 L 141.003906 232.324219 L 142.324219 232.296875 L 143.644531 232.273438 L 146.285156 232.234375 L 148.925781 232.203125 L 150.25 232.195312 L 151.570312 232.183594 L 152.890625 232.179688 L 156.851562 232.179688 L 158.171875 232.1875 L 159.492188 232.191406 L 160.8125 232.203125 L 162.132812 232.210938 L 163.453125 232.222656 L 167.414062 232.246094 L 168.738281 232.246094 L 170.058594 232.242188 L 171.378906 232.234375 L 172.699219 232.21875 L 174.019531 232.191406 L 175.339844 232.15625 L 176.660156 232.105469 L 177.980469 232.042969 L 179.300781 231.96875 L 180.621094 231.878906 L 181.941406 231.777344 L 183.261719 231.660156 L 184.582031 231.535156 L 185.902344 231.402344 L 187.222656 231.261719 L 188.546875 231.121094 L 191.1875 230.839844 L 192.507812 230.707031 L 193.828125 230.582031 L 195.148438 230.464844 L 196.46875 230.355469 L 197.789062 230.25 L 199.109375 230.152344 L 203.070312 229.871094 L 204.390625 229.773438 L 205.710938 229.671875 L 207.035156 229.566406 L 209.675781 229.339844 L 214.957031 228.855469 L 216.277344 228.738281 L 218.917969 228.511719 L 224.199219 228.089844 L 225.523438 227.976562 L 226.84375 227.859375 L 228.164062 227.734375 L 229.484375 227.597656 L 230.804688 227.449219 L 232.125 227.285156 L 233.445312 227.101562 L 234.765625 226.894531 L 236.085938 226.667969 L 237.40625 226.414062 L 238.726562 226.132812 L 240.046875 225.820312 L 241.367188 225.484375 L 242.6875 225.113281 L 244.011719 224.71875 L 245.332031 224.292969 L 246.652344 223.847656 L 247.972656 223.378906 L 249.292969 222.898438 L 250.613281 222.402344 L 251.933594 221.902344 L 253.253906 221.394531 L 254.574219 220.878906 L 255.894531 220.359375 L 257.214844 219.835938 L 258.535156 219.300781 L 259.855469 218.753906 L 261.175781 218.191406 L 262.496094 217.609375 L 262.496094 232.652344 Z M 41.960938 232.652344 "/>
<path style=" stroke:none;fill-rule:nonzero;fill:rgb(90.196078%,25.490196%,45.098039%);fill-opacity:1;" d="M 571.515625 219.648438 L 572.835938 220.160156 L 574.15625 220.644531 L 575.476562 221.113281 L 576.796875 221.5625 L 578.117188 222.003906 L 579.4375 222.441406 L 582.078125 223.308594 L 583.402344 223.746094 L 584.722656 224.179688 L 586.042969 224.621094 L 588.683594 225.488281 L 590.003906 225.914062 L 591.324219 226.335938 L 592.644531 226.742188 L 593.964844 227.136719 L 595.285156 227.511719 L 596.605469 227.871094 L 597.925781 228.210938 L 599.246094 228.53125 L 600.566406 228.832031 L 601.886719 229.113281 L 603.210938 229.375 L 604.53125 229.617188 L 605.851562 229.835938 L 607.171875 230.042969 L 608.492188 230.226562 L 609.8125 230.394531 L 611.132812 230.546875 L 612.453125 230.679688 L 613.773438 230.800781 L 615.09375 230.910156 L 616.414062 231.003906 L 617.734375 231.085938 L 619.054688 231.15625 L 620.375 231.214844 L 621.699219 231.265625 L 623.019531 231.308594 L 624.339844 231.347656 L 628.300781 231.453125 L 629.621094 231.492188 L 632.261719 231.585938 L 634.902344 231.703125 L 636.222656 231.769531 L 637.542969 231.839844 L 638.863281 231.914062 L 640.1875 231.984375 L 642.828125 232.117188 L 644.148438 232.171875 L 645.46875 232.222656 L 646.789062 232.261719 L 648.109375 232.292969 L 649.429688 232.316406 L 650.75 232.332031 L 652.070312 232.339844 L 653.390625 232.34375 L 654.710938 232.339844 L 658.671875 232.339844 L 659.996094 232.34375 L 661.316406 232.347656 L 662.636719 232.359375 L 663.957031 232.375 L 665.277344 232.394531 L 670.558594 232.488281 L 671.878906 232.515625 L 673.199219 232.539062 L 675.839844 232.578125 L 677.160156 232.59375 L 678.484375 232.605469 L 679.804688 232.617188 L 682.445312 232.632812 L 683.765625 232.636719 L 685.085938 232.644531 L 686.40625 232.644531 L 687.726562 232.648438 L 690.367188 232.648438 L 691.6875 232.652344 L 716.78125 232.652344 L 571.515625 232.652344 Z M 571.515625 219.648438 "/>
<g clip-path="url(#clip3)" clip-rule="nonzero">
<path style="fill:none;stroke-width:1.066978;stroke-linecap:butt;stroke-linejoin:round;stroke:rgb(0%,0%,0%);stroke-opacity:1;stroke-miterlimit:10;" d="M 8.21875 232.652344 L 750.519531 232.652344 "/>
</g>
<path style=" stroke:none;fill-rule:nonzero;fill:rgb(30.196078%,30.196078%,30.196078%);fill-opacity:1;" d="M 27.25 256.707031 L 27.25 255.300781 L 31.644531 255.300781 L 31.644531 256.707031 Z M 27.25 256.707031 "/>
<path style=" stroke:none;fill-rule:nonzero;fill:rgb(30.196078%,30.196078%,30.196078%);fill-opacity:1;" d="M 41.699219 256.75 L 41.699219 256.9375 L 41.691406 257.117188 L 41.675781 257.296875 L 41.65625 257.472656 L 41.628906 257.644531 L 41.601562 257.8125 L 41.5625 257.976562 L 41.519531 258.140625 L 41.472656 258.300781 L 41.417969 258.457031 L 41.359375 258.609375 L 41.296875 258.757812 L 41.226562 258.902344 L 41.152344 259.042969 L 41.070312 259.175781 L 40.984375 259.308594 L 40.890625 259.4375 L 40.796875 259.558594 L 40.585938 259.792969 L 40.472656 259.898438 L 40.351562 260.003906 L 40.226562 260.101562 L 40.097656 260.195312 L 39.960938 260.285156 L 39.820312 260.367188 L 39.675781 260.445312 L 39.523438 260.519531 L 39.367188 260.589844 L 39.203125 260.652344 L 39.039062 260.710938 L 38.867188 260.765625 L 38.691406 260.808594 L 38.507812 260.851562 L 38.320312 260.882812 L 38.128906 260.910156 L 37.929688 260.933594 L 37.726562 260.949219 L 37.519531 260.957031 L 37.304688 260.960938 L 37.113281 260.957031 L 36.925781 260.953125 L 36.742188 260.941406 L 36.566406 260.925781 L 36.390625 260.902344 L 36.222656 260.878906 L 35.902344 260.816406 L 35.75 260.777344 L 35.601562 260.734375 L 35.320312 260.632812 L 35.1875 260.582031 L 35.058594 260.523438 L 34.933594 260.460938 L 34.816406 260.398438 L 34.699219 260.332031 L 34.589844 260.261719 L 34.480469 260.1875 L 34.378906 260.109375 L 34.28125 260.027344 L 34.1875 259.941406 L 34.097656 259.855469 L 34.011719 259.765625 L 33.929688 259.671875 L 33.851562 259.574219 L 33.777344 259.476562 L 33.707031 259.378906 L 33.640625 259.273438 L 33.578125 259.167969 L 33.46875 258.949219 L 33.421875 258.839844 L 33.375 258.726562 L 33.332031 258.613281 L 33.253906 258.378906 L 33.222656 258.257812 L 33.191406 258.140625 L 33.167969 258.015625 L 34.765625 257.832031 L 34.785156 257.902344 L 34.832031 258.042969 L 34.855469 258.109375 L 34.882812 258.179688 L 34.910156 258.246094 L 34.941406 258.316406 L 35.003906 258.449219 L 35.039062 258.519531 L 35.074219 258.582031 L 35.113281 258.644531 L 35.199219 258.769531 L 35.292969 258.886719 L 35.34375 258.941406 L 35.398438 259 L 35.453125 259.054688 L 35.511719 259.105469 L 35.578125 259.15625 L 35.640625 259.203125 L 35.78125 259.296875 L 35.855469 259.335938 L 35.929688 259.378906 L 36.007812 259.414062 L 36.089844 259.453125 L 36.175781 259.488281 L 36.261719 259.519531 L 36.351562 259.546875 L 36.445312 259.574219 L 36.546875 259.597656 L 36.648438 259.613281 L 36.753906 259.632812 L 36.863281 259.644531 L 36.976562 259.65625 L 37.097656 259.664062 L 37.214844 259.667969 L 37.464844 259.667969 L 37.699219 259.652344 L 37.816406 259.640625 L 37.929688 259.621094 L 38.039062 259.601562 L 38.148438 259.578125 L 38.253906 259.550781 L 38.355469 259.519531 L 38.457031 259.484375 L 38.554688 259.445312 L 38.652344 259.398438 L 38.746094 259.351562 L 38.835938 259.300781 L 38.921875 259.246094 L 39.085938 259.128906 L 39.164062 259.0625 L 39.238281 258.992188 L 39.308594 258.921875 L 39.378906 258.847656 L 39.449219 258.769531 L 39.511719 258.683594 L 39.570312 258.601562 L 39.628906 258.511719 L 39.683594 258.417969 L 39.734375 258.324219 L 39.78125 258.222656 L 39.824219 258.121094 L 39.863281 258.015625 L 39.902344 257.90625 L 39.933594 257.796875 L 39.988281 257.5625 L 40.007812 257.441406 L 40.027344 257.316406 L 40.050781 257.058594 L 40.058594 256.785156 L 40.054688 256.671875 L 40.050781 256.5625 L 40.027344 256.34375 L 40.011719 256.238281 L 39.992188 256.136719 L 39.96875 256.035156 L 39.9375 255.933594 L 39.90625 255.835938 L 39.871094 255.742188 L 39.835938 255.644531 L 39.792969 255.550781 L 39.746094 255.464844 L 39.699219 255.375 L 39.648438 255.292969 L 39.59375 255.210938 L 39.535156 255.132812 L 39.476562 255.058594 L 39.414062 254.984375 L 39.273438 254.84375 L 39.203125 254.78125 L 39.046875 254.65625 L 38.964844 254.601562 L 38.878906 254.550781 L 38.789062 254.5 L 38.695312 254.453125 L 38.601562 254.410156 L 38.5 254.371094 L 38.402344 254.332031 L 38.300781 254.300781 L 38.195312 254.269531 L 38.085938 254.246094 L 37.972656 254.222656 L 37.859375 254.207031 L 37.742188 254.191406 L 37.625 254.183594 L 37.375 254.175781 L 37.296875 254.175781 L 37.222656 254.179688 L 37.144531 254.183594 L 37.070312 254.1875 L 36.996094 254.195312 L 36.925781 254.199219 L 36.851562 254.210938 L 36.785156 254.222656 L 36.714844 254.234375 L 36.648438 254.246094 L 36.449219 254.292969 L 36.386719 254.3125 L 36.324219 254.328125 L 36.261719 254.347656 L 36.199219 254.371094 L 36.140625 254.390625 L 36.082031 254.414062 L 36.023438 254.441406 L 35.96875 254.464844 L 35.914062 254.492188 L 35.859375 254.515625 L 35.804688 254.546875 L 35.703125 254.601562 L 35.550781 254.695312 L 35.503906 254.730469 L 35.460938 254.761719 L 35.414062 254.792969 L 35.371094 254.824219 L 35.324219 254.859375 L 35.28125 254.890625 L 35.238281 254.925781 L 35.199219 254.960938 L 35.15625 254.992188 L 35.113281 255.027344 L 35.074219 255.0625 L 33.527344 255.0625 L 33.941406 248.402344 L 40.980469 248.402344 L 40.980469 249.746094 L 35.382812 249.746094 L 35.144531 253.675781 L 35.230469 253.609375 L 35.320312 253.546875 L 35.515625 253.429688 L 35.617188 253.375 L 35.726562 253.320312 L 35.839844 253.265625 L 35.953125 253.214844 L 36.074219 253.167969 L 36.199219 253.121094 L 36.328125 253.074219 L 36.460938 253.035156 L 36.601562 253 L 36.742188 252.96875 L 36.890625 252.941406 L 37.042969 252.921875 L 37.199219 252.90625 L 37.363281 252.894531 L 37.53125 252.886719 L 37.703125 252.882812 L 37.882812 252.886719 L 38.0625 252.894531 L 38.238281 252.910156 L 38.410156 252.929688 L 38.578125 252.953125 L 38.742188 252.984375 L 38.902344 253.023438 L 39.058594 253.0625 L 39.214844 253.113281 L 39.363281 253.164062 L 39.507812 253.222656 L 39.648438 253.285156 L 39.785156 253.355469 L 39.917969 253.429688 L 40.046875 253.503906 L 40.289062 253.675781 L 40.402344 253.765625 L 40.515625 253.863281 L 40.621094 253.964844 L 40.722656 254.070312 L 40.816406 254.175781 L 40.910156 254.289062 L 40.996094 254.40625 L 41.078125 254.523438 L 41.15625 254.648438 L 41.230469 254.777344 L 41.296875 254.910156 L 41.359375 255.046875 L 41.417969 255.1875 L 41.472656 255.332031 L 41.519531 255.476562 L 41.5625 255.625 L 41.601562 255.777344 L 41.65625 256.089844 L 41.675781 256.253906 L 41.691406 256.414062 L 41.699219 256.582031 Z M 41.699219 256.75 "/>
<path style=" stroke:none;fill-rule:nonzero;fill:rgb(30.196078%,30.196078%,30.196078%);fill-opacity:1;" d="M 44.101562 260.785156 L 44.101562 258.859375 L 45.8125 258.859375 L 45.8125 260.785156 Z M 44.101562 260.785156 "/>
<path style=" stroke:none;fill-rule:nonzero;fill:rgb(30.196078%,30.196078%,30.196078%);fill-opacity:1;" d="M 56.765625 254.589844 L 56.761719 254.941406 L 56.75 255.28125 L 56.734375 255.609375 L 56.710938 255.925781 L 56.679688 256.234375 L 56.640625 256.527344 L 56.597656 256.8125 L 56.546875 257.082031 L 56.488281 257.34375 L 56.421875 257.59375 L 56.351562 257.832031 L 56.277344 258.0625 L 56.199219 258.28125 L 56.113281 258.492188 L 56.023438 258.695312 L 55.929688 258.886719 L 55.832031 259.070312 L 55.726562 259.242188 L 55.613281 259.40625 L 55.5 259.5625 L 55.382812 259.707031 L 55.257812 259.84375 L 55.132812 259.972656 L 55 260.09375 L 54.867188 260.207031 L 54.726562 260.308594 L 54.585938 260.402344 L 54.4375 260.488281 L 54.285156 260.566406 L 54.128906 260.636719 L 53.96875 260.699219 L 53.808594 260.753906 L 53.644531 260.800781 L 53.480469 260.84375 L 53.3125 260.878906 L 53.140625 260.910156 L 52.96875 260.933594 L 52.796875 260.949219 L 52.621094 260.957031 L 52.441406 260.960938 L 52.261719 260.957031 L 52.082031 260.949219 L 51.910156 260.933594 L 51.738281 260.910156 L 51.566406 260.878906 L 51.398438 260.84375 L 51.234375 260.800781 L 51.070312 260.753906 L 50.910156 260.699219 L 50.753906 260.636719 L 50.597656 260.566406 L 50.449219 260.488281 L 50.300781 260.402344 L 50.160156 260.308594 L 50.023438 260.207031 L 49.886719 260.09375 L 49.757812 259.972656 L 49.632812 259.84375 L 49.507812 259.707031 L 49.390625 259.5625 L 49.28125 259.410156 L 49.171875 259.246094 L 49.070312 259.074219 L 48.972656 258.890625 L 48.878906 258.699219 L 48.792969 258.5 L 48.707031 258.289062 L 48.628906 258.070312 L 48.554688 257.839844 L 48.484375 257.605469 L 48.425781 257.351562 L 48.367188 257.09375 L 48.320312 256.820312 L 48.277344 256.535156 L 48.242188 256.238281 L 48.210938 255.933594 L 48.191406 255.613281 L 48.175781 255.285156 L 48.164062 254.941406 L 48.160156 254.589844 L 48.164062 254.222656 L 48.175781 253.867188 L 48.191406 253.523438 L 48.210938 253.195312 L 48.242188 252.878906 L 48.277344 252.578125 L 48.320312 252.285156 L 48.367188 252.011719 L 48.425781 251.746094 L 48.484375 251.496094 L 48.554688 251.253906 L 48.628906 251.023438 L 48.707031 250.800781 L 48.792969 250.589844 L 48.882812 250.390625 L 48.976562 250.199219 L 49.074219 250.019531 L 49.179688 249.847656 L 49.285156 249.6875 L 49.398438 249.535156 L 49.519531 249.394531 L 49.640625 249.261719 L 49.765625 249.136719 L 49.898438 249.023438 L 50.03125 248.914062 L 50.171875 248.816406 L 50.316406 248.730469 L 50.464844 248.648438 L 50.613281 248.578125 L 50.769531 248.515625 L 50.929688 248.457031 L 51.09375 248.40625 L 51.257812 248.363281 L 51.425781 248.324219 L 51.597656 248.292969 L 51.769531 248.265625 L 51.949219 248.242188 L 52.125 248.230469 L 52.308594 248.21875 L 52.671875 248.21875 L 53.015625 248.242188 L 53.1875 248.265625 L 53.351562 248.292969 L 53.519531 248.324219 L 53.679688 248.363281 L 53.839844 248.40625 L 54 248.457031 L 54.15625 248.515625 L 54.308594 248.578125 L 54.460938 248.648438 L 54.605469 248.730469 L 54.75 248.816406 L 54.886719 248.914062 L 55.019531 249.023438 L 55.152344 249.136719 L 55.277344 249.261719 L 55.398438 249.394531 L 55.515625 249.535156 L 55.628906 249.6875 L 55.738281 249.847656 L 55.84375 250.019531 L 55.941406 250.199219 L 56.035156 250.390625 L 56.125 250.589844 L 56.207031 250.800781 L 56.289062 251.023438 L 56.363281 251.253906 L 56.429688 251.496094 L 56.496094 251.746094 L 56.550781 252.011719 L 56.601562 252.285156 L 56.644531 252.578125 L 56.683594 252.878906 L 56.710938 253.195312 L 56.734375 253.523438 L 56.753906 253.867188 L 56.761719 254.222656 Z M 55.15625 254.589844 L 55.15625 254.296875 L 55.148438 254.019531 L 55.140625 253.75 L 55.128906 253.488281 L 55.113281 253.238281 L 55.09375 252.996094 L 55.070312 252.765625 L 55.042969 252.546875 L 55.015625 252.335938 L 54.980469 252.136719 L 54.945312 251.945312 L 54.902344 251.757812 L 54.859375 251.582031 L 54.8125 251.414062 L 54.761719 251.253906 L 54.710938 251.101562 L 54.652344 250.957031 L 54.59375 250.820312 L 54.53125 250.691406 L 54.390625 250.457031 L 54.320312 250.351562 L 54.242188 250.25 L 54.164062 250.15625 L 54.082031 250.070312 L 53.996094 249.992188 L 53.90625 249.921875 L 53.8125 249.855469 L 53.71875 249.796875 L 53.617188 249.746094 L 53.519531 249.699219 L 53.417969 249.65625 L 53.3125 249.621094 L 53.203125 249.589844 L 53.089844 249.5625 L 52.976562 249.539062 L 52.859375 249.523438 L 52.742188 249.511719 L 52.617188 249.503906 L 52.492188 249.5 L 52.363281 249.503906 L 52.234375 249.511719 L 52.105469 249.523438 L 51.984375 249.539062 L 51.867188 249.5625 L 51.75 249.589844 L 51.636719 249.621094 L 51.527344 249.65625 L 51.417969 249.699219 L 51.316406 249.746094 L 51.214844 249.796875 L 51.117188 249.859375 L 51.023438 249.925781 L 50.933594 249.996094 L 50.847656 250.078125 L 50.761719 250.164062 L 50.679688 250.257812 L 50.601562 250.359375 L 50.527344 250.464844 L 50.453125 250.582031 L 50.386719 250.699219 L 50.324219 250.828125 L 50.265625 250.964844 L 50.207031 251.109375 L 50.152344 251.261719 L 50.105469 251.421875 L 50.058594 251.589844 L 50.011719 251.769531 L 49.972656 251.953125 L 49.9375 252.144531 L 49.902344 252.34375 L 49.871094 252.554688 L 49.847656 252.773438 L 49.824219 253.003906 L 49.804688 253.246094 L 49.789062 253.492188 L 49.777344 253.753906 L 49.765625 254.023438 L 49.761719 254.300781 L 49.761719 254.871094 L 49.765625 255.140625 L 49.777344 255.402344 L 49.789062 255.65625 L 49.804688 255.902344 L 49.824219 256.136719 L 49.847656 256.363281 L 49.871094 256.582031 L 49.902344 256.789062 L 49.9375 256.988281 L 49.976562 257.179688 L 50.015625 257.363281 L 50.0625 257.539062 L 50.109375 257.707031 L 50.160156 257.871094 L 50.214844 258.023438 L 50.273438 258.167969 L 50.332031 258.308594 L 50.398438 258.4375 L 50.464844 258.5625 L 50.535156 258.675781 L 50.609375 258.785156 L 50.6875 258.886719 L 50.769531 258.980469 L 50.851562 259.070312 L 50.9375 259.152344 L 51.027344 259.226562 L 51.121094 259.296875 L 51.21875 259.359375 L 51.316406 259.414062 L 51.417969 259.460938 L 51.523438 259.507812 L 51.628906 259.542969 L 51.738281 259.578125 L 51.851562 259.605469 L 51.96875 259.628906 L 52.085938 259.644531 L 52.207031 259.660156 L 52.332031 259.667969 L 52.582031 259.667969 L 52.703125 259.660156 L 52.9375 259.628906 L 53.050781 259.605469 L 53.164062 259.578125 L 53.273438 259.542969 L 53.378906 259.507812 L 53.582031 259.414062 L 53.683594 259.359375 L 53.777344 259.296875 L 53.871094 259.226562 L 53.960938 259.152344 L 54.046875 259.070312 L 54.128906 258.980469 L 54.207031 258.886719 L 54.285156 258.785156 L 54.355469 258.675781 L 54.425781 258.5625 L 54.496094 258.4375 L 54.5625 258.308594 L 54.625 258.167969 L 54.683594 258.023438 L 54.738281 257.871094 L 54.789062 257.707031 L 54.835938 257.539062 L 54.882812 257.363281 L 54.925781 257.179688 L 54.964844 256.988281 L 55 256.789062 L 55.03125 256.582031 L 55.0625 256.363281 L 55.085938 256.136719 L 55.109375 255.902344 L 55.125 255.65625 L 55.140625 255.402344 L 55.148438 255.140625 L 55.15625 254.871094 Z M 55.15625 254.589844 "/>
<path style=" stroke:none;fill-rule:nonzero;fill:rgb(30.196078%,30.196078%,30.196078%);fill-opacity:1;" d="M 214.703125 256.707031 L 214.703125 255.300781 L 219.097656 255.300781 L 219.097656 256.707031 Z M 214.703125 256.707031 "/>
<path style=" stroke:none;fill-rule:nonzero;fill:rgb(30.196078%,30.196078%,30.196078%);fill-opacity:1;" d="M 220.800781 260.785156 L 220.800781 259.667969 L 220.894531 259.464844 L 220.988281 259.265625 L 221.085938 259.074219 L 221.191406 258.886719 L 221.296875 258.703125 L 221.410156 258.523438 L 221.523438 258.351562 L 221.640625 258.179688 L 221.765625 258.015625 L 221.890625 257.859375 L 222.023438 257.703125 L 222.152344 257.546875 L 222.285156 257.398438 L 222.421875 257.25 L 222.558594 257.105469 L 222.695312 256.964844 L 222.832031 256.828125 L 223.113281 256.5625 L 223.253906 256.433594 L 223.394531 256.308594 L 223.539062 256.183594 L 223.679688 256.058594 L 223.960938 255.816406 L 224.242188 255.582031 L 224.382812 255.46875 L 224.519531 255.359375 L 224.660156 255.25 L 225.070312 254.921875 L 225.328125 254.703125 L 225.453125 254.59375 L 225.695312 254.375 L 225.8125 254.265625 L 225.925781 254.160156 L 226.035156 254.046875 L 226.140625 253.9375 L 226.242188 253.828125 L 226.339844 253.714844 L 226.433594 253.601562 L 226.519531 253.484375 L 226.605469 253.371094 L 226.683594 253.253906 L 226.757812 253.132812 L 226.832031 253.015625 L 226.898438 252.894531 L 226.957031 252.769531 L 227.007812 252.644531 L 227.054688 252.511719 L 227.09375 252.378906 L 227.125 252.242188 L 227.148438 252.101562 L 227.167969 251.957031 L 227.179688 251.8125 L 227.183594 251.664062 L 227.179688 251.558594 L 227.175781 251.457031 L 227.167969 251.359375 L 227.15625 251.261719 L 227.140625 251.167969 L 227.125 251.078125 L 227.105469 250.988281 L 227.082031 250.902344 L 227.054688 250.820312 L 227.023438 250.738281 L 226.992188 250.660156 L 226.953125 250.582031 L 226.917969 250.507812 L 226.832031 250.367188 L 226.785156 250.300781 L 226.734375 250.238281 L 226.679688 250.175781 L 226.625 250.117188 L 226.566406 250.0625 L 226.503906 250.007812 L 226.441406 249.960938 L 226.375 249.910156 L 226.308594 249.867188 L 226.238281 249.824219 L 226.164062 249.785156 L 226.089844 249.75 L 226.011719 249.714844 L 225.847656 249.660156 L 225.761719 249.632812 L 225.589844 249.585938 L 225.5 249.566406 L 225.410156 249.554688 L 225.316406 249.539062 L 225.21875 249.53125 L 225.125 249.523438 L 225.023438 249.519531 L 224.828125 249.519531 L 224.734375 249.523438 L 224.644531 249.53125 L 224.550781 249.539062 L 224.460938 249.550781 L 224.371094 249.566406 L 224.285156 249.582031 L 224.199219 249.601562 L 224.027344 249.648438 L 223.945312 249.675781 L 223.863281 249.707031 L 223.785156 249.742188 L 223.636719 249.8125 L 223.5625 249.855469 L 223.492188 249.898438 L 223.421875 249.945312 L 223.355469 249.992188 L 223.289062 250.046875 L 223.222656 250.097656 L 223.105469 250.214844 L 223.046875 250.277344 L 222.992188 250.339844 L 222.9375 250.410156 L 222.890625 250.480469 L 222.839844 250.550781 L 222.796875 250.625 L 222.753906 250.703125 L 222.714844 250.78125 L 222.675781 250.863281 L 222.613281 251.035156 L 222.558594 251.214844 L 222.539062 251.308594 L 222.519531 251.40625 L 222.488281 251.609375 L 220.871094 251.460938 L 220.910156 251.195312 L 220.9375 251.066406 L 220.96875 250.9375 L 221.003906 250.8125 L 221.042969 250.6875 L 221.085938 250.5625 L 221.132812 250.441406 L 221.183594 250.320312 L 221.300781 250.085938 L 221.367188 249.972656 L 221.433594 249.863281 L 221.507812 249.757812 L 221.585938 249.652344 L 221.667969 249.550781 L 221.753906 249.453125 L 221.84375 249.355469 L 222.039062 249.175781 L 222.144531 249.085938 L 222.363281 248.921875 L 222.480469 248.847656 L 222.601562 248.773438 L 222.851562 248.640625 L 222.984375 248.582031 L 223.121094 248.523438 L 223.261719 248.472656 L 223.410156 248.421875 L 223.558594 248.378906 L 223.714844 248.339844 L 223.875 248.308594 L 224.039062 248.28125 L 224.207031 248.257812 L 224.378906 248.238281 L 224.554688 248.226562 L 224.738281 248.21875 L 225.105469 248.21875 L 225.285156 248.226562 L 225.457031 248.238281 L 225.628906 248.253906 L 225.796875 248.273438 L 225.957031 248.296875 L 226.117188 248.324219 L 226.421875 248.394531 L 226.566406 248.4375 L 226.847656 248.53125 L 226.980469 248.585938 L 227.105469 248.644531 L 227.230469 248.710938 L 227.347656 248.777344 L 227.464844 248.847656 L 227.574219 248.921875 L 227.679688 249.003906 L 227.78125 249.085938 L 227.878906 249.175781 L 227.96875 249.265625 L 228.058594 249.363281 L 228.222656 249.566406 L 228.296875 249.675781 L 228.363281 249.789062 L 228.429688 249.90625 L 228.488281 250.027344 L 228.542969 250.152344 L 228.59375 250.277344 L 228.640625 250.410156 L 228.679688 250.546875 L 228.714844 250.6875 L 228.742188 250.832031 L 228.765625 250.980469 L 228.785156 251.132812 L 228.796875 251.285156 L 228.804688 251.445312 L 228.808594 251.609375 L 228.804688 251.734375 L 228.789062 251.976562 L 228.75 252.21875 L 228.726562 252.335938 L 228.695312 252.453125 L 228.660156 252.570312 L 228.621094 252.683594 L 228.578125 252.796875 L 228.535156 252.90625 L 228.484375 253.019531 L 228.433594 253.128906 L 228.378906 253.238281 L 228.320312 253.34375 L 228.257812 253.453125 L 228.195312 253.558594 L 228.125 253.664062 L 228.054688 253.765625 L 227.90625 253.96875 L 227.75 254.171875 L 227.667969 254.269531 L 227.582031 254.371094 L 227.496094 254.46875 L 227.40625 254.566406 L 227.3125 254.660156 L 227.21875 254.757812 L 227.121094 254.851562 L 227.023438 254.949219 L 226.617188 255.324219 L 226.515625 255.414062 L 226.304688 255.601562 L 226.199219 255.691406 L 226.09375 255.785156 L 225.984375 255.875 L 225.878906 255.964844 L 225.660156 256.144531 L 225.554688 256.234375 L 225.445312 256.320312 L 225.335938 256.410156 L 225.230469 256.5 L 224.902344 256.769531 L 224.796875 256.855469 L 224.585938 257.035156 L 224.480469 257.121094 L 224.277344 257.300781 L 224.179688 257.390625 L 224.078125 257.480469 L 223.796875 257.75 L 223.617188 257.929688 L 223.53125 258.019531 L 223.449219 258.113281 L 223.367188 258.203125 L 223.285156 258.296875 L 223.128906 258.484375 L 223.054688 258.574219 L 222.984375 258.667969 L 222.917969 258.761719 L 222.792969 258.949219 L 222.683594 259.144531 L 222.632812 259.242188 L 222.585938 259.339844 L 222.542969 259.441406 L 229 259.441406 L 229 260.785156 Z M 220.800781 260.785156 "/>
<path style=" stroke:none;fill-rule:nonzero;fill:rgb(30.196078%,30.196078%,30.196078%);fill-opacity:1;" d="M 231.550781 260.785156 L 231.550781 258.859375 L 233.265625 258.859375 L 233.265625 260.785156 Z M 231.550781 260.785156 "/>
<path style=" stroke:none;fill-rule:nonzero;fill:rgb(30.196078%,30.196078%,30.196078%);fill-opacity:1;" d="M 244.164062 256.75 L 244.160156 256.9375 L 244.152344 257.117188 L 244.136719 257.296875 L 244.117188 257.472656 L 244.09375 257.644531 L 244.0625 257.8125 L 243.984375 258.140625 L 243.933594 258.300781 L 243.882812 258.457031 L 243.820312 258.609375 L 243.757812 258.757812 L 243.6875 258.902344 L 243.613281 259.042969 L 243.53125 259.175781 L 243.445312 259.308594 L 243.355469 259.4375 L 243.257812 259.558594 L 243.046875 259.792969 L 242.933594 259.898438 L 242.8125 260.003906 L 242.691406 260.101562 L 242.558594 260.195312 L 242.425781 260.285156 L 242.285156 260.367188 L 242.136719 260.445312 L 241.984375 260.519531 L 241.828125 260.589844 L 241.667969 260.652344 L 241.5 260.710938 L 241.328125 260.765625 L 241.152344 260.808594 L 240.96875 260.851562 L 240.78125 260.882812 L 240.589844 260.910156 L 240.394531 260.933594 L 240.191406 260.949219 L 239.980469 260.957031 L 239.769531 260.960938 L 239.574219 260.957031 L 239.386719 260.953125 L 239.203125 260.941406 L 239.027344 260.925781 L 238.855469 260.902344 L 238.6875 260.878906 L 238.523438 260.847656 L 238.363281 260.816406 L 238.210938 260.777344 L 238.0625 260.734375 L 237.921875 260.683594 L 237.648438 260.582031 L 237.519531 260.523438 L 237.277344 260.398438 L 237.160156 260.332031 L 237.050781 260.261719 L 236.945312 260.1875 L 236.839844 260.109375 L 236.742188 260.027344 L 236.648438 259.941406 L 236.558594 259.855469 L 236.472656 259.765625 L 236.390625 259.671875 L 236.3125 259.574219 L 236.238281 259.476562 L 236.167969 259.378906 L 236.101562 259.273438 L 236.042969 259.167969 L 235.984375 259.058594 L 235.882812 258.839844 L 235.835938 258.726562 L 235.792969 258.613281 L 235.753906 258.496094 L 235.71875 258.378906 L 235.683594 258.257812 L 235.65625 258.140625 L 235.628906 258.015625 L 237.226562 257.832031 L 237.246094 257.902344 L 237.292969 258.042969 L 237.316406 258.109375 L 237.34375 258.179688 L 237.371094 258.246094 L 237.402344 258.316406 L 237.464844 258.449219 L 237.5 258.519531 L 237.535156 258.582031 L 237.574219 258.644531 L 237.660156 258.769531 L 237.753906 258.886719 L 237.808594 258.941406 L 237.859375 259 L 237.917969 259.054688 L 237.976562 259.105469 L 238.039062 259.15625 L 238.101562 259.203125 L 238.242188 259.296875 L 238.316406 259.335938 L 238.390625 259.378906 L 238.46875 259.414062 L 238.550781 259.453125 L 238.636719 259.488281 L 238.722656 259.519531 L 238.8125 259.546875 L 238.910156 259.574219 L 239.007812 259.597656 L 239.109375 259.613281 L 239.214844 259.632812 L 239.441406 259.65625 L 239.558594 259.664062 L 239.679688 259.667969 L 239.925781 259.667969 L 240.160156 259.652344 L 240.277344 259.640625 L 240.390625 259.621094 L 240.5 259.601562 L 240.609375 259.578125 L 240.714844 259.550781 L 240.816406 259.519531 L 240.917969 259.484375 L 241.019531 259.445312 L 241.207031 259.351562 L 241.296875 259.300781 L 241.382812 259.246094 L 241.546875 259.128906 L 241.625 259.0625 L 241.773438 258.921875 L 241.84375 258.847656 L 241.910156 258.769531 L 241.972656 258.683594 L 242.035156 258.601562 L 242.089844 258.511719 L 242.144531 258.417969 L 242.195312 258.324219 L 242.242188 258.222656 L 242.285156 258.121094 L 242.324219 258.015625 L 242.363281 257.90625 L 242.394531 257.796875 L 242.425781 257.679688 L 242.449219 257.5625 L 242.46875 257.441406 L 242.488281 257.316406 L 242.511719 257.058594 L 242.519531 256.785156 L 242.515625 256.671875 L 242.511719 256.5625 L 242.503906 256.453125 L 242.488281 256.34375 L 242.472656 256.238281 L 242.453125 256.136719 L 242.429688 256.035156 L 242.402344 255.933594 L 242.371094 255.835938 L 242.335938 255.742188 L 242.296875 255.644531 L 242.253906 255.550781 L 242.210938 255.464844 L 242.160156 255.375 L 242.109375 255.292969 L 242.054688 255.210938 L 242 255.132812 L 241.875 254.984375 L 241.808594 254.914062 L 241.738281 254.84375 L 241.664062 254.78125 L 241.507812 254.65625 L 241.425781 254.601562 L 241.339844 254.550781 L 241.25 254.5 L 241.15625 254.453125 L 241.0625 254.410156 L 240.964844 254.371094 L 240.863281 254.332031 L 240.761719 254.300781 L 240.65625 254.269531 L 240.4375 254.222656 L 240.320312 254.207031 L 240.207031 254.191406 L 240.085938 254.183594 L 239.964844 254.179688 L 239.839844 254.175781 L 239.757812 254.175781 L 239.683594 254.179688 L 239.605469 254.183594 L 239.53125 254.1875 L 239.457031 254.195312 L 239.386719 254.199219 L 239.175781 254.234375 L 239.109375 254.246094 L 238.976562 254.277344 L 238.914062 254.292969 L 238.847656 254.3125 L 238.785156 254.328125 L 238.722656 254.347656 L 238.664062 254.371094 L 238.601562 254.390625 L 238.542969 254.414062 L 238.484375 254.441406 L 238.429688 254.464844 L 238.375 254.492188 L 238.320312 254.515625 L 238.265625 254.546875 L 238.164062 254.601562 L 238.0625 254.664062 L 238.015625 254.695312 L 237.964844 254.730469 L 237.921875 254.761719 L 237.875 254.792969 L 237.832031 254.824219 L 237.789062 254.859375 L 237.746094 254.890625 L 237.660156 254.960938 L 237.617188 254.992188 L 237.578125 255.027344 L 237.535156 255.0625 L 235.988281 255.0625 L 236.402344 248.402344 L 243.441406 248.402344 L 243.441406 249.746094 L 237.84375 249.746094 L 237.605469 253.675781 L 237.691406 253.609375 L 237.78125 253.546875 L 237.976562 253.429688 L 238.1875 253.320312 L 238.300781 253.265625 L 238.414062 253.214844 L 238.535156 253.167969 L 238.660156 253.121094 L 238.789062 253.074219 L 238.921875 253.035156 L 239.0625 253 L 239.203125 252.96875 L 239.351562 252.941406 L 239.503906 252.921875 L 239.664062 252.90625 L 239.824219 252.894531 L 239.992188 252.886719 L 240.164062 252.882812 L 240.347656 252.886719 L 240.523438 252.894531 L 240.699219 252.910156 L 240.871094 252.929688 L 241.039062 252.953125 L 241.203125 252.984375 L 241.523438 253.0625 L 241.675781 253.113281 L 241.824219 253.164062 L 241.96875 253.222656 L 242.109375 253.285156 L 242.246094 253.355469 L 242.378906 253.429688 L 242.507812 253.503906 L 242.632812 253.589844 L 242.75 253.675781 L 242.863281 253.765625 L 242.976562 253.863281 L 243.082031 253.964844 L 243.183594 254.070312 L 243.28125 254.175781 L 243.371094 254.289062 L 243.457031 254.40625 L 243.539062 254.523438 L 243.617188 254.648438 L 243.691406 254.777344 L 243.757812 254.910156 L 243.824219 255.046875 L 243.882812 255.1875 L 243.984375 255.476562 L 244.023438 255.625 L 244.0625 255.777344 L 244.09375 255.933594 L 244.117188 256.089844 L 244.136719 256.253906 L 244.152344 256.414062 L 244.160156 256.582031 Z M 244.164062 256.75 "/>
<path style=" stroke:none;fill-rule:nonzero;fill:rgb(30.196078%,30.196078%,30.196078%);fill-opacity:1;" d="M 413.65625 254.589844 L 413.652344 254.941406 L 413.640625 255.28125 L 413.625 255.609375 L 413.601562 255.925781 L 413.570312 256.234375 L 413.53125 256.527344 L 413.488281 256.8125 L 413.4375 257.082031 L 413.378906 257.34375 L 413.3125 257.59375 L 413.242188 257.832031 L 413.167969 258.0625 L 413.089844 258.28125 L 413.003906 258.492188 L 412.914062 258.695312 L 412.820312 258.886719 L 412.722656 259.070312 L 412.617188 259.242188 L 412.503906 259.40625 L 412.390625 259.5625 L 412.273438 259.707031 L 412.148438 259.84375 L 412.023438 259.972656 L 411.894531 260.09375 L 411.757812 260.207031 L 411.617188 260.308594 L 411.476562 260.402344 L 411.328125 260.488281 L 411.175781 260.566406 L 411.019531 260.636719 L 410.859375 260.699219 L 410.699219 260.753906 L 410.535156 260.800781 L 410.371094 260.84375 L 410.203125 260.878906 L 410.03125 260.910156 L 409.859375 260.933594 L 409.6875 260.949219 L 409.511719 260.957031 L 409.332031 260.960938 L 409.152344 260.957031 L 408.976562 260.949219 L 408.800781 260.933594 L 408.628906 260.910156 L 408.457031 260.878906 L 408.289062 260.84375 L 408.125 260.800781 L 407.960938 260.753906 L 407.800781 260.699219 L 407.644531 260.636719 L 407.488281 260.566406 L 407.339844 260.488281 L 407.191406 260.402344 L 407.050781 260.308594 L 406.914062 260.207031 L 406.777344 260.09375 L 406.648438 259.972656 L 406.523438 259.84375 L 406.398438 259.707031 L 406.28125 259.5625 L 406.171875 259.410156 L 406.0625 259.246094 L 405.960938 259.074219 L 405.863281 258.890625 L 405.769531 258.699219 L 405.683594 258.5 L 405.597656 258.289062 L 405.519531 258.070312 L 405.445312 257.839844 L 405.375 257.605469 L 405.316406 257.351562 L 405.261719 257.09375 L 405.210938 256.820312 L 405.167969 256.535156 L 405.132812 256.238281 L 405.105469 255.933594 L 405.082031 255.613281 L 405.066406 255.285156 L 405.054688 254.941406 L 405.050781 254.589844 L 405.054688 254.222656 L 405.066406 253.867188 L 405.082031 253.523438 L 405.105469 253.195312 L 405.132812 252.878906 L 405.167969 252.578125 L 405.210938 252.285156 L 405.261719 252.011719 L 405.316406 251.746094 L 405.375 251.496094 L 405.445312 251.253906 L 405.519531 251.023438 L 405.597656 250.800781 L 405.683594 250.589844 L 405.773438 250.390625 L 405.867188 250.199219 L 405.964844 250.019531 L 406.070312 249.847656 L 406.175781 249.6875 L 406.289062 249.535156 L 406.410156 249.394531 L 406.53125 249.261719 L 406.65625 249.136719 L 406.789062 249.023438 L 406.921875 248.914062 L 407.0625 248.816406 L 407.207031 248.730469 L 407.355469 248.648438 L 407.507812 248.578125 L 407.660156 248.515625 L 407.820312 248.457031 L 407.984375 248.40625 L 408.148438 248.363281 L 408.316406 248.324219 L 408.488281 248.292969 L 408.660156 248.265625 L 408.839844 248.242188 L 409.199219 248.21875 L 409.5625 248.21875 L 409.90625 248.242188 L 410.078125 248.265625 L 410.242188 248.292969 L 410.410156 248.324219 L 410.570312 248.363281 L 410.730469 248.40625 L 410.890625 248.457031 L 411.046875 248.515625 L 411.199219 248.578125 L 411.351562 248.648438 L 411.496094 248.730469 L 411.640625 248.816406 L 411.777344 248.914062 L 411.910156 249.023438 L 412.042969 249.136719 L 412.167969 249.261719 L 412.289062 249.394531 L 412.40625 249.535156 L 412.523438 249.6875 L 412.628906 249.847656 L 412.734375 250.019531 L 412.832031 250.199219 L 412.925781 250.390625 L 413.015625 250.589844 L 413.101562 250.800781 L 413.179688 251.023438 L 413.253906 251.253906 L 413.320312 251.496094 L 413.386719 251.746094 L 413.441406 252.011719 L 413.492188 252.285156 L 413.535156 252.578125 L 413.574219 252.878906 L 413.601562 253.195312 L 413.625 253.523438 L 413.644531 253.867188 L 413.652344 254.222656 Z M 412.046875 254.589844 L 412.046875 254.296875 L 412.039062 254.019531 L 412.03125 253.75 L 412.019531 253.488281 L 412.003906 253.238281 L 411.984375 252.996094 L 411.960938 252.765625 L 411.933594 252.546875 L 411.90625 252.335938 L 411.871094 252.136719 L 411.835938 251.945312 L 411.796875 251.757812 L 411.75 251.582031 L 411.703125 251.414062 L 411.65625 251.253906 L 411.601562 251.101562 L 411.542969 250.957031 L 411.484375 250.820312 L 411.421875 250.691406 L 411.351562 250.574219 L 411.285156 250.457031 L 411.210938 250.351562 L 411.132812 250.25 L 411.054688 250.15625 L 410.972656 250.070312 L 410.886719 249.992188 L 410.796875 249.921875 L 410.703125 249.855469 L 410.609375 249.796875 L 410.507812 249.746094 L 410.410156 249.699219 L 410.308594 249.65625 L 410.203125 249.621094 L 410.09375 249.589844 L 409.980469 249.5625 L 409.867188 249.539062 L 409.75 249.523438 L 409.632812 249.511719 L 409.511719 249.503906 L 409.382812 249.5 L 409.253906 249.503906 L 409.125 249.511719 L 409 249.523438 L 408.875 249.539062 L 408.757812 249.5625 L 408.640625 249.589844 L 408.527344 249.621094 L 408.417969 249.65625 L 408.308594 249.699219 L 408.207031 249.746094 L 408.105469 249.796875 L 408.007812 249.859375 L 407.914062 249.925781 L 407.824219 249.996094 L 407.738281 250.078125 L 407.652344 250.164062 L 407.570312 250.257812 L 407.492188 250.359375 L 407.417969 250.464844 L 407.34375 250.582031 L 407.277344 250.699219 L 407.214844 250.828125 L 407.15625 250.964844 L 407.097656 251.109375 L 407.042969 251.261719 L 406.996094 251.421875 L 406.949219 251.589844 L 406.902344 251.769531 L 406.863281 251.953125 L 406.828125 252.144531 L 406.792969 252.34375 L 406.765625 252.554688 L 406.738281 252.773438 L 406.714844 253.003906 L 406.695312 253.246094 L 406.679688 253.492188 L 406.667969 253.753906 L 406.660156 254.023438 L 406.652344 254.300781 L 406.652344 254.871094 L 406.660156 255.140625 L 406.667969 255.402344 L 406.679688 255.65625 L 406.695312 255.902344 L 406.714844 256.136719 L 406.738281 256.363281 L 406.765625 256.582031 L 406.792969 256.789062 L 406.828125 256.988281 L 406.867188 257.179688 L 406.90625 257.363281 L 406.953125 257.539062 L 407 257.707031 L 407.050781 257.871094 L 407.105469 258.023438 L 407.164062 258.167969 L 407.222656 258.308594 L 407.289062 258.4375 L 407.355469 258.5625 L 407.425781 258.675781 L 407.5 258.785156 L 407.578125 258.886719 L 407.660156 258.980469 L 407.742188 259.070312 L 407.832031 259.152344 L 407.917969 259.226562 L 408.011719 259.296875 L 408.109375 259.359375 L 408.207031 259.414062 L 408.308594 259.460938 L 408.414062 259.507812 L 408.519531 259.542969 L 408.628906 259.578125 L 408.742188 259.605469 L 408.859375 259.628906 L 408.976562 259.644531 L 409.097656 259.660156 L 409.222656 259.667969 L 409.472656 259.667969 L 409.59375 259.660156 L 409.714844 259.644531 L 409.828125 259.628906 L 409.941406 259.605469 L 410.054688 259.578125 L 410.164062 259.542969 L 410.269531 259.507812 L 410.375 259.460938 L 410.472656 259.414062 L 410.574219 259.359375 L 410.667969 259.296875 L 410.761719 259.226562 L 410.851562 259.152344 L 410.9375 259.070312 L 411.019531 258.980469 L 411.097656 258.886719 L 411.175781 258.785156 L 411.25 258.675781 L 411.316406 258.5625 L 411.386719 258.4375 L 411.453125 258.308594 L 411.515625 258.167969 L 411.574219 258.023438 L 411.628906 257.871094 L 411.679688 257.707031 L 411.730469 257.539062 L 411.773438 257.363281 L 411.816406 257.179688 L 411.855469 256.988281 L 411.890625 256.789062 L 411.925781 256.582031 L 411.953125 256.363281 L 411.976562 256.136719 L 412 255.902344 L 412.015625 255.65625 L 412.03125 255.402344 L 412.039062 255.140625 L 412.046875 254.871094 Z M 412.046875 254.589844 "/>
<path style=" stroke:none;fill-rule:nonzero;fill:rgb(30.196078%,30.196078%,30.196078%);fill-opacity:1;" d="M 416.003906 260.785156 L 416.003906 258.859375 L 417.714844 258.859375 L 417.714844 260.785156 Z M 416.003906 260.785156 "/>
<path style=" stroke:none;fill-rule:nonzero;fill:rgb(30.196078%,30.196078%,30.196078%);fill-opacity:1;" d="M 428.667969 254.589844 L 428.664062 254.941406 L 428.652344 255.28125 L 428.636719 255.609375 L 428.613281 255.925781 L 428.582031 256.234375 L 428.542969 256.527344 L 428.5 256.8125 L 428.449219 257.082031 L 428.390625 257.34375 L 428.324219 257.59375 L 428.253906 257.832031 L 428.179688 258.0625 L 428.101562 258.28125 L 428.015625 258.492188 L 427.925781 258.695312 L 427.832031 258.886719 L 427.734375 259.070312 L 427.628906 259.242188 L 427.515625 259.40625 L 427.402344 259.5625 L 427.285156 259.707031 L 427.160156 259.84375 L 427.035156 259.972656 L 426.90625 260.09375 L 426.769531 260.207031 L 426.628906 260.308594 L 426.488281 260.402344 L 426.339844 260.488281 L 426.1875 260.566406 L 426.03125 260.636719 L 425.871094 260.699219 L 425.710938 260.753906 L 425.546875 260.800781 L 425.382812 260.84375 L 425.214844 260.878906 L 425.042969 260.910156 L 424.871094 260.933594 L 424.699219 260.949219 L 424.523438 260.957031 L 424.34375 260.960938 L 424.164062 260.957031 L 423.988281 260.949219 L 423.8125 260.933594 L 423.640625 260.910156 L 423.46875 260.878906 L 423.300781 260.84375 L 423.136719 260.800781 L 422.972656 260.753906 L 422.8125 260.699219 L 422.65625 260.636719 L 422.5 260.566406 L 422.351562 260.488281 L 422.203125 260.402344 L 422.0625 260.308594 L 421.925781 260.207031 L 421.789062 260.09375 L 421.660156 259.972656 L 421.535156 259.84375 L 421.410156 259.707031 L 421.292969 259.5625 L 421.183594 259.410156 L 421.074219 259.246094 L 420.972656 259.074219 L 420.875 258.890625 L 420.78125 258.699219 L 420.695312 258.5 L 420.609375 258.289062 L 420.53125 258.070312 L 420.457031 257.839844 L 420.386719 257.605469 L 420.328125 257.351562 L 420.273438 257.09375 L 420.222656 256.820312 L 420.179688 256.535156 L 420.144531 256.238281 L 420.117188 255.933594 L 420.09375 255.613281 L 420.078125 255.285156 L 420.066406 254.941406 L 420.0625 254.589844 L 420.066406 254.222656 L 420.078125 253.867188 L 420.09375 253.523438 L 420.117188 253.195312 L 420.144531 252.878906 L 420.179688 252.578125 L 420.222656 252.285156 L 420.273438 252.011719 L 420.328125 251.746094 L 420.386719 251.496094 L 420.457031 251.253906 L 420.53125 251.023438 L 420.609375 250.800781 L 420.695312 250.589844 L 420.785156 250.390625 L 420.878906 250.199219 L 420.976562 250.019531 L 421.082031 249.847656 L 421.1875 249.6875 L 421.300781 249.535156 L 421.421875 249.394531 L 421.542969 249.261719 L 421.667969 249.136719 L 421.800781 249.023438 L 421.933594 248.914062 L 422.074219 248.816406 L 422.21875 248.730469 L 422.367188 248.648438 L 422.519531 248.578125 L 422.671875 248.515625 L 422.832031 248.457031 L 422.996094 248.40625 L 423.160156 248.363281 L 423.328125 248.324219 L 423.5 248.292969 L 423.671875 248.265625 L 423.851562 248.242188 L 424.210938 248.21875 L 424.574219 248.21875 L 424.917969 248.242188 L 425.089844 248.265625 L 425.253906 248.292969 L 425.421875 248.324219 L 425.582031 248.363281 L 425.742188 248.40625 L 425.902344 248.457031 L 426.058594 248.515625 L 426.210938 248.578125 L 426.363281 248.648438 L 426.507812 248.730469 L 426.652344 248.816406 L 426.789062 248.914062 L 426.921875 249.023438 L 427.054688 249.136719 L 427.179688 249.261719 L 427.300781 249.394531 L 427.417969 249.535156 L 427.535156 249.6875 L 427.640625 249.847656 L 427.746094 250.019531 L 427.84375 250.199219 L 427.9375 250.390625 L 428.027344 250.589844 L 428.113281 250.800781 L 428.191406 251.023438 L 428.265625 251.253906 L 428.332031 251.496094 L 428.398438 251.746094 L 428.453125 252.011719 L 428.503906 252.285156 L 428.546875 252.578125 L 428.585938 252.878906 L 428.613281 253.195312 L 428.636719 253.523438 L 428.65625 253.867188 L 428.664062 254.222656 Z M 427.058594 254.589844 L 427.058594 254.296875 L 427.050781 254.019531 L 427.042969 253.75 L 427.03125 253.488281 L 427.015625 253.238281 L 426.996094 252.996094 L 426.972656 252.765625 L 426.945312 252.546875 L 426.917969 252.335938 L 426.882812 252.136719 L 426.847656 251.945312 L 426.808594 251.757812 L 426.761719 251.582031 L 426.714844 251.414062 L 426.667969 251.253906 L 426.613281 251.101562 L 426.554688 250.957031 L 426.496094 250.820312 L 426.433594 250.691406 L 426.363281 250.574219 L 426.296875 250.457031 L 426.222656 250.351562 L 426.144531 250.25 L 426.066406 250.15625 L 425.984375 250.070312 L 425.898438 249.992188 L 425.808594 249.921875 L 425.714844 249.855469 L 425.621094 249.796875 L 425.519531 249.746094 L 425.421875 249.699219 L 425.320312 249.65625 L 425.214844 249.621094 L 425.105469 249.589844 L 424.992188 249.5625 L 424.878906 249.539062 L 424.761719 249.523438 L 424.644531 249.511719 L 424.523438 249.503906 L 424.394531 249.5 L 424.265625 249.503906 L 424.136719 249.511719 L 424.011719 249.523438 L 423.886719 249.539062 L 423.769531 249.5625 L 423.652344 249.589844 L 423.539062 249.621094 L 423.429688 249.65625 L 423.320312 249.699219 L 423.21875 249.746094 L 423.117188 249.796875 L 423.019531 249.859375 L 422.925781 249.925781 L 422.835938 249.996094 L 422.75 250.078125 L 422.664062 250.164062 L 422.582031 250.257812 L 422.503906 250.359375 L 422.429688 250.464844 L 422.355469 250.582031 L 422.289062 250.699219 L 422.226562 250.828125 L 422.167969 250.964844 L 422.109375 251.109375 L 422.054688 251.261719 L 422.007812 251.421875 L 421.960938 251.589844 L 421.914062 251.769531 L 421.875 251.953125 L 421.839844 252.144531 L 421.804688 252.34375 L 421.777344 252.554688 L 421.75 252.773438 L 421.726562 253.003906 L 421.707031 253.246094 L 421.691406 253.492188 L 421.679688 253.753906 L 421.671875 254.023438 L 421.664062 254.300781 L 421.664062 254.871094 L 421.671875 255.140625 L 421.679688 255.402344 L 421.691406 255.65625 L 421.707031 255.902344 L 421.726562 256.136719 L 421.75 256.363281 L 421.777344 256.582031 L 421.804688 256.789062 L 421.839844 256.988281 L 421.878906 257.179688 L 421.917969 257.363281 L 421.964844 257.539062 L 422.011719 257.707031 L 422.0625 257.871094 L 422.117188 258.023438 L 422.175781 258.167969 L 422.234375 258.308594 L 422.300781 258.4375 L 422.367188 258.5625 L 422.4375 258.675781 L 422.511719 258.785156 L 422.589844 258.886719 L 422.671875 258.980469 L 422.753906 259.070312 L 422.84375 259.152344 L 422.929688 259.226562 L 423.023438 259.296875 L 423.121094 259.359375 L 423.21875 259.414062 L 423.320312 259.460938 L 423.425781 259.507812 L 423.53125 259.542969 L 423.640625 259.578125 L 423.753906 259.605469 L 423.871094 259.628906 L 423.988281 259.644531 L 424.109375 259.660156 L 424.234375 259.667969 L 424.484375 259.667969 L 424.605469 259.660156 L 424.726562 259.644531 L 424.839844 259.628906 L 424.953125 259.605469 L 425.066406 259.578125 L 425.175781 259.542969 L 425.28125 259.507812 L 425.386719 259.460938 L 425.484375 259.414062 L 425.585938 259.359375 L 425.679688 259.296875 L 425.773438 259.226562 L 425.863281 259.152344 L 425.949219 259.070312 L 426.03125 258.980469 L 426.109375 258.886719 L 426.1875 258.785156 L 426.261719 258.675781 L 426.328125 258.5625 L 426.398438 258.4375 L 426.464844 258.308594 L 426.527344 258.167969 L 426.585938 258.023438 L 426.640625 257.871094 L 426.691406 257.707031 L 426.742188 257.539062 L 426.785156 257.363281 L 426.828125 257.179688 L 426.867188 256.988281 L 426.902344 256.789062 L 426.9375 256.582031 L 426.964844 256.363281 L 426.988281 256.136719 L 427.011719 255.902344 L 427.027344 255.65625 L 427.042969 255.402344 L 427.050781 255.140625 L 427.058594 254.871094 Z M 427.058594 254.589844 "/>
<path style=" stroke:none;fill-rule:nonzero;fill:rgb(30.196078%,30.196078%,30.196078%);fill-opacity:1;" d="M 592.703125 260.785156 L 592.703125 259.667969 L 592.796875 259.464844 L 592.890625 259.265625 L 592.988281 259.074219 L 593.09375 258.886719 L 593.199219 258.703125 L 593.3125 258.523438 L 593.425781 258.351562 L 593.542969 258.179688 L 593.667969 258.015625 L 593.792969 257.859375 L 593.925781 257.703125 L 594.054688 257.546875 L 594.1875 257.398438 L 594.324219 257.25 L 594.460938 257.105469 L 594.597656 256.964844 L 594.734375 256.828125 L 595.015625 256.5625 L 595.15625 256.433594 L 595.296875 256.308594 L 595.441406 256.183594 L 595.582031 256.058594 L 595.863281 255.816406 L 596.144531 255.582031 L 596.285156 255.46875 L 596.421875 255.359375 L 596.703125 255.140625 L 596.835938 255.03125 L 596.972656 254.921875 L 597.230469 254.703125 L 597.355469 254.59375 L 597.597656 254.375 L 597.714844 254.265625 L 597.828125 254.160156 L 597.9375 254.046875 L 598.042969 253.9375 L 598.144531 253.828125 L 598.242188 253.714844 L 598.335938 253.601562 L 598.421875 253.484375 L 598.507812 253.371094 L 598.585938 253.253906 L 598.664062 253.132812 L 598.734375 253.015625 L 598.800781 252.894531 L 598.859375 252.769531 L 598.914062 252.644531 L 598.957031 252.511719 L 598.996094 252.378906 L 599.027344 252.242188 L 599.054688 252.101562 L 599.070312 251.957031 L 599.082031 251.8125 L 599.085938 251.664062 L 599.082031 251.558594 L 599.078125 251.457031 L 599.070312 251.359375 L 599.058594 251.261719 L 599.046875 251.167969 L 599.007812 250.988281 L 598.984375 250.902344 L 598.957031 250.820312 L 598.925781 250.738281 L 598.894531 250.660156 L 598.859375 250.582031 L 598.820312 250.507812 L 598.734375 250.367188 L 598.6875 250.300781 L 598.636719 250.238281 L 598.582031 250.175781 L 598.527344 250.117188 L 598.410156 250.007812 L 598.34375 249.960938 L 598.277344 249.910156 L 598.210938 249.867188 L 598.140625 249.824219 L 598.066406 249.785156 L 597.992188 249.75 L 597.914062 249.714844 L 597.75 249.660156 L 597.664062 249.632812 L 597.492188 249.585938 L 597.402344 249.566406 L 597.3125 249.554688 L 597.21875 249.539062 L 597.121094 249.53125 L 597.027344 249.523438 L 596.925781 249.519531 L 596.730469 249.519531 L 596.636719 249.523438 L 596.546875 249.53125 L 596.453125 249.539062 L 596.363281 249.550781 L 596.273438 249.566406 L 596.1875 249.582031 L 596.101562 249.601562 L 595.929688 249.648438 L 595.847656 249.675781 L 595.769531 249.707031 L 595.6875 249.742188 L 595.539062 249.8125 L 595.464844 249.855469 L 595.394531 249.898438 L 595.324219 249.945312 L 595.257812 249.992188 L 595.191406 250.046875 L 595.128906 250.097656 L 595.066406 250.15625 L 595.007812 250.214844 L 594.949219 250.277344 L 594.894531 250.339844 L 594.742188 250.550781 L 594.699219 250.625 L 594.65625 250.703125 L 594.617188 250.78125 L 594.578125 250.863281 L 594.515625 251.035156 L 594.488281 251.125 L 594.464844 251.214844 L 594.441406 251.308594 L 594.421875 251.40625 L 594.390625 251.609375 L 592.773438 251.460938 L 592.8125 251.195312 L 592.839844 251.066406 L 592.871094 250.9375 L 592.90625 250.8125 L 592.945312 250.6875 L 592.988281 250.5625 L 593.035156 250.441406 L 593.085938 250.320312 L 593.203125 250.085938 L 593.269531 249.972656 L 593.335938 249.863281 L 593.410156 249.757812 L 593.488281 249.652344 L 593.570312 249.550781 L 593.65625 249.453125 L 593.746094 249.355469 L 593.941406 249.175781 L 594.046875 249.085938 L 594.265625 248.921875 L 594.382812 248.847656 L 594.503906 248.773438 L 594.753906 248.640625 L 594.886719 248.582031 L 595.023438 248.523438 L 595.164062 248.472656 L 595.3125 248.421875 L 595.460938 248.378906 L 595.617188 248.339844 L 595.777344 248.308594 L 595.941406 248.28125 L 596.109375 248.257812 L 596.28125 248.238281 L 596.457031 248.226562 L 596.640625 248.21875 L 597.007812 248.21875 L 597.1875 248.226562 L 597.359375 248.238281 L 597.53125 248.253906 L 597.699219 248.273438 L 597.859375 248.296875 L 598.019531 248.324219 L 598.324219 248.394531 L 598.46875 248.4375 L 598.75 248.53125 L 598.882812 248.585938 L 599.007812 248.644531 L 599.132812 248.710938 L 599.25 248.777344 L 599.367188 248.847656 L 599.476562 248.921875 L 599.582031 249.003906 L 599.683594 249.085938 L 599.78125 249.175781 L 599.875 249.265625 L 599.960938 249.363281 L 600.046875 249.464844 L 600.125 249.566406 L 600.199219 249.675781 L 600.265625 249.789062 L 600.332031 249.90625 L 600.390625 250.027344 L 600.445312 250.152344 L 600.496094 250.277344 L 600.542969 250.410156 L 600.582031 250.546875 L 600.617188 250.6875 L 600.644531 250.832031 L 600.667969 250.980469 L 600.6875 251.132812 L 600.699219 251.285156 L 600.707031 251.445312 L 600.710938 251.609375 L 600.707031 251.734375 L 600.703125 251.855469 L 600.691406 251.976562 L 600.675781 252.097656 L 600.652344 252.21875 L 600.628906 252.335938 L 600.597656 252.453125 L 600.5625 252.570312 L 600.527344 252.683594 L 600.480469 252.796875 L 600.4375 252.90625 L 600.386719 253.019531 L 600.335938 253.128906 L 600.28125 253.238281 L 600.222656 253.34375 L 600.160156 253.453125 L 600.097656 253.558594 L 600.027344 253.664062 L 599.957031 253.765625 L 599.808594 253.96875 L 599.652344 254.171875 L 599.570312 254.269531 L 599.484375 254.371094 L 599.398438 254.46875 L 599.308594 254.566406 L 599.214844 254.660156 L 599.121094 254.757812 L 599.023438 254.851562 L 598.925781 254.949219 L 598.519531 255.324219 L 598.417969 255.414062 L 598.207031 255.601562 L 598.101562 255.691406 L 597.996094 255.785156 L 597.886719 255.875 L 597.78125 255.964844 L 597.5625 256.144531 L 597.457031 256.234375 L 597.347656 256.320312 L 597.238281 256.410156 L 597.132812 256.5 L 596.804688 256.769531 L 596.699219 256.855469 L 596.488281 257.035156 L 596.382812 257.121094 L 596.179688 257.300781 L 595.886719 257.570312 L 595.699219 257.75 L 595.519531 257.929688 L 595.433594 258.019531 L 595.351562 258.113281 L 595.269531 258.203125 L 595.1875 258.296875 L 595.03125 258.484375 L 594.957031 258.574219 L 594.886719 258.667969 L 594.820312 258.761719 L 594.695312 258.949219 L 594.585938 259.144531 L 594.535156 259.242188 L 594.488281 259.339844 L 594.445312 259.441406 L 600.902344 259.441406 L 600.902344 260.785156 Z M 592.703125 260.785156 "/>
<path style=" stroke:none;fill-rule:nonzero;fill:rgb(30.196078%,30.196078%,30.196078%);fill-opacity:1;" d="M 603.453125 260.785156 L 603.453125 258.859375 L 605.167969 258.859375 L 605.167969 260.785156 Z M 603.453125 260.785156 "/>
<path style=" stroke:none;fill-rule:nonzero;fill:rgb(30.196078%,30.196078%,30.196078%);fill-opacity:1;" d="M 616.066406 256.75 L 616.0625 256.9375 L 616.054688 257.117188 L 616.039062 257.296875 L 616.019531 257.472656 L 615.996094 257.644531 L 615.964844 257.8125 L 615.886719 258.140625 L 615.835938 258.300781 L 615.785156 258.457031 L 615.726562 258.609375 L 615.660156 258.757812 L 615.589844 258.902344 L 615.515625 259.042969 L 615.433594 259.175781 L 615.347656 259.308594 L 615.257812 259.4375 L 615.160156 259.558594 L 615.058594 259.675781 L 614.949219 259.792969 L 614.835938 259.898438 L 614.714844 260.003906 L 614.59375 260.101562 L 614.460938 260.195312 L 614.328125 260.285156 L 614.1875 260.367188 L 614.039062 260.445312 L 613.886719 260.519531 L 613.730469 260.589844 L 613.570312 260.652344 L 613.402344 260.710938 L 613.230469 260.765625 L 613.054688 260.808594 L 612.871094 260.851562 L 612.6875 260.882812 L 612.492188 260.910156 L 612.296875 260.933594 L 612.09375 260.949219 L 611.882812 260.957031 L 611.671875 260.960938 L 611.476562 260.957031 L 611.289062 260.953125 L 611.105469 260.941406 L 610.929688 260.925781 L 610.757812 260.902344 L 610.589844 260.878906 L 610.425781 260.847656 L 610.265625 260.816406 L 610.113281 260.777344 L 609.964844 260.734375 L 609.824219 260.683594 L 609.6875 260.632812 L 609.554688 260.582031 L 609.425781 260.523438 L 609.300781 260.460938 L 609.179688 260.398438 L 609.0625 260.332031 L 608.953125 260.261719 L 608.847656 260.1875 L 608.742188 260.109375 L 608.644531 260.027344 L 608.550781 259.941406 L 608.460938 259.855469 L 608.375 259.765625 L 608.292969 259.671875 L 608.214844 259.574219 L 608.140625 259.476562 L 608.070312 259.378906 L 608.003906 259.273438 L 607.945312 259.167969 L 607.886719 259.058594 L 607.785156 258.839844 L 607.738281 258.726562 L 607.695312 258.613281 L 607.65625 258.496094 L 607.621094 258.378906 L 607.585938 258.257812 L 607.558594 258.140625 L 607.53125 258.015625 L 609.128906 257.832031 L 609.152344 257.902344 L 609.171875 257.972656 L 609.195312 258.042969 L 609.21875 258.109375 L 609.246094 258.179688 L 609.273438 258.246094 L 609.304688 258.316406 L 609.367188 258.449219 L 609.402344 258.519531 L 609.4375 258.582031 L 609.476562 258.644531 L 609.5625 258.769531 L 609.65625 258.886719 L 609.710938 258.941406 L 609.761719 259 L 609.820312 259.054688 L 609.878906 259.105469 L 609.941406 259.15625 L 610.074219 259.25 L 610.144531 259.296875 L 610.21875 259.335938 L 610.292969 259.378906 L 610.371094 259.414062 L 610.453125 259.453125 L 610.539062 259.488281 L 610.625 259.519531 L 610.714844 259.546875 L 610.8125 259.574219 L 610.910156 259.597656 L 611.011719 259.613281 L 611.117188 259.632812 L 611.34375 259.65625 L 611.460938 259.664062 L 611.582031 259.667969 L 611.828125 259.667969 L 611.945312 259.660156 L 612.066406 259.652344 L 612.179688 259.640625 L 612.292969 259.621094 L 612.402344 259.601562 L 612.511719 259.578125 L 612.617188 259.550781 L 612.71875 259.519531 L 612.820312 259.484375 L 612.921875 259.445312 L 613.109375 259.351562 L 613.199219 259.300781 L 613.285156 259.246094 L 613.371094 259.1875 L 613.449219 259.128906 L 613.527344 259.0625 L 613.675781 258.921875 L 613.746094 258.847656 L 613.8125 258.769531 L 613.875 258.683594 L 613.9375 258.601562 L 613.992188 258.511719 L 614.046875 258.417969 L 614.097656 258.324219 L 614.144531 258.222656 L 614.1875 258.121094 L 614.226562 258.015625 L 614.265625 257.90625 L 614.296875 257.796875 L 614.328125 257.679688 L 614.351562 257.5625 L 614.375 257.441406 L 614.390625 257.316406 L 614.414062 257.058594 L 614.421875 256.785156 L 614.417969 256.671875 L 614.414062 256.5625 L 614.40625 256.453125 L 614.390625 256.34375 L 614.375 256.238281 L 614.355469 256.136719 L 614.332031 256.035156 L 614.304688 255.933594 L 614.273438 255.835938 L 614.238281 255.742188 L 614.199219 255.644531 L 614.15625 255.550781 L 614.113281 255.464844 L 614.0625 255.375 L 614.011719 255.292969 L 613.957031 255.210938 L 613.902344 255.132812 L 613.777344 254.984375 L 613.710938 254.914062 L 613.640625 254.84375 L 613.566406 254.78125 L 613.410156 254.65625 L 613.328125 254.601562 L 613.242188 254.550781 L 613.152344 254.5 L 613.058594 254.453125 L 612.964844 254.410156 L 612.867188 254.371094 L 612.765625 254.332031 L 612.664062 254.300781 L 612.558594 254.269531 L 612.339844 254.222656 L 612.222656 254.207031 L 612.109375 254.191406 L 611.988281 254.183594 L 611.867188 254.179688 L 611.742188 254.175781 L 611.664062 254.175781 L 611.507812 254.183594 L 611.433594 254.1875 L 611.359375 254.195312 L 611.289062 254.199219 L 611.078125 254.234375 L 611.011719 254.246094 L 610.878906 254.277344 L 610.816406 254.292969 L 610.75 254.3125 L 610.6875 254.328125 L 610.625 254.347656 L 610.566406 254.371094 L 610.503906 254.390625 L 610.445312 254.414062 L 610.386719 254.441406 L 610.332031 254.464844 L 610.277344 254.492188 L 610.222656 254.515625 L 610.167969 254.546875 L 610.066406 254.601562 L 609.964844 254.664062 L 609.917969 254.695312 L 609.867188 254.730469 L 609.824219 254.761719 L 609.777344 254.792969 L 609.734375 254.824219 L 609.691406 254.859375 L 609.648438 254.890625 L 609.5625 254.960938 L 609.519531 254.992188 L 609.480469 255.027344 L 609.4375 255.0625 L 607.890625 255.0625 L 608.304688 248.402344 L 615.34375 248.402344 L 615.34375 249.746094 L 609.746094 249.746094 L 609.507812 253.675781 L 609.59375 253.609375 L 609.6875 253.546875 L 609.78125 253.488281 L 609.878906 253.429688 L 610.089844 253.320312 L 610.203125 253.265625 L 610.320312 253.214844 L 610.4375 253.167969 L 610.5625 253.121094 L 610.691406 253.074219 L 610.824219 253.035156 L 610.964844 253 L 611.105469 252.96875 L 611.253906 252.941406 L 611.40625 252.921875 L 611.566406 252.90625 L 611.726562 252.894531 L 611.894531 252.886719 L 612.066406 252.882812 L 612.25 252.886719 L 612.429688 252.894531 L 612.601562 252.910156 L 612.773438 252.929688 L 612.941406 252.953125 L 613.105469 252.984375 L 613.425781 253.0625 L 613.578125 253.113281 L 613.726562 253.164062 L 613.871094 253.222656 L 614.015625 253.285156 L 614.148438 253.355469 L 614.28125 253.429688 L 614.410156 253.503906 L 614.535156 253.589844 L 614.652344 253.675781 L 614.769531 253.765625 L 614.878906 253.863281 L 614.984375 253.964844 L 615.085938 254.070312 L 615.183594 254.175781 L 615.273438 254.289062 L 615.359375 254.40625 L 615.441406 254.523438 L 615.519531 254.648438 L 615.59375 254.777344 L 615.660156 254.910156 L 615.726562 255.046875 L 615.785156 255.1875 L 615.886719 255.476562 L 615.925781 255.625 L 615.964844 255.777344 L 615.996094 255.933594 L 616.019531 256.089844 L 616.039062 256.253906 L 616.054688 256.414062 L 616.0625 256.582031 Z M 616.066406 256.75 "/>
</g>
</svg>
