<?xml version="1.0" encoding="UTF-8"?>
<svg xmlns="http://www.w3.org/2000/svg" xmlns:xlink="http://www.w3.org/1999/xlink" width="756pt" height="216pt" viewBox="0 0 756 216" version="1.1">
<defs>
<clipPath id="clip1">
  <path d="M 8.21875 185 L 750.519531 185 L 750.519531 187 L 8.21875 187 Z M 8.21875 185 "/>
</clipPath>
<clipPath id="clip2">
  <path d="M 211 5.480469 L 213 5.480469 L 213 194.84375 L 211 194.84375 Z M 211 5.480469 "/>
</clipPath>
</defs>
<g id="surface94">
<rect x="0" y="0" width="756" height="216" style="fill:rgb(100%,100%,100%);fill-opacity:1;stroke:none;"/>
<path style=" stroke:none;fill-rule:nonzero;fill:rgb(85.098039%,85.098039%,85.098039%);fill-opacity:1;" d="M 41.960938 186.140625 L 46.179688 186.121094 L 47.019531 186.117188 L 49.550781 186.105469 L 50.394531 186.097656 L 52.925781 186.085938 L 53.769531 186.078125 L 55.457031 186.070312 L 56.300781 186.0625 L 57.144531 186.058594 L 58.832031 186.042969 L 59.675781 186.039062 L 60.519531 186.03125 L 61.359375 186.023438 L 62.203125 186.015625 L 63.046875 186.011719 L 65.578125 185.988281 L 66.421875 185.976562 L 68.953125 185.953125 L 69.796875 185.941406 L 70.640625 185.933594 L 72.328125 185.910156 L 73.171875 185.902344 L 74.859375 185.878906 L 75.699219 185.867188 L 78.230469 185.832031 L 79.074219 185.816406 L 79.917969 185.804688 L 80.761719 185.789062 L 81.605469 185.777344 L 84.980469 185.714844 L 85.824219 185.695312 L 87.511719 185.664062 L 90.042969 185.605469 L 90.882812 185.585938 L 92.570312 185.546875 L 94.257812 185.5 L 95.101562 185.480469 L 96.789062 185.433594 L 97.632812 185.40625 L 98.476562 185.382812 L 101.851562 185.273438 L 102.695312 185.242188 L 103.539062 185.214844 L 104.382812 185.183594 L 105.222656 185.152344 L 106.066406 185.117188 L 106.910156 185.085938 L 108.597656 185.015625 L 109.441406 184.976562 L 110.285156 184.941406 L 112.816406 184.824219 L 116.191406 184.652344 L 117.878906 184.558594 L 118.722656 184.507812 L 119.5625 184.457031 L 121.25 184.355469 L 123.78125 184.191406 L 125.46875 184.074219 L 128 183.886719 L 129.6875 183.753906 L 131.375 183.613281 L 133.0625 183.464844 L 133.902344 183.390625 L 134.746094 183.3125 L 137.277344 183.066406 L 138.964844 182.894531 L 139.808594 182.800781 L 140.652344 182.710938 L 141.496094 182.617188 L 143.183594 182.421875 L 144.027344 182.320312 L 146.558594 182.003906 L 148.246094 181.777344 L 149.085938 181.664062 L 151.617188 181.300781 L 153.304688 181.042969 L 154.148438 180.910156 L 155.835938 180.636719 L 156.679688 180.496094 L 157.523438 180.351562 L 158.367188 180.203125 L 160.054688 179.898438 L 160.898438 179.742188 L 162.585938 179.414062 L 163.425781 179.25 L 164.269531 179.078125 L 165.113281 178.902344 L 166.800781 178.542969 L 168.488281 178.167969 L 169.332031 177.972656 L 171.019531 177.574219 L 172.707031 177.160156 L 173.550781 176.945312 L 174.394531 176.726562 L 175.238281 176.503906 L 176.082031 176.277344 L 176.925781 176.046875 L 177.765625 175.8125 L 179.453125 175.328125 L 180.296875 175.078125 L 181.140625 174.824219 L 182.828125 174.300781 L 183.671875 174.03125 L 184.515625 173.757812 L 185.359375 173.480469 L 186.203125 173.195312 L 187.046875 172.90625 L 187.890625 172.613281 L 188.734375 172.3125 L 189.578125 172.007812 L 190.421875 171.699219 L 191.265625 171.382812 L 192.109375 171.0625 L 192.949219 170.734375 L 193.792969 170.402344 L 194.636719 170.0625 L 195.480469 169.71875 L 196.324219 169.371094 L 197.167969 169.015625 L 198.011719 168.652344 L 198.855469 168.285156 L 199.699219 167.910156 L 200.542969 167.53125 L 201.386719 167.144531 L 202.230469 166.753906 L 203.074219 166.355469 L 203.917969 165.949219 L 204.761719 165.539062 L 205.605469 165.121094 L 206.449219 164.695312 L 207.289062 164.265625 L 208.132812 163.828125 L 208.976562 163.382812 L 209.820312 162.929688 L 210.664062 162.472656 L 211.507812 162.007812 L 212.351562 161.539062 L 213.195312 161.058594 L 214.039062 160.574219 L 214.882812 160.082031 L 215.726562 159.582031 L 216.570312 159.074219 L 217.414062 158.5625 L 218.257812 158.039062 L 219.101562 157.511719 L 219.945312 156.976562 L 220.789062 156.433594 L 221.628906 155.882812 L 222.472656 155.328125 L 223.316406 154.761719 L 224.160156 154.191406 L 225.003906 153.609375 L 225.847656 153.023438 L 226.691406 152.429688 L 227.535156 151.828125 L 228.378906 151.21875 L 229.222656 150.601562 L 230.066406 149.976562 L 230.910156 149.34375 L 231.753906 148.703125 L 232.597656 148.058594 L 233.441406 147.402344 L 234.285156 146.742188 L 235.128906 146.070312 L 235.972656 145.394531 L 236.8125 144.707031 L 237.65625 144.015625 L 238.5 143.316406 L 239.34375 142.605469 L 240.1875 141.890625 L 241.03125 141.167969 L 241.875 140.4375 L 242.71875 139.699219 L 243.5625 138.953125 L 244.40625 138.203125 L 245.25 137.441406 L 246.09375 136.675781 L 246.9375 135.898438 L 247.78125 135.117188 L 248.625 134.328125 L 249.46875 133.53125 L 250.3125 132.726562 L 251.152344 131.914062 L 251.996094 131.097656 L 252.839844 130.269531 L 253.683594 129.4375 L 254.527344 128.597656 L 255.371094 127.753906 L 256.214844 126.898438 L 257.058594 126.039062 L 257.902344 125.171875 L 258.746094 124.300781 L 260.433594 122.535156 L 261.277344 121.640625 L 262.121094 120.742188 L 262.964844 119.835938 L 263.808594 118.925781 L 264.652344 118.007812 L 265.492188 117.085938 L 266.335938 116.15625 L 267.179688 115.222656 L 268.023438 114.285156 L 268.867188 113.339844 L 269.710938 112.386719 L 270.554688 111.429688 L 271.398438 110.46875 L 272.242188 109.503906 L 273.085938 108.535156 L 273.929688 107.558594 L 274.773438 106.578125 L 275.617188 105.59375 L 276.460938 104.605469 L 278.148438 102.613281 L 278.992188 101.613281 L 279.835938 100.609375 L 280.675781 99.601562 L 281.519531 98.589844 L 282.363281 97.574219 L 284.050781 95.535156 L 284.894531 94.511719 L 286.582031 92.457031 L 288.269531 90.394531 L 290.800781 87.289062 L 292.488281 85.210938 L 293.332031 84.167969 L 294.175781 83.128906 L 295.015625 82.085938 L 295.859375 81.046875 L 297.546875 78.960938 L 301.765625 73.765625 L 302.609375 72.730469 L 303.453125 71.699219 L 304.296875 70.664062 L 305.984375 68.609375 L 307.671875 66.5625 L 308.515625 65.542969 L 309.355469 64.527344 L 311.042969 62.511719 L 311.886719 61.507812 L 312.730469 60.507812 L 313.574219 59.511719 L 314.417969 58.523438 L 315.261719 57.539062 L 316.105469 56.558594 L 316.949219 55.582031 L 318.636719 53.652344 L 319.480469 52.695312 L 320.324219 51.746094 L 321.167969 50.804688 L 322.011719 49.867188 L 322.855469 48.941406 L 323.695312 48.019531 L 324.539062 47.105469 L 325.382812 46.199219 L 326.226562 45.300781 L 327.070312 44.414062 L 327.914062 43.53125 L 328.757812 42.660156 L 329.601562 41.796875 L 330.445312 40.945312 L 331.289062 40.101562 L 332.132812 39.269531 L 332.976562 38.445312 L 333.820312 37.632812 L 334.664062 36.828125 L 335.507812 36.035156 L 336.351562 35.253906 L 337.195312 34.484375 L 338.039062 33.726562 L 338.878906 32.976562 L 339.722656 32.242188 L 340.566406 31.519531 L 341.410156 30.808594 L 342.253906 30.109375 L 343.097656 29.421875 L 343.941406 28.75 L 344.785156 28.089844 L 345.628906 27.441406 L 346.472656 26.808594 L 347.316406 26.1875 L 348.160156 25.582031 L 349.003906 24.988281 L 349.847656 24.410156 L 350.691406 23.84375 L 351.535156 23.296875 L 352.378906 22.761719 L 353.21875 22.238281 L 354.0625 21.734375 L 354.90625 21.242188 L 355.75 20.769531 L 356.59375 20.308594 L 357.4375 19.863281 L 358.28125 19.433594 L 359.125 19.023438 L 359.96875 18.625 L 360.8125 18.242188 L 361.65625 17.878906 L 362.5 17.53125 L 363.34375 17.195312 L 364.1875 16.878906 L 365.03125 16.582031 L 365.875 16.296875 L 366.71875 16.03125 L 367.558594 15.78125 L 368.402344 15.550781 L 369.246094 15.335938 L 370.089844 15.136719 L 370.933594 14.953125 L 371.777344 14.789062 L 372.621094 14.640625 L 373.464844 14.511719 L 374.308594 14.398438 L 375.152344 14.304688 L 375.996094 14.226562 L 376.839844 14.164062 L 377.683594 14.121094 L 378.527344 14.09375 L 379.371094 14.085938 L 380.214844 14.09375 L 381.058594 14.121094 L 381.902344 14.164062 L 382.742188 14.226562 L 383.585938 14.304688 L 384.429688 14.398438 L 385.273438 14.511719 L 386.117188 14.640625 L 386.960938 14.789062 L 387.804688 14.953125 L 388.648438 15.136719 L 389.492188 15.335938 L 390.335938 15.550781 L 391.179688 15.78125 L 392.023438 16.03125 L 392.867188 16.296875 L 393.710938 16.582031 L 394.554688 16.878906 L 395.398438 17.195312 L 396.242188 17.53125 L 397.082031 17.878906 L 397.925781 18.242188 L 398.769531 18.625 L 399.613281 19.023438 L 400.457031 19.433594 L 401.300781 19.863281 L 402.144531 20.308594 L 402.988281 20.769531 L 403.832031 21.242188 L 404.675781 21.734375 L 405.519531 22.238281 L 406.363281 22.761719 L 407.207031 23.296875 L 408.050781 23.84375 L 408.894531 24.410156 L 409.738281 24.988281 L 410.582031 25.582031 L 411.421875 26.1875 L 412.265625 26.808594 L 413.109375 27.441406 L 413.953125 28.089844 L 414.796875 28.75 L 415.640625 29.421875 L 416.484375 30.109375 L 417.328125 30.808594 L 418.171875 31.519531 L 419.015625 32.242188 L 419.859375 32.976562 L 420.703125 33.726562 L 421.546875 34.484375 L 422.390625 35.253906 L 423.234375 36.035156 L 424.078125 36.828125 L 424.921875 37.632812 L 425.765625 38.445312 L 426.605469 39.269531 L 427.449219 40.101562 L 428.292969 40.945312 L 429.136719 41.796875 L 429.980469 42.660156 L 430.824219 43.53125 L 431.667969 44.414062 L 432.511719 45.300781 L 433.355469 46.199219 L 434.199219 47.105469 L 435.042969 48.019531 L 435.886719 48.941406 L 436.730469 49.867188 L 437.574219 50.804688 L 438.417969 51.746094 L 439.261719 52.695312 L 440.105469 53.652344 L 440.945312 54.617188 L 441.789062 55.582031 L 442.632812 56.558594 L 443.476562 57.539062 L 444.320312 58.523438 L 445.164062 59.511719 L 446.007812 60.507812 L 446.851562 61.507812 L 447.695312 62.511719 L 449.382812 64.527344 L 450.226562 65.542969 L 451.070312 66.5625 L 452.757812 68.609375 L 454.445312 70.664062 L 455.285156 71.699219 L 456.128906 72.730469 L 456.972656 73.765625 L 461.191406 78.960938 L 462.878906 81.046875 L 463.722656 82.085938 L 464.566406 83.128906 L 465.410156 84.167969 L 466.253906 85.210938 L 467.941406 87.289062 L 469.628906 89.359375 L 470.46875 90.394531 L 472.15625 92.457031 L 473.84375 94.511719 L 474.6875 95.535156 L 476.375 97.574219 L 477.21875 98.589844 L 478.0625 99.601562 L 478.90625 100.609375 L 479.75 101.613281 L 480.59375 102.613281 L 482.28125 104.605469 L 483.125 105.59375 L 483.96875 106.578125 L 484.808594 107.558594 L 485.652344 108.535156 L 486.496094 109.503906 L 487.339844 110.46875 L 488.183594 111.429688 L 489.027344 112.386719 L 489.871094 113.339844 L 490.714844 114.285156 L 491.558594 115.222656 L 492.402344 116.15625 L 493.246094 117.085938 L 494.089844 118.007812 L 494.933594 118.925781 L 495.777344 119.835938 L 496.621094 120.742188 L 497.464844 121.640625 L 498.308594 122.535156 L 499.148438 123.417969 L 499.992188 124.300781 L 500.835938 125.171875 L 501.679688 126.039062 L 502.523438 126.898438 L 503.367188 127.753906 L 504.210938 128.597656 L 505.054688 129.4375 L 505.898438 130.269531 L 506.742188 131.097656 L 507.585938 131.914062 L 508.429688 132.726562 L 509.273438 133.53125 L 510.117188 134.328125 L 510.960938 135.117188 L 511.804688 135.898438 L 512.648438 136.675781 L 513.488281 137.441406 L 514.332031 138.203125 L 515.175781 138.953125 L 516.019531 139.699219 L 516.863281 140.4375 L 517.707031 141.167969 L 518.550781 141.890625 L 519.394531 142.605469 L 520.238281 143.316406 L 521.082031 144.015625 L 521.925781 144.707031 L 522.769531 145.394531 L 523.613281 146.070312 L 524.457031 146.742188 L 525.300781 147.402344 L 526.144531 148.058594 L 526.988281 148.703125 L 527.832031 149.34375 L 528.671875 149.976562 L 529.515625 150.601562 L 530.359375 151.21875 L 531.203125 151.828125 L 532.046875 152.429688 L 532.890625 153.023438 L 533.734375 153.609375 L 534.578125 154.191406 L 535.421875 154.761719 L 536.265625 155.328125 L 537.109375 155.882812 L 537.953125 156.433594 L 538.796875 156.976562 L 539.640625 157.511719 L 540.484375 158.039062 L 541.328125 158.5625 L 542.171875 159.074219 L 543.011719 159.582031 L 543.855469 160.082031 L 544.699219 160.574219 L 545.542969 161.058594 L 546.386719 161.539062 L 547.230469 162.007812 L 548.074219 162.472656 L 548.917969 162.929688 L 549.761719 163.382812 L 550.605469 163.828125 L 551.449219 164.265625 L 552.292969 164.695312 L 553.136719 165.121094 L 553.980469 165.539062 L 554.824219 165.949219 L 555.667969 166.355469 L 556.511719 166.753906 L 557.351562 167.144531 L 558.195312 167.53125 L 559.039062 167.910156 L 559.882812 168.285156 L 560.726562 168.652344 L 561.570312 169.015625 L 562.414062 169.371094 L 563.257812 169.71875 L 564.101562 170.0625 L 564.945312 170.402344 L 565.789062 170.734375 L 566.632812 171.0625 L 567.476562 171.382812 L 568.320312 171.699219 L 569.164062 172.007812 L 570.007812 172.3125 L 570.851562 172.613281 L 571.695312 172.90625 L 572.535156 173.195312 L 573.378906 173.480469 L 574.222656 173.757812 L 575.066406 174.03125 L 575.910156 174.300781 L 577.597656 174.824219 L 578.441406 175.078125 L 579.285156 175.328125 L 580.972656 175.8125 L 581.816406 176.046875 L 582.660156 176.277344 L 583.503906 176.503906 L 584.347656 176.726562 L 585.191406 176.945312 L 586.035156 177.160156 L 586.875 177.367188 L 587.71875 177.574219 L 589.40625 177.972656 L 590.25 178.167969 L 591.9375 178.542969 L 593.625 178.902344 L 594.46875 179.078125 L 595.3125 179.25 L 597.84375 179.742188 L 598.6875 179.898438 L 600.375 180.203125 L 601.214844 180.351562 L 602.058594 180.496094 L 602.902344 180.636719 L 604.589844 180.910156 L 605.433594 181.042969 L 607.121094 181.300781 L 609.652344 181.664062 L 612.183594 182.003906 L 614.714844 182.320312 L 615.558594 182.421875 L 616.398438 182.519531 L 617.242188 182.617188 L 618.085938 182.710938 L 618.929688 182.800781 L 619.773438 182.894531 L 621.460938 183.066406 L 623.992188 183.3125 L 624.835938 183.390625 L 627.367188 183.613281 L 629.054688 183.753906 L 629.898438 183.820312 L 630.738281 183.886719 L 633.269531 184.074219 L 634.957031 184.191406 L 637.488281 184.355469 L 640.863281 184.558594 L 642.550781 184.652344 L 644.238281 184.738281 L 645.078125 184.78125 L 645.921875 184.824219 L 648.453125 184.941406 L 649.296875 184.976562 L 650.140625 185.015625 L 651.828125 185.085938 L 652.671875 185.117188 L 653.515625 185.152344 L 655.203125 185.214844 L 656.046875 185.242188 L 656.890625 185.273438 L 659.421875 185.355469 L 660.261719 185.382812 L 661.105469 185.40625 L 661.949219 185.433594 L 663.636719 185.480469 L 664.480469 185.5 L 666.167969 185.546875 L 671.230469 185.664062 L 672.917969 185.695312 L 673.761719 185.714844 L 674.601562 185.730469 L 677.132812 185.777344 L 677.976562 185.789062 L 678.820312 185.804688 L 679.664062 185.816406 L 680.507812 185.832031 L 685.570312 185.902344 L 686.414062 185.910156 L 688.101562 185.933594 L 688.941406 185.941406 L 689.785156 185.953125 L 692.316406 185.976562 L 693.160156 185.988281 L 695.691406 186.011719 L 696.535156 186.015625 L 699.066406 186.039062 L 699.910156 186.042969 L 701.597656 186.058594 L 702.441406 186.0625 L 703.28125 186.070312 L 704.96875 186.078125 L 705.8125 186.085938 L 708.34375 186.097656 L 709.1875 186.105469 L 716.78125 186.140625 L 716.78125 186.234375 L 41.960938 186.234375 Z M 41.960938 186.140625 "/>
<path style=" stroke:none;fill-rule:nonzero;fill:rgb(90.196078%,25.490196%,45.098039%);fill-opacity:1;" d="M 41.960938 186.140625 L 46.179688 186.121094 L 47.019531 186.117188 L 49.550781 186.105469 L 50.394531 186.097656 L 52.925781 186.085938 L 53.769531 186.078125 L 55.457031 186.070312 L 56.300781 186.0625 L 57.144531 186.058594 L 58.832031 186.042969 L 59.675781 186.039062 L 60.519531 186.03125 L 61.359375 186.023438 L 62.203125 186.015625 L 63.046875 186.011719 L 65.578125 185.988281 L 66.421875 185.976562 L 68.953125 185.953125 L 69.796875 185.941406 L 70.640625 185.933594 L 72.328125 185.910156 L 73.171875 185.902344 L 74.859375 185.878906 L 75.699219 185.867188 L 78.230469 185.832031 L 79.074219 185.816406 L 79.917969 185.804688 L 80.761719 185.789062 L 81.605469 185.777344 L 84.980469 185.714844 L 85.824219 185.695312 L 87.511719 185.664062 L 90.042969 185.605469 L 90.882812 185.585938 L 92.570312 185.546875 L 94.257812 185.5 L 95.101562 185.480469 L 96.789062 185.433594 L 97.632812 185.40625 L 98.476562 185.382812 L 101.851562 185.273438 L 102.695312 185.242188 L 103.539062 185.214844 L 104.382812 185.183594 L 105.222656 185.152344 L 106.066406 185.117188 L 106.910156 185.085938 L 108.597656 185.015625 L 109.441406 184.976562 L 110.285156 184.941406 L 112.816406 184.824219 L 116.191406 184.652344 L 117.878906 184.558594 L 118.722656 184.507812 L 119.5625 184.457031 L 121.25 184.355469 L 123.78125 184.191406 L 125.46875 184.074219 L 128 183.886719 L 129.6875 183.753906 L 131.375 183.613281 L 133.0625 183.464844 L 133.902344 183.390625 L 134.746094 183.3125 L 137.277344 183.066406 L 138.964844 182.894531 L 139.808594 182.800781 L 140.652344 182.710938 L 141.496094 182.617188 L 143.183594 182.421875 L 144.027344 182.320312 L 146.558594 182.003906 L 148.246094 181.777344 L 149.085938 181.664062 L 151.617188 181.300781 L 153.304688 181.042969 L 154.148438 180.910156 L 155.835938 180.636719 L 156.679688 180.496094 L 157.523438 180.351562 L 158.367188 180.203125 L 160.054688 179.898438 L 160.898438 179.742188 L 162.585938 179.414062 L 163.425781 179.25 L 164.269531 179.078125 L 165.113281 178.902344 L 166.800781 178.542969 L 168.488281 178.167969 L 169.332031 177.972656 L 171.019531 177.574219 L 172.707031 177.160156 L 173.550781 176.945312 L 174.394531 176.726562 L 175.238281 176.503906 L 176.082031 176.277344 L 176.925781 176.046875 L 177.765625 175.8125 L 179.453125 175.328125 L 180.296875 175.078125 L 181.140625 174.824219 L 182.828125 174.300781 L 183.671875 174.03125 L 184.515625 173.757812 L 185.359375 173.480469 L 186.203125 173.195312 L 187.046875 172.90625 L 187.890625 172.613281 L 188.734375 172.3125 L 189.578125 172.007812 L 190.421875 171.699219 L 191.265625 171.382812 L 192.109375 171.0625 L 192.949219 170.734375 L 193.792969 170.402344 L 194.636719 170.0625 L 195.480469 169.71875 L 196.324219 169.371094 L 197.167969 169.015625 L 198.011719 168.652344 L 198.855469 168.285156 L 199.699219 167.910156 L 200.542969 167.53125 L 201.386719 167.144531 L 202.230469 166.753906 L 203.074219 166.355469 L 203.917969 165.949219 L 204.761719 165.539062 L 205.605469 165.121094 L 206.449219 164.695312 L 207.289062 164.265625 L 208.132812 163.828125 L 208.976562 163.382812 L 209.820312 162.929688 L 210.664062 162.472656 L 211.507812 162.007812 L 211.507812 186.234375 L 41.960938 186.234375 Z M 41.960938 186.140625 "/>
<g clip-path="url(#clip1)" clip-rule="nonzero">
<path style="fill:none;stroke-width:1.066978;stroke-linecap:butt;stroke-linejoin:round;stroke:rgb(0%,0%,0%);stroke-opacity:1;stroke-miterlimit:10;" d="M 8.21875 186.234375 L 750.519531 186.234375 "/>
</g>
<g clip-path="url(#clip2)" clip-rule="nonzero">
<path style="fill:none;stroke-width:0.746885;stroke-linecap:butt;stroke-linejoin:round;stroke:rgb(0%,0%,0%);stroke-opacity:1;stroke-miterlimit:10;" d="M 211.976562 194.84375 L 211.976562 5.480469 "/>
</g>
<path style=" stroke:none;fill-rule:nonzero;fill:rgb(30.196078%,30.196078%,30.196078%);fill-opacity:1;" d="M 37.160156 205.3125 L 37.160156 204.375 L 40.089844 204.375 L 40.089844 205.3125 Z M 37.160156 205.3125 "/>
<path style=" stroke:none;fill-rule:nonzero;fill:rgb(30.196078%,30.196078%,30.196078%);fill-opacity:1;" d="M 45.785156 206.160156 L 45.785156 208.03125 L 44.789062 208.03125 L 44.789062 206.160156 L 40.898438 206.160156 L 40.898438 205.339844 L 44.675781 199.773438 L 45.785156 199.773438 L 45.785156 205.328125 L 46.945312 205.328125 L 46.945312 206.160156 Z M 44.789062 200.964844 L 44.785156 200.96875 L 44.78125 200.976562 L 44.777344 200.988281 L 44.773438 200.996094 L 44.765625 201.007812 L 44.761719 201.019531 L 44.753906 201.035156 L 44.746094 201.046875 L 44.738281 201.0625 L 44.730469 201.082031 L 44.71875 201.097656 L 44.710938 201.113281 L 44.6875 201.152344 L 44.679688 201.167969 L 44.644531 201.226562 L 44.636719 201.246094 L 44.625 201.269531 L 44.613281 201.289062 L 44.597656 201.3125 L 44.585938 201.332031 L 44.574219 201.355469 L 44.5625 201.375 L 44.550781 201.398438 L 44.539062 201.417969 L 44.527344 201.441406 L 44.511719 201.464844 L 44.5 201.484375 L 44.488281 201.507812 L 44.464844 201.546875 L 44.457031 201.5625 L 44.445312 201.582031 L 44.433594 201.597656 L 44.425781 201.617188 L 44.402344 201.648438 L 44.394531 201.660156 L 42.28125 204.777344 L 42.273438 204.789062 L 42.265625 204.796875 L 42.234375 204.84375 L 42.222656 204.859375 L 42.214844 204.871094 L 42.179688 204.917969 L 42.171875 204.933594 L 42.101562 205.027344 L 42.09375 205.042969 L 42 205.167969 L 41.988281 205.179688 L 41.941406 205.242188 L 41.929688 205.253906 L 41.921875 205.265625 L 41.910156 205.28125 L 41.890625 205.300781 L 41.882812 205.3125 L 41.875 205.320312 L 41.871094 205.328125 L 44.789062 205.328125 Z M 44.789062 200.964844 "/>
<path style=" stroke:none;fill-rule:nonzero;fill:rgb(30.196078%,30.196078%,30.196078%);fill-opacity:1;" d="M 205.863281 205.3125 L 205.863281 204.375 L 208.792969 204.375 L 208.792969 205.3125 Z M 205.863281 205.3125 "/>
<path style=" stroke:none;fill-rule:nonzero;fill:rgb(30.196078%,30.196078%,30.196078%);fill-opacity:1;" d="M 209.929688 208.03125 L 209.929688 207.285156 L 210.054688 207.019531 L 210.121094 206.890625 L 210.1875 206.765625 L 210.261719 206.640625 L 210.410156 206.40625 L 210.492188 206.292969 L 210.570312 206.183594 L 210.65625 206.078125 L 210.742188 205.976562 L 210.832031 205.871094 L 210.921875 205.773438 L 211.007812 205.675781 L 211.101562 205.578125 L 211.191406 205.484375 L 211.285156 205.390625 L 211.375 205.304688 L 211.46875 205.214844 L 211.5625 205.128906 L 211.660156 205.046875 L 211.753906 204.960938 L 211.941406 204.796875 L 212.222656 204.5625 L 212.410156 204.414062 L 212.5 204.339844 L 212.59375 204.265625 L 212.6875 204.195312 L 212.773438 204.121094 L 212.863281 204.046875 L 212.945312 203.976562 L 213.03125 203.902344 L 213.113281 203.832031 L 213.269531 203.683594 L 213.34375 203.613281 L 213.417969 203.539062 L 213.558594 203.390625 L 213.683594 203.242188 L 213.800781 203.085938 L 213.902344 202.929688 L 213.949219 202.851562 L 214.035156 202.6875 L 214.070312 202.601562 L 214.097656 202.515625 L 214.125 202.425781 L 214.144531 202.335938 L 214.164062 202.242188 L 214.175781 202.144531 L 214.183594 201.949219 L 214.183594 201.878906 L 214.175781 201.746094 L 214.167969 201.679688 L 214.15625 201.617188 L 214.132812 201.5 L 214.117188 201.441406 L 214.078125 201.332031 L 214.007812 201.179688 L 213.980469 201.132812 L 213.949219 201.085938 L 213.917969 201.042969 L 213.847656 200.957031 L 213.8125 200.917969 L 213.734375 200.847656 L 213.691406 200.8125 L 213.648438 200.78125 L 213.601562 200.75 L 213.554688 200.722656 L 213.503906 200.699219 L 213.453125 200.671875 L 213.402344 200.652344 L 213.238281 200.59375 L 213.179688 200.578125 L 213.121094 200.566406 L 213.0625 200.550781 L 212.875 200.527344 L 212.8125 200.523438 L 212.746094 200.519531 L 212.613281 200.519531 L 212.550781 200.523438 L 212.492188 200.527344 L 212.429688 200.53125 L 212.371094 200.539062 L 212.195312 200.574219 L 212.078125 200.605469 L 212.027344 200.625 L 211.972656 200.644531 L 211.921875 200.667969 L 211.867188 200.691406 L 211.820312 200.714844 L 211.769531 200.742188 L 211.675781 200.804688 L 211.632812 200.835938 L 211.585938 200.871094 L 211.546875 200.90625 L 211.503906 200.945312 L 211.425781 201.023438 L 211.390625 201.066406 L 211.320312 201.160156 L 211.289062 201.207031 L 211.257812 201.257812 L 211.230469 201.308594 L 211.203125 201.363281 L 211.15625 201.472656 L 211.117188 201.589844 L 211.085938 201.714844 L 211.074219 201.777344 L 211.0625 201.84375 L 211.054688 201.914062 L 209.976562 201.8125 L 209.988281 201.726562 L 210.003906 201.636719 L 210.019531 201.550781 L 210.042969 201.464844 L 210.0625 201.382812 L 210.089844 201.296875 L 210.121094 201.214844 L 210.152344 201.136719 L 210.183594 201.054688 L 210.261719 200.898438 L 210.304688 200.824219 L 210.351562 200.75 L 210.402344 200.675781 L 210.453125 200.609375 L 210.507812 200.539062 L 210.566406 200.476562 L 210.625 200.410156 L 210.6875 200.351562 L 210.753906 200.289062 L 210.824219 200.230469 L 210.972656 200.121094 L 211.050781 200.070312 L 211.128906 200.023438 L 211.210938 199.976562 L 211.296875 199.933594 L 211.476562 199.855469 L 211.570312 199.820312 L 211.667969 199.789062 L 211.871094 199.734375 L 211.976562 199.710938 L 212.085938 199.695312 L 212.199219 199.679688 L 212.316406 199.667969 L 212.433594 199.660156 L 212.554688 199.652344 L 212.800781 199.652344 L 212.917969 199.65625 L 213.035156 199.664062 L 213.148438 199.675781 L 213.257812 199.6875 L 213.367188 199.703125 L 213.472656 199.722656 L 213.675781 199.769531 L 213.773438 199.796875 L 213.867188 199.828125 L 213.960938 199.863281 L 214.046875 199.898438 L 214.132812 199.9375 L 214.296875 200.023438 L 214.371094 200.070312 L 214.445312 200.121094 L 214.515625 200.175781 L 214.582031 200.230469 L 214.648438 200.289062 L 214.710938 200.351562 L 214.769531 200.414062 L 214.824219 200.484375 L 214.875 200.550781 L 214.925781 200.625 L 214.972656 200.699219 L 215.015625 200.777344 L 215.054688 200.859375 L 215.089844 200.941406 L 215.125 201.027344 L 215.15625 201.113281 L 215.179688 201.207031 L 215.203125 201.296875 L 215.222656 201.394531 L 215.238281 201.492188 L 215.25 201.59375 L 215.261719 201.699219 L 215.265625 201.804688 L 215.265625 201.996094 L 215.261719 202.078125 L 215.253906 202.160156 L 215.242188 202.238281 L 215.230469 202.320312 L 215.191406 202.476562 L 215.171875 202.550781 L 215.144531 202.628906 L 215.113281 202.703125 L 215.085938 202.777344 L 215.050781 202.851562 L 215.019531 202.925781 L 214.980469 203 L 214.902344 203.140625 L 214.859375 203.210938 L 214.765625 203.351562 L 214.714844 203.417969 L 214.667969 203.488281 L 214.613281 203.554688 L 214.5625 203.621094 L 214.507812 203.6875 L 214.390625 203.820312 L 214.332031 203.882812 L 214.269531 203.949219 L 214.207031 204.011719 L 214.140625 204.074219 L 214.011719 204.203125 L 213.941406 204.265625 L 213.808594 204.390625 L 213.738281 204.449219 L 213.527344 204.636719 L 213.457031 204.695312 L 213.386719 204.757812 L 213.3125 204.816406 L 213.171875 204.933594 L 213.097656 204.996094 L 213.027344 205.054688 L 212.953125 205.113281 L 212.882812 205.175781 L 212.734375 205.292969 L 212.523438 205.46875 L 212.453125 205.53125 L 212.382812 205.589844 L 212.316406 205.648438 L 212.246094 205.707031 L 212.179688 205.765625 L 212.117188 205.824219 L 212.050781 205.886719 L 211.925781 206.003906 L 211.867188 206.066406 L 211.808594 206.125 L 211.75 206.1875 L 211.695312 206.25 L 211.640625 206.308594 L 211.585938 206.371094 L 211.535156 206.433594 L 211.480469 206.496094 L 211.433594 206.554688 L 211.339844 206.679688 L 211.296875 206.742188 L 211.257812 206.808594 L 211.21875 206.871094 L 211.183594 206.9375 L 211.152344 207 L 211.117188 207.066406 L 211.089844 207.132812 L 215.394531 207.132812 L 215.394531 208.03125 Z M 209.929688 208.03125 "/>
<path style=" stroke:none;fill-rule:nonzero;fill:rgb(30.196078%,30.196078%,30.196078%);fill-opacity:1;" d="M 382.238281 203.898438 L 382.234375 204.132812 L 382.230469 204.359375 L 382.21875 204.578125 L 382.203125 204.792969 L 382.179688 204.996094 L 382.15625 205.191406 L 382.125 205.382812 L 382.089844 205.5625 L 382.054688 205.738281 L 382.007812 205.902344 L 381.964844 206.0625 L 381.914062 206.214844 L 381.859375 206.359375 L 381.804688 206.5 L 381.746094 206.636719 L 381.679688 206.765625 L 381.613281 206.886719 L 381.542969 207.003906 L 381.472656 207.113281 L 381.394531 207.214844 L 381.316406 207.3125 L 381.234375 207.402344 L 381.148438 207.488281 L 381.0625 207.570312 L 380.972656 207.644531 L 380.878906 207.710938 L 380.785156 207.773438 L 380.683594 207.832031 L 380.585938 207.882812 L 380.480469 207.929688 L 380.375 207.972656 L 380.15625 208.042969 L 380.046875 208.070312 L 379.933594 208.09375 L 379.820312 208.113281 L 379.707031 208.128906 L 379.589844 208.140625 L 379.355469 208.148438 L 379.234375 208.144531 L 379.117188 208.140625 L 379 208.128906 L 378.886719 208.113281 L 378.773438 208.09375 L 378.660156 208.070312 L 378.550781 208.042969 L 378.441406 208.007812 L 378.335938 207.972656 L 378.230469 207.929688 L 378.128906 207.882812 L 378.027344 207.832031 L 377.929688 207.773438 L 377.835938 207.710938 L 377.742188 207.644531 L 377.652344 207.570312 L 377.566406 207.488281 L 377.480469 207.402344 L 377.402344 207.3125 L 377.320312 207.214844 L 377.246094 207.113281 L 377.175781 207.003906 L 377.109375 206.890625 L 377.042969 206.769531 L 376.980469 206.640625 L 376.921875 206.507812 L 376.867188 206.367188 L 376.8125 206.21875 L 376.765625 206.066406 L 376.71875 205.910156 L 376.675781 205.742188 L 376.640625 205.566406 L 376.609375 205.386719 L 376.578125 205.195312 L 376.554688 205 L 376.535156 204.792969 L 376.519531 204.582031 L 376.511719 204.363281 L 376.503906 204.132812 L 376.5 203.898438 L 376.503906 203.652344 L 376.511719 203.417969 L 376.519531 203.191406 L 376.535156 202.96875 L 376.554688 202.761719 L 376.578125 202.558594 L 376.609375 202.363281 L 376.640625 202.179688 L 376.675781 202.003906 L 376.71875 201.835938 L 376.765625 201.675781 L 376.8125 201.523438 L 376.867188 201.375 L 376.921875 201.234375 L 376.980469 201.101562 L 377.042969 200.972656 L 377.109375 200.851562 L 377.179688 200.738281 L 377.253906 200.632812 L 377.328125 200.53125 L 377.40625 200.4375 L 377.488281 200.347656 L 377.574219 200.265625 L 377.660156 200.1875 L 377.75 200.117188 L 377.84375 200.050781 L 377.9375 199.992188 L 378.035156 199.941406 L 378.136719 199.890625 L 378.347656 199.8125 L 378.457031 199.777344 L 378.566406 199.75 L 378.679688 199.722656 L 378.792969 199.703125 L 378.910156 199.683594 L 379.027344 199.667969 L 379.144531 199.660156 L 379.265625 199.652344 L 379.507812 199.652344 L 379.625 199.660156 L 379.738281 199.667969 L 379.851562 199.683594 L 379.964844 199.703125 L 380.074219 199.722656 L 380.179688 199.75 L 380.289062 199.777344 L 380.394531 199.8125 L 380.496094 199.851562 L 380.601562 199.890625 L 380.796875 199.992188 L 380.894531 200.050781 L 380.984375 200.117188 L 381.074219 200.1875 L 381.160156 200.265625 L 381.246094 200.347656 L 381.328125 200.4375 L 381.40625 200.53125 L 381.480469 200.632812 L 381.554688 200.738281 L 381.625 200.851562 L 381.6875 200.972656 L 381.75 201.101562 L 381.8125 201.234375 L 381.867188 201.375 L 381.917969 201.523438 L 381.96875 201.675781 L 382.015625 201.835938 L 382.058594 202.003906 L 382.09375 202.179688 L 382.128906 202.363281 L 382.15625 202.558594 L 382.183594 202.761719 L 382.203125 202.96875 L 382.21875 203.191406 L 382.230469 203.417969 L 382.234375 203.652344 Z M 381.164062 203.898438 L 381.164062 203.707031 L 381.160156 203.519531 L 381.15625 203.339844 L 381.148438 203.164062 L 381.136719 203 L 381.125 202.839844 L 381.109375 202.683594 L 381.089844 202.539062 L 381.070312 202.398438 L 381.046875 202.265625 L 381.023438 202.136719 L 380.996094 202.011719 L 380.96875 201.894531 L 380.9375 201.78125 L 380.902344 201.675781 L 380.867188 201.574219 L 380.828125 201.476562 L 380.789062 201.386719 L 380.746094 201.300781 L 380.703125 201.222656 L 380.65625 201.144531 L 380.605469 201.074219 L 380.554688 201.007812 L 380.503906 200.945312 L 380.449219 200.886719 L 380.332031 200.785156 L 380.269531 200.742188 L 380.207031 200.703125 L 380.074219 200.640625 L 379.933594 200.585938 L 379.863281 200.566406 L 379.789062 200.546875 L 379.710938 200.53125 L 379.636719 200.523438 L 379.554688 200.511719 L 379.472656 200.507812 L 379.300781 200.507812 L 379.214844 200.511719 L 379.132812 200.523438 L 379.050781 200.53125 L 378.972656 200.546875 L 378.894531 200.566406 L 378.820312 200.585938 L 378.746094 200.613281 L 378.675781 200.640625 L 378.605469 200.671875 L 378.539062 200.707031 L 378.472656 200.746094 L 378.410156 200.789062 L 378.292969 200.890625 L 378.234375 200.949219 L 378.179688 201.011719 L 378.128906 201.078125 L 378.078125 201.152344 L 378.03125 201.226562 L 377.988281 201.308594 L 377.945312 201.394531 L 377.902344 201.484375 L 377.867188 201.582031 L 377.832031 201.683594 L 377.796875 201.789062 L 377.765625 201.902344 L 377.738281 202.019531 L 377.710938 202.140625 L 377.683594 202.269531 L 377.664062 202.402344 L 377.644531 202.542969 L 377.625 202.691406 L 377.609375 202.84375 L 377.597656 203.003906 L 377.585938 203.167969 L 377.578125 203.34375 L 377.574219 203.519531 L 377.570312 203.707031 L 377.566406 203.898438 L 377.570312 204.085938 L 377.574219 204.265625 L 377.578125 204.441406 L 377.585938 204.609375 L 377.597656 204.773438 L 377.609375 204.929688 L 377.625 205.082031 L 377.644531 205.226562 L 377.664062 205.367188 L 377.683594 205.5 L 377.738281 205.75 L 377.769531 205.867188 L 377.800781 205.980469 L 377.835938 206.085938 L 377.871094 206.1875 L 377.910156 206.285156 L 377.949219 206.378906 L 377.992188 206.464844 L 378.035156 206.546875 L 378.085938 206.625 L 378.132812 206.695312 L 378.1875 206.765625 L 378.242188 206.828125 L 378.296875 206.886719 L 378.355469 206.941406 L 378.414062 206.992188 L 378.476562 207.039062 L 378.539062 207.078125 L 378.605469 207.117188 L 378.671875 207.148438 L 378.8125 207.203125 L 378.886719 207.226562 L 378.960938 207.242188 L 379.039062 207.257812 L 379.117188 207.269531 L 379.199219 207.28125 L 379.28125 207.285156 L 379.449219 207.285156 L 379.53125 207.28125 L 379.6875 207.257812 L 379.835938 207.226562 L 379.910156 207.203125 L 380.050781 207.148438 L 380.117188 207.117188 L 380.183594 207.078125 L 380.246094 207.039062 L 380.308594 206.992188 L 380.367188 206.941406 L 380.425781 206.886719 L 380.480469 206.828125 L 380.53125 206.765625 L 380.632812 206.625 L 380.679688 206.546875 L 380.726562 206.464844 L 380.769531 206.378906 L 380.808594 206.285156 L 380.847656 206.1875 L 380.886719 206.085938 L 380.921875 205.980469 L 380.953125 205.867188 L 380.984375 205.75 L 381.011719 205.625 L 381.035156 205.5 L 381.0625 205.367188 L 381.082031 205.226562 L 381.101562 205.082031 L 381.121094 204.929688 L 381.132812 204.773438 L 381.144531 204.609375 L 381.152344 204.441406 L 381.160156 204.265625 L 381.164062 204.085938 Z M 381.164062 203.898438 "/>
<path style=" stroke:none;fill-rule:nonzero;fill:rgb(30.196078%,30.196078%,30.196078%);fill-opacity:1;" d="M 545.339844 208.03125 L 545.339844 207.285156 L 545.464844 207.019531 L 545.53125 206.890625 L 545.671875 206.640625 L 545.746094 206.523438 L 545.824219 206.40625 L 545.902344 206.292969 L 545.984375 206.183594 L 546.066406 206.078125 L 546.15625 205.976562 L 546.242188 205.871094 L 546.511719 205.578125 L 546.601562 205.484375 L 546.695312 205.390625 L 546.789062 205.304688 L 546.882812 205.214844 L 546.976562 205.128906 L 547.070312 205.046875 L 547.164062 204.960938 L 547.261719 204.878906 L 547.355469 204.796875 L 547.636719 204.5625 L 547.726562 204.488281 L 548.007812 204.265625 L 548.097656 204.195312 L 548.1875 204.121094 L 548.273438 204.046875 L 548.359375 203.976562 L 548.441406 203.902344 L 548.523438 203.832031 L 548.605469 203.757812 L 548.679688 203.683594 L 548.757812 203.613281 L 548.832031 203.539062 L 548.902344 203.464844 L 549.035156 203.316406 L 549.097656 203.242188 L 549.15625 203.164062 L 549.210938 203.085938 L 549.3125 202.929688 L 549.359375 202.851562 L 549.40625 202.769531 L 549.445312 202.6875 L 549.480469 202.601562 L 549.511719 202.515625 L 549.558594 202.335938 L 549.574219 202.242188 L 549.585938 202.144531 L 549.59375 202.046875 L 549.59375 201.878906 L 549.585938 201.746094 L 549.578125 201.679688 L 549.570312 201.617188 L 549.558594 201.558594 L 549.527344 201.441406 L 549.511719 201.386719 L 549.488281 201.332031 L 549.46875 201.28125 L 549.445312 201.230469 L 549.417969 201.179688 L 549.390625 201.132812 L 549.359375 201.085938 L 549.296875 201 L 549.261719 200.957031 L 549.222656 200.917969 L 549.144531 200.847656 L 549.101562 200.8125 L 549.058594 200.78125 L 549.011719 200.75 L 548.964844 200.722656 L 548.917969 200.699219 L 548.867188 200.671875 L 548.8125 200.652344 L 548.761719 200.632812 L 548.703125 200.613281 L 548.648438 200.59375 L 548.59375 200.578125 L 548.535156 200.566406 L 548.472656 200.550781 L 548.414062 200.542969 L 548.289062 200.527344 L 548.15625 200.519531 L 548.027344 200.519531 L 547.902344 200.527344 L 547.84375 200.53125 L 547.78125 200.539062 L 547.605469 200.574219 L 547.546875 200.589844 L 547.492188 200.605469 L 547.382812 200.644531 L 547.230469 200.714844 L 547.183594 200.742188 L 547.042969 200.835938 L 546.957031 200.90625 L 546.914062 200.945312 L 546.875 200.984375 L 546.839844 201.023438 L 546.800781 201.066406 L 546.765625 201.113281 L 546.703125 201.207031 L 546.640625 201.308594 L 546.570312 201.472656 L 546.53125 201.589844 L 546.5 201.714844 L 546.488281 201.777344 L 546.476562 201.84375 L 546.464844 201.914062 L 545.386719 201.8125 L 545.398438 201.726562 L 545.414062 201.636719 L 545.453125 201.464844 L 545.476562 201.382812 L 545.503906 201.296875 L 545.53125 201.214844 L 545.5625 201.136719 L 545.597656 201.054688 L 545.632812 200.976562 L 545.675781 200.898438 L 545.761719 200.75 L 545.8125 200.675781 L 545.863281 200.609375 L 545.917969 200.539062 L 545.976562 200.476562 L 546.039062 200.410156 L 546.101562 200.351562 L 546.167969 200.289062 L 546.238281 200.230469 L 546.308594 200.175781 L 546.382812 200.121094 L 546.460938 200.070312 L 546.625 199.976562 L 546.710938 199.933594 L 546.796875 199.894531 L 546.886719 199.855469 L 546.980469 199.820312 L 547.078125 199.789062 L 547.179688 199.761719 L 547.285156 199.734375 L 547.390625 199.710938 L 547.609375 199.679688 L 547.726562 199.667969 L 547.84375 199.660156 L 547.964844 199.652344 L 548.210938 199.652344 L 548.328125 199.65625 L 548.445312 199.664062 L 548.671875 199.6875 L 548.777344 199.703125 L 548.882812 199.722656 L 548.988281 199.746094 L 549.085938 199.769531 L 549.183594 199.796875 L 549.28125 199.828125 L 549.460938 199.898438 L 549.546875 199.9375 L 549.628906 199.980469 L 549.707031 200.023438 L 549.78125 200.070312 L 549.855469 200.121094 L 549.925781 200.175781 L 549.992188 200.230469 L 550.058594 200.289062 L 550.121094 200.351562 L 550.179688 200.414062 L 550.234375 200.484375 L 550.289062 200.550781 L 550.382812 200.699219 L 550.425781 200.777344 L 550.503906 200.941406 L 550.566406 201.113281 L 550.59375 201.207031 L 550.617188 201.296875 L 550.636719 201.394531 L 550.652344 201.492188 L 550.664062 201.59375 L 550.671875 201.699219 L 550.675781 201.804688 L 550.679688 201.914062 L 550.671875 202.078125 L 550.664062 202.160156 L 550.65625 202.238281 L 550.640625 202.320312 L 550.625 202.398438 L 550.605469 202.476562 L 550.582031 202.550781 L 550.554688 202.628906 L 550.527344 202.703125 L 550.464844 202.851562 L 550.394531 203 L 550.355469 203.070312 L 550.226562 203.28125 L 550.179688 203.351562 L 550.128906 203.417969 L 550.078125 203.488281 L 550.027344 203.554688 L 549.863281 203.753906 L 549.804688 203.820312 L 549.742188 203.882812 L 549.683594 203.949219 L 549.617188 204.011719 L 549.554688 204.074219 L 549.488281 204.136719 L 549.421875 204.203125 L 549.355469 204.265625 L 549.285156 204.328125 L 549.21875 204.390625 L 549.148438 204.449219 L 549.082031 204.511719 L 548.941406 204.636719 L 548.867188 204.695312 L 548.796875 204.757812 L 548.726562 204.816406 L 548.652344 204.875 L 548.582031 204.933594 L 548.511719 204.996094 L 548.4375 205.054688 L 548.367188 205.113281 L 548.292969 205.175781 L 548.21875 205.234375 L 548.148438 205.292969 L 548.074219 205.351562 L 547.933594 205.46875 L 547.863281 205.53125 L 547.796875 205.589844 L 547.726562 205.648438 L 547.527344 205.824219 L 547.460938 205.886719 L 547.398438 205.945312 L 547.21875 206.125 L 547.164062 206.1875 L 547.105469 206.25 L 547.050781 206.308594 L 546.996094 206.371094 L 546.894531 206.496094 L 546.84375 206.554688 L 546.796875 206.617188 L 546.710938 206.742188 L 546.671875 206.808594 L 546.632812 206.871094 L 546.597656 206.9375 L 546.5625 207 L 546.5 207.132812 L 550.808594 207.132812 L 550.808594 208.03125 Z M 545.339844 208.03125 "/>
<path style=" stroke:none;fill-rule:nonzero;fill:rgb(30.196078%,30.196078%,30.196078%);fill-opacity:1;" d="M 718.605469 206.160156 L 718.605469 208.03125 L 717.609375 208.03125 L 717.609375 206.160156 L 713.71875 206.160156 L 713.71875 205.339844 L 717.496094 199.773438 L 718.605469 199.773438 L 718.605469 205.328125 L 719.765625 205.328125 L 719.765625 206.160156 Z M 717.609375 200.964844 L 717.605469 200.96875 L 717.601562 200.976562 L 717.597656 200.988281 L 717.59375 200.996094 L 717.589844 201.007812 L 717.582031 201.019531 L 717.574219 201.035156 L 717.566406 201.046875 L 717.558594 201.0625 L 717.550781 201.082031 L 717.539062 201.097656 L 717.53125 201.113281 L 717.519531 201.132812 L 717.511719 201.152344 L 717.5 201.167969 L 717.488281 201.1875 L 717.480469 201.207031 L 717.457031 201.246094 L 717.445312 201.269531 L 717.433594 201.289062 L 717.421875 201.3125 L 717.410156 201.332031 L 717.398438 201.355469 L 717.382812 201.375 L 717.371094 201.398438 L 717.359375 201.417969 L 717.335938 201.464844 L 717.320312 201.484375 L 717.308594 201.507812 L 717.296875 201.527344 L 717.289062 201.546875 L 717.277344 201.5625 L 717.265625 201.582031 L 717.253906 201.597656 L 717.246094 201.617188 L 717.234375 201.632812 L 717.226562 201.648438 L 717.214844 201.660156 L 715.101562 204.777344 L 715.09375 204.789062 L 715.089844 204.796875 L 715.074219 204.820312 L 715.0625 204.832031 L 715.054688 204.84375 L 715.046875 204.859375 L 715.035156 204.871094 L 715.011719 204.902344 L 715.003906 204.917969 L 714.957031 204.980469 L 714.949219 204.996094 L 714.820312 205.167969 L 714.808594 205.179688 L 714.761719 205.242188 L 714.75 205.253906 L 714.742188 205.265625 L 714.730469 205.28125 L 714.722656 205.289062 L 714.707031 205.3125 L 714.691406 205.328125 L 717.609375 205.328125 Z M 717.609375 200.964844 "/>
</g>
</svg>
