<?xml version="1.0" encoding="UTF-8"?>
<svg xmlns="http://www.w3.org/2000/svg" xmlns:xlink="http://www.w3.org/1999/xlink" width="756pt" height="360pt" viewBox="0 0 756 360" version="1.1">
<defs>
<clipPath id="clip1">
  <path d="M 8.21875 311 L 750.519531 311 L 750.519531 314 L 8.21875 314 Z M 8.21875 311 "/>
</clipPath>
<clipPath id="clip2">
  <path d="M 378 5.480469 L 381 5.480469 L 381 327.101562 L 378 327.101562 Z M 378 5.480469 "/>
</clipPath>
</defs>
<g id="surface64">
<rect x="0" y="0" width="756" height="360" style="fill:rgb(100%,100%,100%);fill-opacity:1;stroke:none;"/>
<path style=" stroke:none;fill-rule:nonzero;fill:rgb(90.196078%,25.490196%,45.098039%);fill-opacity:0.901961;" d="M 41.960938 312.480469 L 155.328125 312.480469 L 155.78125 312.476562 L 168.828125 312.476562 L 169.277344 312.472656 L 174.226562 312.472656 L 174.675781 312.46875 L 177.824219 312.46875 L 178.273438 312.464844 L 180.523438 312.464844 L 180.972656 312.460938 L 182.324219 312.460938 L 182.773438 312.457031 L 184.121094 312.457031 L 184.570312 312.453125 L 185.921875 312.453125 L 186.371094 312.449219 L 187.269531 312.449219 L 187.722656 312.445312 L 188.171875 312.445312 L 188.621094 312.441406 L 189.519531 312.441406 L 189.96875 312.4375 L 190.421875 312.4375 L 190.871094 312.433594 L 191.320312 312.433594 L 191.769531 312.429688 L 192.21875 312.429688 L 192.667969 312.425781 L 193.121094 312.425781 L 194.019531 312.417969 L 194.46875 312.417969 L 195.367188 312.410156 L 195.820312 312.410156 L 197.617188 312.394531 L 198.070312 312.394531 L 200.316406 312.375 L 200.769531 312.371094 L 201.21875 312.363281 L 202.566406 312.351562 L 203.015625 312.34375 L 203.46875 312.339844 L 203.917969 312.335938 L 204.367188 312.328125 L 204.816406 312.324219 L 205.714844 312.308594 L 206.167969 312.304688 L 208.414062 312.265625 L 208.867188 312.257812 L 209.316406 312.25 L 209.765625 312.238281 L 210.664062 312.222656 L 211.113281 312.210938 L 211.566406 312.203125 L 213.8125 312.144531 L 214.265625 312.132812 L 214.714844 312.117188 L 215.164062 312.105469 L 215.613281 312.089844 L 216.0625 312.078125 L 216.511719 312.0625 L 216.964844 312.046875 L 217.863281 312.015625 L 218.3125 311.996094 L 218.761719 311.980469 L 219.210938 311.960938 L 219.664062 311.945312 L 220.113281 311.925781 L 220.5625 311.902344 L 221.460938 311.863281 L 221.910156 311.839844 L 222.363281 311.816406 L 223.710938 311.746094 L 224.609375 311.691406 L 225.0625 311.664062 L 225.511719 311.636719 L 225.960938 311.605469 L 226.410156 311.578125 L 226.859375 311.546875 L 227.3125 311.511719 L 227.761719 311.480469 L 229.109375 311.375 L 229.558594 311.335938 L 230.011719 311.296875 L 230.910156 311.21875 L 231.808594 311.132812 L 232.257812 311.085938 L 232.710938 311.039062 L 233.609375 310.945312 L 234.058594 310.894531 L 234.507812 310.839844 L 234.957031 310.789062 L 235.410156 310.734375 L 236.757812 310.558594 L 237.65625 310.433594 L 238.109375 310.367188 L 238.558594 310.300781 L 239.457031 310.160156 L 240.355469 310.011719 L 240.808594 309.933594 L 241.257812 309.851562 L 241.707031 309.773438 L 242.605469 309.601562 L 243.054688 309.511719 L 243.507812 309.421875 L 243.957031 309.328125 L 244.855469 309.132812 L 245.304688 309.03125 L 245.753906 308.925781 L 246.207031 308.820312 L 246.65625 308.710938 L 247.554688 308.484375 L 248.453125 308.242188 L 248.90625 308.117188 L 249.804688 307.859375 L 250.703125 307.585938 L 251.152344 307.441406 L 251.605469 307.296875 L 252.054688 307.148438 L 252.503906 306.996094 L 252.953125 306.839844 L 253.402344 306.679688 L 253.851562 306.515625 L 254.304688 306.34375 L 254.753906 306.171875 L 255.203125 305.996094 L 255.652344 305.816406 L 256.550781 305.441406 L 257.003906 305.246094 L 257.453125 305.046875 L 257.902344 304.84375 L 258.800781 304.421875 L 259.253906 304.203125 L 260.152344 303.75 L 260.601562 303.515625 L 261.050781 303.277344 L 261.5 303.03125 L 261.953125 302.78125 L 262.402344 302.523438 L 262.851562 302.261719 L 263.300781 301.996094 L 263.75 301.722656 L 264.199219 301.441406 L 264.652344 301.15625 L 265.101562 300.863281 L 265.550781 300.566406 L 266 300.261719 L 266.449219 299.953125 L 266.898438 299.632812 L 267.351562 299.308594 L 267.800781 298.976562 L 268.25 298.640625 L 268.699219 298.292969 L 269.148438 297.941406 L 269.597656 297.582031 L 270.050781 297.214844 L 270.5 296.839844 L 270.949219 296.457031 L 271.398438 296.066406 L 271.847656 295.667969 L 272.296875 295.261719 L 272.75 294.851562 L 273.199219 294.425781 L 273.648438 293.996094 L 274.097656 293.558594 L 274.546875 293.113281 L 274.996094 292.65625 L 275.449219 292.191406 L 275.898438 291.71875 L 276.347656 291.238281 L 276.796875 290.746094 L 277.246094 290.246094 L 277.695312 289.738281 L 278.148438 289.21875 L 278.597656 288.691406 L 279.046875 288.152344 L 279.496094 287.605469 L 279.945312 287.046875 L 280.394531 286.480469 L 280.847656 285.902344 L 281.296875 285.316406 L 281.746094 284.71875 L 282.195312 284.113281 L 282.644531 283.492188 L 283.09375 282.867188 L 283.546875 282.226562 L 283.996094 281.578125 L 284.445312 280.917969 L 284.894531 280.246094 L 285.34375 279.5625 L 285.792969 278.867188 L 286.246094 278.164062 L 286.695312 277.449219 L 287.144531 276.71875 L 287.59375 275.980469 L 288.042969 275.230469 L 288.496094 274.46875 L 288.945312 273.695312 L 289.394531 272.910156 L 289.84375 272.113281 L 290.292969 271.304688 L 290.742188 270.480469 L 291.195312 269.648438 L 291.644531 268.804688 L 292.09375 267.945312 L 292.542969 267.074219 L 292.992188 266.191406 L 293.441406 265.296875 L 293.894531 264.390625 L 294.34375 263.46875 L 294.792969 262.539062 L 295.242188 261.59375 L 295.691406 260.632812 L 296.140625 259.664062 L 296.59375 258.679688 L 297.042969 257.683594 L 297.492188 256.675781 L 297.941406 255.652344 L 298.390625 254.617188 L 298.839844 253.570312 L 299.292969 252.507812 L 299.742188 251.433594 L 300.191406 250.347656 L 300.640625 249.246094 L 301.089844 248.136719 L 301.539062 247.007812 L 301.992188 245.871094 L 302.441406 244.71875 L 302.890625 243.550781 L 303.339844 242.375 L 303.789062 241.183594 L 304.238281 239.976562 L 304.691406 238.761719 L 305.140625 237.53125 L 305.589844 236.289062 L 306.039062 235.03125 L 306.488281 233.761719 L 306.9375 232.480469 L 307.390625 231.1875 L 307.839844 229.878906 L 308.289062 228.558594 L 308.738281 227.226562 L 309.1875 225.882812 L 309.636719 224.527344 L 310.089844 223.15625 L 310.539062 221.773438 L 310.988281 220.382812 L 311.4375 218.976562 L 311.886719 217.558594 L 312.335938 216.128906 L 312.789062 214.6875 L 313.238281 213.234375 L 313.6875 211.769531 L 314.136719 210.292969 L 314.585938 208.804688 L 315.035156 207.304688 L 315.488281 205.796875 L 315.9375 204.277344 L 316.386719 202.746094 L 316.835938 201.203125 L 317.285156 199.652344 L 317.738281 198.089844 L 318.1875 196.519531 L 318.636719 194.9375 L 319.085938 193.34375 L 319.535156 191.742188 L 319.984375 190.132812 L 320.4375 188.511719 L 320.886719 186.886719 L 321.335938 185.25 L 321.785156 183.601562 L 322.234375 181.949219 L 322.683594 180.289062 L 323.136719 178.617188 L 323.585938 176.941406 L 324.035156 175.257812 L 324.484375 173.566406 L 324.933594 171.867188 L 325.382812 170.164062 L 325.835938 168.453125 L 326.285156 166.734375 L 326.734375 165.011719 L 327.183594 163.285156 L 327.632812 161.550781 L 328.082031 159.8125 L 328.535156 158.070312 L 328.984375 156.324219 L 329.433594 154.574219 L 330.78125 149.300781 L 331.234375 147.535156 L 331.683594 145.769531 L 333.03125 140.460938 L 333.480469 138.6875 L 333.933594 136.914062 L 335.28125 131.59375 L 335.730469 129.824219 L 336.179688 128.050781 L 336.632812 126.28125 L 337.980469 120.984375 L 338.878906 117.46875 L 339.332031 115.714844 L 339.78125 113.964844 L 340.679688 110.480469 L 341.128906 108.746094 L 341.578125 107.019531 L 342.03125 105.296875 L 342.480469 103.578125 L 342.929688 101.871094 L 343.378906 100.167969 L 343.828125 98.472656 L 344.277344 96.785156 L 344.730469 95.109375 L 345.179688 93.4375 L 345.628906 91.777344 L 346.078125 90.128906 L 346.527344 88.488281 L 346.980469 86.859375 L 347.429688 85.238281 L 347.878906 83.632812 L 348.328125 82.035156 L 348.777344 80.453125 L 349.226562 78.878906 L 349.679688 77.320312 L 350.128906 75.777344 L 350.578125 74.246094 L 351.027344 72.726562 L 351.476562 71.222656 L 351.925781 69.734375 L 352.378906 68.261719 L 352.828125 66.804688 L 353.277344 65.363281 L 353.726562 63.9375 L 354.175781 62.53125 L 354.625 61.140625 L 355.078125 59.765625 L 355.527344 58.410156 L 355.976562 57.074219 L 356.425781 55.753906 L 356.875 54.453125 L 357.324219 53.171875 L 357.777344 51.914062 L 358.226562 50.671875 L 358.675781 49.453125 L 359.125 48.253906 L 359.574219 47.074219 L 360.023438 45.917969 L 360.476562 44.78125 L 360.925781 43.667969 L 361.375 42.578125 L 361.824219 41.507812 L 362.273438 40.464844 L 362.722656 39.441406 L 363.175781 38.445312 L 363.625 37.46875 L 364.074219 36.519531 L 364.523438 35.59375 L 364.972656 34.691406 L 365.421875 33.816406 L 365.875 32.964844 L 366.324219 32.136719 L 366.773438 31.339844 L 367.222656 30.5625 L 367.671875 29.816406 L 368.121094 29.09375 L 368.574219 28.398438 L 369.023438 27.730469 L 369.472656 27.089844 L 369.921875 26.476562 L 370.371094 25.886719 L 370.820312 25.328125 L 371.273438 24.796875 L 371.722656 24.292969 L 372.171875 23.816406 L 372.621094 23.371094 L 373.070312 22.949219 L 373.519531 22.558594 L 373.972656 22.195312 L 374.421875 21.863281 L 374.871094 21.558594 L 375.320312 21.28125 L 375.769531 21.03125 L 376.222656 20.8125 L 376.671875 20.625 L 377.121094 20.464844 L 377.570312 20.332031 L 378.019531 20.230469 L 378.46875 20.15625 L 378.921875 20.113281 L 379.371094 20.097656 L 379.820312 20.113281 L 380.269531 20.15625 L 380.71875 20.230469 L 381.167969 20.332031 L 381.621094 20.464844 L 382.070312 20.625 L 382.519531 20.8125 L 382.96875 21.03125 L 383.417969 21.28125 L 383.867188 21.558594 L 384.320312 21.863281 L 384.769531 22.195312 L 385.21875 22.558594 L 385.667969 22.949219 L 386.117188 23.371094 L 386.566406 23.816406 L 387.019531 24.292969 L 387.46875 24.796875 L 387.917969 25.328125 L 388.367188 25.886719 L 388.816406 26.476562 L 389.265625 27.089844 L 389.71875 27.730469 L 390.167969 28.398438 L 390.617188 29.09375 L 391.066406 29.816406 L 391.515625 30.5625 L 391.964844 31.339844 L 392.417969 32.136719 L 392.867188 32.964844 L 393.316406 33.816406 L 393.765625 34.691406 L 394.214844 35.59375 L 394.664062 36.519531 L 395.117188 37.46875 L 395.566406 38.445312 L 396.015625 39.441406 L 396.464844 40.464844 L 396.914062 41.507812 L 397.363281 42.578125 L 397.816406 43.667969 L 398.265625 44.78125 L 398.714844 45.917969 L 399.164062 47.074219 L 399.613281 48.253906 L 400.0625 49.453125 L 400.515625 50.671875 L 400.964844 51.914062 L 401.414062 53.171875 L 401.863281 54.453125 L 402.3125 55.753906 L 402.761719 57.074219 L 403.214844 58.410156 L 403.664062 59.765625 L 404.113281 61.140625 L 404.5625 62.53125 L 405.011719 63.9375 L 405.460938 65.363281 L 405.914062 66.804688 L 406.363281 68.261719 L 406.8125 69.734375 L 407.261719 71.222656 L 407.710938 72.726562 L 408.164062 74.246094 L 408.613281 75.777344 L 409.0625 77.320312 L 409.511719 78.878906 L 409.960938 80.453125 L 410.410156 82.035156 L 410.863281 83.632812 L 411.3125 85.238281 L 411.761719 86.859375 L 412.210938 88.488281 L 412.660156 90.128906 L 413.109375 91.777344 L 413.5625 93.4375 L 414.011719 95.109375 L 414.460938 96.785156 L 414.910156 98.472656 L 415.359375 100.167969 L 415.808594 101.871094 L 416.261719 103.578125 L 416.710938 105.296875 L 417.160156 107.019531 L 417.609375 108.746094 L 418.058594 110.480469 L 418.507812 112.222656 L 418.960938 113.964844 L 419.410156 115.714844 L 419.859375 117.46875 L 420.757812 120.984375 L 421.207031 122.75 L 421.660156 124.515625 L 422.109375 126.28125 L 422.558594 128.050781 L 423.007812 129.824219 L 423.457031 131.59375 L 423.90625 133.367188 L 424.359375 135.140625 L 425.707031 140.460938 L 426.605469 144 L 427.058594 145.769531 L 427.957031 149.300781 L 429.304688 154.574219 L 429.757812 156.324219 L 430.207031 158.070312 L 430.65625 159.8125 L 431.105469 161.550781 L 431.554688 163.285156 L 432.003906 165.011719 L 432.457031 166.734375 L 432.90625 168.453125 L 433.355469 170.164062 L 433.804688 171.867188 L 434.253906 173.566406 L 434.703125 175.257812 L 435.15625 176.941406 L 435.605469 178.617188 L 436.054688 180.289062 L 436.503906 181.949219 L 436.953125 183.601562 L 437.40625 185.25 L 437.855469 186.886719 L 438.304688 188.511719 L 438.753906 190.132812 L 439.203125 191.742188 L 439.652344 193.34375 L 440.105469 194.9375 L 440.554688 196.519531 L 441.003906 198.089844 L 441.453125 199.652344 L 441.902344 201.203125 L 442.351562 202.746094 L 442.804688 204.277344 L 443.253906 205.796875 L 443.703125 207.304688 L 444.152344 208.804688 L 444.601562 210.292969 L 445.050781 211.769531 L 445.503906 213.234375 L 445.953125 214.6875 L 446.402344 216.128906 L 446.851562 217.558594 L 447.300781 218.976562 L 447.75 220.382812 L 448.203125 221.773438 L 448.652344 223.15625 L 449.101562 224.527344 L 449.550781 225.882812 L 450 227.226562 L 450.449219 228.558594 L 450.902344 229.878906 L 451.351562 231.1875 L 451.800781 232.480469 L 452.25 233.761719 L 452.699219 235.03125 L 453.148438 236.289062 L 453.601562 237.53125 L 454.050781 238.761719 L 454.5 239.976562 L 454.949219 241.183594 L 455.398438 242.375 L 455.847656 243.550781 L 456.300781 244.71875 L 456.75 245.871094 L 457.199219 247.007812 L 457.648438 248.136719 L 458.097656 249.246094 L 458.546875 250.347656 L 459 251.433594 L 459.449219 252.507812 L 459.898438 253.570312 L 460.347656 254.617188 L 460.796875 255.652344 L 461.246094 256.675781 L 461.699219 257.683594 L 462.148438 258.679688 L 462.597656 259.664062 L 463.046875 260.632812 L 463.496094 261.59375 L 463.945312 262.539062 L 464.398438 263.46875 L 464.847656 264.390625 L 465.296875 265.296875 L 465.746094 266.191406 L 466.195312 267.074219 L 466.648438 267.945312 L 467.097656 268.804688 L 467.546875 269.648438 L 467.996094 270.480469 L 468.445312 271.304688 L 468.894531 272.113281 L 469.347656 272.910156 L 469.796875 273.695312 L 470.246094 274.46875 L 470.695312 275.230469 L 471.144531 275.980469 L 471.59375 276.71875 L 472.046875 277.449219 L 472.496094 278.164062 L 472.945312 278.867188 L 473.394531 279.5625 L 473.84375 280.246094 L 474.292969 280.917969 L 474.746094 281.578125 L 475.195312 282.226562 L 475.644531 282.867188 L 476.09375 283.492188 L 476.542969 284.113281 L 476.992188 284.71875 L 477.445312 285.316406 L 477.894531 285.902344 L 478.34375 286.480469 L 478.792969 287.046875 L 479.242188 287.605469 L 479.691406 288.152344 L 480.144531 288.691406 L 480.59375 289.21875 L 481.042969 289.738281 L 481.492188 290.246094 L 481.941406 290.746094 L 482.390625 291.238281 L 482.84375 291.71875 L 483.292969 292.191406 L 483.742188 292.65625 L 484.191406 293.113281 L 484.640625 293.558594 L 485.089844 293.996094 L 485.542969 294.425781 L 485.992188 294.851562 L 486.441406 295.261719 L 486.890625 295.667969 L 487.339844 296.066406 L 487.789062 296.457031 L 488.242188 296.839844 L 488.691406 297.214844 L 489.140625 297.582031 L 489.589844 297.941406 L 490.039062 298.292969 L 490.488281 298.640625 L 490.941406 298.976562 L 491.390625 299.308594 L 491.839844 299.632812 L 492.289062 299.953125 L 492.738281 300.261719 L 493.1875 300.566406 L 493.640625 300.863281 L 494.089844 301.15625 L 494.539062 301.441406 L 494.988281 301.722656 L 495.4375 301.996094 L 495.890625 302.261719 L 496.339844 302.523438 L 496.789062 302.78125 L 497.238281 303.03125 L 497.6875 303.277344 L 498.136719 303.515625 L 498.589844 303.75 L 499.488281 304.203125 L 499.9375 304.421875 L 500.835938 304.84375 L 501.289062 305.046875 L 501.738281 305.246094 L 502.1875 305.441406 L 503.085938 305.816406 L 503.535156 305.996094 L 503.988281 306.171875 L 504.886719 306.515625 L 505.335938 306.679688 L 505.785156 306.839844 L 506.234375 306.996094 L 506.6875 307.148438 L 507.136719 307.296875 L 508.035156 307.585938 L 508.933594 307.859375 L 509.386719 307.988281 L 509.835938 308.117188 L 510.285156 308.242188 L 511.183594 308.484375 L 511.632812 308.597656 L 512.085938 308.710938 L 512.535156 308.820312 L 513.433594 309.03125 L 513.882812 309.132812 L 514.332031 309.230469 L 514.785156 309.328125 L 515.234375 309.421875 L 516.132812 309.601562 L 517.03125 309.773438 L 517.484375 309.851562 L 517.933594 309.933594 L 518.382812 310.011719 L 519.28125 310.160156 L 519.730469 310.230469 L 520.183594 310.300781 L 521.082031 310.433594 L 521.980469 310.558594 L 522.429688 310.617188 L 522.882812 310.675781 L 523.332031 310.734375 L 523.78125 310.789062 L 524.230469 310.839844 L 524.679688 310.894531 L 525.128906 310.945312 L 525.582031 310.992188 L 526.929688 311.132812 L 527.378906 311.175781 L 527.832031 311.21875 L 529.628906 311.375 L 530.078125 311.410156 L 530.53125 311.445312 L 530.980469 311.480469 L 531.429688 311.511719 L 531.878906 311.546875 L 532.328125 311.578125 L 532.777344 311.605469 L 533.230469 311.636719 L 535.027344 311.746094 L 535.476562 311.769531 L 535.929688 311.792969 L 537.277344 311.863281 L 538.175781 311.902344 L 538.628906 311.925781 L 539.078125 311.945312 L 539.527344 311.960938 L 539.976562 311.980469 L 540.425781 311.996094 L 540.875 312.015625 L 541.328125 312.03125 L 542.675781 312.078125 L 543.125 312.089844 L 543.574219 312.105469 L 544.027344 312.117188 L 544.476562 312.132812 L 546.273438 312.179688 L 546.726562 312.191406 L 547.175781 312.203125 L 547.625 312.210938 L 548.074219 312.222656 L 548.972656 312.238281 L 549.425781 312.25 L 551.671875 312.289062 L 552.125 312.296875 L 552.574219 312.304688 L 553.023438 312.308594 L 553.921875 312.324219 L 554.371094 312.328125 L 554.824219 312.335938 L 555.722656 312.34375 L 556.171875 312.351562 L 556.621094 312.355469 L 557.074219 312.359375 L 557.523438 312.363281 L 557.972656 312.371094 L 559.320312 312.382812 L 559.773438 312.386719 L 560.671875 312.394531 L 561.121094 312.394531 L 562.019531 312.402344 L 562.472656 312.40625 L 562.921875 312.410156 L 563.371094 312.410156 L 564.269531 312.417969 L 564.71875 312.417969 L 565.171875 312.421875 L 565.621094 312.425781 L 566.070312 312.425781 L 566.519531 312.429688 L 566.96875 312.429688 L 567.417969 312.433594 L 567.871094 312.433594 L 568.320312 312.4375 L 568.769531 312.4375 L 569.21875 312.441406 L 570.117188 312.441406 L 570.570312 312.445312 L 571.019531 312.445312 L 571.46875 312.449219 L 572.367188 312.449219 L 572.816406 312.453125 L 574.167969 312.453125 L 574.617188 312.457031 L 575.96875 312.457031 L 576.417969 312.460938 L 577.765625 312.460938 L 578.214844 312.464844 L 580.464844 312.464844 L 580.914062 312.46875 L 584.066406 312.46875 L 584.515625 312.472656 L 589.464844 312.472656 L 589.914062 312.476562 L 602.960938 312.476562 L 603.410156 312.480469 L 716.78125 312.480469 Z M 41.960938 312.480469 "/>
<path style=" stroke:none;fill-rule:nonzero;fill:rgb(18.431373%,30.980392%,30.980392%);fill-opacity:0.8;" d="M 41.960938 312.351562 L 42.859375 312.34375 L 43.308594 312.34375 L 43.757812 312.339844 L 44.210938 312.335938 L 44.660156 312.335938 L 45.558594 312.328125 L 46.007812 312.328125 L 46.457031 312.324219 L 46.910156 312.320312 L 47.359375 312.316406 L 47.808594 312.316406 L 48.707031 312.308594 L 49.160156 312.304688 L 49.609375 312.300781 L 50.058594 312.300781 L 51.40625 312.289062 L 51.859375 312.285156 L 54.105469 312.265625 L 54.558594 312.261719 L 56.804688 312.242188 L 57.257812 312.238281 L 59.054688 312.222656 L 59.503906 312.214844 L 59.957031 312.210938 L 60.855469 312.203125 L 61.304688 312.195312 L 62.203125 312.1875 L 62.65625 312.179688 L 63.554688 312.171875 L 64.003906 312.164062 L 64.902344 312.15625 L 65.355469 312.148438 L 65.804688 312.144531 L 66.703125 312.128906 L 67.152344 312.125 L 67.601562 312.117188 L 68.054688 312.113281 L 68.953125 312.097656 L 69.402344 312.09375 L 70.300781 312.078125 L 70.753906 312.070312 L 71.203125 312.066406 L 73 312.035156 L 73.453125 312.027344 L 75.699219 311.988281 L 76.152344 311.980469 L 76.601562 311.972656 L 77.050781 311.960938 L 77.949219 311.945312 L 78.402344 311.9375 L 78.851562 311.925781 L 79.75 311.910156 L 80.199219 311.898438 L 80.648438 311.890625 L 81.101562 311.878906 L 81.550781 311.867188 L 82 311.859375 L 82.449219 311.847656 L 82.898438 311.839844 L 83.347656 311.828125 L 83.800781 311.816406 L 85.148438 311.78125 L 85.597656 311.773438 L 86.046875 311.761719 L 86.5 311.75 L 86.949219 311.734375 L 88.746094 311.6875 L 89.199219 311.671875 L 90.097656 311.648438 L 90.546875 311.632812 L 90.996094 311.621094 L 91.445312 311.605469 L 91.898438 311.59375 L 93.246094 311.546875 L 93.695312 311.535156 L 94.144531 311.519531 L 94.597656 311.503906 L 96.394531 311.441406 L 96.84375 311.421875 L 97.296875 311.40625 L 97.746094 311.390625 L 98.195312 311.371094 L 98.644531 311.355469 L 99.09375 311.335938 L 99.542969 311.320312 L 99.996094 311.300781 L 100.445312 311.28125 L 100.894531 311.265625 L 102.242188 311.207031 L 102.695312 311.1875 L 103.144531 311.167969 L 103.59375 311.144531 L 104.492188 311.105469 L 104.941406 311.082031 L 105.394531 311.0625 L 105.84375 311.039062 L 106.292969 311.019531 L 107.640625 310.949219 L 108.09375 310.925781 L 109.890625 310.832031 L 110.34375 310.804688 L 110.792969 310.78125 L 111.242188 310.753906 L 111.691406 310.730469 L 112.589844 310.675781 L 113.042969 310.648438 L 115.289062 310.511719 L 115.742188 310.480469 L 116.191406 310.453125 L 117.988281 310.328125 L 118.441406 310.296875 L 119.789062 310.203125 L 120.238281 310.167969 L 120.6875 310.136719 L 121.140625 310.101562 L 123.386719 309.925781 L 123.839844 309.886719 L 124.289062 309.851562 L 124.738281 309.8125 L 125.1875 309.777344 L 126.085938 309.699219 L 126.539062 309.660156 L 126.988281 309.621094 L 127.4375 309.578125 L 127.886719 309.539062 L 128.335938 309.496094 L 128.785156 309.457031 L 129.238281 309.414062 L 130.136719 309.328125 L 130.585938 309.28125 L 131.035156 309.238281 L 131.484375 309.191406 L 131.9375 309.148438 L 133.734375 308.960938 L 134.183594 308.910156 L 134.636719 308.863281 L 136.882812 308.609375 L 137.335938 308.558594 L 139.132812 308.339844 L 139.585938 308.285156 L 140.035156 308.230469 L 141.832031 307.996094 L 142.285156 307.9375 L 142.734375 307.878906 L 144.53125 307.628906 L 144.984375 307.566406 L 145.433594 307.503906 L 147.230469 307.238281 L 147.683594 307.167969 L 148.132812 307.101562 L 149.929688 306.820312 L 150.382812 306.746094 L 152.179688 306.449219 L 152.628906 306.371094 L 153.082031 306.292969 L 153.980469 306.136719 L 154.429688 306.054688 L 154.878906 305.976562 L 155.328125 305.894531 L 155.78125 305.8125 L 156.230469 305.730469 L 158.027344 305.386719 L 158.480469 305.300781 L 159.828125 305.03125 L 160.277344 304.9375 L 160.726562 304.847656 L 161.179688 304.753906 L 161.628906 304.660156 L 162.078125 304.5625 L 162.527344 304.46875 L 163.425781 304.273438 L 163.878906 304.175781 L 165.675781 303.769531 L 166.125 303.664062 L 166.578125 303.558594 L 167.476562 303.347656 L 168.375 303.128906 L 168.828125 303.019531 L 169.277344 302.90625 L 169.726562 302.796875 L 170.175781 302.683594 L 170.625 302.566406 L 171.074219 302.453125 L 171.527344 302.335938 L 171.976562 302.21875 L 172.425781 302.097656 L 172.875 301.980469 L 173.324219 301.859375 L 173.773438 301.734375 L 174.226562 301.613281 L 175.125 301.363281 L 175.574219 301.234375 L 176.023438 301.109375 L 176.472656 300.980469 L 176.925781 300.847656 L 177.375 300.71875 L 177.824219 300.585938 L 178.273438 300.449219 L 178.722656 300.316406 L 179.171875 300.179688 L 179.625 300.042969 L 180.074219 299.902344 L 180.523438 299.765625 L 180.972656 299.621094 L 181.421875 299.480469 L 181.871094 299.335938 L 182.324219 299.191406 L 182.773438 299.046875 L 183.671875 298.75 L 184.121094 298.597656 L 184.570312 298.449219 L 185.023438 298.296875 L 185.472656 298.140625 L 185.921875 297.988281 L 186.371094 297.832031 L 187.269531 297.511719 L 187.722656 297.351562 L 188.171875 297.191406 L 189.519531 296.699219 L 189.96875 296.53125 L 190.421875 296.363281 L 192.21875 295.675781 L 192.667969 295.5 L 193.121094 295.320312 L 193.570312 295.144531 L 194.019531 294.964844 L 194.46875 294.78125 L 194.917969 294.601562 L 195.367188 294.417969 L 195.820312 294.230469 L 196.71875 293.855469 L 197.617188 293.472656 L 198.070312 293.28125 L 199.417969 292.695312 L 200.316406 292.296875 L 200.769531 292.09375 L 201.667969 291.6875 L 202.566406 291.273438 L 203.015625 291.0625 L 203.46875 290.855469 L 203.917969 290.640625 L 204.367188 290.429688 L 204.816406 290.210938 L 205.265625 289.996094 L 205.714844 289.777344 L 206.167969 289.558594 L 207.515625 288.890625 L 207.964844 288.664062 L 208.414062 288.433594 L 208.867188 288.207031 L 209.316406 287.976562 L 210.664062 287.273438 L 211.113281 287.035156 L 211.566406 286.796875 L 212.015625 286.558594 L 212.464844 286.316406 L 212.914062 286.070312 L 213.363281 285.828125 L 213.8125 285.582031 L 214.265625 285.332031 L 215.164062 284.832031 L 216.0625 284.324219 L 216.511719 284.066406 L 216.964844 283.808594 L 217.414062 283.546875 L 217.863281 283.289062 L 218.3125 283.023438 L 218.761719 282.761719 L 219.210938 282.496094 L 219.664062 282.226562 L 220.5625 281.6875 L 221.460938 281.140625 L 221.910156 280.863281 L 222.363281 280.585938 L 222.8125 280.308594 L 223.710938 279.746094 L 224.609375 279.175781 L 225.0625 278.886719 L 225.960938 278.308594 L 226.859375 277.722656 L 227.3125 277.425781 L 228.210938 276.832031 L 229.109375 276.230469 L 229.558594 275.925781 L 230.011719 275.621094 L 231.359375 274.695312 L 232.257812 274.070312 L 232.710938 273.753906 L 233.609375 273.121094 L 234.507812 272.480469 L 234.957031 272.15625 L 235.410156 271.832031 L 235.859375 271.507812 L 236.757812 270.851562 L 237.65625 270.1875 L 238.109375 269.855469 L 238.558594 269.519531 L 239.007812 269.179688 L 239.457031 268.84375 L 239.90625 268.503906 L 240.355469 268.160156 L 240.808594 267.816406 L 241.707031 267.128906 L 242.15625 266.78125 L 243.054688 266.078125 L 243.507812 265.726562 L 243.957031 265.375 L 244.40625 265.019531 L 244.855469 264.660156 L 245.304688 264.304688 L 245.753906 263.945312 L 246.207031 263.582031 L 247.554688 262.492188 L 248.003906 262.125 L 248.453125 261.753906 L 248.90625 261.386719 L 249.355469 261.015625 L 249.804688 260.640625 L 250.253906 260.269531 L 250.703125 259.894531 L 251.152344 259.515625 L 251.605469 259.136719 L 252.503906 258.378906 L 253.402344 257.613281 L 253.851562 257.226562 L 254.304688 256.84375 L 254.753906 256.453125 L 255.203125 256.066406 L 256.550781 254.894531 L 257.003906 254.5 L 257.453125 254.105469 L 257.902344 253.707031 L 258.351562 253.3125 L 258.800781 252.914062 L 259.253906 252.511719 L 259.703125 252.113281 L 260.152344 251.710938 L 260.601562 251.304688 L 261.050781 250.902344 L 261.5 250.496094 L 261.953125 250.089844 L 262.402344 249.683594 L 264.199219 248.042969 L 264.652344 247.628906 L 265.550781 246.800781 L 266.898438 245.546875 L 267.351562 245.128906 L 267.800781 244.710938 L 269.597656 243.023438 L 270.050781 242.597656 L 271.847656 240.894531 L 272.296875 240.464844 L 272.75 240.035156 L 274.097656 238.746094 L 274.546875 238.3125 L 274.996094 237.882812 L 275.449219 237.449219 L 276.347656 236.582031 L 276.796875 236.144531 L 277.246094 235.710938 L 277.695312 235.273438 L 278.148438 234.839844 L 279.496094 233.527344 L 279.945312 233.085938 L 280.394531 232.648438 L 280.847656 232.210938 L 281.746094 231.328125 L 282.195312 230.890625 L 283.09375 230.007812 L 283.546875 229.566406 L 284.894531 228.242188 L 285.34375 227.796875 L 285.792969 227.355469 L 286.246094 226.914062 L 286.695312 226.46875 L 287.144531 226.027344 L 287.59375 225.582031 L 288.042969 225.140625 L 288.496094 224.699219 L 288.945312 224.253906 L 289.394531 223.8125 L 289.84375 223.367188 L 290.292969 222.925781 L 290.742188 222.480469 L 291.195312 222.039062 L 291.644531 221.59375 L 292.09375 221.152344 L 292.542969 220.707031 L 293.441406 219.824219 L 293.894531 219.382812 L 294.34375 218.9375 L 296.140625 217.171875 L 296.59375 216.734375 L 297.492188 215.851562 L 297.941406 215.414062 L 298.390625 214.972656 L 298.839844 214.535156 L 299.292969 214.097656 L 300.640625 212.785156 L 301.089844 212.351562 L 301.539062 211.914062 L 301.992188 211.480469 L 303.339844 210.179688 L 303.789062 209.75 L 304.238281 209.316406 L 304.691406 208.886719 L 305.140625 208.457031 L 305.589844 208.03125 L 306.039062 207.601562 L 306.9375 206.75 L 307.390625 206.324219 L 307.839844 205.898438 L 309.1875 204.632812 L 309.636719 204.214844 L 310.089844 203.792969 L 310.539062 203.375 L 310.988281 202.960938 L 311.4375 202.542969 L 312.335938 201.714844 L 312.789062 201.304688 L 314.136719 200.074219 L 315.035156 199.261719 L 315.488281 198.859375 L 316.386719 198.054688 L 317.285156 197.257812 L 317.738281 196.859375 L 318.636719 196.070312 L 319.535156 195.289062 L 319.984375 194.902344 L 320.4375 194.511719 L 322.234375 192.980469 L 322.683594 192.601562 L 323.136719 192.226562 L 323.585938 191.851562 L 324.933594 190.738281 L 325.382812 190.371094 L 325.835938 190.003906 L 326.285156 189.640625 L 327.632812 188.5625 L 328.082031 188.210938 L 328.535156 187.855469 L 328.984375 187.503906 L 329.882812 186.808594 L 330.78125 186.121094 L 331.234375 185.78125 L 332.132812 185.109375 L 333.03125 184.445312 L 333.480469 184.117188 L 333.933594 183.789062 L 334.382812 183.46875 L 334.832031 183.144531 L 336.179688 182.195312 L 336.632812 181.886719 L 337.082031 181.574219 L 337.980469 180.964844 L 338.429688 180.664062 L 338.878906 180.367188 L 339.332031 180.070312 L 339.78125 179.777344 L 340.679688 179.199219 L 341.128906 178.914062 L 341.578125 178.632812 L 342.03125 178.351562 L 342.480469 178.074219 L 343.378906 177.527344 L 344.277344 176.996094 L 344.730469 176.730469 L 345.628906 176.214844 L 346.078125 175.960938 L 346.527344 175.710938 L 346.980469 175.460938 L 347.429688 175.214844 L 347.878906 174.972656 L 348.328125 174.734375 L 349.226562 174.265625 L 349.679688 174.035156 L 350.128906 173.808594 L 351.027344 173.363281 L 351.925781 172.933594 L 352.378906 172.722656 L 353.277344 172.308594 L 353.726562 172.105469 L 354.625 171.714844 L 355.078125 171.523438 L 355.527344 171.332031 L 356.425781 170.964844 L 356.875 170.785156 L 357.324219 170.613281 L 357.777344 170.4375 L 358.226562 170.269531 L 359.125 169.941406 L 360.023438 169.628906 L 360.476562 169.476562 L 360.925781 169.328125 L 361.375 169.183594 L 362.273438 168.902344 L 362.722656 168.769531 L 363.175781 168.636719 L 364.074219 168.386719 L 364.523438 168.265625 L 364.972656 168.148438 L 365.421875 168.035156 L 365.875 167.925781 L 366.324219 167.816406 L 366.773438 167.714844 L 367.671875 167.519531 L 368.121094 167.425781 L 368.574219 167.339844 L 369.023438 167.253906 L 369.472656 167.171875 L 369.921875 167.09375 L 370.371094 167.019531 L 370.820312 166.949219 L 371.273438 166.878906 L 371.722656 166.816406 L 372.621094 166.699219 L 373.519531 166.597656 L 373.972656 166.550781 L 374.871094 166.472656 L 375.320312 166.4375 L 375.769531 166.40625 L 376.222656 166.378906 L 376.671875 166.355469 L 377.121094 166.335938 L 378.019531 166.304688 L 378.46875 166.296875 L 378.921875 166.289062 L 379.820312 166.289062 L 380.71875 166.304688 L 381.167969 166.320312 L 381.621094 166.335938 L 382.070312 166.355469 L 382.519531 166.378906 L 382.96875 166.40625 L 383.417969 166.4375 L 383.867188 166.472656 L 384.320312 166.511719 L 384.769531 166.550781 L 385.21875 166.597656 L 386.117188 166.699219 L 386.566406 166.757812 L 387.019531 166.816406 L 387.46875 166.878906 L 388.367188 167.019531 L 388.816406 167.09375 L 389.265625 167.171875 L 389.71875 167.253906 L 390.617188 167.425781 L 391.066406 167.519531 L 391.964844 167.714844 L 392.417969 167.816406 L 393.316406 168.035156 L 393.765625 168.148438 L 394.214844 168.265625 L 394.664062 168.386719 L 395.117188 168.511719 L 395.566406 168.636719 L 396.464844 168.902344 L 397.363281 169.183594 L 397.816406 169.328125 L 398.265625 169.476562 L 398.714844 169.628906 L 399.613281 169.941406 L 400.0625 170.105469 L 400.515625 170.269531 L 400.964844 170.4375 L 401.414062 170.613281 L 401.863281 170.785156 L 402.3125 170.964844 L 402.761719 171.148438 L 403.214844 171.332031 L 404.113281 171.714844 L 405.011719 172.105469 L 405.460938 172.308594 L 405.914062 172.515625 L 406.363281 172.722656 L 406.8125 172.933594 L 407.710938 173.363281 L 408.164062 173.585938 L 408.613281 173.808594 L 409.0625 174.035156 L 409.511719 174.265625 L 410.410156 174.734375 L 410.863281 174.972656 L 411.3125 175.214844 L 411.761719 175.460938 L 412.660156 175.960938 L 413.109375 176.214844 L 413.5625 176.472656 L 414.011719 176.730469 L 415.359375 177.527344 L 415.808594 177.800781 L 416.261719 178.074219 L 416.710938 178.351562 L 417.609375 178.914062 L 418.058594 179.199219 L 418.507812 179.488281 L 418.960938 179.777344 L 419.410156 180.070312 L 420.308594 180.664062 L 420.757812 180.964844 L 421.207031 181.269531 L 421.660156 181.574219 L 422.109375 181.886719 L 422.558594 182.195312 L 423.90625 183.144531 L 424.359375 183.46875 L 424.808594 183.789062 L 425.707031 184.445312 L 426.605469 185.109375 L 427.058594 185.445312 L 427.507812 185.78125 L 427.957031 186.121094 L 428.855469 186.808594 L 429.304688 187.15625 L 429.757812 187.503906 L 430.207031 187.855469 L 430.65625 188.210938 L 431.105469 188.5625 L 432.003906 189.28125 L 432.457031 189.640625 L 432.90625 190.003906 L 433.804688 190.738281 L 434.703125 191.480469 L 435.15625 191.851562 L 436.054688 192.601562 L 436.503906 192.980469 L 436.953125 193.363281 L 437.40625 193.746094 L 438.304688 194.511719 L 438.753906 194.902344 L 439.203125 195.289062 L 439.652344 195.679688 L 440.105469 196.070312 L 441.003906 196.859375 L 442.351562 198.054688 L 442.804688 198.457031 L 443.703125 199.261719 L 444.601562 200.074219 L 445.050781 200.484375 L 445.503906 200.894531 L 446.402344 201.714844 L 447.300781 202.542969 L 447.75 202.960938 L 448.203125 203.375 L 448.652344 203.792969 L 449.101562 204.214844 L 449.550781 204.632812 L 450.449219 205.476562 L 450.902344 205.898438 L 452.699219 207.601562 L 453.148438 208.03125 L 453.601562 208.457031 L 454.5 209.316406 L 454.949219 209.75 L 455.398438 210.179688 L 455.847656 210.613281 L 456.300781 211.046875 L 457.199219 211.914062 L 457.648438 212.351562 L 458.097656 212.785156 L 458.546875 213.222656 L 459 213.660156 L 460.347656 214.972656 L 460.796875 215.414062 L 461.246094 215.851562 L 461.699219 216.292969 L 462.148438 216.734375 L 462.597656 217.171875 L 463.945312 218.496094 L 464.398438 218.9375 L 464.847656 219.382812 L 466.195312 220.707031 L 466.648438 221.152344 L 467.097656 221.59375 L 467.546875 222.039062 L 467.996094 222.480469 L 468.445312 222.925781 L 468.894531 223.367188 L 469.347656 223.8125 L 469.796875 224.253906 L 470.246094 224.699219 L 471.144531 225.582031 L 471.59375 226.027344 L 472.046875 226.46875 L 472.496094 226.914062 L 473.394531 227.796875 L 473.84375 228.242188 L 474.292969 228.683594 L 474.746094 229.125 L 476.542969 230.890625 L 476.992188 231.328125 L 477.445312 231.769531 L 477.894531 232.210938 L 478.792969 233.085938 L 479.242188 233.527344 L 479.691406 233.964844 L 480.144531 234.402344 L 480.59375 234.839844 L 481.042969 235.273438 L 481.492188 235.710938 L 481.941406 236.144531 L 482.390625 236.582031 L 482.84375 237.015625 L 483.742188 237.882812 L 484.191406 238.3125 L 484.640625 238.746094 L 485.089844 239.175781 L 485.542969 239.605469 L 486.890625 240.894531 L 487.789062 241.746094 L 488.242188 242.171875 L 489.140625 243.023438 L 490.488281 244.289062 L 490.941406 244.710938 L 493.1875 246.800781 L 493.640625 247.214844 L 494.539062 248.042969 L 495.4375 248.863281 L 495.890625 249.273438 L 496.339844 249.683594 L 497.6875 250.902344 L 498.136719 251.304688 L 498.589844 251.710938 L 499.039062 252.113281 L 499.488281 252.511719 L 499.9375 252.914062 L 500.386719 253.3125 L 500.835938 253.707031 L 501.289062 254.105469 L 502.1875 254.894531 L 503.535156 256.066406 L 503.988281 256.453125 L 504.4375 256.84375 L 504.886719 257.226562 L 505.335938 257.613281 L 506.234375 258.378906 L 506.6875 258.757812 L 508.035156 259.894531 L 508.484375 260.269531 L 508.933594 260.640625 L 509.386719 261.015625 L 509.835938 261.386719 L 510.285156 261.753906 L 510.734375 262.125 L 511.183594 262.492188 L 511.632812 262.855469 L 512.085938 263.21875 L 512.984375 263.945312 L 513.433594 264.304688 L 513.882812 264.660156 L 514.332031 265.019531 L 514.785156 265.375 L 516.582031 266.78125 L 517.03125 267.128906 L 517.484375 267.472656 L 518.832031 268.503906 L 519.28125 268.84375 L 519.730469 269.179688 L 520.183594 269.519531 L 520.632812 269.855469 L 521.980469 270.851562 L 522.429688 271.179688 L 522.882812 271.507812 L 524.230469 272.480469 L 525.128906 273.121094 L 525.582031 273.4375 L 526.480469 274.070312 L 527.378906 274.695312 L 527.832031 275.003906 L 528.730469 275.621094 L 529.628906 276.230469 L 530.078125 276.53125 L 530.53125 276.832031 L 531.878906 277.722656 L 532.777344 278.308594 L 533.230469 278.597656 L 534.128906 279.175781 L 535.027344 279.746094 L 535.476562 280.027344 L 535.929688 280.308594 L 537.277344 281.140625 L 538.175781 281.6875 L 538.628906 281.957031 L 539.527344 282.496094 L 539.976562 282.761719 L 540.425781 283.023438 L 540.875 283.289062 L 541.328125 283.546875 L 541.777344 283.808594 L 542.675781 284.324219 L 543.574219 284.832031 L 544.027344 285.082031 L 544.925781 285.582031 L 545.375 285.828125 L 545.824219 286.070312 L 546.273438 286.316406 L 546.726562 286.558594 L 548.074219 287.273438 L 548.972656 287.742188 L 549.425781 287.976562 L 549.875 288.207031 L 550.324219 288.433594 L 550.773438 288.664062 L 551.222656 288.890625 L 551.671875 289.113281 L 552.125 289.335938 L 552.574219 289.558594 L 553.472656 289.996094 L 553.921875 290.210938 L 554.371094 290.429688 L 554.824219 290.640625 L 555.273438 290.855469 L 555.722656 291.0625 L 556.171875 291.273438 L 556.621094 291.480469 L 557.074219 291.6875 L 558.421875 292.296875 L 559.320312 292.695312 L 559.773438 292.890625 L 560.671875 293.28125 L 562.019531 293.855469 L 562.472656 294.042969 L 563.371094 294.417969 L 563.820312 294.601562 L 564.269531 294.78125 L 564.71875 294.964844 L 565.171875 295.144531 L 565.621094 295.320312 L 566.070312 295.5 L 566.519531 295.675781 L 567.417969 296.019531 L 567.871094 296.191406 L 568.320312 296.363281 L 569.21875 296.699219 L 570.117188 297.027344 L 570.570312 297.191406 L 572.367188 297.832031 L 572.816406 297.988281 L 573.269531 298.140625 L 573.71875 298.296875 L 574.167969 298.449219 L 574.617188 298.597656 L 575.066406 298.75 L 575.515625 298.898438 L 575.96875 299.046875 L 577.316406 299.480469 L 577.765625 299.621094 L 578.214844 299.765625 L 578.667969 299.902344 L 579.117188 300.042969 L 580.015625 300.316406 L 580.464844 300.449219 L 580.914062 300.585938 L 581.367188 300.71875 L 581.816406 300.847656 L 582.265625 300.980469 L 582.714844 301.109375 L 583.164062 301.234375 L 583.613281 301.363281 L 584.066406 301.488281 L 584.515625 301.613281 L 584.964844 301.734375 L 585.414062 301.859375 L 585.863281 301.980469 L 586.316406 302.097656 L 586.765625 302.21875 L 587.664062 302.453125 L 588.113281 302.566406 L 588.5625 302.683594 L 589.015625 302.796875 L 589.464844 302.90625 L 589.914062 303.019531 L 591.261719 303.347656 L 591.714844 303.453125 L 593.0625 303.769531 L 593.960938 303.972656 L 594.414062 304.074219 L 594.863281 304.175781 L 596.210938 304.46875 L 596.660156 304.5625 L 597.113281 304.660156 L 598.011719 304.847656 L 598.460938 304.9375 L 598.910156 305.03125 L 599.359375 305.121094 L 599.8125 305.210938 L 600.261719 305.300781 L 602.058594 305.644531 L 602.511719 305.730469 L 603.859375 305.976562 L 604.308594 306.054688 L 604.757812 306.136719 L 605.210938 306.214844 L 606.558594 306.449219 L 607.457031 306.597656 L 607.910156 306.671875 L 608.808594 306.820312 L 610.15625 307.03125 L 610.609375 307.101562 L 611.058594 307.167969 L 611.507812 307.238281 L 612.855469 307.4375 L 613.308594 307.503906 L 615.105469 307.753906 L 615.558594 307.816406 L 616.007812 307.878906 L 617.804688 308.113281 L 618.257812 308.171875 L 618.707031 308.230469 L 620.503906 308.449219 L 620.957031 308.503906 L 621.40625 308.558594 L 623.203125 308.761719 L 623.65625 308.8125 L 624.105469 308.863281 L 624.554688 308.910156 L 625.003906 308.960938 L 625.902344 309.054688 L 626.355469 309.101562 L 626.804688 309.148438 L 627.253906 309.191406 L 627.703125 309.238281 L 628.152344 309.28125 L 628.601562 309.328125 L 629.054688 309.371094 L 629.953125 309.457031 L 630.402344 309.496094 L 630.851562 309.539062 L 631.300781 309.578125 L 631.753906 309.621094 L 633.550781 309.777344 L 634 309.8125 L 634.453125 309.851562 L 634.902344 309.886719 L 635.351562 309.925781 L 636.699219 310.03125 L 637.152344 310.066406 L 638.050781 310.136719 L 638.5 310.167969 L 638.949219 310.203125 L 639.398438 310.234375 L 639.851562 310.265625 L 642.097656 310.421875 L 642.550781 310.453125 L 643 310.480469 L 643.449219 310.511719 L 644.347656 310.566406 L 644.800781 310.59375 L 647.046875 310.730469 L 647.5 310.753906 L 647.949219 310.78125 L 648.398438 310.804688 L 648.847656 310.832031 L 649.746094 310.878906 L 650.199219 310.902344 L 652.445312 311.019531 L 652.898438 311.039062 L 653.347656 311.0625 L 653.796875 311.082031 L 654.246094 311.105469 L 655.144531 311.144531 L 655.597656 311.167969 L 657.84375 311.265625 L 658.296875 311.28125 L 659.195312 311.320312 L 659.644531 311.335938 L 660.09375 311.355469 L 660.542969 311.371094 L 660.996094 311.390625 L 661.894531 311.421875 L 662.34375 311.441406 L 663.242188 311.472656 L 663.695312 311.488281 L 665.042969 311.535156 L 665.492188 311.546875 L 665.941406 311.5625 L 666.394531 311.578125 L 666.84375 311.59375 L 667.292969 311.605469 L 667.742188 311.621094 L 668.191406 311.632812 L 668.640625 311.648438 L 669.09375 311.660156 L 669.542969 311.671875 L 669.992188 311.6875 L 671.339844 311.722656 L 671.792969 311.734375 L 672.242188 311.75 L 673.140625 311.773438 L 673.589844 311.78125 L 674.039062 311.792969 L 674.492188 311.804688 L 675.839844 311.839844 L 676.289062 311.847656 L 676.742188 311.859375 L 677.191406 311.867188 L 678.089844 311.890625 L 678.539062 311.898438 L 678.988281 311.910156 L 679.441406 311.917969 L 679.890625 311.925781 L 680.339844 311.9375 L 681.6875 311.960938 L 682.140625 311.972656 L 684.386719 312.011719 L 684.839844 312.019531 L 687.085938 312.058594 L 687.539062 312.066406 L 687.988281 312.070312 L 689.335938 312.09375 L 689.785156 312.097656 L 690.238281 312.105469 L 690.6875 312.113281 L 691.136719 312.117188 L 691.585938 312.125 L 692.035156 312.128906 L 692.484375 312.136719 L 692.9375 312.144531 L 693.386719 312.148438 L 693.835938 312.15625 L 694.734375 312.164062 L 695.183594 312.171875 L 695.636719 312.175781 L 696.085938 312.179688 L 696.535156 312.1875 L 697.433594 312.195312 L 697.882812 312.203125 L 698.335938 312.207031 L 699.234375 312.214844 L 699.683594 312.222656 L 700.582031 312.230469 L 701.035156 312.234375 L 703.28125 312.253906 L 703.734375 312.257812 L 705.53125 312.273438 L 705.984375 312.277344 L 708.230469 312.296875 L 708.683594 312.300781 L 709.132812 312.300781 L 710.929688 312.316406 L 711.382812 312.316406 L 712.730469 312.328125 L 713.179688 312.328125 L 713.628906 312.332031 L 714.082031 312.335938 L 714.53125 312.335938 L 715.429688 312.34375 L 715.878906 312.34375 L 716.328125 312.347656 L 716.78125 312.351562 L 716.78125 312.480469 L 41.960938 312.480469 Z M 41.960938 312.351562 "/>
<g clip-path="url(#clip1)" clip-rule="nonzero">
<path style="fill:none;stroke-width:1.066978;stroke-linecap:butt;stroke-linejoin:round;stroke:rgb(0%,0%,0%);stroke-opacity:1;stroke-miterlimit:10;" d="M 8.21875 312.480469 L 750.519531 312.480469 "/>
</g>
<g clip-path="url(#clip2)" clip-rule="nonzero">
<path style="fill:none;stroke-width:2.133957;stroke-linecap:butt;stroke-linejoin:round;stroke:rgb(0%,0%,0%);stroke-opacity:1;stroke-dasharray:8.535827,8.535827;stroke-miterlimit:10;" d="M 379.371094 327.097656 L 379.371094 5.480469 "/>
</g>
<path style=" stroke:none;fill-rule:nonzero;fill:rgb(30.196078%,30.196078%,30.196078%);fill-opacity:1;" d="M 381.195312 332.03125 L 381.335938 332.03125 L 381.472656 332.039062 L 381.605469 332.046875 L 381.738281 332.0625 L 381.867188 332.078125 L 382.117188 332.125 L 382.359375 332.1875 L 382.476562 332.226562 L 382.589844 332.265625 L 382.699219 332.308594 L 382.804688 332.351562 L 382.910156 332.402344 L 383.011719 332.457031 L 383.105469 332.511719 L 383.199219 332.570312 L 383.378906 332.703125 L 383.460938 332.773438 L 383.542969 332.847656 L 383.617188 332.921875 L 383.691406 333.003906 L 383.761719 333.089844 L 383.824219 333.175781 L 383.886719 333.265625 L 383.945312 333.359375 L 384 333.457031 L 384.050781 333.558594 L 384.097656 333.660156 L 384.140625 333.769531 L 384.210938 333.988281 L 384.265625 334.222656 L 384.285156 334.34375 L 384.300781 334.464844 L 384.3125 334.59375 L 384.320312 334.722656 L 384.320312 334.851562 L 384.316406 335.035156 L 384.308594 335.214844 L 384.296875 335.386719 L 384.277344 335.554688 L 384.25 335.71875 L 384.21875 335.875 L 384.183594 336.027344 L 384.140625 336.175781 L 384.089844 336.316406 L 384.039062 336.453125 L 383.980469 336.585938 L 383.921875 336.710938 L 383.859375 336.835938 L 383.792969 336.953125 L 383.722656 337.066406 L 383.574219 337.285156 L 383.492188 337.386719 L 383.410156 337.484375 L 383.324219 337.578125 L 383.144531 337.75 L 382.957031 337.90625 L 382.859375 337.980469 L 382.761719 338.050781 L 382.558594 338.175781 L 382.453125 338.234375 L 382.347656 338.289062 L 382.136719 338.390625 L 382.035156 338.433594 L 381.929688 338.476562 L 381.824219 338.515625 L 381.722656 338.550781 L 381.621094 338.582031 L 381.515625 338.613281 L 381.3125 338.660156 L 381.304688 338.757812 L 381.402344 338.78125 L 381.589844 338.835938 L 381.683594 338.867188 L 381.863281 338.9375 L 381.953125 338.976562 L 382.039062 339.019531 L 382.128906 339.0625 L 382.210938 339.109375 L 382.292969 339.160156 L 382.375 339.214844 L 382.453125 339.269531 L 382.527344 339.328125 L 382.601562 339.390625 L 382.671875 339.453125 L 382.742188 339.519531 L 382.808594 339.589844 L 382.871094 339.660156 L 382.933594 339.734375 L 382.996094 339.8125 L 383.054688 339.890625 L 383.109375 339.96875 L 383.164062 340.054688 L 383.210938 340.140625 L 383.261719 340.230469 L 383.304688 340.320312 L 383.347656 340.417969 L 383.386719 340.515625 L 383.421875 340.613281 L 383.457031 340.714844 L 383.511719 340.925781 L 383.535156 341.03125 L 383.554688 341.144531 L 383.570312 341.257812 L 383.582031 341.375 L 383.589844 341.492188 L 383.597656 341.613281 L 383.597656 341.738281 L 383.59375 341.957031 L 383.585938 342.171875 L 383.566406 342.382812 L 383.542969 342.585938 L 383.511719 342.789062 L 383.472656 342.980469 L 383.425781 343.171875 L 383.375 343.355469 L 383.3125 343.535156 L 383.246094 343.710938 L 383.171875 343.878906 L 383.09375 344.039062 L 383.011719 344.195312 L 382.921875 344.347656 L 382.828125 344.492188 L 382.726562 344.632812 L 382.621094 344.769531 L 382.507812 344.902344 L 382.390625 345.027344 L 382.269531 345.144531 L 382.144531 345.257812 L 382.015625 345.363281 L 381.878906 345.464844 L 381.742188 345.5625 L 381.597656 345.652344 L 381.449219 345.734375 L 381.292969 345.8125 L 381.136719 345.886719 L 380.972656 345.953125 L 380.804688 346.015625 L 380.636719 346.070312 L 380.464844 346.121094 L 380.289062 346.164062 L 380.109375 346.203125 L 379.929688 346.234375 L 379.746094 346.261719 L 379.558594 346.28125 L 379.367188 346.296875 L 379.175781 346.304688 L 378.980469 346.308594 L 378.828125 346.304688 L 378.679688 346.300781 L 378.53125 346.292969 L 378.386719 346.285156 L 378.242188 346.269531 L 378.101562 346.253906 L 377.960938 346.234375 L 377.824219 346.214844 L 377.6875 346.1875 L 377.554688 346.160156 L 377.425781 346.132812 L 377.300781 346.097656 L 377.183594 346.066406 L 377.070312 346.03125 L 376.960938 345.996094 L 376.855469 345.957031 L 376.757812 345.917969 L 376.664062 345.875 L 376.574219 345.835938 L 376.488281 345.789062 L 375.679688 350.371094 L 374.066406 350.371094 L 376.429688 336.921875 L 376.480469 336.644531 L 376.535156 336.378906 L 376.59375 336.121094 L 376.65625 335.871094 L 376.722656 335.632812 L 376.789062 335.402344 L 376.863281 335.183594 L 376.941406 334.972656 L 377.019531 334.769531 L 377.105469 334.578125 L 377.191406 334.394531 L 377.28125 334.21875 L 377.378906 334.050781 L 377.472656 333.886719 L 377.574219 333.734375 L 377.679688 333.585938 L 377.789062 333.449219 L 377.898438 333.316406 L 378.011719 333.191406 L 378.128906 333.074219 L 378.253906 332.964844 L 378.378906 332.863281 L 378.507812 332.765625 L 378.640625 332.675781 L 378.773438 332.59375 L 378.914062 332.515625 L 379.054688 332.445312 L 379.199219 332.382812 L 379.347656 332.324219 L 379.496094 332.273438 L 379.652344 332.226562 L 379.972656 332.148438 L 380.140625 332.117188 L 380.308594 332.089844 L 380.652344 332.050781 L 380.832031 332.039062 L 381.011719 332.03125 Z M 381.089844 332.8125 L 380.972656 332.8125 L 380.855469 332.820312 L 380.742188 332.828125 L 380.632812 332.839844 L 380.523438 332.855469 L 380.417969 332.875 L 380.316406 332.898438 L 380.214844 332.925781 L 380.121094 332.953125 L 380.023438 332.988281 L 379.933594 333.023438 L 379.84375 333.066406 L 379.757812 333.113281 L 379.671875 333.167969 L 379.585938 333.230469 L 379.503906 333.296875 L 379.425781 333.367188 L 379.347656 333.445312 L 379.269531 333.53125 L 379.195312 333.621094 L 379.121094 333.71875 L 379.050781 333.820312 L 378.984375 333.929688 L 378.917969 334.046875 L 378.851562 334.167969 L 378.789062 334.300781 L 378.726562 334.4375 L 378.664062 334.582031 L 378.605469 334.734375 L 378.550781 334.890625 L 378.492188 335.054688 L 378.4375 335.230469 L 378.386719 335.414062 L 378.332031 335.605469 L 378.28125 335.808594 L 378.230469 336.019531 L 378.183594 336.242188 L 378.132812 336.472656 L 378.085938 336.710938 L 378.042969 336.960938 L 376.625 344.988281 L 376.660156 345.007812 L 376.699219 345.023438 L 376.738281 345.042969 L 376.816406 345.074219 L 376.859375 345.089844 L 376.902344 345.109375 L 376.988281 345.140625 L 377.082031 345.171875 L 377.132812 345.1875 L 377.179688 345.203125 L 377.230469 345.214844 L 377.382812 345.261719 L 377.4375 345.273438 L 377.488281 345.289062 L 377.542969 345.300781 L 377.601562 345.316406 L 377.65625 345.328125 L 377.773438 345.351562 L 377.835938 345.363281 L 377.894531 345.375 L 377.953125 345.382812 L 378.015625 345.390625 L 378.078125 345.402344 L 378.203125 345.417969 L 378.265625 345.421875 L 378.328125 345.429688 L 378.453125 345.4375 L 378.519531 345.441406 L 378.582031 345.445312 L 378.644531 345.445312 L 378.710938 345.449219 L 378.773438 345.449219 L 378.910156 345.445312 L 379.042969 345.4375 L 379.171875 345.425781 L 379.300781 345.410156 L 379.429688 345.386719 L 379.550781 345.359375 L 379.671875 345.328125 L 379.792969 345.292969 L 379.910156 345.25 L 380.023438 345.203125 L 380.136719 345.152344 L 380.246094 345.097656 L 380.355469 345.035156 L 380.457031 344.972656 L 380.558594 344.902344 L 380.65625 344.828125 L 380.75 344.746094 L 380.839844 344.664062 L 380.925781 344.574219 L 381.011719 344.480469 L 381.09375 344.382812 L 381.171875 344.28125 L 381.246094 344.171875 L 381.316406 344.0625 L 381.382812 343.945312 L 381.445312 343.824219 L 381.503906 343.695312 L 381.558594 343.566406 L 381.609375 343.429688 L 381.65625 343.289062 L 381.699219 343.144531 L 381.738281 342.996094 L 381.773438 342.84375 L 381.804688 342.683594 L 381.832031 342.523438 L 381.851562 342.355469 L 381.867188 342.1875 L 381.878906 342.011719 L 381.886719 341.832031 L 381.890625 341.648438 L 381.882812 341.410156 L 381.863281 341.1875 L 381.828125 340.972656 L 381.78125 340.769531 L 381.722656 340.582031 L 381.648438 340.40625 L 381.558594 340.242188 L 381.457031 340.089844 L 381.34375 339.949219 L 381.214844 339.824219 L 381.078125 339.707031 L 380.929688 339.601562 L 380.769531 339.507812 L 380.601562 339.425781 L 380.425781 339.355469 L 380.234375 339.292969 L 380.035156 339.242188 L 379.828125 339.203125 L 379.609375 339.175781 L 379.378906 339.160156 L 379.515625 338.398438 L 379.6875 338.394531 L 379.855469 338.382812 L 380.019531 338.367188 L 380.175781 338.34375 L 380.328125 338.316406 L 380.472656 338.28125 L 380.613281 338.242188 L 380.746094 338.195312 L 380.875 338.144531 L 381 338.085938 L 381.121094 338.023438 L 381.238281 337.957031 L 381.347656 337.886719 L 381.457031 337.808594 L 381.558594 337.730469 L 381.65625 337.648438 L 381.746094 337.5625 L 381.835938 337.46875 L 381.917969 337.375 L 381.996094 337.273438 L 382.070312 337.171875 L 382.140625 337.066406 L 382.207031 336.957031 L 382.324219 336.730469 L 382.375 336.613281 L 382.425781 336.492188 L 382.46875 336.367188 L 382.507812 336.242188 L 382.542969 336.113281 L 382.578125 335.980469 L 382.632812 335.714844 L 382.65625 335.578125 L 382.675781 335.445312 L 382.691406 335.304688 L 382.703125 335.167969 L 382.71875 334.886719 L 382.71875 334.640625 L 382.714844 334.535156 L 382.707031 334.4375 L 382.699219 334.34375 L 382.683594 334.25 L 382.671875 334.160156 L 382.652344 334.074219 L 382.632812 333.992188 L 382.609375 333.914062 L 382.582031 333.835938 L 382.554688 333.765625 L 382.523438 333.695312 L 382.460938 333.5625 L 382.425781 333.503906 L 382.386719 333.445312 L 382.308594 333.335938 L 382.222656 333.242188 L 382.175781 333.195312 L 382.128906 333.152344 L 382.082031 333.113281 L 382.03125 333.074219 L 381.980469 333.042969 L 381.925781 333.007812 L 381.875 332.980469 L 381.816406 332.953125 L 381.761719 332.929688 L 381.644531 332.890625 L 381.527344 332.859375 L 381.402344 332.835938 L 381.339844 332.828125 L 381.28125 332.820312 L 381.214844 332.816406 L 381.152344 332.8125 Z M 381.089844 332.8125 "/>
</g>
</svg>
