<?xml version="1.0" encoding="UTF-8"?>
<svg xmlns="http://www.w3.org/2000/svg" xmlns:xlink="http://www.w3.org/1999/xlink" width="396pt" height="324pt" viewBox="0 0 396 324" version="1.1">
<defs>
<clipPath id="clip1">
  <path d="M 8.21875 80 L 390.519531 80 L 390.519531 263 L 8.21875 263 Z M 8.21875 80 "/>
</clipPath>
</defs>
<g id="surface64">
<rect x="0" y="0" width="396" height="324" style="fill:rgb(100%,100%,100%);fill-opacity:1;stroke:none;"/>
<path style="fill-rule:nonzero;fill:rgb(15.294118%,15.686275%,13.333333%);fill-opacity:0.8;stroke-width:0.708661;stroke-linecap:round;stroke-linejoin:round;stroke:rgb(15.294118%,15.686275%,13.333333%);stroke-opacity:0.8;stroke-miterlimit:10;" d="M 75.828125 191.285156 C 75.828125 194.601562 70.851562 194.601562 70.851562 191.285156 C 70.851562 187.96875 75.828125 187.96875 75.828125 191.285156 "/>
<path style="fill-rule:nonzero;fill:rgb(15.294118%,15.686275%,13.333333%);fill-opacity:0.8;stroke-width:0.708661;stroke-linecap:round;stroke-linejoin:round;stroke:rgb(15.294118%,15.686275%,13.333333%);stroke-opacity:0.8;stroke-miterlimit:10;" d="M 122.03125 284.199219 C 122.03125 287.515625 117.054688 287.515625 117.054688 284.199219 C 117.054688 280.878906 122.03125 280.878906 122.03125 284.199219 "/>
<path style="fill-rule:nonzero;fill:rgb(15.294118%,15.686275%,13.333333%);fill-opacity:0.8;stroke-width:0.708661;stroke-linecap:round;stroke-linejoin:round;stroke:rgb(15.294118%,15.686275%,13.333333%);stroke-opacity:0.8;stroke-miterlimit:10;" d="M 91.742188 282.730469 C 91.742188 286.046875 86.765625 286.046875 86.765625 282.730469 C 86.765625 279.414062 91.742188 279.414062 91.742188 282.730469 "/>
<path style="fill-rule:nonzero;fill:rgb(15.294118%,15.686275%,13.333333%);fill-opacity:0.8;stroke-width:0.708661;stroke-linecap:round;stroke-linejoin:round;stroke:rgb(15.294118%,15.686275%,13.333333%);stroke-opacity:0.8;stroke-miterlimit:10;" d="M 125.109375 217.59375 C 125.109375 220.914062 120.132812 220.914062 120.132812 217.59375 C 120.132812 214.277344 125.109375 214.277344 125.109375 217.59375 "/>
<path style="fill-rule:nonzero;fill:rgb(15.294118%,15.686275%,13.333333%);fill-opacity:0.8;stroke-width:0.708661;stroke-linecap:round;stroke-linejoin:round;stroke:rgb(15.294118%,15.686275%,13.333333%);stroke-opacity:0.8;stroke-miterlimit:10;" d="M 97.390625 176.019531 C 97.390625 179.339844 92.414062 179.339844 92.414062 176.019531 C 92.414062 172.703125 97.390625 172.703125 97.390625 176.019531 "/>
<path style="fill-rule:nonzero;fill:rgb(15.294118%,15.686275%,13.333333%);fill-opacity:0.8;stroke-width:0.708661;stroke-linecap:round;stroke-linejoin:round;stroke:rgb(15.294118%,15.686275%,13.333333%);stroke-opacity:0.8;stroke-miterlimit:10;" d="M 161.046875 249.683594 C 161.046875 253 156.070312 253 156.070312 249.683594 C 156.070312 246.363281 161.046875 246.363281 161.046875 249.683594 "/>
<path style="fill-rule:nonzero;fill:rgb(15.294118%,15.686275%,13.333333%);fill-opacity:0.8;stroke-width:0.708661;stroke-linecap:round;stroke-linejoin:round;stroke:rgb(15.294118%,15.686275%,13.333333%);stroke-opacity:0.8;stroke-miterlimit:10;" d="M 105.089844 259.261719 C 105.089844 262.578125 100.113281 262.578125 100.113281 259.261719 C 100.113281 255.945312 105.089844 255.945312 105.089844 259.261719 "/>
<path style="fill-rule:nonzero;fill:rgb(15.294118%,15.686275%,13.333333%);fill-opacity:0.8;stroke-width:0.708661;stroke-linecap:round;stroke-linejoin:round;stroke:rgb(15.294118%,15.686275%,13.333333%);stroke-opacity:0.8;stroke-miterlimit:10;" d="M 72.234375 142.148438 C 72.234375 145.464844 67.257812 145.464844 67.257812 142.148438 C 67.257812 138.828125 72.234375 138.828125 72.234375 142.148438 "/>
<path style="fill-rule:nonzero;fill:rgb(15.294118%,15.686275%,13.333333%);fill-opacity:0.8;stroke-width:0.708661;stroke-linecap:round;stroke-linejoin:round;stroke:rgb(15.294118%,15.686275%,13.333333%);stroke-opacity:0.8;stroke-miterlimit:10;" d="M 89.6875 246.335938 C 89.6875 249.652344 84.710938 249.652344 84.710938 246.335938 C 84.710938 243.019531 89.6875 243.019531 89.6875 246.335938 "/>
<path style="fill-rule:nonzero;fill:rgb(15.294118%,15.686275%,13.333333%);fill-opacity:0.8;stroke-width:0.708661;stroke-linecap:round;stroke-linejoin:round;stroke:rgb(15.294118%,15.686275%,13.333333%);stroke-opacity:0.8;stroke-miterlimit:10;" d="M 71.71875 159.472656 C 71.71875 162.792969 66.742188 162.792969 66.742188 159.472656 C 66.742188 156.15625 71.71875 156.15625 71.71875 159.472656 "/>
<path style="fill-rule:nonzero;fill:rgb(15.294118%,15.686275%,13.333333%);fill-opacity:0.8;stroke-width:0.708661;stroke-linecap:round;stroke-linejoin:round;stroke:rgb(15.294118%,15.686275%,13.333333%);stroke-opacity:0.8;stroke-miterlimit:10;" d="M 56.320312 258.117188 C 56.320312 261.433594 51.34375 261.433594 51.34375 258.117188 C 51.34375 254.796875 56.320312 254.796875 56.320312 258.117188 "/>
<path style="fill-rule:nonzero;fill:rgb(15.294118%,15.686275%,13.333333%);fill-opacity:0.8;stroke-width:0.708661;stroke-linecap:round;stroke-linejoin:round;stroke:rgb(15.294118%,15.686275%,13.333333%);stroke-opacity:0.8;stroke-miterlimit:10;" d="M 66.074219 135.820312 C 66.074219 139.140625 61.097656 139.140625 61.097656 135.820312 C 61.097656 132.503906 66.074219 132.503906 66.074219 135.820312 "/>
<path style="fill-rule:nonzero;fill:rgb(15.294118%,15.686275%,13.333333%);fill-opacity:0.8;stroke-width:0.708661;stroke-linecap:round;stroke-linejoin:round;stroke:rgb(15.294118%,15.686275%,13.333333%);stroke-opacity:0.8;stroke-miterlimit:10;" d="M 76.855469 229.652344 C 76.855469 232.96875 71.878906 232.96875 71.878906 229.652344 C 71.878906 226.332031 76.855469 226.332031 76.855469 229.652344 "/>
<path style="fill-rule:nonzero;fill:rgb(15.294118%,15.686275%,13.333333%);fill-opacity:0.8;stroke-width:0.708661;stroke-linecap:round;stroke-linejoin:round;stroke:rgb(15.294118%,15.686275%,13.333333%);stroke-opacity:0.8;stroke-miterlimit:10;" d="M 41.945312 257.199219 C 41.945312 260.515625 36.96875 260.515625 36.96875 257.199219 C 36.96875 253.882812 41.945312 253.882812 41.945312 257.199219 "/>
<path style="fill-rule:nonzero;fill:rgb(15.294118%,15.686275%,13.333333%);fill-opacity:0.8;stroke-width:0.708661;stroke-linecap:round;stroke-linejoin:round;stroke:rgb(15.294118%,15.686275%,13.333333%);stroke-opacity:0.8;stroke-miterlimit:10;" d="M 52.210938 170.613281 C 52.210938 173.929688 47.234375 173.929688 47.234375 170.613281 C 47.234375 167.292969 52.210938 167.292969 52.210938 170.613281 "/>
<path style="fill-rule:nonzero;fill:rgb(15.294118%,15.686275%,13.333333%);fill-opacity:0.8;stroke-width:0.708661;stroke-linecap:round;stroke-linejoin:round;stroke:rgb(15.294118%,15.686275%,13.333333%);stroke-opacity:0.8;stroke-miterlimit:10;" d="M 51.699219 156.816406 C 51.699219 160.132812 46.722656 160.132812 46.722656 156.816406 C 46.722656 153.496094 51.699219 153.496094 51.699219 156.816406 "/>
<path style="fill-rule:nonzero;fill:rgb(15.294118%,15.686275%,13.333333%);fill-opacity:0.8;stroke-width:0.708661;stroke-linecap:round;stroke-linejoin:round;stroke:rgb(15.294118%,15.686275%,13.333333%);stroke-opacity:0.8;stroke-miterlimit:10;" d="M 52.210938 138.890625 C 52.210938 142.210938 47.234375 142.210938 47.234375 138.890625 C 47.234375 135.574219 52.210938 135.574219 52.210938 138.890625 "/>
<path style="fill-rule:nonzero;fill:rgb(15.294118%,15.686275%,13.333333%);fill-opacity:0.8;stroke-width:0.708661;stroke-linecap:round;stroke-linejoin:round;stroke:rgb(15.294118%,15.686275%,13.333333%);stroke-opacity:0.8;stroke-miterlimit:10;" d="M 78.90625 202.5625 C 78.90625 205.878906 73.929688 205.878906 73.929688 202.5625 C 73.929688 199.242188 78.90625 199.242188 78.90625 202.5625 "/>
<path style="fill-rule:nonzero;fill:rgb(15.294118%,15.686275%,13.333333%);fill-opacity:0.8;stroke-width:0.708661;stroke-linecap:round;stroke-linejoin:round;stroke:rgb(15.294118%,15.686275%,13.333333%);stroke-opacity:0.8;stroke-miterlimit:10;" d="M 60.941406 126.699219 C 60.941406 130.015625 55.964844 130.015625 55.964844 126.699219 C 55.964844 123.382812 60.941406 123.382812 60.941406 126.699219 "/>
<path style="fill-rule:nonzero;fill:rgb(15.294118%,15.686275%,13.333333%);fill-opacity:0.8;stroke-width:0.708661;stroke-linecap:round;stroke-linejoin:round;stroke:rgb(15.294118%,15.686275%,13.333333%);stroke-opacity:0.8;stroke-miterlimit:10;" d="M 31.679688 248.445312 C 31.679688 251.761719 26.703125 251.761719 26.703125 248.445312 C 26.703125 245.125 31.679688 245.125 31.679688 248.445312 "/>
<path style="fill-rule:nonzero;fill:rgb(15.294118%,15.686275%,13.333333%);fill-opacity:0.8;stroke-width:0.708661;stroke-linecap:round;stroke-linejoin:round;stroke:rgb(15.294118%,15.686275%,13.333333%);stroke-opacity:0.8;stroke-miterlimit:10;" d="M 129.730469 95.988281 C 129.730469 99.304688 124.753906 99.304688 124.753906 95.988281 C 124.753906 92.671875 129.730469 92.671875 129.730469 95.988281 "/>
<path style="fill-rule:nonzero;fill:rgb(15.294118%,15.686275%,13.333333%);fill-opacity:0.8;stroke-width:0.708661;stroke-linecap:round;stroke-linejoin:round;stroke:rgb(15.294118%,15.686275%,13.333333%);stroke-opacity:0.8;stroke-miterlimit:10;" d="M 142.566406 30.074219 C 142.566406 33.390625 137.589844 33.390625 137.589844 30.074219 C 137.589844 26.757812 142.566406 26.757812 142.566406 30.074219 "/>
<path style="fill-rule:nonzero;fill:rgb(15.294118%,15.686275%,13.333333%);fill-opacity:0.8;stroke-width:0.708661;stroke-linecap:round;stroke-linejoin:round;stroke:rgb(15.294118%,15.686275%,13.333333%);stroke-opacity:0.8;stroke-miterlimit:10;" d="M 119.976562 20.675781 C 119.976562 23.996094 115 23.996094 115 20.675781 C 115 17.359375 119.976562 17.359375 119.976562 20.675781 "/>
<path style="fill-rule:nonzero;fill:rgb(15.294118%,15.686275%,13.333333%);fill-opacity:0.8;stroke-width:0.708661;stroke-linecap:round;stroke-linejoin:round;stroke:rgb(15.294118%,15.686275%,13.333333%);stroke-opacity:0.8;stroke-miterlimit:10;" d="M 92.253906 73.023438 C 92.253906 76.339844 87.277344 76.339844 87.277344 73.023438 C 87.277344 69.707031 92.253906 69.707031 92.253906 73.023438 "/>
<path style="fill-rule:nonzero;fill:rgb(15.294118%,15.686275%,13.333333%);fill-opacity:0.8;stroke-width:0.708661;stroke-linecap:round;stroke-linejoin:round;stroke:rgb(15.294118%,15.686275%,13.333333%);stroke-opacity:0.8;stroke-miterlimit:10;" d="M 65.558594 183.21875 C 65.558594 186.535156 60.582031 186.535156 60.582031 183.21875 C 60.582031 179.898438 65.558594 179.898438 65.558594 183.21875 "/>
<path style="fill-rule:nonzero;fill:rgb(15.294118%,15.686275%,13.333333%);fill-opacity:0.8;stroke-width:0.708661;stroke-linecap:round;stroke-linejoin:round;stroke:rgb(15.294118%,15.686275%,13.333333%);stroke-opacity:0.8;stroke-miterlimit:10;" d="M 56.320312 234.097656 C 56.320312 237.414062 51.34375 237.414062 51.34375 234.097656 C 51.34375 230.78125 56.320312 230.78125 56.320312 234.097656 "/>
<path style="fill-rule:nonzero;fill:rgb(15.294118%,15.686275%,13.333333%);fill-opacity:0.8;stroke-width:0.708661;stroke-linecap:round;stroke-linejoin:round;stroke:rgb(15.294118%,15.686275%,13.333333%);stroke-opacity:0.8;stroke-miterlimit:10;" d="M 64.535156 176.203125 C 64.535156 179.523438 59.558594 179.523438 59.558594 176.203125 C 59.558594 172.886719 64.535156 172.886719 64.535156 176.203125 "/>
<path style="fill-rule:nonzero;fill:rgb(15.294118%,15.686275%,13.333333%);fill-opacity:0.8;stroke-width:0.708661;stroke-linecap:round;stroke-linejoin:round;stroke:rgb(15.294118%,15.686275%,13.333333%);stroke-opacity:0.8;stroke-miterlimit:10;" d="M 49.132812 206.226562 C 49.132812 209.546875 44.15625 209.546875 44.15625 206.226562 C 44.15625 202.910156 49.132812 202.910156 49.132812 206.226562 "/>
<path style="fill-rule:nonzero;fill:rgb(15.294118%,15.686275%,13.333333%);fill-opacity:0.8;stroke-width:0.708661;stroke-linecap:round;stroke-linejoin:round;stroke:rgb(15.294118%,15.686275%,13.333333%);stroke-opacity:0.8;stroke-miterlimit:10;" d="M 52.210938 233.179688 C 52.210938 236.496094 47.234375 236.496094 47.234375 233.179688 C 47.234375 229.863281 52.210938 229.863281 52.210938 233.179688 "/>
<path style="fill-rule:nonzero;fill:rgb(15.294118%,15.686275%,13.333333%);fill-opacity:0.8;stroke-width:0.708661;stroke-linecap:round;stroke-linejoin:round;stroke:rgb(15.294118%,15.686275%,13.333333%);stroke-opacity:0.8;stroke-miterlimit:10;" d="M 112.789062 22.832031 C 112.789062 26.148438 107.8125 26.148438 107.8125 22.832031 C 107.8125 19.511719 112.789062 19.511719 112.789062 22.832031 "/>
<path style="fill-rule:nonzero;fill:rgb(15.294118%,15.686275%,13.333333%);fill-opacity:0.8;stroke-width:0.708661;stroke-linecap:round;stroke-linejoin:round;stroke:rgb(15.294118%,15.686275%,13.333333%);stroke-opacity:0.8;stroke-miterlimit:10;" d="M 40.40625 252.890625 C 40.40625 256.207031 35.429688 256.207031 35.429688 252.890625 C 35.429688 249.574219 40.40625 249.574219 40.40625 252.890625 "/>
<path style="fill-rule:nonzero;fill:rgb(15.294118%,15.686275%,13.333333%);fill-opacity:0.8;stroke-width:0.708661;stroke-linecap:round;stroke-linejoin:round;stroke:rgb(15.294118%,15.686275%,13.333333%);stroke-opacity:0.8;stroke-miterlimit:10;" d="M 54.78125 260.363281 C 54.78125 263.679688 49.804688 263.679688 49.804688 260.363281 C 49.804688 257.042969 54.78125 257.042969 54.78125 260.363281 "/>
<path style="fill-rule:nonzero;fill:rgb(15.294118%,15.686275%,13.333333%);fill-opacity:0.8;stroke-width:0.708661;stroke-linecap:round;stroke-linejoin:round;stroke:rgb(15.294118%,15.686275%,13.333333%);stroke-opacity:0.8;stroke-miterlimit:10;" d="M 76.855469 74.71875 C 76.855469 78.039062 71.878906 78.039062 71.878906 74.71875 C 71.878906 71.402344 76.855469 71.402344 76.855469 74.71875 "/>
<path style="fill-rule:nonzero;fill:rgb(15.294118%,15.686275%,13.333333%);fill-opacity:0.8;stroke-width:0.708661;stroke-linecap:round;stroke-linejoin:round;stroke:rgb(15.294118%,15.686275%,13.333333%);stroke-opacity:0.8;stroke-miterlimit:10;" d="M 375.632812 166.992188 C 375.632812 170.308594 370.65625 170.308594 370.65625 166.992188 C 370.65625 163.671875 375.632812 163.671875 375.632812 166.992188 "/>
<path style="fill-rule:nonzero;fill:rgb(15.294118%,15.686275%,13.333333%);fill-opacity:0.8;stroke-width:0.708661;stroke-linecap:round;stroke-linejoin:round;stroke:rgb(15.294118%,15.686275%,13.333333%);stroke-opacity:0.8;stroke-miterlimit:10;" d="M 102.523438 182.117188 C 102.523438 185.433594 97.546875 185.433594 97.546875 182.117188 C 97.546875 178.800781 102.523438 178.800781 102.523438 182.117188 "/>
<path style="fill-rule:nonzero;fill:rgb(15.294118%,15.686275%,13.333333%);fill-opacity:0.8;stroke-width:0.708661;stroke-linecap:round;stroke-linejoin:round;stroke:rgb(15.294118%,15.686275%,13.333333%);stroke-opacity:0.8;stroke-miterlimit:10;" d="M 80.960938 246.105469 C 80.960938 249.425781 75.984375 249.425781 75.984375 246.105469 C 75.984375 242.789062 80.960938 242.789062 80.960938 246.105469 "/>
<path style="fill-rule:nonzero;fill:rgb(15.294118%,15.686275%,13.333333%);fill-opacity:0.8;stroke-width:0.708661;stroke-linecap:round;stroke-linejoin:round;stroke:rgb(15.294118%,15.686275%,13.333333%);stroke-opacity:0.8;stroke-miterlimit:10;" d="M 85.066406 219.109375 C 85.066406 222.425781 80.089844 222.425781 80.089844 219.109375 C 80.089844 215.789062 85.066406 215.789062 85.066406 219.109375 "/>
<path style="fill-rule:nonzero;fill:rgb(15.294118%,15.686275%,13.333333%);fill-opacity:0.8;stroke-width:0.708661;stroke-linecap:round;stroke-linejoin:round;stroke:rgb(15.294118%,15.686275%,13.333333%);stroke-opacity:0.8;stroke-miterlimit:10;" d="M 57.347656 18.75 C 57.347656 22.070312 52.371094 22.070312 52.371094 18.75 C 52.371094 15.433594 57.347656 15.433594 57.347656 18.75 "/>
<path style="fill-rule:nonzero;fill:rgb(15.294118%,15.686275%,13.333333%);fill-opacity:0.8;stroke-width:0.708661;stroke-linecap:round;stroke-linejoin:round;stroke:rgb(15.294118%,15.686275%,13.333333%);stroke-opacity:0.8;stroke-miterlimit:10;" d="M 65.558594 189.589844 C 65.558594 192.90625 60.582031 192.90625 60.582031 189.589844 C 60.582031 186.269531 65.558594 186.269531 65.558594 189.589844 "/>
<path style="fill-rule:nonzero;fill:rgb(15.294118%,15.686275%,13.333333%);fill-opacity:0.8;stroke-width:0.708661;stroke-linecap:round;stroke-linejoin:round;stroke:rgb(15.294118%,15.686275%,13.333333%);stroke-opacity:0.8;stroke-miterlimit:10;" d="M 52.210938 173.269531 C 52.210938 176.589844 47.234375 176.589844 47.234375 173.269531 C 47.234375 169.953125 52.210938 169.953125 52.210938 173.269531 "/>
<path style="fill-rule:nonzero;fill:rgb(15.294118%,15.686275%,13.333333%);fill-opacity:0.8;stroke-width:0.708661;stroke-linecap:round;stroke-linejoin:round;stroke:rgb(15.294118%,15.686275%,13.333333%);stroke-opacity:0.8;stroke-miterlimit:10;" d="M 303.761719 173.730469 C 303.761719 177.046875 298.785156 177.046875 298.785156 173.730469 C 298.785156 170.410156 303.761719 170.410156 303.761719 173.730469 "/>
<path style="fill-rule:nonzero;fill:rgb(15.294118%,15.686275%,13.333333%);fill-opacity:0.8;stroke-width:0.708661;stroke-linecap:round;stroke-linejoin:round;stroke:rgb(15.294118%,15.686275%,13.333333%);stroke-opacity:0.8;stroke-miterlimit:10;" d="M 71.71875 110.792969 C 71.71875 114.113281 66.742188 114.113281 66.742188 110.792969 C 66.742188 107.476562 71.71875 107.476562 71.71875 110.792969 "/>
<path style="fill-rule:nonzero;fill:rgb(15.294118%,15.686275%,13.333333%);fill-opacity:0.8;stroke-width:0.708661;stroke-linecap:round;stroke-linejoin:round;stroke:rgb(15.294118%,15.686275%,13.333333%);stroke-opacity:0.8;stroke-miterlimit:10;" d="M 66.585938 250.78125 C 66.585938 254.101562 61.609375 254.101562 61.609375 250.78125 C 61.609375 247.464844 66.585938 247.464844 66.585938 250.78125 "/>
<path style="fill-rule:nonzero;fill:rgb(15.294118%,15.686275%,13.333333%);fill-opacity:0.8;stroke-width:0.708661;stroke-linecap:round;stroke-linejoin:round;stroke:rgb(15.294118%,15.686275%,13.333333%);stroke-opacity:0.8;stroke-miterlimit:10;" d="M 156.425781 273.929688 C 156.425781 277.246094 151.449219 277.246094 151.449219 273.929688 C 151.449219 270.613281 156.425781 270.613281 156.425781 273.929688 "/>
<path style="fill-rule:nonzero;fill:rgb(15.294118%,15.686275%,13.333333%);fill-opacity:0.8;stroke-width:0.708661;stroke-linecap:round;stroke-linejoin:round;stroke:rgb(15.294118%,15.686275%,13.333333%);stroke-opacity:0.8;stroke-miterlimit:10;" d="M 98.929688 260.085938 C 98.929688 263.40625 93.953125 263.40625 93.953125 260.085938 C 93.953125 256.769531 98.929688 256.769531 98.929688 260.085938 "/>
<path style="fill-rule:nonzero;fill:rgb(15.294118%,15.686275%,13.333333%);fill-opacity:0.8;stroke-width:0.708661;stroke-linecap:round;stroke-linejoin:round;stroke:rgb(15.294118%,15.686275%,13.333333%);stroke-opacity:0.8;stroke-miterlimit:10;" d="M 106.628906 252.476562 C 106.628906 255.796875 101.652344 255.796875 101.652344 252.476562 C 101.652344 249.160156 106.628906 249.160156 106.628906 252.476562 "/>
<path style="fill-rule:nonzero;fill:rgb(15.294118%,15.686275%,13.333333%);fill-opacity:0.8;stroke-width:0.708661;stroke-linecap:round;stroke-linejoin:round;stroke:rgb(15.294118%,15.686275%,13.333333%);stroke-opacity:0.8;stroke-miterlimit:10;" d="M 169.257812 164.605469 C 169.257812 167.925781 164.28125 167.925781 164.28125 164.605469 C 164.28125 161.289062 169.257812 161.289062 169.257812 164.605469 "/>
<path style="fill-rule:nonzero;fill:rgb(15.294118%,15.686275%,13.333333%);fill-opacity:0.8;stroke-width:0.708661;stroke-linecap:round;stroke-linejoin:round;stroke:rgb(15.294118%,15.686275%,13.333333%);stroke-opacity:0.8;stroke-miterlimit:10;" d="M 165.667969 144.070312 C 165.667969 147.390625 160.691406 147.390625 160.691406 144.070312 C 160.691406 140.753906 165.667969 140.753906 165.667969 144.070312 "/>
<path style="fill-rule:nonzero;fill:rgb(15.294118%,15.686275%,13.333333%);fill-opacity:0.8;stroke-width:0.708661;stroke-linecap:round;stroke-linejoin:round;stroke:rgb(15.294118%,15.686275%,13.333333%);stroke-opacity:0.8;stroke-miterlimit:10;" d="M 111.761719 161.8125 C 111.761719 165.128906 106.785156 165.128906 106.785156 161.8125 C 106.785156 158.492188 111.761719 158.492188 111.761719 161.8125 "/>
<path style="fill-rule:nonzero;fill:rgb(15.294118%,15.686275%,13.333333%);fill-opacity:0.8;stroke-width:0.708661;stroke-linecap:round;stroke-linejoin:round;stroke:rgb(15.294118%,15.686275%,13.333333%);stroke-opacity:0.8;stroke-miterlimit:10;" d="M 156.9375 202.101562 C 156.9375 205.421875 151.960938 205.421875 151.960938 202.101562 C 151.960938 198.785156 156.9375 198.785156 156.9375 202.101562 "/>
<path style="fill-rule:nonzero;fill:rgb(15.294118%,15.686275%,13.333333%);fill-opacity:0.8;stroke-width:0.708661;stroke-linecap:round;stroke-linejoin:round;stroke:rgb(15.294118%,15.686275%,13.333333%);stroke-opacity:0.8;stroke-miterlimit:10;" d="M 95.335938 224.65625 C 95.335938 227.972656 90.359375 227.972656 90.359375 224.65625 C 90.359375 221.335938 95.335938 221.335938 95.335938 224.65625 "/>
<path style="fill-rule:nonzero;fill:rgb(15.294118%,15.686275%,13.333333%);fill-opacity:0.8;stroke-width:0.708661;stroke-linecap:round;stroke-linejoin:round;stroke:rgb(15.294118%,15.686275%,13.333333%);stroke-opacity:0.8;stroke-miterlimit:10;" d="M 71.71875 156.082031 C 71.71875 159.398438 66.742188 159.398438 66.742188 156.082031 C 66.742188 152.761719 71.71875 152.761719 71.71875 156.082031 "/>
<path style="fill-rule:nonzero;fill:rgb(15.294118%,15.686275%,13.333333%);fill-opacity:0.8;stroke-width:0.708661;stroke-linecap:round;stroke-linejoin:round;stroke:rgb(15.294118%,15.686275%,13.333333%);stroke-opacity:0.8;stroke-miterlimit:10;" d="M 107.65625 182.894531 C 107.65625 186.214844 102.679688 186.214844 102.679688 182.894531 C 102.679688 179.578125 107.65625 179.578125 107.65625 182.894531 "/>
<path style="fill-rule:nonzero;fill:rgb(15.294118%,15.686275%,13.333333%);fill-opacity:0.8;stroke-width:0.708661;stroke-linecap:round;stroke-linejoin:round;stroke:rgb(15.294118%,15.686275%,13.333333%);stroke-opacity:0.8;stroke-miterlimit:10;" d="M 75.828125 192.386719 C 75.828125 195.703125 70.851562 195.703125 70.851562 192.386719 C 70.851562 189.066406 75.828125 189.066406 75.828125 192.386719 "/>
<path style="fill-rule:nonzero;fill:rgb(15.294118%,15.686275%,13.333333%);fill-opacity:0.8;stroke-width:0.708661;stroke-linecap:round;stroke-linejoin:round;stroke:rgb(15.294118%,15.686275%,13.333333%);stroke-opacity:0.8;stroke-miterlimit:10;" d="M 48.105469 265.402344 C 48.105469 268.722656 43.128906 268.722656 43.128906 265.402344 C 43.128906 262.085938 48.105469 262.085938 48.105469 265.402344 "/>
<path style="fill-rule:nonzero;fill:rgb(15.294118%,15.686275%,13.333333%);fill-opacity:0.8;stroke-width:0.708661;stroke-linecap:round;stroke-linejoin:round;stroke:rgb(15.294118%,15.686275%,13.333333%);stroke-opacity:0.8;stroke-miterlimit:10;" d="M 129.21875 160.160156 C 129.21875 163.480469 124.242188 163.480469 124.242188 160.160156 C 124.242188 156.84375 129.21875 156.84375 129.21875 160.160156 "/>
<path style="fill-rule:nonzero;fill:rgb(15.294118%,15.686275%,13.333333%);fill-opacity:0.8;stroke-width:0.708661;stroke-linecap:round;stroke-linejoin:round;stroke:rgb(15.294118%,15.686275%,13.333333%);stroke-opacity:0.8;stroke-miterlimit:10;" d="M 67.613281 129.679688 C 67.613281 132.996094 62.636719 132.996094 62.636719 129.679688 C 62.636719 126.359375 67.613281 126.359375 67.613281 129.679688 "/>
<path style="fill-rule:nonzero;fill:rgb(15.294118%,15.686275%,13.333333%);fill-opacity:0.8;stroke-width:0.708661;stroke-linecap:round;stroke-linejoin:round;stroke:rgb(15.294118%,15.686275%,13.333333%);stroke-opacity:0.8;stroke-miterlimit:10;" d="M 85.066406 196.328125 C 85.066406 199.644531 80.089844 199.644531 80.089844 196.328125 C 80.089844 193.007812 85.066406 193.007812 85.066406 196.328125 "/>
<path style="fill-rule:nonzero;fill:rgb(15.294118%,15.686275%,13.333333%);fill-opacity:0.8;stroke-width:0.708661;stroke-linecap:round;stroke-linejoin:round;stroke:rgb(15.294118%,15.686275%,13.333333%);stroke-opacity:0.8;stroke-miterlimit:10;" d="M 104.574219 101.535156 C 104.574219 104.851562 99.597656 104.851562 99.597656 101.535156 C 99.597656 98.21875 104.574219 98.21875 104.574219 101.535156 "/>
<path style="fill-rule:nonzero;fill:rgb(15.294118%,15.686275%,13.333333%);fill-opacity:0.8;stroke-width:0.708661;stroke-linecap:round;stroke-linejoin:round;stroke:rgb(15.294118%,15.686275%,13.333333%);stroke-opacity:0.8;stroke-miterlimit:10;" d="M 74.800781 230.886719 C 74.800781 234.207031 69.824219 234.207031 69.824219 230.886719 C 69.824219 227.570312 74.800781 227.570312 74.800781 230.886719 "/>
<path style="fill-rule:nonzero;fill:rgb(15.294118%,15.686275%,13.333333%);fill-opacity:0.8;stroke-width:0.708661;stroke-linecap:round;stroke-linejoin:round;stroke:rgb(15.294118%,15.686275%,13.333333%);stroke-opacity:0.8;stroke-miterlimit:10;" d="M 90.203125 241.0625 C 90.203125 244.382812 85.226562 244.382812 85.226562 241.0625 C 85.226562 237.746094 90.203125 237.746094 90.203125 241.0625 "/>
<path style="fill-rule:nonzero;fill:rgb(15.294118%,15.686275%,13.333333%);fill-opacity:0.8;stroke-width:0.708661;stroke-linecap:round;stroke-linejoin:round;stroke:rgb(15.294118%,15.686275%,13.333333%);stroke-opacity:0.8;stroke-miterlimit:10;" d="M 72.234375 245.375 C 72.234375 248.691406 67.257812 248.691406 67.257812 245.375 C 67.257812 242.054688 72.234375 242.054688 72.234375 245.375 "/>
<path style="fill-rule:nonzero;fill:rgb(15.294118%,15.686275%,13.333333%);fill-opacity:0.8;stroke-width:0.708661;stroke-linecap:round;stroke-linejoin:round;stroke:rgb(15.294118%,15.686275%,13.333333%);stroke-opacity:0.8;stroke-miterlimit:10;" d="M 89.6875 203.523438 C 89.6875 206.839844 84.710938 206.839844 84.710938 203.523438 C 84.710938 200.207031 89.6875 200.207031 89.6875 203.523438 "/>
<path style="fill-rule:nonzero;fill:rgb(15.294118%,15.686275%,13.333333%);fill-opacity:0.8;stroke-width:0.708661;stroke-linecap:round;stroke-linejoin:round;stroke:rgb(15.294118%,15.686275%,13.333333%);stroke-opacity:0.8;stroke-miterlimit:10;" d="M 208.789062 105.109375 C 208.789062 108.425781 203.8125 108.425781 203.8125 105.109375 C 203.8125 101.792969 208.789062 101.792969 208.789062 105.109375 "/>
<path style="fill-rule:nonzero;fill:rgb(15.294118%,15.686275%,13.333333%);fill-opacity:0.8;stroke-width:0.708661;stroke-linecap:round;stroke-linejoin:round;stroke:rgb(15.294118%,15.686275%,13.333333%);stroke-opacity:0.8;stroke-miterlimit:10;" d="M 112.789062 228.917969 C 112.789062 232.234375 107.8125 232.234375 107.8125 228.917969 C 107.8125 225.601562 112.789062 225.601562 112.789062 228.917969 "/>
<path style="fill-rule:nonzero;fill:rgb(15.294118%,15.686275%,13.333333%);fill-opacity:0.8;stroke-width:0.708661;stroke-linecap:round;stroke-linejoin:round;stroke:rgb(15.294118%,15.686275%,13.333333%);stroke-opacity:0.8;stroke-miterlimit:10;" d="M 81.988281 135.820312 C 81.988281 139.140625 77.011719 139.140625 77.011719 135.820312 C 77.011719 132.503906 81.988281 132.503906 81.988281 135.820312 "/>
<path style="fill-rule:nonzero;fill:rgb(15.294118%,15.686275%,13.333333%);fill-opacity:0.8;stroke-width:0.708661;stroke-linecap:round;stroke-linejoin:round;stroke:rgb(15.294118%,15.686275%,13.333333%);stroke-opacity:0.8;stroke-miterlimit:10;" d="M 102.007812 197.792969 C 102.007812 201.113281 97.03125 201.113281 97.03125 197.792969 C 97.03125 194.476562 102.007812 194.476562 102.007812 197.792969 "/>
<path style="fill-rule:nonzero;fill:rgb(15.294118%,15.686275%,13.333333%);fill-opacity:0.8;stroke-width:0.708661;stroke-linecap:round;stroke-linejoin:round;stroke:rgb(15.294118%,15.686275%,13.333333%);stroke-opacity:0.8;stroke-miterlimit:10;" d="M 107.144531 227.082031 C 107.144531 230.402344 102.167969 230.402344 102.167969 227.082031 C 102.167969 223.765625 107.144531 223.765625 107.144531 227.082031 "/>
<path style="fill-rule:nonzero;fill:rgb(15.294118%,15.686275%,13.333333%);fill-opacity:0.8;stroke-width:0.708661;stroke-linecap:round;stroke-linejoin:round;stroke:rgb(15.294118%,15.686275%,13.333333%);stroke-opacity:0.8;stroke-miterlimit:10;" d="M 276.039062 172.765625 C 276.039062 176.082031 271.0625 176.082031 271.0625 172.765625 C 271.0625 169.449219 276.039062 169.449219 276.039062 172.765625 "/>
<path style="fill-rule:nonzero;fill:rgb(15.294118%,15.686275%,13.333333%);fill-opacity:0.8;stroke-width:0.708661;stroke-linecap:round;stroke-linejoin:round;stroke:rgb(15.294118%,15.686275%,13.333333%);stroke-opacity:0.8;stroke-miterlimit:10;" d="M 86.09375 209.941406 C 86.09375 213.257812 81.117188 213.257812 81.117188 209.941406 C 81.117188 206.621094 86.09375 206.621094 86.09375 209.941406 "/>
<path style="fill-rule:nonzero;fill:rgb(15.294118%,15.686275%,13.333333%);fill-opacity:0.8;stroke-width:0.708661;stroke-linecap:round;stroke-linejoin:round;stroke:rgb(15.294118%,15.686275%,13.333333%);stroke-opacity:0.8;stroke-miterlimit:10;" d="M 129.21875 143.613281 C 129.21875 146.929688 124.242188 146.929688 124.242188 143.613281 C 124.242188 140.296875 129.21875 140.296875 129.21875 143.613281 "/>
<path style="fill-rule:nonzero;fill:rgb(15.294118%,15.686275%,13.333333%);fill-opacity:0.8;stroke-width:0.708661;stroke-linecap:round;stroke-linejoin:round;stroke:rgb(15.294118%,15.686275%,13.333333%);stroke-opacity:0.8;stroke-miterlimit:10;" d="M 130.242188 213.285156 C 130.242188 216.605469 125.265625 216.605469 125.265625 213.285156 C 125.265625 209.96875 130.242188 209.96875 130.242188 213.285156 "/>
<path style="fill-rule:nonzero;fill:rgb(15.294118%,15.686275%,13.333333%);fill-opacity:0.8;stroke-width:0.708661;stroke-linecap:round;stroke-linejoin:round;stroke:rgb(15.294118%,15.686275%,13.333333%);stroke-opacity:0.8;stroke-miterlimit:10;" d="M 190.820312 195.730469 C 190.820312 199.046875 185.84375 199.046875 185.84375 195.730469 C 185.84375 192.414062 190.820312 192.414062 190.820312 195.730469 "/>
<path style="fill-rule:nonzero;fill:rgb(15.294118%,15.686275%,13.333333%);fill-opacity:0.8;stroke-width:0.708661;stroke-linecap:round;stroke-linejoin:round;stroke:rgb(15.294118%,15.686275%,13.333333%);stroke-opacity:0.8;stroke-miterlimit:10;" d="M 124.082031 204.300781 C 124.082031 207.621094 119.105469 207.621094 119.105469 204.300781 C 119.105469 200.984375 124.082031 200.984375 124.082031 204.300781 "/>
<path style="fill-rule:nonzero;fill:rgb(15.294118%,15.686275%,13.333333%);fill-opacity:0.8;stroke-width:0.708661;stroke-linecap:round;stroke-linejoin:round;stroke:rgb(15.294118%,15.686275%,13.333333%);stroke-opacity:0.8;stroke-miterlimit:10;" d="M 94.308594 225.617188 C 94.308594 228.933594 89.332031 228.933594 89.332031 225.617188 C 89.332031 222.300781 94.308594 222.300781 94.308594 225.617188 "/>
<path style="fill-rule:nonzero;fill:rgb(15.294118%,15.686275%,13.333333%);fill-opacity:0.8;stroke-width:0.708661;stroke-linecap:round;stroke-linejoin:round;stroke:rgb(15.294118%,15.686275%,13.333333%);stroke-opacity:0.8;stroke-miterlimit:10;" d="M 82.5 170.980469 C 82.5 174.296875 77.523438 174.296875 77.523438 170.980469 C 77.523438 167.660156 82.5 167.660156 82.5 170.980469 "/>
<path style="fill-rule:nonzero;fill:rgb(15.294118%,15.686275%,13.333333%);fill-opacity:0.8;stroke-width:0.708661;stroke-linecap:round;stroke-linejoin:round;stroke:rgb(15.294118%,15.686275%,13.333333%);stroke-opacity:0.8;stroke-miterlimit:10;" d="M 134.351562 174.644531 C 134.351562 177.964844 129.375 177.964844 129.375 174.644531 C 129.375 171.328125 134.351562 171.328125 134.351562 174.644531 "/>
<path style="fill-rule:nonzero;fill:rgb(15.294118%,15.686275%,13.333333%);fill-opacity:0.8;stroke-width:0.708661;stroke-linecap:round;stroke-linejoin:round;stroke:rgb(15.294118%,15.686275%,13.333333%);stroke-opacity:0.8;stroke-miterlimit:10;" d="M 113.304688 157.824219 C 113.304688 161.140625 108.328125 161.140625 108.328125 157.824219 C 108.328125 154.503906 113.304688 154.503906 113.304688 157.824219 "/>
<path style="fill-rule:nonzero;fill:rgb(15.294118%,15.686275%,13.333333%);fill-opacity:0.8;stroke-width:0.708661;stroke-linecap:round;stroke-linejoin:round;stroke:rgb(15.294118%,15.686275%,13.333333%);stroke-opacity:0.8;stroke-miterlimit:10;" d="M 70.179688 201.734375 C 70.179688 205.054688 65.203125 205.054688 65.203125 201.734375 C 65.203125 198.417969 70.179688 198.417969 70.179688 201.734375 "/>
<path style="fill-rule:nonzero;fill:rgb(15.294118%,15.686275%,13.333333%);fill-opacity:0.8;stroke-width:0.708661;stroke-linecap:round;stroke-linejoin:round;stroke:rgb(15.294118%,15.686275%,13.333333%);stroke-opacity:0.8;stroke-miterlimit:10;" d="M 86.09375 194.769531 C 86.09375 198.085938 81.117188 198.085938 81.117188 194.769531 C 81.117188 191.449219 86.09375 191.449219 86.09375 194.769531 "/>
<path style="fill-rule:nonzero;fill:rgb(15.294118%,15.686275%,13.333333%);fill-opacity:0.8;stroke-width:0.708661;stroke-linecap:round;stroke-linejoin:round;stroke:rgb(15.294118%,15.686275%,13.333333%);stroke-opacity:0.8;stroke-miterlimit:10;" d="M 70.695312 248.125 C 70.695312 251.441406 65.71875 251.441406 65.71875 248.125 C 65.71875 244.804688 70.695312 244.804688 70.695312 248.125 "/>
<path style="fill-rule:nonzero;fill:rgb(15.294118%,15.686275%,13.333333%);fill-opacity:0.8;stroke-width:0.708661;stroke-linecap:round;stroke-linejoin:round;stroke:rgb(15.294118%,15.686275%,13.333333%);stroke-opacity:0.8;stroke-miterlimit:10;" d="M 65.046875 216.128906 C 65.046875 219.445312 60.070312 219.445312 60.070312 216.128906 C 60.070312 212.8125 65.046875 212.8125 65.046875 216.128906 "/>
<path style="fill-rule:nonzero;fill:rgb(15.294118%,15.686275%,13.333333%);fill-opacity:0.8;stroke-width:0.708661;stroke-linecap:round;stroke-linejoin:round;stroke:rgb(15.294118%,15.686275%,13.333333%);stroke-opacity:0.8;stroke-miterlimit:10;" d="M 65.046875 235.746094 C 65.046875 239.066406 60.070312 239.066406 60.070312 235.746094 C 60.070312 232.429688 65.046875 232.429688 65.046875 235.746094 "/>
<path style="fill-rule:nonzero;fill:rgb(15.294118%,15.686275%,13.333333%);fill-opacity:0.8;stroke-width:0.708661;stroke-linecap:round;stroke-linejoin:round;stroke:rgb(15.294118%,15.686275%,13.333333%);stroke-opacity:0.8;stroke-miterlimit:10;" d="M 62.480469 184.636719 C 62.480469 187.957031 57.503906 187.957031 57.503906 184.636719 C 57.503906 181.320312 62.480469 181.320312 62.480469 184.636719 "/>
<path style="fill-rule:nonzero;fill:rgb(15.294118%,15.686275%,13.333333%);fill-opacity:0.8;stroke-width:0.708661;stroke-linecap:round;stroke-linejoin:round;stroke:rgb(15.294118%,15.686275%,13.333333%);stroke-opacity:0.8;stroke-miterlimit:10;" d="M 28.085938 241.890625 C 28.085938 245.207031 23.109375 245.207031 23.109375 241.890625 C 23.109375 238.570312 28.085938 238.570312 28.085938 241.890625 "/>
<path style="fill-rule:nonzero;fill:rgb(15.294118%,15.686275%,13.333333%);fill-opacity:0.8;stroke-width:0.708661;stroke-linecap:round;stroke-linejoin:round;stroke:rgb(15.294118%,15.686275%,13.333333%);stroke-opacity:0.8;stroke-miterlimit:10;" d="M 58.886719 227.542969 C 58.886719 230.859375 53.910156 230.859375 53.910156 227.542969 C 53.910156 224.222656 58.886719 224.222656 58.886719 227.542969 "/>
<path style="fill-rule:nonzero;fill:rgb(15.294118%,15.686275%,13.333333%);fill-opacity:0.8;stroke-width:0.708661;stroke-linecap:round;stroke-linejoin:round;stroke:rgb(15.294118%,15.686275%,13.333333%);stroke-opacity:0.8;stroke-miterlimit:10;" d="M 68.128906 154.066406 C 68.128906 157.382812 63.152344 157.382812 63.152344 154.066406 C 63.152344 150.746094 68.128906 150.746094 68.128906 154.066406 "/>
<path style="fill-rule:nonzero;fill:rgb(15.294118%,15.686275%,13.333333%);fill-opacity:0.8;stroke-width:0.708661;stroke-linecap:round;stroke-linejoin:round;stroke:rgb(15.294118%,15.686275%,13.333333%);stroke-opacity:0.8;stroke-miterlimit:10;" d="M 82.5 223.785156 C 82.5 227.101562 77.523438 227.101562 77.523438 223.785156 C 77.523438 220.464844 82.5 220.464844 82.5 223.785156 "/>
<path style="fill-rule:nonzero;fill:rgb(15.294118%,15.686275%,13.333333%);fill-opacity:0.8;stroke-width:0.708661;stroke-linecap:round;stroke-linejoin:round;stroke:rgb(15.294118%,15.686275%,13.333333%);stroke-opacity:0.8;stroke-miterlimit:10;" d="M 71.71875 218.789062 C 71.71875 222.105469 66.742188 222.105469 66.742188 218.789062 C 66.742188 215.46875 71.71875 215.46875 71.71875 218.789062 "/>
<path style="fill-rule:nonzero;fill:rgb(15.294118%,15.686275%,13.333333%);fill-opacity:0.8;stroke-width:0.708661;stroke-linecap:round;stroke-linejoin:round;stroke:rgb(15.294118%,15.686275%,13.333333%);stroke-opacity:0.8;stroke-miterlimit:10;" d="M 119.464844 183.261719 C 119.464844 186.582031 114.488281 186.582031 114.488281 183.261719 C 114.488281 179.945312 119.464844 179.945312 119.464844 183.261719 "/>
<path style="fill-rule:nonzero;fill:rgb(15.294118%,15.686275%,13.333333%);fill-opacity:0.8;stroke-width:0.708661;stroke-linecap:round;stroke-linejoin:round;stroke:rgb(15.294118%,15.686275%,13.333333%);stroke-opacity:0.8;stroke-miterlimit:10;" d="M 83.527344 211.222656 C 83.527344 214.542969 78.550781 214.542969 78.550781 211.222656 C 78.550781 207.90625 83.527344 207.90625 83.527344 211.222656 "/>
<path style="fill-rule:nonzero;fill:rgb(15.294118%,15.686275%,13.333333%);fill-opacity:0.8;stroke-width:0.708661;stroke-linecap:round;stroke-linejoin:round;stroke:rgb(15.294118%,15.686275%,13.333333%);stroke-opacity:0.8;stroke-miterlimit:10;" d="M 84.042969 204.074219 C 84.042969 207.390625 79.066406 207.390625 79.066406 204.074219 C 79.066406 200.753906 84.042969 200.753906 84.042969 204.074219 "/>
<path style="fill-rule:nonzero;fill:rgb(15.294118%,15.686275%,13.333333%);fill-opacity:0.8;stroke-width:0.708661;stroke-linecap:round;stroke-linejoin:round;stroke:rgb(15.294118%,15.686275%,13.333333%);stroke-opacity:0.8;stroke-miterlimit:10;" d="M 61.453125 206.914062 C 61.453125 210.234375 56.476562 210.234375 56.476562 206.914062 C 56.476562 203.597656 61.453125 203.597656 61.453125 206.914062 "/>
<path style="fill-rule:nonzero;fill:rgb(15.294118%,15.686275%,13.333333%);fill-opacity:0.8;stroke-width:0.708661;stroke-linecap:round;stroke-linejoin:round;stroke:rgb(15.294118%,15.686275%,13.333333%);stroke-opacity:0.8;stroke-miterlimit:10;" d="M 90.714844 271.226562 C 90.714844 274.542969 85.738281 274.542969 85.738281 271.226562 C 85.738281 267.90625 90.714844 267.90625 90.714844 271.226562 "/>
<path style="fill-rule:nonzero;fill:rgb(15.294118%,15.686275%,13.333333%);fill-opacity:0.8;stroke-width:0.708661;stroke-linecap:round;stroke-linejoin:round;stroke:rgb(15.294118%,15.686275%,13.333333%);stroke-opacity:0.8;stroke-miterlimit:10;" d="M 52.726562 31.632812 C 52.726562 34.949219 47.75 34.949219 47.75 31.632812 C 47.75 28.3125 52.726562 28.3125 52.726562 31.632812 "/>
<path style="fill-rule:nonzero;fill:rgb(15.294118%,15.686275%,13.333333%);fill-opacity:0.8;stroke-width:0.708661;stroke-linecap:round;stroke-linejoin:round;stroke:rgb(15.294118%,15.686275%,13.333333%);stroke-opacity:0.8;stroke-miterlimit:10;" d="M 98.929688 148.425781 C 98.929688 151.746094 93.953125 151.746094 93.953125 148.425781 C 93.953125 145.109375 98.929688 145.109375 98.929688 148.425781 "/>
<g clip-path="url(#clip1)" clip-rule="nonzero">
<path style="fill:none;stroke-width:2.133957;stroke-linecap:butt;stroke-linejoin:round;stroke:rgb(41.568627%,35.294118%,80.392157%);stroke-opacity:1;stroke-miterlimit:10;" d="M -374.082031 261.785156 L 772.820312 81.960938 "/>
</g>
<path style=" stroke:none;fill-rule:nonzero;fill:rgb(30.196078%,30.196078%,30.196078%);fill-opacity:1;" d="M 21.171875 308.589844 L 21.167969 308.941406 L 21.15625 309.28125 L 21.140625 309.609375 L 21.117188 309.925781 L 21.085938 310.234375 L 21.046875 310.527344 L 21.003906 310.8125 L 20.953125 311.082031 L 20.894531 311.34375 L 20.828125 311.59375 L 20.757812 311.832031 L 20.683594 312.0625 L 20.605469 312.28125 L 20.519531 312.492188 L 20.429688 312.695312 L 20.335938 312.886719 L 20.238281 313.070312 L 20.132812 313.242188 L 20.019531 313.40625 L 19.90625 313.5625 L 19.789062 313.707031 L 19.664062 313.84375 L 19.539062 313.972656 L 19.40625 314.09375 L 19.273438 314.207031 L 19.132812 314.308594 L 18.992188 314.402344 L 18.84375 314.488281 L 18.691406 314.566406 L 18.535156 314.636719 L 18.375 314.699219 L 18.214844 314.753906 L 18.050781 314.800781 L 17.886719 314.84375 L 17.71875 314.878906 L 17.546875 314.910156 L 17.375 314.933594 L 17.203125 314.949219 L 17.027344 314.957031 L 16.847656 314.960938 L 16.667969 314.957031 L 16.488281 314.949219 L 16.316406 314.933594 L 16.144531 314.910156 L 15.972656 314.878906 L 15.804688 314.84375 L 15.640625 314.800781 L 15.476562 314.753906 L 15.316406 314.699219 L 15.160156 314.636719 L 15.003906 314.566406 L 14.855469 314.488281 L 14.707031 314.402344 L 14.566406 314.308594 L 14.429688 314.207031 L 14.292969 314.09375 L 14.164062 313.972656 L 14.039062 313.84375 L 13.914062 313.707031 L 13.796875 313.5625 L 13.6875 313.410156 L 13.578125 313.246094 L 13.476562 313.074219 L 13.378906 312.890625 L 13.285156 312.699219 L 13.199219 312.5 L 13.113281 312.289062 L 13.035156 312.070312 L 12.960938 311.839844 L 12.890625 311.605469 L 12.832031 311.351562 L 12.773438 311.09375 L 12.726562 310.820312 L 12.683594 310.535156 L 12.648438 310.238281 L 12.617188 309.933594 L 12.597656 309.613281 L 12.582031 309.285156 L 12.570312 308.941406 L 12.566406 308.589844 L 12.570312 308.222656 L 12.582031 307.867188 L 12.597656 307.523438 L 12.617188 307.195312 L 12.648438 306.878906 L 12.683594 306.578125 L 12.726562 306.285156 L 12.773438 306.011719 L 12.832031 305.746094 L 12.890625 305.496094 L 12.960938 305.253906 L 13.035156 305.023438 L 13.113281 304.800781 L 13.199219 304.589844 L 13.289062 304.390625 L 13.382812 304.199219 L 13.480469 304.019531 L 13.585938 303.847656 L 13.691406 303.6875 L 13.804688 303.535156 L 13.925781 303.394531 L 14.046875 303.261719 L 14.171875 303.136719 L 14.304688 303.023438 L 14.4375 302.914062 L 14.578125 302.816406 L 14.722656 302.730469 L 14.871094 302.648438 L 15.019531 302.578125 L 15.175781 302.515625 L 15.335938 302.457031 L 15.5 302.40625 L 15.664062 302.363281 L 15.832031 302.324219 L 16.003906 302.292969 L 16.175781 302.265625 L 16.355469 302.242188 L 16.53125 302.230469 L 16.714844 302.21875 L 17.078125 302.21875 L 17.421875 302.242188 L 17.59375 302.265625 L 17.757812 302.292969 L 17.925781 302.324219 L 18.085938 302.363281 L 18.246094 302.40625 L 18.40625 302.457031 L 18.5625 302.515625 L 18.714844 302.578125 L 18.867188 302.648438 L 19.011719 302.730469 L 19.15625 302.816406 L 19.292969 302.914062 L 19.425781 303.023438 L 19.558594 303.136719 L 19.683594 303.261719 L 19.804688 303.394531 L 19.921875 303.535156 L 20.035156 303.6875 L 20.144531 303.847656 L 20.25 304.019531 L 20.347656 304.199219 L 20.441406 304.390625 L 20.53125 304.589844 L 20.613281 304.800781 L 20.695312 305.023438 L 20.769531 305.253906 L 20.835938 305.496094 L 20.902344 305.746094 L 20.957031 306.011719 L 21.007812 306.285156 L 21.050781 306.578125 L 21.089844 306.878906 L 21.117188 307.195312 L 21.140625 307.523438 L 21.160156 307.867188 L 21.167969 308.222656 Z M 19.5625 308.589844 L 19.5625 308.296875 L 19.554688 308.019531 L 19.546875 307.75 L 19.535156 307.488281 L 19.519531 307.238281 L 19.5 306.996094 L 19.476562 306.765625 L 19.449219 306.546875 L 19.421875 306.335938 L 19.386719 306.136719 L 19.351562 305.945312 L 19.308594 305.757812 L 19.265625 305.582031 L 19.21875 305.414062 L 19.167969 305.253906 L 19.117188 305.101562 L 19.058594 304.957031 L 19 304.820312 L 18.9375 304.691406 L 18.796875 304.457031 L 18.726562 304.351562 L 18.648438 304.25 L 18.570312 304.15625 L 18.488281 304.070312 L 18.402344 303.992188 L 18.3125 303.921875 L 18.21875 303.855469 L 18.125 303.796875 L 18.023438 303.746094 L 17.925781 303.699219 L 17.824219 303.65625 L 17.71875 303.621094 L 17.609375 303.589844 L 17.496094 303.5625 L 17.382812 303.539062 L 17.265625 303.523438 L 17.148438 303.511719 L 17.023438 303.503906 L 16.898438 303.5 L 16.769531 303.503906 L 16.640625 303.511719 L 16.511719 303.523438 L 16.390625 303.539062 L 16.273438 303.5625 L 16.15625 303.589844 L 16.042969 303.621094 L 15.933594 303.65625 L 15.824219 303.699219 L 15.722656 303.746094 L 15.621094 303.796875 L 15.523438 303.859375 L 15.429688 303.925781 L 15.339844 303.996094 L 15.253906 304.078125 L 15.167969 304.164062 L 15.085938 304.257812 L 15.007812 304.359375 L 14.933594 304.464844 L 14.859375 304.582031 L 14.792969 304.699219 L 14.730469 304.828125 L 14.671875 304.964844 L 14.613281 305.109375 L 14.558594 305.261719 L 14.511719 305.421875 L 14.464844 305.589844 L 14.417969 305.769531 L 14.378906 305.953125 L 14.34375 306.144531 L 14.308594 306.34375 L 14.277344 306.554688 L 14.253906 306.773438 L 14.230469 307.003906 L 14.210938 307.246094 L 14.195312 307.492188 L 14.183594 307.753906 L 14.171875 308.023438 L 14.167969 308.300781 L 14.167969 308.871094 L 14.171875 309.140625 L 14.183594 309.402344 L 14.195312 309.65625 L 14.210938 309.902344 L 14.230469 310.136719 L 14.253906 310.363281 L 14.277344 310.582031 L 14.308594 310.789062 L 14.34375 310.988281 L 14.382812 311.179688 L 14.421875 311.363281 L 14.46875 311.539062 L 14.515625 311.707031 L 14.566406 311.871094 L 14.621094 312.023438 L 14.679688 312.167969 L 14.738281 312.308594 L 14.804688 312.4375 L 14.871094 312.5625 L 14.941406 312.675781 L 15.015625 312.785156 L 15.09375 312.886719 L 15.175781 312.980469 L 15.257812 313.070312 L 15.34375 313.152344 L 15.433594 313.226562 L 15.527344 313.296875 L 15.625 313.359375 L 15.722656 313.414062 L 15.824219 313.460938 L 15.929688 313.507812 L 16.035156 313.542969 L 16.144531 313.578125 L 16.257812 313.605469 L 16.375 313.628906 L 16.492188 313.644531 L 16.613281 313.660156 L 16.738281 313.667969 L 16.988281 313.667969 L 17.109375 313.660156 L 17.34375 313.628906 L 17.457031 313.605469 L 17.570312 313.578125 L 17.679688 313.542969 L 17.785156 313.507812 L 17.988281 313.414062 L 18.089844 313.359375 L 18.183594 313.296875 L 18.277344 313.226562 L 18.367188 313.152344 L 18.453125 313.070312 L 18.535156 312.980469 L 18.613281 312.886719 L 18.691406 312.785156 L 18.761719 312.675781 L 18.832031 312.5625 L 18.902344 312.4375 L 18.96875 312.308594 L 19.03125 312.167969 L 19.089844 312.023438 L 19.144531 311.871094 L 19.195312 311.707031 L 19.242188 311.539062 L 19.289062 311.363281 L 19.332031 311.179688 L 19.371094 310.988281 L 19.40625 310.789062 L 19.4375 310.582031 L 19.46875 310.363281 L 19.492188 310.136719 L 19.515625 309.902344 L 19.53125 309.65625 L 19.546875 309.402344 L 19.554688 309.140625 L 19.5625 308.871094 Z M 19.5625 308.589844 "/>
<path style=" stroke:none;fill-rule:nonzero;fill:rgb(30.196078%,30.196078%,30.196078%);fill-opacity:1;" d="M 115.441406 314.785156 L 115.441406 313.667969 L 115.535156 313.464844 L 115.628906 313.265625 L 115.726562 313.074219 L 115.832031 312.886719 L 115.9375 312.703125 L 116.050781 312.523438 L 116.164062 312.351562 L 116.28125 312.179688 L 116.40625 312.015625 L 116.53125 311.859375 L 116.664062 311.703125 L 116.792969 311.546875 L 116.925781 311.398438 L 117.0625 311.25 L 117.199219 311.105469 L 117.335938 310.964844 L 117.472656 310.828125 L 117.753906 310.5625 L 117.894531 310.433594 L 118.035156 310.308594 L 118.179688 310.183594 L 118.320312 310.058594 L 118.601562 309.816406 L 118.882812 309.582031 L 119.023438 309.46875 L 119.160156 309.359375 L 119.300781 309.25 L 119.710938 308.921875 L 119.96875 308.703125 L 120.09375 308.59375 L 120.335938 308.375 L 120.453125 308.265625 L 120.566406 308.160156 L 120.675781 308.046875 L 120.78125 307.9375 L 120.882812 307.828125 L 120.980469 307.714844 L 121.074219 307.601562 L 121.160156 307.484375 L 121.246094 307.371094 L 121.324219 307.253906 L 121.398438 307.132812 L 121.472656 307.015625 L 121.539062 306.894531 L 121.597656 306.769531 L 121.652344 306.644531 L 121.695312 306.511719 L 121.734375 306.378906 L 121.765625 306.242188 L 121.792969 306.101562 L 121.808594 305.957031 L 121.820312 305.8125 L 121.824219 305.664062 L 121.820312 305.558594 L 121.816406 305.457031 L 121.808594 305.359375 L 121.796875 305.261719 L 121.78125 305.167969 L 121.765625 305.078125 L 121.746094 304.988281 L 121.722656 304.902344 L 121.695312 304.820312 L 121.664062 304.738281 L 121.632812 304.660156 L 121.59375 304.582031 L 121.558594 304.507812 L 121.472656 304.367188 L 121.425781 304.300781 L 121.375 304.238281 L 121.320312 304.175781 L 121.265625 304.117188 L 121.207031 304.0625 L 121.144531 304.007812 L 121.082031 303.960938 L 121.015625 303.910156 L 120.949219 303.867188 L 120.878906 303.824219 L 120.804688 303.785156 L 120.730469 303.75 L 120.652344 303.714844 L 120.488281 303.660156 L 120.402344 303.632812 L 120.230469 303.585938 L 120.140625 303.566406 L 120.050781 303.554688 L 119.957031 303.539062 L 119.859375 303.53125 L 119.765625 303.523438 L 119.664062 303.519531 L 119.46875 303.519531 L 119.375 303.523438 L 119.285156 303.53125 L 119.191406 303.539062 L 119.101562 303.550781 L 119.011719 303.566406 L 118.925781 303.582031 L 118.839844 303.601562 L 118.667969 303.648438 L 118.585938 303.675781 L 118.503906 303.707031 L 118.425781 303.742188 L 118.277344 303.8125 L 118.203125 303.855469 L 118.132812 303.898438 L 118.0625 303.945312 L 117.996094 303.992188 L 117.929688 304.046875 L 117.867188 304.097656 L 117.804688 304.15625 L 117.746094 304.214844 L 117.6875 304.277344 L 117.632812 304.339844 L 117.578125 304.410156 L 117.53125 304.480469 L 117.480469 304.550781 L 117.4375 304.625 L 117.394531 304.703125 L 117.355469 304.78125 L 117.316406 304.863281 L 117.253906 305.035156 L 117.199219 305.214844 L 117.179688 305.308594 L 117.160156 305.40625 L 117.128906 305.609375 L 115.511719 305.460938 L 115.550781 305.195312 L 115.578125 305.066406 L 115.609375 304.9375 L 115.644531 304.8125 L 115.683594 304.6875 L 115.726562 304.5625 L 115.773438 304.441406 L 115.824219 304.320312 L 115.941406 304.085938 L 116.007812 303.972656 L 116.074219 303.863281 L 116.148438 303.757812 L 116.226562 303.652344 L 116.308594 303.550781 L 116.394531 303.453125 L 116.484375 303.355469 L 116.679688 303.175781 L 116.785156 303.085938 L 117.003906 302.921875 L 117.121094 302.847656 L 117.242188 302.773438 L 117.492188 302.640625 L 117.625 302.582031 L 117.761719 302.523438 L 117.902344 302.472656 L 118.050781 302.421875 L 118.199219 302.378906 L 118.355469 302.339844 L 118.515625 302.308594 L 118.679688 302.28125 L 118.847656 302.257812 L 119.019531 302.238281 L 119.195312 302.226562 L 119.378906 302.21875 L 119.746094 302.21875 L 119.925781 302.226562 L 120.097656 302.238281 L 120.269531 302.253906 L 120.4375 302.273438 L 120.597656 302.296875 L 120.757812 302.324219 L 121.0625 302.394531 L 121.207031 302.4375 L 121.488281 302.53125 L 121.621094 302.585938 L 121.746094 302.644531 L 121.871094 302.710938 L 121.988281 302.777344 L 122.105469 302.847656 L 122.214844 302.921875 L 122.320312 303.003906 L 122.421875 303.085938 L 122.519531 303.175781 L 122.609375 303.265625 L 122.699219 303.363281 L 122.863281 303.566406 L 122.9375 303.675781 L 123.003906 303.789062 L 123.070312 303.90625 L 123.128906 304.027344 L 123.183594 304.152344 L 123.234375 304.277344 L 123.28125 304.410156 L 123.320312 304.546875 L 123.355469 304.6875 L 123.382812 304.832031 L 123.40625 304.980469 L 123.425781 305.132812 L 123.4375 305.285156 L 123.445312 305.445312 L 123.449219 305.609375 L 123.445312 305.734375 L 123.441406 305.855469 L 123.429688 305.976562 L 123.390625 306.21875 L 123.367188 306.335938 L 123.335938 306.453125 L 123.300781 306.570312 L 123.261719 306.683594 L 123.21875 306.796875 L 123.175781 306.90625 L 123.125 307.019531 L 123.074219 307.128906 L 123.019531 307.238281 L 122.960938 307.34375 L 122.898438 307.453125 L 122.835938 307.558594 L 122.765625 307.664062 L 122.695312 307.765625 L 122.546875 307.96875 L 122.390625 308.171875 L 122.308594 308.269531 L 122.222656 308.371094 L 122.136719 308.46875 L 122.046875 308.566406 L 121.953125 308.660156 L 121.859375 308.757812 L 121.761719 308.851562 L 121.664062 308.949219 L 121.257812 309.324219 L 121.15625 309.414062 L 120.945312 309.601562 L 120.839844 309.691406 L 120.734375 309.785156 L 120.625 309.875 L 120.519531 309.964844 L 120.300781 310.144531 L 120.195312 310.234375 L 120.085938 310.320312 L 119.976562 310.410156 L 119.871094 310.5 L 119.542969 310.769531 L 119.4375 310.855469 L 119.226562 311.035156 L 119.121094 311.121094 L 118.917969 311.300781 L 118.625 311.570312 L 118.4375 311.75 L 118.257812 311.929688 L 118.171875 312.019531 L 118.089844 312.113281 L 118.007812 312.203125 L 117.925781 312.296875 L 117.769531 312.484375 L 117.695312 312.574219 L 117.625 312.667969 L 117.558594 312.761719 L 117.433594 312.949219 L 117.324219 313.144531 L 117.273438 313.242188 L 117.226562 313.339844 L 117.183594 313.441406 L 123.640625 313.441406 L 123.640625 314.785156 Z M 115.441406 314.785156 "/>
<path style=" stroke:none;fill-rule:nonzero;fill:rgb(30.196078%,30.196078%,30.196078%);fill-opacity:1;" d="M 224.953125 311.980469 L 224.953125 314.785156 L 223.457031 314.785156 L 223.457031 311.980469 L 217.621094 311.980469 L 217.621094 310.75 L 223.292969 302.402344 L 224.953125 302.402344 L 224.953125 310.734375 L 226.691406 310.734375 L 226.691406 311.980469 Z M 223.457031 304.1875 L 223.453125 304.195312 L 223.449219 304.207031 L 223.441406 304.21875 L 223.4375 304.234375 L 223.425781 304.25 L 223.417969 304.269531 L 223.40625 304.289062 L 223.382812 304.335938 L 223.371094 304.363281 L 223.339844 304.410156 L 223.328125 304.4375 L 223.296875 304.492188 L 223.28125 304.523438 L 223.261719 304.550781 L 223.230469 304.613281 L 223.210938 304.644531 L 223.195312 304.675781 L 223.175781 304.707031 L 223.160156 304.738281 L 223.140625 304.769531 L 223.121094 304.804688 L 223.101562 304.835938 L 223.085938 304.867188 L 223.066406 304.902344 L 223.046875 304.933594 L 223.027344 304.96875 L 223.011719 305 L 222.992188 305.027344 L 222.976562 305.058594 L 222.929688 305.140625 L 222.882812 305.210938 L 222.871094 305.230469 L 219.695312 309.90625 L 219.6875 309.921875 L 219.675781 309.9375 L 219.667969 309.953125 L 219.652344 309.96875 L 219.628906 310.007812 L 219.597656 310.046875 L 219.566406 310.09375 L 219.546875 310.113281 L 219.484375 310.207031 L 219.464844 310.230469 L 219.449219 310.257812 L 219.433594 310.28125 L 219.414062 310.304688 L 219.398438 310.328125 L 219.378906 310.351562 L 219.363281 310.375 L 219.34375 310.398438 L 219.328125 310.421875 L 219.308594 310.445312 L 219.292969 310.464844 L 219.273438 310.488281 L 219.257812 310.511719 L 219.238281 310.535156 L 219.222656 310.558594 L 219.203125 310.578125 L 219.1875 310.601562 L 219.15625 310.640625 L 219.144531 310.660156 L 219.128906 310.675781 L 219.105469 310.707031 L 219.09375 310.71875 L 219.082031 310.734375 L 223.457031 310.734375 Z M 223.457031 304.1875 "/>
<path style=" stroke:none;fill-rule:nonzero;fill:rgb(30.196078%,30.196078%,30.196078%);fill-opacity:1;" d="M 329.101562 310.734375 L 329.097656 310.917969 L 329.089844 311.101562 L 329.078125 311.277344 L 329.058594 311.453125 L 329.035156 311.628906 L 329.007812 311.796875 L 328.972656 311.964844 L 328.933594 312.128906 L 328.886719 312.289062 L 328.835938 312.449219 L 328.785156 312.601562 L 328.726562 312.75 L 328.59375 313.03125 L 328.519531 313.167969 L 328.441406 313.300781 L 328.355469 313.425781 L 328.265625 313.550781 L 328.171875 313.667969 L 328.074219 313.785156 L 327.863281 313.996094 L 327.75 314.09375 L 327.632812 314.1875 L 327.511719 314.277344 L 327.382812 314.363281 L 327.25 314.441406 L 327.113281 314.515625 L 326.972656 314.585938 L 326.824219 314.652344 L 326.671875 314.710938 L 326.515625 314.765625 L 326.355469 314.808594 L 326.191406 314.851562 L 326.019531 314.882812 L 325.847656 314.910156 L 325.667969 314.933594 L 325.484375 314.949219 L 325.296875 314.957031 L 325.101562 314.960938 L 324.890625 314.957031 L 324.679688 314.945312 L 324.476562 314.921875 L 324.28125 314.894531 L 324.089844 314.859375 L 323.902344 314.8125 L 323.722656 314.757812 L 323.546875 314.695312 L 323.378906 314.625 L 323.210938 314.546875 L 323.054688 314.460938 L 322.898438 314.367188 L 322.753906 314.269531 L 322.609375 314.160156 L 322.472656 314.042969 L 322.339844 313.921875 L 322.214844 313.792969 L 322.09375 313.65625 L 321.976562 313.511719 L 321.867188 313.363281 L 321.761719 313.203125 L 321.664062 313.035156 L 321.570312 312.859375 L 321.480469 312.679688 L 321.398438 312.492188 L 321.320312 312.300781 L 321.246094 312.097656 L 321.179688 311.890625 L 321.117188 311.675781 L 321.058594 311.453125 L 321.007812 311.222656 L 320.964844 310.988281 L 320.925781 310.746094 L 320.890625 310.496094 L 320.863281 310.242188 L 320.839844 309.984375 L 320.820312 309.714844 L 320.804688 309.441406 L 320.796875 309.164062 L 320.796875 308.550781 L 320.808594 308.234375 L 320.824219 307.925781 L 320.84375 307.621094 L 320.871094 307.328125 L 320.902344 307.042969 L 320.941406 306.765625 L 320.988281 306.492188 L 321.039062 306.230469 L 321.09375 305.980469 L 321.160156 305.734375 L 321.226562 305.496094 L 321.304688 305.265625 L 321.382812 305.046875 L 321.46875 304.832031 L 321.558594 304.628906 L 321.65625 304.433594 L 321.753906 304.246094 L 321.863281 304.066406 L 321.972656 303.894531 L 322.089844 303.734375 L 322.210938 303.578125 L 322.339844 303.433594 L 322.46875 303.292969 L 322.605469 303.164062 L 322.746094 303.042969 L 322.894531 302.929688 L 323.046875 302.824219 L 323.203125 302.726562 L 323.363281 302.640625 L 323.53125 302.558594 L 323.699219 302.488281 L 323.875 302.421875 L 324.058594 302.367188 L 324.242188 302.324219 L 324.429688 302.285156 L 324.621094 302.253906 L 324.820312 302.234375 L 325.019531 302.222656 L 325.226562 302.21875 L 325.351562 302.21875 L 325.476562 302.222656 L 325.71875 302.238281 L 325.839844 302.25 L 326.074219 302.28125 L 326.1875 302.300781 L 326.300781 302.324219 L 326.410156 302.347656 L 326.523438 302.375 L 326.628906 302.40625 L 326.734375 302.441406 L 326.839844 302.480469 L 326.9375 302.523438 L 327.039062 302.566406 L 327.136719 302.613281 L 327.324219 302.722656 L 327.503906 302.839844 L 327.59375 302.902344 L 327.679688 302.972656 L 327.761719 303.042969 L 327.84375 303.117188 L 327.921875 303.195312 L 328.070312 303.367188 L 328.144531 303.457031 L 328.214844 303.554688 L 328.28125 303.652344 L 328.34375 303.753906 L 328.40625 303.863281 L 328.464844 303.976562 L 328.519531 304.089844 L 328.574219 304.210938 L 328.625 304.335938 L 328.71875 304.601562 L 328.757812 304.738281 L 327.246094 305.011719 L 327.195312 304.855469 L 327.136719 304.710938 L 327.074219 304.570312 L 327.003906 304.445312 L 326.925781 304.324219 L 326.84375 304.214844 L 326.757812 304.113281 L 326.660156 304.019531 L 326.5625 303.933594 L 326.457031 303.859375 L 326.347656 303.792969 L 326.234375 303.730469 L 326.117188 303.675781 L 326 303.628906 L 325.875 303.589844 L 325.75 303.558594 L 325.621094 303.53125 L 325.484375 303.515625 L 325.347656 303.503906 L 325.207031 303.5 L 325.078125 303.503906 L 324.953125 303.511719 L 324.828125 303.527344 L 324.707031 303.550781 L 324.589844 303.578125 L 324.472656 303.609375 L 324.246094 303.695312 L 324.136719 303.75 L 324.03125 303.808594 L 323.925781 303.871094 L 323.824219 303.941406 L 323.726562 304.019531 L 323.632812 304.101562 L 323.542969 304.191406 L 323.453125 304.289062 L 323.371094 304.390625 L 323.289062 304.496094 L 323.210938 304.609375 L 323.132812 304.730469 L 323.0625 304.855469 L 322.992188 304.984375 L 322.925781 305.121094 L 322.863281 305.265625 L 322.804688 305.417969 L 322.75 305.570312 L 322.699219 305.734375 L 322.648438 305.902344 L 322.605469 306.078125 L 322.5625 306.261719 L 322.527344 306.449219 L 322.492188 306.640625 L 322.464844 306.839844 L 322.4375 307.046875 L 322.417969 307.257812 L 322.398438 307.476562 L 322.386719 307.703125 L 322.375 307.933594 L 322.371094 308.171875 L 322.367188 308.414062 L 322.457031 308.257812 L 322.554688 308.109375 L 322.660156 307.96875 L 322.769531 307.835938 L 322.886719 307.710938 L 323.011719 307.59375 L 323.144531 307.484375 L 323.28125 307.382812 L 323.429688 307.285156 L 323.582031 307.199219 L 323.742188 307.121094 L 323.902344 307.046875 L 324.070312 306.984375 L 324.246094 306.929688 L 324.421875 306.882812 L 324.601562 306.847656 L 324.789062 306.816406 L 324.980469 306.796875 L 325.175781 306.78125 L 325.375 306.777344 L 325.542969 306.78125 L 325.707031 306.789062 L 325.867188 306.804688 L 326.023438 306.820312 L 326.179688 306.847656 L 326.332031 306.875 L 326.480469 306.910156 L 326.625 306.953125 L 326.765625 307 L 326.902344 307.050781 L 327.039062 307.109375 L 327.171875 307.167969 L 327.421875 307.308594 L 327.539062 307.386719 L 327.652344 307.464844 L 327.765625 307.554688 L 327.871094 307.644531 L 327.972656 307.742188 L 328.074219 307.84375 L 328.167969 307.945312 L 328.261719 308.054688 L 328.347656 308.167969 L 328.429688 308.285156 L 328.507812 308.410156 L 328.582031 308.535156 L 328.648438 308.667969 L 328.714844 308.804688 L 328.773438 308.945312 L 328.828125 309.089844 L 328.878906 309.238281 L 328.925781 309.390625 L 328.96875 309.542969 L 329.003906 309.703125 L 329.035156 309.867188 L 329.058594 310.03125 L 329.078125 310.203125 L 329.089844 310.375 L 329.097656 310.550781 Z M 327.492188 310.804688 L 327.492188 310.675781 L 327.488281 310.550781 L 327.480469 310.429688 L 327.46875 310.308594 L 327.453125 310.191406 L 327.4375 310.078125 L 327.414062 309.964844 L 327.390625 309.855469 L 327.335938 309.644531 L 327.265625 309.441406 L 327.226562 309.347656 L 327.183594 309.253906 L 327.136719 309.164062 L 327.089844 309.078125 L 326.980469 308.914062 L 326.921875 308.839844 L 326.796875 308.691406 L 326.65625 308.558594 L 326.582031 308.496094 L 326.507812 308.441406 L 326.425781 308.386719 L 326.34375 308.335938 L 326.257812 308.285156 L 326.167969 308.242188 L 326.078125 308.203125 L 325.984375 308.164062 L 325.886719 308.128906 L 325.785156 308.097656 L 325.574219 308.050781 L 325.464844 308.03125 L 325.238281 308.007812 L 324.996094 308 L 324.910156 308 L 324.824219 308.003906 L 324.652344 308.019531 L 324.5625 308.03125 L 324.476562 308.046875 L 324.390625 308.066406 L 324.300781 308.085938 L 324.214844 308.105469 L 324.125 308.132812 L 324.039062 308.15625 L 323.953125 308.1875 L 323.789062 308.257812 L 323.707031 308.296875 L 323.628906 308.339844 L 323.550781 308.386719 L 323.472656 308.4375 L 323.398438 308.488281 L 323.328125 308.546875 L 323.257812 308.601562 L 323.191406 308.664062 L 323.128906 308.730469 L 323.066406 308.800781 L 323.007812 308.871094 L 322.949219 308.949219 L 322.894531 309.027344 L 322.792969 309.199219 L 322.746094 309.292969 L 322.707031 309.386719 L 322.667969 309.488281 L 322.636719 309.589844 L 322.605469 309.695312 L 322.582031 309.808594 L 322.5625 309.921875 L 322.546875 310.042969 L 322.535156 310.167969 L 322.53125 310.292969 L 322.527344 310.425781 L 322.527344 310.5625 L 322.542969 310.828125 L 322.554688 310.960938 L 322.570312 311.089844 L 322.589844 311.21875 L 322.613281 311.34375 L 322.640625 311.464844 L 322.667969 311.589844 L 322.703125 311.710938 L 322.738281 311.824219 L 322.78125 311.9375 L 322.820312 312.050781 L 322.867188 312.15625 L 322.917969 312.261719 L 322.96875 312.363281 L 323.023438 312.460938 L 323.078125 312.554688 L 323.140625 312.648438 L 323.203125 312.738281 L 323.273438 312.824219 L 323.34375 312.90625 L 323.417969 312.984375 L 323.492188 313.058594 L 323.570312 313.128906 L 323.652344 313.199219 L 323.734375 313.261719 L 323.824219 313.324219 L 323.910156 313.378906 L 324.003906 313.433594 L 324.097656 313.480469 L 324.195312 313.523438 L 324.292969 313.5625 L 324.394531 313.59375 L 324.5 313.621094 L 324.605469 313.644531 L 324.710938 313.664062 L 324.820312 313.675781 L 324.933594 313.683594 L 325.050781 313.6875 L 325.164062 313.683594 L 325.273438 313.679688 L 325.382812 313.667969 L 325.488281 313.65625 L 325.691406 313.617188 L 325.789062 313.59375 L 325.886719 313.5625 L 325.976562 313.53125 L 326.070312 313.492188 L 326.160156 313.449219 L 326.246094 313.40625 L 326.332031 313.355469 L 326.414062 313.304688 L 326.492188 313.25 L 326.566406 313.191406 L 326.640625 313.128906 L 326.710938 313.0625 L 326.84375 312.921875 L 326.90625 312.84375 L 326.964844 312.765625 L 327.019531 312.679688 L 327.070312 312.59375 L 327.121094 312.503906 L 327.167969 312.410156 L 327.210938 312.316406 L 327.253906 312.214844 L 327.292969 312.113281 L 327.324219 312.007812 L 327.359375 311.898438 L 327.386719 311.789062 L 327.410156 311.675781 L 327.433594 311.558594 L 327.453125 311.4375 L 327.464844 311.316406 L 327.488281 311.066406 L 327.492188 310.9375 Z M 327.492188 310.804688 "/>
</g>
</svg>
