<?xml version="1.0" encoding="UTF-8"?>
<svg xmlns="http://www.w3.org/2000/svg" xmlns:xlink="http://www.w3.org/1999/xlink" width="396" height="396" viewBox="0 0 396 396">
<rect x="-39.6" y="-39.6" width="475.2" height="475.2" fill="rgb(100%, 100%, 100%)" fill-opacity="1"/>
<path fill-rule="nonzero" fill="rgb(54.509804%, 69.411765%, 45.490196%)" fill-opacity="0.298039" stroke-width="1.600468" stroke-linecap="round" stroke-linejoin="round" stroke="rgb(54.509804%, 69.411765%, 45.490196%)" stroke-opacity="1" stroke-miterlimit="10" d="M 173.675781 232.054688 L 174.949219 232.066406 L 176.222656 232.097656 L 177.496094 232.152344 L 178.765625 232.230469 L 180.035156 232.332031 L 181.304688 232.453125 L 182.570312 232.597656 L 183.832031 232.765625 L 185.089844 232.953125 L 186.347656 233.164062 L 187.597656 233.394531 L 188.847656 233.648438 L 190.089844 233.925781 L 191.328125 234.222656 L 192.5625 234.539062 L 193.789062 234.882812 L 195.011719 235.242188 L 196.226562 235.625 L 197.433594 236.03125 L 198.632812 236.453125 L 199.828125 236.902344 L 201.011719 237.367188 L 202.1875 237.855469 L 203.355469 238.363281 L 204.515625 238.890625 L 205.664062 239.4375 L 206.804688 240.007812 L 207.933594 240.597656 L 209.054688 241.203125 L 210.164062 241.832031 L 211.257812 242.476562 L 212.34375 243.140625 L 213.417969 243.828125 L 214.480469 244.53125 L 215.53125 245.25 L 216.566406 245.992188 L 217.59375 246.75 L 218.601562 247.523438 L 219.597656 248.316406 L 220.582031 249.125 L 221.550781 249.953125 L 222.503906 250.796875 L 223.441406 251.65625 L 224.367188 252.535156 L 225.273438 253.425781 L 226.167969 254.335938 L 227.042969 255.257812 L 227.90625 256.199219 L 228.75 257.152344 L 229.578125 258.121094 L 230.386719 259.105469 L 231.179688 260.101562 L 231.953125 261.109375 L 232.710938 262.132812 L 233.453125 263.171875 L 234.171875 264.222656 L 234.875 265.28125 L 235.558594 266.355469 L 236.226562 267.441406 L 236.871094 268.539062 L 237.5 269.648438 L 238.105469 270.769531 L 238.695312 271.898438 L 239.261719 273.039062 L 239.8125 274.1875 L 240.339844 275.347656 L 240.847656 276.515625 L 241.335938 277.691406 L 241.800781 278.875 L 242.246094 280.070312 L 242.671875 281.269531 L 243.078125 282.476562 L 243.460938 283.691406 L 243.820312 284.914062 L 244.164062 286.140625 L 244.480469 287.375 L 244.777344 288.613281 L 245.054688 289.855469 L 245.308594 291.101562 L 245.539062 292.355469 L 245.75 293.613281 L 245.9375 294.871094 L 246.105469 296.132812 L 246.25 297.398438 L 246.371094 298.667969 L 246.472656 299.9375 L 246.546875 301.207031 L 246.605469 302.480469 L 246.636719 303.753906 L 246.648438 305.027344 L 246.636719 306.300781 L 246.605469 307.574219 L 246.546875 308.847656 L 246.472656 310.117188 L 246.371094 311.386719 L 246.25 312.65625 L 246.105469 313.921875 L 245.9375 315.183594 L 245.75 316.441406 L 245.539062 317.699219 L 245.308594 318.949219 L 245.054688 320.199219 L 244.777344 321.441406 L 244.480469 322.679688 L 244.164062 323.914062 L 243.820312 325.140625 L 243.460938 326.363281 L 243.078125 327.578125 L 242.671875 328.785156 L 242.246094 329.984375 L 241.800781 331.179688 L 241.335938 332.363281 L 240.847656 333.539062 L 240.339844 334.707031 L 239.8125 335.867188 L 239.261719 337.015625 L 238.695312 338.15625 L 238.105469 339.285156 L 237.5 340.40625 L 236.871094 341.511719 L 236.226562 342.609375 L 235.558594 343.695312 L 234.875 344.769531 L 234.171875 345.832031 L 233.453125 346.882812 L 232.710938 347.917969 L 231.953125 348.941406 L 231.179688 349.953125 L 230.386719 350.949219 L 229.578125 351.933594 L 228.75 352.902344 L 227.90625 353.855469 L 227.042969 354.792969 L 226.167969 355.71875 L 225.273438 356.625 L 224.367188 357.519531 L 223.441406 358.394531 L 222.503906 359.257812 L 221.550781 360.101562 L 220.582031 360.925781 L 219.597656 361.738281 L 218.601562 362.53125 L 217.59375 363.304688 L 216.566406 364.0625 L 215.53125 364.804688 L 214.480469 365.523438 L 213.417969 366.226562 L 212.34375 366.910156 L 211.257812 367.578125 L 210.164062 368.222656 L 209.054688 368.851562 L 207.933594 369.457031 L 206.804688 370.046875 L 205.664062 370.613281 L 204.515625 371.164062 L 203.355469 371.691406 L 202.1875 372.199219 L 201.011719 372.6875 L 199.828125 373.152344 L 198.632812 373.597656 L 197.433594 374.023438 L 196.226562 374.429688 L 195.011719 374.8125 L 193.789062 375.171875 L 192.5625 375.511719 L 191.328125 375.832031 L 190.089844 376.128906 L 188.847656 376.40625 L 187.597656 376.660156 L 186.347656 376.890625 L 185.089844 377.101562 L 183.832031 377.289062 L 182.570312 377.457031 L 181.304688 377.601562 L 180.035156 377.722656 L 178.765625 377.820312 L 177.496094 377.898438 L 176.222656 377.957031 L 174.949219 377.988281 L 173.675781 378 L 172.402344 377.988281 L 171.128906 377.957031 L 169.855469 377.898438 L 168.585938 377.820312 L 167.316406 377.722656 L 166.046875 377.601562 L 164.78125 377.457031 L 163.519531 377.289062 L 162.261719 377.101562 L 161.003906 376.890625 L 159.75 376.660156 L 158.503906 376.40625 L 157.261719 376.128906 L 156.023438 375.832031 L 154.789062 375.511719 L 153.5625 375.171875 L 152.339844 374.8125 L 151.125 374.429688 L 149.917969 374.023438 L 148.71875 373.597656 L 147.523438 373.152344 L 146.339844 372.6875 L 145.164062 372.199219 L 143.996094 371.691406 L 142.835938 371.164062 L 141.6875 370.613281 L 140.546875 370.046875 L 139.417969 369.457031 L 138.296875 368.851562 L 137.1875 368.222656 L 136.09375 367.578125 L 135.007812 366.910156 L 133.933594 366.226562 L 132.871094 365.523438 L 131.820312 364.804688 L 130.785156 364.0625 L 129.757812 363.304688 L 128.75 362.53125 L 127.753906 361.738281 L 126.769531 360.925781 L 125.800781 360.101562 L 124.847656 359.257812 L 123.910156 358.394531 L 122.984375 357.519531 L 122.074219 356.625 L 121.183594 355.71875 L 120.304688 354.792969 L 119.445312 353.855469 L 118.601562 352.902344 L 117.773438 351.933594 L 116.964844 350.949219 L 116.171875 349.953125 L 115.398438 348.941406 L 114.640625 347.917969 L 113.898438 346.882812 L 113.179688 345.832031 L 112.476562 344.769531 L 111.792969 343.695312 L 111.125 342.609375 L 110.480469 341.511719 L 109.851562 340.40625 L 109.246094 339.285156 L 108.65625 338.15625 L 108.089844 337.015625 L 107.539062 335.867188 L 107.011719 334.707031 L 106.503906 333.539062 L 106.015625 332.363281 L 105.550781 331.179688 L 105.101562 329.984375 L 104.679688 328.785156 L 104.273438 327.578125 L 103.890625 326.363281 L 103.53125 325.140625 L 103.1875 323.914062 L 102.871094 322.679688 L 102.574219 321.441406 L 102.296875 320.199219 L 102.042969 318.949219 L 101.8125 317.699219 L 101.601562 316.441406 L 101.414062 315.183594 L 101.246094 313.921875 L 101.101562 312.65625 L 100.980469 311.386719 L 100.878906 310.117188 L 100.800781 308.847656 L 100.746094 307.574219 L 100.714844 306.300781 L 100.703125 305.027344 L 100.714844 303.753906 L 100.746094 302.480469 L 100.800781 301.207031 L 100.878906 299.9375 L 100.980469 298.667969 L 101.101562 297.398438 L 101.246094 296.132812 L 101.414062 294.871094 L 101.601562 293.613281 L 101.8125 292.355469 L 102.042969 291.101562 L 102.296875 289.855469 L 102.574219 288.613281 L 102.871094 287.375 L 103.1875 286.140625 L 103.53125 284.914062 L 103.890625 283.691406 L 104.273438 282.476562 L 104.679688 281.269531 L 105.101562 280.070312 L 105.550781 278.875 L 106.015625 277.691406 L 106.503906 276.515625 L 107.011719 275.347656 L 107.539062 274.1875 L 108.089844 273.039062 L 108.65625 271.898438 L 109.246094 270.769531 L 109.851562 269.648438 L 110.480469 268.539062 L 111.125 267.441406 L 111.792969 266.355469 L 112.476562 265.28125 L 113.179688 264.222656 L 113.898438 263.171875 L 114.640625 262.132812 L 115.398438 261.109375 L 116.171875 260.101562 L 116.964844 259.105469 L 117.773438 258.121094 L 118.601562 257.152344 L 119.445312 256.199219 L 120.304688 255.257812 L 121.183594 254.335938 L 122.074219 253.425781 L 122.984375 252.535156 L 123.910156 251.65625 L 124.847656 250.796875 L 125.800781 249.953125 L 126.769531 249.125 L 127.753906 248.316406 L 128.75 247.523438 L 129.757812 246.75 L 130.785156 245.992188 L 131.820312 245.25 L 132.871094 244.53125 L 133.933594 243.828125 L 135.007812 243.140625 L 136.09375 242.476562 L 137.1875 241.832031 L 138.296875 241.203125 L 139.417969 240.597656 L 140.546875 240.007812 L 141.6875 239.4375 L 142.835938 238.890625 L 143.996094 238.363281 L 145.164062 237.855469 L 146.339844 237.367188 L 147.523438 236.902344 L 148.71875 236.453125 L 149.917969 236.03125 L 151.125 235.625 L 152.339844 235.242188 L 153.5625 234.882812 L 154.789062 234.539062 L 156.023438 234.222656 L 157.261719 233.925781 L 158.503906 233.648438 L 159.75 233.394531 L 161.003906 233.164062 L 162.261719 232.953125 L 163.519531 232.765625 L 164.78125 232.597656 L 166.046875 232.453125 L 167.316406 232.332031 L 168.585938 232.230469 L 169.855469 232.152344 L 171.128906 232.097656 L 172.402344 232.066406 Z M 173.675781 232.054688 "/>
<path fill-rule="nonzero" fill="rgb(100%, 64.705882%, 0%)" fill-opacity="0.298039" stroke-width="1.600468" stroke-linecap="round" stroke-linejoin="round" stroke="rgb(100%, 64.705882%, 0%)" stroke-opacity="1" stroke-dasharray="1.600468 4.801403" stroke-miterlimit="10" d="M 270.972656 198 L 272.246094 198.011719 L 273.519531 198.042969 L 274.792969 198.101562 L 276.0625 198.179688 L 277.332031 198.277344 L 278.601562 198.398438 L 279.867188 198.542969 L 281.128906 198.710938 L 282.386719 198.898438 L 283.644531 199.109375 L 284.898438 199.339844 L 286.144531 199.59375 L 287.386719 199.871094 L 288.625 200.167969 L 289.859375 200.488281 L 291.085938 200.828125 L 292.308594 201.1875 L 293.523438 201.570312 L 294.730469 201.976562 L 295.929688 202.402344 L 297.125 202.847656 L 298.308594 203.3125 L 299.484375 203.800781 L 300.652344 204.308594 L 301.8125 204.835938 L 302.960938 205.386719 L 304.101562 205.953125 L 305.230469 206.542969 L 306.351562 207.148438 L 307.460938 207.777344 L 308.558594 208.421875 L 309.644531 209.089844 L 310.71875 209.773438 L 311.777344 210.476562 L 312.828125 211.195312 L 313.867188 211.9375 L 314.890625 212.695312 L 315.898438 213.46875 L 316.894531 214.261719 L 317.878906 215.074219 L 318.847656 215.898438 L 319.800781 216.742188 L 320.742188 217.605469 L 321.664062 218.480469 L 322.574219 219.375 L 323.464844 220.28125 L 324.34375 221.207031 L 325.203125 222.144531 L 326.046875 223.097656 L 326.875 224.066406 L 327.683594 225.050781 L 328.476562 226.046875 L 329.25 227.058594 L 330.007812 228.082031 L 330.75 229.117188 L 331.46875 230.167969 L 332.171875 231.230469 L 332.859375 232.304688 L 333.523438 233.390625 L 334.167969 234.488281 L 334.796875 235.59375 L 335.402344 236.714844 L 335.992188 237.84375 L 336.5625 238.984375 L 337.109375 240.132812 L 337.636719 241.292969 L 338.144531 242.460938 L 338.632812 243.636719 L 339.097656 244.820312 L 339.546875 246.015625 L 339.96875 247.214844 L 340.375 248.421875 L 340.757812 249.636719 L 341.117188 250.859375 L 341.460938 252.085938 L 341.777344 253.320312 L 342.074219 254.558594 L 342.351562 255.800781 L 342.605469 257.050781 L 342.835938 258.300781 L 343.046875 259.558594 L 343.234375 260.816406 L 343.402344 262.078125 L 343.546875 263.34375 L 343.667969 264.613281 L 343.769531 265.882812 L 343.847656 267.152344 L 343.902344 268.425781 L 343.933594 269.699219 L 343.945312 270.972656 L 343.933594 272.246094 L 343.902344 273.519531 L 343.847656 274.792969 L 343.769531 276.0625 L 343.667969 277.332031 L 343.546875 278.601562 L 343.402344 279.867188 L 343.234375 281.128906 L 343.046875 282.386719 L 342.835938 283.644531 L 342.605469 284.898438 L 342.351562 286.144531 L 342.074219 287.386719 L 341.777344 288.625 L 341.460938 289.859375 L 341.117188 291.085938 L 340.757812 292.308594 L 340.375 293.523438 L 339.96875 294.730469 L 339.546875 295.929688 L 339.097656 297.125 L 338.632812 298.308594 L 338.144531 299.484375 L 337.636719 300.652344 L 337.109375 301.8125 L 336.5625 302.960938 L 335.992188 304.101562 L 335.402344 305.230469 L 334.796875 306.351562 L 334.167969 307.460938 L 333.523438 308.558594 L 332.859375 309.644531 L 332.171875 310.71875 L 331.46875 311.777344 L 330.75 312.828125 L 330.007812 313.867188 L 329.25 314.890625 L 328.476562 315.898438 L 327.683594 316.894531 L 326.875 317.878906 L 326.046875 318.847656 L 325.203125 319.800781 L 324.34375 320.742188 L 323.464844 321.664062 L 322.574219 322.574219 L 321.664062 323.464844 L 320.742188 324.34375 L 319.800781 325.203125 L 318.847656 326.046875 L 317.878906 326.875 L 316.894531 327.683594 L 315.898438 328.476562 L 314.890625 329.25 L 313.867188 330.007812 L 312.828125 330.75 L 311.777344 331.46875 L 310.71875 332.171875 L 309.644531 332.859375 L 308.558594 333.523438 L 307.460938 334.167969 L 306.351562 334.796875 L 305.230469 335.402344 L 304.101562 335.992188 L 302.960938 336.5625 L 301.8125 337.109375 L 300.652344 337.636719 L 299.484375 338.144531 L 298.308594 338.632812 L 297.125 339.097656 L 295.929688 339.546875 L 294.730469 339.96875 L 293.523438 340.375 L 292.308594 340.757812 L 291.085938 341.117188 L 289.859375 341.460938 L 288.625 341.777344 L 287.386719 342.074219 L 286.144531 342.351562 L 284.898438 342.605469 L 283.644531 342.835938 L 282.386719 343.046875 L 281.128906 343.234375 L 279.867188 343.402344 L 278.601562 343.546875 L 277.332031 343.667969 L 276.0625 343.769531 L 274.792969 343.847656 L 273.519531 343.902344 L 272.246094 343.933594 L 270.972656 343.945312 L 269.699219 343.933594 L 268.425781 343.902344 L 267.152344 343.847656 L 265.882812 343.769531 L 264.613281 343.667969 L 263.34375 343.546875 L 262.078125 343.402344 L 260.816406 343.234375 L 259.558594 343.046875 L 258.300781 342.835938 L 257.050781 342.605469 L 255.800781 342.351562 L 254.558594 342.074219 L 253.320312 341.777344 L 252.085938 341.460938 L 250.859375 341.117188 L 249.636719 340.757812 L 248.421875 340.375 L 247.214844 339.96875 L 246.015625 339.546875 L 244.820312 339.097656 L 243.636719 338.632812 L 242.460938 338.144531 L 241.292969 337.636719 L 240.132812 337.109375 L 238.984375 336.5625 L 237.84375 335.992188 L 236.714844 335.402344 L 235.59375 334.796875 L 234.488281 334.167969 L 233.390625 333.523438 L 232.304688 332.859375 L 231.230469 332.171875 L 230.167969 331.46875 L 229.117188 330.75 L 228.082031 330.007812 L 227.058594 329.25 L 226.046875 328.476562 L 225.050781 327.683594 L 224.066406 326.875 L 223.097656 326.046875 L 222.144531 325.203125 L 221.207031 324.34375 L 220.28125 323.464844 L 219.375 322.574219 L 218.480469 321.664062 L 217.605469 320.742188 L 216.742188 319.800781 L 215.898438 318.847656 L 215.074219 317.878906 L 214.261719 316.894531 L 213.46875 315.898438 L 212.695312 314.890625 L 211.9375 313.867188 L 211.195312 312.828125 L 210.476562 311.777344 L 209.773438 310.71875 L 209.089844 309.644531 L 208.421875 308.558594 L 207.777344 307.460938 L 207.148438 306.351562 L 206.542969 305.230469 L 205.953125 304.101562 L 205.386719 302.960938 L 204.835938 301.8125 L 204.308594 300.652344 L 203.800781 299.484375 L 203.3125 298.308594 L 202.847656 297.125 L 202.402344 295.929688 L 201.976562 294.730469 L 201.570312 293.523438 L 201.1875 292.308594 L 200.828125 291.085938 L 200.488281 289.859375 L 200.167969 288.625 L 199.871094 287.386719 L 199.59375 286.144531 L 199.339844 284.898438 L 199.109375 283.644531 L 198.898438 282.386719 L 198.710938 281.128906 L 198.542969 279.867188 L 198.398438 278.601562 L 198.277344 277.332031 L 198.179688 276.0625 L 198.101562 274.792969 L 198.042969 273.519531 L 198.011719 272.246094 L 198 270.972656 L 198.011719 269.699219 L 198.042969 268.425781 L 198.101562 267.152344 L 198.179688 265.882812 L 198.277344 264.613281 L 198.398438 263.34375 L 198.542969 262.078125 L 198.710938 260.816406 L 198.898438 259.558594 L 199.109375 258.300781 L 199.339844 257.050781 L 199.59375 255.800781 L 199.871094 254.558594 L 200.167969 253.320312 L 200.488281 252.085938 L 200.828125 250.859375 L 201.1875 249.636719 L 201.570312 248.421875 L 201.976562 247.214844 L 202.402344 246.015625 L 202.847656 244.820312 L 203.3125 243.636719 L 203.800781 242.460938 L 204.308594 241.292969 L 204.835938 240.132812 L 205.386719 238.984375 L 205.953125 237.84375 L 206.542969 236.714844 L 207.148438 235.59375 L 207.777344 234.488281 L 208.421875 233.390625 L 209.089844 232.304688 L 209.773438 231.230469 L 210.476562 230.167969 L 211.195312 229.117188 L 211.9375 228.082031 L 212.695312 227.058594 L 213.46875 226.046875 L 214.261719 225.050781 L 215.074219 224.066406 L 215.898438 223.097656 L 216.742188 222.144531 L 217.605469 221.207031 L 218.480469 220.28125 L 219.375 219.375 L 220.28125 218.480469 L 221.207031 217.605469 L 222.144531 216.742188 L 223.097656 215.898438 L 224.066406 215.074219 L 225.050781 214.261719 L 226.046875 213.46875 L 227.058594 212.695312 L 228.082031 211.9375 L 229.117188 211.195312 L 230.167969 210.476562 L 231.230469 209.773438 L 232.304688 209.089844 L 233.390625 208.421875 L 234.488281 207.777344 L 235.59375 207.148438 L 236.714844 206.542969 L 237.84375 205.953125 L 238.984375 205.386719 L 240.132812 204.835938 L 241.292969 204.308594 L 242.460938 203.800781 L 243.636719 203.3125 L 244.820312 202.847656 L 246.015625 202.402344 L 247.214844 201.976562 L 248.421875 201.570312 L 249.636719 201.1875 L 250.859375 200.828125 L 252.085938 200.488281 L 253.320312 200.167969 L 254.558594 199.871094 L 255.800781 199.59375 L 257.050781 199.339844 L 258.300781 199.109375 L 259.558594 198.898438 L 260.816406 198.710938 L 262.078125 198.542969 L 263.34375 198.398438 L 264.613281 198.277344 L 265.882812 198.179688 L 267.152344 198.101562 L 268.425781 198.042969 L 269.699219 198.011719 Z M 270.972656 198 "/>
<path fill-rule="nonzero" fill="rgb(41.568627%, 35.294118%, 80.392157%)" fill-opacity="0.298039" stroke-width="1.600468" stroke-linecap="round" stroke-linejoin="round" stroke="rgb(41.568627%, 35.294118%, 80.392157%)" stroke-opacity="1" stroke-miterlimit="10" d="M 198 90.972656 L 199.613281 90.988281 L 201.226562 91.027344 L 202.835938 91.101562 L 204.449219 91.199219 L 206.054688 91.324219 L 207.660156 91.480469 L 209.265625 91.660156 L 210.863281 91.871094 L 212.460938 92.109375 L 214.050781 92.378906 L 215.636719 92.671875 L 217.21875 92.992188 L 218.792969 93.34375 L 220.363281 93.71875 L 221.921875 94.121094 L 223.476562 94.554688 L 225.023438 95.011719 L 226.5625 95.496094 L 228.09375 96.007812 L 229.613281 96.546875 L 231.125 97.113281 L 232.625 97.703125 L 234.117188 98.320312 L 235.59375 98.964844 L 237.0625 99.632812 L 238.519531 100.328125 L 239.964844 101.046875 L 241.394531 101.792969 L 242.8125 102.5625 L 244.214844 103.355469 L 245.605469 104.175781 L 246.980469 105.019531 L 248.34375 105.886719 L 249.6875 106.777344 L 251.015625 107.6875 L 252.332031 108.625 L 253.628906 109.585938 L 254.90625 110.566406 L 256.167969 111.570312 L 257.414062 112.597656 L 258.640625 113.644531 L 259.847656 114.714844 L 261.039062 115.804688 L 262.207031 116.914062 L 263.359375 118.046875 L 264.492188 119.195312 L 265.601562 120.367188 L 266.691406 121.554688 L 267.757812 122.765625 L 268.808594 123.992188 L 269.832031 125.234375 L 270.835938 126.5 L 271.820312 127.777344 L 272.78125 129.074219 L 273.714844 130.386719 L 274.628906 131.71875 L 275.519531 133.0625 L 276.386719 134.421875 L 277.230469 135.800781 L 278.050781 137.1875 L 278.84375 138.59375 L 279.613281 140.011719 L 280.359375 141.441406 L 281.078125 142.886719 L 281.773438 144.339844 L 282.441406 145.808594 L 283.085938 147.289062 L 283.703125 148.78125 L 284.292969 150.28125 L 284.859375 151.792969 L 285.398438 153.3125 L 285.910156 154.84375 L 286.394531 156.378906 L 286.851562 157.925781 L 287.28125 159.480469 L 287.6875 161.042969 L 288.0625 162.613281 L 288.414062 164.1875 L 288.734375 165.769531 L 289.027344 167.355469 L 289.292969 168.945312 L 289.53125 170.542969 L 289.742188 172.140625 L 289.925781 173.742188 L 290.082031 175.347656 L 290.207031 176.957031 L 290.304688 178.566406 L 290.375 180.179688 L 290.417969 181.792969 L 290.433594 183.40625 L 290.417969 185.019531 L 290.375 186.632812 L 290.304688 188.242188 L 290.207031 189.851562 L 290.082031 191.460938 L 289.925781 193.066406 L 289.742188 194.671875 L 289.53125 196.269531 L 289.292969 197.863281 L 289.027344 199.457031 L 288.734375 201.042969 L 288.414062 202.625 L 288.0625 204.199219 L 287.6875 205.765625 L 287.28125 207.328125 L 286.851562 208.882812 L 286.394531 210.429688 L 285.910156 211.96875 L 285.398438 213.5 L 284.859375 215.019531 L 284.292969 216.53125 L 283.703125 218.03125 L 283.085938 219.523438 L 282.441406 221 L 281.773438 222.46875 L 281.078125 223.925781 L 280.359375 225.367188 L 279.613281 226.800781 L 278.84375 228.21875 L 278.050781 229.621094 L 277.230469 231.011719 L 276.386719 232.386719 L 275.519531 233.746094 L 274.628906 235.09375 L 273.714844 236.421875 L 272.78125 237.734375 L 271.820312 239.03125 L 270.835938 240.3125 L 269.832031 241.574219 L 268.808594 242.820312 L 267.757812 244.046875 L 266.691406 245.253906 L 265.601562 246.445312 L 264.492188 247.613281 L 263.359375 248.765625 L 262.207031 249.894531 L 261.039062 251.007812 L 259.847656 252.097656 L 258.640625 253.164062 L 257.414062 254.210938 L 256.167969 255.238281 L 254.90625 256.242188 L 253.628906 257.226562 L 252.332031 258.183594 L 251.015625 259.121094 L 249.6875 260.035156 L 248.34375 260.925781 L 246.980469 261.792969 L 245.605469 262.636719 L 244.214844 263.453125 L 242.8125 264.25 L 241.394531 265.019531 L 239.964844 265.761719 L 238.519531 266.484375 L 237.0625 267.175781 L 235.59375 267.847656 L 234.117188 268.488281 L 232.625 269.105469 L 231.125 269.699219 L 229.613281 270.261719 L 228.09375 270.800781 L 226.5625 271.3125 L 225.023438 271.800781 L 223.476562 272.257812 L 221.921875 272.6875 L 220.363281 273.09375 L 218.792969 273.46875 L 217.21875 273.816406 L 215.636719 274.140625 L 214.050781 274.433594 L 212.460938 274.699219 L 210.863281 274.9375 L 209.265625 275.148438 L 207.660156 275.332031 L 206.054688 275.484375 L 204.449219 275.613281 L 202.835938 275.710938 L 201.226562 275.78125 L 199.613281 275.824219 L 198 275.835938 L 196.386719 275.824219 L 194.773438 275.78125 L 193.164062 275.710938 L 191.550781 275.613281 L 189.945312 275.484375 L 188.339844 275.332031 L 186.734375 275.148438 L 185.136719 274.9375 L 183.539062 274.699219 L 181.949219 274.433594 L 180.363281 274.140625 L 178.78125 273.816406 L 177.207031 273.46875 L 175.636719 273.09375 L 174.078125 272.6875 L 172.523438 272.257812 L 170.976562 271.800781 L 169.4375 271.3125 L 167.90625 270.800781 L 166.386719 270.261719 L 164.875 269.699219 L 163.375 269.105469 L 161.882812 268.488281 L 160.40625 267.847656 L 158.9375 267.175781 L 157.480469 266.484375 L 156.035156 265.761719 L 154.605469 265.019531 L 153.1875 264.25 L 151.785156 263.453125 L 150.394531 262.636719 L 149.019531 261.792969 L 147.65625 260.925781 L 146.3125 260.035156 L 144.984375 259.121094 L 143.667969 258.183594 L 142.371094 257.226562 L 141.09375 256.242188 L 139.832031 255.238281 L 138.585938 254.210938 L 137.359375 253.164062 L 136.152344 252.097656 L 134.960938 251.007812 L 133.792969 249.894531 L 132.640625 248.765625 L 131.507812 247.613281 L 130.398438 246.445312 L 129.308594 245.253906 L 128.242188 244.046875 L 127.191406 242.820312 L 126.167969 241.574219 L 125.164062 240.3125 L 124.179688 239.03125 L 123.21875 237.734375 L 122.285156 236.421875 L 121.371094 235.09375 L 120.480469 233.746094 L 119.613281 232.386719 L 118.769531 231.011719 L 117.949219 229.621094 L 117.15625 228.21875 L 116.386719 226.800781 L 115.640625 225.367188 L 114.921875 223.925781 L 114.226562 222.46875 L 113.558594 221 L 112.914062 219.523438 L 112.296875 218.03125 L 111.707031 216.53125 L 111.140625 215.019531 L 110.601562 213.5 L 110.089844 211.96875 L 109.605469 210.429688 L 109.148438 208.882812 L 108.71875 207.328125 L 108.3125 205.765625 L 107.9375 204.199219 L 107.585938 202.625 L 107.265625 201.042969 L 106.972656 199.457031 L 106.707031 197.863281 L 106.46875 196.269531 L 106.257812 194.671875 L 106.074219 193.066406 L 105.917969 191.460938 L 105.792969 189.851562 L 105.695312 188.242188 L 105.625 186.632812 L 105.582031 185.019531 L 105.566406 183.40625 L 105.582031 181.792969 L 105.625 180.179688 L 105.695312 178.566406 L 105.792969 176.957031 L 105.917969 175.347656 L 106.074219 173.742188 L 106.257812 172.140625 L 106.46875 170.542969 L 106.707031 168.945312 L 106.972656 167.355469 L 107.265625 165.769531 L 107.585938 164.1875 L 107.9375 162.613281 L 108.3125 161.042969 L 108.71875 159.480469 L 109.148438 157.925781 L 109.605469 156.378906 L 110.089844 154.84375 L 110.601562 153.3125 L 111.140625 151.792969 L 111.707031 150.28125 L 112.296875 148.78125 L 112.914062 147.289062 L 113.558594 145.808594 L 114.226562 144.339844 L 114.921875 142.886719 L 115.640625 141.441406 L 116.386719 140.011719 L 117.15625 138.59375 L 117.949219 137.1875 L 118.769531 135.800781 L 119.613281 134.421875 L 120.480469 133.0625 L 121.371094 131.71875 L 122.285156 130.386719 L 123.21875 129.074219 L 124.179688 127.777344 L 125.164062 126.5 L 126.167969 125.234375 L 127.191406 123.992188 L 128.242188 122.765625 L 129.308594 121.554688 L 130.398438 120.367188 L 131.507812 119.195312 L 132.640625 118.046875 L 133.792969 116.914062 L 134.960938 115.804688 L 136.152344 114.714844 L 137.359375 113.644531 L 138.585938 112.597656 L 139.832031 111.570312 L 141.09375 110.566406 L 142.371094 109.585938 L 143.667969 108.625 L 144.984375 107.6875 L 146.3125 106.777344 L 147.65625 105.886719 L 149.019531 105.019531 L 150.394531 104.175781 L 151.785156 103.355469 L 153.1875 102.5625 L 154.605469 101.792969 L 156.035156 101.046875 L 157.480469 100.328125 L 158.9375 99.632812 L 160.40625 98.964844 L 161.882812 98.320312 L 163.375 97.703125 L 164.875 97.113281 L 166.386719 96.546875 L 167.90625 96.007812 L 169.4375 95.496094 L 170.976562 95.011719 L 172.523438 94.554688 L 174.078125 94.121094 L 175.636719 93.71875 L 177.207031 93.34375 L 178.78125 92.992188 L 180.363281 92.671875 L 181.949219 92.378906 L 183.539062 92.109375 L 185.136719 91.871094 L 186.734375 91.660156 L 188.339844 91.480469 L 189.945312 91.324219 L 191.550781 91.199219 L 193.164062 91.101562 L 194.773438 91.027344 L 196.386719 90.988281 Z M 198 90.972656 "/>
<path fill-rule="nonzero" fill="rgb(41.568627%, 35.294118%, 80.392157%)" fill-opacity="1" d="M 199.175781 184.910156 L 199.175781 192.214844 L 196.800781 192.214844 L 196.800781 184.910156 L 190.023438 174.597656 L 192.648438 174.597656 L 198.011719 182.988281 L 203.351562 174.597656 L 205.976562 174.597656 Z M 199.175781 184.910156 "/>
<path fill-rule="nonzero" fill="rgb(54.509804%, 69.411765%, 45.490196%)" fill-opacity="1" d="M 181.695312 304.847656 L 181.691406 305.28125 L 181.671875 305.707031 L 181.636719 306.121094 L 181.589844 306.523438 L 181.53125 306.917969 L 181.457031 307.300781 L 181.371094 307.675781 L 181.273438 308.039062 L 181.160156 308.390625 L 181.035156 308.734375 L 180.898438 309.0625 L 180.75 309.382812 L 180.59375 309.691406 L 180.425781 309.988281 L 180.25 310.277344 L 180.0625 310.550781 L 179.867188 310.816406 L 179.660156 311.070312 L 179.445312 311.316406 L 179.222656 311.546875 L 178.988281 311.765625 L 178.742188 311.976562 L 178.492188 312.175781 L 178.234375 312.363281 L 177.964844 312.539062 L 177.6875 312.703125 L 177.402344 312.859375 L 177.109375 313.003906 L 176.804688 313.136719 L 176.496094 313.261719 L 176.179688 313.371094 L 175.859375 313.46875 L 175.535156 313.554688 L 175.203125 313.628906 L 174.871094 313.691406 L 174.53125 313.742188 L 174.183594 313.785156 L 173.835938 313.8125 L 173.480469 313.832031 L 173.121094 313.835938 L 166.53125 313.835938 L 166.53125 296.21875 L 172.355469 296.21875 L 172.761719 296.222656 L 173.160156 296.238281 L 173.550781 296.265625 L 173.933594 296.300781 L 174.3125 296.347656 L 174.683594 296.402344 L 175.050781 296.46875 L 175.410156 296.546875 L 175.761719 296.632812 L 176.109375 296.730469 L 176.449219 296.835938 L 176.777344 296.953125 L 177.097656 297.082031 L 177.410156 297.222656 L 177.710938 297.371094 L 178.003906 297.535156 L 178.285156 297.707031 L 178.554688 297.890625 L 178.820312 298.085938 L 179.070312 298.292969 L 179.3125 298.507812 L 179.542969 298.738281 L 179.765625 298.976562 L 179.972656 299.226562 L 180.171875 299.488281 L 180.359375 299.761719 L 180.535156 300.046875 L 180.699219 300.34375 L 180.855469 300.648438 L 180.996094 300.96875 L 181.128906 301.300781 L 181.25 301.644531 L 181.355469 302 L 181.445312 302.371094 L 181.523438 302.75 L 181.585938 303.144531 L 181.632812 303.550781 L 181.667969 303.96875 L 181.691406 304.402344 Z M 179.296875 304.847656 L 179.289062 304.492188 L 179.277344 304.152344 L 179.25 303.820312 L 179.214844 303.5 L 179.167969 303.1875 L 179.113281 302.890625 L 179.042969 302.601562 L 178.96875 302.320312 L 178.878906 302.050781 L 178.785156 301.792969 L 178.675781 301.542969 L 178.5625 301.304688 L 178.4375 301.070312 L 178.308594 300.847656 L 178.167969 300.636719 L 178.019531 300.429688 L 177.863281 300.234375 L 177.699219 300.050781 L 177.527344 299.875 L 177.34375 299.707031 L 177.15625 299.546875 L 176.960938 299.398438 L 176.757812 299.257812 L 176.546875 299.125 L 176.328125 299.003906 L 176.105469 298.890625 L 175.871094 298.785156 L 175.632812 298.6875 L 175.386719 298.597656 L 175.132812 298.519531 L 174.871094 298.445312 L 174.605469 298.378906 L 174.335938 298.320312 L 174.0625 298.269531 L 173.78125 298.226562 L 173.496094 298.191406 L 173.207031 298.167969 L 172.910156 298.148438 L 172.613281 298.136719 L 172.304688 298.132812 L 168.917969 298.132812 L 168.917969 311.921875 L 172.84375 311.921875 L 173.121094 311.917969 L 173.390625 311.90625 L 173.65625 311.882812 L 173.921875 311.851562 L 174.179688 311.808594 L 174.433594 311.761719 L 174.683594 311.703125 L 174.929688 311.632812 L 175.171875 311.558594 L 175.40625 311.472656 L 175.640625 311.378906 L 175.871094 311.273438 L 176.089844 311.164062 L 176.304688 311.042969 L 176.515625 310.914062 L 176.714844 310.773438 L 176.910156 310.628906 L 177.101562 310.472656 L 177.28125 310.308594 L 177.457031 310.136719 L 177.625 309.953125 L 177.789062 309.761719 L 177.941406 309.5625 L 178.089844 309.355469 L 178.226562 309.136719 L 178.359375 308.910156 L 178.480469 308.675781 L 178.597656 308.433594 L 178.707031 308.183594 L 178.808594 307.921875 L 178.902344 307.652344 L 178.984375 307.375 L 179.058594 307.089844 L 179.121094 306.792969 L 179.175781 306.488281 L 179.21875 306.179688 L 179.253906 305.859375 L 179.277344 305.527344 L 179.292969 305.191406 Z M 179.296875 304.847656 "/>
<path fill-rule="nonzero" fill="rgb(100%, 64.705882%, 0%)" fill-opacity="1" d="M 282.644531 284.648438 L 279.796875 284.648438 L 276.746094 273.457031 L 276.714844 273.359375 L 276.660156 273.15625 L 276.628906 273.046875 L 276.601562 272.9375 L 276.570312 272.824219 L 276.507812 272.582031 L 276.445312 272.332031 L 276.414062 272.199219 L 276.386719 272.074219 L 276.355469 271.945312 L 276.300781 271.695312 L 276.273438 271.574219 L 276.246094 271.449219 L 276.21875 271.332031 L 276.195312 271.210938 L 276.167969 271.09375 L 276.140625 270.953125 L 276.078125 270.679688 L 276.050781 270.539062 L 275.988281 270.257812 L 275.960938 270.117188 L 275.898438 269.835938 L 275.867188 269.691406 L 275.773438 270.125 L 275.710938 270.40625 L 275.679688 270.550781 L 275.648438 270.6875 L 275.585938 270.96875 L 275.554688 271.105469 L 275.445312 271.589844 L 275.414062 271.714844 L 275.359375 271.964844 L 275.296875 272.214844 L 275.269531 272.34375 L 275.238281 272.46875 L 275.210938 272.589844 L 275.179688 272.710938 L 275.152344 272.828125 L 275.121094 272.941406 L 275.09375 273.050781 L 275.066406 273.15625 L 275.035156 273.257812 L 275.007812 273.359375 L 274.980469 273.457031 L 271.90625 284.648438 L 269.054688 284.648438 L 263.867188 267.027344 L 266.355469 267.027344 L 269.515625 278.21875 L 269.558594 278.378906 L 269.601562 278.535156 L 269.640625 278.691406 L 269.683594 278.847656 L 269.878906 279.628906 L 269.917969 279.78125 L 269.957031 279.9375 L 269.996094 280.085938 L 270.03125 280.234375 L 270.136719 280.65625 L 270.167969 280.789062 L 270.199219 280.917969 L 270.226562 281.046875 L 270.253906 281.171875 L 270.289062 281.316406 L 270.382812 281.738281 L 270.410156 281.878906 L 270.441406 282.015625 L 270.46875 282.148438 L 270.5 282.28125 L 270.554688 282.546875 L 270.59375 282.375 L 270.628906 282.203125 L 270.707031 281.859375 L 270.746094 281.691406 L 270.785156 281.519531 L 270.863281 281.183594 L 270.902344 281.011719 L 270.941406 280.84375 L 270.960938 280.773438 L 270.976562 280.703125 L 270.996094 280.632812 L 271.011719 280.558594 L 271.03125 280.484375 L 271.046875 280.410156 L 271.066406 280.335938 L 271.082031 280.261719 L 271.101562 280.183594 L 271.117188 280.109375 L 271.136719 280.03125 L 271.152344 279.953125 L 271.171875 279.875 L 271.1875 279.800781 L 271.207031 279.722656 L 271.222656 279.648438 L 271.242188 279.570312 L 271.273438 279.421875 L 271.292969 279.34375 L 271.332031 279.195312 L 271.351562 279.125 L 271.371094 279.050781 L 271.410156 278.910156 L 271.425781 278.839844 L 271.445312 278.769531 L 271.460938 278.699219 L 271.480469 278.632812 L 271.5 278.5625 L 271.539062 278.429688 L 271.554688 278.363281 L 271.574219 278.296875 L 271.589844 278.234375 L 271.609375 278.171875 L 271.65625 277.996094 L 274.71875 267.027344 L 277.007812 267.027344 L 280.070312 277.996094 L 280.117188 278.171875 L 280.148438 278.296875 L 280.179688 278.429688 L 280.199219 278.496094 L 280.214844 278.5625 L 280.234375 278.632812 L 280.253906 278.699219 L 280.3125 278.910156 L 280.328125 278.980469 L 280.347656 279.050781 L 280.367188 279.125 L 280.386719 279.195312 L 280.402344 279.269531 L 280.5 279.640625 L 280.515625 279.714844 L 280.554688 279.863281 L 280.574219 279.941406 L 280.589844 280.019531 L 280.609375 280.09375 L 280.625 280.171875 L 280.644531 280.25 L 280.660156 280.324219 L 280.679688 280.398438 L 280.695312 280.472656 L 280.714844 280.546875 L 280.730469 280.621094 L 280.746094 280.691406 L 280.765625 280.761719 L 280.78125 280.832031 L 280.824219 281 L 280.863281 281.167969 L 280.902344 281.339844 L 280.941406 281.507812 L 281.058594 282.023438 L 281.09375 282.199219 L 281.132812 282.371094 L 281.171875 282.546875 L 281.175781 282.542969 L 281.179688 282.527344 L 281.1875 282.507812 L 281.195312 282.476562 L 281.203125 282.441406 L 281.21875 282.394531 L 281.230469 282.335938 L 281.246094 282.273438 L 281.265625 282.203125 L 281.28125 282.121094 L 281.304688 282.03125 L 281.324219 281.9375 L 281.347656 281.839844 L 281.371094 281.738281 L 281.394531 281.628906 L 281.421875 281.519531 L 281.476562 281.285156 L 281.503906 281.160156 L 281.535156 281.03125 L 281.5625 280.902344 L 281.59375 280.769531 L 281.65625 280.496094 L 281.691406 280.359375 L 281.722656 280.21875 L 281.753906 280.074219 L 281.789062 279.929688 L 281.859375 279.632812 L 281.894531 279.480469 L 281.972656 279.183594 L 282.007812 279.039062 L 282.046875 278.898438 L 282.082031 278.757812 L 282.160156 278.484375 L 282.195312 278.351562 L 282.234375 278.21875 L 285.347656 267.027344 L 287.835938 267.027344 Z M 282.644531 284.648438 "/>
<path fill-rule="nonzero" fill="rgb(15.294118%, 15.686275%, 13.333333%)" fill-opacity="1" d="M 262.554688 41.40625 L 262.550781 41.625 L 262.535156 41.84375 L 262.515625 42.054688 L 262.484375 42.265625 L 262.445312 42.472656 L 262.394531 42.675781 L 262.339844 42.875 L 262.273438 43.074219 L 262.199219 43.265625 L 262.117188 43.453125 L 262.027344 43.640625 L 261.925781 43.820312 L 261.816406 43.996094 L 261.699219 44.164062 L 261.570312 44.332031 L 261.433594 44.492188 L 261.289062 44.644531 L 261.132812 44.796875 L 260.964844 44.941406 L 260.789062 45.082031 L 260.605469 45.210938 L 260.410156 45.339844 L 260.207031 45.460938 L 259.992188 45.574219 L 259.769531 45.683594 L 259.539062 45.789062 L 259.296875 45.886719 L 259.046875 45.976562 L 258.785156 46.0625 L 258.515625 46.144531 L 258.238281 46.214844 L 257.949219 46.277344 L 257.652344 46.335938 L 257.34375 46.382812 L 257.023438 46.425781 L 256.695312 46.457031 L 256.355469 46.484375 L 256.007812 46.503906 L 255.644531 46.515625 L 255.277344 46.519531 L 254.632812 46.507812 L 254.019531 46.472656 L 253.433594 46.414062 L 252.878906 46.335938 L 252.351562 46.230469 L 251.851562 46.105469 L 251.382812 45.953125 L 250.941406 45.78125 L 250.53125 45.585938 L 250.148438 45.367188 L 249.796875 45.128906 L 249.46875 44.867188 L 249.167969 44.585938 L 248.894531 44.285156 L 248.644531 43.960938 L 248.425781 43.617188 L 248.230469 43.253906 L 248.066406 42.871094 L 247.925781 42.46875 L 247.8125 42.042969 L 250.125 41.578125 L 250.160156 41.714844 L 250.246094 41.980469 L 250.292969 42.109375 L 250.402344 42.359375 L 250.460938 42.480469 L 250.523438 42.601562 L 250.589844 42.714844 L 250.738281 42.941406 L 250.816406 43.050781 L 250.902344 43.152344 L 250.992188 43.257812 L 251.085938 43.355469 L 251.1875 43.449219 L 251.292969 43.542969 L 251.402344 43.632812 L 251.515625 43.722656 L 251.636719 43.804688 L 251.765625 43.882812 L 251.898438 43.957031 L 252.039062 44.03125 L 252.183594 44.097656 L 252.335938 44.160156 L 252.492188 44.222656 L 252.652344 44.28125 L 252.820312 44.332031 L 252.996094 44.382812 L 253.175781 44.429688 L 253.363281 44.472656 L 253.554688 44.511719 L 253.753906 44.546875 L 253.964844 44.574219 L 254.179688 44.597656 L 254.402344 44.621094 L 254.632812 44.636719 L 254.867188 44.644531 L 255.113281 44.652344 L 255.363281 44.65625 L 255.574219 44.652344 L 255.78125 44.648438 L 255.984375 44.640625 L 256.1875 44.628906 L 256.382812 44.613281 L 256.574219 44.59375 L 256.765625 44.570312 L 256.953125 44.542969 L 257.136719 44.511719 L 257.3125 44.480469 L 257.488281 44.441406 L 257.660156 44.398438 L 257.824219 44.351562 L 257.984375 44.300781 L 258.140625 44.246094 L 258.289062 44.1875 L 258.433594 44.125 L 258.574219 44.058594 L 258.710938 43.992188 L 258.839844 43.917969 L 258.964844 43.839844 L 259.082031 43.757812 L 259.195312 43.671875 L 259.304688 43.582031 L 259.40625 43.488281 L 259.5 43.390625 L 259.589844 43.289062 L 259.675781 43.179688 L 259.753906 43.070312 L 259.828125 42.953125 L 259.894531 42.832031 L 259.957031 42.707031 L 260.011719 42.574219 L 260.058594 42.4375 L 260.097656 42.296875 L 260.132812 42.152344 L 260.15625 42.003906 L 260.175781 41.851562 L 260.1875 41.691406 L 260.191406 41.53125 L 260.1875 41.359375 L 260.175781 41.199219 L 260.152344 41.039062 L 260.125 40.890625 L 260.089844 40.746094 L 260.046875 40.609375 L 259.992188 40.480469 L 259.933594 40.355469 L 259.867188 40.238281 L 259.789062 40.128906 L 259.710938 40.023438 L 259.621094 39.921875 L 259.527344 39.824219 L 259.429688 39.730469 L 259.320312 39.636719 L 259.207031 39.550781 L 259.089844 39.46875 L 258.960938 39.390625 L 258.828125 39.3125 L 258.691406 39.242188 L 258.542969 39.171875 L 258.394531 39.105469 L 258.238281 39.042969 L 258.074219 38.980469 L 257.90625 38.917969 L 257.734375 38.863281 L 257.558594 38.804688 L 257.375 38.753906 L 257.183594 38.703125 L 256.988281 38.652344 L 256.789062 38.605469 L 256.585938 38.558594 L 256.378906 38.507812 L 255.949219 38.40625 L 255.726562 38.355469 L 255.503906 38.300781 L 255.273438 38.25 L 255.039062 38.195312 L 254.800781 38.140625 L 254.652344 38.109375 L 254.503906 38.074219 L 254.355469 38.042969 L 253.761719 37.902344 L 253.613281 37.863281 L 253.464844 37.828125 L 253.3125 37.789062 L 253.167969 37.75 L 253.019531 37.707031 L 252.730469 37.621094 L 252.585938 37.574219 L 252.304688 37.480469 L 252.164062 37.429688 L 252.027344 37.378906 L 251.886719 37.328125 L 251.753906 37.273438 L 251.488281 37.15625 L 251.230469 37.03125 L 250.855469 36.832031 L 250.613281 36.691406 L 250.492188 36.617188 L 250.265625 36.460938 L 250.15625 36.378906 L 250.054688 36.292969 L 249.949219 36.207031 L 249.851562 36.117188 L 249.757812 36.023438 L 249.664062 35.925781 L 249.574219 35.828125 L 249.488281 35.722656 L 249.40625 35.617188 L 249.328125 35.507812 L 249.253906 35.394531 L 249.183594 35.277344 L 249.117188 35.160156 L 249.054688 35.035156 L 248.9375 34.785156 L 248.886719 34.652344 L 248.839844 34.515625 L 248.796875 34.375 L 248.757812 34.230469 L 248.726562 34.082031 L 248.699219 33.925781 L 248.675781 33.769531 L 248.660156 33.609375 L 248.648438 33.445312 L 248.640625 33.273438 L 248.636719 33.101562 L 248.640625 32.855469 L 248.65625 32.617188 L 248.683594 32.382812 L 248.714844 32.160156 L 248.761719 31.941406 L 248.816406 31.730469 L 248.882812 31.527344 L 248.957031 31.332031 L 249.042969 31.144531 L 249.136719 30.964844 L 249.242188 30.785156 L 249.359375 30.617188 L 249.480469 30.453125 L 249.609375 30.296875 L 249.746094 30.144531 L 249.890625 30 L 250.042969 29.863281 L 250.207031 29.730469 L 250.375 29.605469 L 250.550781 29.488281 L 250.734375 29.375 L 250.921875 29.269531 L 251.121094 29.171875 L 251.320312 29.078125 L 251.53125 28.992188 L 251.746094 28.910156 L 251.96875 28.835938 L 252.199219 28.769531 L 252.433594 28.707031 L 252.675781 28.652344 L 252.921875 28.601562 L 253.171875 28.554688 L 253.429688 28.515625 L 253.6875 28.484375 L 253.949219 28.453125 L 254.21875 28.429688 L 254.488281 28.410156 L 254.765625 28.398438 L 255.042969 28.390625 L 255.328125 28.386719 L 255.648438 28.390625 L 255.960938 28.398438 L 256.265625 28.410156 L 256.558594 28.429688 L 256.84375 28.453125 L 257.121094 28.484375 L 257.386719 28.515625 L 257.644531 28.554688 L 257.890625 28.601562 L 258.128906 28.652344 L 258.355469 28.703125 L 258.578125 28.761719 L 258.792969 28.824219 L 259 28.894531 L 259.199219 28.964844 L 259.390625 29.046875 L 259.578125 29.128906 L 259.753906 29.21875 L 259.925781 29.3125 L 260.089844 29.414062 L 260.246094 29.519531 L 260.398438 29.628906 L 260.539062 29.742188 L 260.679688 29.863281 L 260.808594 29.988281 L 260.933594 30.117188 L 261.050781 30.253906 L 261.164062 30.394531 L 261.265625 30.539062 L 261.367188 30.6875 L 261.460938 30.839844 L 261.640625 31.160156 L 261.722656 31.328125 L 261.804688 31.5 L 261.878906 31.679688 L 261.949219 31.863281 L 262.019531 32.050781 L 262.082031 32.242188 L 262.140625 32.4375 L 259.789062 32.851562 L 259.753906 32.726562 L 259.714844 32.601562 L 259.671875 32.480469 L 259.625 32.363281 L 259.574219 32.25 L 259.519531 32.136719 L 259.464844 32.027344 L 259.40625 31.917969 L 259.34375 31.816406 L 259.277344 31.714844 L 259.210938 31.617188 L 259.140625 31.519531 L 258.984375 31.339844 L 258.898438 31.253906 L 258.8125 31.171875 L 258.71875 31.09375 L 258.621094 31.019531 L 258.519531 30.945312 L 258.414062 30.875 L 258.304688 30.808594 L 258.191406 30.746094 L 258.070312 30.6875 L 257.945312 30.632812 L 257.816406 30.578125 L 257.683594 30.53125 L 257.546875 30.484375 L 257.402344 30.441406 L 257.253906 30.398438 L 257.101562 30.363281 L 256.945312 30.332031 L 256.785156 30.300781 L 256.621094 30.273438 L 256.449219 30.25 L 256.269531 30.230469 L 256.085938 30.214844 L 255.898438 30.203125 L 255.707031 30.195312 L 255.507812 30.191406 L 255.300781 30.1875 L 255.058594 30.191406 L 254.828125 30.199219 L 254.601562 30.207031 L 254.382812 30.222656 L 254.171875 30.246094 L 253.96875 30.269531 L 253.777344 30.300781 L 253.589844 30.332031 L 253.410156 30.371094 L 253.238281 30.414062 L 253.074219 30.457031 L 252.921875 30.503906 L 252.769531 30.554688 L 252.628906 30.609375 L 252.492188 30.667969 L 252.359375 30.726562 L 252.234375 30.789062 L 252.117188 30.859375 L 252.003906 30.929688 L 251.898438 31 L 251.710938 31.15625 L 251.625 31.238281 L 251.542969 31.324219 L 251.46875 31.410156 L 251.398438 31.5 L 251.335938 31.59375 L 251.277344 31.691406 L 251.222656 31.789062 L 251.175781 31.890625 L 251.132812 31.988281 L 251.097656 32.09375 L 251.066406 32.195312 L 251.039062 32.304688 L 251.015625 32.410156 L 250.996094 32.519531 L 250.980469 32.632812 L 250.964844 32.859375 L 250.960938 32.976562 L 250.964844 33.132812 L 250.976562 33.28125 L 250.996094 33.425781 L 251.023438 33.5625 L 251.058594 33.695312 L 251.101562 33.824219 L 251.152344 33.945312 L 251.210938 34.0625 L 251.277344 34.171875 L 251.351562 34.277344 L 251.433594 34.375 L 251.519531 34.472656 L 251.613281 34.5625 L 251.714844 34.652344 L 251.820312 34.738281 L 251.929688 34.820312 L 252.046875 34.898438 L 252.167969 34.972656 L 252.292969 35.046875 L 252.425781 35.113281 L 252.5625 35.179688 L 252.703125 35.246094 L 252.847656 35.308594 L 253.152344 35.425781 L 253.3125 35.480469 L 253.640625 35.582031 L 253.8125 35.632812 L 253.988281 35.675781 L 254.347656 35.769531 L 254.53125 35.8125 L 254.714844 35.859375 L 254.902344 35.902344 L 255.09375 35.949219 L 255.285156 35.992188 L 255.480469 36.039062 L 255.675781 36.082031 L 255.875 36.128906 L 256.039062 36.164062 L 256.199219 36.203125 L 256.363281 36.242188 L 256.523438 36.28125 L 256.6875 36.320312 L 256.847656 36.355469 L 257.007812 36.398438 L 257.488281 36.515625 L 257.652344 36.554688 L 257.8125 36.59375 L 257.96875 36.636719 L 258.128906 36.679688 L 258.285156 36.726562 L 258.589844 36.820312 L 258.742188 36.871094 L 258.890625 36.925781 L 259.039062 36.976562 L 259.1875 37.03125 L 259.332031 37.085938 L 259.613281 37.203125 L 259.753906 37.265625 L 259.890625 37.328125 L 260.15625 37.460938 L 260.414062 37.601562 L 260.542969 37.675781 L 260.667969 37.753906 L 260.789062 37.835938 L 260.90625 37.917969 L 261.023438 38.007812 L 261.132812 38.097656 L 261.238281 38.191406 L 261.34375 38.289062 L 261.445312 38.386719 L 261.632812 38.597656 L 261.722656 38.707031 L 261.886719 38.941406 L 261.960938 39.0625 L 262.035156 39.1875 L 262.101562 39.316406 L 262.164062 39.453125 L 262.222656 39.589844 L 262.277344 39.730469 L 262.332031 39.875 L 262.378906 40.023438 L 262.417969 40.179688 L 262.453125 40.339844 L 262.484375 40.503906 L 262.507812 40.675781 L 262.527344 40.847656 L 262.542969 41.027344 L 262.550781 41.214844 Z M 262.554688 41.40625 "/>
<path fill-rule="nonzero" fill="rgb(15.294118%, 15.686275%, 13.333333%)" fill-opacity="1" d="M 267.179688 39.980469 L 267.183594 40.191406 L 267.1875 40.398438 L 267.199219 40.601562 L 267.214844 40.804688 L 267.234375 41 L 267.257812 41.195312 L 267.285156 41.386719 L 267.316406 41.574219 L 267.351562 41.761719 L 267.390625 41.941406 L 267.441406 42.117188 L 267.492188 42.289062 L 267.546875 42.453125 L 267.609375 42.613281 L 267.671875 42.769531 L 267.742188 42.921875 L 267.816406 43.070312 L 267.894531 43.210938 L 267.980469 43.347656 L 268.066406 43.480469 L 268.164062 43.605469 L 268.261719 43.722656 L 268.367188 43.835938 L 268.476562 43.945312 L 268.59375 44.050781 L 268.710938 44.144531 L 268.835938 44.238281 L 268.96875 44.324219 L 269.101562 44.40625 L 269.242188 44.480469 L 269.386719 44.546875 L 269.539062 44.605469 L 269.695312 44.660156 L 269.859375 44.703125 L 270.027344 44.742188 L 270.203125 44.773438 L 270.382812 44.800781 L 270.566406 44.816406 L 270.757812 44.828125 L 270.957031 44.832031 L 271.242188 44.824219 L 271.515625 44.808594 L 271.78125 44.777344 L 272.03125 44.738281 L 272.273438 44.683594 L 272.5 44.617188 L 272.714844 44.542969 L 272.921875 44.453125 L 273.113281 44.355469 L 273.292969 44.242188 L 273.464844 44.121094 L 273.625 43.996094 L 273.773438 43.863281 L 273.914062 43.722656 L 274.039062 43.578125 L 274.152344 43.425781 L 274.253906 43.265625 L 274.347656 43.101562 L 274.425781 42.933594 L 274.496094 42.753906 L 276.46875 43.316406 L 276.425781 43.429688 L 276.378906 43.542969 L 276.328125 43.65625 L 276.273438 43.769531 L 276.214844 43.882812 L 276.152344 43.996094 L 276.085938 44.109375 L 276.019531 44.226562 L 275.945312 44.339844 L 275.871094 44.457031 L 275.792969 44.566406 L 275.710938 44.675781 L 275.621094 44.785156 L 275.527344 44.890625 L 275.429688 44.992188 L 275.324219 45.09375 L 275.214844 45.195312 L 275.101562 45.292969 L 274.980469 45.386719 L 274.855469 45.480469 L 274.726562 45.570312 L 274.589844 45.65625 L 274.445312 45.738281 L 274.292969 45.816406 L 274.136719 45.894531 L 273.976562 45.964844 L 273.804688 46.039062 L 273.628906 46.105469 L 273.445312 46.167969 L 273.257812 46.230469 L 273.0625 46.285156 L 272.859375 46.335938 L 272.648438 46.378906 L 272.433594 46.414062 L 272.207031 46.445312 L 271.972656 46.472656 L 271.730469 46.492188 L 271.480469 46.507812 L 271.222656 46.515625 L 270.957031 46.519531 L 270.371094 46.5 L 269.8125 46.445312 L 269.285156 46.359375 L 268.78125 46.230469 L 268.3125 46.070312 L 267.867188 45.875 L 267.453125 45.640625 L 267.066406 45.375 L 266.707031 45.070312 L 266.378906 44.730469 L 266.082031 44.355469 L 265.816406 43.945312 L 265.582031 43.5 L 265.378906 43.023438 L 265.207031 42.507812 L 265.066406 41.960938 L 264.957031 41.375 L 264.878906 40.757812 L 264.832031 40.105469 L 264.816406 39.417969 L 264.820312 39.042969 L 264.835938 38.679688 L 264.859375 38.328125 L 264.890625 37.988281 L 264.933594 37.664062 L 264.988281 37.347656 L 265.050781 37.042969 L 265.121094 36.75 L 265.203125 36.472656 L 265.292969 36.203125 L 265.390625 35.941406 L 265.496094 35.691406 L 265.609375 35.453125 L 265.726562 35.222656 L 265.855469 35.003906 L 265.988281 34.792969 L 266.128906 34.59375 L 266.277344 34.402344 L 266.429688 34.222656 L 266.59375 34.050781 L 266.761719 33.890625 L 266.933594 33.742188 L 267.113281 33.597656 L 267.296875 33.464844 L 267.484375 33.34375 L 267.679688 33.226562 L 267.882812 33.125 L 268.089844 33.027344 L 268.300781 32.941406 L 268.515625 32.863281 L 268.738281 32.792969 L 268.964844 32.730469 L 269.191406 32.671875 L 269.421875 32.625 L 269.65625 32.582031 L 269.890625 32.550781 L 270.132812 32.523438 L 270.375 32.503906 L 270.621094 32.492188 L 270.867188 32.488281 L 271.203125 32.496094 L 271.527344 32.511719 L 271.835938 32.539062 L 272.136719 32.578125 L 272.429688 32.625 L 272.707031 32.6875 L 272.972656 32.757812 L 273.230469 32.839844 L 273.472656 32.933594 L 273.707031 33.039062 L 273.933594 33.152344 L 274.148438 33.277344 L 274.355469 33.40625 L 274.554688 33.546875 L 274.742188 33.695312 L 274.921875 33.851562 L 275.089844 34.019531 L 275.25 34.191406 L 275.402344 34.375 L 275.542969 34.566406 L 275.679688 34.761719 L 275.808594 34.964844 L 275.925781 35.175781 L 276.039062 35.390625 L 276.140625 35.613281 L 276.234375 35.847656 L 276.324219 36.085938 L 276.402344 36.328125 L 276.472656 36.582031 L 276.53125 36.839844 L 276.589844 37.105469 L 276.640625 37.375 L 276.683594 37.648438 L 276.722656 37.925781 L 276.757812 38.207031 L 276.785156 38.492188 L 276.804688 38.78125 L 276.820312 39.078125 L 276.828125 39.375 L 276.832031 39.679688 L 276.832031 39.980469 Z M 274.507812 38.253906 L 274.460938 37.835938 L 274.402344 37.445312 L 274.332031 37.074219 L 274.242188 36.730469 L 274.140625 36.40625 L 274.023438 36.105469 L 273.894531 35.828125 L 273.75 35.578125 L 273.59375 35.347656 L 273.417969 35.140625 L 273.230469 34.953125 L 273.027344 34.785156 L 272.808594 34.636719 L 272.574219 34.507812 L 272.320312 34.398438 L 272.054688 34.308594 L 271.773438 34.242188 L 271.472656 34.191406 L 271.160156 34.164062 L 270.832031 34.152344 L 270.71875 34.152344 L 270.601562 34.160156 L 270.488281 34.167969 L 270.253906 34.199219 L 270.132812 34.21875 L 269.890625 34.273438 L 269.765625 34.304688 L 269.644531 34.339844 L 269.519531 34.378906 L 269.402344 34.421875 L 269.28125 34.472656 L 269.167969 34.527344 L 269.050781 34.585938 L 268.9375 34.652344 L 268.828125 34.726562 L 268.71875 34.804688 L 268.609375 34.886719 L 268.503906 34.976562 L 268.402344 35.074219 L 268.300781 35.175781 L 268.203125 35.285156 L 268.109375 35.402344 L 268.019531 35.523438 L 267.933594 35.652344 L 267.847656 35.789062 L 267.769531 35.933594 L 267.691406 36.082031 L 267.617188 36.242188 L 267.546875 36.402344 L 267.484375 36.574219 L 267.429688 36.753906 L 267.378906 36.941406 L 267.332031 37.136719 L 267.292969 37.34375 L 267.261719 37.558594 L 267.238281 37.78125 L 267.21875 38.011719 L 267.203125 38.253906 Z M 274.507812 38.253906 "/>
<path fill-rule="nonzero" fill="rgb(15.294118%, 15.686275%, 13.333333%)" fill-opacity="1" d="M 289.847656 42.53125 L 289.84375 42.71875 L 289.832031 42.902344 L 289.816406 43.082031 L 289.789062 43.257812 L 289.753906 43.429688 L 289.714844 43.597656 L 289.664062 43.761719 L 289.609375 43.921875 L 289.546875 44.078125 L 289.472656 44.230469 L 289.398438 44.375 L 289.316406 44.515625 L 289.226562 44.652344 L 289.128906 44.785156 L 289.027344 44.910156 L 288.917969 45.035156 L 288.800781 45.152344 L 288.675781 45.265625 L 288.546875 45.375 L 288.410156 45.480469 L 288.265625 45.578125 L 288.117188 45.671875 L 287.960938 45.761719 L 287.796875 45.84375 L 287.628906 45.925781 L 287.453125 46 L 287.269531 46.070312 L 287.082031 46.136719 L 286.886719 46.199219 L 286.683594 46.253906 L 286.480469 46.304688 L 286.269531 46.351562 L 286.050781 46.390625 L 285.828125 46.421875 L 285.597656 46.453125 L 285.363281 46.476562 L 285.121094 46.496094 L 284.871094 46.507812 L 284.621094 46.515625 L 284.359375 46.519531 L 284.125 46.515625 L 283.898438 46.511719 L 283.675781 46.5 L 283.457031 46.488281 L 283.242188 46.472656 L 283.03125 46.449219 L 282.824219 46.425781 L 282.625 46.398438 L 282.425781 46.367188 L 282.234375 46.332031 L 282.046875 46.292969 L 281.867188 46.25 L 281.691406 46.207031 L 281.519531 46.15625 L 281.351562 46.097656 L 281.191406 46.039062 L 281.03125 45.976562 L 280.878906 45.90625 L 280.726562 45.832031 L 280.582031 45.753906 L 280.441406 45.671875 L 280.308594 45.585938 L 280.175781 45.492188 L 280.050781 45.394531 L 279.925781 45.292969 L 279.808594 45.183594 L 279.695312 45.074219 L 279.585938 44.957031 L 279.382812 44.707031 L 279.289062 44.570312 L 279.203125 44.429688 L 279.121094 44.28125 L 279.042969 44.128906 L 278.96875 43.972656 L 278.902344 43.804688 L 278.839844 43.636719 L 278.78125 43.460938 L 278.730469 43.28125 L 278.683594 43.09375 L 280.671875 42.703125 L 280.734375 42.917969 L 280.8125 43.117188 L 280.898438 43.304688 L 281 43.484375 L 281.113281 43.648438 L 281.238281 43.804688 L 281.375 43.945312 L 281.523438 44.078125 L 281.683594 44.195312 L 281.859375 44.304688 L 282.046875 44.398438 L 282.246094 44.484375 L 282.460938 44.558594 L 282.691406 44.625 L 282.933594 44.679688 L 283.191406 44.726562 L 283.460938 44.761719 L 283.746094 44.785156 L 284.046875 44.800781 L 284.359375 44.804688 L 284.503906 44.804688 L 284.785156 44.796875 L 284.917969 44.789062 L 285.054688 44.78125 L 285.3125 44.757812 L 285.441406 44.742188 L 285.5625 44.722656 L 285.683594 44.707031 L 285.804688 44.683594 L 285.921875 44.660156 L 286.035156 44.632812 L 286.148438 44.601562 L 286.253906 44.570312 L 286.355469 44.535156 L 286.457031 44.496094 L 286.554688 44.457031 L 286.644531 44.414062 L 286.734375 44.367188 L 286.820312 44.316406 L 286.902344 44.261719 L 286.980469 44.203125 L 287.054688 44.144531 L 287.121094 44.082031 L 287.1875 44.011719 L 287.25 43.945312 L 287.308594 43.871094 L 287.359375 43.796875 L 287.410156 43.71875 L 287.457031 43.632812 L 287.5 43.546875 L 287.539062 43.453125 L 287.570312 43.359375 L 287.597656 43.257812 L 287.621094 43.15625 L 287.652344 42.9375 L 287.65625 42.824219 L 287.660156 42.703125 L 287.65625 42.585938 L 287.648438 42.46875 L 287.632812 42.355469 L 287.613281 42.25 L 287.589844 42.148438 L 287.558594 42.050781 L 287.519531 41.957031 L 287.476562 41.867188 L 287.425781 41.785156 L 287.371094 41.703125 L 287.3125 41.625 L 287.25 41.550781 L 287.179688 41.476562 L 287.105469 41.40625 L 287.027344 41.339844 L 286.945312 41.273438 L 286.859375 41.210938 L 286.769531 41.152344 L 286.671875 41.09375 L 286.574219 41.042969 L 286.46875 40.988281 L 286.359375 40.941406 L 286.246094 40.890625 L 286.003906 40.796875 L 285.746094 40.710938 L 285.609375 40.667969 L 285.46875 40.628906 L 285.324219 40.589844 L 285.027344 40.511719 L 284.875 40.46875 L 284.71875 40.425781 L 284.398438 40.339844 L 284.234375 40.292969 L 284.066406 40.246094 L 283.722656 40.152344 L 283.558594 40.109375 L 283.398438 40.066406 L 283.234375 40.023438 L 282.914062 39.929688 L 282.75 39.882812 L 282.109375 39.679688 L 281.949219 39.625 L 281.792969 39.566406 L 281.640625 39.507812 L 281.492188 39.441406 L 281.347656 39.375 L 281.203125 39.304688 L 281.0625 39.230469 L 280.925781 39.15625 L 280.789062 39.074219 L 280.660156 38.992188 L 280.535156 38.902344 L 280.414062 38.808594 L 280.296875 38.710938 L 280.1875 38.609375 L 280.082031 38.503906 L 279.980469 38.394531 L 279.882812 38.28125 L 279.789062 38.164062 L 279.703125 38.042969 L 279.621094 37.914062 L 279.542969 37.785156 L 279.476562 37.648438 L 279.417969 37.503906 L 279.363281 37.355469 L 279.320312 37.195312 L 279.285156 37.035156 L 279.257812 36.863281 L 279.238281 36.6875 L 279.226562 36.503906 L 279.21875 36.316406 L 279.234375 35.953125 L 279.273438 35.609375 L 279.339844 35.285156 L 279.429688 34.976562 L 279.550781 34.6875 L 279.691406 34.414062 L 279.863281 34.160156 L 280.0625 33.921875 L 280.285156 33.703125 L 280.535156 33.503906 L 280.8125 33.316406 L 281.113281 33.152344 L 281.4375 33.003906 L 281.785156 32.878906 L 282.160156 32.769531 L 282.554688 32.683594 L 282.976562 32.613281 L 283.421875 32.566406 L 283.890625 32.535156 L 284.382812 32.527344 L 284.824219 32.535156 L 285.242188 32.558594 L 285.644531 32.597656 L 286.027344 32.652344 L 286.390625 32.722656 L 286.738281 32.808594 L 287.066406 32.914062 L 287.375 33.03125 L 287.664062 33.164062 L 287.9375 33.316406 L 288.191406 33.480469 L 288.425781 33.667969 L 288.644531 33.871094 L 288.839844 34.097656 L 289.015625 34.339844 L 289.175781 34.601562 L 289.3125 34.882812 L 289.433594 35.183594 L 289.53125 35.503906 L 289.609375 35.839844 L 287.585938 36.089844 L 287.5625 35.988281 L 287.53125 35.886719 L 287.5 35.789062 L 287.464844 35.699219 L 287.425781 35.609375 L 287.382812 35.523438 L 287.335938 35.441406 L 287.285156 35.363281 L 287.230469 35.285156 L 287.113281 35.144531 L 287.046875 35.074219 L 286.914062 34.949219 L 286.839844 34.890625 L 286.769531 34.832031 L 286.613281 34.730469 L 286.53125 34.683594 L 286.449219 34.640625 L 286.363281 34.597656 L 286.273438 34.554688 L 286.183594 34.515625 L 286.089844 34.480469 L 285.996094 34.449219 L 285.898438 34.417969 L 285.796875 34.390625 L 285.695312 34.367188 L 285.378906 34.308594 L 285.273438 34.292969 L 285.164062 34.277344 L 285.058594 34.261719 L 284.949219 34.253906 L 284.835938 34.242188 L 284.726562 34.234375 L 284.5 34.226562 L 284.382812 34.226562 L 284.085938 34.230469 L 283.804688 34.246094 L 283.542969 34.269531 L 283.292969 34.300781 L 283.058594 34.34375 L 282.84375 34.394531 L 282.640625 34.453125 L 282.457031 34.523438 L 282.285156 34.601562 L 282.132812 34.691406 L 281.996094 34.789062 L 281.871094 34.894531 L 281.765625 35.011719 L 281.667969 35.136719 L 281.589844 35.269531 L 281.523438 35.417969 L 281.472656 35.570312 L 281.4375 35.734375 L 281.417969 35.90625 L 281.410156 36.089844 L 281.410156 36.199219 L 281.417969 36.304688 L 281.449219 36.5 L 281.472656 36.59375 L 281.503906 36.683594 L 281.539062 36.769531 L 281.578125 36.851562 L 281.621094 36.929688 L 281.671875 37.003906 L 281.726562 37.070312 L 281.789062 37.140625 L 281.921875 37.265625 L 281.996094 37.328125 L 282.074219 37.386719 L 282.15625 37.445312 L 282.238281 37.5 L 282.328125 37.550781 L 282.421875 37.601562 L 282.519531 37.648438 L 282.730469 37.742188 L 282.839844 37.785156 L 283.074219 37.871094 L 283.195312 37.910156 L 283.320312 37.953125 L 283.453125 37.992188 L 283.585938 38.027344 L 283.859375 38.097656 L 284 38.136719 L 284.148438 38.171875 L 284.292969 38.210938 L 284.445312 38.246094 L 284.597656 38.285156 L 284.910156 38.363281 L 285.074219 38.402344 L 285.179688 38.429688 L 285.289062 38.460938 L 285.507812 38.515625 L 285.835938 38.609375 L 285.949219 38.640625 L 286.058594 38.671875 L 286.285156 38.734375 L 286.394531 38.765625 L 286.507812 38.800781 L 286.726562 38.871094 L 286.835938 38.910156 L 286.941406 38.949219 L 287.050781 38.992188 L 287.367188 39.121094 L 287.578125 39.214844 L 287.679688 39.261719 L 287.78125 39.3125 L 287.878906 39.367188 L 287.976562 39.417969 L 288.074219 39.476562 L 288.167969 39.53125 L 288.355469 39.648438 L 288.535156 39.773438 L 288.621094 39.839844 L 288.785156 39.980469 L 288.863281 40.054688 L 288.941406 40.132812 L 289.015625 40.210938 L 289.15625 40.375 L 289.21875 40.460938 L 289.28125 40.550781 L 289.34375 40.644531 L 289.398438 40.738281 L 289.453125 40.835938 L 289.503906 40.9375 L 289.550781 41.039062 L 289.59375 41.144531 L 289.636719 41.253906 L 289.675781 41.367188 L 289.710938 41.480469 L 289.746094 41.601562 L 289.773438 41.722656 L 289.796875 41.847656 L 289.816406 41.976562 L 289.828125 42.109375 L 289.839844 42.246094 L 289.847656 42.386719 Z M 289.847656 42.53125 "/>
<path fill-rule="nonzero" fill="rgb(15.294118%, 15.686275%, 13.333333%)" fill-opacity="1" d="M 297.625 51.582031 L 297.394531 51.578125 L 297.171875 51.574219 L 296.953125 51.5625 L 296.738281 51.542969 L 296.527344 51.523438 L 296.324219 51.496094 L 296.125 51.464844 L 295.933594 51.429688 L 295.746094 51.390625 L 295.5625 51.34375 L 295.386719 51.296875 L 295.214844 51.242188 L 295.046875 51.183594 L 294.882812 51.121094 L 294.726562 51.054688 L 294.578125 50.984375 L 294.429688 50.90625 L 294.289062 50.828125 L 294.15625 50.746094 L 294.023438 50.65625 L 293.898438 50.566406 L 293.78125 50.476562 L 293.664062 50.378906 L 293.445312 50.175781 L 293.34375 50.070312 L 293.15625 49.84375 L 293.070312 49.726562 L 292.988281 49.605469 L 292.910156 49.484375 L 292.835938 49.355469 L 292.765625 49.226562 L 292.703125 49.09375 L 292.644531 48.960938 L 292.589844 48.820312 L 292.539062 48.679688 L 292.492188 48.539062 L 292.449219 48.390625 L 292.410156 48.242188 L 294.675781 47.917969 L 294.726562 48.101562 L 294.785156 48.277344 L 294.859375 48.441406 L 294.941406 48.597656 L 295.035156 48.746094 L 295.140625 48.886719 L 295.253906 49.015625 L 295.378906 49.140625 L 295.515625 49.253906 L 295.664062 49.355469 L 295.824219 49.453125 L 295.992188 49.542969 L 296.171875 49.617188 L 296.359375 49.683594 L 296.558594 49.742188 L 296.765625 49.789062 L 296.980469 49.824219 L 297.207031 49.847656 L 297.441406 49.863281 L 297.6875 49.871094 L 297.839844 49.867188 L 297.988281 49.859375 L 298.132812 49.851562 L 298.277344 49.835938 L 298.417969 49.816406 L 298.554688 49.792969 L 298.6875 49.765625 L 298.820312 49.734375 L 299.078125 49.65625 L 299.199219 49.613281 L 299.320312 49.5625 L 299.546875 49.445312 L 299.65625 49.378906 L 299.757812 49.308594 L 299.859375 49.230469 L 299.957031 49.148438 L 300.050781 49.0625 L 300.140625 48.96875 L 300.226562 48.875 L 300.304688 48.773438 L 300.382812 48.664062 L 300.457031 48.554688 L 300.527344 48.433594 L 300.59375 48.308594 L 300.652344 48.179688 L 300.710938 48.042969 L 300.765625 47.902344 L 300.816406 47.757812 L 300.859375 47.601562 L 300.898438 47.441406 L 300.9375 47.277344 L 300.964844 47.105469 L 300.992188 46.925781 L 301.015625 46.738281 L 301.03125 46.546875 L 301.042969 46.347656 L 301.050781 46.140625 L 301.050781 43.753906 L 301.027344 43.753906 L 300.976562 43.855469 L 300.867188 44.058594 L 300.808594 44.160156 L 300.683594 44.355469 L 300.617188 44.453125 L 300.476562 44.648438 L 300.328125 44.835938 L 300.25 44.925781 L 300.167969 45.011719 L 300.082031 45.097656 L 299.996094 45.179688 L 299.902344 45.261719 L 299.808594 45.339844 L 299.710938 45.417969 L 299.605469 45.496094 L 299.5 45.566406 L 299.394531 45.640625 L 299.285156 45.707031 L 299.171875 45.773438 L 299.054688 45.835938 L 298.933594 45.894531 L 298.808594 45.953125 L 298.679688 46.007812 L 298.550781 46.058594 L 298.414062 46.109375 L 298.277344 46.15625 L 298.132812 46.195312 L 297.988281 46.230469 L 297.839844 46.265625 L 297.683594 46.292969 L 297.527344 46.316406 L 297.363281 46.335938 L 297.199219 46.347656 L 297.027344 46.359375 L 296.855469 46.367188 L 296.675781 46.367188 L 296.421875 46.363281 L 296.175781 46.351562 L 295.9375 46.328125 L 295.703125 46.300781 L 295.480469 46.261719 L 295.261719 46.214844 L 295.050781 46.160156 L 294.847656 46.097656 L 294.652344 46.023438 L 294.460938 45.941406 L 294.285156 45.851562 L 294.109375 45.75 L 293.945312 45.640625 L 293.785156 45.523438 L 293.632812 45.398438 L 293.484375 45.265625 L 293.34375 45.121094 L 293.210938 44.972656 L 293.082031 44.8125 L 292.960938 44.644531 L 292.851562 44.464844 L 292.742188 44.28125 L 292.644531 44.089844 L 292.550781 43.886719 L 292.460938 43.675781 L 292.378906 43.457031 L 292.304688 43.234375 L 292.234375 43 L 292.171875 42.753906 L 292.113281 42.503906 L 292.0625 42.242188 L 292.015625 41.972656 L 291.976562 41.695312 L 291.945312 41.410156 L 291.914062 41.117188 L 291.890625 40.816406 L 291.871094 40.503906 L 291.859375 40.1875 L 291.851562 39.863281 L 291.847656 39.527344 L 291.851562 39.207031 L 291.859375 38.890625 L 291.871094 38.582031 L 291.890625 38.28125 L 291.914062 37.984375 L 291.945312 37.695312 L 291.976562 37.414062 L 292.015625 37.136719 L 292.0625 36.867188 L 292.113281 36.601562 L 292.171875 36.347656 L 292.234375 36.097656 L 292.304688 35.859375 L 292.382812 35.625 L 292.46875 35.402344 L 292.558594 35.1875 L 292.65625 34.976562 L 292.761719 34.777344 L 292.871094 34.585938 L 292.988281 34.402344 L 293.113281 34.222656 L 293.246094 34.054688 L 293.386719 33.894531 L 293.535156 33.742188 L 293.6875 33.597656 L 293.847656 33.464844 L 294.015625 33.339844 L 294.191406 33.222656 L 294.375 33.113281 L 294.5625 33.015625 L 294.761719 32.921875 L 294.96875 32.839844 L 295.183594 32.765625 L 295.410156 32.703125 L 295.640625 32.648438 L 295.882812 32.605469 L 296.128906 32.570312 L 296.386719 32.546875 L 296.652344 32.53125 L 296.925781 32.527344 L 297.210938 32.535156 L 297.484375 32.554688 L 297.753906 32.585938 L 298.015625 32.632812 L 298.265625 32.691406 L 298.511719 32.765625 L 298.75 32.851562 L 298.976562 32.949219 L 299.199219 33.0625 L 299.414062 33.191406 L 299.621094 33.324219 L 299.820312 33.472656 L 300.007812 33.628906 L 300.1875 33.800781 L 300.355469 33.980469 L 300.515625 34.171875 L 300.664062 34.375 L 300.800781 34.589844 L 300.933594 34.816406 L 301.050781 35.050781 L 301.078125 35.050781 L 301.078125 34.789062 L 301.082031 34.722656 L 301.082031 34.578125 L 301.085938 34.503906 L 301.085938 34.429688 L 301.09375 34.273438 L 301.101562 34.125 L 301.109375 34.050781 L 301.113281 33.976562 L 301.113281 33.90625 L 301.125 33.695312 L 301.128906 33.628906 L 301.132812 33.558594 L 301.140625 33.425781 L 301.148438 33.363281 L 301.152344 33.300781 L 301.15625 33.242188 L 301.160156 33.1875 L 301.167969 33.132812 L 301.171875 33.078125 L 301.175781 33.027344 L 301.183594 32.980469 L 301.1875 32.933594 L 301.191406 32.894531 L 301.195312 32.859375 L 301.203125 32.828125 L 301.210938 32.78125 L 301.21875 32.761719 L 301.226562 32.738281 L 303.363281 32.738281 L 303.363281 32.761719 L 303.359375 32.789062 L 303.359375 32.820312 L 303.351562 32.890625 L 303.351562 32.933594 L 303.347656 32.976562 L 303.34375 33.023438 L 303.34375 33.074219 L 303.339844 33.125 L 303.335938 33.179688 L 303.335938 33.238281 L 303.332031 33.292969 L 303.332031 33.355469 L 303.328125 33.417969 L 303.324219 33.484375 L 303.324219 33.550781 L 303.320312 33.617188 L 303.316406 33.691406 L 303.316406 33.765625 L 303.3125 33.839844 L 303.308594 33.917969 L 303.308594 33.996094 L 303.300781 34.160156 L 303.300781 34.246094 L 303.296875 34.332031 L 303.296875 34.421875 L 303.289062 34.601562 L 303.289062 45.878906 L 303.277344 46.433594 L 303.234375 46.960938 L 303.164062 47.457031 L 303.066406 47.925781 L 302.941406 48.367188 L 302.785156 48.777344 L 302.605469 49.160156 L 302.394531 49.519531 L 302.15625 49.84375 L 301.890625 50.144531 L 301.597656 50.417969 L 301.273438 50.660156 L 300.921875 50.878906 L 300.542969 51.066406 L 300.128906 51.222656 L 299.6875 51.351562 L 299.21875 51.453125 L 298.71875 51.523438 L 298.1875 51.566406 Z M 301.050781 39.503906 L 301.050781 39.226562 L 301.039062 38.957031 L 301.023438 38.691406 L 301.003906 38.441406 L 300.972656 38.195312 L 300.941406 37.957031 L 300.898438 37.726562 L 300.851562 37.507812 L 300.800781 37.292969 L 300.738281 37.089844 L 300.675781 36.890625 L 300.613281 36.699219 L 300.542969 36.515625 L 300.46875 36.339844 L 300.390625 36.171875 L 300.308594 36.011719 L 300.222656 35.855469 L 300.132812 35.710938 L 300.039062 35.570312 L 299.9375 35.441406 L 299.835938 35.316406 L 299.734375 35.199219 L 299.625 35.089844 L 299.515625 34.984375 L 299.402344 34.886719 L 299.285156 34.796875 L 299.164062 34.710938 L 299.042969 34.636719 L 298.917969 34.566406 L 298.789062 34.503906 L 298.660156 34.445312 L 298.53125 34.394531 L 298.402344 34.347656 L 298.273438 34.308594 L 298.140625 34.277344 L 298.011719 34.25 L 297.878906 34.230469 L 297.746094 34.214844 L 297.609375 34.207031 L 297.476562 34.203125 L 297.304688 34.207031 L 297.140625 34.214844 L 296.980469 34.230469 L 296.824219 34.25 L 296.671875 34.277344 L 296.527344 34.308594 L 296.382812 34.347656 L 296.246094 34.394531 L 296.117188 34.445312 L 295.988281 34.503906 L 295.867188 34.566406 L 295.75 34.636719 L 295.636719 34.714844 L 295.53125 34.796875 L 295.425781 34.890625 L 295.324219 34.988281 L 295.226562 35.09375 L 295.136719 35.207031 L 295.046875 35.324219 L 294.960938 35.453125 L 294.882812 35.582031 L 294.8125 35.722656 L 294.742188 35.867188 L 294.675781 36.023438 L 294.613281 36.183594 L 294.554688 36.351562 L 294.5 36.527344 L 294.449219 36.714844 L 294.40625 36.90625 L 294.363281 37.101562 L 294.328125 37.308594 L 294.296875 37.519531 L 294.265625 37.738281 L 294.242188 37.96875 L 294.222656 38.203125 L 294.203125 38.449219 L 294.191406 38.699219 L 294.183594 38.960938 L 294.175781 39.226562 L 294.175781 39.792969 L 294.183594 40.070312 L 294.191406 40.339844 L 294.203125 40.601562 L 294.222656 40.851562 L 294.242188 41.09375 L 294.265625 41.324219 L 294.296875 41.546875 L 294.328125 41.761719 L 294.363281 41.96875 L 294.40625 42.160156 L 294.449219 42.347656 L 294.5 42.527344 L 294.554688 42.695312 L 294.613281 42.859375 L 294.675781 43.015625 L 294.742188 43.167969 L 294.8125 43.308594 L 294.882812 43.441406 L 294.960938 43.566406 L 295.042969 43.6875 L 295.132812 43.796875 L 295.222656 43.902344 L 295.316406 44 L 295.417969 44.09375 L 295.519531 44.175781 L 295.628906 44.253906 L 295.738281 44.324219 L 295.855469 44.386719 L 295.976562 44.441406 L 296.101562 44.492188 L 296.230469 44.539062 L 296.363281 44.578125 L 296.503906 44.609375 L 296.648438 44.640625 L 296.796875 44.664062 L 296.949219 44.683594 L 297.109375 44.695312 L 297.269531 44.703125 L 297.4375 44.707031 L 297.574219 44.703125 L 297.707031 44.695312 L 297.839844 44.679688 L 297.972656 44.660156 L 298.105469 44.632812 L 298.234375 44.601562 L 298.367188 44.5625 L 298.496094 44.519531 L 298.625 44.472656 L 298.75 44.417969 L 298.878906 44.355469 L 299.007812 44.289062 L 299.128906 44.214844 L 299.25 44.132812 L 299.367188 44.046875 L 299.59375 43.851562 L 299.703125 43.742188 L 299.808594 43.625 L 299.914062 43.503906 L 300.015625 43.375 L 300.109375 43.242188 L 300.203125 43.097656 L 300.292969 42.945312 L 300.375 42.789062 L 300.457031 42.625 L 300.535156 42.453125 L 300.605469 42.273438 L 300.675781 42.085938 L 300.738281 41.890625 L 300.800781 41.691406 L 300.851562 41.480469 L 300.898438 41.261719 L 300.941406 41.035156 L 300.972656 40.800781 L 301.003906 40.558594 L 301.023438 40.308594 L 301.039062 40.046875 L 301.050781 39.78125 Z M 301.050781 39.503906 "/>
<path fill-rule="nonzero" fill="rgb(15.294118%, 15.686275%, 13.333333%)" fill-opacity="1" d="M 318.183594 39.492188 L 318.167969 40.183594 L 318.121094 40.839844 L 318.042969 41.457031 L 317.933594 42.042969 L 317.792969 42.589844 L 317.621094 43.101562 L 317.417969 43.574219 L 317.183594 44.011719 L 316.917969 44.414062 L 316.617188 44.78125 L 316.292969 45.109375 L 315.9375 45.40625 L 315.554688 45.667969 L 315.144531 45.894531 L 314.703125 46.082031 L 314.234375 46.242188 L 313.738281 46.363281 L 313.214844 46.449219 L 312.660156 46.5 L 312.082031 46.519531 L 311.800781 46.515625 L 311.527344 46.5 L 311.257812 46.480469 L 310.996094 46.449219 L 310.742188 46.410156 L 310.492188 46.367188 L 310.25 46.308594 L 310.011719 46.246094 L 309.78125 46.175781 L 309.554688 46.09375 L 309.335938 46.003906 L 309.121094 45.90625 L 308.917969 45.796875 L 308.71875 45.679688 L 308.527344 45.554688 L 308.339844 45.421875 L 308.160156 45.277344 L 307.988281 45.125 L 307.824219 44.964844 L 307.667969 44.792969 L 307.515625 44.613281 L 307.375 44.425781 L 307.242188 44.226562 L 307.113281 44.023438 L 306.992188 43.808594 L 306.878906 43.585938 L 306.769531 43.351562 L 306.671875 43.113281 L 306.578125 42.863281 L 306.492188 42.605469 L 306.414062 42.335938 L 306.347656 42.054688 L 306.285156 41.769531 L 306.234375 41.46875 L 306.191406 41.164062 L 306.15625 40.847656 L 306.128906 40.523438 L 306.105469 40.1875 L 306.09375 39.84375 L 306.089844 39.492188 L 306.152344 38.160156 L 306.332031 36.96875 L 306.636719 35.921875 L 307.0625 35.011719 L 307.605469 34.238281 L 308.273438 33.609375 L 309.0625 33.121094 L 309.972656 32.769531 L 311.003906 32.558594 L 312.15625 32.488281 L 312.464844 32.492188 L 312.769531 32.507812 L 313.0625 32.527344 L 313.34375 32.558594 L 313.621094 32.597656 L 313.886719 32.648438 L 314.148438 32.703125 L 314.394531 32.769531 L 314.636719 32.84375 L 314.867188 32.925781 L 315.09375 33.019531 L 315.3125 33.121094 L 315.519531 33.230469 L 315.722656 33.347656 L 315.914062 33.472656 L 316.097656 33.609375 L 316.269531 33.753906 L 316.4375 33.90625 L 316.59375 34.070312 L 316.742188 34.238281 L 316.886719 34.417969 L 317.023438 34.605469 L 317.152344 34.804688 L 317.273438 35.011719 L 317.386719 35.222656 L 317.488281 35.449219 L 317.585938 35.679688 L 317.675781 35.921875 L 317.757812 36.167969 L 317.832031 36.429688 L 317.898438 36.695312 L 317.957031 36.96875 L 318.011719 37.253906 L 318.054688 37.546875 L 318.09375 37.851562 L 318.125 38.160156 L 318.152344 38.480469 L 318.167969 38.808594 L 318.179688 39.144531 Z M 315.820312 39.492188 L 315.816406 39.183594 L 315.808594 38.882812 L 315.796875 38.59375 L 315.777344 38.320312 L 315.757812 38.054688 L 315.730469 37.796875 L 315.695312 37.554688 L 315.660156 37.324219 L 315.617188 37.101562 L 315.570312 36.890625 L 315.519531 36.691406 L 315.464844 36.496094 L 315.40625 36.3125 L 315.339844 36.136719 L 315.273438 35.96875 L 315.199219 35.808594 L 315.121094 35.65625 L 315.035156 35.515625 L 314.949219 35.378906 L 314.855469 35.253906 L 314.761719 35.132812 L 314.664062 35.023438 L 314.558594 34.917969 L 314.453125 34.824219 L 314.339844 34.734375 L 314.222656 34.652344 L 314.105469 34.578125 L 313.980469 34.511719 L 313.851562 34.453125 L 313.71875 34.402344 L 313.582031 34.355469 L 313.441406 34.3125 L 313.296875 34.273438 L 313.148438 34.242188 L 313 34.214844 L 312.84375 34.191406 L 312.6875 34.175781 L 312.527344 34.164062 L 312.359375 34.15625 L 312.191406 34.152344 L 312.023438 34.15625 L 311.855469 34.164062 L 311.691406 34.175781 L 311.527344 34.195312 L 311.371094 34.21875 L 311.214844 34.246094 L 311.066406 34.28125 L 310.917969 34.320312 L 310.773438 34.363281 L 310.628906 34.414062 L 310.496094 34.46875 L 310.363281 34.53125 L 310.234375 34.597656 L 310.113281 34.675781 L 309.992188 34.757812 L 309.875 34.851562 L 309.765625 34.949219 L 309.65625 35.054688 L 309.554688 35.167969 L 309.453125 35.289062 L 309.359375 35.417969 L 309.269531 35.550781 L 309.183594 35.695312 L 309.101562 35.847656 L 309.023438 36.007812 L 308.949219 36.175781 L 308.882812 36.351562 L 308.816406 36.535156 L 308.757812 36.726562 L 308.703125 36.929688 L 308.65625 37.136719 L 308.613281 37.359375 L 308.578125 37.589844 L 308.542969 37.832031 L 308.515625 38.082031 L 308.496094 38.34375 L 308.476562 38.613281 L 308.464844 38.898438 L 308.457031 39.1875 L 308.453125 39.492188 L 308.457031 39.800781 L 308.464844 40.101562 L 308.480469 40.386719 L 308.5 40.664062 L 308.523438 40.933594 L 308.554688 41.1875 L 308.589844 41.433594 L 308.628906 41.667969 L 308.675781 41.890625 L 308.730469 42.105469 L 308.785156 42.304688 L 308.847656 42.5 L 308.914062 42.683594 L 308.980469 42.859375 L 309.054688 43.027344 L 309.132812 43.1875 L 309.210938 43.335938 L 309.296875 43.480469 L 309.386719 43.617188 L 309.480469 43.742188 L 309.578125 43.863281 L 309.679688 43.972656 L 309.785156 44.078125 L 309.894531 44.175781 L 310.007812 44.265625 L 310.125 44.347656 L 310.242188 44.421875 L 310.363281 44.492188 L 310.488281 44.550781 L 310.617188 44.605469 L 310.75 44.652344 L 310.886719 44.695312 L 311.023438 44.734375 L 311.164062 44.765625 L 311.308594 44.792969 L 311.453125 44.816406 L 311.601562 44.832031 L 311.75 44.84375 L 311.902344 44.851562 L 312.054688 44.855469 L 312.226562 44.851562 L 312.394531 44.847656 L 312.558594 44.835938 L 312.878906 44.796875 L 313.03125 44.769531 L 313.183594 44.738281 L 313.332031 44.703125 L 313.476562 44.664062 L 313.617188 44.617188 L 313.757812 44.5625 L 313.890625 44.503906 L 314.019531 44.433594 L 314.144531 44.359375 L 314.265625 44.277344 L 314.382812 44.1875 L 314.496094 44.089844 L 314.601562 43.984375 L 314.707031 43.875 L 314.804688 43.753906 L 314.902344 43.628906 L 314.992188 43.492188 L 315.078125 43.347656 L 315.160156 43.195312 L 315.238281 43.035156 L 315.308594 42.867188 L 315.378906 42.6875 L 315.441406 42.503906 L 315.5 42.308594 L 315.554688 42.105469 L 315.605469 41.890625 L 315.652344 41.667969 L 315.691406 41.433594 L 315.722656 41.1875 L 315.753906 40.933594 L 315.777344 40.664062 L 315.796875 40.386719 L 315.808594 40.101562 L 315.816406 39.800781 Z M 315.820312 39.492188 "/>
</svg>
