<?xml version="1.0" encoding="UTF-8"?>
<svg xmlns="http://www.w3.org/2000/svg" xmlns:xlink="http://www.w3.org/1999/xlink" width="396pt" height="396pt" viewBox="0 0 396 396" version="1.1">
<defs>
<clipPath id="clip1">
  <path d="M 350 32 L 358.542969 32 L 358.542969 47 L 350 47 Z M 350 32 "/>
</clipPath>
</defs>
<g id="surface334">
<rect x="0" y="0" width="396" height="396" style="fill:rgb(100%,100%,100%);fill-opacity:1;stroke:none;"/>
<path style="fill-rule:nonzero;fill:rgb(54.509804%,69.411765%,45.490196%);fill-opacity:0.298039;stroke-width:1.600468;stroke-linecap:round;stroke-linejoin:round;stroke:rgb(54.509804%,69.411765%,45.490196%);stroke-opacity:1;stroke-miterlimit:10;" d="M 173.675781 232.054688 L 174.949219 232.066406 L 176.222656 232.097656 L 177.496094 232.152344 L 178.765625 232.230469 L 180.035156 232.332031 L 181.304688 232.453125 L 182.570312 232.597656 L 183.832031 232.765625 L 185.089844 232.953125 L 186.347656 233.164062 L 187.597656 233.394531 L 188.847656 233.648438 L 190.089844 233.925781 L 191.328125 234.222656 L 192.5625 234.539062 L 193.789062 234.882812 L 195.011719 235.242188 L 196.226562 235.625 L 197.433594 236.03125 L 198.632812 236.453125 L 199.828125 236.902344 L 201.011719 237.367188 L 202.1875 237.855469 L 203.355469 238.363281 L 204.515625 238.890625 L 205.664062 239.4375 L 206.804688 240.007812 L 207.933594 240.597656 L 209.054688 241.203125 L 210.164062 241.832031 L 211.257812 242.476562 L 212.34375 243.140625 L 213.417969 243.828125 L 214.480469 244.53125 L 215.53125 245.25 L 216.566406 245.992188 L 217.59375 246.75 L 218.601562 247.523438 L 219.597656 248.316406 L 220.582031 249.125 L 221.550781 249.953125 L 222.503906 250.796875 L 223.441406 251.65625 L 224.367188 252.535156 L 225.273438 253.425781 L 226.167969 254.335938 L 227.042969 255.257812 L 227.90625 256.199219 L 228.75 257.152344 L 229.578125 258.121094 L 230.386719 259.105469 L 231.179688 260.101562 L 231.953125 261.109375 L 232.710938 262.132812 L 233.453125 263.171875 L 234.171875 264.222656 L 234.875 265.28125 L 235.558594 266.355469 L 236.226562 267.441406 L 236.871094 268.539062 L 237.5 269.648438 L 238.105469 270.769531 L 238.695312 271.898438 L 239.261719 273.039062 L 239.8125 274.1875 L 240.339844 275.347656 L 240.847656 276.515625 L 241.335938 277.691406 L 241.800781 278.875 L 242.246094 280.070312 L 242.671875 281.269531 L 243.078125 282.476562 L 243.460938 283.691406 L 243.820312 284.914062 L 244.164062 286.140625 L 244.480469 287.375 L 244.777344 288.613281 L 245.054688 289.855469 L 245.308594 291.101562 L 245.539062 292.355469 L 245.75 293.613281 L 245.9375 294.871094 L 246.105469 296.132812 L 246.25 297.398438 L 246.371094 298.667969 L 246.472656 299.9375 L 246.546875 301.207031 L 246.605469 302.480469 L 246.636719 303.753906 L 246.648438 305.027344 L 246.636719 306.300781 L 246.605469 307.574219 L 246.546875 308.847656 L 246.472656 310.117188 L 246.371094 311.386719 L 246.25 312.65625 L 246.105469 313.921875 L 245.9375 315.183594 L 245.75 316.441406 L 245.539062 317.699219 L 245.308594 318.949219 L 245.054688 320.199219 L 244.777344 321.441406 L 244.480469 322.679688 L 244.164062 323.914062 L 243.820312 325.140625 L 243.460938 326.363281 L 243.078125 327.578125 L 242.671875 328.785156 L 242.246094 329.984375 L 241.800781 331.179688 L 241.335938 332.363281 L 240.847656 333.539062 L 240.339844 334.707031 L 239.8125 335.867188 L 239.261719 337.015625 L 238.695312 338.15625 L 238.105469 339.285156 L 237.5 340.40625 L 236.871094 341.511719 L 236.226562 342.609375 L 235.558594 343.695312 L 234.875 344.769531 L 234.171875 345.832031 L 233.453125 346.882812 L 232.710938 347.917969 L 231.953125 348.941406 L 231.179688 349.953125 L 230.386719 350.949219 L 229.578125 351.933594 L 228.75 352.902344 L 227.90625 353.855469 L 227.042969 354.792969 L 226.167969 355.71875 L 225.273438 356.625 L 224.367188 357.519531 L 223.441406 358.394531 L 222.503906 359.257812 L 221.550781 360.101562 L 220.582031 360.925781 L 219.597656 361.738281 L 218.601562 362.53125 L 217.59375 363.304688 L 216.566406 364.0625 L 215.53125 364.804688 L 214.480469 365.523438 L 213.417969 366.226562 L 212.34375 366.910156 L 211.257812 367.578125 L 210.164062 368.222656 L 209.054688 368.851562 L 207.933594 369.457031 L 206.804688 370.046875 L 205.664062 370.613281 L 204.515625 371.164062 L 203.355469 371.691406 L 202.1875 372.199219 L 201.011719 372.6875 L 199.828125 373.152344 L 198.632812 373.597656 L 197.433594 374.023438 L 196.226562 374.429688 L 195.011719 374.8125 L 193.789062 375.171875 L 192.5625 375.511719 L 191.328125 375.832031 L 190.089844 376.128906 L 188.847656 376.40625 L 187.597656 376.660156 L 186.347656 376.890625 L 185.089844 377.101562 L 183.832031 377.289062 L 182.570312 377.457031 L 181.304688 377.601562 L 180.035156 377.722656 L 178.765625 377.820312 L 177.496094 377.898438 L 176.222656 377.957031 L 174.949219 377.988281 L 173.675781 378 L 172.402344 377.988281 L 171.128906 377.957031 L 169.855469 377.898438 L 168.585938 377.820312 L 167.316406 377.722656 L 166.046875 377.601562 L 164.78125 377.457031 L 163.519531 377.289062 L 162.261719 377.101562 L 161.003906 376.890625 L 159.75 376.660156 L 158.503906 376.40625 L 157.261719 376.128906 L 156.023438 375.832031 L 154.789062 375.511719 L 153.5625 375.171875 L 152.339844 374.8125 L 151.125 374.429688 L 149.917969 374.023438 L 148.71875 373.597656 L 147.523438 373.152344 L 146.339844 372.6875 L 145.164062 372.199219 L 143.996094 371.691406 L 142.835938 371.164062 L 141.6875 370.613281 L 140.546875 370.046875 L 139.417969 369.457031 L 138.296875 368.851562 L 137.1875 368.222656 L 136.09375 367.578125 L 135.007812 366.910156 L 133.933594 366.226562 L 132.871094 365.523438 L 131.820312 364.804688 L 130.785156 364.0625 L 129.757812 363.304688 L 128.75 362.53125 L 127.753906 361.738281 L 126.769531 360.925781 L 125.800781 360.101562 L 124.847656 359.257812 L 123.910156 358.394531 L 122.984375 357.519531 L 122.074219 356.625 L 121.183594 355.71875 L 120.304688 354.792969 L 119.445312 353.855469 L 118.601562 352.902344 L 117.773438 351.933594 L 116.964844 350.949219 L 116.171875 349.953125 L 115.398438 348.941406 L 114.640625 347.917969 L 113.898438 346.882812 L 113.179688 345.832031 L 112.476562 344.769531 L 111.792969 343.695312 L 111.125 342.609375 L 110.480469 341.511719 L 109.851562 340.40625 L 109.246094 339.285156 L 108.65625 338.15625 L 108.089844 337.015625 L 107.539062 335.867188 L 107.011719 334.707031 L 106.503906 333.539062 L 106.015625 332.363281 L 105.550781 331.179688 L 105.101562 329.984375 L 104.679688 328.785156 L 104.273438 327.578125 L 103.890625 326.363281 L 103.53125 325.140625 L 103.1875 323.914062 L 102.871094 322.679688 L 102.574219 321.441406 L 102.296875 320.199219 L 102.042969 318.949219 L 101.8125 317.699219 L 101.601562 316.441406 L 101.414062 315.183594 L 101.246094 313.921875 L 101.101562 312.65625 L 100.980469 311.386719 L 100.878906 310.117188 L 100.800781 308.847656 L 100.746094 307.574219 L 100.714844 306.300781 L 100.703125 305.027344 L 100.714844 303.753906 L 100.746094 302.480469 L 100.800781 301.207031 L 100.878906 299.9375 L 100.980469 298.667969 L 101.101562 297.398438 L 101.246094 296.132812 L 101.414062 294.871094 L 101.601562 293.613281 L 101.8125 292.355469 L 102.042969 291.101562 L 102.296875 289.855469 L 102.574219 288.613281 L 102.871094 287.375 L 103.1875 286.140625 L 103.53125 284.914062 L 103.890625 283.691406 L 104.273438 282.476562 L 104.679688 281.269531 L 105.101562 280.070312 L 105.550781 278.875 L 106.015625 277.691406 L 106.503906 276.515625 L 107.011719 275.347656 L 107.539062 274.1875 L 108.089844 273.039062 L 108.65625 271.898438 L 109.246094 270.769531 L 109.851562 269.648438 L 110.480469 268.539062 L 111.125 267.441406 L 111.792969 266.355469 L 112.476562 265.28125 L 113.179688 264.222656 L 113.898438 263.171875 L 114.640625 262.132812 L 115.398438 261.109375 L 116.171875 260.101562 L 116.964844 259.105469 L 117.773438 258.121094 L 118.601562 257.152344 L 119.445312 256.199219 L 120.304688 255.257812 L 121.183594 254.335938 L 122.074219 253.425781 L 122.984375 252.535156 L 123.910156 251.65625 L 124.847656 250.796875 L 125.800781 249.953125 L 126.769531 249.125 L 127.753906 248.316406 L 128.75 247.523438 L 129.757812 246.75 L 130.785156 245.992188 L 131.820312 245.25 L 132.871094 244.53125 L 133.933594 243.828125 L 135.007812 243.140625 L 136.09375 242.476562 L 137.1875 241.832031 L 138.296875 241.203125 L 139.417969 240.597656 L 140.546875 240.007812 L 141.6875 239.4375 L 142.835938 238.890625 L 143.996094 238.363281 L 145.164062 237.855469 L 146.339844 237.367188 L 147.523438 236.902344 L 148.71875 236.453125 L 149.917969 236.03125 L 151.125 235.625 L 152.339844 235.242188 L 153.5625 234.882812 L 154.789062 234.539062 L 156.023438 234.222656 L 157.261719 233.925781 L 158.503906 233.648438 L 159.75 233.394531 L 161.003906 233.164062 L 162.261719 232.953125 L 163.519531 232.765625 L 164.78125 232.597656 L 166.046875 232.453125 L 167.316406 232.332031 L 168.585938 232.230469 L 169.855469 232.152344 L 171.128906 232.097656 L 172.402344 232.066406 Z M 173.675781 232.054688 "/>
<path style="fill-rule:nonzero;fill:rgb(100%,64.705882%,0%);fill-opacity:0.298039;stroke-width:1.600468;stroke-linecap:round;stroke-linejoin:round;stroke:rgb(100%,64.705882%,0%);stroke-opacity:1;stroke-dasharray:1.600468,4.801403;stroke-miterlimit:10;" d="M 149.351562 22.863281 L 150.457031 22.875 L 151.558594 22.902344 L 152.660156 22.953125 L 153.761719 23.019531 L 154.863281 23.105469 L 155.960938 23.210938 L 157.058594 23.335938 L 158.152344 23.480469 L 159.246094 23.644531 L 160.332031 23.824219 L 161.417969 24.027344 L 162.5 24.246094 L 163.578125 24.484375 L 164.652344 24.742188 L 165.71875 25.019531 L 166.785156 25.316406 L 167.84375 25.628906 L 168.894531 25.960938 L 169.941406 26.308594 L 170.980469 26.679688 L 172.015625 27.066406 L 173.042969 27.46875 L 174.0625 27.890625 L 175.074219 28.332031 L 176.078125 28.789062 L 177.074219 29.265625 L 178.0625 29.757812 L 179.042969 30.269531 L 180.011719 30.792969 L 180.972656 31.335938 L 181.925781 31.898438 L 182.863281 32.476562 L 183.796875 33.066406 L 184.714844 33.675781 L 185.625 34.300781 L 186.523438 34.941406 L 187.410156 35.601562 L 188.289062 36.273438 L 189.152344 36.957031 L 190.003906 37.660156 L 190.84375 38.378906 L 191.667969 39.109375 L 192.484375 39.855469 L 193.285156 40.613281 L 194.070312 41.386719 L 194.84375 42.175781 L 195.605469 42.976562 L 196.351562 43.789062 L 197.082031 44.617188 L 197.796875 45.457031 L 198.5 46.308594 L 199.1875 47.171875 L 199.859375 48.046875 L 200.515625 48.933594 L 201.15625 49.832031 L 201.78125 50.742188 L 202.390625 51.664062 L 202.984375 52.59375 L 203.5625 53.535156 L 204.121094 54.488281 L 204.664062 55.445312 L 205.191406 56.417969 L 205.703125 57.394531 L 206.195312 58.382812 L 206.667969 59.378906 L 207.125 60.382812 L 207.566406 61.398438 L 207.988281 62.417969 L 208.394531 63.445312 L 208.78125 64.476562 L 209.148438 65.519531 L 209.5 66.566406 L 209.832031 67.617188 L 210.144531 68.675781 L 210.441406 69.738281 L 210.714844 70.808594 L 210.972656 71.882812 L 211.210938 72.960938 L 211.433594 74.039062 L 211.632812 75.125 L 211.816406 76.214844 L 211.980469 77.304688 L 212.125 78.402344 L 212.25 79.496094 L 212.355469 80.597656 L 212.441406 81.695312 L 212.507812 82.796875 L 212.554688 83.902344 L 212.585938 85.003906 L 212.59375 86.109375 L 212.585938 87.210938 L 212.554688 88.316406 L 212.507812 89.417969 L 212.441406 90.519531 L 212.355469 91.621094 L 212.25 92.71875 L 212.125 93.816406 L 211.980469 94.910156 L 211.816406 96 L 211.632812 97.089844 L 211.433594 98.175781 L 211.210938 99.257812 L 210.972656 100.335938 L 210.714844 101.40625 L 210.441406 102.476562 L 210.144531 103.539062 L 209.832031 104.597656 L 209.5 105.652344 L 209.148438 106.699219 L 208.78125 107.738281 L 208.394531 108.773438 L 207.988281 109.800781 L 207.566406 110.820312 L 207.125 111.832031 L 206.667969 112.835938 L 206.195312 113.832031 L 205.703125 114.820312 L 205.191406 115.800781 L 204.664062 116.769531 L 204.121094 117.730469 L 203.5625 118.679688 L 202.984375 119.621094 L 202.390625 120.554688 L 201.78125 121.472656 L 201.15625 122.382812 L 200.515625 123.28125 L 199.859375 124.167969 L 199.1875 125.042969 L 198.5 125.910156 L 197.796875 126.761719 L 197.082031 127.597656 L 196.351562 128.425781 L 195.605469 129.238281 L 194.84375 130.039062 L 194.070312 130.828125 L 193.285156 131.601562 L 192.484375 132.359375 L 191.667969 133.105469 L 190.84375 133.839844 L 190.003906 134.554688 L 189.152344 135.257812 L 188.289062 135.945312 L 187.410156 136.617188 L 186.523438 137.273438 L 185.625 137.914062 L 184.714844 138.539062 L 183.796875 139.148438 L 182.863281 139.742188 L 181.925781 140.316406 L 180.972656 140.878906 L 180.011719 141.421875 L 179.042969 141.949219 L 178.0625 142.457031 L 177.074219 142.949219 L 176.078125 143.425781 L 175.074219 143.882812 L 174.0625 144.324219 L 173.042969 144.746094 L 172.015625 145.152344 L 170.980469 145.539062 L 169.941406 145.90625 L 168.894531 146.257812 L 167.84375 146.589844 L 166.785156 146.902344 L 165.71875 147.195312 L 164.652344 147.472656 L 163.578125 147.730469 L 162.5 147.96875 L 161.417969 148.1875 L 160.332031 148.390625 L 159.246094 148.574219 L 158.152344 148.734375 L 157.058594 148.878906 L 155.960938 149.003906 L 154.863281 149.109375 L 153.761719 149.199219 L 152.660156 149.265625 L 151.558594 149.3125 L 150.457031 149.339844 L 149.351562 149.351562 L 148.246094 149.339844 L 147.144531 149.3125 L 146.042969 149.265625 L 144.941406 149.199219 L 143.839844 149.109375 L 142.742188 149.003906 L 141.644531 148.878906 L 140.550781 148.734375 L 139.457031 148.574219 L 138.371094 148.390625 L 137.285156 148.1875 L 136.203125 147.96875 L 135.125 147.730469 L 134.050781 147.472656 L 132.984375 147.195312 L 131.917969 146.902344 L 130.859375 146.589844 L 129.808594 146.257812 L 128.761719 145.90625 L 127.722656 145.539062 L 126.6875 145.152344 L 125.660156 144.746094 L 124.640625 144.324219 L 123.628906 143.882812 L 122.625 143.425781 L 121.628906 142.949219 L 120.640625 142.457031 L 119.660156 141.949219 L 118.691406 141.421875 L 117.730469 140.878906 L 116.777344 140.316406 L 115.835938 139.742188 L 114.90625 139.148438 L 113.984375 138.539062 L 113.078125 137.914062 L 112.179688 137.273438 L 111.289062 136.617188 L 110.414062 135.945312 L 109.550781 135.257812 L 108.699219 134.554688 L 107.859375 133.839844 L 107.035156 133.105469 L 106.21875 132.359375 L 105.417969 131.601562 L 104.632812 130.828125 L 103.859375 130.039062 L 103.097656 129.238281 L 102.351562 128.425781 L 101.621094 127.597656 L 100.902344 126.761719 L 100.203125 125.910156 L 99.515625 125.042969 L 98.84375 124.167969 L 98.1875 123.28125 L 97.546875 122.382812 L 96.921875 121.472656 L 96.3125 120.554688 L 95.71875 119.621094 L 95.140625 118.679688 L 94.582031 117.730469 L 94.039062 116.769531 L 93.511719 115.800781 L 93 114.820312 L 92.507812 113.832031 L 92.035156 112.835938 L 91.574219 111.832031 L 91.136719 110.820312 L 90.714844 109.800781 L 90.308594 108.773438 L 89.921875 107.738281 L 89.554688 106.699219 L 89.203125 105.652344 L 88.871094 104.597656 L 88.558594 103.539062 L 88.261719 102.476562 L 87.988281 101.40625 L 87.730469 100.335938 L 87.488281 99.257812 L 87.269531 98.175781 L 87.070312 97.089844 L 86.886719 96 L 86.722656 94.910156 L 86.578125 93.816406 L 86.453125 92.71875 L 86.347656 91.621094 L 86.261719 90.519531 L 86.195312 89.417969 L 86.148438 88.316406 L 86.117188 87.210938 L 86.109375 86.109375 L 86.117188 85.003906 L 86.148438 83.902344 L 86.195312 82.796875 L 86.261719 81.695312 L 86.347656 80.597656 L 86.453125 79.496094 L 86.578125 78.402344 L 86.722656 77.304688 L 86.886719 76.214844 L 87.070312 75.125 L 87.269531 74.039062 L 87.488281 72.960938 L 87.730469 71.882812 L 87.988281 70.808594 L 88.261719 69.738281 L 88.558594 68.675781 L 88.871094 67.617188 L 89.203125 66.566406 L 89.554688 65.519531 L 89.921875 64.476562 L 90.308594 63.445312 L 90.714844 62.417969 L 91.136719 61.398438 L 91.574219 60.382812 L 92.035156 59.378906 L 92.507812 58.382812 L 93 57.394531 L 93.511719 56.417969 L 94.039062 55.445312 L 94.582031 54.488281 L 95.140625 53.535156 L 95.71875 52.59375 L 96.3125 51.664062 L 96.921875 50.742188 L 97.546875 49.832031 L 98.1875 48.933594 L 98.84375 48.046875 L 99.515625 47.171875 L 100.203125 46.308594 L 100.902344 45.457031 L 101.621094 44.617188 L 102.351562 43.789062 L 103.097656 42.976562 L 103.859375 42.175781 L 104.632812 41.386719 L 105.417969 40.613281 L 106.21875 39.855469 L 107.035156 39.109375 L 107.859375 38.378906 L 108.699219 37.660156 L 109.550781 36.957031 L 110.414062 36.273438 L 111.289062 35.601562 L 112.179688 34.941406 L 113.078125 34.300781 L 113.984375 33.675781 L 114.90625 33.066406 L 115.835938 32.476562 L 116.777344 31.898438 L 117.730469 31.335938 L 118.691406 30.792969 L 119.660156 30.269531 L 120.640625 29.757812 L 121.628906 29.265625 L 122.625 28.789062 L 123.628906 28.332031 L 124.640625 27.890625 L 125.660156 27.46875 L 126.6875 27.066406 L 127.722656 26.679688 L 128.761719 26.308594 L 129.808594 25.960938 L 130.859375 25.628906 L 131.917969 25.316406 L 132.984375 25.019531 L 134.050781 24.742188 L 135.125 24.484375 L 136.203125 24.246094 L 137.285156 24.027344 L 138.371094 23.824219 L 139.457031 23.644531 L 140.550781 23.480469 L 141.644531 23.335938 L 142.742188 23.210938 L 143.839844 23.105469 L 144.941406 23.019531 L 146.042969 22.953125 L 147.144531 22.902344 L 148.246094 22.875 Z M 149.351562 22.863281 "/>
<path style="fill-rule:nonzero;fill:rgb(41.568627%,35.294118%,80.392157%);fill-opacity:0.298039;stroke-width:1.600468;stroke-linecap:round;stroke-linejoin:round;stroke:rgb(41.568627%,35.294118%,80.392157%);stroke-opacity:1;stroke-miterlimit:10;" d="M 198 90.972656 L 199.613281 90.988281 L 201.226562 91.027344 L 202.835938 91.101562 L 204.449219 91.199219 L 206.054688 91.324219 L 207.660156 91.480469 L 209.265625 91.660156 L 210.863281 91.871094 L 212.460938 92.109375 L 214.050781 92.378906 L 215.636719 92.671875 L 217.21875 92.992188 L 218.792969 93.34375 L 220.363281 93.71875 L 221.921875 94.121094 L 223.476562 94.554688 L 225.023438 95.011719 L 226.5625 95.496094 L 228.09375 96.007812 L 229.613281 96.546875 L 231.125 97.113281 L 232.625 97.703125 L 234.117188 98.320312 L 235.59375 98.964844 L 237.0625 99.632812 L 238.519531 100.328125 L 239.964844 101.046875 L 241.394531 101.792969 L 242.8125 102.5625 L 244.214844 103.355469 L 245.605469 104.175781 L 246.980469 105.019531 L 248.34375 105.886719 L 249.6875 106.777344 L 251.015625 107.6875 L 252.332031 108.625 L 253.628906 109.585938 L 254.90625 110.566406 L 256.167969 111.570312 L 257.414062 112.597656 L 258.640625 113.644531 L 259.847656 114.714844 L 261.039062 115.804688 L 262.207031 116.914062 L 263.359375 118.046875 L 264.492188 119.195312 L 265.601562 120.367188 L 266.691406 121.554688 L 267.757812 122.765625 L 268.808594 123.992188 L 269.832031 125.234375 L 270.835938 126.5 L 271.820312 127.777344 L 272.78125 129.074219 L 273.714844 130.386719 L 274.628906 131.71875 L 275.519531 133.0625 L 276.386719 134.421875 L 277.230469 135.800781 L 278.050781 137.1875 L 278.84375 138.59375 L 279.613281 140.011719 L 280.359375 141.441406 L 281.078125 142.886719 L 281.773438 144.339844 L 282.441406 145.808594 L 283.085938 147.289062 L 283.703125 148.78125 L 284.292969 150.28125 L 284.859375 151.792969 L 285.398438 153.3125 L 285.910156 154.84375 L 286.394531 156.378906 L 286.851562 157.925781 L 287.28125 159.480469 L 287.6875 161.042969 L 288.0625 162.613281 L 288.414062 164.1875 L 288.734375 165.769531 L 289.027344 167.355469 L 289.292969 168.945312 L 289.53125 170.542969 L 289.742188 172.140625 L 289.925781 173.742188 L 290.082031 175.347656 L 290.207031 176.957031 L 290.304688 178.566406 L 290.375 180.179688 L 290.417969 181.792969 L 290.433594 183.40625 L 290.417969 185.019531 L 290.375 186.632812 L 290.304688 188.242188 L 290.207031 189.851562 L 290.082031 191.460938 L 289.925781 193.066406 L 289.742188 194.671875 L 289.53125 196.269531 L 289.292969 197.863281 L 289.027344 199.457031 L 288.734375 201.042969 L 288.414062 202.625 L 288.0625 204.199219 L 287.6875 205.765625 L 287.28125 207.328125 L 286.851562 208.882812 L 286.394531 210.429688 L 285.910156 211.96875 L 285.398438 213.5 L 284.859375 215.019531 L 284.292969 216.53125 L 283.703125 218.03125 L 283.085938 219.523438 L 282.441406 221 L 281.773438 222.46875 L 281.078125 223.925781 L 280.359375 225.367188 L 279.613281 226.800781 L 278.84375 228.21875 L 278.050781 229.621094 L 277.230469 231.011719 L 276.386719 232.386719 L 275.519531 233.746094 L 274.628906 235.09375 L 273.714844 236.421875 L 272.78125 237.734375 L 271.820312 239.03125 L 270.835938 240.3125 L 269.832031 241.574219 L 268.808594 242.820312 L 267.757812 244.046875 L 266.691406 245.253906 L 265.601562 246.445312 L 264.492188 247.613281 L 263.359375 248.765625 L 262.207031 249.894531 L 261.039062 251.007812 L 259.847656 252.097656 L 258.640625 253.164062 L 257.414062 254.210938 L 256.167969 255.238281 L 254.90625 256.242188 L 253.628906 257.226562 L 252.332031 258.183594 L 251.015625 259.121094 L 249.6875 260.035156 L 248.34375 260.925781 L 246.980469 261.792969 L 245.605469 262.636719 L 244.214844 263.453125 L 242.8125 264.25 L 241.394531 265.019531 L 239.964844 265.761719 L 238.519531 266.484375 L 237.0625 267.175781 L 235.59375 267.847656 L 234.117188 268.488281 L 232.625 269.105469 L 231.125 269.699219 L 229.613281 270.261719 L 228.09375 270.800781 L 226.5625 271.3125 L 225.023438 271.800781 L 223.476562 272.257812 L 221.921875 272.6875 L 220.363281 273.09375 L 218.792969 273.46875 L 217.21875 273.816406 L 215.636719 274.140625 L 214.050781 274.433594 L 212.460938 274.699219 L 210.863281 274.9375 L 209.265625 275.148438 L 207.660156 275.332031 L 206.054688 275.484375 L 204.449219 275.613281 L 202.835938 275.710938 L 201.226562 275.78125 L 199.613281 275.824219 L 198 275.835938 L 196.386719 275.824219 L 194.773438 275.78125 L 193.164062 275.710938 L 191.550781 275.613281 L 189.945312 275.484375 L 188.339844 275.332031 L 186.734375 275.148438 L 185.136719 274.9375 L 183.539062 274.699219 L 181.949219 274.433594 L 180.363281 274.140625 L 178.78125 273.816406 L 177.207031 273.46875 L 175.636719 273.09375 L 174.078125 272.6875 L 172.523438 272.257812 L 170.976562 271.800781 L 169.4375 271.3125 L 167.90625 270.800781 L 166.386719 270.261719 L 164.875 269.699219 L 163.375 269.105469 L 161.882812 268.488281 L 160.40625 267.847656 L 158.9375 267.175781 L 157.480469 266.484375 L 156.035156 265.761719 L 154.605469 265.019531 L 153.1875 264.25 L 151.785156 263.453125 L 150.394531 262.636719 L 149.019531 261.792969 L 147.65625 260.925781 L 146.3125 260.035156 L 144.984375 259.121094 L 143.667969 258.183594 L 142.371094 257.226562 L 141.09375 256.242188 L 139.832031 255.238281 L 138.585938 254.210938 L 137.359375 253.164062 L 136.152344 252.097656 L 134.960938 251.007812 L 133.792969 249.894531 L 132.640625 248.765625 L 131.507812 247.613281 L 130.398438 246.445312 L 129.308594 245.253906 L 128.242188 244.046875 L 127.191406 242.820312 L 126.167969 241.574219 L 125.164062 240.3125 L 124.179688 239.03125 L 123.21875 237.734375 L 122.285156 236.421875 L 121.371094 235.09375 L 120.480469 233.746094 L 119.613281 232.386719 L 118.769531 231.011719 L 117.949219 229.621094 L 117.15625 228.21875 L 116.386719 226.800781 L 115.640625 225.367188 L 114.921875 223.925781 L 114.226562 222.46875 L 113.558594 221 L 112.914062 219.523438 L 112.296875 218.03125 L 111.707031 216.53125 L 111.140625 215.019531 L 110.601562 213.5 L 110.089844 211.96875 L 109.605469 210.429688 L 109.148438 208.882812 L 108.71875 207.328125 L 108.3125 205.765625 L 107.9375 204.199219 L 107.585938 202.625 L 107.265625 201.042969 L 106.972656 199.457031 L 106.707031 197.863281 L 106.46875 196.269531 L 106.257812 194.671875 L 106.074219 193.066406 L 105.917969 191.460938 L 105.792969 189.851562 L 105.695312 188.242188 L 105.625 186.632812 L 105.582031 185.019531 L 105.566406 183.40625 L 105.582031 181.792969 L 105.625 180.179688 L 105.695312 178.566406 L 105.792969 176.957031 L 105.917969 175.347656 L 106.074219 173.742188 L 106.257812 172.140625 L 106.46875 170.542969 L 106.707031 168.945312 L 106.972656 167.355469 L 107.265625 165.769531 L 107.585938 164.1875 L 107.9375 162.613281 L 108.3125 161.042969 L 108.71875 159.480469 L 109.148438 157.925781 L 109.605469 156.378906 L 110.089844 154.84375 L 110.601562 153.3125 L 111.140625 151.792969 L 111.707031 150.28125 L 112.296875 148.78125 L 112.914062 147.289062 L 113.558594 145.808594 L 114.226562 144.339844 L 114.921875 142.886719 L 115.640625 141.441406 L 116.386719 140.011719 L 117.15625 138.59375 L 117.949219 137.1875 L 118.769531 135.800781 L 119.613281 134.421875 L 120.480469 133.0625 L 121.371094 131.71875 L 122.285156 130.386719 L 123.21875 129.074219 L 124.179688 127.777344 L 125.164062 126.5 L 126.167969 125.234375 L 127.191406 123.992188 L 128.242188 122.765625 L 129.308594 121.554688 L 130.398438 120.367188 L 131.507812 119.195312 L 132.640625 118.046875 L 133.792969 116.914062 L 134.960938 115.804688 L 136.152344 114.714844 L 137.359375 113.644531 L 138.585938 112.597656 L 139.832031 111.570312 L 141.09375 110.566406 L 142.371094 109.585938 L 143.667969 108.625 L 144.984375 107.6875 L 146.3125 106.777344 L 147.65625 105.886719 L 149.019531 105.019531 L 150.394531 104.175781 L 151.785156 103.355469 L 153.1875 102.5625 L 154.605469 101.792969 L 156.035156 101.046875 L 157.480469 100.328125 L 158.9375 99.632812 L 160.40625 98.964844 L 161.882812 98.320312 L 163.375 97.703125 L 164.875 97.113281 L 166.386719 96.546875 L 167.90625 96.007812 L 169.4375 95.496094 L 170.976562 95.011719 L 172.523438 94.554688 L 174.078125 94.121094 L 175.636719 93.71875 L 177.207031 93.34375 L 178.78125 92.992188 L 180.363281 92.671875 L 181.949219 92.378906 L 183.539062 92.109375 L 185.136719 91.871094 L 186.734375 91.660156 L 188.339844 91.480469 L 189.945312 91.324219 L 191.550781 91.199219 L 193.164062 91.101562 L 194.773438 91.027344 L 196.386719 90.988281 Z M 198 90.972656 "/>
<path style=" stroke:none;fill-rule:nonzero;fill:rgb(41.568627%,35.294118%,80.392157%);fill-opacity:1;" d="M 199.175781 184.910156 L 199.175781 192.214844 L 196.800781 192.214844 L 196.800781 184.910156 L 190.023438 174.597656 L 192.648438 174.597656 L 198.011719 182.988281 L 203.351562 174.597656 L 205.976562 174.597656 Z M 199.175781 184.910156 "/>
<path style=" stroke:none;fill-rule:nonzero;fill:rgb(54.509804%,69.411765%,45.490196%);fill-opacity:1;" d="M 181.695312 304.847656 L 181.691406 305.28125 L 181.671875 305.707031 L 181.636719 306.121094 L 181.589844 306.523438 L 181.53125 306.917969 L 181.457031 307.300781 L 181.371094 307.675781 L 181.273438 308.039062 L 181.160156 308.390625 L 181.035156 308.734375 L 180.898438 309.0625 L 180.75 309.382812 L 180.59375 309.691406 L 180.425781 309.988281 L 180.25 310.277344 L 180.0625 310.550781 L 179.867188 310.816406 L 179.660156 311.070312 L 179.445312 311.316406 L 179.222656 311.546875 L 178.988281 311.765625 L 178.742188 311.976562 L 178.492188 312.175781 L 178.234375 312.363281 L 177.964844 312.539062 L 177.6875 312.703125 L 177.402344 312.859375 L 177.109375 313.003906 L 176.804688 313.136719 L 176.496094 313.261719 L 176.179688 313.371094 L 175.859375 313.46875 L 175.535156 313.554688 L 175.203125 313.628906 L 174.871094 313.691406 L 174.53125 313.742188 L 174.183594 313.785156 L 173.835938 313.8125 L 173.480469 313.832031 L 173.121094 313.835938 L 166.53125 313.835938 L 166.53125 296.21875 L 172.355469 296.21875 L 172.761719 296.222656 L 173.160156 296.238281 L 173.550781 296.265625 L 173.933594 296.300781 L 174.3125 296.347656 L 174.683594 296.402344 L 175.050781 296.46875 L 175.410156 296.546875 L 175.761719 296.632812 L 176.109375 296.730469 L 176.449219 296.835938 L 176.777344 296.953125 L 177.097656 297.082031 L 177.410156 297.222656 L 177.710938 297.371094 L 178.003906 297.535156 L 178.285156 297.707031 L 178.554688 297.890625 L 178.820312 298.085938 L 179.070312 298.292969 L 179.3125 298.507812 L 179.542969 298.738281 L 179.765625 298.976562 L 179.972656 299.226562 L 180.171875 299.488281 L 180.359375 299.761719 L 180.535156 300.046875 L 180.699219 300.34375 L 180.855469 300.648438 L 180.996094 300.96875 L 181.128906 301.300781 L 181.25 301.644531 L 181.355469 302 L 181.445312 302.371094 L 181.523438 302.75 L 181.585938 303.144531 L 181.632812 303.550781 L 181.667969 303.96875 L 181.691406 304.402344 Z M 179.296875 304.847656 L 179.289062 304.492188 L 179.277344 304.152344 L 179.25 303.820312 L 179.214844 303.5 L 179.167969 303.1875 L 179.113281 302.890625 L 179.042969 302.601562 L 178.96875 302.320312 L 178.878906 302.050781 L 178.785156 301.792969 L 178.675781 301.542969 L 178.5625 301.304688 L 178.4375 301.070312 L 178.308594 300.847656 L 178.167969 300.636719 L 178.019531 300.429688 L 177.863281 300.234375 L 177.699219 300.050781 L 177.527344 299.875 L 177.34375 299.707031 L 177.15625 299.546875 L 176.960938 299.398438 L 176.757812 299.257812 L 176.546875 299.125 L 176.328125 299.003906 L 176.105469 298.890625 L 175.871094 298.785156 L 175.632812 298.6875 L 175.386719 298.597656 L 175.132812 298.519531 L 174.871094 298.445312 L 174.605469 298.378906 L 174.335938 298.320312 L 174.0625 298.269531 L 173.78125 298.226562 L 173.496094 298.191406 L 173.207031 298.167969 L 172.910156 298.148438 L 172.613281 298.136719 L 172.304688 298.132812 L 168.917969 298.132812 L 168.917969 311.921875 L 172.84375 311.921875 L 173.121094 311.917969 L 173.390625 311.90625 L 173.65625 311.882812 L 173.921875 311.851562 L 174.179688 311.808594 L 174.433594 311.761719 L 174.683594 311.703125 L 174.929688 311.632812 L 175.171875 311.558594 L 175.40625 311.472656 L 175.640625 311.378906 L 175.871094 311.273438 L 176.089844 311.164062 L 176.304688 311.042969 L 176.515625 310.914062 L 176.714844 310.773438 L 176.910156 310.628906 L 177.101562 310.472656 L 177.28125 310.308594 L 177.457031 310.136719 L 177.625 309.953125 L 177.789062 309.761719 L 177.941406 309.5625 L 178.089844 309.355469 L 178.226562 309.136719 L 178.359375 308.910156 L 178.480469 308.675781 L 178.597656 308.433594 L 178.707031 308.183594 L 178.808594 307.921875 L 178.902344 307.652344 L 178.984375 307.375 L 179.058594 307.089844 L 179.121094 306.792969 L 179.175781 306.488281 L 179.21875 306.179688 L 179.253906 305.859375 L 179.277344 305.527344 L 179.292969 305.191406 Z M 179.296875 304.847656 "/>
<path style=" stroke:none;fill-rule:nonzero;fill:rgb(100%,64.705882%,0%);fill-opacity:1;" d="M 156.160156 85.1875 L 153.308594 85.1875 L 150.257812 73.996094 L 150.203125 73.800781 L 150.171875 73.695312 L 150.144531 73.589844 L 150.082031 73.363281 L 150.054688 73.246094 L 150.023438 73.125 L 149.988281 73 L 149.957031 72.871094 L 149.929688 72.742188 L 149.898438 72.613281 L 149.871094 72.488281 L 149.839844 72.359375 L 149.8125 72.238281 L 149.785156 72.113281 L 149.761719 71.992188 L 149.707031 71.75 L 149.683594 71.632812 L 149.652344 71.496094 L 149.621094 71.355469 L 149.59375 71.21875 L 149.53125 70.9375 L 149.503906 70.800781 L 149.472656 70.660156 L 149.441406 70.515625 L 149.414062 70.375 L 149.382812 70.234375 L 149.351562 70.378906 L 149.316406 70.519531 L 149.253906 70.808594 L 149.128906 71.371094 L 149.101562 71.507812 L 149.070312 71.644531 L 148.988281 72.007812 L 148.957031 72.132812 L 148.929688 72.253906 L 148.902344 72.378906 L 148.871094 72.503906 L 148.84375 72.628906 L 148.8125 72.757812 L 148.78125 72.882812 L 148.753906 73.007812 L 148.722656 73.132812 L 148.695312 73.25 L 148.664062 73.367188 L 148.636719 73.480469 L 148.605469 73.589844 L 148.550781 73.800781 L 148.496094 73.996094 L 145.417969 85.1875 L 142.566406 85.1875 L 137.378906 67.570312 L 139.867188 67.570312 L 143.03125 78.761719 L 143.074219 78.917969 L 143.113281 79.074219 L 143.15625 79.230469 L 143.195312 79.386719 L 143.238281 79.546875 L 143.277344 79.699219 L 143.394531 80.167969 L 143.429688 80.324219 L 143.46875 80.476562 L 143.546875 80.773438 L 143.582031 80.917969 L 143.617188 81.058594 L 143.648438 81.195312 L 143.710938 81.460938 L 143.742188 81.585938 L 143.769531 81.710938 L 143.832031 82 L 143.894531 82.28125 L 143.925781 82.417969 L 143.953125 82.554688 L 143.984375 82.691406 L 144.039062 82.957031 L 144.070312 83.085938 L 144.105469 82.914062 L 144.183594 82.570312 L 144.21875 82.398438 L 144.257812 82.230469 L 144.296875 82.058594 L 144.375 81.722656 L 144.417969 81.554688 L 144.457031 81.386719 L 144.472656 81.316406 L 144.492188 81.246094 L 144.507812 81.171875 L 144.527344 81.101562 L 144.542969 81.027344 L 144.5625 80.953125 L 144.578125 80.878906 L 144.597656 80.800781 L 144.613281 80.726562 L 144.632812 80.648438 L 144.648438 80.570312 L 144.667969 80.492188 L 144.683594 80.417969 L 144.703125 80.339844 L 144.71875 80.265625 L 144.734375 80.1875 L 144.753906 80.113281 L 144.769531 80.035156 L 144.789062 79.960938 L 144.804688 79.886719 L 144.824219 79.8125 L 144.847656 79.738281 L 144.863281 79.664062 L 144.882812 79.589844 L 144.941406 79.378906 L 144.957031 79.308594 L 144.976562 79.242188 L 144.992188 79.171875 L 145.011719 79.105469 L 145.03125 79.035156 L 145.070312 78.902344 L 145.085938 78.839844 L 145.105469 78.773438 L 145.121094 78.714844 L 145.136719 78.652344 L 145.167969 78.535156 L 148.230469 67.570312 L 150.519531 67.570312 L 153.582031 78.535156 L 153.613281 78.652344 L 153.628906 78.714844 L 153.644531 78.773438 L 153.660156 78.839844 L 153.679688 78.902344 L 153.710938 79.035156 L 153.730469 79.105469 L 153.746094 79.171875 L 153.765625 79.242188 L 153.785156 79.308594 L 153.863281 79.589844 L 153.878906 79.664062 L 153.917969 79.8125 L 153.933594 79.886719 L 153.953125 79.957031 L 154.050781 80.328125 L 154.066406 80.40625 L 154.085938 80.480469 L 154.105469 80.558594 L 154.121094 80.636719 L 154.140625 80.714844 L 154.15625 80.789062 L 154.175781 80.863281 L 154.191406 80.941406 L 154.210938 81.015625 L 154.226562 81.085938 L 154.242188 81.160156 L 154.261719 81.230469 L 154.277344 81.304688 L 154.296875 81.375 L 154.414062 81.878906 L 154.492188 82.222656 L 154.53125 82.390625 L 154.570312 82.566406 L 154.648438 82.910156 L 154.683594 83.085938 L 154.6875 83.082031 L 154.699219 83.046875 L 154.707031 83.019531 L 154.71875 82.980469 L 154.730469 82.933594 L 154.746094 82.878906 L 154.761719 82.816406 L 154.777344 82.742188 L 154.796875 82.660156 L 154.816406 82.570312 L 154.839844 82.476562 L 154.859375 82.378906 L 154.882812 82.277344 L 154.910156 82.171875 L 154.933594 82.058594 L 154.960938 81.945312 L 155.015625 81.703125 L 155.046875 81.574219 L 155.140625 81.175781 L 155.171875 81.039062 L 155.234375 80.757812 L 155.304688 80.46875 L 155.335938 80.324219 L 155.371094 80.171875 L 155.410156 80.023438 L 155.445312 79.871094 L 155.523438 79.582031 L 155.558594 79.4375 L 155.597656 79.296875 L 155.632812 79.160156 L 155.671875 79.023438 L 155.710938 78.890625 L 155.746094 78.761719 L 158.859375 67.570312 L 161.347656 67.570312 Z M 156.160156 85.1875 "/>
<path style=" stroke:none;fill-rule:nonzero;fill:rgb(15.294118%,15.686275%,13.333333%);fill-opacity:1;" d="M 262.554688 41.40625 L 262.550781 41.625 L 262.535156 41.84375 L 262.515625 42.054688 L 262.484375 42.265625 L 262.445312 42.472656 L 262.394531 42.675781 L 262.339844 42.875 L 262.273438 43.074219 L 262.199219 43.265625 L 262.117188 43.453125 L 262.027344 43.640625 L 261.925781 43.820312 L 261.816406 43.996094 L 261.699219 44.164062 L 261.570312 44.332031 L 261.433594 44.492188 L 261.289062 44.644531 L 261.132812 44.796875 L 260.964844 44.941406 L 260.789062 45.082031 L 260.605469 45.210938 L 260.410156 45.339844 L 260.207031 45.460938 L 259.992188 45.574219 L 259.769531 45.683594 L 259.539062 45.789062 L 259.296875 45.886719 L 259.046875 45.976562 L 258.785156 46.0625 L 258.515625 46.144531 L 258.238281 46.214844 L 257.949219 46.277344 L 257.652344 46.335938 L 257.34375 46.382812 L 257.023438 46.425781 L 256.695312 46.457031 L 256.355469 46.484375 L 256.007812 46.503906 L 255.644531 46.515625 L 255.277344 46.519531 L 254.632812 46.507812 L 254.019531 46.472656 L 253.433594 46.414062 L 252.878906 46.335938 L 252.351562 46.230469 L 251.851562 46.105469 L 251.382812 45.953125 L 250.941406 45.78125 L 250.53125 45.585938 L 250.148438 45.367188 L 249.796875 45.128906 L 249.46875 44.867188 L 249.167969 44.585938 L 248.894531 44.285156 L 248.644531 43.960938 L 248.425781 43.617188 L 248.230469 43.253906 L 248.066406 42.871094 L 247.925781 42.46875 L 247.8125 42.042969 L 250.125 41.578125 L 250.160156 41.714844 L 250.246094 41.980469 L 250.292969 42.109375 L 250.402344 42.359375 L 250.460938 42.480469 L 250.523438 42.601562 L 250.589844 42.714844 L 250.738281 42.941406 L 250.816406 43.050781 L 250.902344 43.152344 L 250.992188 43.257812 L 251.085938 43.355469 L 251.1875 43.449219 L 251.292969 43.542969 L 251.402344 43.632812 L 251.515625 43.722656 L 251.636719 43.804688 L 251.765625 43.882812 L 251.898438 43.957031 L 252.039062 44.03125 L 252.183594 44.097656 L 252.335938 44.160156 L 252.492188 44.222656 L 252.652344 44.28125 L 252.820312 44.332031 L 252.996094 44.382812 L 253.175781 44.429688 L 253.363281 44.472656 L 253.554688 44.511719 L 253.753906 44.546875 L 253.964844 44.574219 L 254.179688 44.597656 L 254.402344 44.621094 L 254.632812 44.636719 L 254.867188 44.644531 L 255.113281 44.652344 L 255.363281 44.65625 L 255.574219 44.652344 L 255.78125 44.648438 L 255.984375 44.640625 L 256.1875 44.628906 L 256.382812 44.613281 L 256.574219 44.59375 L 256.765625 44.570312 L 256.953125 44.542969 L 257.136719 44.511719 L 257.3125 44.480469 L 257.488281 44.441406 L 257.660156 44.398438 L 257.824219 44.351562 L 257.984375 44.300781 L 258.140625 44.246094 L 258.289062 44.1875 L 258.433594 44.125 L 258.574219 44.058594 L 258.710938 43.992188 L 258.839844 43.917969 L 258.964844 43.839844 L 259.082031 43.757812 L 259.195312 43.671875 L 259.304688 43.582031 L 259.40625 43.488281 L 259.5 43.390625 L 259.589844 43.289062 L 259.675781 43.179688 L 259.753906 43.070312 L 259.828125 42.953125 L 259.894531 42.832031 L 259.957031 42.707031 L 260.011719 42.574219 L 260.058594 42.4375 L 260.097656 42.296875 L 260.132812 42.152344 L 260.15625 42.003906 L 260.175781 41.851562 L 260.1875 41.691406 L 260.191406 41.53125 L 260.1875 41.359375 L 260.175781 41.199219 L 260.152344 41.039062 L 260.125 40.890625 L 260.089844 40.746094 L 260.046875 40.609375 L 259.992188 40.480469 L 259.933594 40.355469 L 259.867188 40.238281 L 259.789062 40.128906 L 259.710938 40.023438 L 259.621094 39.921875 L 259.527344 39.824219 L 259.429688 39.730469 L 259.320312 39.636719 L 259.207031 39.550781 L 259.089844 39.46875 L 258.960938 39.390625 L 258.828125 39.3125 L 258.691406 39.242188 L 258.542969 39.171875 L 258.394531 39.105469 L 258.238281 39.042969 L 258.074219 38.980469 L 257.90625 38.917969 L 257.734375 38.863281 L 257.558594 38.804688 L 257.375 38.753906 L 257.183594 38.703125 L 256.988281 38.652344 L 256.789062 38.605469 L 256.585938 38.558594 L 256.378906 38.507812 L 255.949219 38.40625 L 255.726562 38.355469 L 255.503906 38.300781 L 255.273438 38.25 L 255.039062 38.195312 L 254.800781 38.140625 L 254.652344 38.109375 L 254.503906 38.074219 L 254.355469 38.042969 L 253.761719 37.902344 L 253.613281 37.863281 L 253.464844 37.828125 L 253.3125 37.789062 L 253.167969 37.75 L 253.019531 37.707031 L 252.730469 37.621094 L 252.585938 37.574219 L 252.304688 37.480469 L 252.164062 37.429688 L 252.027344 37.378906 L 251.886719 37.328125 L 251.753906 37.273438 L 251.488281 37.15625 L 251.230469 37.03125 L 250.855469 36.832031 L 250.613281 36.691406 L 250.492188 36.617188 L 250.265625 36.460938 L 250.15625 36.378906 L 250.054688 36.292969 L 249.949219 36.207031 L 249.851562 36.117188 L 249.757812 36.023438 L 249.664062 35.925781 L 249.574219 35.828125 L 249.488281 35.722656 L 249.40625 35.617188 L 249.328125 35.507812 L 249.253906 35.394531 L 249.183594 35.277344 L 249.117188 35.160156 L 249.054688 35.035156 L 248.9375 34.785156 L 248.886719 34.652344 L 248.839844 34.515625 L 248.796875 34.375 L 248.757812 34.230469 L 248.726562 34.082031 L 248.699219 33.925781 L 248.675781 33.769531 L 248.660156 33.609375 L 248.648438 33.445312 L 248.640625 33.273438 L 248.636719 33.101562 L 248.640625 32.855469 L 248.65625 32.617188 L 248.683594 32.382812 L 248.714844 32.160156 L 248.761719 31.941406 L 248.816406 31.730469 L 248.882812 31.527344 L 248.957031 31.332031 L 249.042969 31.144531 L 249.136719 30.964844 L 249.242188 30.785156 L 249.359375 30.617188 L 249.480469 30.453125 L 249.609375 30.296875 L 249.746094 30.144531 L 249.890625 30 L 250.042969 29.863281 L 250.207031 29.730469 L 250.375 29.605469 L 250.550781 29.488281 L 250.734375 29.375 L 250.921875 29.269531 L 251.121094 29.171875 L 251.320312 29.078125 L 251.53125 28.992188 L 251.746094 28.910156 L 251.96875 28.835938 L 252.199219 28.769531 L 252.433594 28.707031 L 252.675781 28.652344 L 252.921875 28.601562 L 253.171875 28.554688 L 253.429688 28.515625 L 253.6875 28.484375 L 253.949219 28.453125 L 254.21875 28.429688 L 254.488281 28.410156 L 254.765625 28.398438 L 255.042969 28.390625 L 255.328125 28.386719 L 255.648438 28.390625 L 255.960938 28.398438 L 256.265625 28.410156 L 256.558594 28.429688 L 256.84375 28.453125 L 257.121094 28.484375 L 257.386719 28.515625 L 257.644531 28.554688 L 257.890625 28.601562 L 258.128906 28.652344 L 258.355469 28.703125 L 258.578125 28.761719 L 258.792969 28.824219 L 259 28.894531 L 259.199219 28.964844 L 259.390625 29.046875 L 259.578125 29.128906 L 259.753906 29.21875 L 259.925781 29.3125 L 260.089844 29.414062 L 260.246094 29.519531 L 260.398438 29.628906 L 260.539062 29.742188 L 260.679688 29.863281 L 260.808594 29.988281 L 260.933594 30.117188 L 261.050781 30.253906 L 261.164062 30.394531 L 261.265625 30.539062 L 261.367188 30.6875 L 261.460938 30.839844 L 261.640625 31.160156 L 261.722656 31.328125 L 261.804688 31.5 L 261.878906 31.679688 L 261.949219 31.863281 L 262.019531 32.050781 L 262.082031 32.242188 L 262.140625 32.4375 L 259.789062 32.851562 L 259.753906 32.726562 L 259.714844 32.601562 L 259.671875 32.480469 L 259.625 32.363281 L 259.574219 32.25 L 259.519531 32.136719 L 259.464844 32.027344 L 259.40625 31.917969 L 259.34375 31.816406 L 259.277344 31.714844 L 259.210938 31.617188 L 259.140625 31.519531 L 258.984375 31.339844 L 258.898438 31.253906 L 258.8125 31.171875 L 258.71875 31.09375 L 258.621094 31.019531 L 258.519531 30.945312 L 258.414062 30.875 L 258.304688 30.808594 L 258.191406 30.746094 L 258.070312 30.6875 L 257.945312 30.632812 L 257.816406 30.578125 L 257.683594 30.53125 L 257.546875 30.484375 L 257.402344 30.441406 L 257.253906 30.398438 L 257.101562 30.363281 L 256.945312 30.332031 L 256.785156 30.300781 L 256.621094 30.273438 L 256.449219 30.25 L 256.269531 30.230469 L 256.085938 30.214844 L 255.898438 30.203125 L 255.707031 30.195312 L 255.507812 30.191406 L 255.300781 30.1875 L 255.058594 30.191406 L 254.828125 30.199219 L 254.601562 30.207031 L 254.382812 30.222656 L 254.171875 30.246094 L 253.96875 30.269531 L 253.777344 30.300781 L 253.589844 30.332031 L 253.410156 30.371094 L 253.238281 30.414062 L 253.074219 30.457031 L 252.921875 30.503906 L 252.769531 30.554688 L 252.628906 30.609375 L 252.492188 30.667969 L 252.359375 30.726562 L 252.234375 30.789062 L 252.117188 30.859375 L 252.003906 30.929688 L 251.898438 31 L 251.710938 31.15625 L 251.625 31.238281 L 251.542969 31.324219 L 251.46875 31.410156 L 251.398438 31.5 L 251.335938 31.59375 L 251.277344 31.691406 L 251.222656 31.789062 L 251.175781 31.890625 L 251.132812 31.988281 L 251.097656 32.09375 L 251.066406 32.195312 L 251.039062 32.304688 L 251.015625 32.410156 L 250.996094 32.519531 L 250.980469 32.632812 L 250.964844 32.859375 L 250.960938 32.976562 L 250.964844 33.132812 L 250.976562 33.28125 L 250.996094 33.425781 L 251.023438 33.5625 L 251.058594 33.695312 L 251.101562 33.824219 L 251.152344 33.945312 L 251.210938 34.0625 L 251.277344 34.171875 L 251.351562 34.277344 L 251.433594 34.375 L 251.519531 34.472656 L 251.613281 34.5625 L 251.714844 34.652344 L 251.820312 34.738281 L 251.929688 34.820312 L 252.046875 34.898438 L 252.167969 34.972656 L 252.292969 35.046875 L 252.425781 35.113281 L 252.5625 35.179688 L 252.703125 35.246094 L 252.847656 35.308594 L 253.152344 35.425781 L 253.3125 35.480469 L 253.640625 35.582031 L 253.8125 35.632812 L 253.988281 35.675781 L 254.347656 35.769531 L 254.53125 35.8125 L 254.714844 35.859375 L 254.902344 35.902344 L 255.09375 35.949219 L 255.285156 35.992188 L 255.480469 36.039062 L 255.675781 36.082031 L 255.875 36.128906 L 256.039062 36.164062 L 256.199219 36.203125 L 256.363281 36.242188 L 256.523438 36.28125 L 256.6875 36.320312 L 256.847656 36.355469 L 257.007812 36.398438 L 257.488281 36.515625 L 257.652344 36.554688 L 257.8125 36.59375 L 257.96875 36.636719 L 258.128906 36.679688 L 258.285156 36.726562 L 258.589844 36.820312 L 258.742188 36.871094 L 258.890625 36.925781 L 259.039062 36.976562 L 259.1875 37.03125 L 259.332031 37.085938 L 259.613281 37.203125 L 259.753906 37.265625 L 259.890625 37.328125 L 260.15625 37.460938 L 260.414062 37.601562 L 260.542969 37.675781 L 260.667969 37.753906 L 260.789062 37.835938 L 260.90625 37.917969 L 261.023438 38.007812 L 261.132812 38.097656 L 261.238281 38.191406 L 261.34375 38.289062 L 261.445312 38.386719 L 261.632812 38.597656 L 261.722656 38.707031 L 261.886719 38.941406 L 261.960938 39.0625 L 262.035156 39.1875 L 262.101562 39.316406 L 262.164062 39.453125 L 262.222656 39.589844 L 262.277344 39.730469 L 262.332031 39.875 L 262.378906 40.023438 L 262.417969 40.179688 L 262.453125 40.339844 L 262.484375 40.503906 L 262.507812 40.675781 L 262.527344 40.847656 L 262.542969 41.027344 L 262.550781 41.214844 Z M 262.554688 41.40625 "/>
<path style=" stroke:none;fill-rule:nonzero;fill:rgb(15.294118%,15.686275%,13.333333%);fill-opacity:1;" d="M 265.441406 29.863281 L 265.441406 27.710938 L 267.691406 27.710938 L 267.691406 29.863281 Z M 265.441406 46.269531 L 265.441406 32.738281 L 267.691406 32.738281 L 267.691406 46.269531 Z M 265.441406 46.269531 "/>
<path style=" stroke:none;fill-rule:nonzero;fill:rgb(15.294118%,15.686275%,13.333333%);fill-opacity:1;" d="M 279.734375 46.269531 L 279.734375 37.691406 L 279.730469 37.496094 L 279.726562 37.308594 L 279.71875 37.128906 L 279.710938 36.953125 L 279.695312 36.785156 L 279.679688 36.621094 L 279.660156 36.46875 L 279.636719 36.320312 L 279.613281 36.175781 L 279.582031 36.039062 L 279.554688 35.910156 L 279.519531 35.785156 L 279.484375 35.667969 L 279.441406 35.550781 L 279.398438 35.441406 L 279.351562 35.339844 L 279.296875 35.242188 L 279.242188 35.148438 L 279.183594 35.058594 L 279.121094 34.976562 L 279.054688 34.898438 L 278.980469 34.824219 L 278.90625 34.753906 L 278.828125 34.6875 L 278.742188 34.628906 L 278.652344 34.574219 L 278.5625 34.523438 L 278.464844 34.476562 L 278.363281 34.4375 L 278.257812 34.402344 L 278.148438 34.367188 L 278.039062 34.339844 L 277.917969 34.3125 L 277.796875 34.289062 L 277.667969 34.269531 L 277.53125 34.253906 L 277.394531 34.242188 L 277.25 34.234375 L 277.101562 34.230469 L 276.945312 34.226562 L 276.785156 34.230469 L 276.632812 34.238281 L 276.476562 34.253906 L 276.328125 34.273438 L 276.183594 34.300781 L 276.039062 34.332031 L 275.898438 34.367188 L 275.761719 34.410156 L 275.625 34.460938 L 275.496094 34.515625 L 275.367188 34.574219 L 275.246094 34.636719 L 275.128906 34.703125 L 275.011719 34.777344 L 274.902344 34.855469 L 274.792969 34.941406 L 274.6875 35.027344 L 274.585938 35.121094 L 274.488281 35.222656 L 274.394531 35.328125 L 274.304688 35.433594 L 274.222656 35.546875 L 274.140625 35.667969 L 274.066406 35.789062 L 273.992188 35.917969 L 273.925781 36.050781 L 273.863281 36.191406 L 273.800781 36.335938 L 273.746094 36.484375 L 273.695312 36.640625 L 273.648438 36.796875 L 273.605469 36.960938 L 273.566406 37.128906 L 273.535156 37.296875 L 273.507812 37.476562 L 273.484375 37.65625 L 273.464844 37.84375 L 273.453125 38.03125 L 273.445312 38.226562 L 273.445312 46.269531 L 271.191406 46.269531 L 271.191406 35.191406 L 271.1875 35.105469 L 271.1875 35.015625 L 271.183594 34.921875 L 271.183594 34.832031 L 271.179688 34.738281 L 271.179688 34.371094 L 271.175781 34.28125 L 271.175781 34.105469 L 271.171875 34.019531 L 271.171875 33.933594 L 271.164062 33.769531 L 271.164062 33.6875 L 271.160156 33.609375 L 271.160156 33.53125 L 271.15625 33.457031 L 271.152344 33.386719 L 271.152344 33.316406 L 271.148438 33.253906 L 271.144531 33.1875 L 271.144531 33.125 L 271.136719 33.015625 L 271.136719 32.964844 L 271.128906 32.878906 L 271.128906 32.84375 L 271.125 32.8125 L 271.125 32.78125 L 271.121094 32.757812 L 271.117188 32.738281 L 273.242188 32.738281 L 273.246094 32.753906 L 273.25 32.773438 L 273.25 32.796875 L 273.253906 32.824219 L 273.257812 32.855469 L 273.257812 32.890625 L 273.261719 32.929688 L 273.265625 32.976562 L 273.265625 33.023438 L 273.269531 33.078125 L 273.269531 33.132812 L 273.277344 33.25 L 273.277344 33.3125 L 273.285156 33.4375 L 273.285156 33.503906 L 273.292969 33.644531 L 273.292969 33.714844 L 273.296875 33.785156 L 273.304688 33.855469 L 273.308594 33.925781 L 273.3125 34 L 273.316406 34.070312 L 273.324219 34.21875 L 273.324219 34.289062 L 273.328125 34.363281 L 273.332031 34.441406 L 273.332031 34.511719 L 273.335938 34.582031 L 273.335938 34.648438 L 273.339844 34.710938 L 273.339844 34.773438 L 273.34375 34.835938 L 273.34375 35.050781 L 273.382812 35.050781 L 273.445312 34.9375 L 273.515625 34.820312 L 273.582031 34.710938 L 273.722656 34.492188 L 273.792969 34.386719 L 273.941406 34.183594 L 274.015625 34.085938 L 274.09375 33.988281 L 274.171875 33.894531 L 274.253906 33.804688 L 274.425781 33.632812 L 274.511719 33.550781 L 274.605469 33.472656 L 274.792969 33.324219 L 275.097656 33.125 L 275.316406 33 L 275.542969 32.890625 L 275.785156 32.796875 L 275.910156 32.753906 L 276.167969 32.675781 L 276.304688 32.640625 L 276.441406 32.609375 L 276.585938 32.582031 L 276.734375 32.558594 L 276.886719 32.535156 L 277.042969 32.519531 L 277.203125 32.507812 L 277.367188 32.496094 L 277.535156 32.492188 L 277.707031 32.488281 L 277.929688 32.492188 L 278.144531 32.5 L 278.355469 32.515625 L 278.558594 32.535156 L 278.753906 32.558594 L 278.945312 32.589844 L 279.128906 32.625 L 279.308594 32.664062 L 279.480469 32.710938 L 279.644531 32.765625 L 279.804688 32.824219 L 279.960938 32.886719 L 280.109375 32.957031 L 280.25 33.03125 L 280.386719 33.113281 L 280.515625 33.203125 L 280.644531 33.296875 L 280.761719 33.398438 L 280.875 33.503906 L 280.984375 33.613281 L 281.085938 33.734375 L 281.183594 33.859375 L 281.273438 33.988281 L 281.359375 34.128906 L 281.4375 34.273438 L 281.511719 34.425781 L 281.578125 34.585938 L 281.640625 34.75 L 281.695312 34.921875 L 281.746094 35.101562 L 281.792969 35.285156 L 281.835938 35.476562 L 281.875 35.675781 L 281.90625 35.878906 L 281.933594 36.089844 L 281.957031 36.308594 L 281.972656 36.535156 L 281.988281 36.765625 L 281.992188 37.007812 L 281.996094 37.253906 L 281.996094 46.269531 Z M 279.734375 46.269531 "/>
<path style=" stroke:none;fill-rule:nonzero;fill:rgb(15.294118%,15.686275%,13.333333%);fill-opacity:1;" d="M 306.679688 41.40625 L 306.675781 41.625 L 306.660156 41.84375 L 306.640625 42.054688 L 306.609375 42.265625 L 306.570312 42.472656 L 306.519531 42.675781 L 306.464844 42.875 L 306.398438 43.074219 L 306.324219 43.265625 L 306.242188 43.453125 L 306.152344 43.640625 L 306.050781 43.820312 L 305.941406 43.996094 L 305.824219 44.164062 L 305.695312 44.332031 L 305.558594 44.492188 L 305.414062 44.644531 L 305.257812 44.796875 L 305.089844 44.941406 L 304.914062 45.082031 L 304.730469 45.210938 L 304.535156 45.339844 L 304.332031 45.460938 L 304.121094 45.574219 L 303.898438 45.683594 L 303.664062 45.789062 L 303.421875 45.886719 L 303.171875 45.976562 L 302.910156 46.0625 L 302.640625 46.144531 L 302.363281 46.214844 L 302.074219 46.277344 L 301.777344 46.335938 L 301.46875 46.382812 L 301.148438 46.425781 L 300.820312 46.457031 L 300.480469 46.484375 L 300.132812 46.503906 L 299.773438 46.515625 L 299.402344 46.519531 L 298.757812 46.507812 L 298.144531 46.472656 L 297.558594 46.414062 L 297.003906 46.335938 L 296.476562 46.230469 L 295.976562 46.105469 L 295.507812 45.953125 L 295.066406 45.78125 L 294.65625 45.585938 L 294.273438 45.367188 L 293.921875 45.128906 L 293.59375 44.867188 L 293.292969 44.585938 L 293.019531 44.285156 L 292.773438 43.960938 L 292.550781 43.617188 L 292.355469 43.253906 L 292.191406 42.871094 L 292.050781 42.46875 L 291.9375 42.042969 L 294.25 41.578125 L 294.285156 41.714844 L 294.371094 41.980469 L 294.421875 42.109375 L 294.472656 42.234375 L 294.527344 42.359375 L 294.585938 42.480469 L 294.648438 42.601562 L 294.789062 42.828125 L 294.863281 42.941406 L 294.941406 43.050781 L 295.027344 43.152344 L 295.117188 43.257812 L 295.210938 43.355469 L 295.3125 43.449219 L 295.417969 43.542969 L 295.527344 43.632812 L 295.644531 43.722656 L 295.761719 43.804688 L 295.890625 43.882812 L 296.023438 43.957031 L 296.164062 44.03125 L 296.308594 44.097656 L 296.460938 44.160156 L 296.617188 44.222656 L 296.777344 44.28125 L 297.121094 44.382812 L 297.300781 44.429688 L 297.488281 44.472656 L 297.679688 44.511719 L 297.882812 44.546875 L 298.089844 44.574219 L 298.304688 44.597656 L 298.527344 44.621094 L 298.757812 44.636719 L 298.992188 44.644531 L 299.238281 44.652344 L 299.488281 44.65625 L 299.699219 44.652344 L 299.90625 44.648438 L 300.109375 44.640625 L 300.3125 44.628906 L 300.507812 44.613281 L 300.703125 44.59375 L 300.890625 44.570312 L 301.078125 44.542969 L 301.261719 44.511719 L 301.441406 44.480469 L 301.613281 44.441406 L 301.785156 44.398438 L 301.949219 44.351562 L 302.109375 44.300781 L 302.265625 44.246094 L 302.414062 44.1875 L 302.558594 44.125 L 302.699219 44.058594 L 302.835938 43.992188 L 302.964844 43.917969 L 303.089844 43.839844 L 303.207031 43.757812 L 303.320312 43.671875 L 303.429688 43.582031 L 303.53125 43.488281 L 303.625 43.390625 L 303.71875 43.289062 L 303.800781 43.179688 L 303.878906 43.070312 L 303.953125 42.953125 L 304.023438 42.832031 L 304.082031 42.707031 L 304.136719 42.574219 L 304.183594 42.4375 L 304.226562 42.296875 L 304.257812 42.152344 L 304.28125 42.003906 L 304.300781 41.851562 L 304.3125 41.691406 L 304.316406 41.53125 L 304.3125 41.359375 L 304.300781 41.199219 L 304.28125 41.039062 L 304.25 40.890625 L 304.214844 40.746094 L 304.171875 40.609375 L 304.121094 40.480469 L 304.058594 40.355469 L 303.992188 40.238281 L 303.914062 40.128906 L 303.835938 40.023438 L 303.746094 39.921875 L 303.652344 39.824219 L 303.554688 39.730469 L 303.445312 39.636719 L 303.332031 39.550781 L 303.214844 39.46875 L 303.085938 39.390625 L 302.953125 39.3125 L 302.816406 39.242188 L 302.667969 39.171875 L 302.519531 39.105469 L 302.363281 39.042969 L 302.035156 38.917969 L 301.859375 38.863281 L 301.683594 38.804688 L 301.5 38.753906 L 301.308594 38.703125 L 301.113281 38.652344 L 300.914062 38.605469 L 300.710938 38.558594 L 300.503906 38.507812 L 300.074219 38.40625 L 299.851562 38.355469 L 299.628906 38.300781 L 299.398438 38.25 L 299.164062 38.195312 L 298.925781 38.140625 L 298.777344 38.109375 L 298.628906 38.074219 L 298.484375 38.042969 L 298.1875 37.972656 L 298.035156 37.9375 L 297.886719 37.902344 L 297.738281 37.863281 L 297.589844 37.828125 L 297.4375 37.789062 L 297.292969 37.75 L 297.144531 37.707031 L 296.855469 37.621094 L 296.714844 37.574219 L 296.570312 37.527344 L 296.429688 37.480469 L 296.289062 37.429688 L 296.152344 37.378906 L 296.011719 37.328125 L 295.878906 37.273438 L 295.613281 37.15625 L 295.355469 37.03125 L 294.980469 36.832031 L 294.738281 36.691406 L 294.621094 36.617188 L 294.503906 36.539062 L 294.390625 36.460938 L 294.285156 36.378906 L 294.074219 36.207031 L 293.976562 36.117188 L 293.882812 36.023438 L 293.789062 35.925781 L 293.699219 35.828125 L 293.613281 35.722656 L 293.53125 35.617188 L 293.453125 35.507812 L 293.378906 35.394531 L 293.308594 35.277344 L 293.242188 35.160156 L 293.179688 35.035156 L 293.0625 34.785156 L 293.011719 34.652344 L 292.964844 34.515625 L 292.921875 34.375 L 292.882812 34.230469 L 292.851562 34.082031 L 292.824219 33.925781 L 292.800781 33.769531 L 292.785156 33.609375 L 292.773438 33.445312 L 292.765625 33.273438 L 292.761719 33.101562 L 292.765625 32.855469 L 292.78125 32.617188 L 292.808594 32.382812 L 292.84375 32.160156 L 292.886719 31.941406 L 292.941406 31.730469 L 293.007812 31.527344 L 293.082031 31.332031 L 293.167969 31.144531 L 293.261719 30.964844 L 293.367188 30.785156 L 293.484375 30.617188 L 293.605469 30.453125 L 293.734375 30.296875 L 293.871094 30.144531 L 294.015625 30 L 294.167969 29.863281 L 294.332031 29.730469 L 294.5 29.605469 L 294.675781 29.488281 L 294.859375 29.375 L 295.046875 29.269531 L 295.246094 29.171875 L 295.449219 29.078125 L 295.65625 28.992188 L 295.871094 28.910156 L 296.09375 28.835938 L 296.324219 28.769531 L 296.558594 28.707031 L 296.800781 28.652344 L 297.046875 28.601562 L 297.300781 28.554688 L 297.554688 28.515625 L 297.8125 28.484375 L 298.074219 28.453125 L 298.34375 28.429688 L 298.613281 28.410156 L 298.890625 28.398438 L 299.167969 28.390625 L 299.453125 28.386719 L 299.773438 28.390625 L 300.085938 28.398438 L 300.390625 28.410156 L 300.6875 28.429688 L 300.972656 28.453125 L 301.246094 28.484375 L 301.511719 28.515625 L 301.769531 28.554688 L 302.015625 28.601562 L 302.253906 28.652344 L 302.480469 28.703125 L 302.703125 28.761719 L 302.917969 28.824219 L 303.125 28.894531 L 303.324219 28.964844 L 303.515625 29.046875 L 303.703125 29.128906 L 303.882812 29.21875 L 304.050781 29.3125 L 304.214844 29.414062 L 304.371094 29.519531 L 304.523438 29.628906 L 304.667969 29.742188 L 304.804688 29.863281 L 304.933594 29.988281 L 305.058594 30.117188 L 305.175781 30.253906 L 305.289062 30.394531 L 305.390625 30.539062 L 305.492188 30.6875 L 305.585938 30.839844 L 305.679688 31 L 305.765625 31.160156 L 305.847656 31.328125 L 305.929688 31.5 L 306.003906 31.679688 L 306.074219 31.863281 L 306.144531 32.050781 L 306.207031 32.242188 L 306.265625 32.4375 L 303.914062 32.851562 L 303.878906 32.726562 L 303.839844 32.601562 L 303.796875 32.480469 L 303.75 32.363281 L 303.648438 32.136719 L 303.53125 31.917969 L 303.46875 31.816406 L 303.402344 31.714844 L 303.335938 31.617188 L 303.265625 31.519531 L 303.109375 31.339844 L 303.023438 31.253906 L 302.9375 31.171875 L 302.84375 31.09375 L 302.746094 31.019531 L 302.644531 30.945312 L 302.539062 30.875 L 302.429688 30.808594 L 302.316406 30.746094 L 302.195312 30.6875 L 302.070312 30.632812 L 301.941406 30.578125 L 301.808594 30.53125 L 301.671875 30.484375 L 301.527344 30.441406 L 301.378906 30.398438 L 301.226562 30.363281 L 301.070312 30.332031 L 300.910156 30.300781 L 300.746094 30.273438 L 300.574219 30.25 L 300.394531 30.230469 L 300.210938 30.214844 L 300.023438 30.203125 L 299.832031 30.195312 L 299.632812 30.191406 L 299.425781 30.1875 L 299.183594 30.191406 L 298.953125 30.199219 L 298.726562 30.207031 L 298.507812 30.222656 L 298.296875 30.246094 L 298.09375 30.269531 L 297.902344 30.300781 L 297.714844 30.332031 L 297.535156 30.371094 L 297.363281 30.414062 L 297.203125 30.457031 L 297.046875 30.503906 L 296.894531 30.554688 L 296.753906 30.609375 L 296.617188 30.667969 L 296.484375 30.726562 L 296.359375 30.789062 L 296.242188 30.859375 L 296.132812 30.929688 L 296.027344 31 L 295.929688 31.078125 L 295.835938 31.15625 L 295.75 31.238281 L 295.667969 31.324219 L 295.59375 31.410156 L 295.523438 31.5 L 295.460938 31.59375 L 295.402344 31.691406 L 295.347656 31.789062 L 295.300781 31.890625 L 295.261719 31.988281 L 295.222656 32.09375 L 295.191406 32.195312 L 295.164062 32.304688 L 295.140625 32.410156 L 295.121094 32.519531 L 295.105469 32.632812 L 295.089844 32.859375 L 295.085938 32.976562 L 295.089844 33.132812 L 295.101562 33.28125 L 295.121094 33.425781 L 295.148438 33.5625 L 295.183594 33.695312 L 295.226562 33.824219 L 295.277344 33.945312 L 295.335938 34.0625 L 295.402344 34.171875 L 295.476562 34.277344 L 295.558594 34.375 L 295.644531 34.472656 L 295.839844 34.652344 L 295.945312 34.738281 L 296.054688 34.820312 L 296.171875 34.898438 L 296.292969 34.972656 L 296.417969 35.046875 L 296.550781 35.113281 L 296.6875 35.179688 L 296.828125 35.246094 L 296.976562 35.308594 L 297.125 35.367188 L 297.277344 35.425781 L 297.4375 35.480469 L 297.765625 35.582031 L 297.9375 35.632812 L 298.113281 35.675781 L 298.472656 35.769531 L 298.65625 35.8125 L 298.84375 35.859375 L 299.03125 35.902344 L 299.21875 35.949219 L 299.410156 35.992188 L 299.605469 36.039062 L 299.804688 36.082031 L 300 36.128906 L 300.164062 36.164062 L 300.328125 36.203125 L 300.648438 36.28125 L 300.8125 36.320312 L 300.972656 36.355469 L 301.132812 36.398438 L 301.613281 36.515625 L 301.777344 36.554688 L 301.9375 36.59375 L 302.09375 36.636719 L 302.253906 36.679688 L 302.410156 36.726562 L 302.714844 36.820312 L 302.867188 36.871094 L 303.015625 36.925781 L 303.164062 36.976562 L 303.3125 37.03125 L 303.457031 37.085938 L 303.738281 37.203125 L 303.878906 37.265625 L 304.015625 37.328125 L 304.28125 37.460938 L 304.539062 37.601562 L 304.667969 37.675781 L 304.792969 37.753906 L 304.914062 37.835938 L 305.03125 37.917969 L 305.148438 38.007812 L 305.257812 38.097656 L 305.363281 38.191406 L 305.46875 38.289062 L 305.570312 38.386719 L 305.757812 38.597656 L 305.847656 38.707031 L 305.933594 38.824219 L 306.011719 38.941406 L 306.085938 39.0625 L 306.160156 39.1875 L 306.226562 39.316406 L 306.289062 39.453125 L 306.347656 39.589844 L 306.402344 39.730469 L 306.457031 39.875 L 306.503906 40.023438 L 306.542969 40.179688 L 306.578125 40.339844 L 306.609375 40.503906 L 306.632812 40.675781 L 306.652344 40.847656 L 306.667969 41.027344 L 306.675781 41.214844 Z M 306.679688 41.40625 "/>
<path style=" stroke:none;fill-rule:nonzero;fill:rgb(15.294118%,15.686275%,13.333333%);fill-opacity:1;" d="M 311.304688 39.980469 L 311.308594 40.191406 L 311.3125 40.398438 L 311.324219 40.601562 L 311.339844 40.804688 L 311.359375 41 L 311.382812 41.195312 L 311.410156 41.386719 L 311.441406 41.574219 L 311.476562 41.761719 L 311.519531 41.941406 L 311.566406 42.117188 L 311.617188 42.289062 L 311.671875 42.453125 L 311.734375 42.613281 L 311.800781 42.769531 L 311.867188 42.921875 L 311.941406 43.070312 L 312.023438 43.210938 L 312.105469 43.347656 L 312.191406 43.480469 L 312.289062 43.605469 L 312.386719 43.722656 L 312.492188 43.835938 L 312.601562 43.945312 L 312.71875 44.050781 L 312.839844 44.144531 L 312.964844 44.238281 L 313.09375 44.324219 L 313.226562 44.40625 L 313.367188 44.480469 L 313.511719 44.546875 L 313.664062 44.605469 L 313.820312 44.660156 L 313.984375 44.703125 L 314.152344 44.742188 L 314.328125 44.773438 L 314.507812 44.800781 L 314.691406 44.816406 L 314.882812 44.828125 L 315.082031 44.832031 L 315.367188 44.824219 L 315.644531 44.808594 L 315.90625 44.777344 L 316.15625 44.738281 L 316.398438 44.683594 L 316.625 44.617188 L 316.839844 44.542969 L 317.046875 44.453125 L 317.238281 44.355469 L 317.417969 44.242188 L 317.589844 44.121094 L 317.75 43.996094 L 317.898438 43.863281 L 318.039062 43.722656 L 318.164062 43.578125 L 318.277344 43.425781 L 318.378906 43.265625 L 318.472656 43.101562 L 318.550781 42.933594 L 318.621094 42.753906 L 320.59375 43.316406 L 320.550781 43.429688 L 320.503906 43.542969 L 320.453125 43.65625 L 320.398438 43.769531 L 320.339844 43.882812 L 320.277344 43.996094 L 320.210938 44.109375 L 320.144531 44.226562 L 320.070312 44.339844 L 319.996094 44.457031 L 319.917969 44.566406 L 319.835938 44.675781 L 319.746094 44.785156 L 319.652344 44.890625 L 319.554688 44.992188 L 319.449219 45.09375 L 319.339844 45.195312 L 319.226562 45.292969 L 319.105469 45.386719 L 318.980469 45.480469 L 318.851562 45.570312 L 318.714844 45.65625 L 318.570312 45.738281 L 318.421875 45.816406 L 318.261719 45.894531 L 318.101562 45.964844 L 317.929688 46.039062 L 317.753906 46.105469 L 317.570312 46.167969 L 317.382812 46.230469 L 317.1875 46.285156 L 316.984375 46.335938 L 316.777344 46.378906 L 316.558594 46.414062 L 316.332031 46.445312 L 316.097656 46.472656 L 315.855469 46.492188 L 315.605469 46.507812 L 315.347656 46.515625 L 315.082031 46.519531 L 314.496094 46.5 L 313.9375 46.445312 L 313.410156 46.359375 L 312.910156 46.230469 L 312.4375 46.070312 L 311.992188 45.875 L 311.578125 45.640625 L 311.191406 45.375 L 310.835938 45.070312 L 310.503906 44.730469 L 310.207031 44.355469 L 309.941406 43.945312 L 309.707031 43.5 L 309.503906 43.023438 L 309.332031 42.507812 L 309.191406 41.960938 L 309.082031 41.375 L 309.003906 40.757812 L 308.957031 40.105469 L 308.941406 39.417969 L 308.945312 39.042969 L 308.960938 38.679688 L 308.984375 38.328125 L 309.019531 37.988281 L 309.0625 37.664062 L 309.113281 37.347656 L 309.175781 37.042969 L 309.246094 36.75 L 309.328125 36.472656 L 309.417969 36.203125 L 309.515625 35.941406 L 309.621094 35.691406 L 309.734375 35.453125 L 309.851562 35.222656 L 309.980469 35.003906 L 310.113281 34.792969 L 310.253906 34.59375 L 310.402344 34.402344 L 310.554688 34.222656 L 310.71875 34.050781 L 310.886719 33.890625 L 311.058594 33.742188 L 311.238281 33.597656 L 311.421875 33.464844 L 311.613281 33.34375 L 311.808594 33.226562 L 312.007812 33.125 L 312.214844 33.027344 L 312.425781 32.941406 L 312.644531 32.863281 L 312.863281 32.792969 L 313.089844 32.730469 L 313.316406 32.671875 L 313.546875 32.625 L 313.78125 32.582031 L 314.015625 32.550781 L 314.257812 32.523438 L 314.5 32.503906 L 314.746094 32.492188 L 314.992188 32.488281 L 315.328125 32.496094 L 315.652344 32.511719 L 315.964844 32.539062 L 316.265625 32.578125 L 316.554688 32.625 L 316.832031 32.6875 L 317.097656 32.757812 L 317.355469 32.839844 L 317.597656 32.933594 L 317.832031 33.039062 L 318.058594 33.152344 L 318.273438 33.277344 L 318.480469 33.40625 L 318.679688 33.546875 L 318.867188 33.695312 L 319.046875 33.851562 L 319.214844 34.019531 L 319.375 34.191406 L 319.527344 34.375 L 319.671875 34.566406 L 319.804688 34.761719 L 319.933594 34.964844 L 320.054688 35.175781 L 320.164062 35.390625 L 320.265625 35.613281 L 320.363281 35.847656 L 320.449219 36.085938 L 320.527344 36.328125 L 320.597656 36.582031 L 320.65625 36.839844 L 320.714844 37.105469 L 320.765625 37.375 L 320.8125 37.648438 L 320.851562 37.925781 L 320.882812 38.207031 L 320.910156 38.492188 L 320.929688 38.78125 L 320.945312 39.078125 L 320.953125 39.375 L 320.957031 39.679688 L 320.957031 39.980469 Z M 318.632812 38.253906 L 318.585938 37.835938 L 318.527344 37.445312 L 318.457031 37.074219 L 318.367188 36.730469 L 318.265625 36.40625 L 318.152344 36.105469 L 318.019531 35.828125 L 317.875 35.578125 L 317.71875 35.347656 L 317.542969 35.140625 L 317.355469 34.953125 L 317.152344 34.785156 L 316.933594 34.636719 L 316.699219 34.507812 L 316.445312 34.398438 L 316.179688 34.308594 L 315.898438 34.242188 L 315.601562 34.191406 L 315.285156 34.164062 L 314.957031 34.152344 L 314.84375 34.152344 L 314.730469 34.160156 L 314.613281 34.167969 L 314.378906 34.199219 L 314.257812 34.21875 L 314.015625 34.273438 L 313.894531 34.304688 L 313.769531 34.339844 L 313.648438 34.378906 L 313.527344 34.421875 L 313.410156 34.472656 L 313.292969 34.527344 L 313.175781 34.585938 L 313.066406 34.652344 L 312.953125 34.726562 L 312.84375 34.804688 L 312.738281 34.886719 L 312.628906 34.976562 L 312.527344 35.074219 L 312.425781 35.175781 L 312.328125 35.285156 L 312.234375 35.402344 L 312.144531 35.523438 L 312.058594 35.652344 L 311.976562 35.789062 L 311.894531 35.933594 L 311.816406 36.082031 L 311.742188 36.242188 L 311.671875 36.402344 L 311.609375 36.574219 L 311.554688 36.753906 L 311.503906 36.941406 L 311.457031 37.136719 L 311.421875 37.34375 L 311.386719 37.558594 L 311.363281 37.78125 L 311.34375 38.011719 L 311.328125 38.253906 Z M 318.632812 38.253906 "/>
<path style=" stroke:none;fill-rule:nonzero;fill:rgb(15.294118%,15.686275%,13.333333%);fill-opacity:1;" d="M 333.972656 42.53125 L 333.96875 42.71875 L 333.960938 42.902344 L 333.941406 43.082031 L 333.914062 43.257812 L 333.878906 43.429688 L 333.839844 43.597656 L 333.789062 43.761719 L 333.734375 43.921875 L 333.671875 44.078125 L 333.597656 44.230469 L 333.523438 44.375 L 333.441406 44.515625 L 333.351562 44.652344 L 333.253906 44.785156 L 333.152344 44.910156 L 333.042969 45.035156 L 332.925781 45.152344 L 332.804688 45.265625 L 332.671875 45.375 L 332.535156 45.480469 L 332.394531 45.578125 L 332.242188 45.671875 L 332.085938 45.761719 L 331.925781 45.84375 L 331.753906 45.925781 L 331.578125 46 L 331.398438 46.070312 L 331.207031 46.136719 L 331.011719 46.199219 L 330.8125 46.253906 L 330.605469 46.304688 L 330.394531 46.351562 L 330.175781 46.390625 L 329.953125 46.421875 L 329.722656 46.453125 L 329.488281 46.476562 L 329.246094 46.496094 L 329 46.507812 L 328.746094 46.515625 L 328.484375 46.519531 L 328.023438 46.511719 L 327.800781 46.5 L 327.582031 46.488281 L 327.367188 46.472656 L 327.15625 46.449219 L 326.949219 46.425781 L 326.75 46.398438 L 326.550781 46.367188 L 326.359375 46.332031 L 326.175781 46.292969 L 325.992188 46.25 L 325.816406 46.207031 L 325.644531 46.15625 L 325.476562 46.097656 L 325.316406 46.039062 L 325.15625 45.976562 L 325.003906 45.90625 L 324.855469 45.832031 L 324.707031 45.753906 L 324.570312 45.671875 L 324.433594 45.585938 L 324.300781 45.492188 L 324.175781 45.394531 L 324.050781 45.292969 L 323.933594 45.183594 L 323.820312 45.074219 L 323.710938 44.957031 L 323.507812 44.707031 L 323.417969 44.570312 L 323.328125 44.429688 L 323.246094 44.28125 L 323.167969 44.128906 L 323.097656 43.972656 L 323.027344 43.804688 L 322.964844 43.636719 L 322.910156 43.460938 L 322.855469 43.28125 L 322.808594 43.09375 L 324.796875 42.703125 L 324.859375 42.917969 L 324.9375 43.117188 L 325.023438 43.304688 L 325.125 43.484375 L 325.238281 43.648438 L 325.363281 43.804688 L 325.5 43.945312 L 325.648438 44.078125 L 325.808594 44.195312 L 325.984375 44.304688 L 326.171875 44.398438 L 326.371094 44.484375 L 326.585938 44.558594 L 326.816406 44.625 L 327.058594 44.679688 L 327.316406 44.726562 L 327.585938 44.761719 L 327.871094 44.785156 L 328.171875 44.800781 L 328.484375 44.804688 L 328.628906 44.804688 L 328.910156 44.796875 L 329.046875 44.789062 L 329.179688 44.78125 L 329.4375 44.757812 L 329.566406 44.742188 L 329.6875 44.722656 L 329.808594 44.707031 L 329.929688 44.683594 L 330.046875 44.660156 L 330.164062 44.632812 L 330.273438 44.601562 L 330.378906 44.570312 L 330.484375 44.535156 L 330.679688 44.457031 L 330.769531 44.414062 L 330.859375 44.367188 L 330.945312 44.316406 L 331.027344 44.261719 L 331.105469 44.203125 L 331.179688 44.144531 L 331.25 44.082031 L 331.3125 44.011719 L 331.375 43.945312 L 331.433594 43.871094 L 331.488281 43.796875 L 331.535156 43.71875 L 331.582031 43.632812 L 331.625 43.546875 L 331.664062 43.453125 L 331.695312 43.359375 L 331.722656 43.257812 L 331.746094 43.15625 L 331.777344 42.9375 L 331.785156 42.824219 L 331.785156 42.703125 L 331.78125 42.585938 L 331.773438 42.46875 L 331.761719 42.355469 L 331.738281 42.25 L 331.714844 42.148438 L 331.683594 42.050781 L 331.644531 41.957031 L 331.601562 41.867188 L 331.554688 41.785156 L 331.5 41.703125 L 331.4375 41.625 L 331.375 41.550781 L 331.304688 41.476562 L 331.230469 41.40625 L 331.15625 41.339844 L 331.074219 41.273438 L 330.984375 41.210938 L 330.894531 41.152344 L 330.796875 41.09375 L 330.699219 41.042969 L 330.59375 40.988281 L 330.484375 40.941406 L 330.371094 40.890625 L 330.253906 40.84375 L 330.128906 40.796875 L 330.003906 40.753906 L 329.871094 40.710938 L 329.734375 40.667969 L 329.59375 40.628906 L 329.449219 40.589844 L 329.152344 40.511719 L 329 40.46875 L 328.84375 40.425781 L 328.523438 40.339844 L 328.359375 40.292969 L 328.191406 40.246094 L 327.847656 40.152344 L 327.683594 40.109375 L 327.523438 40.066406 L 327.359375 40.023438 L 327.039062 39.929688 L 326.875 39.882812 L 326.234375 39.679688 L 326.074219 39.625 L 325.769531 39.507812 L 325.617188 39.441406 L 325.472656 39.375 L 325.328125 39.304688 L 325.1875 39.230469 L 325.050781 39.15625 L 324.914062 39.074219 L 324.785156 38.992188 L 324.660156 38.902344 L 324.539062 38.808594 L 324.421875 38.710938 L 324.3125 38.609375 L 324.207031 38.503906 L 324.105469 38.394531 L 324.007812 38.28125 L 323.914062 38.164062 L 323.828125 38.042969 L 323.746094 37.914062 L 323.671875 37.785156 L 323.601562 37.648438 L 323.542969 37.503906 L 323.488281 37.355469 L 323.445312 37.195312 L 323.410156 37.035156 L 323.382812 36.863281 L 323.363281 36.6875 L 323.351562 36.503906 L 323.347656 36.316406 L 323.359375 35.953125 L 323.398438 35.609375 L 323.464844 35.285156 L 323.554688 34.976562 L 323.675781 34.6875 L 323.820312 34.414062 L 323.988281 34.160156 L 324.1875 33.921875 L 324.410156 33.703125 L 324.660156 33.503906 L 324.9375 33.316406 L 325.238281 33.152344 L 325.5625 33.003906 L 325.910156 32.878906 L 326.285156 32.769531 L 326.679688 32.683594 L 327.101562 32.613281 L 327.546875 32.566406 L 328.015625 32.535156 L 328.511719 32.527344 L 328.949219 32.535156 L 329.367188 32.558594 L 329.769531 32.597656 L 330.152344 32.652344 L 330.515625 32.722656 L 330.863281 32.808594 L 331.191406 32.914062 L 331.5 33.03125 L 331.789062 33.164062 L 332.0625 33.316406 L 332.316406 33.480469 L 332.550781 33.667969 L 332.769531 33.871094 L 332.964844 34.097656 L 333.144531 34.339844 L 333.300781 34.601562 L 333.4375 34.882812 L 333.558594 35.183594 L 333.65625 35.503906 L 333.738281 35.839844 L 331.710938 36.089844 L 331.6875 35.988281 L 331.660156 35.886719 L 331.625 35.789062 L 331.589844 35.699219 L 331.550781 35.609375 L 331.507812 35.523438 L 331.460938 35.441406 L 331.410156 35.363281 L 331.355469 35.285156 L 331.238281 35.144531 L 331.171875 35.074219 L 331.039062 34.949219 L 330.96875 34.890625 L 330.894531 34.832031 L 330.738281 34.730469 L 330.65625 34.683594 L 330.574219 34.640625 L 330.488281 34.597656 L 330.398438 34.554688 L 330.308594 34.515625 L 330.214844 34.480469 L 330.121094 34.449219 L 330.023438 34.417969 L 329.921875 34.390625 L 329.820312 34.367188 L 329.503906 34.308594 L 329.398438 34.292969 L 329.289062 34.277344 L 329.183594 34.261719 L 329.074219 34.253906 L 328.960938 34.242188 L 328.851562 34.234375 L 328.625 34.226562 L 328.511719 34.226562 L 328.214844 34.230469 L 327.933594 34.246094 L 327.667969 34.269531 L 327.417969 34.300781 L 327.183594 34.34375 L 326.96875 34.394531 L 326.765625 34.453125 L 326.582031 34.523438 L 326.414062 34.601562 L 326.257812 34.691406 L 326.121094 34.789062 L 326 34.894531 L 325.890625 35.011719 L 325.796875 35.136719 L 325.714844 35.269531 L 325.648438 35.417969 L 325.597656 35.570312 L 325.5625 35.734375 L 325.542969 35.90625 L 325.535156 36.089844 L 325.535156 36.199219 L 325.542969 36.304688 L 325.558594 36.402344 L 325.578125 36.5 L 325.601562 36.59375 L 325.628906 36.683594 L 325.664062 36.769531 L 325.703125 36.851562 L 325.746094 36.929688 L 325.796875 37.003906 L 325.855469 37.070312 L 325.914062 37.140625 L 325.980469 37.203125 L 326.121094 37.328125 L 326.199219 37.386719 L 326.28125 37.445312 L 326.363281 37.5 L 326.453125 37.550781 L 326.546875 37.601562 L 326.644531 37.648438 L 326.855469 37.742188 L 327.082031 37.828125 L 327.199219 37.871094 L 327.320312 37.910156 L 327.445312 37.953125 L 327.578125 37.992188 L 327.710938 38.027344 L 327.984375 38.097656 L 328.128906 38.136719 L 328.273438 38.171875 L 328.417969 38.210938 L 328.570312 38.246094 L 328.722656 38.285156 L 329.035156 38.363281 L 329.199219 38.402344 L 329.304688 38.429688 L 329.414062 38.460938 L 329.632812 38.515625 L 329.960938 38.609375 L 330.1875 38.671875 L 330.296875 38.703125 L 330.523438 38.765625 L 330.851562 38.871094 L 330.960938 38.910156 L 331.066406 38.949219 L 331.175781 38.992188 L 331.492188 39.121094 L 331.703125 39.214844 L 331.804688 39.261719 L 331.90625 39.3125 L 332.003906 39.367188 L 332.101562 39.417969 L 332.199219 39.476562 L 332.292969 39.53125 L 332.480469 39.648438 L 332.660156 39.773438 L 332.746094 39.839844 L 332.910156 39.980469 L 332.988281 40.054688 L 333.066406 40.132812 L 333.140625 40.210938 L 333.28125 40.375 L 333.34375 40.460938 L 333.40625 40.550781 L 333.46875 40.644531 L 333.523438 40.738281 L 333.578125 40.835938 L 333.628906 40.9375 L 333.675781 41.039062 L 333.71875 41.144531 L 333.761719 41.253906 L 333.839844 41.480469 L 333.871094 41.601562 L 333.898438 41.722656 L 333.921875 41.847656 L 333.941406 41.976562 L 333.953125 42.109375 L 333.964844 42.246094 L 333.972656 42.386719 Z M 333.972656 42.53125 "/>
<path style=" stroke:none;fill-rule:nonzero;fill:rgb(15.294118%,15.686275%,13.333333%);fill-opacity:1;" d="M 341.75 51.582031 L 341.296875 51.574219 L 341.078125 51.5625 L 340.863281 51.542969 L 340.652344 51.523438 L 340.449219 51.496094 L 340.253906 51.464844 L 340.058594 51.429688 L 339.871094 51.390625 L 339.6875 51.34375 L 339.511719 51.296875 L 339.339844 51.242188 L 339.171875 51.183594 L 339.011719 51.121094 L 338.855469 51.054688 L 338.703125 50.984375 L 338.554688 50.90625 L 338.414062 50.828125 L 338.28125 50.746094 L 338.148438 50.65625 L 338.023438 50.566406 L 337.90625 50.476562 L 337.789062 50.378906 L 337.570312 50.175781 L 337.46875 50.070312 L 337.28125 49.84375 L 337.195312 49.726562 L 337.113281 49.605469 L 337.035156 49.484375 L 336.960938 49.355469 L 336.894531 49.226562 L 336.828125 49.09375 L 336.769531 48.960938 L 336.714844 48.820312 L 336.664062 48.679688 L 336.617188 48.539062 L 336.574219 48.390625 L 336.539062 48.242188 L 338.800781 47.917969 L 338.851562 48.101562 L 338.910156 48.277344 L 338.984375 48.441406 L 339.066406 48.597656 L 339.160156 48.746094 L 339.265625 48.886719 L 339.378906 49.015625 L 339.503906 49.140625 L 339.640625 49.253906 L 339.789062 49.355469 L 339.949219 49.453125 L 340.117188 49.542969 L 340.296875 49.617188 L 340.484375 49.683594 L 340.683594 49.742188 L 340.890625 49.789062 L 341.105469 49.824219 L 341.332031 49.847656 L 341.570312 49.863281 L 341.8125 49.871094 L 341.964844 49.867188 L 342.113281 49.859375 L 342.257812 49.851562 L 342.402344 49.835938 L 342.542969 49.816406 L 342.679688 49.792969 L 342.8125 49.765625 L 342.945312 49.734375 L 343.203125 49.65625 L 343.324219 49.613281 L 343.445312 49.5625 L 343.671875 49.445312 L 343.78125 49.378906 L 343.882812 49.308594 L 343.984375 49.230469 L 344.082031 49.148438 L 344.175781 49.0625 L 344.265625 48.96875 L 344.351562 48.875 L 344.433594 48.773438 L 344.582031 48.554688 L 344.652344 48.433594 L 344.71875 48.308594 L 344.78125 48.179688 L 344.835938 48.042969 L 344.890625 47.902344 L 344.941406 47.757812 L 344.984375 47.601562 L 345.023438 47.441406 L 345.0625 47.277344 L 345.09375 47.105469 L 345.117188 46.925781 L 345.140625 46.738281 L 345.15625 46.546875 L 345.167969 46.347656 L 345.175781 46.140625 L 345.175781 43.753906 L 345.152344 43.753906 L 345.101562 43.855469 L 344.992188 44.058594 L 344.933594 44.160156 L 344.808594 44.355469 L 344.742188 44.453125 L 344.601562 44.648438 L 344.453125 44.835938 L 344.375 44.925781 L 344.210938 45.097656 L 344.121094 45.179688 L 344.027344 45.261719 L 343.933594 45.339844 L 343.835938 45.417969 L 343.734375 45.496094 L 343.628906 45.566406 L 343.519531 45.640625 L 343.410156 45.707031 L 343.296875 45.773438 L 343.179688 45.835938 L 343.058594 45.894531 L 342.933594 45.953125 L 342.804688 46.007812 L 342.675781 46.058594 L 342.539062 46.109375 L 342.402344 46.15625 L 342.257812 46.195312 L 342.113281 46.230469 L 341.964844 46.265625 L 341.808594 46.292969 L 341.652344 46.316406 L 341.488281 46.335938 L 341.324219 46.347656 L 341.152344 46.359375 L 340.980469 46.367188 L 340.800781 46.367188 L 340.546875 46.363281 L 340.300781 46.351562 L 340.0625 46.328125 L 339.828125 46.300781 L 339.605469 46.261719 L 339.386719 46.214844 L 339.175781 46.160156 L 338.972656 46.097656 L 338.777344 46.023438 L 338.589844 45.941406 L 338.410156 45.851562 L 338.234375 45.75 L 338.070312 45.640625 L 337.910156 45.523438 L 337.757812 45.398438 L 337.609375 45.265625 L 337.46875 45.121094 L 337.335938 44.972656 L 337.207031 44.8125 L 337.085938 44.644531 L 336.976562 44.464844 L 336.871094 44.28125 L 336.769531 44.089844 L 336.675781 43.886719 L 336.585938 43.675781 L 336.503906 43.457031 L 336.429688 43.234375 L 336.359375 43 L 336.296875 42.753906 L 336.238281 42.503906 L 336.1875 42.242188 L 336.144531 41.972656 L 336.101562 41.695312 L 336.070312 41.410156 L 336.039062 41.117188 L 336.015625 40.816406 L 336 40.503906 L 335.984375 40.1875 L 335.976562 39.863281 L 335.976562 39.207031 L 335.984375 38.890625 L 336 38.582031 L 336.015625 38.28125 L 336.039062 37.984375 L 336.070312 37.695312 L 336.101562 37.414062 L 336.144531 37.136719 L 336.1875 36.867188 L 336.238281 36.601562 L 336.296875 36.347656 L 336.359375 36.097656 L 336.429688 35.859375 L 336.507812 35.625 L 336.59375 35.402344 L 336.683594 35.1875 L 336.78125 34.976562 L 336.886719 34.777344 L 336.996094 34.585938 L 337.113281 34.402344 L 337.238281 34.222656 L 337.371094 34.054688 L 337.511719 33.894531 L 337.660156 33.742188 L 337.8125 33.597656 L 337.972656 33.464844 L 338.140625 33.339844 L 338.316406 33.222656 L 338.5 33.113281 L 338.6875 33.015625 L 338.886719 32.921875 L 339.09375 32.839844 L 339.308594 32.765625 L 339.535156 32.703125 L 339.765625 32.648438 L 340.007812 32.605469 L 340.253906 32.570312 L 340.511719 32.546875 L 340.777344 32.53125 L 341.050781 32.527344 L 341.335938 32.535156 L 341.609375 32.554688 L 341.878906 32.585938 L 342.140625 32.632812 L 342.390625 32.691406 L 342.636719 32.765625 L 342.875 32.851562 L 343.105469 32.949219 L 343.324219 33.0625 L 343.539062 33.191406 L 343.746094 33.324219 L 343.945312 33.472656 L 344.132812 33.628906 L 344.3125 33.800781 L 344.480469 33.980469 L 344.640625 34.171875 L 344.789062 34.375 L 344.929688 34.589844 L 345.058594 34.816406 L 345.175781 35.050781 L 345.203125 35.050781 L 345.203125 34.789062 L 345.207031 34.722656 L 345.207031 34.578125 L 345.210938 34.503906 L 345.210938 34.429688 L 345.21875 34.273438 L 345.222656 34.199219 L 345.230469 34.125 L 345.238281 33.976562 L 345.242188 33.90625 L 345.242188 33.835938 L 345.25 33.695312 L 345.253906 33.628906 L 345.257812 33.558594 L 345.265625 33.425781 L 345.273438 33.363281 L 345.277344 33.300781 L 345.28125 33.242188 L 345.289062 33.1875 L 345.296875 33.078125 L 345.300781 33.027344 L 345.308594 32.980469 L 345.3125 32.933594 L 345.316406 32.894531 L 345.324219 32.859375 L 345.328125 32.828125 L 345.335938 32.78125 L 345.34375 32.761719 L 345.351562 32.738281 L 347.492188 32.738281 L 347.488281 32.761719 L 347.484375 32.789062 L 347.484375 32.820312 L 347.476562 32.890625 L 347.476562 32.933594 L 347.472656 32.976562 L 347.46875 33.023438 L 347.46875 33.074219 L 347.464844 33.125 L 347.464844 33.179688 L 347.460938 33.238281 L 347.457031 33.292969 L 347.457031 33.355469 L 347.453125 33.417969 L 347.449219 33.484375 L 347.449219 33.550781 L 347.445312 33.617188 L 347.441406 33.691406 L 347.441406 33.765625 L 347.4375 33.839844 L 347.4375 33.917969 L 347.433594 33.996094 L 347.429688 34.078125 L 347.429688 34.160156 L 347.421875 34.332031 L 347.421875 34.421875 L 347.414062 34.601562 L 347.414062 45.878906 L 347.402344 46.433594 L 347.359375 46.960938 L 347.289062 47.457031 L 347.191406 47.925781 L 347.066406 48.367188 L 346.910156 48.777344 L 346.730469 49.160156 L 346.519531 49.519531 L 346.28125 49.84375 L 346.015625 50.144531 L 345.722656 50.417969 L 345.402344 50.660156 L 345.046875 50.878906 L 344.667969 51.066406 L 344.253906 51.222656 L 343.8125 51.351562 L 343.34375 51.453125 L 342.84375 51.523438 L 342.3125 51.566406 Z M 345.175781 39.503906 L 345.175781 39.226562 L 345.164062 38.957031 L 345.148438 38.691406 L 345.128906 38.441406 L 345.097656 38.195312 L 345.066406 37.957031 L 345.023438 37.726562 L 344.976562 37.507812 L 344.925781 37.292969 L 344.863281 37.089844 L 344.804688 36.890625 L 344.738281 36.699219 L 344.667969 36.515625 L 344.59375 36.339844 L 344.515625 36.171875 L 344.433594 36.011719 L 344.347656 35.855469 L 344.257812 35.710938 L 344.164062 35.570312 L 344.066406 35.441406 L 343.964844 35.316406 L 343.859375 35.199219 L 343.75 35.089844 L 343.640625 34.984375 L 343.527344 34.886719 L 343.410156 34.796875 L 343.289062 34.710938 L 343.167969 34.636719 L 343.042969 34.566406 L 342.914062 34.503906 L 342.785156 34.445312 L 342.65625 34.394531 L 342.527344 34.347656 L 342.398438 34.308594 L 342.265625 34.277344 L 342.136719 34.25 L 342.003906 34.230469 L 341.871094 34.214844 L 341.734375 34.207031 L 341.601562 34.203125 L 341.429688 34.207031 L 341.265625 34.214844 L 341.105469 34.230469 L 340.949219 34.25 L 340.796875 34.277344 L 340.652344 34.308594 L 340.511719 34.347656 L 340.371094 34.394531 L 340.242188 34.445312 L 340.113281 34.503906 L 339.992188 34.566406 L 339.875 34.636719 L 339.765625 34.714844 L 339.65625 34.796875 L 339.550781 34.890625 L 339.449219 34.988281 L 339.355469 35.09375 L 339.261719 35.207031 L 339.171875 35.324219 L 339.089844 35.453125 L 339.011719 35.582031 L 338.9375 35.722656 L 338.867188 35.867188 L 338.800781 36.023438 L 338.738281 36.183594 L 338.679688 36.351562 L 338.625 36.527344 L 338.574219 36.714844 L 338.53125 36.90625 L 338.488281 37.101562 L 338.453125 37.308594 L 338.421875 37.519531 L 338.390625 37.738281 L 338.367188 37.96875 L 338.347656 38.203125 L 338.332031 38.449219 L 338.316406 38.699219 L 338.308594 38.960938 L 338.300781 39.226562 L 338.300781 39.792969 L 338.308594 40.070312 L 338.316406 40.339844 L 338.332031 40.601562 L 338.347656 40.851562 L 338.367188 41.09375 L 338.390625 41.324219 L 338.421875 41.546875 L 338.453125 41.761719 L 338.488281 41.96875 L 338.53125 42.160156 L 338.574219 42.347656 L 338.625 42.527344 L 338.679688 42.695312 L 338.738281 42.859375 L 338.800781 43.015625 L 338.867188 43.167969 L 338.9375 43.308594 L 339.011719 43.441406 L 339.089844 43.566406 L 339.171875 43.6875 L 339.257812 43.796875 L 339.347656 43.902344 L 339.441406 44 L 339.542969 44.09375 L 339.644531 44.175781 L 339.753906 44.253906 L 339.863281 44.324219 L 339.980469 44.386719 L 340.101562 44.441406 L 340.226562 44.492188 L 340.355469 44.539062 L 340.488281 44.578125 L 340.628906 44.609375 L 340.773438 44.640625 L 340.921875 44.664062 L 341.074219 44.683594 L 341.234375 44.695312 L 341.394531 44.703125 L 341.5625 44.707031 L 341.699219 44.703125 L 341.832031 44.695312 L 341.964844 44.679688 L 342.097656 44.660156 L 342.230469 44.632812 L 342.359375 44.601562 L 342.492188 44.5625 L 342.621094 44.519531 L 342.75 44.472656 L 342.875 44.417969 L 343.003906 44.355469 L 343.132812 44.289062 L 343.253906 44.214844 L 343.375 44.132812 L 343.492188 44.046875 L 343.609375 43.949219 L 343.71875 43.851562 L 343.828125 43.742188 L 343.9375 43.625 L 344.039062 43.503906 L 344.140625 43.375 L 344.238281 43.242188 L 344.328125 43.097656 L 344.417969 42.945312 L 344.503906 42.789062 L 344.582031 42.625 L 344.660156 42.453125 L 344.730469 42.273438 L 344.800781 42.085938 L 344.863281 41.890625 L 344.925781 41.691406 L 344.976562 41.480469 L 345.023438 41.261719 L 345.066406 41.035156 L 345.097656 40.800781 L 345.128906 40.558594 L 345.148438 40.308594 L 345.164062 40.046875 L 345.175781 39.78125 Z M 345.175781 39.503906 "/>
<g clip-path="url(#clip1)" clip-rule="nonzero">
<path style=" stroke:none;fill-rule:nonzero;fill:rgb(15.294118%,15.686275%,13.333333%);fill-opacity:1;" d="M 362.308594 39.492188 L 362.292969 40.183594 L 362.246094 40.839844 L 362.167969 41.457031 L 362.058594 42.042969 L 361.917969 42.589844 L 361.746094 43.101562 L 361.542969 43.574219 L 361.308594 44.011719 L 361.042969 44.414062 L 360.746094 44.78125 L 360.417969 45.109375 L 360.0625 45.40625 L 359.679688 45.667969 L 359.269531 45.894531 L 358.828125 46.082031 L 358.359375 46.242188 L 357.863281 46.363281 L 357.339844 46.449219 L 356.785156 46.5 L 356.207031 46.519531 L 355.925781 46.515625 L 355.652344 46.5 L 355.386719 46.480469 L 355.125 46.449219 L 354.867188 46.410156 L 354.617188 46.367188 L 354.375 46.308594 L 354.136719 46.246094 L 353.90625 46.175781 L 353.679688 46.09375 L 353.460938 46.003906 L 353.25 45.90625 L 353.042969 45.796875 L 352.84375 45.679688 L 352.652344 45.554688 L 352.464844 45.421875 L 352.289062 45.277344 L 352.117188 45.125 L 351.949219 44.964844 L 351.792969 44.792969 L 351.644531 44.613281 L 351.5 44.425781 L 351.367188 44.226562 L 351.238281 44.023438 L 351.117188 43.808594 L 351.003906 43.585938 L 350.894531 43.351562 L 350.796875 43.113281 L 350.703125 42.863281 L 350.617188 42.605469 L 350.539062 42.335938 L 350.472656 42.054688 L 350.414062 41.769531 L 350.359375 41.46875 L 350.316406 41.164062 L 350.28125 40.847656 L 350.253906 40.523438 L 350.230469 40.1875 L 350.21875 39.84375 L 350.214844 39.492188 L 350.277344 38.160156 L 350.457031 36.96875 L 350.761719 35.921875 L 351.1875 35.011719 L 351.734375 34.238281 L 352.398438 33.609375 L 353.1875 33.121094 L 354.097656 32.769531 L 355.128906 32.558594 L 356.28125 32.488281 L 356.589844 32.492188 L 356.894531 32.507812 L 357.1875 32.527344 L 357.472656 32.558594 L 357.746094 32.597656 L 358.015625 32.648438 L 358.273438 32.703125 L 358.519531 32.769531 L 358.761719 32.84375 L 358.992188 32.925781 L 359.21875 33.019531 L 359.4375 33.121094 L 359.644531 33.230469 L 359.847656 33.347656 L 360.039062 33.472656 L 360.222656 33.609375 L 360.394531 33.753906 L 360.5625 33.90625 L 360.71875 34.070312 L 360.871094 34.238281 L 361.011719 34.417969 L 361.148438 34.605469 L 361.277344 34.804688 L 361.398438 35.011719 L 361.511719 35.222656 L 361.613281 35.449219 L 361.710938 35.679688 L 361.800781 35.921875 L 361.882812 36.167969 L 361.957031 36.429688 L 362.023438 36.695312 L 362.082031 36.96875 L 362.136719 37.253906 L 362.179688 37.546875 L 362.21875 37.851562 L 362.25 38.160156 L 362.277344 38.480469 L 362.292969 38.808594 L 362.304688 39.144531 Z M 359.945312 39.492188 L 359.941406 39.183594 L 359.933594 38.882812 L 359.921875 38.59375 L 359.902344 38.320312 L 359.882812 38.054688 L 359.855469 37.796875 L 359.820312 37.554688 L 359.785156 37.324219 L 359.742188 37.101562 L 359.695312 36.890625 L 359.644531 36.691406 L 359.589844 36.496094 L 359.53125 36.3125 L 359.464844 36.136719 L 359.398438 35.96875 L 359.324219 35.808594 L 359.246094 35.65625 L 359.160156 35.515625 L 359.074219 35.378906 L 358.980469 35.253906 L 358.886719 35.132812 L 358.789062 35.023438 L 358.683594 34.917969 L 358.578125 34.824219 L 358.464844 34.734375 L 358.351562 34.652344 L 358.230469 34.578125 L 358.105469 34.511719 L 357.976562 34.453125 L 357.84375 34.402344 L 357.707031 34.355469 L 357.566406 34.3125 L 357.421875 34.273438 L 357.277344 34.242188 L 357.125 34.214844 L 356.96875 34.191406 L 356.8125 34.175781 L 356.652344 34.164062 L 356.488281 34.15625 L 356.316406 34.152344 L 356.148438 34.15625 L 355.980469 34.164062 L 355.816406 34.175781 L 355.652344 34.195312 L 355.496094 34.21875 L 355.339844 34.246094 L 355.191406 34.28125 L 355.042969 34.320312 L 354.898438 34.363281 L 354.753906 34.414062 L 354.621094 34.46875 L 354.488281 34.53125 L 354.359375 34.597656 L 354.238281 34.675781 L 354.117188 34.757812 L 354.003906 34.851562 L 353.890625 34.949219 L 353.78125 35.054688 L 353.679688 35.167969 L 353.578125 35.289062 L 353.484375 35.417969 L 353.394531 35.550781 L 353.308594 35.695312 L 353.226562 35.847656 L 353.148438 36.007812 L 353.074219 36.175781 L 353.007812 36.351562 L 352.945312 36.535156 L 352.882812 36.726562 L 352.828125 36.929688 L 352.78125 37.136719 L 352.738281 37.359375 L 352.703125 37.589844 L 352.667969 37.832031 L 352.640625 38.082031 L 352.621094 38.34375 L 352.601562 38.613281 L 352.589844 38.898438 L 352.582031 39.1875 L 352.578125 39.492188 L 352.582031 39.800781 L 352.589844 40.101562 L 352.605469 40.386719 L 352.625 40.664062 L 352.648438 40.933594 L 352.679688 41.1875 L 352.714844 41.433594 L 352.753906 41.667969 L 352.800781 41.890625 L 352.855469 42.105469 L 352.910156 42.304688 L 352.972656 42.5 L 353.039062 42.683594 L 353.105469 42.859375 L 353.179688 43.027344 L 353.257812 43.1875 L 353.335938 43.335938 L 353.421875 43.480469 L 353.511719 43.617188 L 353.605469 43.742188 L 353.703125 43.863281 L 353.804688 43.972656 L 353.910156 44.078125 L 354.019531 44.175781 L 354.132812 44.265625 L 354.25 44.347656 L 354.367188 44.421875 L 354.488281 44.492188 L 354.613281 44.550781 L 354.742188 44.605469 L 354.875 44.652344 L 355.011719 44.695312 L 355.152344 44.734375 L 355.289062 44.765625 L 355.433594 44.792969 L 355.578125 44.816406 L 355.726562 44.832031 L 355.875 44.84375 L 356.027344 44.851562 L 356.179688 44.855469 L 356.351562 44.851562 L 356.519531 44.847656 L 356.683594 44.835938 L 357.003906 44.796875 L 357.15625 44.769531 L 357.308594 44.738281 L 357.457031 44.703125 L 357.601562 44.664062 L 357.742188 44.617188 L 357.882812 44.5625 L 358.015625 44.503906 L 358.144531 44.433594 L 358.269531 44.359375 L 358.390625 44.277344 L 358.507812 44.1875 L 358.621094 44.089844 L 358.726562 43.984375 L 358.832031 43.875 L 358.929688 43.753906 L 359.027344 43.628906 L 359.117188 43.492188 L 359.203125 43.347656 L 359.285156 43.195312 L 359.363281 43.035156 L 359.4375 42.867188 L 359.503906 42.6875 L 359.566406 42.503906 L 359.625 42.308594 L 359.683594 42.105469 L 359.730469 41.890625 L 359.777344 41.667969 L 359.816406 41.433594 L 359.851562 41.1875 L 359.878906 40.933594 L 359.902344 40.664062 L 359.921875 40.386719 L 359.933594 40.101562 L 359.941406 39.800781 Z M 359.945312 39.492188 "/>
</g>
</g>
</svg>
